<?xml version='1.0' encoding='utf-8'?>
<svg xmlns="http://www.w3.org/2000/svg" width="210" height="297" viewBox="0 0 210 297"><g id="path2717"><path d="M 142.907,83.806 L 142.599,82.839 L 142.345,81.857 L 142.141,80.863 L 141.984,79.861 L 141.867,78.853 L 141.787,77.841 L 141.738,76.827 L 141.715,75.813 L 141.711,74.798 L 141.723,73.783 L 141.745,72.768 L 141.771,71.754 L 141.797,70.739 L 141.817,69.725 L 141.825,68.710 L 141.817,67.695 L 141.785,66.681 L 141.725,65.668 L 141.629,64.658 L 141.491,63.652 L 141.305,62.655 L 141.065,61.669 L 140.767,60.699 L 140.405,59.751 L 139.979,58.830 L 139.488,57.942 L 138.903,57.117 L 137.988,56.706 L 136.983,56.567 L 135.984,56.396 L 135.114,55.903 L 134.496,55.099 L 133.559,54.781 L 132.546,54.822 L 131.537,54.932 L 130.526,54.904 L 129.541,54.661 L 128.564,54.385 L 127.626,54.008 L 128.422,53.689 L 129.425,53.537 L 129.993,52.964 L 129.160,52.394 L 128.192,52.106 L 127.185,51.985 L 126.172,51.922 L 125.158,51.894 L 124.143,51.893 L 123.128,51.914 L 122.114,51.957 L 121.102,52.026 L 120.093,52.131 L 119.095,52.314 L 118.159,52.701 L 117.297,53.235 L 116.514,53.880 L 115.803,54.603 L 115.155,55.384 L 114.560,56.207 L 114.011,57.060 L 113.499,57.936 L 113.017,58.829 L 112.561,59.736 L 112.125,60.652 L 111.704,61.575 L 111.292,62.503 L 110.882,63.431 L 110.463,64.355 L 110.013,65.265 L 109.504,66.143 L 108.925,66.975 L 108.270,67.750 L 107.547,68.461 L 106.773,69.118 L 105.978,69.749 L 105.197,70.397 L 104.463,71.097 L 103.801,71.865 L 103.220,72.697 L 102.717,73.578 L 102.292,74.499 L 101.947,75.454 L 101.674,76.431 L 101.463,77.423 L 101.303,78.425 L 101.188,79.434 L 101.111,80.446 L 101.065,81.459 L 101.046,82.474 L 101.048,83.489 L 101.067,84.503 L 101.100,85.518 L 101.142,86.532 L 101.191,87.545 L 101.242,88.559 L 101.291,89.573 L 101.334,90.587 L 101.365,91.601 L 101.377,92.616 Z" fill="#ffff00" stroke="#000000" stroke-width="1.2" stroke-opacity="1" fill-opacity="0.981132" /></g><g id="path2147"><path d="M 145.424,213.429 L 145.313,214.247 L 145.212,215.065 L 145.116,215.884 L 145.022,216.704 L 144.927,217.523 L 144.827,218.342 L 144.718,219.160 L 144.597,219.975 L 144.461,220.789 L 144.305,221.599 L 144.127,222.404 L 143.939,223.207 L 143.745,224.009 L 143.546,224.810 L 143.342,225.609 L 143.131,226.406 L 142.912,227.201 L 142.687,227.995 L 142.453,228.786 L 142.210,229.574 L 141.958,230.359 L 141.696,231.142 L 141.424,231.920 L 141.141,232.695 L 140.846,233.465 L 140.539,234.231 L 140.220,234.992 L 139.888,235.747 L 139.542,236.495 L 139.183,237.238 L 138.479,237.332 L 137.808,237.490 L 137.611,238.290 L 137.499,239.107 L 137.401,239.926 L 137.278,240.741 L 137.079,241.541 L 136.706,242.272 L 135.962,242.545 L 135.138,242.513 L 134.320,242.412 L 133.506,242.278 L 132.696,242.122 L 131.889,241.952 L 131.084,241.770 L 130.282,241.580 L 129.481,241.381 L 128.682,241.177 L 127.885,240.966 L 127.089,240.750 L 126.294,240.529 L 125.501,240.302 L 124.710,240.069 L 123.924,239.817 L 123.213,239.402 L 122.558,238.902 L 121.931,238.366 L 121.321,237.811 L 120.725,237.241 L 120.139,236.660 L 119.562,236.071 L 118.992,235.474 L 118.430,234.871 L 117.874,234.261 L 117.326,233.645 L 116.785,233.022 L 116.254,232.391 L 115.737,231.749 L 115.246,231.086 L 114.919,230.333 L 114.742,229.528 L 114.617,228.712 L 114.499,227.896 L 114.352,227.084 L 114.113,226.296 L 113.646,225.622 L 113.030,225.074 L 112.381,224.565 L 111.783,223.999 L 111.356,223.298 L 111.149,222.501 L 111.104,221.679 L 111.157,220.856 L 111.265,220.038 L 111.396,219.224 L 111.526,218.409 L 111.632,217.591 L 111.687,216.769 L 111.654,215.945 L 111.487,215.139 L 111.143,214.392 L 110.614,213.762 L 109.944,213.284 L 109.179,212.981 L 108.372,212.814 L 107.553,212.713 L 106.734,212.615 L 105.925,212.456 L 105.153,212.171 Z" fill="#ffff00" stroke="#000000" stroke-width="1.2" stroke-opacity="1" fill-opacity="0.98113215" /></g><g id="path230"><path d="M 130.322,220.980 L 125.737,220.747 L 121.173,220.310 L 116.636,219.614 L 112.181,218.515 L 107.782,217.220 L 103.477,215.626 L 99.311,213.706 L 95.234,211.605 L 91.335,209.181 L 87.603,206.516 L 83.988,203.690 L 80.649,200.539 L 77.476,197.230 L 74.468,193.762 L 71.791,190.034 L 69.276,186.200 L 67.010,182.207 L 65.056,178.057 L 63.275,173.829 L 61.836,169.470 L 60.660,165.038 L 59.666,160.557 L 59.105,156.000 L 58.740,151.430 L 58.628,146.840 L 58.899,142.260 L 59.357,137.697 L 60.141,133.173 L 61.225,128.717 L 62.492,124.307 L 64.144,120.024 L 66.011,115.836 L 68.077,111.736 L 70.514,107.847 L 73.109,104.067 L 75.941,100.453 L 79.045,97.076 L 82.290,93.834 L 85.781,90.853 L 89.455,88.108 L 93.246,85.524 L 97.262,83.299 L 101.383,81.289 L 105.602,79.479 L 109.975,78.085 L 114.401,76.888 L 118.898,75.963 L 123.453,75.423 L 128.027,75.088 L 132.618,75.088 L 137.191,75.423 L 141.747,75.963 L 146.244,76.888 L 150.670,78.085 L 155.043,79.479 L 159.262,81.289 L 163.383,83.299 L 167.398,85.524 L 171.190,88.108 L 174.863,90.853 L 178.355,93.834 L 181.600,97.076 L 184.704,100.453 L 187.536,104.067 L 190.131,107.847 L 192.568,111.736 L 194.633,115.836 L 196.500,120.024 L 198.152,124.307 L 199.419,128.717 L 200.504,133.173 L 201.288,137.697 L 201.745,142.260 L 202.017,146.840 L 201.904,151.430 L 201.540,156.000 L 200.979,160.557 L 199.984,165.038 L 198.809,169.470 L 197.369,173.829 L 195.588,178.057 L 193.634,182.207 L 191.369,186.200 L 188.853,190.034 L 186.177,193.762 L 183.169,197.230 L 179.995,200.539 L 176.657,203.690 L 173.041,206.516 L 169.309,209.181 L 165.411,211.605 L 161.333,213.706 L 157.168,215.626 L 152.863,217.220 L 148.464,218.515 L 144.009,219.614 L 139.471,220.310 L 134.907,220.747 L 130.322,220.980 Z" fill="#ffff00" stroke="#000000" stroke-width="1.2" stroke-opacity="1" /></g><g id="path393"><path d="M 110.816,139.239 L 109.656,139.181 L 108.501,139.074 L 107.352,138.901 L 106.224,138.630 L 105.108,138.312 L 104.016,137.915 L 102.957,137.441 L 101.919,136.923 L 100.928,136.317 L 99.974,135.657 L 99.048,134.956 L 98.197,134.166 L 97.381,133.341 L 96.612,132.470 L 95.921,131.538 L 95.271,130.577 L 94.690,129.571 L 94.183,128.527 L 93.721,127.463 L 93.351,126.362 L 93.045,125.243 L 92.786,124.110 L 92.642,122.958 L 92.547,121.802 L 92.518,120.641 L 92.588,119.482 L 92.708,118.328 L 92.910,117.184 L 93.192,116.059 L 93.522,114.946 L 93.947,113.865 L 94.431,112.811 L 94.961,111.778 L 95.591,110.802 L 96.262,109.855 L 96.986,108.947 L 97.784,108.105 L 98.618,107.298 L 99.508,106.551 L 100.447,105.870 L 101.415,105.230 L 102.435,104.675 L 103.484,104.179 L 104.554,103.728 L 105.664,103.386 L 106.786,103.091 L 107.925,102.861 L 109.078,102.729 L 110.235,102.647 L 111.397,102.647 L 112.554,102.729 L 113.707,102.861 L 114.846,103.091 L 115.968,103.386 L 117.077,103.728 L 118.148,104.179 L 119.196,104.675 L 120.216,105.230 L 121.185,105.870 L 122.124,106.551 L 123.014,107.298 L 123.848,108.105 L 124.646,108.947 L 125.370,109.855 L 126.041,110.802 L 126.671,111.778 L 127.201,112.811 L 127.685,113.865 L 128.110,114.946 L 128.440,116.059 L 128.722,117.184 L 128.924,118.328 L 129.043,119.482 L 129.114,120.641 L 129.085,121.802 L 128.990,122.958 L 128.845,124.110 L 128.587,125.243 L 128.281,126.362 L 127.911,127.463 L 127.449,128.527 L 126.941,129.571 L 126.361,130.577 L 125.711,131.538 L 125.020,132.470 L 124.251,133.341 L 123.435,134.166 L 122.584,134.956 L 121.658,135.657 L 120.704,136.317 L 119.713,136.923 L 118.675,137.441 L 117.615,137.915 L 116.524,138.312 L 115.408,138.630 L 114.279,138.901 L 113.131,139.074 L 111.976,139.181 L 110.816,139.239 Z" fill="#ffffff" stroke="#000000" stroke-width="1.2" stroke-opacity="1" /></g><g id="path1267"><path d="M 102.171,132.926 L 101.628,132.892 L 101.090,132.819 L 100.558,132.706 L 100.040,132.542 L 99.539,132.332 L 99.053,132.090 L 98.586,131.811 L 98.148,131.489 L 97.728,131.144 L 97.332,130.771 L 96.969,130.367 L 96.624,129.947 L 96.309,129.504 L 96.022,129.042 L 95.752,128.570 L 95.522,128.077 L 95.310,127.577 L 95.124,127.066 L 94.969,126.545 L 94.827,126.020 L 94.729,125.485 L 94.643,124.948 L 94.588,124.407 L 94.558,123.864 L 94.547,123.321 L 94.572,122.777 L 94.608,122.235 L 94.684,121.696 L 94.777,121.161 L 94.897,120.630 L 95.045,120.107 L 95.209,119.589 L 95.414,119.085 L 95.634,118.588 L 95.885,118.106 L 96.163,117.639 L 96.458,117.182 L 96.794,116.754 L 97.148,116.342 L 97.525,115.950 L 97.936,115.594 L 98.365,115.260 L 98.815,114.956 L 99.294,114.698 L 99.787,114.472 L 100.296,114.278 L 100.823,114.146 L 101.358,114.053 L 101.899,113.999 L 102.443,113.999 L 102.983,114.053 L 103.518,114.146 L 104.046,114.278 L 104.554,114.472 L 105.047,114.698 L 105.526,114.956 L 105.977,115.260 L 106.405,115.594 L 106.816,115.950 L 107.193,116.342 L 107.547,116.754 L 107.883,117.182 L 108.178,117.639 L 108.456,118.106 L 108.707,118.588 L 108.927,119.085 L 109.132,119.589 L 109.296,120.107 L 109.445,120.630 L 109.565,121.161 L 109.657,121.696 L 109.733,122.235 L 109.770,122.777 L 109.794,123.321 L 109.784,123.864 L 109.753,124.407 L 109.698,124.948 L 109.612,125.485 L 109.514,126.020 L 109.372,126.545 L 109.217,127.066 L 109.031,127.577 L 108.819,128.077 L 108.590,128.570 L 108.319,129.042 L 108.033,129.504 L 107.718,129.947 L 107.372,130.367 L 107.009,130.771 L 106.613,131.144 L 106.193,131.489 L 105.755,131.811 L 105.289,132.090 L 104.802,132.332 L 104.302,132.542 L 103.783,132.706 L 103.251,132.819 L 102.714,132.892 L 102.171,132.926 Z" fill="#2b0000" stroke="#000000" stroke-width="1.2" stroke-opacity="1" /></g><g id="path397"><path d="M 112.704,193.342 L 111.522,193.292 L 110.343,193.212 L 109.169,193.063 L 108.006,192.854 L 106.850,192.605 L 105.717,192.266 L 104.595,191.895 L 103.500,191.449 L 102.430,190.947 L 101.379,190.404 L 100.380,189.771 L 99.406,189.102 L 98.475,188.373 L 97.602,187.576 L 96.766,186.742 L 95.999,185.841 L 95.299,184.890 L 94.650,183.902 L 94.092,182.859 L 93.616,181.778 L 93.207,180.670 L 92.898,179.528 L 92.693,178.365 L 92.565,177.191 L 92.530,176.008 L 92.620,174.830 L 92.786,173.661 L 93.029,172.503 L 93.403,171.381 L 93.846,170.287 L 94.354,169.219 L 94.968,168.208 L 95.643,167.239 L 96.367,166.304 L 97.180,165.445 L 98.034,164.629 L 98.929,163.855 L 99.890,163.167 L 100.876,162.516 L 101.902,161.926 L 102.963,161.406 L 104.041,160.920 L 105.155,160.524 L 106.282,160.169 L 107.427,159.871 L 108.587,159.646 L 109.754,159.452 L 110.932,159.353 L 112.112,159.288 L 113.295,159.288 L 114.475,159.353 L 115.654,159.452 L 116.820,159.646 L 117.981,159.871 L 119.125,160.169 L 120.252,160.524 L 121.367,160.920 L 122.445,161.406 L 123.506,161.926 L 124.531,162.516 L 125.517,163.167 L 126.479,163.855 L 127.373,164.629 L 128.228,165.445 L 129.040,166.304 L 129.765,167.239 L 130.440,168.208 L 131.054,169.219 L 131.561,170.287 L 132.004,171.381 L 132.378,172.503 L 132.621,173.661 L 132.788,174.830 L 132.877,176.008 L 132.842,177.191 L 132.714,178.365 L 132.509,179.528 L 132.200,180.670 L 131.791,181.778 L 131.315,182.859 L 130.758,183.902 L 130.108,184.890 L 129.408,185.841 L 128.642,186.742 L 127.805,187.576 L 126.932,188.373 L 126.001,189.102 L 125.027,189.771 L 124.028,190.404 L 122.977,190.947 L 121.908,191.449 L 120.812,191.895 L 119.690,192.266 L 118.557,192.605 L 117.401,192.854 L 116.238,193.063 L 115.065,193.212 L 113.885,193.292 L 112.704,193.342 Z" fill="#ffffff" stroke="#000000" stroke-width="1.2" stroke-opacity="1" /></g><g id="path1265"><path d="M 103.143,185.769 L 102.627,185.739 L 102.115,185.674 L 101.608,185.576 L 101.113,185.426 L 100.631,185.239 L 100.162,185.023 L 99.713,184.766 L 99.286,184.476 L 98.875,184.163 L 98.491,183.817 L 98.131,183.447 L 97.788,183.060 L 97.479,182.645 L 97.192,182.216 L 96.924,181.774 L 96.694,181.311 L 96.479,180.842 L 96.295,180.358 L 96.137,179.866 L 95.996,179.369 L 95.895,178.862 L 95.808,178.353 L 95.753,177.838 L 95.722,177.323 L 95.711,176.806 L 95.736,176.290 L 95.774,175.774 L 95.850,175.263 L 95.944,174.755 L 96.063,174.252 L 96.214,173.758 L 96.380,173.268 L 96.585,172.793 L 96.807,172.327 L 97.054,171.873 L 97.334,171.438 L 97.629,171.015 L 97.957,170.615 L 98.309,170.236 L 98.677,169.874 L 99.079,169.548 L 99.498,169.247 L 99.933,168.968 L 100.395,168.736 L 100.871,168.535 L 101.358,168.362 L 101.861,168.242 L 102.370,168.160 L 102.884,168.112 L 103.402,168.112 L 103.916,168.160 L 104.425,168.242 L 104.928,168.362 L 105.415,168.535 L 105.891,168.736 L 106.353,168.968 L 106.788,169.247 L 107.207,169.548 L 107.609,169.874 L 107.977,170.236 L 108.329,170.615 L 108.657,171.015 L 108.952,171.438 L 109.232,171.873 L 109.479,172.327 L 109.701,172.793 L 109.906,173.268 L 110.072,173.758 L 110.223,174.252 L 110.342,174.755 L 110.436,175.263 L 110.512,175.774 L 110.550,176.290 L 110.575,176.806 L 110.564,177.323 L 110.533,177.838 L 110.478,178.353 L 110.391,178.862 L 110.290,179.369 L 110.149,179.866 L 109.991,180.358 L 109.807,180.842 L 109.592,181.311 L 109.362,181.774 L 109.094,182.216 L 108.807,182.645 L 108.498,183.060 L 108.155,183.447 L 107.795,183.817 L 107.411,184.163 L 107.000,184.476 L 106.573,184.766 L 106.124,185.023 L 105.655,185.239 L 105.173,185.426 L 104.678,185.576 L 104.171,185.674 L 103.659,185.739 L 103.143,185.769 Z" fill="#2b0000" stroke="#000000" stroke-width="1.2" stroke-opacity="1" /></g><g id="path1439"><path d="M 87.623,154.341 L 87.416,153.755 L 87.200,153.172 L 86.977,152.592 L 86.749,152.014 L 86.516,151.438 L 86.279,150.864 L 86.039,150.291 L 85.794,149.720 L 85.546,149.150 L 85.295,148.582 L 85.040,148.015 L 84.782,147.450 L 84.520,146.886 L 84.254,146.325 L 83.984,145.765 L 83.710,145.207 L 83.432,144.652 L 83.148,144.099 L 82.858,143.549 L 82.562,143.003 L 82.258,142.461 L 81.945,141.925 L 81.619,141.396 L 81.277,140.877 L 80.912,140.374 L 80.533,139.882 L 80.153,139.390 L 79.768,138.902 L 79.377,138.420 L 78.976,137.945 L 78.563,137.480 L 78.135,137.030 L 77.688,136.599 L 77.218,136.192 L 76.723,135.817 L 76.199,135.483 L 75.629,135.255 L 75.018,135.356 L 74.405,135.398 L 73.948,134.999 L 73.558,134.515 L 73.166,134.033 L 72.767,133.557 L 72.358,133.089 L 71.935,132.633 L 71.493,132.197 L 71.018,131.797 L 70.479,131.492 L 69.921,131.638 L 69.568,132.146 L 69.350,132.727 L 69.213,133.333 L 69.128,133.948 L 69.078,134.567 L 69.054,135.188 L 69.048,135.809 L 69.056,136.431 L 69.075,137.052 L 69.101,137.673 L 69.132,138.293 L 69.167,138.914 L 69.202,139.534 L 69.236,140.154 L 69.264,140.775 L 69.283,141.396 L 69.284,142.018 L 69.252,142.638 L 69.102,143.234 L 68.684,143.691 L 68.374,144.219 L 68.282,144.833 L 68.223,145.452 L 68.178,146.072 L 68.142,146.692 L 68.114,147.313 L 68.091,147.934 L 68.073,148.555 L 68.060,149.176 L 68.051,149.797 L 68.047,150.419 L 68.048,151.040 L 68.055,151.661 L 68.067,152.282 L 68.087,152.903 L 68.116,153.524 L 68.157,154.144 L 68.218,154.762 L 68.317,155.376 L 68.522,155.960 L 68.848,156.488 L 69.240,156.970 L 69.634,157.450 L 69.970,157.973 L 70.220,158.541 L 70.438,159.123 L 70.616,159.718 L 70.738,160.327 L 71.104,160.694 L 71.725,160.679 Z" fill="#2b0000" stroke="#000000" stroke-width="1.2" stroke-opacity="1" fill-opacity="0" /></g><g id="path2136"><path d="M 63.623,124.078 L 63.397,124.577 L 63.178,125.079 L 62.966,125.585 L 62.762,126.093 L 62.564,126.604 L 62.372,127.118 L 62.188,127.634 L 62.009,128.152 L 61.837,128.672 L 61.671,129.195 L 61.511,129.719 L 61.356,130.245 L 61.208,130.772 L 61.065,131.301 L 60.927,131.832 L 60.795,132.364 L 60.668,132.897 L 60.547,133.432 L 60.431,133.967 L 60.320,134.504 L 60.214,135.042 L 60.114,135.580 L 60.018,136.120 L 59.928,136.661 L 59.843,137.202 L 59.762,137.744 L 59.687,138.287 L 59.617,138.831 L 59.552,139.375 L 59.491,139.920 L 59.436,140.465 L 59.386,141.011 L 59.341,141.557 L 59.301,142.104 L 59.266,142.651 L 59.237,143.198 L 59.212,143.745 L 59.193,144.293 L 59.179,144.841 L 59.170,145.389 L 59.167,145.937 L 59.169,146.485 L 59.177,147.033 L 59.191,147.581 L 59.210,148.129 L 59.235,148.676 L 59.265,149.224 L 59.302,149.770 L 59.345,150.317 L 59.394,150.863 L 59.449,151.408 L 59.511,151.953 L 59.579,152.496 L 59.654,153.039 L 59.736,153.581 L 59.825,154.122 L 59.922,154.662 L 60.025,155.200 L 60.137,155.736 L 60.256,156.271 L 60.383,156.804 L 60.518,157.336 L 60.662,157.864 L 60.815,158.391 L 60.976,158.915 L 61.158,159.431 L 61.542,159.815 L 61.996,160.122 L 62.349,160.532 L 62.430,161.070 L 62.366,161.614 L 62.272,162.154 L 62.253,162.700 L 62.428,163.216 L 62.674,163.705 L 62.922,164.194 L 63.171,164.682 L 63.423,165.169 L 63.677,165.654 L 63.934,166.139 L 64.195,166.621 L 64.459,167.101 L 64.729,167.578 L 65.006,168.051 L 65.294,168.517 L 65.598,168.973 L 65.939,169.401 L 66.324,169.419 L 66.294,168.873 L 66.190,168.335 L 66.059,167.803 L 66.205,168.253 L 66.372,168.775 L 66.541,169.297 L 66.710,169.818 L 66.881,170.339 L 67.053,170.859 L 67.226,171.380 L 67.399,171.900 Z" fill="#2b0000" stroke="#000000" stroke-width="1.2" stroke-opacity="1" fill-opacity="0" /></g></svg>