<?xml version='1.0' encoding='utf-8'?>
<svg xmlns="http://www.w3.org/2000/svg" width="210" height="297" viewBox="0 0 210 297"><g id="path2717"><path d="M 67.088,164.347 L 66.121,164.654 L 65.138,164.909 L 64.144,165.113 L 63.142,165.270 L 62.134,165.387 L 61.122,165.467 L 60.109,165.516 L 59.094,165.539 L 58.079,165.542 L 57.064,165.530 L 56.050,165.509 L 55.035,165.482 L 54.021,165.457 L 53.006,165.437 L 51.991,165.428 L 50.976,165.437 L 49.962,165.469 L 48.949,165.529 L 47.939,165.625 L 46.934,165.763 L 45.936,165.949 L 44.950,166.188 L 43.980,166.487 L 43.032,166.849 L 42.111,167.275 L 41.224,167.766 L 40.399,168.350 L 39.987,169.266 L 39.848,170.271 L 39.678,171.270 L 39.184,172.140 L 38.381,172.758 L 38.062,173.695 L 38.104,174.707 L 38.213,175.716 L 38.185,176.728 L 37.942,177.713 L 37.667,178.690 L 37.289,179.628 L 36.970,178.831 L 36.819,177.828 L 36.245,177.261 L 35.675,178.093 L 35.387,179.061 L 35.266,180.069 L 35.203,181.082 L 35.176,182.096 L 35.174,183.111 L 35.195,184.125 L 35.238,185.139 L 35.307,186.152 L 35.412,187.161 L 35.595,188.159 L 35.982,189.095 L 36.517,189.957 L 37.161,190.740 L 37.885,191.451 L 38.665,192.099 L 39.488,192.693 L 40.341,193.243 L 41.217,193.755 L 42.110,194.236 L 43.017,194.692 L 43.933,195.128 L 44.857,195.550 L 45.784,195.962 L 46.712,196.372 L 47.637,196.791 L 48.546,197.240 L 49.424,197.749 L 50.257,198.329 L 51.032,198.984 L 51.743,199.707 L 52.399,200.481 L 53.030,201.276 L 53.678,202.057 L 54.379,202.791 L 55.147,203.453 L 55.978,204.034 L 56.860,204.536 L 57.781,204.962 L 58.735,205.306 L 59.712,205.580 L 60.705,205.791 L 61.707,205.951 L 62.715,206.065 L 63.727,206.143 L 64.741,206.189 L 65.755,206.208 L 66.770,206.206 L 67.785,206.187 L 68.799,206.154 L 69.813,206.112 L 70.827,206.063 L 71.840,206.012 L 72.854,205.963 L 73.868,205.920 L 74.882,205.889 L 75.897,205.876 Z" fill="#ffff00" stroke="#000000" stroke-width="1.2" stroke-opacity="1" fill-opacity="0.981132" /></g><g id="path2147"><path d="M 164.343,127.196 L 165.868,127.254 L 167.396,127.308 L 168.924,127.358 L 170.453,127.407 L 171.982,127.456 L 173.509,127.507 L 175.036,127.561 L 176.560,127.619 L 178.080,127.684 L 179.595,127.756 L 181.104,127.839 L 182.609,127.932 L 184.111,128.030 L 185.611,128.132 L 187.109,128.236 L 188.605,128.342 L 190.097,128.452 L 191.587,128.565 L 193.073,128.682 L 194.556,128.803 L 196.034,128.928 L 197.507,129.057 L 198.975,129.192 L 200.438,129.331 L 201.894,129.476 L 203.343,129.626 L 204.785,129.783 L 206.218,129.946 L 207.643,130.115 L 209.057,130.291 L 209.723,130.475 L 210.459,130.667 L 211.858,130.938 L 212.652,131.487 L 214.154,131.646 L 215.676,131.717 L 217.182,131.768 L 218.608,131.822 L 219.505,131.895 L 220.042,132.012 L 220.462,132.241 L 220.459,132.784 L 220.212,133.366 L 219.895,133.940 L 219.538,134.507 L 219.155,135.070 L 218.750,135.629 L 218.329,136.185 L 217.894,136.739 L 217.446,137.291 L 216.987,137.840 L 216.515,138.387 L 216.030,138.932 L 215.512,139.472 L 214.681,139.938 L 213.681,140.343 L 212.617,140.723 L 211.518,141.088 L 210.394,141.442 L 209.252,141.789 L 208.095,142.129 L 206.926,142.463 L 205.745,142.791 L 204.553,143.115 L 203.350,143.433 L 202.135,143.744 L 200.907,144.049 L 199.658,144.341 L 198.368,144.599 L 196.932,144.738 L 195.423,144.822 L 193.901,144.886 L 192.377,144.947 L 190.860,145.023 L 189.377,145.139 L 188.066,145.374 L 186.972,145.733 L 185.956,146.133 L 184.843,146.495 L 183.504,146.740 L 182.013,146.860 L 180.480,146.896 L 178.945,146.880 L 177.419,146.832 L 175.897,146.768 L 174.376,146.698 L 172.851,146.633 L 171.318,146.583 L 169.783,146.561 L 168.268,146.582 L 166.828,146.668 L 165.544,146.846 L 164.487,147.139 L 163.721,147.549 L 163.257,148.066 L 163.002,148.635 L 162.799,149.214 L 162.485,149.785 L 161.904,150.312 Z" fill="#ffff00" stroke="#000000" stroke-width="1.2" stroke-opacity="1" fill-opacity="0.98113215" /></g><g id="path230"><path d="M 193.748,155.768 L 193.515,160.353 L 193.077,164.917 L 192.381,169.455 L 191.283,173.910 L 189.988,178.309 L 188.393,182.614 L 186.474,186.779 L 184.373,190.857 L 181.949,194.755 L 179.284,198.487 L 176.458,202.103 L 173.306,205.441 L 169.997,208.615 L 166.529,211.623 L 162.801,214.299 L 158.967,216.815 L 154.974,219.080 L 150.825,221.034 L 146.597,222.816 L 142.238,224.255 L 137.806,225.430 L 133.324,226.425 L 128.768,226.986 L 124.197,227.350 L 119.608,227.463 L 115.028,227.191 L 110.464,226.734 L 105.941,225.950 L 101.485,224.865 L 97.075,223.598 L 92.792,221.946 L 88.604,220.079 L 84.504,218.014 L 80.615,215.577 L 76.834,212.982 L 73.221,210.150 L 69.844,207.046 L 66.602,203.801 L 63.621,200.309 L 60.876,196.636 L 58.291,192.844 L 56.066,188.829 L 54.056,184.708 L 52.247,180.489 L 50.853,176.116 L 49.656,171.690 L 48.731,167.193 L 48.191,162.638 L 47.856,158.064 L 47.856,153.473 L 48.191,148.899 L 48.731,144.344 L 49.656,139.847 L 50.853,135.421 L 52.247,131.048 L 54.056,126.829 L 56.066,122.708 L 58.291,118.692 L 60.876,114.901 L 63.621,111.227 L 66.602,107.736 L 69.844,104.491 L 73.221,101.387 L 76.834,98.555 L 80.615,95.960 L 84.504,93.523 L 88.604,91.458 L 92.792,89.590 L 97.075,87.938 L 101.485,86.671 L 105.941,85.587 L 110.464,84.803 L 115.028,84.346 L 119.608,84.074 L 124.197,84.187 L 128.768,84.551 L 133.324,85.112 L 137.806,86.106 L 142.238,87.282 L 146.597,88.721 L 150.825,90.502 L 154.974,92.456 L 158.967,94.722 L 162.801,97.237 L 166.529,99.914 L 169.997,102.922 L 173.306,106.096 L 176.458,109.434 L 179.284,113.050 L 181.949,116.781 L 184.373,120.680 L 186.474,124.757 L 188.393,128.923 L 189.988,133.228 L 191.283,137.627 L 192.381,142.082 L 193.077,146.620 L 193.515,151.184 L 193.748,155.768 Z" fill="#ffff00" stroke="#000000" stroke-width="1.2" stroke-opacity="1" /></g><g id="path393"><path d="M 96.177,131.757 L 95.915,132.915 L 95.599,134.076 L 95.222,135.246 L 94.738,136.426 L 94.221,137.612 L 93.603,138.801 L 92.929,140.009 L 92.193,141.203 L 91.366,142.419 L 90.519,143.632 L 89.590,144.825 L 88.615,146.046 L 87.586,147.232 L 86.507,148.406 L 85.419,149.579 L 84.267,150.688 L 83.098,151.776 L 81.935,152.827 L 80.736,153.773 L 79.532,154.685 L 78.363,155.494 L 77.195,156.164 L 76.037,156.759 L 74.913,157.222 L 73.822,157.512 L 72.758,157.657 L 71.721,157.657 L 70.710,157.543 L 69.736,157.251 L 68.782,156.813 L 67.858,156.308 L 66.978,155.694 L 66.114,154.942 L 65.297,154.172 L 64.532,153.324 L 63.797,152.397 L 63.115,151.464 L 62.505,150.473 L 61.926,149.448 L 61.420,148.422 L 60.977,147.346 L 60.593,146.278 L 60.301,145.191 L 60.035,144.079 L 59.887,142.982 L 59.788,141.854 L 59.750,140.731 L 59.823,139.593 L 59.941,138.451 L 60.145,137.300 L 60.434,136.141 L 60.767,134.975 L 61.211,133.802 L 61.715,132.617 L 62.266,131.435 L 62.936,130.232 L 63.625,129.028 L 64.408,127.830 L 65.240,126.607 L 66.138,125.408 L 67.100,124.198 L 68.085,122.991 L 69.146,121.820 L 70.231,120.642 L 71.351,119.498 L 72.514,118.407 L 73.680,117.329 L 74.862,116.327 L 76.065,115.402 L 77.251,114.535 L 78.418,113.786 L 79.585,113.160 L 80.727,112.626 L 81.832,112.252 L 82.911,112.034 L 83.961,111.961 L 84.987,112.033 L 85.978,112.210 L 86.940,112.591 L 87.882,113.070 L 88.790,113.613 L 89.652,114.307 L 90.495,115.071 L 91.296,115.872 L 92.037,116.773 L 92.746,117.702 L 93.396,118.660 L 93.997,119.684 L 94.535,120.697 L 94.994,121.746 L 95.424,122.827 L 95.761,123.895 L 96.036,125.002 L 96.251,126.103 L 96.364,127.218 L 96.442,128.345 L 96.413,129.472 L 96.322,130.614 L 96.177,131.757 Z" fill="#ffffff" stroke="#000000" stroke-width="1.2" stroke-opacity="1" /></g><g id="path1267"><path d="M 86.460,138.817 L 86.333,139.337 L 86.164,139.861 L 85.960,140.391 L 85.695,140.923 L 85.385,141.466 L 85.051,142.007 L 84.667,142.549 L 84.255,143.103 L 83.812,143.644 L 83.336,144.185 L 82.855,144.729 L 82.338,145.248 L 81.811,145.765 L 81.278,146.270 L 80.725,146.743 L 80.174,147.211 L 79.619,147.644 L 79.054,148.052 L 78.505,148.433 L 77.952,148.761 L 77.399,149.079 L 76.864,149.342 L 76.329,149.554 L 75.802,149.739 L 75.288,149.865 L 74.782,149.943 L 74.284,149.980 L 73.797,149.969 L 73.320,149.896 L 72.850,149.797 L 72.395,149.641 L 71.945,149.431 L 71.508,149.210 L 71.088,148.923 L 70.676,148.609 L 70.281,148.274 L 69.904,147.890 L 69.545,147.499 L 69.213,147.082 L 68.899,146.636 L 68.614,146.189 L 68.370,145.722 L 68.142,145.238 L 67.960,144.760 L 67.827,144.263 L 67.717,143.762 L 67.674,143.265 L 67.670,142.754 L 67.707,142.243 L 67.799,141.726 L 67.948,141.204 L 68.137,140.677 L 68.364,140.148 L 68.658,139.609 L 68.973,139.064 L 69.336,138.527 L 69.743,137.976 L 70.162,137.427 L 70.623,136.891 L 71.104,136.345 L 71.603,135.813 L 72.128,135.297 L 72.654,134.781 L 73.200,134.294 L 73.754,133.822 L 74.302,133.366 L 74.864,132.957 L 75.423,132.556 L 75.972,132.199 L 76.527,131.879 L 77.071,131.587 L 77.606,131.355 L 78.137,131.151 L 78.657,130.993 L 79.168,130.894 L 79.669,130.836 L 80.164,130.813 L 80.644,130.865 L 81.119,130.958 L 81.580,131.070 L 82.033,131.264 L 82.476,131.478 L 82.903,131.728 L 83.323,132.039 L 83.727,132.356 L 84.106,132.713 L 84.479,133.107 L 84.830,133.506 L 85.147,133.942 L 85.448,134.389 L 85.715,134.844 L 85.951,135.324 L 86.154,135.803 L 86.306,136.288 L 86.434,136.790 L 86.515,137.288 L 86.534,137.794 L 86.519,138.304 L 86.460,138.817 Z" fill="#2b0000" stroke="#000000" stroke-width="1.2" stroke-opacity="1" /></g><g id="path397"><path d="M 143.830,116.722 L 143.406,117.875 L 142.947,119.031 L 142.416,120.206 L 141.817,121.389 L 141.180,122.582 L 140.441,123.790 L 139.678,125.006 L 138.822,126.228 L 137.923,127.470 L 136.964,128.697 L 135.910,129.956 L 134.847,131.204 L 133.691,132.448 L 132.499,133.713 L 131.250,134.938 L 129.928,136.172 L 128.607,137.394 L 127.224,138.549 L 125.795,139.693 L 124.384,140.782 L 122.960,141.779 L 121.524,142.687 L 120.113,143.513 L 118.762,144.180 L 117.448,144.703 L 116.194,145.074 L 115.007,145.283 L 113.885,145.330 L 112.840,145.236 L 111.876,144.959 L 110.969,144.564 L 110.140,144.110 L 109.378,143.506 L 108.677,142.815 L 108.058,142.108 L 107.506,141.301 L 107.007,140.441 L 106.597,139.586 L 106.248,138.639 L 105.958,137.691 L 105.755,136.711 L 105.589,135.695 L 105.522,134.683 L 105.503,133.622 L 105.541,132.566 L 105.671,131.476 L 105.829,130.380 L 106.092,129.265 L 106.392,128.139 L 106.763,126.998 L 107.205,125.844 L 107.683,124.681 L 108.265,123.501 L 108.873,122.312 L 109.571,121.112 L 110.327,119.899 L 111.120,118.685 L 112.018,117.449 L 112.932,116.213 L 113.943,114.972 L 114.989,113.710 L 116.101,112.479 L 117.299,111.214 L 118.502,109.966 L 119.785,108.749 L 121.116,107.510 L 122.464,106.318 L 123.870,105.179 L 125.297,104.050 L 126.708,102.996 L 128.142,102.065 L 129.572,101.181 L 130.952,100.433 L 132.286,99.837 L 133.573,99.388 L 134.793,99.098 L 135.947,98.969 L 137.031,98.994 L 138.035,99.184 L 138.970,99.522 L 139.841,99.951 L 140.639,100.468 L 141.363,101.130 L 142.027,101.831 L 142.612,102.574 L 143.136,103.424 L 143.591,104.279 L 143.967,105.181 L 144.300,106.137 L 144.537,107.081 L 144.718,108.093 L 144.844,109.104 L 144.878,110.144 L 144.880,111.205 L 144.781,112.273 L 144.639,113.369 L 144.431,114.469 L 144.147,115.594 L 143.830,116.722 Z" fill="#ffffff" stroke="#000000" stroke-width="1.2" stroke-opacity="1" /></g><g id="path1265"><path d="M 132.049,125.362 L 131.858,125.844 L 131.629,126.332 L 131.366,126.828 L 131.044,127.332 L 130.682,127.845 L 130.297,128.361 L 129.859,128.881 L 129.394,129.412 L 128.905,129.932 L 128.376,130.458 L 127.840,130.987 L 127.273,131.491 L 126.684,132.007 L 126.097,132.505 L 125.487,132.980 L 124.873,133.457 L 124.258,133.901 L 123.630,134.330 L 123.017,134.737 L 122.400,135.103 L 121.782,135.461 L 121.185,135.775 L 120.587,136.052 L 120.002,136.305 L 119.434,136.509 L 118.877,136.680 L 118.334,136.813 L 117.812,136.902 L 117.305,136.949 L 116.815,136.965 L 116.348,136.925 L 115.898,136.846 L 115.468,136.751 L 115.065,136.585 L 114.680,136.400 L 114.321,136.189 L 113.986,135.922 L 113.678,135.647 L 113.401,135.340 L 113.147,134.994 L 112.931,134.649 L 112.752,134.270 L 112.598,133.870 L 112.492,133.472 L 112.431,133.043 L 112.397,132.607 L 112.422,132.165 L 112.490,131.705 L 112.595,131.240 L 112.753,130.765 L 112.963,130.280 L 113.211,129.788 L 113.498,129.289 L 113.844,128.780 L 114.213,128.262 L 114.625,127.749 L 115.085,127.221 L 115.555,126.694 L 116.065,126.176 L 116.604,125.644 L 117.153,125.127 L 117.732,124.619 L 118.317,124.107 L 118.917,123.625 L 119.536,123.144 L 120.141,122.680 L 120.765,122.255 L 121.389,121.830 L 122.002,121.443 L 122.622,121.082 L 123.228,120.746 L 123.826,120.455 L 124.419,120.183 L 124.994,119.956 L 125.557,119.769 L 126.108,119.613 L 126.641,119.501 L 127.154,119.438 L 127.654,119.408 L 128.132,119.415 L 128.590,119.478 L 129.030,119.562 L 129.446,119.696 L 129.842,119.875 L 130.213,120.063 L 130.559,120.309 L 130.884,120.584 L 131.177,120.863 L 131.439,121.199 L 131.676,121.545 L 131.872,121.901 L 132.039,122.297 L 132.171,122.695 L 132.252,123.108 L 132.301,123.542 L 132.311,123.979 L 132.260,124.432 L 132.173,124.894 L 132.049,125.362 Z" fill="#2b0000" stroke="#000000" stroke-width="1.2" stroke-opacity="1" /></g><g id="path1439"><path d="M 96.220,143.145 L 95.342,143.357 L 94.472,143.577 L 93.608,143.803 L 92.748,144.032 L 91.894,144.266 L 91.043,144.504 L 90.196,144.744 L 89.353,144.987 L 88.513,145.233 L 87.677,145.482 L 86.844,145.733 L 86.015,145.988 L 85.189,146.245 L 84.368,146.505 L 83.551,146.768 L 82.739,147.034 L 81.932,147.303 L 81.131,147.577 L 80.337,147.855 L 79.551,148.138 L 78.775,148.427 L 78.011,148.722 L 77.263,149.026 L 76.537,149.340 L 75.842,149.666 L 75.159,149.992 L 74.478,150.318 L 73.804,150.647 L 73.138,150.979 L 72.487,151.314 L 71.852,151.653 L 71.240,151.996 L 70.656,152.345 L 70.106,152.697 L 69.598,153.053 L 69.140,153.412 L 68.768,153.766 L 68.631,154.125 L 68.694,154.509 L 68.604,154.962 L 68.300,155.439 L 67.683,155.797 L 67.019,156.123 L 66.361,156.447 L 65.716,156.770 L 65.091,157.092 L 64.495,157.408 L 63.963,157.708 L 63.673,158.018 L 63.606,158.454 L 63.701,158.997 L 64.149,159.554 L 64.900,159.995 L 65.775,160.305 L 66.708,160.506 L 67.664,160.632 L 68.630,160.707 L 69.599,160.744 L 70.569,160.756 L 71.538,160.749 L 72.506,160.727 L 73.474,160.696 L 74.442,160.658 L 75.409,160.615 L 76.377,160.572 L 77.346,160.531 L 78.315,160.494 L 79.272,160.443 L 80.150,160.368 L 80.877,160.682 L 81.583,161.167 L 82.491,161.385 L 83.451,161.472 L 84.416,161.531 L 85.384,161.576 L 86.352,161.610 L 87.321,161.638 L 88.290,161.658 L 89.260,161.673 L 90.230,161.681 L 91.200,161.684 L 92.170,161.680 L 93.140,161.668 L 94.109,161.647 L 95.077,161.615 L 96.043,161.566 L 97.003,161.489 L 97.939,161.343 L 98.776,161.066 L 99.498,160.737 L 100.154,160.398 L 100.824,160.073 L 101.581,159.790 L 102.426,159.555 L 103.301,159.345 L 104.211,159.181 L 105.147,159.054 L 105.418,158.584 L 105.401,158.200 Z" fill="#2b0000" stroke="#000000" stroke-width="1.2" stroke-opacity="1" fill-opacity="0" /></g><g id="path2136"><path d="M 65.911,176.243 L 66.493,176.407 L 67.078,176.567 L 67.664,176.724 L 68.252,176.877 L 68.842,177.027 L 69.432,177.174 L 70.024,177.316 L 70.616,177.455 L 71.210,177.591 L 71.804,177.722 L 72.399,177.851 L 72.994,177.975 L 73.589,178.095 L 74.185,178.212 L 74.781,178.325 L 75.377,178.433 L 75.973,178.538 L 76.570,178.639 L 77.166,178.736 L 77.763,178.829 L 78.359,178.918 L 78.956,179.002 L 79.552,179.082 L 80.148,179.159 L 80.744,179.230 L 81.340,179.298 L 81.937,179.361 L 82.532,179.419 L 83.128,179.473 L 83.724,179.523 L 84.320,179.567 L 84.915,179.607 L 85.511,179.642 L 86.106,179.673 L 86.702,179.698 L 87.297,179.718 L 87.893,179.734 L 88.488,179.744 L 89.084,179.749 L 89.680,179.748 L 90.276,179.742 L 90.872,179.731 L 91.468,179.714 L 92.065,179.692 L 92.662,179.664 L 93.259,179.630 L 93.857,179.590 L 94.455,179.545 L 95.054,179.493 L 95.653,179.436 L 96.253,179.373 L 96.853,179.303 L 97.454,179.228 L 98.056,179.146 L 98.658,179.059 L 99.261,178.965 L 99.865,178.866 L 100.469,178.760 L 101.074,178.648 L 101.679,178.531 L 102.285,178.407 L 102.892,178.278 L 103.522,178.116 L 104.230,177.891 L 104.956,177.656 L 105.662,177.425 L 106.106,177.230 L 106.339,177.185 L 106.733,177.253 L 107.324,177.323 L 107.922,177.283 L 108.570,177.117 L 109.234,176.943 L 109.851,176.769 L 110.429,176.595 L 111.006,176.419 L 111.583,176.243 L 112.159,176.065 L 112.735,175.887 L 113.310,175.707 L 113.884,175.525 L 114.456,175.341 L 115.027,175.155 L 115.595,174.965 L 116.160,174.771 L 116.717,174.570 L 117.253,174.355 L 117.280,174.128 L 116.682,174.140 L 116.086,174.228 L 115.487,174.332 L 115.969,174.202 L 116.562,174.072 L 117.155,173.940 L 117.748,173.807 L 118.340,173.674 L 118.933,173.541 L 119.525,173.407 L 120.117,173.272 Z" fill="#2b0000" stroke="#000000" stroke-width="1.2" stroke-opacity="1" fill-opacity="0" /></g></svg>