<?xml version='1.0' encoding='utf-8'?>
<svg xmlns="http://www.w3.org/2000/svg" width="210" height="297" viewBox="0 0 210 297"><g id="path2717"><path d="m 28.944914,147.24152 c -8.783163,3.07931 -18.652686,-1.40809 -26.4279649,3.77543 -1.1037552,0.73583 -0.5226377,2.67167 -1.2584746,3.77542 C 0.92939834,155.28599 0.1438844,155.47531 0,156.05085 c -0.30522492,1.22089 0.30522492,2.55452 0,3.77542 -1.8411849,7.36474 -0.46293129,-2.84956 -2.5169491,1.25847 -0.6994698,1.39894 -0.5033297,8.55781 0,10.0678 1.54181808,4.62545 9.2623979,7.14815 12.5847461,8.80932 4.857547,2.42877 4.27088,5.28163 8.809321,7.55085 5.133038,2.56652 13.188953,1.25847 18.877119,1.25847" fill="#ffff00" stroke="#000000" stroke-width="1.2" stroke-opacity="1" fill-opacity="0.981132" /></g><g id="path2147"><path d="m 169.89407,144.72457 c 2.93644,0.41949 5.91903,0.59149 8.80932,1.25848 5.17031,1.19315 10.35569,2.66089 15.10169,5.0339 0.37521,0.1876 -0.3752,1.07087 0,1.25847 1.07212,0.53606 4.06785,0.29242 5.0339,1.25848 0.91963,0.91962 -2.07573,11.26108 -2.51695,12.58474 -0.60593,1.8178 -7.04271,7.63158 -8.80932,8.80932 -1.04517,0.69678 -3.98873,0.5617 -5.0339,1.25848 -0.98723,0.65815 -1.45571,1.98633 -2.51695,2.51695 -2.75109,1.37554 -7.84975,-2.06859 -10.06779,1.25847 -0.95942,1.43912 -0.48498,3.48689 -1.25848,5.0339" fill="#ffff00" stroke="#000000" stroke-width="1.2" stroke-opacity="1" fill-opacity="0.98113215" /></g><g id="path230"><path d="M 172.237,145.185 L 172.103,153.127 L 171.850,161.032 L 171.448,168.891 L 170.814,176.607 L 170.066,184.227 L 169.146,191.683 L 168.038,198.898 L 166.825,205.961 L 165.425,212.713 L 163.887,219.177 L 162.255,225.440 L 160.435,231.221 L 158.525,236.719 L 156.523,241.928 L 154.370,246.564 L 152.157,250.921 L 149.851,254.845 L 147.456,258.230 L 145.015,261.314 L 142.498,263.808 L 139.939,265.844 L 137.352,267.566 L 134.721,268.538 L 132.082,269.169 L 129.433,269.364 L 126.788,268.894 L 124.154,268.102 L 121.542,266.744 L 118.969,264.865 L 116.423,262.671 L 113.950,259.809 L 111.532,256.575 L 109.165,252.997 L 106.920,248.777 L 104.737,244.282 L 102.651,239.377 L 100.701,234.000 L 98.830,228.380 L 97.109,222.333 L 95.524,215.971 L 94.032,209.403 L 92.747,202.448 L 91.586,195.310 L 90.542,188.003 L 89.737,180.429 L 89.046,172.762 L 88.512,164.974 L 88.200,157.083 L 88.006,149.161 L 88.006,141.210 L 88.200,133.288 L 88.512,125.397 L 89.046,117.609 L 89.737,109.942 L 90.542,102.368 L 91.586,95.061 L 92.747,87.923 L 94.032,80.968 L 95.524,74.400 L 97.109,68.038 L 98.830,61.991 L 100.701,56.370 L 102.651,50.994 L 104.737,46.089 L 106.920,41.594 L 109.165,37.374 L 111.532,33.796 L 113.950,30.562 L 116.423,27.700 L 118.969,25.506 L 121.542,23.627 L 124.154,22.269 L 126.788,21.477 L 129.433,21.007 L 132.082,21.202 L 134.721,21.833 L 137.352,22.805 L 139.939,24.527 L 142.498,26.563 L 145.015,29.056 L 147.456,32.141 L 149.851,35.526 L 152.157,39.450 L 154.370,43.807 L 156.523,48.442 L 158.525,53.652 L 160.435,59.150 L 162.255,64.931 L 163.887,71.194 L 165.425,77.658 L 166.825,84.410 L 168.038,91.473 L 169.146,98.688 L 170.066,106.144 L 170.814,113.764 L 171.448,121.480 L 171.850,129.339 L 172.103,137.244 L 172.237,145.185 Z" fill="#ffff00" stroke="#000000" stroke-width="1.2" stroke-opacity="1" /></g><g id="path393"><path d="M 96.912,120.762 L 96.747,122.740 L 96.548,124.714 L 96.311,126.687 L 96.006,128.644 L 95.681,130.593 L 95.292,132.516 L 94.867,134.416 L 94.404,136.286 L 93.883,138.118 L 93.350,139.908 L 92.765,141.656 L 92.151,143.341 L 91.503,144.966 L 90.824,146.532 L 90.139,148.015 L 89.414,149.412 L 88.678,150.723 L 87.945,151.930 L 87.190,153.024 L 86.432,153.996 L 85.697,154.835 L 84.961,155.535 L 84.232,156.065 L 83.524,156.458 L 82.837,156.672 L 82.167,156.688 L 81.515,156.559 L 80.878,156.270 L 80.265,155.782 L 79.664,155.151 L 79.083,154.377 L 78.528,153.469 L 77.984,152.425 L 77.470,151.262 L 76.988,150.006 L 76.526,148.643 L 76.096,147.196 L 75.712,145.675 L 75.347,144.072 L 75.029,142.414 L 74.750,140.695 L 74.509,138.925 L 74.324,137.112 L 74.157,135.260 L 74.064,133.375 L 74.001,131.457 L 73.978,129.524 L 74.023,127.566 L 74.098,125.602 L 74.226,123.627 L 74.408,121.652 L 74.618,119.676 L 74.897,117.712 L 75.215,115.758 L 75.561,113.820 L 75.984,111.910 L 76.417,110.024 L 76.910,108.171 L 77.434,106.359 L 77.999,104.593 L 78.605,102.874 L 79.226,101.216 L 79.893,99.620 L 80.576,98.098 L 81.281,96.657 L 82.014,95.292 L 82.748,94.043 L 83.492,92.890 L 84.250,91.851 L 84.996,90.950 L 85.731,90.174 L 86.466,89.563 L 87.185,89.098 L 87.881,88.787 L 88.560,88.681 L 89.221,88.737 L 89.867,88.938 L 90.491,89.328 L 91.097,89.897 L 91.690,90.597 L 92.261,91.436 L 92.804,92.419 L 93.335,93.525 L 93.839,94.729 L 94.306,96.040 L 94.752,97.452 L 95.161,98.934 L 95.540,100.494 L 95.878,102.129 L 96.167,103.816 L 96.438,105.563 L 96.650,107.353 L 96.823,109.190 L 96.959,111.058 L 97.030,112.961 L 97.079,114.886 L 97.061,116.831 L 97.004,118.794 L 96.912,120.762 Z" fill="#ffffff" stroke="#000000" stroke-width="1.2" stroke-opacity="1" /></g><g id="path1267"><path d="M 85.025,131.032 L 84.946,131.944 L 84.839,132.853 L 84.710,133.759 L 84.544,134.652 L 84.348,135.533 L 84.139,136.397 L 83.897,137.241 L 83.638,138.061 L 83.359,138.854 L 83.059,139.621 L 82.757,140.354 L 82.431,141.053 L 82.099,141.718 L 81.764,142.343 L 81.416,142.933 L 81.069,143.474 L 80.720,143.975 L 80.364,144.432 L 80.019,144.839 L 79.671,145.198 L 79.322,145.504 L 78.986,145.762 L 78.649,145.955 L 78.318,146.104 L 77.994,146.195 L 77.676,146.217 L 77.362,146.201 L 77.056,146.112 L 76.755,145.967 L 76.460,145.776 L 76.173,145.518 L 75.890,145.209 L 75.615,144.849 L 75.351,144.431 L 75.091,143.963 L 74.843,143.453 L 74.606,142.894 L 74.380,142.285 L 74.171,141.642 L 73.973,140.956 L 73.794,140.232 L 73.640,139.476 L 73.497,138.686 L 73.382,137.870 L 73.298,137.026 L 73.229,136.163 L 73.202,135.282 L 73.199,134.384 L 73.222,133.481 L 73.281,132.570 L 73.374,131.659 L 73.494,130.751 L 73.636,129.850 L 73.821,128.964 L 74.019,128.089 L 74.248,127.235 L 74.504,126.404 L 74.768,125.597 L 75.058,124.816 L 75.360,124.067 L 75.675,123.351 L 76.005,122.665 L 76.336,122.022 L 76.680,121.416 L 77.029,120.849 L 77.373,120.325 L 77.727,119.847 L 78.079,119.418 L 78.425,119.033 L 78.774,118.702 L 79.116,118.420 L 79.453,118.191 L 79.787,118.024 L 80.115,117.898 L 80.436,117.847 L 80.751,117.844 L 81.063,117.888 L 81.365,118.013 L 81.664,118.177 L 81.954,118.401 L 82.239,118.690 L 82.518,119.025 L 82.786,119.411 L 83.051,119.853 L 83.305,120.344 L 83.544,120.877 L 83.778,121.464 L 83.999,122.087 L 84.199,122.753 L 84.388,123.461 L 84.556,124.199 L 84.705,124.973 L 84.833,125.777 L 84.928,126.606 L 85.009,127.461 L 85.060,128.333 L 85.072,129.224 L 85.062,130.124 L 85.025,131.032 Z" fill="#2b0000" stroke="#000000" stroke-width="1.2" stroke-opacity="1" /></g><g id="path397"><path d="M 142.554,136.786 L 142.606,137.993 L 142.643,139.198 L 142.612,140.403 L 142.549,141.602 L 142.435,142.800 L 142.271,143.985 L 142.066,145.166 L 141.808,146.330 L 141.505,147.483 L 141.155,148.618 L 140.744,149.729 L 140.297,150.822 L 139.787,151.884 L 139.237,152.918 L 138.623,153.915 L 137.962,154.871 L 137.249,155.785 L 136.479,156.645 L 135.660,157.445 L 134.785,158.182 L 133.866,158.853 L 132.896,159.435 L 131.878,159.925 L 130.824,160.332 L 129.733,160.636 L 128.613,160.808 L 127.469,160.867 L 126.308,160.801 L 125.151,160.583 L 124.019,160.220 L 122.920,159.738 L 121.873,159.137 L 120.887,158.438 L 119.957,157.665 L 119.086,156.820 L 118.279,155.916 L 117.528,154.962 L 116.833,153.967 L 116.199,152.932 L 115.615,151.868 L 115.084,150.777 L 114.606,149.662 L 114.177,148.527 L 113.803,147.373 L 113.465,146.209 L 113.193,145.028 L 112.949,143.842 L 112.771,142.645 L 112.627,141.445 L 112.532,140.240 L 112.487,139.035 L 112.477,137.828 L 112.531,136.627 L 112.613,135.427 L 112.758,134.237 L 112.940,133.053 L 113.170,131.880 L 113.455,130.723 L 113.779,129.578 L 114.162,128.455 L 114.584,127.350 L 115.065,126.272 L 115.599,125.226 L 116.178,124.208 L 116.815,123.230 L 117.501,122.297 L 118.244,121.408 L 119.036,120.575 L 119.887,119.809 L 120.782,119.101 L 121.725,118.471 L 122.722,117.940 L 123.759,117.490 L 124.831,117.129 L 125.938,116.895 L 127.070,116.778 L 128.224,116.780 L 129.386,116.920 L 130.533,117.213 L 131.650,117.637 L 132.724,118.179 L 133.743,118.830 L 134.698,119.571 L 135.599,120.380 L 136.442,121.253 L 137.216,122.186 L 137.939,123.162 L 138.605,124.176 L 139.215,125.225 L 139.773,126.304 L 140.273,127.409 L 140.730,128.533 L 141.129,129.678 L 141.487,130.837 L 141.792,132.010 L 142.045,133.195 L 142.265,134.385 L 142.417,135.585 L 142.554,136.786 Z" fill="#ffffff" stroke="#000000" stroke-width="1.2" stroke-opacity="1" /></g><g id="path1265"><path d="M 130.401,147.501 L 130.415,148.017 L 130.407,148.530 L 130.368,149.042 L 130.292,149.547 L 130.190,150.047 L 130.059,150.538 L 129.896,151.017 L 129.709,151.486 L 129.496,151.941 L 129.255,152.381 L 128.996,152.807 L 128.707,153.214 L 128.402,153.603 L 128.075,153.975 L 127.730,154.326 L 127.365,154.656 L 126.985,154.967 L 126.589,155.253 L 126.178,155.519 L 125.754,155.762 L 125.315,155.975 L 124.866,156.170 L 124.407,156.332 L 123.935,156.468 L 123.456,156.579 L 122.971,156.654 L 122.477,156.704 L 121.979,156.713 L 121.479,156.690 L 120.978,156.636 L 120.481,156.539 L 119.989,156.405 L 119.506,156.233 L 119.038,156.022 L 118.583,155.781 L 118.147,155.503 L 117.734,155.193 L 117.341,154.856 L 116.972,154.493 L 116.630,154.104 L 116.314,153.693 L 116.026,153.262 L 115.766,152.814 L 115.535,152.350 L 115.338,151.871 L 115.169,151.382 L 115.031,150.883 L 114.931,150.375 L 114.856,149.865 L 114.817,149.350 L 114.814,148.836 L 114.835,148.323 L 114.894,147.814 L 114.983,147.312 L 115.099,146.815 L 115.244,146.330 L 115.423,145.857 L 115.621,145.394 L 115.849,144.946 L 116.101,144.514 L 116.375,144.097 L 116.671,143.699 L 116.987,143.318 L 117.324,142.957 L 117.678,142.616 L 118.050,142.294 L 118.438,141.995 L 118.843,141.722 L 119.260,141.465 L 119.691,141.239 L 120.136,141.035 L 120.590,140.854 L 121.055,140.707 L 121.531,140.581 L 122.014,140.490 L 122.503,140.427 L 123.000,140.394 L 123.499,140.404 L 123.999,140.441 L 124.499,140.516 L 124.993,140.634 L 125.481,140.786 L 125.957,140.978 L 126.420,141.203 L 126.866,141.462 L 127.290,141.758 L 127.694,142.081 L 128.076,142.431 L 128.430,142.808 L 128.759,143.209 L 129.062,143.629 L 129.335,144.069 L 129.580,144.526 L 129.795,144.997 L 129.977,145.482 L 130.133,145.976 L 130.250,146.480 L 130.337,146.989 L 130.401,147.501 Z" fill="#2b0000" stroke="#000000" stroke-width="1.2" stroke-opacity="1" /></g><g id="path1439"><path d="m 101.93644,176.18644 c -3.55278,1.84828 -11.195999,6.97937 -13.843222,10.06779 -1.96864,2.29675 -4.077308,4.68109 -5.033896,7.55085 -0.265311,0.79593 0.311589,1.73798 0,2.51695 -0.133694,0.33423 -4.436285,4.97066 -3.775424,6.29237 1.431628,2.86326 8.945353,0.66325 11.32627,1.25848 0.575537,0.14388 0.695669,1.07087 1.258474,1.25847 1.59438,0.53146 9.755308,0.78548 11.326268,0 1.06124,-0.53062 1.52973,-1.85879 2.51695,-2.51695 2.89216,-1.9281 2.51695,-0.10489 2.51695,-2.51694" fill="#2b0000" stroke="#000000" stroke-width="1.2" stroke-opacity="1" fill-opacity="0" /></g><g id="path2136"><path d="m 80.542372,218.97457 c 9.726314,4.5029 24.667918,6.04008 35.237288,2.51695 0.56281,-0.1876 0.69567,-1.07087 1.25847,-1.25847 0.79593,-0.26531 1.76655,0.3752 2.51695,0 15.23785,-7.61892 -2.73828,-1.1847 8.80932,-5.0339" fill="#2b0000" stroke="#000000" stroke-width="1.2" stroke-opacity="1" fill-opacity="0" /></g></svg>