<?xml version='1.0' encoding='utf-8'?>
<svg xmlns="http://www.w3.org/2000/svg" width="210" height="297" viewBox="0 0 210 297"><g id="path2717"><path d="M 28.945,147.242 L 28.945,147.242 L 28.945,147.242 L 28.945,147.242 L 28.945,147.242 L 28.945,147.242 L 28.945,147.242 L 28.945,147.242 L 28.945,147.242 L 28.945,147.242 L 28.945,147.242 L 28.945,147.242 L 28.945,147.242 L 28.945,147.242 L 28.945,147.242 L 28.945,147.242 L 28.945,147.242 L 28.945,147.242 L 28.945,147.242 L 28.945,147.242 L 28.945,147.242 L 28.945,147.242 L 28.945,147.242 L 28.945,147.242 L 28.945,147.242 L 28.945,147.242 L 28.945,147.242 L 28.945,147.242 L 28.945,147.242 L 28.945,147.242 L 28.945,147.242 L 28.945,147.242 L 28.945,147.242 L 28.945,147.242 L 28.945,147.242 L 28.945,147.242 L 28.945,147.242 L 28.945,147.242 L 28.945,147.242 L 28.945,147.242 L 28.945,147.242 L 28.945,147.242 L 28.945,147.242 L 28.945,147.242 L 28.945,147.242 L 28.945,147.242 L 28.945,147.242 L 28.945,147.242 L 28.945,147.242 L 28.945,147.242 L 28.945,147.242 L 28.945,147.242 L 28.945,147.242 L 28.945,147.242 L 28.945,147.242 L 28.945,147.242 L 28.945,147.242 L 28.945,147.242 L 28.945,147.242 L 28.945,147.242 L 28.945,147.242 L 28.945,147.242 L 28.945,147.242 L 28.945,147.242 L 28.945,147.242 L 28.945,147.242 L 28.945,147.242 L 28.945,147.242 L 28.945,147.242 L 28.945,147.242 L 28.945,147.242 L 28.945,147.242 L 28.945,147.242 L 28.945,147.242 L 28.945,147.242 L 28.945,147.242 L 28.945,147.242 L 28.945,147.242 L 28.945,147.242 L 28.945,147.242 L 28.945,147.242 L 28.945,147.242 L 28.945,147.242 L 28.945,147.242 L 28.945,147.242 L 28.945,147.242 L 28.945,147.242 L 28.945,147.242 L 28.945,147.242 L 28.945,147.242 L 28.945,147.242 L 28.945,147.242 L 28.945,147.242 L 28.945,147.242 L 28.945,147.242 L 28.945,147.242 L 28.945,147.242 L 28.945,147.242 L 28.945,147.242 L 28.945,147.242 L 28.945,147.242 L 28.678,147.333 L 28.411,147.419 L 28.144,147.501 L 27.875,147.579 L 27.606,147.652 L 27.337,147.722 L 27.067,147.787 L 26.796,147.849 L 26.525,147.907 L 26.253,147.961 L 25.981,148.011 L 25.709,148.058 L 25.436,148.102 L 25.163,148.143 L 24.889,148.180 L 24.615,148.214 L 24.340,148.246 L 24.065,148.274 L 23.790,148.300 L 23.515,148.323 L 23.239,148.344 L 22.963,148.363 L 22.687,148.379 L 22.411,148.393 L 22.134,148.404 L 21.858,148.414 L 21.581,148.422 L 21.304,148.428 L 21.027,148.433 L 20.749,148.436 L 20.472,148.438 L 20.195,148.438 L 19.917,148.437 L 19.640,148.435 L 19.363,148.432 L 19.085,148.428 L 18.808,148.423 L 18.531,148.418 L 18.253,148.412 L 17.976,148.405 L 17.699,148.398 L 17.423,148.391 L 17.146,148.384 L 16.869,148.377 L 16.593,148.369 L 16.317,148.362 L 16.041,148.355 L 15.766,148.349 L 15.491,148.343 L 15.216,148.338 L 14.941,148.333 L 14.667,148.329 L 14.393,148.326 L 14.119,148.324 L 13.846,148.323 L 13.573,148.324 L 13.301,148.325 L 13.029,148.328 L 12.757,148.333 L 12.486,148.340 L 12.216,148.348 L 11.946,148.358 L 11.677,148.370 L 11.408,148.384 L 11.140,148.400 L 10.873,148.419 L 10.606,148.440 L 10.339,148.463 L 10.074,148.489 L 9.809,148.518 L 9.545,148.550 L 9.281,148.584 L 9.019,148.622 L 8.757,148.663 L 8.496,148.707 L 8.235,148.754 L 7.976,148.805 L 7.717,148.859 L 7.459,148.917 L 7.203,148.979 L 6.947,149.045 L 6.692,149.115 L 6.437,149.189 L 6.184,149.267 L 5.932,149.349 L 5.681,149.436 L 5.431,149.528 L 5.182,149.624 L 4.934,149.724 L 4.687,149.830 L 4.441,149.941 L 4.197,150.056 L 3.953,150.177 L 3.711,150.303 L 3.469,150.435 L 3.229,150.572 L 2.991,150.714 L 2.753,150.863 L 2.517,151.017 L 2.517,151.017 L 2.484,151.040 L 2.452,151.063 L 2.421,151.087 L 2.391,151.112 L 2.362,151.137 L 2.334,151.164 L 2.307,151.190 L 2.281,151.218 L 2.255,151.246 L 2.231,151.275 L 2.207,151.304 L 2.185,151.334 L 2.162,151.364 L 2.141,151.395 L 2.121,151.427 L 2.101,151.459 L 2.082,151.492 L 2.064,151.525 L 2.046,151.559 L 2.030,151.593 L 2.013,151.628 L 1.998,151.663 L 1.983,151.699 L 1.969,151.735 L 1.955,151.771 L 1.942,151.808 L 1.929,151.846 L 1.917,151.883 L 1.905,151.921 L 1.894,151.960 L 1.884,151.999 L 1.873,152.038 L 1.864,152.078 L 1.854,152.117 L 1.845,152.158 L 1.837,152.198 L 1.829,152.239 L 1.821,152.280 L 1.813,152.321 L 1.806,152.363 L 1.799,152.404 L 1.793,152.446 L 1.786,152.488 L 1.780,152.531 L 1.774,152.573 L 1.769,152.616 L 1.763,152.659 L 1.758,152.702 L 1.752,152.745 L 1.747,152.788 L 1.742,152.832 L 1.737,152.875 L 1.732,152.919 L 1.728,152.962 L 1.723,153.006 L 1.718,153.050 L 1.713,153.093 L 1.708,153.137 L 1.703,153.181 L 1.698,153.225 L 1.693,153.269 L 1.688,153.312 L 1.683,153.356 L 1.678,153.400 L 1.672,153.443 L 1.667,153.487 L 1.661,153.530 L 1.654,153.573 L 1.648,153.616 L 1.642,153.659 L 1.635,153.702 L 1.628,153.745 L 1.620,153.787 L 1.612,153.830 L 1.604,153.872 L 1.596,153.914 L 1.587,153.956 L 1.578,153.997 L 1.568,154.038 L 1.558,154.079 L 1.547,154.120 L 1.536,154.160 L 1.525,154.201 L 1.513,154.240 L 1.500,154.280 L 1.487,154.319 L 1.473,154.358 L 1.459,154.396 L 1.444,154.435 L 1.429,154.472 L 1.413,154.510 L 1.396,154.546 L 1.378,154.583 L 1.360,154.619 L 1.341,154.655 L 1.322,154.690 L 1.301,154.724 L 1.280,154.759 L 1.258,154.792 L 1.258,154.792 L 1.248,154.807 L 1.238,154.822 L 1.227,154.836 L 1.216,154.851 L 1.205,154.865 L 1.194,154.879 L 1.182,154.893 L 1.170,154.906 L 1.158,154.920 L 1.146,154.933 L 1.133,154.947 L 1.121,154.960 L 1.108,154.973 L 1.095,154.985 L 1.081,154.998 L 1.068,155.011 L 1.054,155.023 L 1.040,155.036 L 1.026,155.048 L 1.012,155.060 L 0.998,155.072 L 0.984,155.084 L 0.969,155.096 L 0.954,155.108 L 0.940,155.119 L 0.925,155.131 L 0.910,155.142 L 0.895,155.154 L 0.879,155.165 L 0.864,155.177 L 0.849,155.188 L 0.833,155.199 L 0.818,155.210 L 0.802,155.221 L 0.787,155.232 L 0.771,155.243 L 0.756,155.254 L 0.740,155.265 L 0.724,155.276 L 0.708,155.287 L 0.693,155.298 L 0.677,155.309 L 0.661,155.320 L 0.646,155.331 L 0.630,155.342 L 0.614,155.353 L 0.599,155.364 L 0.583,155.374 L 0.568,155.385 L 0.552,155.396 L 0.537,155.407 L 0.521,155.418 L 0.506,155.429 L 0.491,155.441 L 0.476,155.452 L 0.461,155.463 L 0.446,155.474 L 0.431,155.485 L 0.416,155.497 L 0.402,155.508 L 0.387,155.520 L 0.373,155.531 L 0.359,155.543 L 0.345,155.555 L 0.331,155.567 L 0.317,155.578 L 0.304,155.590 L 0.290,155.603 L 0.277,155.615 L 0.264,155.627 L 0.251,155.640 L 0.239,155.652 L 0.226,155.665 L 0.214,155.678 L 0.202,155.691 L 0.190,155.704 L 0.179,155.717 L 0.168,155.730 L 0.157,155.744 L 0.146,155.757 L 0.136,155.771 L 0.125,155.785 L 0.115,155.799 L 0.106,155.813 L 0.096,155.828 L 0.087,155.843 L 0.079,155.857 L 0.070,155.872 L 0.062,155.888 L 0.054,155.903 L 0.047,155.919 L 0.040,155.934 L 0.033,155.950 L 0.027,155.967 L 0.021,155.983 L 0.015,156.000 L 0.009,156.016 L 0.005,156.034 L 0.000,156.051 L 0.000,156.051 L -0.009,156.088 L -0.017,156.125 L -0.025,156.162 L -0.033,156.199 L -0.039,156.237 L -0.046,156.274 L -0.052,156.311 L -0.057,156.349 L -0.062,156.386 L -0.066,156.424 L -0.070,156.462 L -0.074,156.499 L -0.077,156.537 L -0.080,156.575 L -0.082,156.613 L -0.084,156.651 L -0.086,156.689 L -0.087,156.727 L -0.088,156.765 L -0.088,156.803 L -0.088,156.841 L -0.088,156.879 L -0.087,156.917 L -0.087,156.955 L -0.086,156.994 L -0.084,157.032 L -0.083,157.070 L -0.081,157.109 L -0.079,157.147 L -0.076,157.186 L -0.074,157.224 L -0.071,157.262 L -0.068,157.301 L -0.065,157.339 L -0.061,157.378 L -0.058,157.417 L -0.054,157.455 L -0.050,157.494 L -0.046,157.532 L -0.042,157.571 L -0.038,157.610 L -0.034,157.648 L -0.030,157.687 L -0.025,157.726 L -0.021,157.764 L -0.016,157.803 L -0.012,157.842 L -0.007,157.880 L -0.002,157.919 L 0.002,157.958 L 0.007,157.997 L 0.012,158.035 L 0.016,158.074 L 0.021,158.113 L 0.025,158.151 L 0.030,158.190 L 0.034,158.229 L 0.038,158.267 L 0.042,158.306 L 0.046,158.345 L 0.050,158.383 L 0.054,158.422 L 0.058,158.461 L 0.061,158.499 L 0.065,158.538 L 0.068,158.576 L 0.071,158.615 L 0.074,158.653 L 0.076,158.692 L 0.079,158.730 L 0.081,158.768 L 0.083,158.807 L 0.084,158.845 L 0.086,158.883 L 0.087,158.922 L 0.087,158.960 L 0.088,158.998 L 0.088,159.036 L 0.088,159.074 L 0.088,159.112 L 0.087,159.150 L 0.086,159.188 L 0.084,159.226 L 0.082,159.264 L 0.080,159.302 L 0.077,159.340 L 0.074,159.378 L 0.070,159.415 L 0.066,159.453 L 0.062,159.491 L 0.057,159.528 L 0.052,159.566 L 0.046,159.603 L 0.039,159.640 L 0.033,159.678 L 0.025,159.715 L 0.017,159.752 L 0.009,159.789 L 0.000,159.826 L 0.000,159.826 L -0.055,160.044 L -0.108,160.251 L -0.159,160.448 L -0.208,160.635 L -0.255,160.812 L -0.301,160.979 L -0.345,161.136 L -0.387,161.284 L -0.427,161.423 L -0.466,161.553 L -0.504,161.674 L -0.539,161.786 L -0.574,161.890 L -0.607,161.986 L -0.638,162.074 L -0.669,162.154 L -0.697,162.227 L -0.725,162.292 L -0.751,162.350 L -0.777,162.400 L -0.801,162.444 L -0.823,162.482 L -0.845,162.513 L -0.866,162.538 L -0.886,162.556 L -0.905,162.569 L -0.923,162.577 L -0.940,162.578 L -0.956,162.575 L -0.972,162.566 L -0.987,162.553 L -1.001,162.535 L -1.014,162.513 L -1.027,162.486 L -1.040,162.456 L -1.051,162.421 L -1.063,162.383 L -1.073,162.341 L -1.084,162.296 L -1.094,162.248 L -1.103,162.197 L -1.113,162.144 L -1.122,162.088 L -1.131,162.029 L -1.140,161.969 L -1.149,161.907 L -1.157,161.843 L -1.166,161.777 L -1.174,161.711 L -1.183,161.643 L -1.192,161.574 L -1.201,161.505 L -1.210,161.435 L -1.219,161.364 L -1.228,161.294 L -1.238,161.224 L -1.248,161.154 L -1.259,161.084 L -1.269,161.015 L -1.281,160.947 L -1.293,160.881 L -1.305,160.815 L -1.318,160.751 L -1.331,160.688 L -1.346,160.628 L -1.361,160.569 L -1.376,160.513 L -1.393,160.459 L -1.410,160.408 L -1.428,160.360 L -1.447,160.314 L -1.467,160.272 L -1.488,160.234 L -1.510,160.199 L -1.533,160.168 L -1.558,160.141 L -1.583,160.118 L -1.610,160.099 L -1.637,160.086 L -1.667,160.077 L -1.697,160.073 L -1.729,160.074 L -1.762,160.081 L -1.797,160.093 L -1.833,160.111 L -1.870,160.135 L -1.909,160.165 L -1.950,160.202 L -1.993,160.245 L -2.037,160.295 L -2.083,160.353 L -2.130,160.417 L -2.180,160.489 L -2.231,160.568 L -2.284,160.655 L -2.339,160.750 L -2.397,160.853 L -2.456,160.965 L -2.517,161.085 L -2.517,161.085 L -2.538,161.129 L -2.558,161.176 L -2.578,161.227 L -2.597,161.282 L -2.616,161.339 L -2.634,161.400 L -2.652,161.464 L -2.669,161.531 L -2.686,161.601 L -2.702,161.673 L -2.718,161.749 L -2.733,161.827 L -2.748,161.908 L -2.762,161.992 L -2.775,162.078 L -2.788,162.166 L -2.801,162.257 L -2.813,162.350 L -2.825,162.446 L -2.836,162.544 L -2.847,162.644 L -2.857,162.745 L -2.867,162.849 L -2.876,162.955 L -2.885,163.063 L -2.893,163.172 L -2.901,163.283 L -2.909,163.396 L -2.916,163.510 L -2.922,163.626 L -2.929,163.743 L -2.934,163.861 L -2.940,163.981 L -2.945,164.102 L -2.949,164.224 L -2.953,164.347 L -2.957,164.471 L -2.960,164.596 L -2.963,164.722 L -2.965,164.849 L -2.967,164.976 L -2.969,165.104 L -2.970,165.233 L -2.971,165.362 L -2.971,165.491 L -2.971,165.621 L -2.971,165.751 L -2.970,165.881 L -2.969,166.012 L -2.967,166.142 L -2.965,166.273 L -2.963,166.403 L -2.961,166.533 L -2.958,166.664 L -2.954,166.793 L -2.951,166.923 L -2.947,167.052 L -2.942,167.180 L -2.938,167.308 L -2.933,167.436 L -2.927,167.562 L -2.922,167.688 L -2.916,167.813 L -2.910,167.937 L -2.903,168.060 L -2.896,168.182 L -2.889,168.303 L -2.881,168.423 L -2.874,168.541 L -2.865,168.658 L -2.857,168.774 L -2.848,168.888 L -2.839,169.001 L -2.830,169.112 L -2.820,169.221 L -2.811,169.329 L -2.801,169.434 L -2.790,169.538 L -2.780,169.640 L -2.769,169.740 L -2.757,169.837 L -2.746,169.933 L -2.734,170.026 L -2.723,170.117 L -2.710,170.205 L -2.698,170.291 L -2.685,170.375 L -2.673,170.456 L -2.659,170.534 L -2.646,170.609 L -2.633,170.682 L -2.619,170.752 L -2.605,170.818 L -2.591,170.882 L -2.576,170.943 L -2.562,171.000 L -2.547,171.054 L -2.532,171.105 L -2.517,171.153 L -2.517,171.153 L -2.468,171.292 L -2.416,171.430 L -2.360,171.567 L -2.300,171.703 L -2.237,171.837 L -2.171,171.971 L -2.101,172.103 L -2.028,172.233 L -1.951,172.363 L -1.872,172.491 L -1.789,172.618 L -1.703,172.744 L -1.614,172.869 L -1.522,172.992 L -1.427,173.115 L -1.330,173.236 L -1.230,173.356 L -1.127,173.474 L -1.021,173.592 L -0.913,173.709 L -0.803,173.824 L -0.690,173.938 L -0.574,174.051 L -0.457,174.163 L -0.337,174.274 L -0.215,174.384 L -0.091,174.493 L 0.035,174.601 L 0.163,174.707 L 0.293,174.813 L 0.424,174.917 L 0.558,175.021 L 0.693,175.123 L 0.829,175.224 L 0.968,175.325 L 1.108,175.424 L 1.249,175.522 L 1.391,175.620 L 1.535,175.716 L 1.680,175.811 L 1.827,175.906 L 1.974,175.999 L 2.122,176.091 L 2.272,176.183 L 2.422,176.273 L 2.573,176.363 L 2.725,176.451 L 2.878,176.539 L 3.031,176.626 L 3.185,176.712 L 3.339,176.797 L 3.494,176.881 L 3.649,176.964 L 3.804,177.046 L 3.960,177.127 L 4.116,177.208 L 4.272,177.288 L 4.428,177.367 L 4.584,177.445 L 4.740,177.522 L 4.896,177.598 L 5.052,177.674 L 5.207,177.748 L 5.362,177.822 L 5.517,177.895 L 5.671,177.968 L 5.825,178.039 L 5.978,178.110 L 6.130,178.180 L 6.282,178.249 L 6.433,178.318 L 6.583,178.385 L 6.732,178.452 L 6.880,178.519 L 7.027,178.584 L 7.173,178.649 L 7.317,178.713 L 7.461,178.777 L 7.603,178.839 L 7.744,178.901 L 7.883,178.963 L 8.021,179.024 L 8.157,179.084 L 8.292,179.143 L 8.424,179.202 L 8.555,179.260 L 8.685,179.318 L 8.812,179.375 L 8.937,179.431 L 9.061,179.487 L 9.182,179.542 L 9.301,179.596 L 9.418,179.650 L 9.532,179.703 L 9.644,179.756 L 9.754,179.808 L 9.861,179.860 L 9.966,179.911 L 10.068,179.962 L 10.068,179.962 L 10.213,180.036 L 10.356,180.110 L 10.495,180.184 L 10.631,180.258 L 10.763,180.333 L 10.893,180.408 L 11.020,180.483 L 11.144,180.558 L 11.266,180.634 L 11.384,180.710 L 11.500,180.786 L 11.613,180.862 L 11.724,180.938 L 11.832,181.015 L 11.938,181.092 L 12.041,181.168 L 12.142,181.245 L 12.241,181.323 L 12.338,181.400 L 12.432,181.477 L 12.525,181.555 L 12.616,181.633 L 12.704,181.711 L 12.791,181.789 L 12.876,181.867 L 12.960,181.945 L 13.042,182.023 L 13.122,182.102 L 13.201,182.180 L 13.278,182.259 L 13.354,182.337 L 13.429,182.416 L 13.502,182.495 L 13.574,182.573 L 13.645,182.652 L 13.715,182.731 L 13.785,182.810 L 13.853,182.889 L 13.920,182.968 L 13.987,183.047 L 14.052,183.126 L 14.118,183.205 L 14.182,183.284 L 14.246,183.363 L 14.310,183.442 L 14.373,183.521 L 14.436,183.600 L 14.499,183.679 L 14.561,183.758 L 14.623,183.837 L 14.685,183.915 L 14.748,183.994 L 14.810,184.073 L 14.872,184.151 L 14.935,184.230 L 14.998,184.308 L 15.061,184.386 L 15.125,184.465 L 15.189,184.543 L 15.253,184.621 L 15.319,184.699 L 15.384,184.776 L 15.451,184.854 L 15.518,184.932 L 15.586,185.009 L 15.656,185.086 L 15.726,185.163 L 15.797,185.240 L 15.869,185.317 L 15.942,185.394 L 16.017,185.470 L 16.093,185.546 L 16.170,185.622 L 16.249,185.698 L 16.329,185.774 L 16.411,185.849 L 16.495,185.924 L 16.580,185.999 L 16.667,186.074 L 16.756,186.149 L 16.846,186.223 L 16.939,186.297 L 17.034,186.371 L 17.130,186.445 L 17.229,186.518 L 17.330,186.591 L 17.434,186.664 L 17.540,186.736 L 17.648,186.808 L 17.758,186.880 L 17.872,186.952 L 17.988,187.023 L 18.106,187.094 L 18.227,187.165 L 18.351,187.235 L 18.478,187.305 L 18.608,187.374 L 18.741,187.444 L 18.877,187.513 L 18.877,187.513 L 19.034,187.589 L 19.192,187.664 L 19.352,187.736 L 19.513,187.805 L 19.677,187.873 L 19.841,187.938 L 20.008,188.001 L 20.176,188.062 L 20.346,188.121 L 20.517,188.177 L 20.689,188.232 L 20.863,188.284 L 21.038,188.335 L 21.215,188.384 L 21.393,188.430 L 21.573,188.475 L 21.753,188.518 L 21.935,188.560 L 22.118,188.599 L 22.302,188.637 L 22.488,188.672 L 22.674,188.707 L 22.862,188.739 L 23.050,188.770 L 23.240,188.799 L 23.430,188.827 L 23.622,188.853 L 23.814,188.878 L 24.007,188.901 L 24.201,188.923 L 24.396,188.943 L 24.592,188.962 L 24.788,188.980 L 24.986,188.996 L 25.183,189.011 L 25.382,189.025 L 25.581,189.037 L 25.781,189.049 L 25.981,189.059 L 26.181,189.068 L 26.383,189.076 L 26.584,189.083 L 26.786,189.089 L 26.989,189.094 L 27.192,189.098 L 27.395,189.101 L 27.598,189.103 L 27.802,189.104 L 28.006,189.104 L 28.210,189.104 L 28.414,189.103 L 28.618,189.101 L 28.822,189.098 L 29.027,189.095 L 29.231,189.091 L 29.436,189.087 L 29.640,189.082 L 29.845,189.076 L 30.049,189.070 L 30.253,189.063 L 30.457,189.056 L 30.661,189.049 L 30.864,189.041 L 31.067,189.033 L 31.270,189.024 L 31.473,189.015 L 31.675,189.006 L 31.877,188.997 L 32.078,188.987 L 32.279,188.978 L 32.479,188.968 L 32.679,188.958 L 32.879,188.948 L 33.077,188.938 L 33.275,188.928 L 33.473,188.918 L 33.669,188.908 L 33.865,188.898 L 34.061,188.889 L 34.255,188.879 L 34.449,188.870 L 34.641,188.861 L 34.833,188.852 L 35.024,188.843 L 35.214,188.835 L 35.403,188.827 L 35.591,188.820 L 35.778,188.813 L 35.964,188.806 L 36.148,188.800 L 36.332,188.794 L 36.514,188.789 L 36.695,188.784 L 36.875,188.781 L 37.054,188.777 L 37.231,188.775 L 37.407,188.773 L 37.581,188.772 L 37.754,188.771 Z" fill="#ffff00" stroke="#000000" stroke-width="1.2" stroke-opacity="1" fill-opacity="0.981132" /></g><g id="path2147"><path d="M 169.894,144.725 L 169.894,144.725 L 169.894,144.725 L 169.894,144.725 L 169.894,144.725 L 169.894,144.725 L 169.894,144.725 L 169.894,144.725 L 169.894,144.725 L 169.894,144.725 L 169.894,144.725 L 169.894,144.725 L 169.894,144.725 L 169.894,144.725 L 169.894,144.725 L 169.894,144.725 L 169.894,144.725 L 169.894,144.725 L 169.894,144.725 L 169.894,144.725 L 169.894,144.725 L 169.894,144.725 L 169.894,144.725 L 169.894,144.725 L 169.894,144.725 L 169.894,144.725 L 169.894,144.725 L 169.894,144.725 L 169.894,144.725 L 169.894,144.725 L 169.894,144.725 L 169.894,144.725 L 169.894,144.725 L 169.894,144.725 L 169.894,144.725 L 169.894,144.725 L 169.894,144.725 L 169.894,144.725 L 169.894,144.725 L 169.894,144.725 L 169.894,144.725 L 169.894,144.725 L 169.894,144.725 L 169.894,144.725 L 169.894,144.725 L 169.894,144.725 L 169.894,144.725 L 169.894,144.725 L 169.894,144.725 L 169.894,144.725 L 169.894,144.725 L 169.894,144.725 L 169.894,144.725 L 169.894,144.725 L 169.894,144.725 L 169.894,144.725 L 169.894,144.725 L 169.894,144.725 L 169.894,144.725 L 169.894,144.725 L 169.894,144.725 L 169.894,144.725 L 169.894,144.725 L 169.894,144.725 L 169.894,144.725 L 169.894,144.725 L 169.894,144.725 L 169.894,144.725 L 169.894,144.725 L 169.894,144.725 L 169.894,144.725 L 169.894,144.725 L 169.894,144.725 L 169.894,144.725 L 169.894,144.725 L 169.894,144.725 L 169.894,144.725 L 169.894,144.725 L 169.894,144.725 L 169.894,144.725 L 169.894,144.725 L 169.894,144.725 L 169.894,144.725 L 169.894,144.725 L 169.894,144.725 L 169.894,144.725 L 169.894,144.725 L 169.894,144.725 L 169.894,144.725 L 169.894,144.725 L 169.894,144.725 L 169.894,144.725 L 169.894,144.725 L 169.894,144.725 L 169.894,144.725 L 169.894,144.725 L 169.894,144.725 L 169.894,144.725 L 169.894,144.725 L 169.894,144.725 L 169.894,144.725 L 169.983,144.737 L 170.072,144.750 L 170.161,144.762 L 170.250,144.774 L 170.339,144.786 L 170.428,144.798 L 170.518,144.810 L 170.607,144.822 L 170.696,144.833 L 170.785,144.845 L 170.874,144.856 L 170.964,144.868 L 171.053,144.879 L 171.142,144.890 L 171.232,144.901 L 171.321,144.912 L 171.410,144.923 L 171.500,144.933 L 171.589,144.944 L 171.678,144.955 L 171.768,144.965 L 171.857,144.976 L 171.946,144.986 L 172.036,144.997 L 172.125,145.007 L 172.215,145.017 L 172.304,145.028 L 172.394,145.038 L 172.483,145.048 L 172.572,145.058 L 172.662,145.069 L 172.751,145.079 L 172.841,145.089 L 172.930,145.099 L 173.020,145.109 L 173.109,145.120 L 173.199,145.130 L 173.288,145.140 L 173.377,145.150 L 173.467,145.161 L 173.556,145.171 L 173.646,145.182 L 173.735,145.192 L 173.825,145.202 L 173.914,145.213 L 174.003,145.223 L 174.093,145.234 L 174.182,145.245 L 174.271,145.256 L 174.361,145.266 L 174.450,145.277 L 174.539,145.288 L 174.629,145.299 L 174.718,145.311 L 174.807,145.322 L 174.896,145.333 L 174.986,145.345 L 175.075,145.356 L 175.164,145.368 L 175.253,145.380 L 175.342,145.392 L 175.431,145.404 L 175.520,145.416 L 175.609,145.428 L 175.698,145.441 L 175.787,145.454 L 175.876,145.466 L 175.965,145.479 L 176.054,145.492 L 176.143,145.506 L 176.232,145.519 L 176.321,145.533 L 176.410,145.547 L 176.498,145.560 L 176.587,145.575 L 176.676,145.589 L 176.764,145.604 L 176.853,145.618 L 176.942,145.633 L 177.030,145.648 L 177.119,145.664 L 177.207,145.679 L 177.295,145.695 L 177.384,145.711 L 177.472,145.728 L 177.560,145.744 L 177.649,145.761 L 177.737,145.778 L 177.825,145.795 L 177.913,145.813 L 178.001,145.831 L 178.089,145.849 L 178.177,145.867 L 178.265,145.886 L 178.353,145.905 L 178.440,145.924 L 178.528,145.943 L 178.616,145.963 L 178.703,145.983 L 178.703,145.983 L 178.860,146.019 L 179.017,146.056 L 179.173,146.092 L 179.330,146.129 L 179.487,146.166 L 179.644,146.203 L 179.800,146.240 L 179.957,146.278 L 180.114,146.316 L 180.270,146.354 L 180.427,146.392 L 180.583,146.430 L 180.740,146.469 L 180.896,146.507 L 181.053,146.546 L 181.209,146.586 L 181.366,146.625 L 181.522,146.665 L 181.679,146.705 L 181.835,146.745 L 181.991,146.785 L 182.148,146.826 L 182.304,146.867 L 182.460,146.908 L 182.616,146.950 L 182.772,146.991 L 182.928,147.033 L 183.084,147.076 L 183.239,147.118 L 183.395,147.161 L 183.551,147.204 L 183.706,147.247 L 183.862,147.291 L 184.017,147.335 L 184.173,147.379 L 184.328,147.424 L 184.483,147.469 L 184.638,147.514 L 184.793,147.560 L 184.948,147.605 L 185.103,147.652 L 185.257,147.698 L 185.412,147.745 L 185.566,147.792 L 185.720,147.840 L 185.875,147.887 L 186.029,147.936 L 186.183,147.984 L 186.336,148.033 L 186.490,148.082 L 186.644,148.132 L 186.797,148.182 L 186.950,148.232 L 187.104,148.283 L 187.257,148.334 L 187.409,148.386 L 187.562,148.437 L 187.715,148.490 L 187.867,148.542 L 188.019,148.595 L 188.171,148.649 L 188.323,148.703 L 188.475,148.757 L 188.627,148.812 L 188.778,148.867 L 188.929,148.922 L 189.081,148.978 L 189.231,149.035 L 189.382,149.092 L 189.533,149.149 L 189.683,149.206 L 189.833,149.265 L 189.983,149.323 L 190.133,149.382 L 190.282,149.442 L 190.432,149.502 L 190.581,149.562 L 190.730,149.623 L 190.879,149.684 L 191.027,149.746 L 191.176,149.809 L 191.324,149.871 L 191.471,149.935 L 191.619,149.998 L 191.767,150.063 L 191.914,150.128 L 192.061,150.193 L 192.207,150.259 L 192.354,150.325 L 192.500,150.392 L 192.646,150.459 L 192.792,150.527 L 192.937,150.595 L 193.083,150.664 L 193.228,150.734 L 193.372,150.804 L 193.517,150.874 L 193.661,150.945 L 193.805,151.017 L 193.805,151.017 L 193.816,151.023 L 193.826,151.029 L 193.836,151.036 L 193.845,151.043 L 193.854,151.051 L 193.861,151.058 L 193.869,151.067 L 193.875,151.075 L 193.881,151.084 L 193.887,151.094 L 193.892,151.103 L 193.896,151.113 L 193.900,151.124 L 193.903,151.134 L 193.906,151.145 L 193.908,151.157 L 193.910,151.168 L 193.912,151.180 L 193.913,151.192 L 193.913,151.204 L 193.913,151.217 L 193.913,151.230 L 193.913,151.243 L 193.912,151.256 L 193.910,151.270 L 193.909,151.283 L 193.907,151.297 L 193.904,151.312 L 193.902,151.326 L 193.899,151.340 L 193.896,151.355 L 193.892,151.370 L 193.888,151.385 L 193.885,151.400 L 193.880,151.415 L 193.876,151.431 L 193.872,151.446 L 193.867,151.462 L 193.862,151.477 L 193.857,151.493 L 193.852,151.509 L 193.847,151.525 L 193.841,151.541 L 193.836,151.557 L 193.830,151.573 L 193.825,151.589 L 193.819,151.606 L 193.814,151.622 L 193.808,151.638 L 193.802,151.654 L 193.797,151.671 L 193.791,151.687 L 193.785,151.703 L 193.780,151.719 L 193.774,151.735 L 193.769,151.751 L 193.763,151.767 L 193.758,151.783 L 193.753,151.799 L 193.748,151.815 L 193.743,151.831 L 193.739,151.846 L 193.734,151.862 L 193.730,151.877 L 193.726,151.892 L 193.722,151.907 L 193.718,151.922 L 193.715,151.937 L 193.711,151.952 L 193.709,151.966 L 193.706,151.981 L 193.704,151.995 L 193.702,152.009 L 193.700,152.023 L 193.699,152.036 L 193.698,152.049 L 193.697,152.063 L 193.697,152.075 L 193.697,152.088 L 193.698,152.100 L 193.699,152.112 L 193.700,152.124 L 193.702,152.136 L 193.704,152.147 L 193.707,152.158 L 193.710,152.169 L 193.714,152.179 L 193.719,152.189 L 193.724,152.199 L 193.729,152.208 L 193.735,152.217 L 193.742,152.226 L 193.749,152.234 L 193.757,152.242 L 193.765,152.249 L 193.774,152.256 L 193.784,152.263 L 193.794,152.270 L 193.805,152.275 L 193.805,152.275 L 193.838,152.291 L 193.872,152.307 L 193.908,152.322 L 193.944,152.337 L 193.982,152.351 L 194.020,152.365 L 194.060,152.378 L 194.101,152.391 L 194.142,152.404 L 194.185,152.416 L 194.228,152.428 L 194.273,152.440 L 194.318,152.451 L 194.364,152.462 L 194.411,152.472 L 194.459,152.483 L 194.508,152.493 L 194.557,152.502 L 194.607,152.512 L 194.658,152.521 L 194.709,152.530 L 194.761,152.539 L 194.814,152.548 L 194.868,152.556 L 194.922,152.564 L 194.976,152.572 L 195.031,152.580 L 195.087,152.588 L 195.143,152.596 L 195.200,152.603 L 195.257,152.611 L 195.314,152.618 L 195.372,152.625 L 195.430,152.632 L 195.489,152.640 L 195.548,152.647 L 195.607,152.654 L 195.666,152.661 L 195.726,152.668 L 195.786,152.675 L 195.846,152.682 L 195.906,152.689 L 195.967,152.696 L 196.027,152.703 L 196.088,152.710 L 196.149,152.717 L 196.210,152.725 L 196.271,152.732 L 196.331,152.740 L 196.392,152.747 L 196.453,152.755 L 196.514,152.763 L 196.574,152.771 L 196.635,152.780 L 196.695,152.788 L 196.755,152.797 L 196.815,152.806 L 196.875,152.815 L 196.935,152.824 L 196.994,152.834 L 197.053,152.844 L 197.112,152.854 L 197.170,152.864 L 197.228,152.875 L 197.286,152.886 L 197.343,152.897 L 197.400,152.909 L 197.456,152.921 L 197.512,152.934 L 197.567,152.946 L 197.622,152.960 L 197.676,152.973 L 197.729,152.987 L 197.782,153.001 L 197.835,153.016 L 197.887,153.032 L 197.938,153.047 L 197.988,153.063 L 198.038,153.080 L 198.086,153.097 L 198.135,153.115 L 198.182,153.133 L 198.228,153.152 L 198.274,153.171 L 198.319,153.191 L 198.362,153.211 L 198.405,153.232 L 198.447,153.254 L 198.488,153.276 L 198.528,153.299 L 198.567,153.322 L 198.605,153.346 L 198.642,153.371 L 198.678,153.397 L 198.712,153.423 L 198.746,153.449 L 198.778,153.477 L 198.809,153.505 L 198.839,153.534 L 198.839,153.534 L 198.866,153.565 L 198.890,153.601 L 198.912,153.643 L 198.932,153.690 L 198.949,153.743 L 198.964,153.801 L 198.978,153.864 L 198.989,153.932 L 198.998,154.004 L 199.004,154.082 L 199.009,154.164 L 199.012,154.251 L 199.013,154.342 L 199.013,154.437 L 199.010,154.537 L 199.005,154.640 L 198.999,154.748 L 198.991,154.859 L 198.982,154.974 L 198.970,155.093 L 198.957,155.215 L 198.943,155.340 L 198.927,155.469 L 198.910,155.601 L 198.891,155.736 L 198.871,155.874 L 198.849,156.015 L 198.826,156.158 L 198.802,156.304 L 198.777,156.452 L 198.750,156.603 L 198.722,156.756 L 198.693,156.911 L 198.663,157.068 L 198.632,157.227 L 198.600,157.388 L 198.567,157.550 L 198.533,157.714 L 198.499,157.880 L 198.463,158.047 L 198.427,158.215 L 198.389,158.384 L 198.352,158.554 L 198.313,158.725 L 198.274,158.896 L 198.234,159.068 L 198.194,159.241 L 198.153,159.414 L 198.112,159.588 L 198.070,159.762 L 198.028,159.935 L 197.985,160.109 L 197.942,160.283 L 197.899,160.456 L 197.856,160.629 L 197.812,160.801 L 197.769,160.973 L 197.725,161.144 L 197.681,161.314 L 197.637,161.483 L 197.593,161.651 L 197.549,161.818 L 197.506,161.984 L 197.462,162.148 L 197.418,162.311 L 197.375,162.472 L 197.332,162.631 L 197.289,162.789 L 197.247,162.944 L 197.205,163.098 L 197.163,163.249 L 197.122,163.397 L 197.081,163.544 L 197.041,163.688 L 197.001,163.829 L 196.962,163.967 L 196.924,164.103 L 196.886,164.235 L 196.849,164.364 L 196.813,164.490 L 196.777,164.613 L 196.743,164.732 L 196.709,164.848 L 196.676,164.960 L 196.644,165.068 L 196.613,165.172 L 196.584,165.273 L 196.555,165.369 L 196.527,165.461 L 196.501,165.548 L 196.476,165.631 L 196.452,165.709 L 196.429,165.783 L 196.408,165.851 L 196.388,165.915 L 196.369,165.974 L 196.352,166.028 L 196.336,166.076 L 196.322,166.119 L 196.322,166.119 L 196.302,166.175 L 196.278,166.234 L 196.251,166.295 L 196.221,166.358 L 196.187,166.424 L 196.150,166.491 L 196.110,166.561 L 196.066,166.633 L 196.020,166.707 L 195.971,166.783 L 195.919,166.861 L 195.863,166.940 L 195.805,167.022 L 195.745,167.105 L 195.682,167.190 L 195.616,167.277 L 195.547,167.365 L 195.476,167.455 L 195.403,167.546 L 195.327,167.638 L 195.250,167.732 L 195.169,167.828 L 195.087,167.924 L 195.003,168.022 L 194.917,168.121 L 194.828,168.221 L 194.738,168.322 L 194.646,168.425 L 194.553,168.528 L 194.457,168.632 L 194.360,168.737 L 194.261,168.842 L 194.161,168.949 L 194.060,169.056 L 193.957,169.164 L 193.853,169.272 L 193.747,169.381 L 193.641,169.490 L 193.533,169.600 L 193.425,169.710 L 193.315,169.820 L 193.204,169.931 L 193.093,170.042 L 192.981,170.153 L 192.868,170.264 L 192.754,170.375 L 192.640,170.486 L 192.525,170.597 L 192.410,170.708 L 192.295,170.819 L 192.179,170.929 L 192.063,171.040 L 191.947,171.149 L 191.830,171.259 L 191.714,171.368 L 191.597,171.477 L 191.481,171.585 L 191.365,171.692 L 191.249,171.799 L 191.133,171.905 L 191.017,172.011 L 190.902,172.115 L 190.788,172.219 L 190.674,172.322 L 190.560,172.424 L 190.447,172.525 L 190.335,172.624 L 190.224,172.723 L 190.113,172.820 L 190.003,172.917 L 189.895,173.011 L 189.787,173.105 L 189.681,173.197 L 189.575,173.288 L 189.471,173.377 L 189.369,173.465 L 189.267,173.551 L 189.167,173.635 L 189.069,173.718 L 188.972,173.799 L 188.876,173.878 L 188.783,173.955 L 188.691,174.030 L 188.601,174.103 L 188.513,174.175 L 188.426,174.244 L 188.342,174.311 L 188.260,174.376 L 188.180,174.438 L 188.102,174.498 L 188.027,174.556 L 187.954,174.612 L 187.883,174.665 L 187.815,174.715 L 187.749,174.763 L 187.686,174.808 L 187.625,174.851 L 187.568,174.891 L 187.513,174.928 L 187.513,174.928 L 187.480,174.949 L 187.447,174.969 L 187.413,174.989 L 187.377,175.008 L 187.340,175.027 L 187.303,175.046 L 187.264,175.064 L 187.224,175.081 L 187.183,175.099 L 187.142,175.115 L 187.099,175.132 L 187.056,175.148 L 187.011,175.163 L 186.966,175.178 L 186.920,175.193 L 186.873,175.208 L 186.826,175.222 L 186.777,175.236 L 186.728,175.249 L 186.678,175.262 L 186.628,175.275 L 186.576,175.287 L 186.524,175.300 L 186.472,175.312 L 186.419,175.323 L 186.365,175.335 L 186.311,175.346 L 186.256,175.357 L 186.201,175.368 L 186.145,175.379 L 186.089,175.389 L 186.032,175.399 L 185.975,175.409 L 185.918,175.419 L 185.860,175.429 L 185.802,175.438 L 185.744,175.447 L 185.685,175.457 L 185.626,175.466 L 185.567,175.475 L 185.507,175.484 L 185.447,175.493 L 185.388,175.501 L 185.328,175.510 L 185.267,175.519 L 185.207,175.527 L 185.147,175.536 L 185.086,175.544 L 185.026,175.553 L 184.966,175.561 L 184.905,175.570 L 184.845,175.579 L 184.784,175.587 L 184.724,175.596 L 184.664,175.604 L 184.604,175.613 L 184.544,175.622 L 184.484,175.631 L 184.425,175.640 L 184.366,175.649 L 184.307,175.658 L 184.248,175.667 L 184.190,175.676 L 184.131,175.686 L 184.074,175.695 L 184.016,175.705 L 183.959,175.715 L 183.902,175.726 L 183.846,175.736 L 183.791,175.746 L 183.735,175.757 L 183.681,175.768 L 183.626,175.779 L 183.573,175.791 L 183.520,175.803 L 183.467,175.815 L 183.415,175.827 L 183.364,175.839 L 183.313,175.852 L 183.264,175.865 L 183.214,175.879 L 183.166,175.893 L 183.118,175.907 L 183.071,175.921 L 183.025,175.936 L 182.980,175.951 L 182.936,175.967 L 182.892,175.983 L 182.850,175.999 L 182.808,176.016 L 182.767,176.033 L 182.728,176.051 L 182.689,176.069 L 182.651,176.087 L 182.615,176.106 L 182.579,176.125 L 182.544,176.145 L 182.511,176.166 L 182.479,176.186 L 182.479,176.186 L 182.449,176.207 L 182.420,176.227 L 182.390,176.248 L 182.362,176.269 L 182.333,176.291 L 182.305,176.313 L 182.277,176.336 L 182.249,176.358 L 182.222,176.381 L 182.194,176.405 L 182.167,176.429 L 182.141,176.453 L 182.114,176.477 L 182.088,176.502 L 182.062,176.527 L 182.036,176.552 L 182.010,176.577 L 181.985,176.603 L 181.960,176.629 L 181.935,176.655 L 181.910,176.682 L 181.885,176.708 L 181.861,176.735 L 181.836,176.762 L 181.812,176.790 L 181.788,176.817 L 181.764,176.845 L 181.741,176.872 L 181.717,176.900 L 181.693,176.929 L 181.670,176.957 L 181.647,176.985 L 181.623,177.014 L 181.600,177.042 L 181.577,177.071 L 181.554,177.100 L 181.531,177.129 L 181.508,177.157 L 181.486,177.186 L 181.463,177.216 L 181.440,177.245 L 181.418,177.274 L 181.395,177.303 L 181.372,177.332 L 181.350,177.361 L 181.327,177.391 L 181.305,177.420 L 181.282,177.449 L 181.259,177.478 L 181.237,177.507 L 181.214,177.536 L 181.191,177.565 L 181.169,177.594 L 181.146,177.623 L 181.123,177.652 L 181.100,177.681 L 181.077,177.709 L 181.054,177.738 L 181.031,177.766 L 181.008,177.795 L 180.985,177.823 L 180.961,177.851 L 180.938,177.879 L 180.914,177.906 L 180.891,177.934 L 180.867,177.961 L 180.843,177.988 L 180.819,178.015 L 180.794,178.042 L 180.770,178.069 L 180.745,178.095 L 180.720,178.121 L 180.695,178.147 L 180.670,178.172 L 180.645,178.198 L 180.619,178.223 L 180.594,178.248 L 180.568,178.272 L 180.542,178.296 L 180.515,178.320 L 180.489,178.344 L 180.462,178.367 L 180.435,178.390 L 180.407,178.412 L 180.380,178.435 L 180.352,178.456 L 180.324,178.478 L 180.295,178.499 L 180.266,178.520 L 180.237,178.540 L 180.208,178.560 L 180.178,178.579 L 180.149,178.598 L 180.118,178.617 L 180.088,178.635 L 180.057,178.653 L 180.025,178.670 L 179.994,178.687 L 179.962,178.703 L 179.962,178.703 L 179.878,178.744 L 179.792,178.781 L 179.705,178.815 L 179.617,178.847 L 179.528,178.876 L 179.437,178.903 L 179.345,178.927 L 179.252,178.949 L 179.157,178.968 L 179.062,178.985 L 178.965,178.999 L 178.867,179.012 L 178.768,179.022 L 178.669,179.031 L 178.568,179.037 L 178.466,179.042 L 178.363,179.044 L 178.260,179.045 L 178.155,179.045 L 178.050,179.043 L 177.944,179.039 L 177.837,179.034 L 177.730,179.027 L 177.622,179.019 L 177.513,179.010 L 177.403,179.000 L 177.293,178.988 L 177.183,178.976 L 177.071,178.963 L 176.960,178.949 L 176.847,178.934 L 176.735,178.918 L 176.622,178.902 L 176.509,178.885 L 176.395,178.867 L 176.281,178.849 L 176.167,178.831 L 176.052,178.813 L 175.937,178.794 L 175.822,178.775 L 175.707,178.756 L 175.592,178.737 L 175.477,178.718 L 175.362,178.699 L 175.246,178.680 L 175.131,178.662 L 175.016,178.644 L 174.901,178.626 L 174.786,178.609 L 174.671,178.593 L 174.556,178.577 L 174.441,178.561 L 174.327,178.547 L 174.213,178.533 L 174.100,178.521 L 173.986,178.509 L 173.873,178.498 L 173.761,178.489 L 173.649,178.481 L 173.537,178.474 L 173.426,178.468 L 173.315,178.464 L 173.205,178.461 L 173.096,178.460 L 172.987,178.460 L 172.879,178.463 L 172.771,178.467 L 172.665,178.472 L 172.559,178.480 L 172.453,178.490 L 172.349,178.502 L 172.246,178.516 L 172.143,178.532 L 172.041,178.550 L 171.941,178.571 L 171.841,178.594 L 171.742,178.620 L 171.644,178.648 L 171.548,178.679 L 171.452,178.713 L 171.358,178.749 L 171.265,178.788 L 171.173,178.830 L 171.082,178.876 L 170.993,178.924 L 170.905,178.975 L 170.818,179.030 L 170.733,179.088 L 170.649,179.149 L 170.566,179.214 L 170.485,179.282 L 170.406,179.354 L 170.328,179.429 L 170.252,179.508 L 170.177,179.591 L 170.104,179.678 L 170.032,179.768 L 169.962,179.863 L 169.894,179.962 L 169.894,179.962 L 169.865,180.006 L 169.838,180.050 L 169.811,180.094 L 169.785,180.139 L 169.759,180.184 L 169.735,180.230 L 169.711,180.276 L 169.688,180.322 L 169.666,180.369 L 169.644,180.415 L 169.624,180.463 L 169.604,180.510 L 169.584,180.558 L 169.565,180.606 L 169.547,180.654 L 169.530,180.703 L 169.513,180.751 L 169.497,180.801 L 169.481,180.850 L 169.466,180.899 L 169.451,180.949 L 169.437,180.999 L 169.424,181.050 L 169.411,181.100 L 169.398,181.151 L 169.386,181.202 L 169.375,181.253 L 169.363,181.304 L 169.353,181.355 L 169.342,181.407 L 169.332,181.459 L 169.323,181.511 L 169.313,181.563 L 169.304,181.615 L 169.296,181.667 L 169.287,181.720 L 169.279,181.773 L 169.271,181.825 L 169.264,181.878 L 169.256,181.931 L 169.249,181.984 L 169.242,182.037 L 169.236,182.091 L 169.229,182.144 L 169.223,182.197 L 169.216,182.251 L 169.210,182.304 L 169.204,182.358 L 169.198,182.412 L 169.192,182.465 L 169.186,182.519 L 169.180,182.573 L 169.175,182.626 L 169.169,182.680 L 169.163,182.734 L 169.157,182.787 L 169.151,182.841 L 169.145,182.895 L 169.139,182.949 L 169.133,183.002 L 169.126,183.056 L 169.120,183.109 L 169.113,183.163 L 169.107,183.216 L 169.100,183.270 L 169.092,183.323 L 169.085,183.376 L 169.077,183.429 L 169.070,183.482 L 169.061,183.535 L 169.053,183.588 L 169.044,183.641 L 169.035,183.693 L 169.026,183.746 L 169.016,183.798 L 169.006,183.850 L 168.996,183.902 L 168.985,183.954 L 168.974,184.006 L 168.962,184.058 L 168.950,184.109 L 168.937,184.160 L 168.924,184.211 L 168.911,184.262 L 168.896,184.313 L 168.882,184.363 L 168.867,184.413 L 168.851,184.463 L 168.835,184.513 L 168.818,184.562 L 168.800,184.612 L 168.782,184.660 L 168.763,184.709 L 168.744,184.758 L 168.723,184.806 L 168.703,184.854 L 168.681,184.901 L 168.659,184.949 L 168.636,184.996 Z" fill="#ffff00" stroke="#000000" stroke-width="1.2" stroke-opacity="1" fill-opacity="0.98113215" /></g><g id="path230"><path d="M 173.669,158.568 L 173.307,165.710 L 172.222,172.781 L 170.427,179.711 L 167.938,186.431 L 164.781,192.874 L 160.986,198.976 L 156.593,204.677 L 151.643,209.919 L 146.187,214.651 L 140.279,218.825 L 133.977,222.401 L 127.345,225.342 L 120.447,227.620 L 113.353,229.211 L 106.133,230.100 L 98.858,230.279 L 91.602,229.744 L 84.436,228.502 L 77.431,226.565 L 70.657,223.953 L 64.182,220.690 L 58.070,216.811 L 52.381,212.352 L 47.171,207.359 L 42.494,201.881 L 38.395,195.972 L 34.915,189.692 L 32.088,183.102 L 29.944,176.268 L 28.502,169.259 L 27.777,162.143 L 27.777,154.992 L 28.502,147.877 L 29.944,140.867 L 32.088,134.034 L 34.915,127.444 L 38.395,121.164 L 42.494,115.255 L 47.171,109.777 L 52.381,104.784 L 58.070,100.325 L 64.182,96.445 L 70.657,93.183 L 77.431,90.570 L 84.436,88.633 L 91.602,87.391 L 98.858,86.857 L 106.133,87.035 L 113.353,87.925 L 120.447,89.516 L 127.345,91.793 L 133.977,94.735 L 140.279,98.310 L 146.187,102.485 L 151.643,107.216 L 156.593,112.459 L 160.986,118.159 L 164.781,124.261 L 167.938,130.704 L 170.427,137.424 L 172.222,144.354 L 173.307,151.425 L 173.669,158.568 Z" fill="#ffff00" stroke="#000000" stroke-width="1.2" stroke-opacity="1" /></g><g id="path393"><path d="M 95.644,157.309 L 95.553,159.565 L 95.282,161.798 L 94.833,163.986 L 94.211,166.108 L 93.422,168.143 L 92.473,170.070 L 91.375,171.870 L 90.138,173.526 L 88.774,175.020 L 87.297,176.338 L 85.721,177.467 L 84.063,178.396 L 82.338,179.115 L 80.565,179.618 L 78.760,179.899 L 76.941,179.955 L 75.127,179.786 L 73.336,179.394 L 71.584,178.782 L 69.891,177.957 L 68.272,176.927 L 66.744,175.702 L 65.322,174.294 L 64.020,172.717 L 62.850,170.987 L 61.825,169.121 L 60.955,167.138 L 60.249,165.057 L 59.713,162.899 L 59.352,160.686 L 59.171,158.438 L 59.171,156.180 L 59.352,153.933 L 59.713,151.720 L 60.249,149.562 L 60.955,147.481 L 61.825,145.497 L 62.850,143.632 L 64.020,141.902 L 65.322,140.325 L 66.744,138.917 L 68.272,137.692 L 69.891,136.661 L 71.584,135.836 L 73.336,135.225 L 75.127,134.833 L 76.941,134.664 L 78.760,134.720 L 80.565,135.001 L 82.338,135.503 L 84.063,136.223 L 85.721,137.151 L 87.297,138.281 L 88.774,139.599 L 90.138,141.093 L 91.375,142.749 L 92.473,144.549 L 93.422,146.476 L 94.211,148.510 L 94.833,150.632 L 95.282,152.821 L 95.553,155.054 L 95.644,157.309 Z" fill="#ffffff" stroke="#000000" stroke-width="1.2" stroke-opacity="1" /></g><g id="path1267"><path d="M 89.352,168.006 L 89.305,168.946 L 89.165,169.877 L 88.932,170.788 L 88.611,171.673 L 88.202,172.520 L 87.712,173.323 L 87.143,174.073 L 86.503,174.763 L 85.798,175.386 L 85.034,175.935 L 84.219,176.405 L 83.361,176.792 L 82.469,177.092 L 81.552,177.302 L 80.618,177.419 L 79.678,177.442 L 78.740,177.372 L 77.813,177.208 L 76.907,176.953 L 76.031,176.610 L 75.194,176.180 L 74.403,175.670 L 73.668,175.083 L 72.994,174.426 L 72.389,173.705 L 71.859,172.928 L 71.409,172.102 L 71.044,171.235 L 70.766,170.335 L 70.580,169.413 L 70.486,168.477 L 70.486,167.536 L 70.580,166.600 L 70.766,165.677 L 71.044,164.778 L 71.409,163.911 L 71.859,163.085 L 72.389,162.307 L 72.994,161.587 L 73.668,160.930 L 74.403,160.343 L 75.194,159.832 L 76.031,159.403 L 76.907,159.059 L 77.813,158.804 L 78.740,158.641 L 79.678,158.571 L 80.618,158.594 L 81.552,158.711 L 82.469,158.921 L 83.361,159.220 L 84.219,159.607 L 85.034,160.078 L 85.798,160.627 L 86.503,161.250 L 87.143,161.939 L 87.712,162.689 L 88.202,163.492 L 88.611,164.340 L 88.932,165.224 L 89.165,166.136 L 89.305,167.067 L 89.352,168.006 Z" fill="#2b0000" stroke="#000000" stroke-width="1.2" stroke-opacity="1" /></g><g id="path397"><path d="M 145.983,154.792 L 145.899,157.173 L 145.646,159.530 L 145.228,161.840 L 144.649,164.080 L 143.914,166.228 L 143.031,168.262 L 142.008,170.162 L 140.856,171.909 L 139.586,173.487 L 138.211,174.878 L 136.744,176.070 L 135.201,177.051 L 133.595,177.810 L 131.944,178.340 L 130.263,178.637 L 128.570,178.696 L 126.881,178.518 L 125.213,178.104 L 123.583,177.458 L 122.006,176.587 L 120.499,175.500 L 119.076,174.207 L 117.752,172.720 L 116.540,171.056 L 115.451,169.230 L 114.497,167.260 L 113.687,165.167 L 113.029,162.970 L 112.530,160.693 L 112.194,158.356 L 112.025,155.984 L 112.025,153.601 L 112.194,151.229 L 112.530,148.892 L 113.029,146.614 L 113.687,144.418 L 114.497,142.324 L 115.451,140.355 L 116.540,138.529 L 117.752,136.864 L 119.076,135.378 L 120.499,134.085 L 122.006,132.997 L 123.583,132.126 L 125.213,131.481 L 126.881,131.067 L 128.570,130.889 L 130.263,130.948 L 131.944,131.245 L 133.595,131.775 L 135.201,132.534 L 136.744,133.515 L 138.211,134.706 L 139.586,136.098 L 140.856,137.675 L 142.008,139.423 L 143.031,141.323 L 143.914,143.357 L 144.649,145.504 L 145.228,147.744 L 145.646,150.054 L 145.899,152.412 L 145.983,154.792 Z" fill="#ffffff" stroke="#000000" stroke-width="1.2" stroke-opacity="1" /></g><g id="path1265"><path d="M 138.432,166.119 L 138.388,166.996 L 138.258,167.864 L 138.041,168.715 L 137.740,169.540 L 137.359,170.332 L 136.901,171.081 L 136.371,171.781 L 135.774,172.425 L 135.115,173.006 L 134.402,173.519 L 133.642,173.958 L 132.841,174.319 L 132.009,174.599 L 131.153,174.794 L 130.281,174.903 L 129.403,174.925 L 128.527,174.860 L 127.663,174.707 L 126.817,174.469 L 126.000,174.148 L 125.218,173.748 L 124.480,173.271 L 123.794,172.724 L 123.165,172.111 L 122.601,171.438 L 122.106,170.712 L 121.686,169.941 L 121.345,169.132 L 121.086,168.292 L 120.912,167.432 L 120.825,166.558 L 120.825,165.680 L 120.912,164.806 L 121.086,163.945 L 121.345,163.106 L 121.686,162.296 L 122.106,161.525 L 122.601,160.800 L 123.165,160.127 L 123.794,159.514 L 124.480,158.966 L 125.218,158.490 L 126.000,158.089 L 126.817,157.768 L 127.663,157.530 L 128.527,157.378 L 129.403,157.312 L 130.281,157.334 L 131.153,157.443 L 132.009,157.639 L 132.841,157.918 L 133.642,158.279 L 134.402,158.719 L 135.115,159.231 L 135.774,159.812 L 136.371,160.456 L 136.901,161.156 L 137.359,161.906 L 137.740,162.697 L 138.041,163.522 L 138.258,164.373 L 138.388,165.242 L 138.432,166.119 Z" fill="#2b0000" stroke="#000000" stroke-width="1.2" stroke-opacity="1" /></g><g id="path1439"><path d="M 101.936,176.186 L 101.936,176.186 L 101.936,176.186 L 101.936,176.186 L 101.936,176.186 L 101.936,176.186 L 101.936,176.186 L 101.936,176.186 L 101.936,176.186 L 101.936,176.186 L 101.936,176.186 L 101.936,176.186 L 101.936,176.186 L 101.936,176.186 L 101.936,176.186 L 101.936,176.186 L 101.936,176.186 L 101.936,176.186 L 101.936,176.186 L 101.936,176.186 L 101.936,176.186 L 101.936,176.186 L 101.936,176.186 L 101.936,176.186 L 101.936,176.186 L 101.936,176.186 L 101.936,176.186 L 101.936,176.186 L 101.936,176.186 L 101.936,176.186 L 101.936,176.186 L 101.936,176.186 L 101.936,176.186 L 101.936,176.186 L 101.936,176.186 L 101.936,176.186 L 101.936,176.186 L 101.936,176.186 L 101.936,176.186 L 101.936,176.186 L 101.936,176.186 L 101.936,176.186 L 101.936,176.186 L 101.936,176.186 L 101.936,176.186 L 101.936,176.186 L 101.936,176.186 L 101.936,176.186 L 101.936,176.186 L 101.936,176.186 L 101.936,176.186 L 101.936,176.186 L 101.936,176.186 L 101.936,176.186 L 101.936,176.186 L 101.936,176.186 L 101.936,176.186 L 101.936,176.186 L 101.936,176.186 L 101.936,176.186 L 101.936,176.186 L 101.936,176.186 L 101.936,176.186 L 101.936,176.186 L 101.936,176.186 L 101.936,176.186 L 101.936,176.186 L 101.936,176.186 L 101.936,176.186 L 101.936,176.186 L 101.936,176.186 L 101.936,176.186 L 101.936,176.186 L 101.936,176.186 L 101.936,176.186 L 101.936,176.186 L 101.936,176.186 L 101.936,176.186 L 101.936,176.186 L 101.936,176.186 L 101.936,176.186 L 101.936,176.186 L 101.936,176.186 L 101.936,176.186 L 101.936,176.186 L 101.936,176.186 L 101.936,176.186 L 101.936,176.186 L 101.936,176.186 L 101.936,176.186 L 101.936,176.186 L 101.936,176.186 L 101.936,176.186 L 101.936,176.186 L 101.936,176.186 L 101.936,176.186 L 101.936,176.186 L 101.936,176.186 L 101.936,176.186 L 101.936,176.186 L 101.936,176.186 L 101.828,176.243 L 101.716,176.302 L 101.602,176.363 L 101.486,176.426 L 101.368,176.491 L 101.247,176.557 L 101.125,176.626 L 101.000,176.696 L 100.873,176.768 L 100.744,176.842 L 100.613,176.917 L 100.480,176.994 L 100.346,177.072 L 100.209,177.152 L 100.071,177.234 L 99.932,177.317 L 99.790,177.402 L 99.648,177.488 L 99.503,177.576 L 99.357,177.665 L 99.210,177.755 L 99.062,177.847 L 98.912,177.939 L 98.761,178.034 L 98.609,178.129 L 98.455,178.225 L 98.301,178.323 L 98.146,178.422 L 97.990,178.522 L 97.833,178.623 L 97.675,178.725 L 97.516,178.828 L 97.357,178.932 L 97.197,179.037 L 97.036,179.142 L 96.875,179.249 L 96.713,179.356 L 96.551,179.465 L 96.389,179.574 L 96.226,179.683 L 96.063,179.794 L 95.900,179.905 L 95.737,180.016 L 95.573,180.129 L 95.410,180.241 L 95.246,180.355 L 95.083,180.469 L 94.920,180.583 L 94.757,180.698 L 94.594,180.813 L 94.431,180.928 L 94.269,181.044 L 94.108,181.160 L 93.946,181.277 L 93.786,181.393 L 93.626,181.510 L 93.466,181.627 L 93.307,181.744 L 93.149,181.862 L 92.992,181.979 L 92.836,182.096 L 92.680,182.214 L 92.526,182.331 L 92.373,182.448 L 92.220,182.565 L 92.069,182.682 L 91.919,182.799 L 91.771,182.916 L 91.623,183.032 L 91.477,183.148 L 91.333,183.264 L 91.190,183.380 L 91.048,183.495 L 90.908,183.609 L 90.770,183.724 L 90.633,183.838 L 90.498,183.951 L 90.365,184.064 L 90.234,184.176 L 90.105,184.288 L 89.978,184.399 L 89.853,184.509 L 89.730,184.619 L 89.609,184.728 L 89.490,184.837 L 89.374,184.944 L 89.260,185.051 L 89.148,185.156 L 89.039,185.261 L 88.932,185.365 L 88.828,185.468 L 88.726,185.570 L 88.628,185.671 L 88.531,185.771 L 88.438,185.870 L 88.347,185.968 L 88.260,186.065 L 88.175,186.160 L 88.093,186.254 L 88.093,186.254 L 88.034,186.324 L 87.974,186.394 L 87.914,186.463 L 87.854,186.533 L 87.794,186.603 L 87.734,186.673 L 87.674,186.743 L 87.614,186.813 L 87.554,186.883 L 87.494,186.953 L 87.434,187.024 L 87.373,187.094 L 87.313,187.164 L 87.253,187.235 L 87.193,187.306 L 87.133,187.376 L 87.073,187.447 L 87.013,187.518 L 86.953,187.589 L 86.894,187.660 L 86.834,187.731 L 86.774,187.803 L 86.715,187.874 L 86.655,187.946 L 86.596,188.017 L 86.537,188.089 L 86.477,188.161 L 86.418,188.233 L 86.360,188.305 L 86.301,188.377 L 86.242,188.450 L 86.184,188.522 L 86.126,188.595 L 86.068,188.668 L 86.010,188.741 L 85.952,188.814 L 85.895,188.887 L 85.837,188.960 L 85.780,189.034 L 85.724,189.107 L 85.667,189.181 L 85.611,189.255 L 85.555,189.329 L 85.499,189.403 L 85.443,189.478 L 85.388,189.552 L 85.333,189.627 L 85.278,189.702 L 85.224,189.777 L 85.170,189.852 L 85.116,189.928 L 85.062,190.003 L 85.009,190.079 L 84.957,190.155 L 84.904,190.231 L 84.852,190.308 L 84.800,190.384 L 84.749,190.461 L 84.698,190.538 L 84.647,190.615 L 84.597,190.693 L 84.547,190.770 L 84.498,190.848 L 84.449,190.926 L 84.400,191.004 L 84.352,191.082 L 84.304,191.161 L 84.257,191.240 L 84.210,191.319 L 84.164,191.398 L 84.118,191.478 L 84.073,191.557 L 84.028,191.637 L 83.984,191.717 L 83.940,191.798 L 83.896,191.879 L 83.854,191.959 L 83.811,192.041 L 83.769,192.122 L 83.728,192.204 L 83.688,192.286 L 83.647,192.368 L 83.608,192.450 L 83.569,192.533 L 83.531,192.616 L 83.493,192.699 L 83.456,192.782 L 83.419,192.866 L 83.383,192.950 L 83.348,193.034 L 83.313,193.119 L 83.279,193.203 L 83.246,193.289 L 83.213,193.374 L 83.181,193.460 L 83.149,193.546 L 83.119,193.632 L 83.089,193.718 L 83.059,193.805 L 83.059,193.805 L 83.052,193.829 L 83.044,193.853 L 83.037,193.878 L 83.031,193.902 L 83.025,193.927 L 83.020,193.951 L 83.015,193.976 L 83.011,194.001 L 83.007,194.026 L 83.003,194.050 L 83.000,194.075 L 82.997,194.100 L 82.994,194.125 L 82.992,194.151 L 82.991,194.176 L 82.989,194.201 L 82.988,194.226 L 82.988,194.252 L 82.987,194.277 L 82.987,194.303 L 82.988,194.328 L 82.988,194.354 L 82.989,194.380 L 82.990,194.405 L 82.992,194.431 L 82.993,194.457 L 82.995,194.483 L 82.997,194.508 L 82.999,194.534 L 83.002,194.560 L 83.005,194.586 L 83.008,194.612 L 83.011,194.638 L 83.014,194.664 L 83.017,194.690 L 83.021,194.716 L 83.024,194.743 L 83.028,194.769 L 83.032,194.795 L 83.036,194.821 L 83.040,194.847 L 83.044,194.873 L 83.048,194.900 L 83.053,194.926 L 83.057,194.952 L 83.061,194.978 L 83.066,195.004 L 83.070,195.031 L 83.074,195.057 L 83.079,195.083 L 83.083,195.109 L 83.088,195.135 L 83.092,195.162 L 83.096,195.188 L 83.100,195.214 L 83.104,195.240 L 83.108,195.266 L 83.112,195.292 L 83.116,195.318 L 83.120,195.344 L 83.123,195.370 L 83.127,195.396 L 83.130,195.422 L 83.133,195.448 L 83.136,195.474 L 83.139,195.500 L 83.141,195.526 L 83.144,195.552 L 83.146,195.578 L 83.148,195.603 L 83.150,195.629 L 83.151,195.655 L 83.152,195.680 L 83.153,195.706 L 83.154,195.731 L 83.154,195.757 L 83.154,195.782 L 83.154,195.807 L 83.154,195.833 L 83.153,195.858 L 83.152,195.883 L 83.150,195.908 L 83.148,195.933 L 83.146,195.958 L 83.143,195.983 L 83.140,196.007 L 83.137,196.032 L 83.133,196.057 L 83.128,196.081 L 83.124,196.106 L 83.118,196.130 L 83.113,196.154 L 83.107,196.179 L 83.100,196.203 L 83.093,196.227 L 83.085,196.251 L 83.077,196.275 L 83.068,196.298 L 83.059,196.322 L 83.059,196.322 L 83.054,196.333 L 83.046,196.347 L 83.036,196.364 L 83.023,196.383 L 83.008,196.405 L 82.991,196.429 L 82.972,196.455 L 82.950,196.483 L 82.926,196.514 L 82.901,196.547 L 82.873,196.582 L 82.843,196.620 L 82.812,196.659 L 82.778,196.700 L 82.743,196.744 L 82.706,196.789 L 82.668,196.836 L 82.628,196.885 L 82.586,196.936 L 82.543,196.989 L 82.499,197.043 L 82.453,197.099 L 82.406,197.156 L 82.357,197.215 L 82.308,197.276 L 82.257,197.338 L 82.205,197.401 L 82.152,197.466 L 82.098,197.532 L 82.043,197.599 L 81.988,197.668 L 81.931,197.737 L 81.874,197.808 L 81.816,197.880 L 81.758,197.953 L 81.699,198.027 L 81.639,198.102 L 81.579,198.178 L 81.519,198.254 L 81.458,198.332 L 81.397,198.410 L 81.335,198.489 L 81.274,198.568 L 81.212,198.648 L 81.151,198.729 L 81.089,198.810 L 81.027,198.892 L 80.966,198.974 L 80.904,199.057 L 80.843,199.139 L 80.782,199.222 L 80.722,199.306 L 80.661,199.389 L 80.602,199.473 L 80.542,199.557 L 80.484,199.640 L 80.425,199.724 L 80.368,199.808 L 80.311,199.891 L 80.255,199.975 L 80.200,200.058 L 80.146,200.141 L 80.093,200.224 L 80.041,200.306 L 79.989,200.388 L 79.939,200.470 L 79.890,200.551 L 79.843,200.632 L 79.796,200.712 L 79.751,200.791 L 79.708,200.870 L 79.665,200.948 L 79.625,201.025 L 79.586,201.102 L 79.548,201.177 L 79.512,201.252 L 79.478,201.326 L 79.446,201.399 L 79.416,201.470 L 79.387,201.541 L 79.361,201.611 L 79.336,201.679 L 79.314,201.746 L 79.294,201.812 L 79.275,201.876 L 79.260,201.940 L 79.246,202.001 L 79.235,202.062 L 79.226,202.120 L 79.220,202.177 L 79.216,202.233 L 79.215,202.287 L 79.216,202.339 L 79.221,202.390 L 79.227,202.438 L 79.237,202.485 L 79.250,202.530 L 79.265,202.573 L 79.284,202.614 L 79.284,202.614 L 79.329,202.700 L 79.378,202.782 L 79.430,202.861 L 79.486,202.937 L 79.546,203.010 L 79.609,203.081 L 79.675,203.149 L 79.744,203.213 L 79.817,203.276 L 79.892,203.335 L 79.971,203.392 L 80.053,203.446 L 80.137,203.498 L 80.224,203.548 L 80.315,203.595 L 80.407,203.639 L 80.503,203.681 L 80.601,203.721 L 80.701,203.759 L 80.804,203.795 L 80.909,203.828 L 81.016,203.859 L 81.126,203.889 L 81.238,203.916 L 81.351,203.941 L 81.467,203.965 L 81.585,203.987 L 81.704,204.007 L 81.826,204.025 L 81.949,204.041 L 82.074,204.056 L 82.200,204.069 L 82.328,204.081 L 82.457,204.091 L 82.587,204.100 L 82.719,204.107 L 82.852,204.113 L 82.986,204.118 L 83.122,204.121 L 83.258,204.124 L 83.395,204.125 L 83.534,204.125 L 83.673,204.124 L 83.812,204.122 L 83.953,204.118 L 84.094,204.115 L 84.235,204.110 L 84.377,204.104 L 84.520,204.098 L 84.662,204.090 L 84.805,204.083 L 84.949,204.074 L 85.092,204.065 L 85.235,204.056 L 85.379,204.046 L 85.522,204.035 L 85.665,204.025 L 85.808,204.013 L 85.950,204.002 L 86.092,203.990 L 86.234,203.979 L 86.375,203.967 L 86.516,203.955 L 86.656,203.942 L 86.795,203.930 L 86.934,203.918 L 87.071,203.906 L 87.208,203.895 L 87.344,203.883 L 87.478,203.872 L 87.612,203.861 L 87.744,203.850 L 87.875,203.840 L 88.005,203.830 L 88.133,203.821 L 88.260,203.812 L 88.386,203.804 L 88.509,203.796 L 88.631,203.790 L 88.751,203.783 L 88.870,203.778 L 88.986,203.774 L 89.101,203.770 L 89.213,203.767 L 89.324,203.766 L 89.432,203.765 L 89.538,203.766 L 89.642,203.767 L 89.743,203.770 L 89.842,203.774 L 89.938,203.779 L 90.032,203.786 L 90.123,203.794 L 90.212,203.803 L 90.297,203.814 L 90.380,203.826 L 90.460,203.840 L 90.536,203.856 L 90.610,203.873 L 90.610,203.873 L 90.627,203.877 L 90.644,203.883 L 90.661,203.888 L 90.678,203.894 L 90.694,203.900 L 90.710,203.907 L 90.726,203.915 L 90.741,203.922 L 90.757,203.930 L 90.772,203.939 L 90.786,203.948 L 90.801,203.957 L 90.815,203.967 L 90.830,203.977 L 90.844,203.987 L 90.857,203.998 L 90.871,204.009 L 90.884,204.020 L 90.898,204.031 L 90.911,204.043 L 90.924,204.056 L 90.936,204.068 L 90.949,204.081 L 90.961,204.094 L 90.974,204.107 L 90.986,204.121 L 90.998,204.134 L 91.010,204.148 L 91.021,204.163 L 91.033,204.177 L 91.044,204.192 L 91.056,204.206 L 91.067,204.221 L 91.078,204.237 L 91.090,204.252 L 91.101,204.267 L 91.112,204.283 L 91.122,204.299 L 91.133,204.314 L 91.144,204.330 L 91.155,204.346 L 91.165,204.363 L 91.176,204.379 L 91.187,204.395 L 91.197,204.411 L 91.208,204.428 L 91.218,204.444 L 91.229,204.461 L 91.239,204.477 L 91.249,204.494 L 91.260,204.511 L 91.270,204.527 L 91.281,204.544 L 91.291,204.560 L 91.302,204.577 L 91.312,204.593 L 91.323,204.610 L 91.333,204.626 L 91.344,204.642 L 91.355,204.658 L 91.365,204.675 L 91.376,204.691 L 91.387,204.707 L 91.398,204.722 L 91.409,204.738 L 91.420,204.754 L 91.431,204.769 L 91.443,204.784 L 91.454,204.799 L 91.465,204.814 L 91.477,204.829 L 91.489,204.844 L 91.501,204.858 L 91.512,204.872 L 91.525,204.886 L 91.537,204.900 L 91.549,204.913 L 91.562,204.927 L 91.574,204.940 L 91.587,204.952 L 91.600,204.965 L 91.613,204.977 L 91.627,204.989 L 91.640,205.000 L 91.654,205.012 L 91.668,205.023 L 91.682,205.033 L 91.696,205.044 L 91.711,205.053 L 91.725,205.063 L 91.740,205.072 L 91.756,205.081 L 91.771,205.089 L 91.787,205.097 L 91.803,205.105 L 91.819,205.112 L 91.835,205.119 L 91.852,205.125 L 91.869,205.131 L 91.869,205.131 L 91.919,205.147 L 91.973,205.163 L 92.031,205.179 L 92.093,205.194 L 92.159,205.210 L 92.228,205.225 L 92.301,205.240 L 92.377,205.254 L 92.456,205.269 L 92.539,205.283 L 92.625,205.297 L 92.714,205.311 L 92.807,205.325 L 92.902,205.338 L 93.000,205.351 L 93.101,205.364 L 93.204,205.377 L 93.310,205.389 L 93.419,205.401 L 93.530,205.413 L 93.644,205.425 L 93.760,205.436 L 93.878,205.447 L 93.998,205.458 L 94.121,205.469 L 94.245,205.479 L 94.372,205.489 L 94.500,205.498 L 94.629,205.508 L 94.761,205.517 L 94.894,205.526 L 95.029,205.534 L 95.165,205.542 L 95.302,205.550 L 95.441,205.557 L 95.580,205.564 L 95.721,205.571 L 95.863,205.578 L 96.006,205.584 L 96.149,205.589 L 96.294,205.595 L 96.439,205.600 L 96.585,205.604 L 96.731,205.609 L 96.877,205.613 L 97.024,205.616 L 97.172,205.619 L 97.319,205.622 L 97.467,205.624 L 97.614,205.626 L 97.762,205.628 L 97.909,205.629 L 98.057,205.629 L 98.204,205.630 L 98.350,205.630 L 98.496,205.629 L 98.642,205.628 L 98.787,205.627 L 98.931,205.625 L 99.075,205.622 L 99.217,205.619 L 99.359,205.616 L 99.500,205.613 L 99.639,205.608 L 99.777,205.604 L 99.915,205.599 L 100.050,205.593 L 100.185,205.587 L 100.317,205.580 L 100.449,205.573 L 100.578,205.566 L 100.706,205.558 L 100.832,205.549 L 100.956,205.540 L 101.078,205.530 L 101.198,205.520 L 101.316,205.509 L 101.431,205.498 L 101.544,205.486 L 101.655,205.474 L 101.764,205.461 L 101.869,205.448 L 101.972,205.434 L 102.073,205.419 L 102.170,205.404 L 102.265,205.389 L 102.357,205.373 L 102.445,205.356 L 102.531,205.338 L 102.613,205.320 L 102.692,205.302 L 102.767,205.283 L 102.840,205.263 L 102.908,205.243 L 102.973,205.222 L 103.034,205.200 L 103.092,205.178 L 103.145,205.155 L 103.195,205.131 L 103.195,205.131 L 103.227,205.115 L 103.259,205.098 L 103.290,205.081 L 103.321,205.063 L 103.351,205.045 L 103.382,205.026 L 103.412,205.007 L 103.441,204.988 L 103.470,204.968 L 103.499,204.948 L 103.528,204.927 L 103.557,204.906 L 103.585,204.884 L 103.613,204.863 L 103.640,204.840 L 103.668,204.818 L 103.695,204.795 L 103.722,204.772 L 103.748,204.748 L 103.775,204.724 L 103.801,204.700 L 103.827,204.676 L 103.853,204.651 L 103.878,204.626 L 103.903,204.600 L 103.929,204.575 L 103.953,204.549 L 103.978,204.523 L 104.003,204.497 L 104.027,204.470 L 104.052,204.443 L 104.076,204.416 L 104.100,204.389 L 104.124,204.362 L 104.147,204.334 L 104.171,204.307 L 104.194,204.279 L 104.218,204.251 L 104.241,204.223 L 104.264,204.194 L 104.287,204.166 L 104.310,204.137 L 104.333,204.109 L 104.356,204.080 L 104.379,204.051 L 104.402,204.022 L 104.425,203.993 L 104.447,203.964 L 104.470,203.935 L 104.492,203.906 L 104.515,203.877 L 104.538,203.848 L 104.560,203.819 L 104.583,203.789 L 104.605,203.760 L 104.628,203.731 L 104.651,203.702 L 104.673,203.673 L 104.696,203.644 L 104.719,203.614 L 104.741,203.585 L 104.764,203.556 L 104.787,203.528 L 104.810,203.499 L 104.833,203.470 L 104.856,203.442 L 104.880,203.413 L 104.903,203.385 L 104.926,203.356 L 104.950,203.328 L 104.974,203.300 L 104.997,203.273 L 105.021,203.245 L 105.045,203.218 L 105.070,203.190 L 105.094,203.163 L 105.118,203.136 L 105.143,203.110 L 105.168,203.083 L 105.193,203.057 L 105.218,203.031 L 105.244,203.005 L 105.269,202.980 L 105.295,202.955 L 105.321,202.930 L 105.347,202.905 L 105.374,202.881 L 105.400,202.857 L 105.427,202.833 L 105.455,202.809 L 105.482,202.786 L 105.510,202.764 L 105.538,202.741 L 105.566,202.719 L 105.595,202.697 L 105.624,202.676 L 105.653,202.655 L 105.682,202.635 L 105.712,202.614 L 105.712,202.614 L 105.799,202.557 L 105.883,202.502 L 105.966,202.449 L 106.047,202.399 L 106.126,202.350 L 106.203,202.303 L 106.278,202.259 L 106.351,202.216 L 106.422,202.176 L 106.492,202.137 L 106.560,202.100 L 106.626,202.064 L 106.690,202.031 L 106.753,201.999 L 106.814,201.969 L 106.873,201.940 L 106.931,201.913 L 106.987,201.887 L 107.042,201.862 L 107.095,201.839 L 107.146,201.818 L 107.196,201.797 L 107.244,201.778 L 107.291,201.760 L 107.336,201.743 L 107.380,201.727 L 107.423,201.712 L 107.464,201.698 L 107.504,201.685 L 107.542,201.673 L 107.579,201.661 L 107.615,201.651 L 107.650,201.641 L 107.683,201.632 L 107.715,201.623 L 107.746,201.615 L 107.776,201.608 L 107.804,201.601 L 107.831,201.594 L 107.858,201.588 L 107.883,201.582 L 107.907,201.576 L 107.930,201.571 L 107.952,201.565 L 107.973,201.560 L 107.993,201.555 L 108.012,201.550 L 108.030,201.545 L 108.047,201.540 L 108.063,201.535 L 108.078,201.529 L 108.093,201.524 L 108.106,201.518 L 108.119,201.512 L 108.131,201.505 L 108.143,201.498 L 108.153,201.490 L 108.163,201.482 L 108.172,201.474 L 108.181,201.465 L 108.189,201.455 L 108.196,201.444 L 108.203,201.433 L 108.209,201.421 L 108.214,201.408 L 108.219,201.394 L 108.223,201.379 L 108.227,201.363 L 108.231,201.346 L 108.234,201.328 L 108.236,201.308 L 108.239,201.288 L 108.240,201.266 L 108.242,201.243 L 108.243,201.219 L 108.244,201.193 L 108.244,201.166 L 108.245,201.137 L 108.245,201.107 L 108.245,201.075 L 108.244,201.041 L 108.244,201.006 L 108.243,200.969 L 108.242,200.930 L 108.241,200.889 L 108.240,200.847 L 108.239,200.802 L 108.238,200.756 L 108.237,200.707 L 108.235,200.656 L 108.234,200.603 L 108.233,200.548 L 108.232,200.491 L 108.231,200.432 L 108.230,200.370 L 108.230,200.305 L 108.229,200.239 L 108.229,200.169 L 108.229,200.097 Z" fill="#2b0000" stroke="#000000" stroke-width="1.2" stroke-opacity="1" fill-opacity="0" /></g><g id="path2136"><path d="M 80.542,218.975 L 80.542,218.975 L 80.542,218.975 L 80.542,218.975 L 80.542,218.975 L 80.542,218.975 L 80.542,218.975 L 80.542,218.975 L 80.542,218.975 L 80.542,218.975 L 80.542,218.975 L 80.542,218.975 L 80.542,218.975 L 80.542,218.975 L 80.542,218.975 L 80.542,218.975 L 80.542,218.975 L 80.542,218.975 L 80.542,218.975 L 80.542,218.975 L 80.542,218.975 L 80.542,218.975 L 80.542,218.975 L 80.542,218.975 L 80.542,218.975 L 80.542,218.975 L 80.542,218.975 L 80.542,218.975 L 80.542,218.975 L 80.542,218.975 L 80.542,218.975 L 80.542,218.975 L 80.542,218.975 L 80.542,218.975 L 80.542,218.975 L 80.542,218.975 L 80.542,218.975 L 80.542,218.975 L 80.542,218.975 L 80.542,218.975 L 80.542,218.975 L 80.542,218.975 L 80.542,218.975 L 80.542,218.975 L 80.542,218.975 L 80.542,218.975 L 80.542,218.975 L 80.542,218.975 L 80.542,218.975 L 80.542,218.975 L 80.542,218.975 L 80.542,218.975 L 80.542,218.975 L 80.542,218.975 L 80.542,218.975 L 80.542,218.975 L 80.542,218.975 L 80.542,218.975 L 80.542,218.975 L 80.542,218.975 L 80.542,218.975 L 80.542,218.975 L 80.542,218.975 L 80.542,218.975 L 80.542,218.975 L 80.542,218.975 L 80.542,218.975 L 80.542,218.975 L 80.542,218.975 L 80.542,218.975 L 80.542,218.975 L 80.542,218.975 L 80.542,218.975 L 80.542,218.975 L 80.542,218.975 L 80.542,218.975 L 80.542,218.975 L 80.542,218.975 L 80.542,218.975 L 80.542,218.975 L 80.542,218.975 L 80.542,218.975 L 80.542,218.975 L 80.542,218.975 L 80.542,218.975 L 80.542,218.975 L 80.542,218.975 L 80.542,218.975 L 80.542,218.975 L 80.542,218.975 L 80.542,218.975 L 80.542,218.975 L 80.542,218.975 L 80.542,218.975 L 80.542,218.975 L 80.542,218.975 L 80.542,218.975 L 80.542,218.975 L 80.542,218.975 L 80.542,218.975 L 80.542,218.975 L 80.839,219.110 L 81.138,219.244 L 81.441,219.376 L 81.746,219.506 L 82.055,219.634 L 82.366,219.760 L 82.680,219.885 L 82.997,220.007 L 83.317,220.128 L 83.639,220.246 L 83.964,220.363 L 84.292,220.478 L 84.622,220.590 L 84.954,220.701 L 85.289,220.810 L 85.626,220.917 L 85.966,221.021 L 86.307,221.124 L 86.651,221.225 L 86.997,221.323 L 87.344,221.420 L 87.694,221.514 L 88.046,221.606 L 88.399,221.697 L 88.754,221.785 L 89.111,221.871 L 89.470,221.954 L 89.830,222.036 L 90.191,222.116 L 90.554,222.193 L 90.919,222.268 L 91.285,222.341 L 91.652,222.411 L 92.020,222.480 L 92.390,222.546 L 92.761,222.610 L 93.133,222.671 L 93.505,222.730 L 93.879,222.787 L 94.254,222.842 L 94.629,222.894 L 95.005,222.944 L 95.382,222.992 L 95.760,223.037 L 96.138,223.080 L 96.516,223.120 L 96.895,223.158 L 97.275,223.194 L 97.655,223.227 L 98.035,223.258 L 98.415,223.286 L 98.796,223.312 L 99.177,223.335 L 99.557,223.356 L 99.938,223.374 L 100.319,223.390 L 100.699,223.403 L 101.079,223.414 L 101.459,223.422 L 101.839,223.427 L 102.219,223.430 L 102.598,223.431 L 102.976,223.428 L 103.354,223.423 L 103.731,223.416 L 104.108,223.405 L 104.484,223.393 L 104.859,223.377 L 105.233,223.359 L 105.607,223.338 L 105.979,223.314 L 106.351,223.287 L 106.721,223.258 L 107.091,223.226 L 107.459,223.191 L 107.825,223.154 L 108.191,223.114 L 108.555,223.070 L 108.918,223.024 L 109.279,222.976 L 109.639,222.924 L 109.997,222.869 L 110.353,222.812 L 110.708,222.752 L 111.060,222.689 L 111.412,222.622 L 111.761,222.553 L 112.108,222.481 L 112.453,222.406 L 112.796,222.328 L 113.137,222.248 L 113.475,222.164 L 113.812,222.077 L 114.146,221.987 L 114.478,221.894 L 114.807,221.798 L 115.134,221.699 L 115.458,221.597 L 115.780,221.492 L 115.780,221.492 L 115.797,221.486 L 115.813,221.479 L 115.830,221.473 L 115.846,221.465 L 115.862,221.458 L 115.877,221.450 L 115.893,221.442 L 115.908,221.433 L 115.923,221.424 L 115.938,221.415 L 115.953,221.405 L 115.967,221.395 L 115.981,221.385 L 115.995,221.374 L 116.009,221.363 L 116.022,221.352 L 116.036,221.340 L 116.049,221.329 L 116.062,221.316 L 116.075,221.304 L 116.088,221.292 L 116.101,221.279 L 116.113,221.266 L 116.125,221.252 L 116.138,221.239 L 116.150,221.225 L 116.162,221.211 L 116.173,221.197 L 116.185,221.183 L 116.197,221.168 L 116.208,221.153 L 116.220,221.139 L 116.231,221.124 L 116.242,221.108 L 116.253,221.093 L 116.264,221.078 L 116.275,221.062 L 116.286,221.047 L 116.297,221.031 L 116.308,221.015 L 116.319,220.999 L 116.329,220.983 L 116.340,220.967 L 116.351,220.951 L 116.361,220.935 L 116.372,220.919 L 116.383,220.903 L 116.393,220.887 L 116.404,220.870 L 116.414,220.854 L 116.425,220.838 L 116.435,220.822 L 116.446,220.806 L 116.456,220.789 L 116.467,220.773 L 116.478,220.757 L 116.488,220.741 L 116.499,220.725 L 116.510,220.709 L 116.521,220.694 L 116.531,220.678 L 116.542,220.662 L 116.553,220.647 L 116.564,220.631 L 116.576,220.616 L 116.587,220.601 L 116.598,220.586 L 116.610,220.571 L 116.621,220.557 L 116.633,220.542 L 116.644,220.528 L 116.656,220.514 L 116.668,220.500 L 116.680,220.486 L 116.692,220.472 L 116.705,220.459 L 116.717,220.446 L 116.730,220.433 L 116.743,220.420 L 116.756,220.408 L 116.769,220.396 L 116.782,220.384 L 116.795,220.373 L 116.809,220.361 L 116.823,220.350 L 116.837,220.340 L 116.851,220.329 L 116.865,220.319 L 116.880,220.310 L 116.895,220.300 L 116.910,220.291 L 116.925,220.283 L 116.940,220.275 L 116.956,220.267 L 116.972,220.259 L 116.988,220.252 L 117.005,220.245 L 117.021,220.239 L 117.038,220.233 L 117.038,220.233 L 117.062,220.225 L 117.087,220.218 L 117.111,220.211 L 117.135,220.205 L 117.160,220.200 L 117.185,220.194 L 117.209,220.190 L 117.234,220.185 L 117.259,220.182 L 117.284,220.178 L 117.309,220.176 L 117.335,220.173 L 117.360,220.171 L 117.385,220.169 L 117.411,220.168 L 117.436,220.167 L 117.462,220.167 L 117.487,220.167 L 117.513,220.167 L 117.539,220.167 L 117.564,220.168 L 117.590,220.169 L 117.616,220.171 L 117.642,220.172 L 117.668,220.174 L 117.694,220.177 L 117.720,220.179 L 117.746,220.182 L 117.773,220.185 L 117.799,220.188 L 117.825,220.191 L 117.851,220.195 L 117.878,220.199 L 117.904,220.202 L 117.930,220.206 L 117.957,220.211 L 117.983,220.215 L 118.010,220.219 L 118.036,220.224 L 118.062,220.228 L 118.089,220.233 L 118.115,220.238 L 118.142,220.243 L 118.168,220.247 L 118.195,220.252 L 118.221,220.257 L 118.248,220.262 L 118.274,220.267 L 118.300,220.272 L 118.327,220.277 L 118.353,220.281 L 118.380,220.286 L 118.406,220.291 L 118.432,220.296 L 118.459,220.300 L 118.485,220.305 L 118.511,220.309 L 118.538,220.313 L 118.564,220.317 L 118.590,220.321 L 118.616,220.325 L 118.642,220.328 L 118.668,220.332 L 118.694,220.335 L 118.720,220.338 L 118.746,220.341 L 118.772,220.343 L 118.798,220.346 L 118.823,220.348 L 118.849,220.350 L 118.874,220.351 L 118.900,220.352 L 118.925,220.353 L 118.951,220.354 L 118.976,220.354 L 119.001,220.354 L 119.027,220.354 L 119.052,220.353 L 119.077,220.352 L 119.101,220.350 L 119.126,220.349 L 119.151,220.346 L 119.176,220.343 L 119.200,220.340 L 119.225,220.337 L 119.249,220.333 L 119.273,220.328 L 119.297,220.323 L 119.321,220.318 L 119.345,220.312 L 119.369,220.305 L 119.393,220.298 L 119.416,220.291 L 119.440,220.282 L 119.463,220.274 L 119.486,220.264 L 119.509,220.255 L 119.532,220.244 L 119.555,220.233 L 119.555,220.233 L 120.007,220.006 L 120.438,219.788 L 120.851,219.578 L 121.244,219.377 L 121.618,219.183 L 121.974,218.997 L 122.311,218.819 L 122.632,218.648 L 122.935,218.485 L 123.221,218.329 L 123.490,218.181 L 123.744,218.039 L 123.982,217.904 L 124.204,217.775 L 124.412,217.653 L 124.605,217.537 L 124.784,217.428 L 124.950,217.325 L 125.102,217.227 L 125.241,217.135 L 125.367,217.049 L 125.482,216.969 L 125.584,216.893 L 125.675,216.823 L 125.755,216.758 L 125.825,216.697 L 125.884,216.642 L 125.933,216.590 L 125.973,216.544 L 126.004,216.501 L 126.026,216.462 L 126.039,216.428 L 126.045,216.397 L 126.044,216.370 L 126.035,216.346 L 126.019,216.326 L 125.997,216.309 L 125.969,216.295 L 125.936,216.284 L 125.897,216.275 L 125.853,216.269 L 125.805,216.266 L 125.753,216.265 L 125.698,216.266 L 125.639,216.269 L 125.577,216.273 L 125.513,216.280 L 125.446,216.288 L 125.378,216.297 L 125.309,216.308 L 125.238,216.320 L 125.167,216.332 L 125.096,216.346 L 125.026,216.360 L 124.955,216.374 L 124.886,216.389 L 124.818,216.404 L 124.752,216.419 L 124.688,216.434 L 124.627,216.448 L 124.569,216.463 L 124.514,216.476 L 124.462,216.489 L 124.415,216.501 L 124.372,216.512 L 124.334,216.522 L 124.302,216.530 L 124.275,216.537 L 124.254,216.543 L 124.240,216.546 L 124.232,216.548 L 124.232,216.548 L 124.239,216.545 L 124.254,216.540 L 124.278,216.532 L 124.310,216.522 L 124.351,216.509 L 124.402,216.493 L 124.463,216.474 L 124.535,216.451 L 124.617,216.425 L 124.710,216.396 L 124.814,216.362 L 124.931,216.325 L 125.059,216.284 L 125.201,216.239 L 125.355,216.189 L 125.523,216.135 L 125.704,216.076 L 125.900,216.012 L 126.110,215.944 L 126.336,215.870 L 126.576,215.791 L 126.833,215.707 L 127.105,215.617 L 127.394,215.521 L 127.700,215.420 L 128.023,215.313 L 128.364,215.199 Z" fill="#2b0000" stroke="#000000" stroke-width="1.2" stroke-opacity="1" fill-opacity="0" /></g></svg>