<?xml version='1.0' encoding='utf-8'?>
<svg xmlns="http://www.w3.org/2000/svg" width="210" height="297" viewBox="0 0 210 297"><g id="path397"><path d="M 177.877,135.016 L 178.567,137.143 L 179.115,139.309 L 179.514,141.491 L 179.762,143.667 L 179.855,145.817 L 179.793,147.918 L 179.577,149.949 L 179.208,151.892 L 178.690,153.725 L 178.028,155.432 L 177.229,156.995 L 176.301,158.398 L 175.253,159.628 L 174.096,160.672 L 172.840,161.520 L 171.499,162.164 L 170.086,162.597 L 168.614,162.814 L 167.099,162.815 L 165.556,162.598 L 163.999,162.166 L 162.444,161.523 L 160.908,160.675 L 159.404,159.632 L 157.948,158.403 L 156.555,157.000 L 155.238,155.438 L 154.011,153.732 L 152.885,151.899 L 151.871,149.957 L 150.981,147.926 L 150.222,145.825 L 149.603,143.676 L 149.128,141.499 L 148.804,139.317 L 148.634,137.152 L 148.618,135.024 L 148.757,132.955 L 149.051,130.965 L 149.495,129.075 L 150.085,127.303 L 150.817,125.666 L 151.681,124.181 L 152.670,122.863 L 153.774,121.725 L 154.982,120.777 L 156.282,120.030 L 157.661,119.492 L 159.105,119.166 L 160.601,119.057 L 162.132,119.165 L 163.684,119.490 L 165.241,120.028 L 166.789,120.774 L 168.311,121.721 L 169.793,122.858 L 171.219,124.176 L 172.576,125.660 L 173.849,127.296 L 175.028,129.068 L 176.099,130.958 L 177.052,132.947 L 177.877,135.016 Z" fill="#ffffff" stroke="#000000" stroke-width="1.2" stroke-opacity="1" /></g><g id="path1265"><path d="M 175.417,147.635 L 175.661,148.423 L 175.833,149.234 L 175.930,150.060 L 175.951,150.892 L 175.897,151.723 L 175.767,152.543 L 175.564,153.345 L 175.289,154.121 L 174.946,154.863 L 174.536,155.564 L 174.065,156.217 L 173.537,156.815 L 172.957,157.352 L 172.332,157.823 L 171.666,158.224 L 170.968,158.549 L 170.244,158.798 L 169.501,158.965 L 168.746,159.051 L 167.987,159.054 L 167.232,158.973 L 166.488,158.811 L 165.762,158.568 L 165.062,158.247 L 164.394,157.852 L 163.766,157.385 L 163.183,156.852 L 162.651,156.258 L 162.176,155.609 L 161.763,154.911 L 161.414,154.171 L 161.135,153.397 L 160.927,152.596 L 160.792,151.777 L 160.733,150.947 L 160.750,150.115 L 160.842,149.288 L 161.008,148.476 L 161.247,147.686 L 161.557,146.926 L 161.934,146.204 L 162.375,145.526 L 162.875,144.900 L 163.430,144.332 L 164.033,143.827 L 164.679,143.390 L 165.362,143.027 L 166.074,142.739 L 166.809,142.531 L 167.559,142.405 L 168.316,142.360 L 169.074,142.399 L 169.825,142.520 L 170.561,142.723 L 171.275,143.005 L 171.960,143.364 L 172.608,143.796 L 173.215,144.296 L 173.773,144.861 L 174.277,145.483 L 174.722,146.157 L 175.103,146.877 L 175.417,147.635 Z" fill="#2b0000" stroke="#000000" stroke-width="1.2" stroke-opacity="1" /></g><g id="path2147"><path d="M 112.895,138.513 L 112.895,138.513 L 112.895,138.513 L 112.895,138.513 L 112.895,138.513 L 112.895,138.513 L 112.895,138.513 L 112.895,138.513 L 112.895,138.513 L 112.895,138.513 L 112.895,138.513 L 112.895,138.513 L 112.895,138.513 L 112.895,138.513 L 112.895,138.513 L 112.895,138.513 L 112.895,138.513 L 112.895,138.513 L 112.895,138.513 L 112.895,138.513 L 112.895,138.513 L 112.895,138.513 L 112.895,138.513 L 112.895,138.513 L 112.895,138.513 L 112.895,138.513 L 112.895,138.513 L 112.895,138.513 L 112.895,138.513 L 112.895,138.513 L 112.895,138.513 L 112.895,138.513 L 112.895,138.513 L 112.895,138.513 L 112.895,138.513 L 112.895,138.513 L 112.895,138.513 L 112.895,138.513 L 112.895,138.513 L 112.895,138.513 L 112.895,138.513 L 112.895,138.513 L 112.895,138.513 L 112.895,138.513 L 112.895,138.513 L 112.895,138.513 L 112.895,138.513 L 112.895,138.513 L 112.895,138.513 L 112.895,138.513 L 112.895,138.513 L 112.895,138.513 L 112.895,138.513 L 112.895,138.513 L 112.895,138.513 L 112.895,138.513 L 112.895,138.513 L 112.895,138.513 L 112.895,138.513 L 112.895,138.513 L 112.895,138.513 L 112.895,138.513 L 112.895,138.513 L 112.895,138.513 L 112.895,138.513 L 112.895,138.513 L 112.895,138.513 L 112.895,138.513 L 112.895,138.513 L 112.895,138.513 L 112.895,138.513 L 112.895,138.513 L 112.895,138.513 L 112.895,138.513 L 112.895,138.513 L 112.895,138.513 L 112.895,138.513 L 112.895,138.513 L 112.895,138.513 L 112.895,138.513 L 112.895,138.513 L 112.895,138.513 L 112.895,138.513 L 112.895,138.513 L 112.895,138.513 L 112.895,138.513 L 112.895,138.513 L 112.895,138.513 L 112.895,138.513 L 112.895,138.513 L 112.895,138.513 L 112.895,138.513 L 112.895,138.513 L 112.895,138.513 L 112.895,138.513 L 112.895,138.513 L 112.895,138.513 L 112.895,138.513 L 112.895,138.513 L 112.895,138.513 L 112.895,138.513 L 112.774,138.526 L 112.653,138.538 L 112.531,138.551 L 112.410,138.563 L 112.289,138.575 L 112.167,138.587 L 112.046,138.599 L 111.924,138.610 L 111.803,138.622 L 111.681,138.633 L 111.560,138.645 L 111.438,138.656 L 111.317,138.667 L 111.195,138.678 L 111.073,138.689 L 110.952,138.700 L 110.830,138.711 L 110.708,138.721 L 110.587,138.732 L 110.465,138.742 L 110.343,138.753 L 110.221,138.763 L 110.099,138.774 L 109.978,138.784 L 109.856,138.795 L 109.734,138.805 L 109.612,138.815 L 109.490,138.825 L 109.369,138.836 L 109.247,138.846 L 109.125,138.856 L 109.003,138.866 L 108.881,138.876 L 108.759,138.887 L 108.637,138.897 L 108.516,138.907 L 108.394,138.917 L 108.272,138.927 L 108.150,138.938 L 108.028,138.948 L 107.906,138.958 L 107.785,138.968 L 107.663,138.979 L 107.541,138.989 L 107.419,139.000 L 107.297,139.010 L 107.176,139.021 L 107.054,139.032 L 106.932,139.042 L 106.811,139.053 L 106.689,139.064 L 106.567,139.075 L 106.446,139.086 L 106.324,139.097 L 106.202,139.108 L 106.081,139.120 L 105.959,139.131 L 105.838,139.143 L 105.716,139.154 L 105.595,139.166 L 105.474,139.178 L 105.352,139.190 L 105.231,139.202 L 105.109,139.214 L 104.988,139.227 L 104.867,139.239 L 104.746,139.252 L 104.625,139.265 L 104.503,139.278 L 104.382,139.291 L 104.261,139.305 L 104.140,139.318 L 104.019,139.332 L 103.899,139.346 L 103.778,139.360 L 103.657,139.374 L 103.536,139.389 L 103.415,139.403 L 103.295,139.418 L 103.174,139.434 L 103.054,139.449 L 102.933,139.464 L 102.813,139.480 L 102.692,139.496 L 102.572,139.512 L 102.452,139.529 L 102.332,139.546 L 102.212,139.563 L 102.091,139.580 L 101.971,139.597 L 101.852,139.615 L 101.732,139.633 L 101.612,139.651 L 101.492,139.670 L 101.373,139.689 L 101.253,139.708 L 101.133,139.727 L 101.014,139.747 L 100.895,139.767 L 100.895,139.767 L 100.681,139.803 L 100.468,139.839 L 100.254,139.876 L 100.041,139.912 L 99.827,139.949 L 99.614,139.986 L 99.401,140.023 L 99.187,140.060 L 98.974,140.098 L 98.760,140.136 L 98.547,140.174 L 98.334,140.212 L 98.120,140.250 L 97.907,140.289 L 97.694,140.328 L 97.481,140.367 L 97.268,140.406 L 97.055,140.446 L 96.842,140.486 L 96.629,140.526 L 96.416,140.566 L 96.203,140.606 L 95.990,140.647 L 95.777,140.688 L 95.565,140.729 L 95.352,140.771 L 95.140,140.813 L 94.928,140.855 L 94.715,140.897 L 94.503,140.940 L 94.291,140.983 L 94.079,141.026 L 93.867,141.069 L 93.656,141.113 L 93.444,141.157 L 93.233,141.202 L 93.021,141.246 L 92.810,141.291 L 92.599,141.337 L 92.388,141.382 L 92.177,141.428 L 91.967,141.475 L 91.756,141.521 L 91.546,141.568 L 91.336,141.616 L 91.126,141.663 L 90.916,141.711 L 90.706,141.760 L 90.496,141.808 L 90.287,141.857 L 90.078,141.907 L 89.869,141.957 L 89.660,142.007 L 89.451,142.057 L 89.243,142.108 L 89.035,142.159 L 88.827,142.211 L 88.619,142.263 L 88.411,142.316 L 88.204,142.368 L 87.997,142.422 L 87.790,142.475 L 87.583,142.529 L 87.376,142.584 L 87.170,142.639 L 86.964,142.694 L 86.758,142.750 L 86.553,142.806 L 86.347,142.863 L 86.142,142.920 L 85.938,142.977 L 85.733,143.035 L 85.529,143.093 L 85.325,143.152 L 85.121,143.211 L 84.917,143.271 L 84.714,143.331 L 84.511,143.392 L 84.309,143.453 L 84.106,143.515 L 83.904,143.577 L 83.703,143.639 L 83.501,143.702 L 83.300,143.766 L 83.099,143.830 L 82.899,143.894 L 82.699,143.959 L 82.499,144.025 L 82.299,144.091 L 82.100,144.158 L 81.901,144.225 L 81.702,144.292 L 81.504,144.360 L 81.306,144.429 L 81.109,144.498 L 80.912,144.568 L 80.715,144.638 L 80.518,144.709 L 80.322,144.780 L 80.322,144.780 L 80.307,144.786 L 80.293,144.792 L 80.280,144.799 L 80.268,144.806 L 80.256,144.814 L 80.245,144.821 L 80.236,144.830 L 80.227,144.838 L 80.219,144.847 L 80.211,144.857 L 80.204,144.866 L 80.198,144.876 L 80.193,144.886 L 80.189,144.897 L 80.185,144.908 L 80.182,144.919 L 80.179,144.931 L 80.177,144.942 L 80.176,144.955 L 80.175,144.967 L 80.175,144.979 L 80.175,144.992 L 80.176,145.005 L 80.177,145.018 L 80.179,145.032 L 80.181,145.046 L 80.184,145.060 L 80.187,145.074 L 80.191,145.088 L 80.195,145.102 L 80.199,145.117 L 80.204,145.132 L 80.209,145.147 L 80.214,145.162 L 80.220,145.177 L 80.225,145.192 L 80.232,145.208 L 80.238,145.223 L 80.245,145.239 L 80.251,145.255 L 80.258,145.270 L 80.265,145.286 L 80.273,145.302 L 80.280,145.318 L 80.288,145.334 L 80.295,145.350 L 80.303,145.366 L 80.311,145.383 L 80.318,145.399 L 80.326,145.415 L 80.334,145.431 L 80.342,145.447 L 80.349,145.463 L 80.357,145.479 L 80.364,145.495 L 80.372,145.511 L 80.379,145.527 L 80.386,145.543 L 80.393,145.559 L 80.400,145.575 L 80.406,145.591 L 80.413,145.606 L 80.419,145.621 L 80.425,145.637 L 80.430,145.652 L 80.436,145.667 L 80.441,145.682 L 80.445,145.697 L 80.450,145.711 L 80.454,145.726 L 80.457,145.740 L 80.460,145.754 L 80.463,145.768 L 80.465,145.782 L 80.467,145.795 L 80.469,145.808 L 80.469,145.822 L 80.470,145.834 L 80.470,145.847 L 80.469,145.859 L 80.467,145.871 L 80.465,145.883 L 80.463,145.895 L 80.460,145.906 L 80.456,145.917 L 80.451,145.927 L 80.446,145.938 L 80.440,145.947 L 80.433,145.957 L 80.426,145.966 L 80.418,145.975 L 80.409,145.984 L 80.399,145.992 L 80.388,146.000 L 80.377,146.008 L 80.365,146.015 L 80.351,146.021 L 80.337,146.028 L 80.322,146.034 L 80.322,146.034 L 80.277,146.049 L 80.231,146.065 L 80.182,146.080 L 80.133,146.095 L 80.082,146.109 L 80.029,146.122 L 79.975,146.136 L 79.920,146.149 L 79.863,146.161 L 79.805,146.174 L 79.746,146.185 L 79.685,146.197 L 79.623,146.208 L 79.561,146.219 L 79.497,146.230 L 79.431,146.240 L 79.365,146.250 L 79.298,146.260 L 79.230,146.269 L 79.161,146.278 L 79.090,146.287 L 79.019,146.296 L 78.947,146.305 L 78.875,146.313 L 78.801,146.321 L 78.727,146.329 L 78.652,146.337 L 78.576,146.345 L 78.500,146.353 L 78.422,146.360 L 78.345,146.367 L 78.266,146.375 L 78.188,146.382 L 78.108,146.389 L 78.029,146.396 L 77.948,146.403 L 77.868,146.410 L 77.787,146.417 L 77.705,146.424 L 77.624,146.431 L 77.542,146.438 L 77.460,146.445 L 77.377,146.452 L 77.295,146.459 L 77.212,146.466 L 77.129,146.474 L 77.046,146.481 L 76.964,146.488 L 76.881,146.496 L 76.798,146.503 L 76.715,146.511 L 76.632,146.519 L 76.550,146.527 L 76.467,146.536 L 76.385,146.544 L 76.303,146.553 L 76.221,146.562 L 76.140,146.571 L 76.059,146.580 L 75.978,146.590 L 75.898,146.599 L 75.818,146.610 L 75.738,146.620 L 75.659,146.631 L 75.581,146.642 L 75.503,146.653 L 75.426,146.665 L 75.349,146.677 L 75.273,146.689 L 75.198,146.702 L 75.123,146.715 L 75.049,146.728 L 74.976,146.742 L 74.904,146.757 L 74.833,146.771 L 74.762,146.787 L 74.693,146.802 L 74.624,146.818 L 74.556,146.835 L 74.490,146.852 L 74.424,146.870 L 74.360,146.888 L 74.297,146.906 L 74.235,146.926 L 74.174,146.945 L 74.114,146.966 L 74.056,146.987 L 73.998,147.008 L 73.943,147.030 L 73.888,147.053 L 73.835,147.076 L 73.783,147.100 L 73.733,147.125 L 73.685,147.150 L 73.637,147.176 L 73.592,147.203 L 73.548,147.230 L 73.505,147.258 L 73.465,147.287 L 73.465,147.287 L 73.428,147.318 L 73.395,147.354 L 73.365,147.395 L 73.338,147.443 L 73.315,147.495 L 73.294,147.553 L 73.276,147.615 L 73.261,147.683 L 73.249,147.756 L 73.239,147.833 L 73.233,147.915 L 73.229,148.001 L 73.227,148.092 L 73.228,148.186 L 73.232,148.286 L 73.238,148.389 L 73.246,148.496 L 73.257,148.607 L 73.270,148.721 L 73.286,148.839 L 73.303,148.961 L 73.323,149.086 L 73.345,149.214 L 73.368,149.346 L 73.394,149.480 L 73.422,149.617 L 73.451,149.758 L 73.482,149.900 L 73.515,150.046 L 73.550,150.193 L 73.586,150.344 L 73.624,150.496 L 73.663,150.650 L 73.704,150.807 L 73.746,150.965 L 73.790,151.125 L 73.835,151.287 L 73.881,151.450 L 73.928,151.615 L 73.977,151.781 L 74.026,151.949 L 74.077,152.117 L 74.129,152.286 L 74.181,152.456 L 74.234,152.627 L 74.289,152.799 L 74.344,152.971 L 74.399,153.144 L 74.456,153.316 L 74.512,153.489 L 74.570,153.662 L 74.628,153.835 L 74.686,154.008 L 74.745,154.181 L 74.804,154.353 L 74.863,154.525 L 74.923,154.696 L 74.982,154.866 L 75.042,155.035 L 75.102,155.204 L 75.162,155.371 L 75.222,155.538 L 75.281,155.703 L 75.341,155.866 L 75.400,156.028 L 75.459,156.189 L 75.518,156.347 L 75.576,156.504 L 75.634,156.659 L 75.691,156.812 L 75.748,156.962 L 75.804,157.110 L 75.860,157.256 L 75.914,157.399 L 75.968,157.540 L 76.022,157.678 L 76.074,157.813 L 76.125,157.945 L 76.176,158.073 L 76.225,158.199 L 76.274,158.321 L 76.321,158.440 L 76.367,158.555 L 76.411,158.667 L 76.455,158.774 L 76.497,158.878 L 76.537,158.978 L 76.576,159.074 L 76.614,159.165 L 76.650,159.252 L 76.684,159.335 L 76.717,159.413 L 76.748,159.486 L 76.777,159.554 L 76.804,159.618 L 76.829,159.676 L 76.853,159.730 L 76.874,159.778 L 76.893,159.820 L 76.893,159.820 L 76.921,159.877 L 76.953,159.935 L 76.990,159.996 L 77.031,160.059 L 77.077,160.124 L 77.128,160.192 L 77.183,160.261 L 77.242,160.333 L 77.305,160.406 L 77.372,160.482 L 77.443,160.560 L 77.518,160.639 L 77.597,160.720 L 77.680,160.803 L 77.766,160.888 L 77.856,160.974 L 77.949,161.062 L 78.045,161.151 L 78.145,161.242 L 78.248,161.334 L 78.354,161.428 L 78.464,161.523 L 78.576,161.619 L 78.690,161.716 L 78.808,161.815 L 78.928,161.915 L 79.051,162.015 L 79.176,162.117 L 79.304,162.220 L 79.434,162.323 L 79.566,162.428 L 79.700,162.533 L 79.837,162.639 L 79.975,162.746 L 80.115,162.853 L 80.257,162.961 L 80.401,163.069 L 80.546,163.178 L 80.692,163.287 L 80.841,163.397 L 80.990,163.507 L 81.141,163.617 L 81.292,163.727 L 81.445,163.838 L 81.599,163.949 L 81.754,164.059 L 81.909,164.170 L 82.065,164.281 L 82.222,164.391 L 82.380,164.501 L 82.537,164.612 L 82.695,164.721 L 82.854,164.831 L 83.012,164.940 L 83.171,165.049 L 83.330,165.157 L 83.488,165.265 L 83.647,165.372 L 83.805,165.478 L 83.963,165.584 L 84.120,165.689 L 84.277,165.793 L 84.433,165.896 L 84.588,165.999 L 84.743,166.100 L 84.897,166.200 L 85.049,166.300 L 85.201,166.398 L 85.352,166.495 L 85.501,166.591 L 85.649,166.685 L 85.796,166.778 L 85.941,166.870 L 86.084,166.961 L 86.226,167.049 L 86.366,167.137 L 86.504,167.222 L 86.640,167.306 L 86.775,167.389 L 86.907,167.469 L 87.036,167.548 L 87.164,167.625 L 87.289,167.700 L 87.412,167.773 L 87.532,167.844 L 87.649,167.913 L 87.764,167.979 L 87.876,168.044 L 87.985,168.106 L 88.091,168.166 L 88.194,168.224 L 88.293,168.279 L 88.390,168.332 L 88.483,168.382 L 88.572,168.430 L 88.658,168.475 L 88.741,168.517 L 88.819,168.557 L 88.894,168.594 L 88.894,168.594 L 88.938,168.615 L 88.983,168.635 L 89.030,168.655 L 89.079,168.674 L 89.129,168.693 L 89.180,168.711 L 89.233,168.729 L 89.287,168.747 L 89.343,168.764 L 89.399,168.781 L 89.457,168.797 L 89.517,168.813 L 89.577,168.828 L 89.639,168.843 L 89.701,168.858 L 89.765,168.873 L 89.830,168.887 L 89.896,168.900 L 89.963,168.914 L 90.031,168.927 L 90.100,168.940 L 90.170,168.952 L 90.240,168.964 L 90.312,168.976 L 90.384,168.988 L 90.457,168.999 L 90.531,169.011 L 90.606,169.021 L 90.681,169.032 L 90.757,169.043 L 90.833,169.053 L 90.911,169.063 L 90.988,169.073 L 91.067,169.083 L 91.145,169.093 L 91.224,169.102 L 91.304,169.111 L 91.384,169.121 L 91.465,169.130 L 91.545,169.139 L 91.626,169.148 L 91.708,169.156 L 91.789,169.165 L 91.871,169.174 L 91.953,169.182 L 92.035,169.191 L 92.117,169.199 L 92.199,169.208 L 92.282,169.216 L 92.364,169.225 L 92.446,169.233 L 92.529,169.242 L 92.611,169.250 L 92.693,169.259 L 92.775,169.268 L 92.856,169.276 L 92.938,169.285 L 93.019,169.294 L 93.100,169.303 L 93.181,169.312 L 93.261,169.321 L 93.342,169.330 L 93.421,169.339 L 93.500,169.349 L 93.579,169.358 L 93.657,169.368 L 93.735,169.378 L 93.812,169.388 L 93.889,169.399 L 93.965,169.409 L 94.040,169.420 L 94.115,169.431 L 94.188,169.442 L 94.261,169.453 L 94.334,169.465 L 94.405,169.477 L 94.476,169.489 L 94.546,169.502 L 94.615,169.515 L 94.683,169.528 L 94.750,169.541 L 94.816,169.555 L 94.880,169.569 L 94.944,169.583 L 95.007,169.598 L 95.069,169.613 L 95.129,169.629 L 95.188,169.644 L 95.246,169.661 L 95.303,169.677 L 95.358,169.695 L 95.413,169.712 L 95.465,169.730 L 95.517,169.748 L 95.567,169.767 L 95.615,169.787 L 95.662,169.806 L 95.708,169.827 L 95.752,169.847 L 95.752,169.847 L 95.792,169.867 L 95.832,169.888 L 95.872,169.909 L 95.911,169.930 L 95.950,169.952 L 95.989,169.974 L 96.027,169.996 L 96.065,170.019 L 96.102,170.042 L 96.139,170.065 L 96.176,170.089 L 96.212,170.113 L 96.248,170.137 L 96.284,170.161 L 96.319,170.186 L 96.355,170.211 L 96.390,170.237 L 96.424,170.262 L 96.459,170.288 L 96.493,170.314 L 96.526,170.341 L 96.560,170.367 L 96.593,170.394 L 96.627,170.421 L 96.660,170.448 L 96.692,170.475 L 96.725,170.503 L 96.757,170.531 L 96.790,170.558 L 96.822,170.586 L 96.854,170.615 L 96.885,170.643 L 96.917,170.671 L 96.948,170.700 L 96.980,170.728 L 97.011,170.757 L 97.042,170.786 L 97.073,170.814 L 97.105,170.843 L 97.135,170.872 L 97.166,170.901 L 97.197,170.930 L 97.228,170.959 L 97.259,170.988 L 97.290,171.018 L 97.320,171.047 L 97.351,171.076 L 97.382,171.105 L 97.413,171.134 L 97.444,171.163 L 97.474,171.192 L 97.505,171.221 L 97.536,171.250 L 97.567,171.278 L 97.598,171.307 L 97.629,171.336 L 97.661,171.364 L 97.692,171.393 L 97.724,171.421 L 97.755,171.449 L 97.787,171.477 L 97.819,171.505 L 97.851,171.533 L 97.883,171.560 L 97.915,171.588 L 97.948,171.615 L 97.980,171.642 L 98.013,171.669 L 98.046,171.696 L 98.080,171.722 L 98.113,171.748 L 98.147,171.774 L 98.181,171.800 L 98.215,171.825 L 98.250,171.851 L 98.284,171.875 L 98.320,171.900 L 98.355,171.925 L 98.391,171.949 L 98.426,171.972 L 98.463,171.996 L 98.499,172.019 L 98.536,172.042 L 98.574,172.064 L 98.611,172.086 L 98.649,172.108 L 98.688,172.130 L 98.726,172.151 L 98.765,172.171 L 98.805,172.191 L 98.845,172.211 L 98.885,172.231 L 98.926,172.250 L 98.967,172.268 L 99.009,172.286 L 99.051,172.304 L 99.094,172.321 L 99.137,172.338 L 99.180,172.354 L 99.180,172.354 L 99.295,172.394 L 99.411,172.431 L 99.530,172.466 L 99.650,172.497 L 99.772,172.526 L 99.895,172.553 L 100.021,172.577 L 100.148,172.598 L 100.276,172.617 L 100.407,172.634 L 100.538,172.649 L 100.671,172.661 L 100.806,172.672 L 100.942,172.680 L 101.079,172.686 L 101.218,172.691 L 101.358,172.694 L 101.499,172.695 L 101.641,172.694 L 101.784,172.692 L 101.929,172.688 L 102.074,172.683 L 102.221,172.676 L 102.368,172.669 L 102.517,172.660 L 102.666,172.649 L 102.816,172.638 L 102.967,172.626 L 103.118,172.612 L 103.270,172.598 L 103.423,172.583 L 103.576,172.568 L 103.730,172.552 L 103.885,172.535 L 104.040,172.517 L 104.195,172.499 L 104.351,172.481 L 104.507,172.463 L 104.663,172.444 L 104.819,172.425 L 104.976,172.406 L 105.133,172.387 L 105.290,172.368 L 105.447,172.350 L 105.604,172.331 L 105.761,172.313 L 105.918,172.295 L 106.075,172.277 L 106.232,172.260 L 106.388,172.244 L 106.545,172.228 L 106.701,172.213 L 106.856,172.198 L 107.012,172.185 L 107.166,172.172 L 107.321,172.161 L 107.475,172.150 L 107.628,172.141 L 107.781,172.132 L 107.933,172.125 L 108.084,172.120 L 108.235,172.116 L 108.385,172.113 L 108.534,172.112 L 108.682,172.112 L 108.829,172.114 L 108.976,172.118 L 109.121,172.124 L 109.266,172.132 L 109.409,172.141 L 109.551,172.153 L 109.692,172.167 L 109.832,172.183 L 109.970,172.201 L 110.107,172.222 L 110.243,172.245 L 110.378,172.271 L 110.511,172.299 L 110.642,172.330 L 110.772,172.363 L 110.901,172.399 L 111.028,172.439 L 111.153,172.481 L 111.276,172.526 L 111.398,172.574 L 111.518,172.625 L 111.636,172.679 L 111.753,172.737 L 111.867,172.798 L 111.979,172.862 L 112.090,172.930 L 112.198,173.002 L 112.304,173.077 L 112.408,173.156 L 112.510,173.238 L 112.610,173.324 L 112.707,173.415 L 112.803,173.509 L 112.895,173.607 L 112.895,173.607 L 112.934,173.651 L 112.972,173.695 L 113.009,173.739 L 113.044,173.784 L 113.079,173.829 L 113.112,173.874 L 113.145,173.920 L 113.176,173.966 L 113.206,174.013 L 113.235,174.059 L 113.264,174.106 L 113.291,174.153 L 113.317,174.201 L 113.343,174.249 L 113.368,174.297 L 113.391,174.345 L 113.414,174.394 L 113.436,174.443 L 113.458,174.492 L 113.478,174.541 L 113.498,174.591 L 113.517,174.641 L 113.536,174.691 L 113.554,174.741 L 113.571,174.791 L 113.587,174.842 L 113.603,174.893 L 113.618,174.944 L 113.633,174.995 L 113.647,175.047 L 113.661,175.098 L 113.674,175.150 L 113.686,175.202 L 113.699,175.254 L 113.711,175.306 L 113.722,175.358 L 113.733,175.411 L 113.744,175.463 L 113.754,175.516 L 113.764,175.569 L 113.774,175.622 L 113.783,175.675 L 113.792,175.728 L 113.801,175.781 L 113.810,175.834 L 113.819,175.887 L 113.827,175.940 L 113.835,175.994 L 113.843,176.047 L 113.852,176.101 L 113.860,176.154 L 113.868,176.208 L 113.875,176.261 L 113.883,176.315 L 113.891,176.368 L 113.899,176.422 L 113.908,176.475 L 113.916,176.529 L 113.924,176.582 L 113.933,176.635 L 113.941,176.689 L 113.950,176.742 L 113.959,176.795 L 113.968,176.849 L 113.978,176.902 L 113.987,176.955 L 113.997,177.008 L 114.008,177.061 L 114.018,177.114 L 114.029,177.166 L 114.041,177.219 L 114.053,177.271 L 114.065,177.324 L 114.078,177.376 L 114.091,177.428 L 114.105,177.480 L 114.119,177.532 L 114.134,177.584 L 114.149,177.635 L 114.165,177.687 L 114.182,177.738 L 114.199,177.789 L 114.217,177.839 L 114.235,177.890 L 114.254,177.940 L 114.274,177.991 L 114.295,178.041 L 114.316,178.090 L 114.339,178.140 L 114.362,178.189 L 114.386,178.238 L 114.410,178.287 L 114.436,178.336 L 114.463,178.384 L 114.490,178.432 L 114.518,178.479 L 114.548,178.527 L 114.578,178.574 L 114.610,178.621 Z" fill="#ffff00" stroke="#000000" stroke-width="1.2" stroke-opacity="1" fill-opacity="0.981132" /></g><g id="path1439"><path d="M 170.417,164.883 L 170.417,164.883 L 170.417,164.883 L 170.417,164.883 L 170.417,164.883 L 170.417,164.883 L 170.417,164.883 L 170.417,164.883 L 170.417,164.883 L 170.417,164.883 L 170.417,164.883 L 170.417,164.883 L 170.417,164.883 L 170.417,164.883 L 170.417,164.883 L 170.417,164.883 L 170.417,164.883 L 170.417,164.883 L 170.417,164.883 L 170.417,164.883 L 170.417,164.883 L 170.417,164.883 L 170.417,164.883 L 170.417,164.883 L 170.417,164.883 L 170.417,164.883 L 170.417,164.883 L 170.417,164.883 L 170.417,164.883 L 170.417,164.883 L 170.417,164.883 L 170.417,164.883 L 170.417,164.883 L 170.417,164.883 L 170.417,164.883 L 170.417,164.883 L 170.417,164.883 L 170.417,164.883 L 170.417,164.883 L 170.417,164.883 L 170.417,164.883 L 170.417,164.883 L 170.417,164.883 L 170.417,164.883 L 170.417,164.883 L 170.417,164.883 L 170.417,164.883 L 170.417,164.883 L 170.417,164.883 L 170.417,164.883 L 170.417,164.883 L 170.417,164.883 L 170.417,164.883 L 170.417,164.883 L 170.417,164.883 L 170.417,164.883 L 170.417,164.883 L 170.417,164.883 L 170.417,164.883 L 170.417,164.883 L 170.417,164.883 L 170.417,164.883 L 170.417,164.883 L 170.417,164.883 L 170.417,164.883 L 170.417,164.883 L 170.417,164.883 L 170.417,164.883 L 170.417,164.883 L 170.417,164.883 L 170.417,164.883 L 170.417,164.883 L 170.417,164.883 L 170.417,164.883 L 170.417,164.883 L 170.417,164.883 L 170.417,164.883 L 170.417,164.883 L 170.417,164.883 L 170.417,164.883 L 170.417,164.883 L 170.417,164.883 L 170.417,164.883 L 170.417,164.883 L 170.417,164.883 L 170.417,164.883 L 170.417,164.883 L 170.417,164.883 L 170.417,164.883 L 170.417,164.883 L 170.417,164.883 L 170.417,164.883 L 170.417,164.883 L 170.417,164.883 L 170.417,164.883 L 170.417,164.883 L 170.417,164.883 L 170.417,164.883 L 170.417,164.883 L 170.417,164.883 L 170.417,164.883 L 170.535,164.940 L 170.656,164.999 L 170.779,165.060 L 170.905,165.123 L 171.033,165.187 L 171.163,165.254 L 171.296,165.322 L 171.432,165.392 L 171.569,165.464 L 171.709,165.538 L 171.850,165.613 L 171.994,165.690 L 172.140,165.768 L 172.288,165.848 L 172.437,165.930 L 172.588,166.013 L 172.741,166.097 L 172.896,166.183 L 173.053,166.271 L 173.210,166.359 L 173.370,166.450 L 173.531,166.541 L 173.693,166.634 L 173.856,166.728 L 174.021,166.823 L 174.187,166.919 L 174.354,167.017 L 174.522,167.116 L 174.692,167.215 L 174.862,167.316 L 175.033,167.418 L 175.204,167.521 L 175.377,167.624 L 175.550,167.729 L 175.724,167.835 L 175.899,167.941 L 176.074,168.048 L 176.249,168.156 L 176.425,168.265 L 176.602,168.375 L 176.778,168.485 L 176.955,168.596 L 177.132,168.707 L 177.309,168.819 L 177.486,168.932 L 177.663,169.045 L 177.840,169.159 L 178.016,169.273 L 178.193,169.388 L 178.369,169.503 L 178.545,169.618 L 178.721,169.734 L 178.896,169.850 L 179.070,169.966 L 179.244,170.082 L 179.418,170.199 L 179.590,170.316 L 179.762,170.433 L 179.933,170.550 L 180.104,170.667 L 180.273,170.784 L 180.441,170.901 L 180.609,171.018 L 180.775,171.135 L 180.940,171.252 L 181.103,171.369 L 181.266,171.486 L 181.427,171.602 L 181.586,171.718 L 181.744,171.834 L 181.901,171.950 L 182.056,172.065 L 182.209,172.180 L 182.361,172.295 L 182.511,172.409 L 182.658,172.523 L 182.804,172.636 L 182.948,172.749 L 183.090,172.861 L 183.230,172.972 L 183.368,173.083 L 183.504,173.193 L 183.637,173.303 L 183.768,173.412 L 183.896,173.520 L 184.022,173.627 L 184.146,173.734 L 184.267,173.839 L 184.385,173.944 L 184.501,174.048 L 184.613,174.151 L 184.723,174.253 L 184.831,174.353 L 184.935,174.453 L 185.036,174.552 L 185.134,174.650 L 185.229,174.746 L 185.321,174.841 L 185.409,174.935 L 185.409,174.935 L 185.474,175.005 L 185.539,175.074 L 185.603,175.144 L 185.668,175.214 L 185.733,175.284 L 185.798,175.353 L 185.863,175.423 L 185.928,175.493 L 185.993,175.563 L 186.059,175.633 L 186.124,175.704 L 186.189,175.774 L 186.254,175.844 L 186.319,175.915 L 186.384,175.985 L 186.449,176.056 L 186.514,176.126 L 186.579,176.197 L 186.644,176.268 L 186.708,176.339 L 186.773,176.410 L 186.838,176.481 L 186.902,176.553 L 186.967,176.624 L 187.031,176.696 L 187.095,176.767 L 187.159,176.839 L 187.223,176.911 L 187.287,176.983 L 187.350,177.055 L 187.414,177.127 L 187.477,177.200 L 187.540,177.272 L 187.603,177.345 L 187.665,177.418 L 187.728,177.491 L 187.790,177.564 L 187.852,177.637 L 187.914,177.710 L 187.975,177.784 L 188.037,177.858 L 188.098,177.931 L 188.158,178.005 L 188.219,178.080 L 188.279,178.154 L 188.339,178.228 L 188.399,178.303 L 188.458,178.378 L 188.517,178.453 L 188.575,178.528 L 188.634,178.603 L 188.691,178.679 L 188.749,178.754 L 188.806,178.830 L 188.863,178.906 L 188.919,178.983 L 188.976,179.059 L 189.031,179.136 L 189.086,179.212 L 189.141,179.289 L 189.196,179.367 L 189.250,179.444 L 189.303,179.522 L 189.356,179.600 L 189.409,179.678 L 189.461,179.756 L 189.512,179.834 L 189.564,179.913 L 189.614,179.992 L 189.664,180.071 L 189.714,180.151 L 189.763,180.230 L 189.812,180.310 L 189.860,180.390 L 189.907,180.470 L 189.954,180.551 L 190.001,180.632 L 190.047,180.713 L 190.092,180.794 L 190.136,180.875 L 190.180,180.957 L 190.224,181.039 L 190.267,181.121 L 190.309,181.204 L 190.350,181.287 L 190.391,181.370 L 190.432,181.453 L 190.471,181.537 L 190.510,181.620 L 190.548,181.705 L 190.586,181.789 L 190.623,181.874 L 190.659,181.959 L 190.695,182.044 L 190.729,182.129 L 190.763,182.215 L 190.797,182.301 L 190.829,182.388 L 190.861,182.474 L 190.861,182.474 L 190.869,182.498 L 190.877,182.523 L 190.885,182.547 L 190.891,182.571 L 190.898,182.596 L 190.903,182.620 L 190.909,182.645 L 190.914,182.670 L 190.918,182.694 L 190.922,182.719 L 190.925,182.744 L 190.928,182.769 L 190.931,182.794 L 190.933,182.819 L 190.935,182.844 L 190.937,182.870 L 190.938,182.895 L 190.938,182.920 L 190.939,182.946 L 190.939,182.971 L 190.938,182.997 L 190.938,183.022 L 190.937,183.048 L 190.936,183.074 L 190.934,183.099 L 190.932,183.125 L 190.930,183.151 L 190.928,183.177 L 190.926,183.202 L 190.923,183.228 L 190.920,183.254 L 190.917,183.280 L 190.914,183.306 L 190.910,183.332 L 190.906,183.358 L 190.903,183.384 L 190.899,183.410 L 190.895,183.436 L 190.890,183.462 L 190.886,183.489 L 190.882,183.515 L 190.877,183.541 L 190.873,183.567 L 190.868,183.593 L 190.863,183.619 L 190.859,183.646 L 190.854,183.672 L 190.849,183.698 L 190.844,183.724 L 190.840,183.750 L 190.835,183.776 L 190.830,183.803 L 190.826,183.829 L 190.821,183.855 L 190.817,183.881 L 190.812,183.907 L 190.808,183.933 L 190.804,183.959 L 190.799,183.985 L 190.795,184.011 L 190.792,184.037 L 190.788,184.063 L 190.784,184.089 L 190.781,184.115 L 190.778,184.141 L 190.775,184.167 L 190.772,184.192 L 190.769,184.218 L 190.767,184.244 L 190.765,184.270 L 190.763,184.295 L 190.761,184.321 L 190.760,184.346 L 190.759,184.372 L 190.758,184.397 L 190.758,184.423 L 190.758,184.448 L 190.758,184.473 L 190.759,184.499 L 190.760,184.524 L 190.761,184.549 L 190.763,184.574 L 190.765,184.599 L 190.767,184.624 L 190.770,184.648 L 190.773,184.673 L 190.777,184.698 L 190.781,184.722 L 190.786,184.747 L 190.791,184.771 L 190.797,184.796 L 190.803,184.820 L 190.810,184.844 L 190.817,184.868 L 190.825,184.892 L 190.833,184.916 L 190.842,184.940 L 190.851,184.964 L 190.861,184.987 L 190.861,184.987 L 190.867,184.999 L 190.875,185.013 L 190.886,185.029 L 190.900,185.048 L 190.916,185.070 L 190.935,185.094 L 190.956,185.120 L 190.979,185.148 L 191.005,185.179 L 191.033,185.212 L 191.063,185.247 L 191.095,185.284 L 191.129,185.324 L 191.165,185.365 L 191.203,185.408 L 191.243,185.454 L 191.285,185.501 L 191.328,185.550 L 191.373,185.600 L 191.420,185.653 L 191.468,185.707 L 191.518,185.763 L 191.569,185.820 L 191.621,185.879 L 191.675,185.939 L 191.730,186.001 L 191.786,186.064 L 191.843,186.129 L 191.902,186.195 L 191.961,186.262 L 192.021,186.331 L 192.082,186.400 L 192.144,186.471 L 192.207,186.543 L 192.270,186.616 L 192.334,186.690 L 192.399,186.764 L 192.464,186.840 L 192.529,186.916 L 192.595,186.994 L 192.661,187.072 L 192.728,187.151 L 192.794,187.230 L 192.861,187.310 L 192.928,187.391 L 192.995,187.472 L 193.062,187.553 L 193.128,187.635 L 193.195,187.717 L 193.261,187.800 L 193.327,187.883 L 193.393,187.966 L 193.458,188.050 L 193.523,188.133 L 193.587,188.217 L 193.650,188.300 L 193.713,188.384 L 193.775,188.467 L 193.837,188.551 L 193.897,188.634 L 193.957,188.717 L 194.016,188.800 L 194.074,188.883 L 194.130,188.965 L 194.186,189.047 L 194.240,189.129 L 194.293,189.210 L 194.344,189.290 L 194.395,189.370 L 194.443,189.449 L 194.491,189.528 L 194.536,189.606 L 194.580,189.683 L 194.623,189.759 L 194.663,189.835 L 194.702,189.909 L 194.739,189.983 L 194.774,190.056 L 194.807,190.127 L 194.838,190.198 L 194.866,190.267 L 194.893,190.336 L 194.917,190.403 L 194.939,190.468 L 194.959,190.533 L 194.976,190.596 L 194.990,190.657 L 195.003,190.718 L 195.012,190.776 L 195.019,190.833 L 195.023,190.889 L 195.024,190.943 L 195.023,190.995 L 195.018,191.045 L 195.011,191.094 L 195.000,191.141 L 194.986,191.186 L 194.970,191.229 L 194.950,191.270 L 194.950,191.270 L 194.901,191.355 L 194.848,191.437 L 194.791,191.516 L 194.730,191.592 L 194.666,191.665 L 194.598,191.735 L 194.526,191.803 L 194.451,191.868 L 194.373,191.930 L 194.291,191.989 L 194.205,192.046 L 194.117,192.100 L 194.026,192.152 L 193.931,192.201 L 193.833,192.248 L 193.733,192.293 L 193.630,192.335 L 193.524,192.375 L 193.415,192.412 L 193.304,192.448 L 193.190,192.481 L 193.073,192.513 L 192.955,192.542 L 192.834,192.569 L 192.710,192.595 L 192.585,192.618 L 192.458,192.640 L 192.328,192.660 L 192.197,192.678 L 192.064,192.694 L 191.928,192.709 L 191.792,192.722 L 191.653,192.734 L 191.513,192.744 L 191.372,192.753 L 191.229,192.760 L 191.085,192.766 L 190.940,192.771 L 190.793,192.774 L 190.646,192.777 L 190.497,192.778 L 190.347,192.778 L 190.197,192.777 L 190.045,192.774 L 189.893,192.771 L 189.741,192.767 L 189.587,192.763 L 189.433,192.757 L 189.279,192.751 L 189.125,192.743 L 188.970,192.736 L 188.815,192.727 L 188.660,192.718 L 188.504,192.709 L 188.349,192.699 L 188.194,192.688 L 188.039,192.678 L 187.884,192.666 L 187.730,192.655 L 187.576,192.643 L 187.423,192.632 L 187.270,192.620 L 187.117,192.608 L 186.966,192.596 L 186.815,192.584 L 186.665,192.572 L 186.516,192.560 L 186.368,192.548 L 186.221,192.536 L 186.075,192.525 L 185.930,192.514 L 185.787,192.504 L 185.645,192.493 L 185.505,192.484 L 185.366,192.474 L 185.228,192.465 L 185.093,192.457 L 184.959,192.450 L 184.827,192.443 L 184.696,192.437 L 184.568,192.432 L 184.442,192.427 L 184.318,192.424 L 184.196,192.421 L 184.076,192.419 L 183.959,192.419 L 183.844,192.419 L 183.732,192.421 L 183.622,192.423 L 183.515,192.427 L 183.411,192.433 L 183.309,192.439 L 183.211,192.447 L 183.115,192.456 L 183.022,192.467 L 182.933,192.480 L 182.846,192.494 L 182.763,192.509 L 182.683,192.526 L 182.683,192.526 L 182.665,192.531 L 182.646,192.536 L 182.628,192.541 L 182.610,192.547 L 182.593,192.554 L 182.575,192.561 L 182.558,192.568 L 182.541,192.576 L 182.525,192.584 L 182.509,192.592 L 182.493,192.601 L 182.477,192.610 L 182.461,192.620 L 182.446,192.630 L 182.431,192.640 L 182.416,192.651 L 182.401,192.662 L 182.387,192.673 L 182.372,192.685 L 182.358,192.696 L 182.344,192.709 L 182.330,192.721 L 182.317,192.734 L 182.303,192.747 L 182.290,192.760 L 182.277,192.774 L 182.264,192.787 L 182.251,192.801 L 182.238,192.815 L 182.226,192.830 L 182.213,192.844 L 182.201,192.859 L 182.189,192.874 L 182.176,192.889 L 182.164,192.905 L 182.152,192.920 L 182.140,192.936 L 182.129,192.951 L 182.117,192.967 L 182.105,192.983 L 182.094,192.999 L 182.082,193.015 L 182.071,193.031 L 182.059,193.048 L 182.048,193.064 L 182.036,193.080 L 182.025,193.097 L 182.014,193.113 L 182.002,193.130 L 181.991,193.146 L 181.980,193.163 L 181.969,193.179 L 181.957,193.196 L 181.946,193.212 L 181.935,193.229 L 181.923,193.245 L 181.912,193.262 L 181.900,193.278 L 181.889,193.294 L 181.877,193.311 L 181.865,193.327 L 181.854,193.343 L 181.842,193.359 L 181.830,193.374 L 181.818,193.390 L 181.806,193.406 L 181.794,193.421 L 181.782,193.436 L 181.770,193.451 L 181.757,193.466 L 181.745,193.481 L 181.732,193.496 L 181.719,193.510 L 181.706,193.524 L 181.693,193.538 L 181.680,193.552 L 181.667,193.565 L 181.653,193.578 L 181.639,193.591 L 181.625,193.604 L 181.611,193.616 L 181.597,193.629 L 181.583,193.640 L 181.568,193.652 L 181.553,193.663 L 181.538,193.674 L 181.523,193.685 L 181.507,193.695 L 181.492,193.705 L 181.476,193.714 L 181.459,193.724 L 181.443,193.732 L 181.426,193.741 L 181.409,193.749 L 181.392,193.756 L 181.375,193.764 L 181.357,193.770 L 181.339,193.777 L 181.321,193.783 L 181.321,193.783 L 181.266,193.799 L 181.207,193.814 L 181.144,193.830 L 181.077,193.846 L 181.006,193.861 L 180.931,193.876 L 180.853,193.891 L 180.770,193.905 L 180.684,193.920 L 180.594,193.934 L 180.501,193.948 L 180.405,193.962 L 180.305,193.976 L 180.202,193.989 L 180.095,194.002 L 179.986,194.015 L 179.874,194.028 L 179.759,194.040 L 179.641,194.052 L 179.521,194.064 L 179.398,194.076 L 179.272,194.087 L 179.144,194.098 L 179.014,194.109 L 178.881,194.119 L 178.747,194.130 L 178.610,194.140 L 178.471,194.149 L 178.331,194.159 L 178.188,194.168 L 178.044,194.176 L 177.898,194.185 L 177.751,194.193 L 177.602,194.201 L 177.452,194.208 L 177.301,194.215 L 177.148,194.222 L 176.995,194.228 L 176.840,194.234 L 176.685,194.240 L 176.528,194.245 L 176.371,194.250 L 176.213,194.255 L 176.055,194.259 L 175.896,194.263 L 175.737,194.267 L 175.577,194.270 L 175.418,194.272 L 175.258,194.275 L 175.098,194.277 L 174.938,194.278 L 174.779,194.279 L 174.619,194.280 L 174.460,194.280 L 174.301,194.280 L 174.143,194.279 L 173.985,194.278 L 173.828,194.277 L 173.672,194.275 L 173.517,194.273 L 173.362,194.270 L 173.209,194.267 L 173.056,194.263 L 172.905,194.259 L 172.755,194.254 L 172.607,194.249 L 172.460,194.244 L 172.314,194.237 L 172.171,194.231 L 172.029,194.224 L 171.888,194.216 L 171.750,194.208 L 171.613,194.200 L 171.479,194.190 L 171.347,194.181 L 171.217,194.171 L 171.090,194.160 L 170.964,194.149 L 170.842,194.137 L 170.722,194.125 L 170.605,194.112 L 170.490,194.099 L 170.378,194.085 L 170.270,194.070 L 170.164,194.055 L 170.062,194.040 L 169.962,194.023 L 169.866,194.007 L 169.774,193.989 L 169.685,193.971 L 169.599,193.953 L 169.517,193.934 L 169.439,193.914 L 169.365,193.894 L 169.295,193.873 L 169.228,193.851 L 169.166,193.829 L 169.108,193.806 L 169.054,193.783 L 169.054,193.783 L 169.020,193.766 L 168.986,193.750 L 168.952,193.732 L 168.918,193.715 L 168.885,193.696 L 168.852,193.678 L 168.820,193.659 L 168.788,193.639 L 168.756,193.620 L 168.725,193.599 L 168.693,193.579 L 168.663,193.558 L 168.632,193.536 L 168.602,193.514 L 168.572,193.492 L 168.542,193.470 L 168.513,193.447 L 168.484,193.424 L 168.455,193.400 L 168.427,193.376 L 168.398,193.352 L 168.370,193.328 L 168.342,193.303 L 168.315,193.278 L 168.287,193.253 L 168.260,193.227 L 168.233,193.201 L 168.206,193.175 L 168.179,193.149 L 168.153,193.122 L 168.127,193.096 L 168.100,193.069 L 168.075,193.042 L 168.049,193.014 L 168.023,192.987 L 167.997,192.959 L 167.972,192.931 L 167.947,192.904 L 167.921,192.875 L 167.896,192.847 L 167.871,192.819 L 167.846,192.790 L 167.822,192.762 L 167.797,192.733 L 167.772,192.704 L 167.747,192.675 L 167.723,192.646 L 167.698,192.617 L 167.674,192.588 L 167.649,192.559 L 167.625,192.530 L 167.600,192.501 L 167.576,192.472 L 167.551,192.443 L 167.527,192.414 L 167.502,192.384 L 167.478,192.355 L 167.453,192.326 L 167.429,192.297 L 167.404,192.268 L 167.380,192.239 L 167.355,192.210 L 167.330,192.181 L 167.305,192.153 L 167.280,192.124 L 167.255,192.096 L 167.230,192.067 L 167.205,192.039 L 167.179,192.011 L 167.154,191.983 L 167.128,191.955 L 167.102,191.927 L 167.077,191.899 L 167.050,191.872 L 167.024,191.845 L 166.998,191.818 L 166.971,191.791 L 166.945,191.764 L 166.918,191.738 L 166.891,191.712 L 166.863,191.686 L 166.836,191.660 L 166.808,191.635 L 166.780,191.609 L 166.752,191.584 L 166.723,191.560 L 166.695,191.536 L 166.666,191.511 L 166.637,191.488 L 166.607,191.464 L 166.577,191.441 L 166.547,191.419 L 166.517,191.396 L 166.486,191.374 L 166.456,191.353 L 166.424,191.331 L 166.393,191.310 L 166.361,191.290 L 166.329,191.270 L 166.329,191.270 L 166.235,191.212 L 166.143,191.158 L 166.054,191.105 L 165.966,191.054 L 165.881,191.006 L 165.797,190.959 L 165.716,190.915 L 165.637,190.872 L 165.559,190.832 L 165.484,190.793 L 165.410,190.756 L 165.339,190.721 L 165.269,190.687 L 165.201,190.655 L 165.135,190.625 L 165.071,190.596 L 165.008,190.569 L 164.947,190.543 L 164.888,190.519 L 164.831,190.496 L 164.775,190.474 L 164.721,190.454 L 164.669,190.434 L 164.618,190.416 L 164.569,190.399 L 164.522,190.384 L 164.476,190.369 L 164.431,190.355 L 164.388,190.342 L 164.346,190.330 L 164.306,190.318 L 164.267,190.308 L 164.230,190.298 L 164.194,190.289 L 164.159,190.280 L 164.126,190.272 L 164.094,190.264 L 164.063,190.257 L 164.033,190.251 L 164.005,190.245 L 163.978,190.239 L 163.952,190.233 L 163.927,190.228 L 163.903,190.222 L 163.880,190.217 L 163.859,190.212 L 163.838,190.207 L 163.819,190.202 L 163.800,190.197 L 163.782,190.192 L 163.766,190.186 L 163.750,190.181 L 163.735,190.175 L 163.721,190.169 L 163.708,190.162 L 163.696,190.155 L 163.685,190.147 L 163.674,190.139 L 163.664,190.131 L 163.655,190.122 L 163.646,190.112 L 163.638,190.101 L 163.631,190.090 L 163.625,190.078 L 163.619,190.065 L 163.613,190.051 L 163.609,190.036 L 163.604,190.020 L 163.601,190.003 L 163.597,189.985 L 163.595,189.966 L 163.592,189.945 L 163.590,189.924 L 163.589,189.901 L 163.587,189.876 L 163.586,189.850 L 163.586,189.823 L 163.586,189.795 L 163.586,189.764 L 163.586,189.732 L 163.586,189.699 L 163.587,189.664 L 163.588,189.627 L 163.589,189.588 L 163.590,189.547 L 163.591,189.505 L 163.592,189.460 L 163.593,189.414 L 163.594,189.365 L 163.596,189.315 L 163.597,189.262 L 163.598,189.207 L 163.599,189.150 L 163.600,189.090 L 163.601,189.028 L 163.602,188.964 L 163.602,188.898 L 163.603,188.828 L 163.603,188.757 Z" fill="#ffff00" stroke="#000000" stroke-width="1.2" stroke-opacity="1" fill-opacity="1" /></g><g id="path230"><path d="M 173.669,158.568 L 173.307,165.710 L 172.222,172.781 L 170.427,179.711 L 167.938,186.431 L 164.781,192.874 L 160.986,198.976 L 156.593,204.677 L 151.643,209.919 L 146.187,214.651 L 140.279,218.825 L 133.977,222.401 L 127.345,225.342 L 120.447,227.620 L 113.353,229.211 L 106.133,230.100 L 98.858,230.279 L 91.602,229.744 L 84.436,228.502 L 77.431,226.565 L 70.657,223.953 L 64.182,220.690 L 58.070,216.811 L 52.381,212.352 L 47.171,207.359 L 42.494,201.881 L 38.395,195.972 L 34.915,189.692 L 32.088,183.102 L 29.944,176.268 L 28.502,169.259 L 27.777,162.143 L 27.777,154.992 L 28.502,147.877 L 29.944,140.867 L 32.088,134.034 L 34.915,127.444 L 38.395,121.164 L 42.494,115.255 L 47.171,109.777 L 52.381,104.784 L 58.070,100.325 L 64.182,96.445 L 70.657,93.183 L 77.431,90.570 L 84.436,88.633 L 91.602,87.391 L 98.858,86.857 L 106.133,87.035 L 113.353,87.925 L 120.447,89.516 L 127.345,91.793 L 133.977,94.735 L 140.279,98.310 L 146.187,102.485 L 151.643,107.216 L 156.593,112.459 L 160.986,118.159 L 164.781,124.261 L 167.938,130.704 L 170.427,137.424 L 172.222,144.354 L 173.307,151.425 L 173.669,158.568 Z" fill="#ffff00" stroke="#000000" stroke-width="1.2" stroke-opacity="1" /></g><g id="path2717"><path d="M 99.419,140.949 L 99.419,140.949 L 99.419,140.949 L 99.419,140.949 L 99.419,140.949 L 99.419,140.949 L 99.419,140.949 L 99.419,140.949 L 99.419,140.949 L 99.419,140.949 L 99.419,140.949 L 99.419,140.949 L 99.419,140.949 L 99.419,140.949 L 99.419,140.949 L 99.419,140.949 L 99.419,140.949 L 99.419,140.949 L 99.419,140.949 L 99.419,140.949 L 99.419,140.949 L 99.419,140.949 L 99.419,140.949 L 99.419,140.949 L 99.419,140.949 L 99.419,140.949 L 99.419,140.949 L 99.419,140.949 L 99.419,140.949 L 99.419,140.949 L 99.419,140.949 L 99.419,140.949 L 99.419,140.949 L 99.419,140.949 L 99.419,140.949 L 99.419,140.949 L 99.419,140.949 L 99.419,140.949 L 99.419,140.949 L 99.419,140.949 L 99.419,140.949 L 99.419,140.949 L 99.419,140.949 L 99.419,140.949 L 99.419,140.949 L 99.419,140.949 L 99.419,140.949 L 99.419,140.949 L 99.419,140.949 L 99.419,140.949 L 99.419,140.949 L 99.419,140.949 L 99.419,140.949 L 99.419,140.949 L 99.419,140.949 L 99.419,140.949 L 99.419,140.949 L 99.419,140.949 L 99.419,140.949 L 99.419,140.949 L 99.419,140.949 L 99.419,140.949 L 99.419,140.949 L 99.419,140.949 L 99.419,140.949 L 99.419,140.949 L 99.419,140.949 L 99.419,140.949 L 99.419,140.949 L 99.419,140.949 L 99.419,140.949 L 99.419,140.949 L 99.419,140.949 L 99.419,140.949 L 99.419,140.949 L 99.419,140.949 L 99.419,140.949 L 99.419,140.949 L 99.419,140.949 L 99.419,140.949 L 99.419,140.949 L 99.419,140.949 L 99.419,140.949 L 99.419,140.949 L 99.419,140.949 L 99.419,140.949 L 99.419,140.949 L 99.419,140.949 L 99.419,140.949 L 99.419,140.949 L 99.419,140.949 L 99.419,140.949 L 99.419,140.949 L 99.419,140.949 L 99.419,140.949 L 99.419,140.949 L 99.419,140.949 L 99.419,140.949 L 99.419,140.949 L 99.419,140.949 L 99.419,140.949 L 99.153,141.040 L 98.886,141.127 L 98.618,141.209 L 98.350,141.286 L 98.081,141.360 L 97.811,141.429 L 97.541,141.495 L 97.271,141.557 L 97.000,141.614 L 96.728,141.668 L 96.456,141.719 L 96.183,141.766 L 95.910,141.810 L 95.637,141.850 L 95.363,141.888 L 95.089,141.922 L 94.815,141.953 L 94.540,141.982 L 94.265,142.008 L 93.990,142.031 L 93.714,142.052 L 93.438,142.070 L 93.162,142.086 L 92.886,142.100 L 92.609,142.112 L 92.332,142.122 L 92.055,142.130 L 91.778,142.136 L 91.501,142.141 L 91.224,142.144 L 90.947,142.145 L 90.669,142.146 L 90.392,142.145 L 90.115,142.143 L 89.837,142.140 L 89.560,142.136 L 89.283,142.131 L 89.005,142.125 L 88.728,142.119 L 88.451,142.113 L 88.174,142.106 L 87.897,142.099 L 87.621,142.092 L 87.344,142.084 L 87.068,142.077 L 86.792,142.070 L 86.516,142.063 L 86.240,142.057 L 85.965,142.051 L 85.690,142.045 L 85.415,142.040 L 85.141,142.037 L 84.867,142.034 L 84.594,142.032 L 84.320,142.031 L 84.048,142.031 L 83.775,142.033 L 83.503,142.036 L 83.232,142.041 L 82.961,142.047 L 82.691,142.055 L 82.421,142.065 L 82.151,142.077 L 81.883,142.091 L 81.615,142.108 L 81.347,142.126 L 81.080,142.147 L 80.814,142.171 L 80.548,142.197 L 80.284,142.226 L 80.019,142.257 L 79.756,142.292 L 79.493,142.329 L 79.231,142.370 L 78.970,142.414 L 78.710,142.462 L 78.450,142.512 L 78.192,142.567 L 77.934,142.625 L 77.677,142.687 L 77.421,142.753 L 77.166,142.822 L 76.912,142.896 L 76.659,142.975 L 76.407,143.057 L 76.156,143.144 L 75.906,143.235 L 75.656,143.331 L 75.408,143.432 L 75.162,143.538 L 74.916,143.648 L 74.671,143.764 L 74.428,143.885 L 74.185,144.011 L 73.944,144.142 L 73.704,144.280 L 73.465,144.422 L 73.228,144.570 L 72.992,144.725 L 72.992,144.725 L 72.959,144.747 L 72.927,144.771 L 72.896,144.795 L 72.866,144.820 L 72.837,144.845 L 72.809,144.871 L 72.782,144.898 L 72.755,144.925 L 72.730,144.953 L 72.706,144.982 L 72.682,145.012 L 72.659,145.041 L 72.637,145.072 L 72.616,145.103 L 72.595,145.135 L 72.576,145.167 L 72.557,145.200 L 72.539,145.233 L 72.521,145.266 L 72.504,145.301 L 72.488,145.335 L 72.472,145.371 L 72.457,145.406 L 72.443,145.442 L 72.429,145.479 L 72.416,145.516 L 72.404,145.553 L 72.391,145.591 L 72.380,145.629 L 72.369,145.668 L 72.358,145.706 L 72.348,145.746 L 72.338,145.785 L 72.329,145.825 L 72.320,145.865 L 72.311,145.906 L 72.303,145.946 L 72.295,145.987 L 72.288,146.029 L 72.281,146.070 L 72.274,146.112 L 72.267,146.154 L 72.261,146.196 L 72.255,146.238 L 72.249,146.281 L 72.243,146.324 L 72.238,146.367 L 72.232,146.410 L 72.227,146.453 L 72.222,146.496 L 72.217,146.539 L 72.212,146.583 L 72.207,146.626 L 72.202,146.670 L 72.197,146.714 L 72.192,146.757 L 72.188,146.801 L 72.183,146.845 L 72.178,146.889 L 72.173,146.932 L 72.168,146.976 L 72.163,147.020 L 72.158,147.064 L 72.152,147.107 L 72.147,147.151 L 72.141,147.194 L 72.135,147.238 L 72.129,147.281 L 72.123,147.324 L 72.116,147.367 L 72.109,147.410 L 72.102,147.452 L 72.095,147.495 L 72.087,147.537 L 72.079,147.580 L 72.070,147.621 L 72.061,147.663 L 72.052,147.705 L 72.043,147.746 L 72.032,147.787 L 72.022,147.828 L 72.011,147.868 L 71.999,147.908 L 71.987,147.948 L 71.975,147.988 L 71.962,148.027 L 71.948,148.066 L 71.934,148.104 L 71.919,148.142 L 71.903,148.180 L 71.887,148.217 L 71.870,148.254 L 71.853,148.291 L 71.835,148.327 L 71.816,148.362 L 71.796,148.397 L 71.776,148.432 L 71.755,148.466 L 71.733,148.500 L 71.733,148.500 L 71.723,148.515 L 71.713,148.530 L 71.702,148.544 L 71.691,148.558 L 71.680,148.573 L 71.668,148.587 L 71.657,148.600 L 71.645,148.614 L 71.633,148.628 L 71.620,148.641 L 71.608,148.654 L 71.595,148.667 L 71.582,148.680 L 71.569,148.693 L 71.556,148.706 L 71.542,148.718 L 71.529,148.731 L 71.515,148.743 L 71.501,148.755 L 71.487,148.768 L 71.473,148.780 L 71.458,148.792 L 71.444,148.803 L 71.429,148.815 L 71.414,148.827 L 71.399,148.838 L 71.384,148.850 L 71.369,148.861 L 71.354,148.873 L 71.339,148.884 L 71.323,148.895 L 71.308,148.907 L 71.292,148.918 L 71.277,148.929 L 71.261,148.940 L 71.246,148.951 L 71.230,148.962 L 71.214,148.973 L 71.199,148.984 L 71.183,148.995 L 71.167,149.006 L 71.152,149.017 L 71.136,149.028 L 71.120,149.038 L 71.105,149.049 L 71.089,149.060 L 71.073,149.071 L 71.058,149.082 L 71.042,149.093 L 71.027,149.104 L 71.011,149.115 L 70.996,149.126 L 70.981,149.137 L 70.965,149.148 L 70.950,149.159 L 70.935,149.171 L 70.920,149.182 L 70.905,149.193 L 70.891,149.204 L 70.876,149.216 L 70.862,149.227 L 70.847,149.239 L 70.833,149.251 L 70.819,149.262 L 70.805,149.274 L 70.792,149.286 L 70.778,149.298 L 70.765,149.310 L 70.752,149.322 L 70.739,149.335 L 70.726,149.347 L 70.713,149.360 L 70.701,149.372 L 70.689,149.385 L 70.677,149.398 L 70.665,149.411 L 70.654,149.424 L 70.642,149.438 L 70.631,149.451 L 70.621,149.465 L 70.610,149.479 L 70.600,149.493 L 70.590,149.507 L 70.580,149.521 L 70.571,149.536 L 70.562,149.550 L 70.553,149.565 L 70.545,149.580 L 70.537,149.595 L 70.529,149.611 L 70.521,149.626 L 70.514,149.642 L 70.508,149.658 L 70.501,149.674 L 70.495,149.691 L 70.489,149.707 L 70.484,149.724 L 70.479,149.741 L 70.475,149.758 L 70.475,149.758 L 70.466,149.796 L 70.457,149.833 L 70.449,149.870 L 70.442,149.907 L 70.435,149.944 L 70.429,149.982 L 70.423,150.019 L 70.418,150.057 L 70.413,150.094 L 70.408,150.132 L 70.404,150.169 L 70.401,150.207 L 70.398,150.245 L 70.395,150.283 L 70.393,150.320 L 70.391,150.358 L 70.389,150.396 L 70.388,150.434 L 70.387,150.472 L 70.387,150.510 L 70.386,150.548 L 70.387,150.587 L 70.387,150.625 L 70.388,150.663 L 70.389,150.701 L 70.390,150.740 L 70.392,150.778 L 70.394,150.816 L 70.396,150.855 L 70.398,150.893 L 70.401,150.932 L 70.404,150.970 L 70.407,151.009 L 70.410,151.047 L 70.413,151.086 L 70.417,151.124 L 70.420,151.163 L 70.424,151.201 L 70.428,151.240 L 70.432,151.279 L 70.436,151.317 L 70.441,151.356 L 70.445,151.395 L 70.449,151.433 L 70.454,151.472 L 70.458,151.511 L 70.463,151.549 L 70.468,151.588 L 70.472,151.627 L 70.477,151.666 L 70.482,151.704 L 70.486,151.743 L 70.491,151.782 L 70.495,151.820 L 70.500,151.859 L 70.504,151.898 L 70.508,151.936 L 70.513,151.975 L 70.517,152.014 L 70.521,152.052 L 70.525,152.091 L 70.529,152.130 L 70.532,152.168 L 70.536,152.207 L 70.539,152.245 L 70.542,152.284 L 70.545,152.322 L 70.548,152.361 L 70.551,152.399 L 70.553,152.438 L 70.555,152.476 L 70.557,152.514 L 70.559,152.553 L 70.560,152.591 L 70.561,152.629 L 70.562,152.668 L 70.563,152.706 L 70.563,152.744 L 70.563,152.782 L 70.562,152.820 L 70.561,152.858 L 70.560,152.896 L 70.559,152.934 L 70.557,152.972 L 70.554,153.010 L 70.552,153.048 L 70.548,153.085 L 70.545,153.123 L 70.541,153.161 L 70.536,153.198 L 70.532,153.236 L 70.526,153.273 L 70.520,153.311 L 70.514,153.348 L 70.507,153.385 L 70.500,153.423 L 70.492,153.460 L 70.484,153.497 L 70.475,153.534 L 70.475,153.534 L 70.420,153.752 L 70.367,153.959 L 70.316,154.156 L 70.267,154.343 L 70.219,154.519 L 70.174,154.686 L 70.130,154.844 L 70.088,154.992 L 70.047,155.131 L 70.008,155.260 L 69.971,155.381 L 69.935,155.494 L 69.901,155.598 L 69.868,155.694 L 69.836,155.782 L 69.806,155.862 L 69.777,155.934 L 69.750,155.999 L 69.723,156.057 L 69.698,156.108 L 69.674,156.152 L 69.651,156.190 L 69.629,156.220 L 69.608,156.245 L 69.589,156.264 L 69.570,156.277 L 69.552,156.284 L 69.534,156.286 L 69.518,156.283 L 69.503,156.274 L 69.488,156.261 L 69.474,156.243 L 69.460,156.220 L 69.447,156.194 L 69.435,156.163 L 69.423,156.129 L 69.412,156.090 L 69.401,156.049 L 69.391,156.004 L 69.381,155.956 L 69.371,155.905 L 69.362,155.851 L 69.352,155.795 L 69.344,155.737 L 69.335,155.677 L 69.326,155.614 L 69.317,155.550 L 69.309,155.485 L 69.300,155.418 L 69.292,155.350 L 69.283,155.282 L 69.274,155.212 L 69.265,155.142 L 69.256,155.072 L 69.246,155.002 L 69.237,154.931 L 69.226,154.861 L 69.216,154.792 L 69.205,154.723 L 69.194,154.655 L 69.182,154.588 L 69.170,154.523 L 69.157,154.459 L 69.143,154.396 L 69.129,154.335 L 69.114,154.277 L 69.098,154.221 L 69.082,154.167 L 69.064,154.116 L 69.046,154.067 L 69.027,154.022 L 69.007,153.980 L 68.986,153.941 L 68.964,153.906 L 68.941,153.875 L 68.917,153.848 L 68.891,153.825 L 68.865,153.807 L 68.837,153.793 L 68.808,153.784 L 68.778,153.780 L 68.746,153.782 L 68.713,153.788 L 68.678,153.801 L 68.642,153.819 L 68.604,153.843 L 68.565,153.873 L 68.524,153.910 L 68.482,153.953 L 68.438,154.003 L 68.392,154.060 L 68.344,154.125 L 68.295,154.196 L 68.243,154.275 L 68.190,154.362 L 68.135,154.457 L 68.078,154.561 L 68.019,154.672 L 67.958,154.792 L 67.958,154.792 L 67.937,154.837 L 67.916,154.884 L 67.896,154.935 L 67.877,154.989 L 67.858,155.047 L 67.840,155.108 L 67.822,155.171 L 67.805,155.238 L 67.789,155.308 L 67.772,155.381 L 67.757,155.456 L 67.742,155.535 L 67.727,155.616 L 67.713,155.699 L 67.699,155.785 L 67.686,155.874 L 67.674,155.965 L 67.661,156.058 L 67.650,156.154 L 67.639,156.251 L 67.628,156.351 L 67.618,156.453 L 67.608,156.557 L 67.598,156.663 L 67.590,156.770 L 67.581,156.880 L 67.573,156.991 L 67.566,157.103 L 67.559,157.218 L 67.552,157.333 L 67.546,157.451 L 67.540,157.569 L 67.535,157.689 L 67.530,157.810 L 67.526,157.932 L 67.522,158.055 L 67.518,158.179 L 67.515,158.304 L 67.512,158.430 L 67.510,158.556 L 67.508,158.684 L 67.506,158.812 L 67.505,158.940 L 67.504,159.069 L 67.504,159.199 L 67.504,159.329 L 67.504,159.459 L 67.505,159.589 L 67.506,159.719 L 67.507,159.850 L 67.509,159.980 L 67.511,160.111 L 67.514,160.241 L 67.517,160.371 L 67.520,160.501 L 67.524,160.630 L 67.528,160.759 L 67.532,160.888 L 67.537,161.016 L 67.542,161.143 L 67.547,161.270 L 67.553,161.396 L 67.559,161.521 L 67.565,161.645 L 67.572,161.768 L 67.578,161.890 L 67.586,162.011 L 67.593,162.130 L 67.601,162.249 L 67.609,162.366 L 67.618,162.481 L 67.626,162.596 L 67.635,162.708 L 67.645,162.819 L 67.654,162.929 L 67.664,163.036 L 67.674,163.142 L 67.684,163.246 L 67.695,163.347 L 67.706,163.447 L 67.717,163.545 L 67.728,163.640 L 67.740,163.734 L 67.752,163.824 L 67.764,163.913 L 67.777,163.999 L 67.789,164.082 L 67.802,164.163 L 67.815,164.241 L 67.828,164.317 L 67.842,164.389 L 67.856,164.459 L 67.870,164.526 L 67.884,164.590 L 67.898,164.650 L 67.913,164.708 L 67.928,164.762 L 67.942,164.813 L 67.958,164.860 L 67.958,164.860 L 68.006,165.000 L 68.059,165.138 L 68.115,165.275 L 68.174,165.411 L 68.237,165.545 L 68.304,165.678 L 68.374,165.810 L 68.447,165.941 L 68.523,166.070 L 68.603,166.199 L 68.686,166.326 L 68.772,166.452 L 68.861,166.576 L 68.953,166.700 L 69.047,166.822 L 69.145,166.943 L 69.245,167.063 L 69.348,167.182 L 69.453,167.300 L 69.561,167.416 L 69.672,167.532 L 69.785,167.646 L 69.900,167.759 L 70.018,167.871 L 70.137,167.982 L 70.259,168.092 L 70.383,168.201 L 70.509,168.308 L 70.637,168.415 L 70.767,168.520 L 70.899,168.625 L 71.032,168.728 L 71.167,168.831 L 71.304,168.932 L 71.442,169.032 L 71.582,169.132 L 71.723,169.230 L 71.866,169.327 L 72.010,169.424 L 72.155,169.519 L 72.301,169.613 L 72.449,169.707 L 72.597,169.799 L 72.746,169.890 L 72.897,169.981 L 73.048,170.070 L 73.200,170.159 L 73.352,170.247 L 73.505,170.333 L 73.659,170.419 L 73.814,170.504 L 73.968,170.588 L 74.124,170.671 L 74.279,170.754 L 74.435,170.835 L 74.591,170.916 L 74.747,170.995 L 74.903,171.074 L 75.059,171.152 L 75.215,171.229 L 75.371,171.306 L 75.526,171.381 L 75.682,171.456 L 75.837,171.530 L 75.992,171.603 L 76.146,171.675 L 76.299,171.747 L 76.452,171.817 L 76.605,171.887 L 76.756,171.957 L 76.907,172.025 L 77.057,172.093 L 77.206,172.160 L 77.354,172.226 L 77.501,172.292 L 77.647,172.357 L 77.792,172.421 L 77.935,172.484 L 78.078,172.547 L 78.218,172.609 L 78.358,172.670 L 78.495,172.731 L 78.632,172.791 L 78.766,172.851 L 78.899,172.910 L 79.030,172.968 L 79.159,173.025 L 79.287,173.082 L 79.412,173.138 L 79.535,173.194 L 79.656,173.249 L 79.775,173.304 L 79.892,173.358 L 80.007,173.411 L 80.119,173.464 L 80.229,173.516 L 80.336,173.568 L 80.440,173.619 L 80.542,173.669 L 80.542,173.669 L 80.688,173.743 L 80.830,173.817 L 80.969,173.891 L 81.105,173.966 L 81.238,174.041 L 81.368,174.116 L 81.495,174.191 L 81.619,174.266 L 81.740,174.342 L 81.859,174.417 L 81.974,174.493 L 82.088,174.570 L 82.198,174.646 L 82.306,174.722 L 82.412,174.799 L 82.516,174.876 L 82.617,174.953 L 82.716,175.030 L 82.812,175.108 L 82.907,175.185 L 83.000,175.263 L 83.090,175.340 L 83.179,175.418 L 83.266,175.496 L 83.351,175.574 L 83.434,175.653 L 83.516,175.731 L 83.597,175.809 L 83.675,175.888 L 83.753,175.966 L 83.829,176.045 L 83.903,176.124 L 83.977,176.202 L 84.049,176.281 L 84.120,176.360 L 84.190,176.439 L 84.259,176.518 L 84.327,176.597 L 84.395,176.676 L 84.461,176.755 L 84.527,176.834 L 84.592,176.913 L 84.657,176.992 L 84.721,177.071 L 84.784,177.150 L 84.848,177.229 L 84.910,177.308 L 84.973,177.386 L 85.036,177.465 L 85.098,177.544 L 85.160,177.623 L 85.222,177.702 L 85.285,177.780 L 85.347,177.859 L 85.410,177.937 L 85.473,178.016 L 85.536,178.094 L 85.599,178.172 L 85.663,178.250 L 85.728,178.328 L 85.793,178.406 L 85.859,178.484 L 85.926,178.562 L 85.993,178.639 L 86.061,178.717 L 86.130,178.794 L 86.200,178.871 L 86.271,178.948 L 86.344,179.025 L 86.417,179.101 L 86.492,179.178 L 86.568,179.254 L 86.645,179.330 L 86.724,179.406 L 86.804,179.481 L 86.886,179.557 L 86.969,179.632 L 87.055,179.707 L 87.141,179.782 L 87.230,179.856 L 87.321,179.931 L 87.414,180.005 L 87.508,180.079 L 87.605,180.152 L 87.704,180.225 L 87.805,180.298 L 87.908,180.371 L 88.014,180.444 L 88.122,180.516 L 88.233,180.588 L 88.346,180.659 L 88.462,180.731 L 88.581,180.802 L 88.702,180.872 L 88.826,180.942 L 88.953,181.012 L 89.083,181.082 L 89.216,181.151 L 89.352,181.220 L 89.352,181.220 L 89.508,181.297 L 89.666,181.371 L 89.826,181.443 L 89.988,181.513 L 90.151,181.580 L 90.316,181.645 L 90.482,181.708 L 90.651,181.769 L 90.820,181.828 L 90.991,181.885 L 91.164,181.939 L 91.338,181.992 L 91.513,182.043 L 91.690,182.091 L 91.868,182.138 L 92.047,182.183 L 92.228,182.226 L 92.410,182.267 L 92.593,182.307 L 92.777,182.344 L 92.962,182.380 L 93.149,182.414 L 93.336,182.447 L 93.525,182.478 L 93.714,182.507 L 93.905,182.535 L 94.096,182.561 L 94.289,182.585 L 94.482,182.609 L 94.676,182.630 L 94.871,182.651 L 95.067,182.670 L 95.263,182.687 L 95.460,182.704 L 95.658,182.719 L 95.856,182.732 L 96.056,182.745 L 96.255,182.756 L 96.455,182.766 L 96.656,182.776 L 96.857,182.784 L 97.059,182.790 L 97.261,182.796 L 97.463,182.801 L 97.666,182.805 L 97.869,182.808 L 98.073,182.810 L 98.276,182.812 L 98.480,182.812 L 98.684,182.812 L 98.888,182.811 L 99.093,182.809 L 99.297,182.806 L 99.501,182.803 L 99.706,182.799 L 99.910,182.794 L 100.115,182.789 L 100.319,182.784 L 100.523,182.778 L 100.728,182.771 L 100.931,182.764 L 101.135,182.756 L 101.339,182.749 L 101.542,182.740 L 101.745,182.732 L 101.947,182.723 L 102.150,182.714 L 102.351,182.704 L 102.553,182.695 L 102.754,182.685 L 102.954,182.675 L 103.154,182.666 L 103.353,182.656 L 103.552,182.646 L 103.750,182.636 L 103.947,182.626 L 104.144,182.616 L 104.340,182.606 L 104.535,182.596 L 104.730,182.587 L 104.923,182.577 L 105.116,182.568 L 105.308,182.559 L 105.499,182.551 L 105.689,182.543 L 105.878,182.535 L 106.065,182.527 L 106.252,182.520 L 106.438,182.514 L 106.623,182.507 L 106.806,182.502 L 106.989,182.497 L 107.170,182.492 L 107.350,182.488 L 107.528,182.485 L 107.705,182.482 L 107.881,182.480 L 108.056,182.479 L 108.229,182.479 Z" fill="#ffff00" stroke="#000000" stroke-width="1.2" stroke-opacity="1" fill-opacity="0.981132" /></g><g id="path393"><path d="M 180.895,134.852 L 181.255,137.083 L 181.459,139.327 L 181.504,141.562 L 181.390,143.767 L 181.118,145.918 L 180.690,147.995 L 180.112,149.977 L 179.388,151.844 L 178.526,153.578 L 177.534,155.161 L 176.423,156.578 L 175.203,157.815 L 173.887,158.859 L 172.487,159.700 L 171.017,160.330 L 169.493,160.742 L 167.928,160.932 L 166.340,160.899 L 164.743,160.643 L 163.154,160.165 L 161.587,159.472 L 160.060,158.570 L 158.586,157.467 L 157.181,156.176 L 155.859,154.708 L 154.632,153.078 L 153.514,151.302 L 152.514,149.399 L 151.643,147.387 L 150.910,145.286 L 150.322,143.116 L 149.884,140.900 L 149.602,138.660 L 149.477,136.417 L 149.512,134.195 L 149.705,132.014 L 150.055,129.897 L 150.559,127.865 L 151.211,125.938 L 152.005,124.136 L 152.933,122.475 L 153.986,120.973 L 155.153,119.644 L 156.423,118.503 L 157.783,117.559 L 159.219,116.822 L 160.718,116.301 L 162.264,115.999 L 163.843,115.921 L 165.437,116.066 L 167.032,116.433 L 168.612,117.019 L 170.161,117.818 L 171.663,118.822 L 173.104,120.020 L 174.470,121.402 L 175.746,122.953 L 176.920,124.657 L 177.981,126.499 L 178.917,128.459 L 179.720,130.518 L 180.382,132.656 L 180.895,134.852 Z" fill="#ffffff" stroke="#000000" stroke-width="1.2" stroke-opacity="1" /></g><g id="path1267"><path d="M 177.655,146.583 L 177.798,147.514 L 177.860,148.454 L 177.840,149.395 L 177.740,150.326 L 177.559,151.237 L 177.301,152.122 L 176.966,152.969 L 176.560,153.771 L 176.085,154.521 L 175.546,155.210 L 174.949,155.831 L 174.300,156.379 L 173.605,156.848 L 172.871,157.234 L 172.106,157.532 L 171.316,157.739 L 170.510,157.855 L 169.696,157.876 L 168.882,157.804 L 168.076,157.638 L 167.286,157.381 L 166.520,157.036 L 165.785,156.604 L 165.089,156.092 L 164.439,155.503 L 163.841,154.844 L 163.301,154.122 L 162.824,153.343 L 162.416,152.515 L 162.080,151.646 L 161.819,150.746 L 161.637,149.823 L 161.535,148.886 L 161.514,147.944 L 161.573,147.007 L 161.714,146.085 L 161.934,145.186 L 162.231,144.319 L 162.602,143.493 L 163.043,142.716 L 163.551,141.996 L 164.119,141.340 L 164.743,140.755 L 165.416,140.245 L 166.131,139.818 L 166.882,139.475 L 167.660,139.222 L 168.459,139.061 L 169.270,138.992 L 170.085,139.018 L 170.896,139.137 L 171.695,139.348 L 172.474,139.650 L 173.225,140.039 L 173.942,140.512 L 174.616,141.063 L 175.241,141.687 L 175.810,142.379 L 176.319,143.131 L 176.762,143.935 L 177.135,144.784 L 177.434,145.670 L 177.655,146.583 Z" fill="#2b0000" stroke="#000000" stroke-width="1.2" stroke-opacity="1" /></g><g id="path2136"><path d="M 135.871,205.123 L 135.871,205.123 L 135.871,205.123 L 135.871,205.123 L 135.871,205.123 L 135.871,205.123 L 135.871,205.123 L 135.871,205.123 L 135.871,205.123 L 135.871,205.123 L 135.871,205.123 L 135.871,205.123 L 135.871,205.123 L 135.871,205.123 L 135.871,205.123 L 135.871,205.123 L 135.871,205.123 L 135.871,205.123 L 135.871,205.123 L 135.871,205.123 L 135.871,205.123 L 135.871,205.123 L 135.871,205.123 L 135.871,205.123 L 135.871,205.123 L 135.871,205.123 L 135.871,205.123 L 135.871,205.123 L 135.871,205.123 L 135.871,205.123 L 135.871,205.123 L 135.871,205.123 L 135.871,205.123 L 135.871,205.123 L 135.871,205.123 L 135.871,205.123 L 135.871,205.123 L 135.871,205.123 L 135.871,205.123 L 135.871,205.123 L 135.871,205.123 L 135.871,205.123 L 135.871,205.123 L 135.871,205.123 L 135.871,205.123 L 135.871,205.123 L 135.871,205.123 L 135.871,205.123 L 135.871,205.123 L 135.871,205.123 L 135.871,205.123 L 135.871,205.123 L 135.871,205.123 L 135.871,205.123 L 135.871,205.123 L 135.871,205.123 L 135.871,205.123 L 135.871,205.123 L 135.871,205.123 L 135.871,205.123 L 135.871,205.123 L 135.871,205.123 L 135.871,205.123 L 135.871,205.123 L 135.871,205.123 L 135.871,205.123 L 135.871,205.123 L 135.871,205.123 L 135.871,205.123 L 135.871,205.123 L 135.871,205.123 L 135.871,205.123 L 135.871,205.123 L 135.871,205.123 L 135.871,205.123 L 135.871,205.123 L 135.871,205.123 L 135.871,205.123 L 135.871,205.123 L 135.871,205.123 L 135.871,205.123 L 135.871,205.123 L 135.871,205.123 L 135.871,205.123 L 135.871,205.123 L 135.871,205.123 L 135.871,205.123 L 135.871,205.123 L 135.871,205.123 L 135.871,205.123 L 135.871,205.123 L 135.871,205.123 L 135.871,205.123 L 135.871,205.123 L 135.871,205.123 L 135.871,205.123 L 135.871,205.123 L 135.871,205.123 L 135.871,205.123 L 135.871,205.123 L 135.871,205.123 L 136.027,205.262 L 136.185,205.399 L 136.345,205.533 L 136.506,205.666 L 136.669,205.797 L 136.833,205.926 L 136.999,206.053 L 137.166,206.179 L 137.335,206.302 L 137.505,206.423 L 137.676,206.542 L 137.849,206.660 L 138.023,206.775 L 138.198,206.888 L 138.375,206.999 L 138.553,207.108 L 138.732,207.215 L 138.912,207.320 L 139.093,207.423 L 139.276,207.524 L 139.459,207.623 L 139.644,207.719 L 139.829,207.813 L 140.016,207.906 L 140.203,207.996 L 140.391,208.083 L 140.580,208.169 L 140.770,208.253 L 140.961,208.334 L 141.153,208.413 L 141.345,208.489 L 141.538,208.564 L 141.732,208.636 L 141.926,208.706 L 142.121,208.773 L 142.317,208.839 L 142.513,208.902 L 142.710,208.962 L 142.907,209.020 L 143.104,209.076 L 143.302,209.130 L 143.501,209.181 L 143.700,209.229 L 143.899,209.276 L 144.098,209.319 L 144.298,209.361 L 144.498,209.400 L 144.698,209.436 L 144.899,209.470 L 145.099,209.501 L 145.300,209.530 L 145.501,209.556 L 145.701,209.580 L 145.902,209.602 L 146.103,209.620 L 146.304,209.636 L 146.505,209.650 L 146.705,209.661 L 146.906,209.669 L 147.106,209.675 L 147.306,209.677 L 147.506,209.678 L 147.706,209.675 L 147.905,209.670 L 148.104,209.663 L 148.303,209.652 L 148.501,209.639 L 148.699,209.623 L 148.897,209.604 L 149.094,209.583 L 149.290,209.559 L 149.486,209.531 L 149.682,209.502 L 149.877,209.469 L 150.071,209.433 L 150.264,209.395 L 150.457,209.354 L 150.649,209.310 L 150.840,209.263 L 151.031,209.213 L 151.221,209.160 L 151.410,209.104 L 151.598,209.046 L 151.785,208.984 L 151.971,208.919 L 152.156,208.852 L 152.340,208.781 L 152.523,208.708 L 152.705,208.631 L 152.886,208.551 L 153.066,208.469 L 153.245,208.383 L 153.422,208.294 L 153.599,208.202 L 153.774,208.107 L 153.947,208.009 L 154.120,207.908 L 154.291,207.803 L 154.461,207.696 L 154.461,207.696 L 154.469,207.690 L 154.478,207.683 L 154.487,207.677 L 154.495,207.669 L 154.504,207.662 L 154.512,207.654 L 154.520,207.645 L 154.528,207.636 L 154.536,207.627 L 154.544,207.618 L 154.552,207.608 L 154.559,207.597 L 154.567,207.587 L 154.574,207.576 L 154.581,207.565 L 154.589,207.553 L 154.596,207.541 L 154.603,207.529 L 154.610,207.517 L 154.616,207.504 L 154.623,207.491 L 154.630,207.478 L 154.636,207.465 L 154.643,207.451 L 154.649,207.438 L 154.656,207.423 L 154.662,207.409 L 154.668,207.395 L 154.674,207.380 L 154.681,207.365 L 154.687,207.350 L 154.693,207.335 L 154.699,207.320 L 154.705,207.304 L 154.710,207.289 L 154.716,207.273 L 154.722,207.257 L 154.728,207.241 L 154.734,207.225 L 154.739,207.209 L 154.745,207.193 L 154.751,207.177 L 154.756,207.160 L 154.762,207.144 L 154.767,207.127 L 154.773,207.111 L 154.779,207.094 L 154.784,207.078 L 154.790,207.061 L 154.795,207.044 L 154.801,207.028 L 154.806,207.011 L 154.812,206.995 L 154.818,206.978 L 154.823,206.962 L 154.829,206.945 L 154.834,206.929 L 154.840,206.913 L 154.846,206.896 L 154.851,206.880 L 154.857,206.864 L 154.863,206.848 L 154.869,206.832 L 154.875,206.817 L 154.880,206.801 L 154.886,206.786 L 154.892,206.770 L 154.898,206.755 L 154.904,206.740 L 154.911,206.725 L 154.917,206.711 L 154.923,206.696 L 154.929,206.682 L 154.936,206.668 L 154.942,206.654 L 154.949,206.641 L 154.955,206.627 L 154.962,206.614 L 154.969,206.601 L 154.975,206.589 L 154.982,206.576 L 154.989,206.564 L 154.996,206.552 L 155.004,206.541 L 155.011,206.530 L 155.018,206.519 L 155.026,206.508 L 155.033,206.498 L 155.041,206.488 L 155.049,206.478 L 155.057,206.469 L 155.065,206.460 L 155.073,206.452 L 155.081,206.444 L 155.090,206.436 L 155.098,206.429 L 155.107,206.422 L 155.116,206.416 L 155.124,206.410 L 155.124,206.410 L 155.137,206.402 L 155.150,206.394 L 155.163,206.387 L 155.176,206.381 L 155.189,206.375 L 155.202,206.370 L 155.215,206.365 L 155.228,206.361 L 155.241,206.357 L 155.254,206.354 L 155.268,206.351 L 155.281,206.348 L 155.294,206.346 L 155.308,206.345 L 155.321,206.343 L 155.334,206.342 L 155.348,206.342 L 155.361,206.342 L 155.375,206.342 L 155.388,206.342 L 155.402,206.343 L 155.416,206.344 L 155.429,206.346 L 155.443,206.348 L 155.457,206.350 L 155.471,206.352 L 155.484,206.355 L 155.498,206.357 L 155.512,206.360 L 155.526,206.364 L 155.540,206.367 L 155.553,206.371 L 155.567,206.374 L 155.581,206.378 L 155.595,206.382 L 155.609,206.387 L 155.623,206.391 L 155.637,206.396 L 155.651,206.400 L 155.665,206.405 L 155.679,206.410 L 155.693,206.414 L 155.707,206.419 L 155.721,206.424 L 155.735,206.429 L 155.749,206.434 L 155.762,206.439 L 155.776,206.444 L 155.790,206.449 L 155.804,206.454 L 155.818,206.459 L 155.832,206.464 L 155.846,206.469 L 155.860,206.474 L 155.874,206.478 L 155.888,206.483 L 155.902,206.487 L 155.915,206.491 L 155.929,206.496 L 155.943,206.500 L 155.957,206.503 L 155.971,206.507 L 155.984,206.511 L 155.998,206.514 L 156.012,206.517 L 156.025,206.520 L 156.039,206.522 L 156.053,206.525 L 156.066,206.527 L 156.080,206.529 L 156.093,206.530 L 156.107,206.532 L 156.120,206.533 L 156.133,206.533 L 156.147,206.533 L 156.160,206.533 L 156.173,206.533 L 156.187,206.532 L 156.200,206.531 L 156.213,206.530 L 156.226,206.528 L 156.239,206.525 L 156.252,206.523 L 156.265,206.519 L 156.278,206.516 L 156.291,206.511 L 156.304,206.507 L 156.316,206.502 L 156.329,206.496 L 156.342,206.490 L 156.354,206.483 L 156.367,206.476 L 156.379,206.468 L 156.391,206.460 L 156.404,206.451 L 156.416,206.442 L 156.428,206.432 L 156.440,206.421 L 156.452,206.410 L 156.452,206.410 L 156.691,206.178 L 156.918,205.955 L 157.136,205.741 L 157.343,205.534 L 157.540,205.336 L 157.728,205.147 L 157.906,204.964 L 158.075,204.790 L 158.235,204.623 L 158.386,204.464 L 158.528,204.312 L 158.662,204.167 L 158.788,204.029 L 158.905,203.897 L 159.015,203.773 L 159.117,203.655 L 159.211,203.543 L 159.298,203.437 L 159.378,203.337 L 159.452,203.244 L 159.519,203.156 L 159.579,203.073 L 159.633,202.996 L 159.681,202.924 L 159.723,202.858 L 159.760,202.796 L 159.791,202.739 L 159.817,202.686 L 159.838,202.639 L 159.854,202.595 L 159.866,202.556 L 159.873,202.520 L 159.876,202.489 L 159.875,202.461 L 159.871,202.437 L 159.862,202.416 L 159.851,202.399 L 159.836,202.384 L 159.818,202.373 L 159.798,202.364 L 159.775,202.358 L 159.750,202.355 L 159.722,202.354 L 159.693,202.355 L 159.662,202.358 L 159.629,202.363 L 159.595,202.369 L 159.560,202.377 L 159.524,202.387 L 159.488,202.398 L 159.451,202.410 L 159.413,202.423 L 159.376,202.436 L 159.338,202.451 L 159.301,202.465 L 159.265,202.481 L 159.229,202.496 L 159.194,202.511 L 159.160,202.526 L 159.128,202.541 L 159.097,202.556 L 159.068,202.570 L 159.041,202.583 L 159.016,202.595 L 158.994,202.606 L 158.974,202.617 L 158.956,202.625 L 158.942,202.632 L 158.931,202.638 L 158.924,202.641 L 158.920,202.643 L 158.919,202.643 L 158.923,202.640 L 158.931,202.635 L 158.944,202.627 L 158.961,202.617 L 158.983,202.603 L 159.010,202.587 L 159.042,202.567 L 159.079,202.544 L 159.123,202.518 L 159.172,202.487 L 159.227,202.453 L 159.288,202.415 L 159.356,202.373 L 159.431,202.327 L 159.512,202.276 L 159.600,202.221 L 159.696,202.161 L 159.800,202.096 L 159.910,202.026 L 160.029,201.950 L 160.156,201.870 L 160.292,201.783 L 160.435,201.692 L 160.588,201.594 L 160.749,201.490 L 160.920,201.381 L 161.100,201.265 Z" fill="#2b0000" stroke="#000000" stroke-width="1.2" stroke-opacity="1" fill-opacity="0" /></g></svg>