<?xml version='1.0' encoding='utf-8'?>
<svg xmlns="http://www.w3.org/2000/svg" width="210" height="297" viewBox="0 0 210 297"><g id="path2717"><path d="M 36.496,145.983 L 36.496,145.983 L 36.496,145.983 L 36.496,145.983 L 36.496,145.983 L 36.496,145.983 L 36.496,145.983 L 36.496,145.983 L 36.496,145.983 L 36.496,145.983 L 36.496,145.983 L 36.496,145.983 L 36.496,145.983 L 36.496,145.983 L 36.496,145.983 L 36.496,145.983 L 36.496,145.983 L 36.496,145.983 L 36.496,145.983 L 36.496,145.983 L 36.496,145.983 L 36.496,145.983 L 36.496,145.983 L 36.496,145.983 L 36.496,145.983 L 36.496,145.983 L 36.496,145.983 L 36.496,145.983 L 36.496,145.983 L 36.496,145.983 L 36.496,145.983 L 36.496,145.983 L 36.496,145.983 L 36.496,145.983 L 36.496,145.983 L 36.496,145.983 L 36.496,145.983 L 36.496,145.983 L 36.496,145.983 L 36.496,145.983 L 36.496,145.983 L 36.496,145.983 L 36.496,145.983 L 36.496,145.983 L 36.496,145.983 L 36.496,145.983 L 36.496,145.983 L 36.496,145.983 L 36.496,145.983 L 36.496,145.983 L 36.496,145.983 L 36.496,145.983 L 36.496,145.983 L 36.496,145.983 L 36.496,145.983 L 36.496,145.983 L 36.496,145.983 L 36.496,145.983 L 36.496,145.983 L 36.496,145.983 L 36.496,145.983 L 36.496,145.983 L 36.496,145.983 L 36.496,145.983 L 36.496,145.983 L 36.496,145.983 L 36.496,145.983 L 36.496,145.983 L 36.496,145.983 L 36.496,145.983 L 36.496,145.983 L 36.496,145.983 L 36.496,145.983 L 36.496,145.983 L 36.496,145.983 L 36.496,145.983 L 36.496,145.983 L 36.496,145.983 L 36.496,145.983 L 36.496,145.983 L 36.496,145.983 L 36.496,145.983 L 36.496,145.983 L 36.496,145.983 L 36.496,145.983 L 36.496,145.983 L 36.496,145.983 L 36.496,145.983 L 36.496,145.983 L 36.496,145.983 L 36.496,145.983 L 36.496,145.983 L 36.496,145.983 L 36.496,145.983 L 36.496,145.983 L 36.496,145.983 L 36.496,145.983 L 36.496,145.983 L 36.496,145.983 L 36.496,145.983 L 36.496,145.983 L 36.229,146.074 L 35.962,146.161 L 35.694,146.243 L 35.426,146.320 L 35.157,146.394 L 34.888,146.463 L 34.617,146.529 L 34.347,146.590 L 34.076,146.648 L 33.804,146.702 L 33.532,146.753 L 33.260,146.800 L 32.987,146.844 L 32.713,146.884 L 32.440,146.922 L 32.166,146.956 L 31.891,146.987 L 31.616,147.016 L 31.341,147.042 L 31.066,147.065 L 30.790,147.086 L 30.514,147.104 L 30.238,147.120 L 29.962,147.134 L 29.685,147.146 L 29.409,147.156 L 29.132,147.164 L 28.855,147.170 L 28.578,147.175 L 28.300,147.178 L 28.023,147.179 L 27.746,147.179 L 27.468,147.179 L 27.191,147.176 L 26.913,147.173 L 26.636,147.169 L 26.359,147.165 L 26.082,147.159 L 25.804,147.153 L 25.527,147.147 L 25.250,147.140 L 24.973,147.133 L 24.697,147.125 L 24.420,147.118 L 24.144,147.111 L 23.868,147.104 L 23.592,147.097 L 23.317,147.090 L 23.041,147.084 L 22.766,147.079 L 22.492,147.074 L 22.217,147.070 L 21.943,147.068 L 21.670,147.066 L 21.397,147.065 L 21.124,147.065 L 20.852,147.067 L 20.580,147.070 L 20.308,147.075 L 20.037,147.081 L 19.767,147.089 L 19.497,147.099 L 19.228,147.111 L 18.959,147.125 L 18.691,147.142 L 18.423,147.160 L 18.156,147.181 L 17.890,147.205 L 17.625,147.231 L 17.360,147.259 L 17.096,147.291 L 16.832,147.326 L 16.569,147.363 L 16.308,147.404 L 16.046,147.448 L 15.786,147.496 L 15.527,147.546 L 15.268,147.601 L 15.010,147.659 L 14.753,147.721 L 14.497,147.787 L 14.242,147.856 L 13.988,147.930 L 13.735,148.008 L 13.483,148.091 L 13.232,148.178 L 12.982,148.269 L 12.733,148.365 L 12.485,148.466 L 12.238,148.572 L 11.992,148.682 L 11.747,148.798 L 11.504,148.919 L 11.261,149.045 L 11.020,149.176 L 10.780,149.313 L 10.542,149.456 L 10.304,149.604 L 10.068,149.758 L 10.068,149.758 L 10.035,149.781 L 10.003,149.805 L 9.972,149.829 L 9.942,149.853 L 9.913,149.879 L 9.885,149.905 L 9.858,149.932 L 9.832,149.959 L 9.806,149.987 L 9.782,150.016 L 9.758,150.045 L 9.735,150.075 L 9.713,150.106 L 9.692,150.137 L 9.672,150.169 L 9.652,150.201 L 9.633,150.233 L 9.615,150.267 L 9.597,150.300 L 9.580,150.335 L 9.564,150.369 L 9.549,150.405 L 9.534,150.440 L 9.519,150.476 L 9.506,150.513 L 9.492,150.550 L 9.480,150.587 L 9.468,150.625 L 9.456,150.663 L 9.445,150.701 L 9.434,150.740 L 9.424,150.780 L 9.414,150.819 L 9.405,150.859 L 9.396,150.899 L 9.388,150.940 L 9.380,150.980 L 9.372,151.021 L 9.364,151.063 L 9.357,151.104 L 9.350,151.146 L 9.344,151.188 L 9.337,151.230 L 9.331,151.272 L 9.325,151.315 L 9.319,151.358 L 9.314,151.400 L 9.308,151.443 L 9.303,151.487 L 9.298,151.530 L 9.293,151.573 L 9.288,151.617 L 9.283,151.660 L 9.278,151.704 L 9.274,151.748 L 9.269,151.791 L 9.264,151.835 L 9.259,151.879 L 9.254,151.923 L 9.249,151.966 L 9.244,152.010 L 9.239,152.054 L 9.234,152.097 L 9.229,152.141 L 9.223,152.185 L 9.217,152.228 L 9.211,152.271 L 9.205,152.315 L 9.199,152.358 L 9.192,152.401 L 9.186,152.444 L 9.178,152.486 L 9.171,152.529 L 9.163,152.571 L 9.155,152.613 L 9.147,152.655 L 9.138,152.697 L 9.128,152.739 L 9.119,152.780 L 9.109,152.821 L 9.098,152.862 L 9.087,152.902 L 9.076,152.942 L 9.064,152.982 L 9.051,153.021 L 9.038,153.061 L 9.024,153.099 L 9.010,153.138 L 8.995,153.176 L 8.980,153.214 L 8.963,153.251 L 8.947,153.288 L 8.929,153.324 L 8.911,153.361 L 8.892,153.396 L 8.873,153.431 L 8.852,153.466 L 8.831,153.500 L 8.809,153.534 L 8.809,153.534 L 8.799,153.549 L 8.789,153.563 L 8.778,153.578 L 8.767,153.592 L 8.756,153.606 L 8.745,153.620 L 8.733,153.634 L 8.721,153.648 L 8.709,153.661 L 8.697,153.675 L 8.684,153.688 L 8.671,153.701 L 8.659,153.714 L 8.645,153.727 L 8.632,153.740 L 8.619,153.752 L 8.605,153.765 L 8.591,153.777 L 8.577,153.789 L 8.563,153.801 L 8.549,153.814 L 8.534,153.825 L 8.520,153.837 L 8.505,153.849 L 8.490,153.861 L 8.475,153.872 L 8.461,153.884 L 8.445,153.895 L 8.430,153.907 L 8.415,153.918 L 8.400,153.929 L 8.384,153.940 L 8.369,153.952 L 8.353,153.963 L 8.338,153.974 L 8.322,153.985 L 8.306,153.996 L 8.291,154.007 L 8.275,154.018 L 8.259,154.029 L 8.244,154.040 L 8.228,154.051 L 8.212,154.061 L 8.196,154.072 L 8.181,154.083 L 8.165,154.094 L 8.150,154.105 L 8.134,154.116 L 8.118,154.127 L 8.103,154.138 L 8.087,154.149 L 8.072,154.160 L 8.057,154.171 L 8.042,154.182 L 8.027,154.193 L 8.011,154.204 L 7.997,154.216 L 7.982,154.227 L 7.967,154.238 L 7.952,154.250 L 7.938,154.261 L 7.924,154.273 L 7.910,154.285 L 7.896,154.296 L 7.882,154.308 L 7.868,154.320 L 7.854,154.332 L 7.841,154.344 L 7.828,154.356 L 7.815,154.369 L 7.802,154.381 L 7.789,154.394 L 7.777,154.406 L 7.765,154.419 L 7.753,154.432 L 7.741,154.445 L 7.730,154.458 L 7.719,154.472 L 7.708,154.485 L 7.697,154.499 L 7.686,154.513 L 7.676,154.527 L 7.666,154.541 L 7.657,154.555 L 7.647,154.569 L 7.638,154.584 L 7.629,154.599 L 7.621,154.614 L 7.613,154.629 L 7.605,154.644 L 7.598,154.660 L 7.591,154.676 L 7.584,154.692 L 7.577,154.708 L 7.571,154.724 L 7.566,154.741 L 7.560,154.758 L 7.555,154.775 L 7.551,154.792 L 7.551,154.792 L 7.542,154.829 L 7.533,154.867 L 7.526,154.904 L 7.518,154.941 L 7.511,154.978 L 7.505,155.016 L 7.499,155.053 L 7.494,155.090 L 7.489,155.128 L 7.484,155.166 L 7.481,155.203 L 7.477,155.241 L 7.474,155.279 L 7.471,155.316 L 7.469,155.354 L 7.467,155.392 L 7.465,155.430 L 7.464,155.468 L 7.463,155.506 L 7.463,155.544 L 7.463,155.582 L 7.463,155.621 L 7.463,155.659 L 7.464,155.697 L 7.465,155.735 L 7.467,155.774 L 7.468,155.812 L 7.470,155.850 L 7.472,155.889 L 7.475,155.927 L 7.477,155.966 L 7.480,156.004 L 7.483,156.042 L 7.486,156.081 L 7.490,156.120 L 7.493,156.158 L 7.497,156.197 L 7.501,156.235 L 7.504,156.274 L 7.509,156.313 L 7.513,156.351 L 7.517,156.390 L 7.521,156.429 L 7.526,156.467 L 7.530,156.506 L 7.535,156.545 L 7.539,156.583 L 7.544,156.622 L 7.549,156.661 L 7.553,156.699 L 7.558,156.738 L 7.562,156.777 L 7.567,156.816 L 7.571,156.854 L 7.576,156.893 L 7.580,156.932 L 7.585,156.970 L 7.589,157.009 L 7.593,157.048 L 7.597,157.086 L 7.601,157.125 L 7.605,157.163 L 7.609,157.202 L 7.612,157.241 L 7.616,157.279 L 7.619,157.318 L 7.622,157.356 L 7.624,157.395 L 7.627,157.433 L 7.629,157.472 L 7.632,157.510 L 7.633,157.548 L 7.635,157.587 L 7.636,157.625 L 7.637,157.663 L 7.638,157.701 L 7.639,157.740 L 7.639,157.778 L 7.639,157.816 L 7.638,157.854 L 7.638,157.892 L 7.636,157.930 L 7.635,157.968 L 7.633,158.006 L 7.631,158.044 L 7.628,158.082 L 7.625,158.119 L 7.621,158.157 L 7.617,158.195 L 7.613,158.232 L 7.608,158.270 L 7.603,158.307 L 7.597,158.345 L 7.590,158.382 L 7.583,158.419 L 7.576,158.457 L 7.568,158.494 L 7.560,158.531 L 7.551,158.568 L 7.551,158.568 L 7.496,158.786 L 7.443,158.993 L 7.392,159.190 L 7.343,159.377 L 7.296,159.553 L 7.250,159.720 L 7.206,159.878 L 7.164,160.026 L 7.124,160.164 L 7.085,160.294 L 7.047,160.415 L 7.011,160.528 L 6.977,160.632 L 6.944,160.728 L 6.913,160.816 L 6.882,160.896 L 6.853,160.968 L 6.826,161.033 L 6.799,161.091 L 6.774,161.142 L 6.750,161.186 L 6.727,161.223 L 6.705,161.254 L 6.685,161.279 L 6.665,161.298 L 6.646,161.311 L 6.628,161.318 L 6.611,161.320 L 6.594,161.316 L 6.579,161.308 L 6.564,161.295 L 6.550,161.277 L 6.536,161.254 L 6.524,161.228 L 6.511,161.197 L 6.500,161.163 L 6.488,161.124 L 6.478,161.083 L 6.467,161.038 L 6.457,160.990 L 6.447,160.939 L 6.438,160.885 L 6.429,160.829 L 6.420,160.771 L 6.411,160.711 L 6.402,160.648 L 6.394,160.584 L 6.385,160.519 L 6.376,160.452 L 6.368,160.384 L 6.359,160.316 L 6.350,160.246 L 6.341,160.176 L 6.332,160.106 L 6.323,160.036 L 6.313,159.965 L 6.303,159.895 L 6.292,159.826 L 6.281,159.757 L 6.270,159.689 L 6.258,159.622 L 6.246,159.557 L 6.233,159.492 L 6.219,159.430 L 6.205,159.369 L 6.190,159.311 L 6.175,159.255 L 6.158,159.201 L 6.141,159.150 L 6.123,159.101 L 6.104,159.056 L 6.084,159.014 L 6.063,158.975 L 6.040,158.940 L 6.017,158.909 L 5.993,158.882 L 5.968,158.859 L 5.941,158.841 L 5.913,158.827 L 5.884,158.818 L 5.854,158.814 L 5.822,158.815 L 5.789,158.822 L 5.754,158.834 L 5.718,158.853 L 5.681,158.877 L 5.641,158.907 L 5.601,158.944 L 5.558,158.987 L 5.514,159.037 L 5.468,159.094 L 5.420,159.158 L 5.371,159.230 L 5.320,159.309 L 5.266,159.396 L 5.211,159.491 L 5.154,159.595 L 5.095,159.706 L 5.034,159.826 L 5.034,159.826 L 5.013,159.870 L 4.993,159.918 L 4.973,159.969 L 4.953,160.023 L 4.935,160.081 L 4.916,160.142 L 4.899,160.205 L 4.882,160.272 L 4.865,160.342 L 4.849,160.415 L 4.833,160.490 L 4.818,160.569 L 4.803,160.649 L 4.789,160.733 L 4.776,160.819 L 4.762,160.908 L 4.750,160.999 L 4.738,161.092 L 4.726,161.188 L 4.715,161.285 L 4.704,161.385 L 4.694,161.487 L 4.684,161.591 L 4.675,161.697 L 4.666,161.804 L 4.657,161.914 L 4.650,162.025 L 4.642,162.137 L 4.635,162.252 L 4.628,162.367 L 4.622,162.484 L 4.616,162.603 L 4.611,162.723 L 4.606,162.844 L 4.602,162.966 L 4.598,163.089 L 4.594,163.213 L 4.591,163.338 L 4.588,163.464 L 4.586,163.590 L 4.584,163.718 L 4.582,163.846 L 4.581,163.974 L 4.580,164.103 L 4.580,164.233 L 4.580,164.362 L 4.580,164.493 L 4.581,164.623 L 4.582,164.753 L 4.584,164.884 L 4.585,165.014 L 4.588,165.145 L 4.590,165.275 L 4.593,165.405 L 4.596,165.535 L 4.600,165.664 L 4.604,165.793 L 4.608,165.922 L 4.613,166.050 L 4.618,166.177 L 4.623,166.304 L 4.629,166.430 L 4.635,166.555 L 4.641,166.679 L 4.648,166.802 L 4.655,166.924 L 4.662,167.045 L 4.670,167.164 L 4.677,167.283 L 4.685,167.400 L 4.694,167.515 L 4.703,167.630 L 4.712,167.742 L 4.721,167.853 L 4.730,167.962 L 4.740,168.070 L 4.750,168.176 L 4.761,168.280 L 4.771,168.381 L 4.782,168.481 L 4.793,168.579 L 4.805,168.674 L 4.816,168.767 L 4.828,168.858 L 4.840,168.947 L 4.853,169.033 L 4.865,169.116 L 4.878,169.197 L 4.891,169.275 L 4.905,169.351 L 4.918,169.423 L 4.932,169.493 L 4.946,169.560 L 4.960,169.624 L 4.974,169.684 L 4.989,169.742 L 5.004,169.796 L 5.019,169.847 L 5.034,169.894 L 5.034,169.894 L 5.083,170.034 L 5.135,170.172 L 5.191,170.309 L 5.250,170.445 L 5.313,170.579 L 5.380,170.712 L 5.450,170.844 L 5.523,170.975 L 5.600,171.104 L 5.679,171.233 L 5.762,171.360 L 5.848,171.486 L 5.937,171.610 L 6.029,171.734 L 6.123,171.856 L 6.221,171.977 L 6.321,172.097 L 6.424,172.216 L 6.530,172.334 L 6.638,172.450 L 6.748,172.566 L 6.861,172.680 L 6.976,172.793 L 7.094,172.905 L 7.214,173.016 L 7.336,173.126 L 7.460,173.234 L 7.586,173.342 L 7.714,173.449 L 7.843,173.554 L 7.975,173.659 L 8.108,173.762 L 8.244,173.865 L 8.380,173.966 L 8.519,174.066 L 8.658,174.166 L 8.800,174.264 L 8.942,174.361 L 9.086,174.457 L 9.231,174.553 L 9.377,174.647 L 9.525,174.740 L 9.673,174.833 L 9.823,174.924 L 9.973,175.015 L 10.124,175.104 L 10.276,175.193 L 10.428,175.281 L 10.582,175.367 L 10.736,175.453 L 10.890,175.538 L 11.045,175.622 L 11.200,175.705 L 11.355,175.788 L 11.511,175.869 L 11.667,175.950 L 11.823,176.029 L 11.979,176.108 L 12.135,176.186 L 12.291,176.263 L 12.447,176.340 L 12.603,176.415 L 12.758,176.490 L 12.913,176.564 L 13.068,176.637 L 13.222,176.709 L 13.376,176.781 L 13.529,176.851 L 13.681,176.921 L 13.833,176.991 L 13.984,177.059 L 14.133,177.127 L 14.283,177.194 L 14.431,177.260 L 14.578,177.326 L 14.724,177.391 L 14.868,177.455 L 15.012,177.518 L 15.154,177.581 L 15.295,177.643 L 15.434,177.704 L 15.572,177.765 L 15.708,177.825 L 15.842,177.885 L 15.975,177.943 L 16.106,178.002 L 16.235,178.059 L 16.363,178.116 L 16.488,178.172 L 16.611,178.228 L 16.733,178.283 L 16.852,178.338 L 16.968,178.392 L 17.083,178.445 L 17.195,178.498 L 17.305,178.550 L 17.412,178.602 L 17.517,178.653 L 17.619,178.703 L 17.619,178.703 L 17.764,178.777 L 17.906,178.851 L 18.046,178.925 L 18.181,179.000 L 18.314,179.074 L 18.444,179.149 L 18.571,179.225 L 18.695,179.300 L 18.816,179.376 L 18.935,179.451 L 19.051,179.527 L 19.164,179.603 L 19.275,179.680 L 19.383,179.756 L 19.488,179.833 L 19.592,179.910 L 19.693,179.987 L 19.792,180.064 L 19.889,180.142 L 19.983,180.219 L 20.076,180.297 L 20.166,180.374 L 20.255,180.452 L 20.342,180.530 L 20.427,180.608 L 20.511,180.686 L 20.593,180.765 L 20.673,180.843 L 20.752,180.922 L 20.829,181.000 L 20.905,181.079 L 20.980,181.157 L 21.053,181.236 L 21.125,181.315 L 21.196,181.394 L 21.266,181.473 L 21.335,181.552 L 21.404,181.631 L 21.471,181.710 L 21.537,181.789 L 21.603,181.868 L 21.668,181.947 L 21.733,182.026 L 21.797,182.105 L 21.861,182.184 L 21.924,182.263 L 21.987,182.341 L 22.049,182.420 L 22.112,182.499 L 22.174,182.578 L 22.236,182.657 L 22.299,182.736 L 22.361,182.814 L 22.423,182.893 L 22.486,182.971 L 22.549,183.050 L 22.612,183.128 L 22.676,183.206 L 22.740,183.284 L 22.804,183.362 L 22.869,183.440 L 22.935,183.518 L 23.002,183.596 L 23.069,183.673 L 23.137,183.751 L 23.206,183.828 L 23.277,183.905 L 23.348,183.982 L 23.420,184.059 L 23.493,184.135 L 23.568,184.212 L 23.644,184.288 L 23.721,184.364 L 23.800,184.440 L 23.880,184.515 L 23.962,184.591 L 24.046,184.666 L 24.131,184.741 L 24.218,184.816 L 24.307,184.890 L 24.397,184.965 L 24.490,185.039 L 24.584,185.113 L 24.681,185.186 L 24.780,185.259 L 24.881,185.332 L 24.985,185.405 L 25.090,185.478 L 25.199,185.550 L 25.309,185.622 L 25.423,185.693 L 25.538,185.764 L 25.657,185.835 L 25.778,185.906 L 25.902,185.976 L 26.029,186.046 L 26.159,186.116 L 26.292,186.185 L 26.428,186.254 L 26.428,186.254 L 26.584,186.331 L 26.743,186.405 L 26.903,186.477 L 27.064,186.547 L 27.227,186.614 L 27.392,186.679 L 27.559,186.742 L 27.727,186.803 L 27.896,186.862 L 28.067,186.919 L 28.240,186.973 L 28.414,187.026 L 28.589,187.077 L 28.766,187.125 L 28.944,187.172 L 29.123,187.217 L 29.304,187.260 L 29.486,187.301 L 29.669,187.340 L 29.853,187.378 L 30.038,187.414 L 30.225,187.448 L 30.412,187.481 L 30.601,187.512 L 30.791,187.541 L 30.981,187.569 L 31.173,187.595 L 31.365,187.619 L 31.558,187.643 L 31.752,187.664 L 31.947,187.685 L 32.143,187.704 L 32.339,187.721 L 32.536,187.737 L 32.734,187.752 L 32.933,187.766 L 33.132,187.779 L 33.331,187.790 L 33.532,187.800 L 33.732,187.809 L 33.934,187.817 L 34.135,187.824 L 34.337,187.830 L 34.540,187.835 L 34.742,187.839 L 34.945,187.842 L 35.149,187.844 L 35.353,187.846 L 35.556,187.846 L 35.760,187.846 L 35.965,187.844 L 36.169,187.843 L 36.373,187.840 L 36.578,187.837 L 36.782,187.833 L 36.987,187.828 L 37.191,187.823 L 37.395,187.818 L 37.600,187.811 L 37.804,187.805 L 38.008,187.798 L 38.211,187.790 L 38.415,187.782 L 38.618,187.774 L 38.821,187.766 L 39.024,187.757 L 39.226,187.748 L 39.428,187.738 L 39.629,187.729 L 39.830,187.719 L 40.030,187.709 L 40.230,187.699 L 40.429,187.689 L 40.628,187.679 L 40.826,187.669 L 41.024,187.660 L 41.220,187.650 L 41.416,187.640 L 41.611,187.630 L 41.806,187.621 L 41.999,187.611 L 42.192,187.602 L 42.384,187.593 L 42.575,187.585 L 42.765,187.577 L 42.954,187.569 L 43.142,187.561 L 43.329,187.554 L 43.514,187.547 L 43.699,187.541 L 43.883,187.536 L 44.065,187.530 L 44.246,187.526 L 44.426,187.522 L 44.604,187.519 L 44.782,187.516 L 44.957,187.514 L 45.132,187.513 L 45.305,187.513 Z" fill="#ffff00" stroke="#000000" stroke-width="1.2" stroke-opacity="1" fill-opacity="0.981132" /></g><g id="path2147"><path d="M 166.119,143.466 L 166.119,143.466 L 166.119,143.466 L 166.119,143.466 L 166.119,143.466 L 166.119,143.466 L 166.119,143.466 L 166.119,143.466 L 166.119,143.466 L 166.119,143.466 L 166.119,143.466 L 166.119,143.466 L 166.119,143.466 L 166.119,143.466 L 166.119,143.466 L 166.119,143.466 L 166.119,143.466 L 166.119,143.466 L 166.119,143.466 L 166.119,143.466 L 166.119,143.466 L 166.119,143.466 L 166.119,143.466 L 166.119,143.466 L 166.119,143.466 L 166.119,143.466 L 166.119,143.466 L 166.119,143.466 L 166.119,143.466 L 166.119,143.466 L 166.119,143.466 L 166.119,143.466 L 166.119,143.466 L 166.119,143.466 L 166.119,143.466 L 166.119,143.466 L 166.119,143.466 L 166.119,143.466 L 166.119,143.466 L 166.119,143.466 L 166.119,143.466 L 166.119,143.466 L 166.119,143.466 L 166.119,143.466 L 166.119,143.466 L 166.119,143.466 L 166.119,143.466 L 166.119,143.466 L 166.119,143.466 L 166.119,143.466 L 166.119,143.466 L 166.119,143.466 L 166.119,143.466 L 166.119,143.466 L 166.119,143.466 L 166.119,143.466 L 166.119,143.466 L 166.119,143.466 L 166.119,143.466 L 166.119,143.466 L 166.119,143.466 L 166.119,143.466 L 166.119,143.466 L 166.119,143.466 L 166.119,143.466 L 166.119,143.466 L 166.119,143.466 L 166.119,143.466 L 166.119,143.466 L 166.119,143.466 L 166.119,143.466 L 166.119,143.466 L 166.119,143.466 L 166.119,143.466 L 166.119,143.466 L 166.119,143.466 L 166.119,143.466 L 166.119,143.466 L 166.119,143.466 L 166.119,143.466 L 166.119,143.466 L 166.119,143.466 L 166.119,143.466 L 166.119,143.466 L 166.119,143.466 L 166.119,143.466 L 166.119,143.466 L 166.119,143.466 L 166.119,143.466 L 166.119,143.466 L 166.119,143.466 L 166.119,143.466 L 166.119,143.466 L 166.119,143.466 L 166.119,143.466 L 166.119,143.466 L 166.119,143.466 L 166.119,143.466 L 166.119,143.466 L 166.119,143.466 L 166.119,143.466 L 166.208,143.479 L 166.297,143.491 L 166.386,143.504 L 166.475,143.516 L 166.564,143.528 L 166.653,143.540 L 166.742,143.552 L 166.831,143.563 L 166.921,143.575 L 167.010,143.586 L 167.099,143.598 L 167.188,143.609 L 167.277,143.620 L 167.367,143.631 L 167.456,143.642 L 167.545,143.653 L 167.635,143.664 L 167.724,143.675 L 167.813,143.686 L 167.903,143.696 L 167.992,143.707 L 168.082,143.717 L 168.171,143.728 L 168.260,143.738 L 168.350,143.749 L 168.439,143.759 L 168.529,143.769 L 168.618,143.779 L 168.708,143.790 L 168.797,143.800 L 168.886,143.810 L 168.976,143.820 L 169.065,143.831 L 169.155,143.841 L 169.244,143.851 L 169.334,143.861 L 169.423,143.871 L 169.513,143.882 L 169.602,143.892 L 169.691,143.902 L 169.781,143.913 L 169.870,143.923 L 169.960,143.933 L 170.049,143.944 L 170.138,143.954 L 170.228,143.965 L 170.317,143.976 L 170.407,143.986 L 170.496,143.997 L 170.585,144.008 L 170.675,144.019 L 170.764,144.030 L 170.853,144.041 L 170.942,144.052 L 171.032,144.063 L 171.121,144.075 L 171.210,144.086 L 171.299,144.098 L 171.389,144.110 L 171.478,144.121 L 171.567,144.133 L 171.656,144.145 L 171.745,144.158 L 171.834,144.170 L 171.923,144.182 L 172.012,144.195 L 172.101,144.208 L 172.190,144.221 L 172.279,144.234 L 172.368,144.247 L 172.457,144.261 L 172.545,144.274 L 172.634,144.288 L 172.723,144.302 L 172.812,144.316 L 172.900,144.331 L 172.989,144.345 L 173.078,144.360 L 173.166,144.375 L 173.255,144.390 L 173.343,144.405 L 173.432,144.421 L 173.520,144.437 L 173.608,144.453 L 173.697,144.469 L 173.785,144.486 L 173.873,144.503 L 173.961,144.520 L 174.049,144.537 L 174.138,144.554 L 174.226,144.572 L 174.314,144.590 L 174.401,144.609 L 174.489,144.627 L 174.577,144.646 L 174.665,144.665 L 174.753,144.685 L 174.840,144.705 L 174.928,144.725 L 174.928,144.725 L 175.085,144.761 L 175.241,144.797 L 175.398,144.834 L 175.555,144.871 L 175.711,144.908 L 175.868,144.945 L 176.025,144.982 L 176.181,145.020 L 176.338,145.057 L 176.495,145.095 L 176.651,145.133 L 176.808,145.172 L 176.965,145.210 L 177.121,145.249 L 177.278,145.288 L 177.434,145.327 L 177.590,145.367 L 177.747,145.406 L 177.903,145.446 L 178.060,145.487 L 178.216,145.527 L 178.372,145.568 L 178.528,145.609 L 178.684,145.650 L 178.840,145.691 L 178.996,145.733 L 179.152,145.775 L 179.308,145.817 L 179.464,145.860 L 179.620,145.902 L 179.775,145.946 L 179.931,145.989 L 180.086,146.033 L 180.242,146.077 L 180.397,146.121 L 180.552,146.165 L 180.708,146.210 L 180.863,146.256 L 181.018,146.301 L 181.172,146.347 L 181.327,146.393 L 181.482,146.440 L 181.636,146.486 L 181.791,146.534 L 181.945,146.581 L 182.099,146.629 L 182.253,146.677 L 182.407,146.726 L 182.561,146.774 L 182.715,146.824 L 182.868,146.873 L 183.022,146.923 L 183.175,146.974 L 183.328,147.024 L 183.481,147.076 L 183.634,147.127 L 183.787,147.179 L 183.939,147.231 L 184.092,147.284 L 184.244,147.337 L 184.396,147.390 L 184.548,147.444 L 184.700,147.499 L 184.851,147.553 L 185.003,147.608 L 185.154,147.664 L 185.305,147.720 L 185.456,147.776 L 185.607,147.833 L 185.757,147.890 L 185.908,147.948 L 186.058,148.006 L 186.208,148.065 L 186.357,148.124 L 186.507,148.183 L 186.656,148.243 L 186.806,148.304 L 186.955,148.365 L 187.103,148.426 L 187.252,148.488 L 187.400,148.550 L 187.548,148.613 L 187.696,148.676 L 187.844,148.740 L 187.991,148.804 L 188.138,148.869 L 188.285,148.934 L 188.432,149.000 L 188.578,149.066 L 188.725,149.133 L 188.871,149.201 L 189.016,149.268 L 189.162,149.337 L 189.307,149.406 L 189.452,149.475 L 189.597,149.545 L 189.741,149.616 L 189.886,149.687 L 190.030,149.758 L 190.030,149.758 L 190.041,149.764 L 190.051,149.771 L 190.061,149.777 L 190.070,149.785 L 190.078,149.792 L 190.086,149.800 L 190.093,149.808 L 190.100,149.817 L 190.106,149.826 L 190.111,149.835 L 190.116,149.845 L 190.120,149.855 L 190.124,149.865 L 190.128,149.876 L 190.131,149.887 L 190.133,149.898 L 190.135,149.910 L 190.136,149.921 L 190.137,149.934 L 190.138,149.946 L 190.138,149.958 L 190.138,149.971 L 190.137,149.984 L 190.136,149.998 L 190.135,150.011 L 190.133,150.025 L 190.131,150.039 L 190.129,150.053 L 190.126,150.067 L 190.123,150.082 L 190.120,150.097 L 190.117,150.111 L 190.113,150.126 L 190.109,150.142 L 190.105,150.157 L 190.101,150.172 L 190.096,150.188 L 190.092,150.203 L 190.087,150.219 L 190.082,150.235 L 190.077,150.251 L 190.071,150.267 L 190.066,150.283 L 190.061,150.299 L 190.055,150.315 L 190.049,150.331 L 190.044,150.347 L 190.038,150.363 L 190.033,150.380 L 190.027,150.396 L 190.021,150.412 L 190.015,150.428 L 190.010,150.444 L 190.004,150.461 L 189.999,150.477 L 189.993,150.493 L 189.988,150.509 L 189.983,150.525 L 189.978,150.541 L 189.973,150.556 L 189.968,150.572 L 189.963,150.588 L 189.959,150.603 L 189.954,150.619 L 189.950,150.634 L 189.946,150.649 L 189.943,150.664 L 189.939,150.679 L 189.936,150.693 L 189.933,150.708 L 189.930,150.722 L 189.928,150.736 L 189.926,150.750 L 189.924,150.764 L 189.923,150.778 L 189.922,150.791 L 189.922,150.804 L 189.921,150.817 L 189.922,150.830 L 189.922,150.842 L 189.923,150.854 L 189.925,150.866 L 189.926,150.877 L 189.929,150.889 L 189.932,150.900 L 189.935,150.910 L 189.939,150.921 L 189.943,150.931 L 189.948,150.940 L 189.954,150.950 L 189.960,150.959 L 189.966,150.967 L 189.973,150.975 L 189.981,150.983 L 189.990,150.991 L 189.999,150.998 L 190.008,151.005 L 190.019,151.011 L 190.030,151.017 L 190.030,151.017 L 190.063,151.033 L 190.097,151.048 L 190.132,151.064 L 190.169,151.078 L 190.206,151.092 L 190.245,151.106 L 190.285,151.120 L 190.325,151.133 L 190.367,151.145 L 190.409,151.158 L 190.453,151.169 L 190.497,151.181 L 190.543,151.192 L 190.589,151.203 L 190.636,151.214 L 190.684,151.224 L 190.732,151.234 L 190.781,151.244 L 190.832,151.253 L 190.882,151.263 L 190.934,151.272 L 190.986,151.281 L 191.039,151.289 L 191.092,151.298 L 191.146,151.306 L 191.201,151.314 L 191.256,151.322 L 191.312,151.330 L 191.368,151.337 L 191.424,151.345 L 191.481,151.352 L 191.539,151.360 L 191.597,151.367 L 191.655,151.374 L 191.713,151.381 L 191.772,151.388 L 191.831,151.395 L 191.891,151.402 L 191.951,151.409 L 192.011,151.416 L 192.071,151.423 L 192.131,151.430 L 192.191,151.437 L 192.252,151.444 L 192.313,151.451 L 192.373,151.459 L 192.434,151.466 L 192.495,151.474 L 192.556,151.481 L 192.617,151.489 L 192.678,151.497 L 192.738,151.505 L 192.799,151.513 L 192.859,151.521 L 192.920,151.530 L 192.980,151.538 L 193.040,151.547 L 193.100,151.556 L 193.159,151.566 L 193.219,151.575 L 193.278,151.585 L 193.336,151.595 L 193.395,151.606 L 193.453,151.617 L 193.510,151.628 L 193.567,151.639 L 193.624,151.651 L 193.680,151.663 L 193.736,151.675 L 193.791,151.688 L 193.846,151.701 L 193.900,151.715 L 193.954,151.729 L 194.007,151.743 L 194.059,151.758 L 194.111,151.773 L 194.162,151.789 L 194.213,151.805 L 194.262,151.822 L 194.311,151.839 L 194.359,151.856 L 194.406,151.875 L 194.453,151.893 L 194.498,151.913 L 194.543,151.933 L 194.587,151.953 L 194.630,151.974 L 194.672,151.995 L 194.713,152.018 L 194.753,152.040 L 194.792,152.064 L 194.830,152.088 L 194.866,152.113 L 194.902,152.138 L 194.937,152.164 L 194.970,152.191 L 195.003,152.218 L 195.034,152.247 L 195.064,152.275 L 195.064,152.275 L 195.090,152.306 L 195.115,152.343 L 195.137,152.384 L 195.156,152.432 L 195.174,152.484 L 195.189,152.542 L 195.202,152.605 L 195.213,152.673 L 195.222,152.746 L 195.229,152.823 L 195.234,152.906 L 195.237,152.992 L 195.238,153.083 L 195.237,153.179 L 195.234,153.278 L 195.230,153.382 L 195.224,153.489 L 195.216,153.601 L 195.206,153.716 L 195.195,153.834 L 195.182,153.956 L 195.168,154.082 L 195.152,154.211 L 195.134,154.343 L 195.115,154.478 L 195.095,154.616 L 195.074,154.756 L 195.051,154.900 L 195.027,155.045 L 195.001,155.194 L 194.974,155.345 L 194.947,155.498 L 194.918,155.653 L 194.888,155.810 L 194.857,155.969 L 194.825,156.130 L 194.792,156.292 L 194.758,156.456 L 194.723,156.621 L 194.688,156.788 L 194.651,156.956 L 194.614,157.125 L 194.576,157.295 L 194.538,157.466 L 194.498,157.638 L 194.459,157.810 L 194.418,157.983 L 194.378,158.156 L 194.336,158.329 L 194.294,158.503 L 194.252,158.677 L 194.210,158.851 L 194.167,159.024 L 194.124,159.197 L 194.081,159.370 L 194.037,159.543 L 193.993,159.714 L 193.949,159.885 L 193.906,160.056 L 193.862,160.225 L 193.818,160.393 L 193.774,160.560 L 193.730,160.726 L 193.686,160.890 L 193.643,161.052 L 193.600,161.214 L 193.557,161.373 L 193.514,161.530 L 193.471,161.686 L 193.429,161.839 L 193.388,161.990 L 193.346,162.139 L 193.306,162.285 L 193.265,162.429 L 193.226,162.570 L 193.187,162.709 L 193.148,162.844 L 193.110,162.977 L 193.073,163.106 L 193.037,163.232 L 193.002,163.355 L 192.967,163.474 L 192.933,163.590 L 192.901,163.702 L 192.869,163.810 L 192.838,163.914 L 192.808,164.014 L 192.779,164.110 L 192.752,164.202 L 192.725,164.289 L 192.700,164.372 L 192.676,164.451 L 192.654,164.524 L 192.632,164.593 L 192.612,164.657 L 192.594,164.716 L 192.576,164.769 L 192.561,164.817 L 192.547,164.860 L 192.547,164.860 L 192.526,164.916 L 192.503,164.975 L 192.476,165.036 L 192.445,165.100 L 192.412,165.165 L 192.375,165.233 L 192.334,165.303 L 192.291,165.375 L 192.245,165.449 L 192.195,165.524 L 192.143,165.602 L 192.088,165.682 L 192.030,165.763 L 191.969,165.847 L 191.906,165.932 L 191.840,166.018 L 191.772,166.106 L 191.701,166.196 L 191.628,166.287 L 191.552,166.380 L 191.474,166.474 L 191.394,166.569 L 191.312,166.666 L 191.228,166.764 L 191.141,166.863 L 191.053,166.963 L 190.963,167.064 L 190.871,167.166 L 190.777,167.269 L 190.682,167.373 L 190.585,167.478 L 190.486,167.584 L 190.386,167.690 L 190.284,167.797 L 190.182,167.905 L 190.077,168.013 L 189.972,168.122 L 189.866,168.231 L 189.758,168.341 L 189.649,168.451 L 189.539,168.562 L 189.429,168.672 L 189.317,168.783 L 189.205,168.894 L 189.092,169.005 L 188.979,169.116 L 188.865,169.227 L 188.750,169.338 L 188.635,169.449 L 188.519,169.560 L 188.404,169.671 L 188.288,169.781 L 188.171,169.891 L 188.055,170.001 L 187.938,170.110 L 187.822,170.218 L 187.706,170.326 L 187.589,170.434 L 187.473,170.541 L 187.357,170.647 L 187.242,170.752 L 187.127,170.857 L 187.012,170.961 L 186.898,171.063 L 186.785,171.165 L 186.672,171.266 L 186.560,171.366 L 186.448,171.464 L 186.338,171.562 L 186.228,171.658 L 186.119,171.753 L 186.012,171.846 L 185.905,171.939 L 185.800,172.029 L 185.696,172.119 L 185.593,172.206 L 185.492,172.292 L 185.392,172.377 L 185.293,172.459 L 185.196,172.540 L 185.101,172.619 L 185.007,172.696 L 184.915,172.772 L 184.825,172.845 L 184.737,172.916 L 184.651,172.985 L 184.567,173.052 L 184.485,173.117 L 184.405,173.180 L 184.327,173.240 L 184.252,173.298 L 184.178,173.353 L 184.108,173.406 L 184.039,173.457 L 183.974,173.505 L 183.910,173.550 L 183.850,173.593 L 183.792,173.632 L 183.737,173.669 L 183.737,173.669 L 183.705,173.690 L 183.672,173.711 L 183.637,173.731 L 183.602,173.750 L 183.565,173.769 L 183.527,173.787 L 183.488,173.805 L 183.449,173.823 L 183.408,173.840 L 183.366,173.857 L 183.324,173.873 L 183.280,173.889 L 183.236,173.905 L 183.191,173.920 L 183.145,173.935 L 183.098,173.949 L 183.050,173.963 L 183.002,173.977 L 182.953,173.991 L 182.903,174.004 L 182.852,174.016 L 182.801,174.029 L 182.749,174.041 L 182.697,174.053 L 182.643,174.065 L 182.590,174.076 L 182.536,174.088 L 182.481,174.099 L 182.426,174.109 L 182.370,174.120 L 182.314,174.130 L 182.257,174.141 L 182.200,174.151 L 182.143,174.160 L 182.085,174.170 L 182.027,174.180 L 181.968,174.189 L 181.909,174.198 L 181.850,174.207 L 181.791,174.216 L 181.732,174.225 L 181.672,174.234 L 181.612,174.243 L 181.552,174.252 L 181.492,174.260 L 181.432,174.269 L 181.371,174.277 L 181.311,174.286 L 181.251,174.294 L 181.190,174.303 L 181.130,174.311 L 181.069,174.320 L 181.009,174.329 L 180.949,174.337 L 180.889,174.346 L 180.829,174.355 L 180.769,174.363 L 180.709,174.372 L 180.650,174.381 L 180.590,174.390 L 180.531,174.399 L 180.473,174.408 L 180.414,174.418 L 180.356,174.427 L 180.298,174.437 L 180.241,174.447 L 180.184,174.457 L 180.127,174.467 L 180.071,174.477 L 180.015,174.488 L 179.960,174.499 L 179.905,174.510 L 179.851,174.521 L 179.797,174.532 L 179.744,174.544 L 179.692,174.556 L 179.640,174.568 L 179.589,174.581 L 179.538,174.594 L 179.488,174.607 L 179.439,174.620 L 179.391,174.634 L 179.343,174.648 L 179.296,174.663 L 179.250,174.678 L 179.205,174.693 L 179.160,174.708 L 179.117,174.724 L 179.074,174.741 L 179.033,174.757 L 178.992,174.774 L 178.952,174.792 L 178.913,174.810 L 178.876,174.829 L 178.839,174.847 L 178.804,174.867 L 178.769,174.887 L 178.736,174.907 L 178.703,174.928 L 178.703,174.928 L 178.674,174.948 L 178.644,174.969 L 178.615,174.990 L 178.586,175.011 L 178.558,175.033 L 178.529,175.055 L 178.501,175.077 L 178.474,175.100 L 178.446,175.123 L 178.419,175.146 L 178.392,175.170 L 178.365,175.194 L 178.339,175.219 L 178.313,175.243 L 178.287,175.268 L 178.261,175.293 L 178.235,175.319 L 178.210,175.345 L 178.184,175.371 L 178.159,175.397 L 178.135,175.423 L 178.110,175.450 L 178.085,175.477 L 178.061,175.504 L 178.037,175.531 L 178.013,175.559 L 177.989,175.586 L 177.965,175.614 L 177.941,175.642 L 177.918,175.670 L 177.894,175.698 L 177.871,175.727 L 177.848,175.755 L 177.825,175.784 L 177.802,175.812 L 177.779,175.841 L 177.756,175.870 L 177.733,175.899 L 177.710,175.928 L 177.687,175.957 L 177.665,175.986 L 177.642,176.015 L 177.620,176.045 L 177.597,176.074 L 177.574,176.103 L 177.552,176.132 L 177.529,176.161 L 177.507,176.191 L 177.484,176.220 L 177.461,176.249 L 177.439,176.278 L 177.416,176.307 L 177.393,176.336 L 177.371,176.365 L 177.348,176.394 L 177.325,176.422 L 177.302,176.451 L 177.279,176.480 L 177.256,176.508 L 177.233,176.536 L 177.209,176.564 L 177.186,176.592 L 177.162,176.620 L 177.139,176.648 L 177.115,176.675 L 177.091,176.703 L 177.067,176.730 L 177.043,176.757 L 177.019,176.784 L 176.994,176.810 L 176.970,176.837 L 176.945,176.863 L 176.920,176.888 L 176.895,176.914 L 176.870,176.939 L 176.844,176.964 L 176.818,176.989 L 176.792,177.014 L 176.766,177.038 L 176.740,177.062 L 176.713,177.085 L 176.686,177.108 L 176.659,177.131 L 176.632,177.154 L 176.604,177.176 L 176.576,177.198 L 176.548,177.219 L 176.520,177.241 L 176.491,177.261 L 176.462,177.282 L 176.433,177.301 L 176.403,177.321 L 176.373,177.340 L 176.343,177.359 L 176.312,177.377 L 176.281,177.395 L 176.250,177.412 L 176.218,177.429 L 176.186,177.445 L 176.186,177.445 L 176.102,177.485 L 176.017,177.522 L 175.930,177.557 L 175.842,177.589 L 175.752,177.618 L 175.662,177.644 L 175.570,177.669 L 175.476,177.690 L 175.382,177.709 L 175.286,177.726 L 175.190,177.741 L 175.092,177.753 L 174.993,177.764 L 174.893,177.772 L 174.792,177.779 L 174.691,177.783 L 174.588,177.786 L 174.484,177.787 L 174.380,177.786 L 174.275,177.784 L 174.169,177.780 L 174.062,177.775 L 173.954,177.769 L 173.846,177.761 L 173.737,177.752 L 173.628,177.741 L 173.518,177.730 L 173.407,177.718 L 173.296,177.704 L 173.184,177.690 L 173.072,177.675 L 172.959,177.660 L 172.846,177.643 L 172.733,177.626 L 172.619,177.609 L 172.505,177.591 L 172.391,177.573 L 172.277,177.554 L 172.162,177.535 L 172.047,177.516 L 171.932,177.497 L 171.817,177.478 L 171.701,177.459 L 171.586,177.440 L 171.471,177.422 L 171.356,177.403 L 171.240,177.385 L 171.125,177.368 L 171.010,177.351 L 170.895,177.334 L 170.781,177.318 L 170.666,177.303 L 170.552,177.289 L 170.438,177.275 L 170.324,177.262 L 170.211,177.251 L 170.098,177.240 L 169.985,177.231 L 169.873,177.222 L 169.761,177.215 L 169.650,177.210 L 169.540,177.205 L 169.430,177.203 L 169.320,177.201 L 169.211,177.202 L 169.103,177.204 L 168.996,177.208 L 168.889,177.214 L 168.783,177.222 L 168.678,177.231 L 168.574,177.243 L 168.470,177.257 L 168.368,177.273 L 168.266,177.292 L 168.165,177.312 L 168.065,177.336 L 167.967,177.361 L 167.869,177.390 L 167.773,177.420 L 167.677,177.454 L 167.583,177.490 L 167.490,177.530 L 167.398,177.572 L 167.307,177.617 L 167.218,177.665 L 167.130,177.717 L 167.043,177.771 L 166.958,177.829 L 166.874,177.890 L 166.791,177.955 L 166.710,178.023 L 166.630,178.095 L 166.553,178.170 L 166.476,178.250 L 166.401,178.333 L 166.328,178.419 L 166.257,178.510 L 166.187,178.605 L 166.119,178.703 L 166.119,178.703 L 166.090,178.747 L 166.062,178.791 L 166.035,178.836 L 166.009,178.881 L 165.984,178.926 L 165.959,178.972 L 165.936,179.017 L 165.913,179.064 L 165.891,179.110 L 165.869,179.157 L 165.848,179.204 L 165.828,179.252 L 165.809,179.299 L 165.790,179.347 L 165.772,179.396 L 165.755,179.444 L 165.738,179.493 L 165.721,179.542 L 165.706,179.591 L 165.691,179.641 L 165.676,179.691 L 165.662,179.741 L 165.649,179.791 L 165.635,179.842 L 165.623,179.892 L 165.611,179.943 L 165.599,179.994 L 165.588,180.045 L 165.577,180.097 L 165.567,180.148 L 165.557,180.200 L 165.547,180.252 L 165.538,180.304 L 165.529,180.357 L 165.520,180.409 L 165.512,180.461 L 165.504,180.514 L 165.496,180.567 L 165.488,180.620 L 165.481,180.673 L 165.474,180.726 L 165.467,180.779 L 165.460,180.832 L 165.454,180.885 L 165.447,180.939 L 165.441,180.992 L 165.435,181.046 L 165.429,181.099 L 165.423,181.153 L 165.417,181.207 L 165.411,181.260 L 165.405,181.314 L 165.399,181.368 L 165.393,181.422 L 165.387,181.475 L 165.382,181.529 L 165.376,181.583 L 165.370,181.636 L 165.363,181.690 L 165.357,181.744 L 165.351,181.797 L 165.344,181.851 L 165.338,181.904 L 165.331,181.958 L 165.324,182.011 L 165.317,182.064 L 165.310,182.118 L 165.302,182.171 L 165.294,182.224 L 165.286,182.277 L 165.278,182.330 L 165.269,182.382 L 165.260,182.435 L 165.251,182.487 L 165.241,182.540 L 165.231,182.592 L 165.220,182.644 L 165.210,182.696 L 165.198,182.748 L 165.187,182.799 L 165.174,182.850 L 165.162,182.902 L 165.149,182.953 L 165.135,183.003 L 165.121,183.054 L 165.106,183.104 L 165.091,183.155 L 165.075,183.205 L 165.059,183.254 L 165.042,183.304 L 165.025,183.353 L 165.006,183.402 L 164.988,183.451 L 164.968,183.499 L 164.948,183.547 L 164.927,183.595 L 164.906,183.643 L 164.883,183.690 L 164.860,183.737 Z" fill="#ffff00" stroke="#000000" stroke-width="1.2" stroke-opacity="1" fill-opacity="0.981132" /></g><g id="path230"><path d="M 173.669,158.568 L 173.307,165.710 L 172.222,172.781 L 170.427,179.711 L 167.938,186.431 L 164.781,192.874 L 160.986,198.976 L 156.593,204.677 L 151.643,209.919 L 146.187,214.651 L 140.279,218.825 L 133.977,222.401 L 127.345,225.342 L 120.447,227.620 L 113.353,229.211 L 106.133,230.100 L 98.858,230.279 L 91.602,229.744 L 84.436,228.502 L 77.431,226.565 L 70.657,223.953 L 64.182,220.690 L 58.070,216.811 L 52.381,212.352 L 47.171,207.359 L 42.494,201.881 L 38.395,195.972 L 34.915,189.692 L 32.088,183.102 L 29.944,176.268 L 28.502,169.259 L 27.777,162.143 L 27.777,154.992 L 28.502,147.877 L 29.944,140.867 L 32.088,134.034 L 34.915,127.444 L 38.395,121.164 L 42.494,115.255 L 47.171,109.777 L 52.381,104.784 L 58.070,100.325 L 64.182,96.445 L 70.657,93.183 L 77.431,90.570 L 84.436,88.633 L 91.602,87.391 L 98.858,86.857 L 106.133,87.035 L 113.353,87.925 L 120.447,89.516 L 127.345,91.793 L 133.977,94.735 L 140.279,98.310 L 146.187,102.485 L 151.643,107.216 L 156.593,112.459 L 160.986,118.159 L 164.781,124.261 L 167.938,130.704 L 170.427,137.424 L 172.222,144.354 L 173.307,151.425 L 173.669,158.568 Z" fill="#ffff00" stroke="#000000" stroke-width="1.2" stroke-opacity="1" /></g><g id="path393"><path d="M 91.928,178.074 L 91.837,179.897 L 91.565,181.702 L 91.115,183.470 L 90.491,185.185 L 89.699,186.830 L 88.747,188.387 L 87.645,189.842 L 86.404,191.180 L 85.035,192.388 L 83.553,193.453 L 81.973,194.366 L 80.309,195.116 L 78.579,195.698 L 76.800,196.104 L 74.989,196.331 L 73.164,196.376 L 71.344,196.240 L 69.547,195.923 L 67.790,195.428 L 66.091,194.762 L 64.467,193.929 L 62.934,192.939 L 61.507,191.801 L 60.200,190.526 L 59.027,189.128 L 57.999,187.620 L 57.126,186.018 L 56.417,184.336 L 55.879,182.592 L 55.518,180.803 L 55.336,178.987 L 55.336,177.162 L 55.518,175.346 L 55.879,173.557 L 56.417,171.813 L 57.126,170.131 L 57.999,168.528 L 59.027,167.020 L 60.200,165.622 L 61.507,164.347 L 62.934,163.210 L 64.467,162.219 L 66.091,161.387 L 67.790,160.720 L 69.547,160.226 L 71.344,159.909 L 73.164,159.772 L 74.989,159.818 L 76.800,160.045 L 78.579,160.451 L 80.309,161.032 L 81.973,161.783 L 83.553,162.695 L 85.035,163.761 L 86.404,164.968 L 87.645,166.306 L 88.747,167.761 L 89.699,169.318 L 90.491,170.963 L 91.115,172.678 L 91.565,174.447 L 91.837,176.251 L 91.928,178.074 Z" fill="#ffffff" stroke="#000000" stroke-width="1.2" stroke-opacity="1" /></g><g id="path1267"><path d="M 85.615,186.719 L 85.568,187.479 L 85.428,188.231 L 85.195,188.968 L 84.872,189.682 L 84.462,190.368 L 83.970,191.017 L 83.400,191.623 L 82.758,192.180 L 82.050,192.683 L 81.284,193.127 L 80.466,193.508 L 79.606,193.820 L 78.711,194.062 L 77.790,194.232 L 76.854,194.326 L 75.910,194.345 L 74.968,194.288 L 74.039,194.156 L 73.130,193.950 L 72.251,193.673 L 71.411,193.326 L 70.618,192.913 L 69.880,192.439 L 69.204,191.908 L 68.598,191.325 L 68.066,190.697 L 67.614,190.029 L 67.248,189.328 L 66.969,188.602 L 66.782,187.856 L 66.688,187.100 L 66.688,186.339 L 66.782,185.582 L 66.969,184.837 L 67.248,184.110 L 67.614,183.410 L 68.066,182.742 L 68.598,182.113 L 69.204,181.531 L 69.880,181.000 L 70.618,180.526 L 71.411,180.113 L 72.251,179.766 L 73.130,179.488 L 74.039,179.282 L 74.968,179.150 L 75.910,179.094 L 76.854,179.113 L 77.790,179.207 L 78.711,179.376 L 79.606,179.619 L 80.466,179.931 L 81.284,180.312 L 82.050,180.755 L 82.758,181.259 L 83.400,181.816 L 83.970,182.422 L 84.462,183.071 L 84.872,183.756 L 85.195,184.471 L 85.428,185.208 L 85.568,185.960 L 85.615,186.719 Z" fill="#2b0000" stroke="#000000" stroke-width="1.2" stroke-opacity="1" /></g><g id="path397"><path d="M 146.031,176.186 L 145.946,178.196 L 145.693,180.186 L 145.274,182.136 L 144.693,184.026 L 143.956,185.839 L 143.071,187.556 L 142.045,189.160 L 140.890,190.635 L 139.616,191.967 L 138.237,193.141 L 136.766,194.147 L 135.218,194.975 L 133.608,195.616 L 131.952,196.063 L 130.267,196.314 L 128.569,196.364 L 126.875,196.213 L 125.202,195.864 L 123.567,195.319 L 121.986,194.584 L 120.475,193.666 L 119.048,192.574 L 117.720,191.320 L 116.504,189.915 L 115.413,188.373 L 114.456,186.711 L 113.643,184.944 L 112.984,183.090 L 112.483,181.167 L 112.147,179.195 L 111.977,177.193 L 111.977,175.180 L 112.147,173.178 L 112.483,171.206 L 112.984,169.283 L 113.643,167.429 L 114.456,165.662 L 115.413,164.000 L 116.504,162.458 L 117.720,161.053 L 119.048,159.799 L 120.475,158.707 L 121.986,157.789 L 123.567,157.054 L 125.202,156.509 L 126.875,156.160 L 128.569,156.009 L 130.267,156.059 L 131.952,156.310 L 133.608,156.757 L 135.218,157.398 L 136.766,158.226 L 138.237,159.232 L 139.616,160.406 L 140.890,161.738 L 142.045,163.213 L 143.071,164.817 L 143.956,166.534 L 144.693,168.346 L 145.274,170.237 L 145.693,172.187 L 145.946,174.177 L 146.031,176.186 Z" fill="#ffffff" stroke="#000000" stroke-width="1.2" stroke-opacity="1" /></g><g id="path1265"><path d="M 138.459,185.747 L 138.415,186.487 L 138.284,187.220 L 138.066,187.939 L 137.765,188.635 L 137.383,189.303 L 136.924,189.936 L 136.392,190.527 L 135.793,191.070 L 135.133,191.561 L 134.418,191.994 L 133.655,192.364 L 132.852,192.669 L 132.017,192.905 L 131.159,193.070 L 130.285,193.162 L 129.404,193.181 L 128.526,193.125 L 127.659,192.997 L 126.811,192.796 L 125.991,192.525 L 125.208,192.187 L 124.468,191.785 L 123.779,191.322 L 123.149,190.805 L 122.583,190.237 L 122.087,189.624 L 121.665,188.973 L 121.323,188.290 L 121.064,187.582 L 120.889,186.855 L 120.801,186.118 L 120.801,185.376 L 120.889,184.639 L 121.064,183.912 L 121.323,183.204 L 121.665,182.521 L 122.087,181.870 L 122.583,181.257 L 123.149,180.689 L 123.779,180.172 L 124.468,179.709 L 125.208,179.307 L 125.991,178.969 L 126.811,178.698 L 127.659,178.497 L 128.526,178.369 L 129.404,178.313 L 130.285,178.332 L 131.159,178.424 L 132.017,178.589 L 132.852,178.825 L 133.655,179.130 L 134.418,179.501 L 135.133,179.933 L 135.793,180.424 L 136.392,180.967 L 136.924,181.558 L 137.383,182.191 L 137.765,182.859 L 138.066,183.555 L 138.284,184.274 L 138.415,185.007 L 138.459,185.747 Z" fill="#2b0000" stroke="#000000" stroke-width="1.2" stroke-opacity="1" /></g><g id="path1439"><path d="M 107.030,201.267 L 107.030,201.267 L 107.030,201.267 L 107.030,201.267 L 107.030,201.267 L 107.030,201.267 L 107.030,201.267 L 107.030,201.267 L 107.030,201.267 L 107.030,201.267 L 107.030,201.267 L 107.030,201.267 L 107.030,201.267 L 107.030,201.267 L 107.030,201.267 L 107.030,201.267 L 107.030,201.267 L 107.030,201.267 L 107.030,201.267 L 107.030,201.267 L 107.030,201.267 L 107.030,201.267 L 107.030,201.267 L 107.030,201.267 L 107.030,201.267 L 107.030,201.267 L 107.030,201.267 L 107.030,201.267 L 107.030,201.267 L 107.030,201.267 L 107.030,201.267 L 107.030,201.267 L 107.030,201.267 L 107.030,201.267 L 107.030,201.267 L 107.030,201.267 L 107.030,201.267 L 107.030,201.267 L 107.030,201.267 L 107.030,201.267 L 107.030,201.267 L 107.030,201.267 L 107.030,201.267 L 107.030,201.267 L 107.030,201.267 L 107.030,201.267 L 107.030,201.267 L 107.030,201.267 L 107.030,201.267 L 107.030,201.267 L 107.030,201.267 L 107.030,201.267 L 107.030,201.267 L 107.030,201.267 L 107.030,201.267 L 107.030,201.267 L 107.030,201.267 L 107.030,201.267 L 107.030,201.267 L 107.030,201.267 L 107.030,201.267 L 107.030,201.267 L 107.030,201.267 L 107.030,201.267 L 107.030,201.267 L 107.030,201.267 L 107.030,201.267 L 107.030,201.267 L 107.030,201.267 L 107.030,201.267 L 107.030,201.267 L 107.030,201.267 L 107.030,201.267 L 107.030,201.267 L 107.030,201.267 L 107.030,201.267 L 107.030,201.267 L 107.030,201.267 L 107.030,201.267 L 107.030,201.267 L 107.030,201.267 L 107.030,201.267 L 107.030,201.267 L 107.030,201.267 L 107.030,201.267 L 107.030,201.267 L 107.030,201.267 L 107.030,201.267 L 107.030,201.267 L 107.030,201.267 L 107.030,201.267 L 107.030,201.267 L 107.030,201.267 L 107.030,201.267 L 107.030,201.267 L 107.030,201.267 L 107.030,201.267 L 107.030,201.267 L 107.030,201.267 L 107.030,201.267 L 107.030,201.267 L 106.920,201.305 L 106.808,201.344 L 106.694,201.385 L 106.577,201.427 L 106.458,201.470 L 106.336,201.514 L 106.213,201.559 L 106.087,201.606 L 105.959,201.654 L 105.829,201.703 L 105.697,201.753 L 105.564,201.804 L 105.428,201.856 L 105.291,201.909 L 105.152,201.964 L 105.011,202.019 L 104.868,202.075 L 104.725,202.133 L 104.579,202.191 L 104.432,202.250 L 104.284,202.310 L 104.134,202.371 L 103.984,202.433 L 103.831,202.495 L 103.678,202.559 L 103.524,202.623 L 103.368,202.688 L 103.212,202.753 L 103.055,202.820 L 102.896,202.887 L 102.737,202.955 L 102.578,203.023 L 102.417,203.092 L 102.256,203.162 L 102.094,203.232 L 101.932,203.303 L 101.769,203.375 L 101.606,203.447 L 101.442,203.519 L 101.278,203.592 L 101.114,203.665 L 100.950,203.739 L 100.785,203.814 L 100.620,203.888 L 100.456,203.963 L 100.291,204.039 L 100.127,204.114 L 99.962,204.190 L 99.798,204.267 L 99.634,204.343 L 99.470,204.420 L 99.307,204.497 L 99.144,204.574 L 98.982,204.652 L 98.820,204.729 L 98.659,204.807 L 98.498,204.884 L 98.338,204.962 L 98.179,205.040 L 98.021,205.118 L 97.863,205.196 L 97.707,205.274 L 97.551,205.352 L 97.397,205.430 L 97.243,205.508 L 97.091,205.586 L 96.940,205.664 L 96.790,205.741 L 96.642,205.819 L 96.495,205.896 L 96.349,205.973 L 96.205,206.050 L 96.062,206.126 L 95.921,206.202 L 95.782,206.278 L 95.645,206.354 L 95.509,206.430 L 95.375,206.505 L 95.243,206.579 L 95.113,206.654 L 94.985,206.727 L 94.859,206.801 L 94.735,206.874 L 94.613,206.946 L 94.493,207.018 L 94.376,207.090 L 94.261,207.161 L 94.149,207.231 L 94.039,207.301 L 93.931,207.370 L 93.826,207.438 L 93.724,207.506 L 93.624,207.573 L 93.527,207.640 L 93.433,207.706 L 93.342,207.771 L 93.254,207.835 L 93.168,207.898 L 93.086,207.961 L 93.086,207.961 L 93.026,208.007 L 92.966,208.053 L 92.905,208.100 L 92.845,208.146 L 92.785,208.193 L 92.724,208.239 L 92.664,208.286 L 92.603,208.332 L 92.543,208.379 L 92.482,208.426 L 92.422,208.472 L 92.361,208.519 L 92.300,208.566 L 92.240,208.613 L 92.179,208.660 L 92.119,208.707 L 92.059,208.754 L 91.998,208.801 L 91.938,208.848 L 91.878,208.896 L 91.817,208.943 L 91.757,208.990 L 91.697,209.038 L 91.638,209.085 L 91.578,209.133 L 91.518,209.181 L 91.458,209.229 L 91.399,209.276 L 91.340,209.324 L 91.281,209.372 L 91.222,209.421 L 91.163,209.469 L 91.104,209.517 L 91.046,209.565 L 90.987,209.614 L 90.929,209.663 L 90.871,209.711 L 90.814,209.760 L 90.756,209.809 L 90.699,209.858 L 90.642,209.907 L 90.585,209.956 L 90.529,210.005 L 90.473,210.055 L 90.417,210.104 L 90.361,210.154 L 90.306,210.203 L 90.251,210.253 L 90.196,210.303 L 90.141,210.353 L 90.087,210.403 L 90.033,210.454 L 89.980,210.504 L 89.926,210.555 L 89.874,210.605 L 89.821,210.656 L 89.769,210.707 L 89.717,210.758 L 89.666,210.809 L 89.615,210.860 L 89.564,210.912 L 89.514,210.963 L 89.464,211.015 L 89.415,211.067 L 89.366,211.119 L 89.318,211.171 L 89.270,211.223 L 89.222,211.276 L 89.175,211.328 L 89.128,211.381 L 89.082,211.434 L 89.036,211.487 L 88.991,211.540 L 88.946,211.593 L 88.902,211.647 L 88.859,211.700 L 88.815,211.754 L 88.773,211.808 L 88.731,211.862 L 88.689,211.916 L 88.648,211.971 L 88.608,212.025 L 88.568,212.080 L 88.529,212.135 L 88.490,212.190 L 88.452,212.246 L 88.415,212.301 L 88.378,212.357 L 88.342,212.413 L 88.306,212.469 L 88.271,212.525 L 88.237,212.581 L 88.203,212.638 L 88.170,212.694 L 88.138,212.751 L 88.106,212.809 L 88.075,212.866 L 88.045,212.923 L 88.015,212.981 L 88.015,212.981 L 88.008,212.997 L 88.000,213.013 L 87.993,213.030 L 87.987,213.046 L 87.981,213.062 L 87.976,213.078 L 87.971,213.095 L 87.966,213.111 L 87.962,213.128 L 87.959,213.144 L 87.955,213.161 L 87.953,213.177 L 87.950,213.194 L 87.948,213.211 L 87.946,213.228 L 87.945,213.244 L 87.944,213.261 L 87.943,213.278 L 87.943,213.295 L 87.943,213.312 L 87.943,213.329 L 87.944,213.346 L 87.945,213.363 L 87.946,213.380 L 87.947,213.397 L 87.949,213.414 L 87.951,213.432 L 87.953,213.449 L 87.955,213.466 L 87.958,213.483 L 87.960,213.501 L 87.963,213.518 L 87.966,213.535 L 87.970,213.552 L 87.973,213.570 L 87.977,213.587 L 87.980,213.604 L 87.984,213.622 L 87.988,213.639 L 87.992,213.657 L 87.996,213.674 L 88.000,213.691 L 88.004,213.709 L 88.009,213.726 L 88.013,213.744 L 88.017,213.761 L 88.022,213.779 L 88.026,213.796 L 88.031,213.813 L 88.035,213.831 L 88.039,213.848 L 88.044,213.866 L 88.048,213.883 L 88.052,213.900 L 88.057,213.918 L 88.061,213.935 L 88.065,213.953 L 88.069,213.970 L 88.073,213.987 L 88.076,214.005 L 88.080,214.022 L 88.083,214.039 L 88.087,214.056 L 88.090,214.074 L 88.093,214.091 L 88.096,214.108 L 88.098,214.125 L 88.101,214.142 L 88.103,214.160 L 88.105,214.177 L 88.106,214.194 L 88.108,214.211 L 88.109,214.228 L 88.110,214.245 L 88.111,214.262 L 88.111,214.279 L 88.111,214.295 L 88.111,214.312 L 88.110,214.329 L 88.110,214.346 L 88.108,214.363 L 88.107,214.379 L 88.105,214.396 L 88.102,214.412 L 88.100,214.429 L 88.097,214.445 L 88.093,214.462 L 88.089,214.478 L 88.085,214.495 L 88.080,214.511 L 88.075,214.527 L 88.069,214.543 L 88.063,214.559 L 88.056,214.575 L 88.049,214.591 L 88.042,214.607 L 88.033,214.623 L 88.025,214.639 L 88.015,214.655 L 88.015,214.655 L 88.010,214.662 L 88.002,214.672 L 87.992,214.683 L 87.979,214.695 L 87.964,214.709 L 87.947,214.725 L 87.927,214.743 L 87.905,214.762 L 87.881,214.782 L 87.856,214.804 L 87.828,214.828 L 87.798,214.852 L 87.766,214.879 L 87.732,214.906 L 87.697,214.935 L 87.660,214.965 L 87.621,214.996 L 87.581,215.029 L 87.539,215.063 L 87.495,215.098 L 87.451,215.134 L 87.404,215.171 L 87.357,215.209 L 87.308,215.248 L 87.258,215.289 L 87.207,215.330 L 87.155,215.372 L 87.102,215.415 L 87.047,215.459 L 86.992,215.504 L 86.936,215.549 L 86.879,215.596 L 86.822,215.643 L 86.763,215.691 L 86.704,215.739 L 86.645,215.788 L 86.585,215.838 L 86.524,215.888 L 86.464,215.939 L 86.402,215.991 L 86.341,216.043 L 86.279,216.095 L 86.217,216.148 L 86.155,216.201 L 86.093,216.255 L 86.031,216.309 L 85.969,216.363 L 85.906,216.418 L 85.845,216.473 L 85.783,216.528 L 85.722,216.583 L 85.661,216.638 L 85.600,216.694 L 85.540,216.749 L 85.480,216.805 L 85.421,216.861 L 85.362,216.916 L 85.304,216.972 L 85.247,217.028 L 85.191,217.083 L 85.136,217.139 L 85.081,217.194 L 85.027,217.249 L 84.975,217.304 L 84.923,217.358 L 84.873,217.412 L 84.823,217.466 L 84.775,217.520 L 84.729,217.573 L 84.683,217.626 L 84.639,217.678 L 84.597,217.730 L 84.556,217.782 L 84.516,217.832 L 84.479,217.883 L 84.443,217.932 L 84.408,217.981 L 84.376,218.030 L 84.345,218.077 L 84.317,218.124 L 84.290,218.171 L 84.265,218.216 L 84.243,218.261 L 84.222,218.305 L 84.204,218.347 L 84.188,218.389 L 84.174,218.430 L 84.163,218.471 L 84.154,218.510 L 84.148,218.548 L 84.144,218.585 L 84.143,218.620 L 84.144,218.655 L 84.149,218.689 L 84.156,218.721 L 84.165,218.752 L 84.178,218.782 L 84.194,218.811 L 84.212,218.838 L 84.212,218.838 L 84.258,218.895 L 84.307,218.949 L 84.360,219.002 L 84.416,219.053 L 84.476,219.102 L 84.540,219.148 L 84.606,219.193 L 84.676,219.236 L 84.749,219.278 L 84.825,219.317 L 84.905,219.355 L 84.987,219.391 L 85.072,219.426 L 85.160,219.459 L 85.251,219.490 L 85.344,219.519 L 85.440,219.548 L 85.539,219.574 L 85.640,219.599 L 85.743,219.623 L 85.849,219.645 L 85.957,219.666 L 86.068,219.685 L 86.180,219.704 L 86.295,219.720 L 86.412,219.736 L 86.530,219.751 L 86.651,219.764 L 86.773,219.776 L 86.897,219.787 L 87.022,219.797 L 87.150,219.805 L 87.278,219.813 L 87.408,219.820 L 87.540,219.826 L 87.673,219.831 L 87.807,219.835 L 87.942,219.838 L 88.078,219.840 L 88.216,219.842 L 88.354,219.842 L 88.493,219.842 L 88.633,219.842 L 88.774,219.840 L 88.915,219.838 L 89.057,219.836 L 89.200,219.832 L 89.343,219.829 L 89.486,219.824 L 89.630,219.820 L 89.774,219.814 L 89.918,219.809 L 90.063,219.803 L 90.207,219.796 L 90.352,219.790 L 90.496,219.783 L 90.640,219.776 L 90.784,219.768 L 90.927,219.761 L 91.071,219.753 L 91.213,219.745 L 91.356,219.737 L 91.497,219.729 L 91.638,219.721 L 91.779,219.713 L 91.918,219.705 L 92.057,219.697 L 92.194,219.689 L 92.331,219.682 L 92.467,219.674 L 92.601,219.667 L 92.735,219.660 L 92.867,219.653 L 92.997,219.646 L 93.127,219.640 L 93.254,219.634 L 93.380,219.629 L 93.505,219.624 L 93.628,219.619 L 93.749,219.615 L 93.868,219.612 L 93.986,219.609 L 94.101,219.607 L 94.214,219.605 L 94.326,219.604 L 94.435,219.603 L 94.541,219.604 L 94.646,219.605 L 94.748,219.606 L 94.848,219.609 L 94.945,219.613 L 95.039,219.617 L 95.131,219.622 L 95.220,219.628 L 95.306,219.636 L 95.389,219.644 L 95.470,219.653 L 95.547,219.663 L 95.621,219.675 L 95.621,219.675 L 95.639,219.678 L 95.656,219.681 L 95.673,219.685 L 95.689,219.689 L 95.706,219.693 L 95.722,219.698 L 95.738,219.703 L 95.753,219.708 L 95.769,219.713 L 95.784,219.719 L 95.799,219.725 L 95.814,219.731 L 95.828,219.737 L 95.842,219.744 L 95.856,219.751 L 95.870,219.758 L 95.884,219.765 L 95.897,219.773 L 95.911,219.780 L 95.924,219.788 L 95.937,219.796 L 95.950,219.805 L 95.962,219.813 L 95.975,219.822 L 95.987,219.831 L 96.000,219.840 L 96.012,219.849 L 96.024,219.858 L 96.035,219.868 L 96.047,219.877 L 96.059,219.887 L 96.070,219.897 L 96.082,219.907 L 96.093,219.917 L 96.104,219.927 L 96.115,219.937 L 96.126,219.947 L 96.137,219.958 L 96.148,219.968 L 96.159,219.979 L 96.170,219.990 L 96.181,220.000 L 96.191,220.011 L 96.202,220.022 L 96.212,220.033 L 96.223,220.044 L 96.234,220.055 L 96.244,220.066 L 96.255,220.077 L 96.265,220.088 L 96.276,220.099 L 96.286,220.110 L 96.297,220.121 L 96.307,220.132 L 96.318,220.143 L 96.329,220.154 L 96.339,220.165 L 96.350,220.176 L 96.361,220.186 L 96.371,220.197 L 96.382,220.208 L 96.393,220.219 L 96.404,220.229 L 96.415,220.240 L 96.426,220.250 L 96.437,220.260 L 96.448,220.271 L 96.460,220.281 L 96.471,220.291 L 96.483,220.301 L 96.494,220.311 L 96.506,220.320 L 96.518,220.330 L 96.530,220.339 L 96.542,220.349 L 96.555,220.358 L 96.567,220.367 L 96.580,220.376 L 96.593,220.384 L 96.605,220.393 L 96.619,220.401 L 96.632,220.409 L 96.645,220.417 L 96.659,220.425 L 96.673,220.432 L 96.687,220.439 L 96.701,220.446 L 96.715,220.453 L 96.730,220.460 L 96.745,220.466 L 96.760,220.472 L 96.775,220.478 L 96.791,220.484 L 96.806,220.489 L 96.822,220.494 L 96.839,220.499 L 96.855,220.503 L 96.872,220.508 L 96.889,220.512 L 96.889,220.512 L 96.940,220.522 L 96.994,220.533 L 97.053,220.543 L 97.115,220.553 L 97.181,220.564 L 97.251,220.574 L 97.324,220.584 L 97.401,220.593 L 97.481,220.603 L 97.564,220.612 L 97.651,220.622 L 97.741,220.631 L 97.834,220.640 L 97.930,220.649 L 98.028,220.658 L 98.130,220.666 L 98.234,220.675 L 98.341,220.683 L 98.451,220.691 L 98.563,220.699 L 98.677,220.707 L 98.794,220.714 L 98.913,220.722 L 99.034,220.729 L 99.158,220.736 L 99.283,220.743 L 99.410,220.749 L 99.539,220.756 L 99.670,220.762 L 99.802,220.768 L 99.936,220.774 L 100.072,220.779 L 100.209,220.785 L 100.347,220.790 L 100.487,220.795 L 100.628,220.800 L 100.770,220.804 L 100.912,220.808 L 101.056,220.812 L 101.201,220.816 L 101.346,220.820 L 101.493,220.823 L 101.639,220.826 L 101.787,220.829 L 101.934,220.832 L 102.082,220.834 L 102.231,220.836 L 102.379,220.838 L 102.528,220.839 L 102.677,220.841 L 102.825,220.842 L 102.974,220.842 L 103.122,220.843 L 103.270,220.843 L 103.418,220.843 L 103.565,220.842 L 103.712,220.842 L 103.858,220.841 L 104.003,220.840 L 104.147,220.838 L 104.291,220.836 L 104.434,220.834 L 104.576,220.831 L 104.716,220.829 L 104.855,220.826 L 104.994,220.822 L 105.130,220.818 L 105.266,220.814 L 105.399,220.810 L 105.532,220.805 L 105.662,220.800 L 105.791,220.795 L 105.918,220.789 L 106.043,220.783 L 106.165,220.777 L 106.286,220.770 L 106.405,220.763 L 106.521,220.755 L 106.635,220.748 L 106.747,220.739 L 106.856,220.731 L 106.963,220.722 L 107.066,220.713 L 107.167,220.703 L 107.266,220.693 L 107.361,220.683 L 107.453,220.672 L 107.543,220.661 L 107.629,220.649 L 107.712,220.637 L 107.791,220.625 L 107.867,220.612 L 107.940,220.599 L 108.009,220.585 L 108.074,220.572 L 108.136,220.557 L 108.194,220.542 L 108.248,220.527 L 108.298,220.512 L 108.298,220.512 L 108.330,220.501 L 108.362,220.490 L 108.393,220.478 L 108.425,220.466 L 108.455,220.454 L 108.486,220.442 L 108.516,220.429 L 108.546,220.416 L 108.575,220.403 L 108.605,220.389 L 108.634,220.376 L 108.662,220.362 L 108.691,220.347 L 108.719,220.333 L 108.747,220.318 L 108.774,220.303 L 108.801,220.288 L 108.828,220.272 L 108.855,220.257 L 108.882,220.241 L 108.908,220.225 L 108.934,220.209 L 108.960,220.192 L 108.986,220.175 L 109.011,220.159 L 109.037,220.142 L 109.062,220.124 L 109.087,220.107 L 109.112,220.090 L 109.136,220.072 L 109.161,220.054 L 109.185,220.036 L 109.209,220.018 L 109.233,220.000 L 109.257,219.982 L 109.281,219.963 L 109.305,219.945 L 109.328,219.926 L 109.352,219.907 L 109.375,219.889 L 109.398,219.870 L 109.421,219.851 L 109.445,219.832 L 109.468,219.813 L 109.491,219.793 L 109.514,219.774 L 109.536,219.755 L 109.559,219.736 L 109.582,219.716 L 109.605,219.697 L 109.628,219.678 L 109.650,219.658 L 109.673,219.639 L 109.696,219.619 L 109.719,219.600 L 109.741,219.581 L 109.764,219.561 L 109.787,219.542 L 109.810,219.522 L 109.833,219.503 L 109.856,219.484 L 109.879,219.465 L 109.902,219.445 L 109.925,219.426 L 109.948,219.407 L 109.971,219.388 L 109.995,219.369 L 110.018,219.350 L 110.042,219.332 L 110.066,219.313 L 110.089,219.294 L 110.113,219.276 L 110.138,219.257 L 110.162,219.239 L 110.186,219.221 L 110.211,219.203 L 110.235,219.185 L 110.260,219.167 L 110.285,219.150 L 110.310,219.132 L 110.336,219.115 L 110.361,219.098 L 110.387,219.081 L 110.413,219.064 L 110.439,219.048 L 110.466,219.031 L 110.493,219.015 L 110.519,218.999 L 110.547,218.983 L 110.574,218.968 L 110.602,218.952 L 110.630,218.937 L 110.658,218.922 L 110.686,218.908 L 110.715,218.893 L 110.744,218.879 L 110.774,218.865 L 110.803,218.852 L 110.833,218.838 L 110.833,218.838 L 110.920,218.800 L 111.006,218.763 L 111.089,218.728 L 111.170,218.695 L 111.250,218.662 L 111.327,218.631 L 111.403,218.602 L 111.477,218.573 L 111.549,218.546 L 111.619,218.521 L 111.687,218.496 L 111.754,218.472 L 111.819,218.450 L 111.882,218.429 L 111.943,218.409 L 112.003,218.390 L 112.061,218.372 L 112.118,218.354 L 112.173,218.338 L 112.226,218.323 L 112.278,218.308 L 112.328,218.295 L 112.377,218.282 L 112.424,218.270 L 112.470,218.259 L 112.514,218.248 L 112.557,218.238 L 112.598,218.229 L 112.638,218.220 L 112.677,218.212 L 112.714,218.205 L 112.750,218.197 L 112.785,218.191 L 112.819,218.185 L 112.851,218.179 L 112.882,218.174 L 112.912,218.169 L 112.941,218.164 L 112.968,218.160 L 112.995,218.156 L 113.020,218.152 L 113.044,218.148 L 113.067,218.144 L 113.089,218.141 L 113.110,218.137 L 113.130,218.134 L 113.150,218.131 L 113.168,218.127 L 113.185,218.124 L 113.201,218.120 L 113.217,218.117 L 113.231,218.113 L 113.245,218.109 L 113.258,218.105 L 113.270,218.100 L 113.282,218.096 L 113.292,218.091 L 113.302,218.085 L 113.312,218.080 L 113.320,218.074 L 113.328,218.067 L 113.335,218.060 L 113.342,218.052 L 113.348,218.044 L 113.354,218.036 L 113.359,218.026 L 113.363,218.017 L 113.367,218.006 L 113.370,217.995 L 113.374,217.983 L 113.376,217.970 L 113.378,217.956 L 113.380,217.942 L 113.382,217.926 L 113.383,217.910 L 113.384,217.893 L 113.384,217.875 L 113.384,217.856 L 113.384,217.836 L 113.384,217.814 L 113.384,217.792 L 113.383,217.769 L 113.383,217.744 L 113.382,217.718 L 113.381,217.691 L 113.380,217.663 L 113.379,217.633 L 113.377,217.602 L 113.376,217.570 L 113.375,217.536 L 113.374,217.501 L 113.373,217.465 L 113.372,217.426 L 113.371,217.387 L 113.370,217.346 L 113.369,217.303 L 113.369,217.259 L 113.369,217.212 L 113.368,217.165 Z" fill="#2b0000" stroke="#000000" stroke-width="1.2" stroke-opacity="1" fill-opacity="0" /></g><g id="path2136"><path d="M 76.767,225.267 L 76.767,225.267 L 76.767,225.267 L 76.767,225.267 L 76.767,225.267 L 76.767,225.267 L 76.767,225.267 L 76.767,225.267 L 76.767,225.267 L 76.767,225.267 L 76.767,225.267 L 76.767,225.267 L 76.767,225.267 L 76.767,225.267 L 76.767,225.267 L 76.767,225.267 L 76.767,225.267 L 76.767,225.267 L 76.767,225.267 L 76.767,225.267 L 76.767,225.267 L 76.767,225.267 L 76.767,225.267 L 76.767,225.267 L 76.767,225.267 L 76.767,225.267 L 76.767,225.267 L 76.767,225.267 L 76.767,225.267 L 76.767,225.267 L 76.767,225.267 L 76.767,225.267 L 76.767,225.267 L 76.767,225.267 L 76.767,225.267 L 76.767,225.267 L 76.767,225.267 L 76.767,225.267 L 76.767,225.267 L 76.767,225.267 L 76.767,225.267 L 76.767,225.267 L 76.767,225.267 L 76.767,225.267 L 76.767,225.267 L 76.767,225.267 L 76.767,225.267 L 76.767,225.267 L 76.767,225.267 L 76.767,225.267 L 76.767,225.267 L 76.767,225.267 L 76.767,225.267 L 76.767,225.267 L 76.767,225.267 L 76.767,225.267 L 76.767,225.267 L 76.767,225.267 L 76.767,225.267 L 76.767,225.267 L 76.767,225.267 L 76.767,225.267 L 76.767,225.267 L 76.767,225.267 L 76.767,225.267 L 76.767,225.267 L 76.767,225.267 L 76.767,225.267 L 76.767,225.267 L 76.767,225.267 L 76.767,225.267 L 76.767,225.267 L 76.767,225.267 L 76.767,225.267 L 76.767,225.267 L 76.767,225.267 L 76.767,225.267 L 76.767,225.267 L 76.767,225.267 L 76.767,225.267 L 76.767,225.267 L 76.767,225.267 L 76.767,225.267 L 76.767,225.267 L 76.767,225.267 L 76.767,225.267 L 76.767,225.267 L 76.767,225.267 L 76.767,225.267 L 76.767,225.267 L 76.767,225.267 L 76.767,225.267 L 76.767,225.267 L 76.767,225.267 L 76.767,225.267 L 76.767,225.267 L 76.767,225.267 L 76.767,225.267 L 76.767,225.267 L 76.767,225.267 L 76.767,225.267 L 77.063,225.402 L 77.363,225.536 L 77.665,225.668 L 77.971,225.798 L 78.279,225.926 L 78.591,226.053 L 78.905,226.177 L 79.222,226.299 L 79.542,226.420 L 79.864,226.539 L 80.189,226.655 L 80.517,226.770 L 80.847,226.883 L 81.179,226.993 L 81.514,227.102 L 81.851,227.209 L 82.190,227.314 L 82.532,227.416 L 82.875,227.517 L 83.221,227.616 L 83.569,227.712 L 83.919,227.807 L 84.270,227.899 L 84.624,227.989 L 84.979,228.077 L 85.336,228.163 L 85.694,228.247 L 86.054,228.328 L 86.416,228.408 L 86.779,228.485 L 87.144,228.560 L 87.509,228.633 L 87.877,228.704 L 88.245,228.772 L 88.615,228.838 L 88.985,228.902 L 89.357,228.964 L 89.730,229.023 L 90.104,229.080 L 90.478,229.134 L 90.854,229.187 L 91.230,229.237 L 91.607,229.284 L 91.984,229.329 L 92.362,229.372 L 92.741,229.413 L 93.120,229.451 L 93.500,229.486 L 93.879,229.520 L 94.260,229.550 L 94.640,229.578 L 95.020,229.604 L 95.401,229.628 L 95.782,229.648 L 96.162,229.667 L 96.543,229.682 L 96.924,229.696 L 97.304,229.706 L 97.684,229.714 L 98.064,229.720 L 98.443,229.723 L 98.822,229.723 L 99.201,229.721 L 99.579,229.716 L 99.956,229.708 L 100.333,229.698 L 100.709,229.685 L 101.084,229.669 L 101.458,229.651 L 101.831,229.630 L 102.204,229.606 L 102.575,229.580 L 102.946,229.551 L 103.315,229.519 L 103.683,229.484 L 104.050,229.446 L 104.415,229.406 L 104.780,229.363 L 105.142,229.317 L 105.503,229.268 L 105.863,229.216 L 106.221,229.162 L 106.578,229.104 L 106.932,229.044 L 107.285,228.981 L 107.636,228.915 L 107.985,228.846 L 108.332,228.774 L 108.677,228.699 L 109.020,228.621 L 109.361,228.540 L 109.700,228.456 L 110.036,228.369 L 110.371,228.279 L 110.702,228.186 L 111.032,228.090 L 111.358,227.991 L 111.683,227.889 L 112.004,227.784 L 112.004,227.784 L 112.021,227.778 L 112.038,227.772 L 112.054,227.765 L 112.070,227.758 L 112.086,227.750 L 112.102,227.742 L 112.117,227.734 L 112.133,227.726 L 112.148,227.717 L 112.163,227.707 L 112.177,227.698 L 112.191,227.687 L 112.206,227.677 L 112.220,227.667 L 112.233,227.656 L 112.247,227.644 L 112.260,227.633 L 112.274,227.621 L 112.287,227.609 L 112.300,227.596 L 112.313,227.584 L 112.325,227.571 L 112.338,227.558 L 112.350,227.545 L 112.362,227.531 L 112.374,227.517 L 112.386,227.503 L 112.398,227.489 L 112.410,227.475 L 112.421,227.460 L 112.433,227.446 L 112.444,227.431 L 112.456,227.416 L 112.467,227.401 L 112.478,227.386 L 112.489,227.370 L 112.500,227.355 L 112.511,227.339 L 112.522,227.323 L 112.533,227.308 L 112.543,227.292 L 112.554,227.276 L 112.565,227.260 L 112.575,227.244 L 112.586,227.228 L 112.597,227.211 L 112.607,227.195 L 112.618,227.179 L 112.628,227.163 L 112.639,227.147 L 112.649,227.130 L 112.660,227.114 L 112.670,227.098 L 112.681,227.082 L 112.692,227.066 L 112.702,227.050 L 112.713,227.034 L 112.724,227.018 L 112.734,227.002 L 112.745,226.986 L 112.756,226.970 L 112.767,226.955 L 112.778,226.939 L 112.789,226.924 L 112.800,226.909 L 112.811,226.893 L 112.823,226.878 L 112.834,226.864 L 112.846,226.849 L 112.857,226.834 L 112.869,226.820 L 112.881,226.806 L 112.893,226.792 L 112.905,226.778 L 112.917,226.765 L 112.929,226.751 L 112.942,226.738 L 112.954,226.725 L 112.967,226.713 L 112.980,226.700 L 112.993,226.688 L 113.006,226.677 L 113.020,226.665 L 113.034,226.654 L 113.047,226.643 L 113.061,226.632 L 113.075,226.622 L 113.090,226.612 L 113.104,226.602 L 113.119,226.593 L 113.134,226.584 L 113.149,226.575 L 113.165,226.567 L 113.181,226.559 L 113.197,226.551 L 113.213,226.544 L 113.229,226.538 L 113.246,226.531 L 113.263,226.525 L 113.263,226.525 L 113.287,226.518 L 113.311,226.510 L 113.336,226.504 L 113.360,226.498 L 113.385,226.492 L 113.409,226.487 L 113.434,226.482 L 113.459,226.478 L 113.484,226.474 L 113.509,226.471 L 113.534,226.468 L 113.559,226.465 L 113.584,226.463 L 113.610,226.462 L 113.635,226.461 L 113.661,226.460 L 113.686,226.459 L 113.712,226.459 L 113.737,226.459 L 113.763,226.460 L 113.789,226.461 L 113.815,226.462 L 113.841,226.463 L 113.867,226.465 L 113.893,226.467 L 113.919,226.469 L 113.945,226.471 L 113.971,226.474 L 113.997,226.477 L 114.023,226.480 L 114.050,226.484 L 114.076,226.487 L 114.102,226.491 L 114.129,226.495 L 114.155,226.499 L 114.181,226.503 L 114.208,226.507 L 114.234,226.512 L 114.261,226.516 L 114.287,226.521 L 114.313,226.525 L 114.340,226.530 L 114.366,226.535 L 114.393,226.540 L 114.419,226.545 L 114.446,226.550 L 114.472,226.554 L 114.499,226.559 L 114.525,226.564 L 114.551,226.569 L 114.578,226.574 L 114.604,226.579 L 114.631,226.583 L 114.657,226.588 L 114.683,226.592 L 114.710,226.597 L 114.736,226.601 L 114.762,226.605 L 114.788,226.610 L 114.814,226.613 L 114.841,226.617 L 114.867,226.621 L 114.893,226.624 L 114.919,226.627 L 114.945,226.630 L 114.970,226.633 L 114.996,226.636 L 115.022,226.638 L 115.048,226.640 L 115.073,226.642 L 115.099,226.644 L 115.125,226.645 L 115.150,226.646 L 115.175,226.646 L 115.201,226.647 L 115.226,226.647 L 115.251,226.646 L 115.276,226.645 L 115.301,226.644 L 115.326,226.643 L 115.351,226.641 L 115.376,226.639 L 115.400,226.636 L 115.425,226.633 L 115.449,226.629 L 115.474,226.625 L 115.498,226.621 L 115.522,226.616 L 115.546,226.610 L 115.570,226.604 L 115.594,226.597 L 115.617,226.590 L 115.641,226.583 L 115.664,226.575 L 115.688,226.566 L 115.711,226.557 L 115.734,226.547 L 115.757,226.536 L 115.780,226.525 L 115.780,226.525 L 116.231,226.299 L 116.663,226.081 L 117.075,225.871 L 117.468,225.669 L 117.842,225.475 L 118.198,225.290 L 118.536,225.111 L 118.856,224.941 L 119.159,224.778 L 119.445,224.622 L 119.715,224.473 L 119.968,224.331 L 120.206,224.196 L 120.429,224.067 L 120.637,223.945 L 120.830,223.830 L 121.009,223.720 L 121.174,223.617 L 121.326,223.520 L 121.465,223.428 L 121.592,223.342 L 121.706,223.261 L 121.809,223.186 L 121.900,223.115 L 121.980,223.050 L 122.049,222.990 L 122.108,222.934 L 122.158,222.883 L 122.197,222.836 L 122.228,222.793 L 122.250,222.755 L 122.264,222.720 L 122.270,222.690 L 122.268,222.662 L 122.259,222.639 L 122.244,222.618 L 122.222,222.601 L 122.194,222.587 L 122.160,222.576 L 122.121,222.568 L 122.078,222.562 L 122.030,222.558 L 121.978,222.557 L 121.922,222.558 L 121.863,222.561 L 121.802,222.566 L 121.737,222.572 L 121.671,222.580 L 121.603,222.590 L 121.533,222.600 L 121.463,222.612 L 121.392,222.625 L 121.321,222.638 L 121.250,222.652 L 121.180,222.666 L 121.111,222.681 L 121.043,222.696 L 120.977,222.711 L 120.913,222.726 L 120.852,222.741 L 120.793,222.755 L 120.738,222.769 L 120.687,222.781 L 120.640,222.793 L 120.597,222.804 L 120.559,222.814 L 120.526,222.823 L 120.500,222.830 L 120.479,222.835 L 120.464,222.839 L 120.457,222.840 L 120.456,222.840 L 120.463,222.837 L 120.479,222.832 L 120.502,222.825 L 120.535,222.814 L 120.576,222.801 L 120.627,222.785 L 120.688,222.766 L 120.759,222.743 L 120.841,222.718 L 120.934,222.688 L 121.039,222.655 L 121.155,222.618 L 121.284,222.576 L 121.425,222.531 L 121.579,222.481 L 121.747,222.427 L 121.929,222.368 L 122.124,222.305 L 122.335,222.236 L 122.560,222.162 L 122.801,222.083 L 123.057,221.999 L 123.330,221.909 L 123.619,221.814 L 123.925,221.712 L 124.248,221.605 L 124.589,221.492 Z" fill="#2b0000" stroke="#000000" stroke-width="1.2" stroke-opacity="1" fill-opacity="0" /></g></svg>