<?xml version='1.0' encoding='utf-8'?>
<svg xmlns="http://www.w3.org/2000/svg" width="210" height="297" viewBox="0 0 210 297"><g id="path2717"><path d="M 74.976,109.960 L 74.418,110.493 L 73.851,110.933 L 73.277,111.287 L 72.698,111.559 L 72.116,111.761 L 71.532,111.900 L 70.947,111.984 L 70.361,112.025 L 69.775,112.031 L 69.189,112.010 L 68.603,111.972 L 68.018,111.927 L 67.432,111.882 L 66.846,111.848 L 66.260,111.833 L 65.674,111.848 L 65.089,111.903 L 64.504,112.008 L 63.921,112.173 L 63.340,112.412 L 62.764,112.734 L 62.195,113.150 L 61.635,113.667 L 61.088,114.293 L 60.556,115.031 L 60.044,115.882 L 59.567,116.894 L 59.330,118.480 L 59.249,120.221 L 59.151,121.951 L 58.866,123.458 L 58.402,124.529 L 58.218,126.151 L 58.242,127.905 L 58.306,129.652 L 58.289,131.405 L 58.149,133.111 L 57.990,134.803 L 57.772,136.427 L 57.588,135.048 L 57.500,133.311 L 57.169,132.328 L 56.840,133.770 L 56.674,135.446 L 56.604,137.191 L 56.568,138.945 L 56.552,140.702 L 56.551,142.460 L 56.563,144.218 L 56.588,145.974 L 56.628,147.727 L 56.688,149.475 L 56.794,151.203 L 57.017,152.825 L 57.326,154.318 L 57.698,155.674 L 58.116,156.906 L 58.567,158.028 L 59.041,159.057 L 59.534,160.009 L 60.040,160.897 L 60.555,161.730 L 61.079,162.520 L 61.608,163.275 L 62.141,164.005 L 62.677,164.718 L 63.213,165.429 L 63.746,166.155 L 64.271,166.933 L 64.778,167.815 L 65.259,168.819 L 65.706,169.953 L 66.117,171.206 L 66.496,172.546 L 66.860,173.922 L 67.234,175.275 L 67.639,176.547 L 68.082,177.694 L 68.562,178.700 L 69.071,179.570 L 69.603,180.307 L 70.154,180.904 L 70.718,181.378 L 71.291,181.744 L 71.870,182.020 L 72.452,182.219 L 73.036,182.353 L 73.621,182.432 L 74.207,182.466 L 74.793,182.462 L 75.379,182.429 L 75.964,182.372 L 76.550,182.299 L 77.135,182.214 L 77.720,182.126 L 78.305,182.041 L 78.891,181.966 L 79.476,181.913 L 80.062,181.891 Z" fill="#ffff00" stroke="#000000" stroke-width="1.2" stroke-opacity="1" fill-opacity="0.981132" /></g><g id="path2147"><path d="M 160.227,122.627 L 161.110,122.734 L 161.994,122.833 L 162.879,122.926 L 163.764,123.017 L 164.649,123.109 L 165.533,123.205 L 166.416,123.309 L 167.298,123.423 L 168.178,123.552 L 169.056,123.698 L 169.929,123.864 L 170.800,124.043 L 171.669,124.230 L 172.537,124.421 L 173.404,124.618 L 174.270,124.820 L 175.134,125.029 L 175.996,125.245 L 176.856,125.469 L 177.714,125.701 L 178.570,125.942 L 179.423,126.191 L 180.273,126.451 L 181.119,126.720 L 181.962,127.000 L 182.801,127.292 L 183.635,127.596 L 184.465,127.911 L 185.289,128.240 L 186.108,128.582 L 186.493,129.158 L 186.919,129.717 L 187.729,130.005 L 188.188,130.398 L 189.058,130.555 L 189.939,130.678 L 190.810,130.841 L 191.636,131.120 L 192.155,131.659 L 192.466,132.277 L 192.709,132.955 L 192.707,133.812 L 192.564,134.690 L 192.381,135.560 L 192.174,136.425 L 191.952,137.287 L 191.718,138.144 L 191.475,138.999 L 191.223,139.852 L 190.963,140.702 L 190.697,141.550 L 190.424,142.396 L 190.143,143.239 L 189.844,144.076 L 189.363,144.820 L 188.784,145.492 L 188.168,146.130 L 187.532,146.748 L 186.882,147.351 L 186.221,147.943 L 185.551,148.524 L 184.874,149.098 L 184.191,149.663 L 183.501,150.221 L 182.805,150.771 L 182.102,151.312 L 181.390,151.842 L 180.668,152.357 L 179.921,152.833 L 179.090,153.132 L 178.217,153.298 L 177.335,153.419 L 176.453,153.533 L 175.575,153.675 L 174.717,153.902 L 173.958,154.350 L 173.325,154.969 L 172.737,155.633 L 172.093,156.241 L 171.318,156.668 L 170.455,156.875 L 169.567,156.926 L 168.679,156.882 L 167.796,156.782 L 166.915,156.657 L 166.035,156.530 L 165.152,156.422 L 164.265,156.356 L 163.376,156.366 L 162.499,156.489 L 161.666,156.769 L 160.923,157.225 L 160.311,157.841 L 159.868,158.589 L 159.599,159.427 L 159.451,160.302 L 159.334,161.184 L 159.152,162.054 L 158.816,162.874 Z" fill="#ffff00" stroke="#000000" stroke-width="1.2" stroke-opacity="1" fill-opacity="0.98113215" /></g><g id="path230"><path d="M 160.133,138.554 L 159.998,146.495 L 159.746,154.400 L 159.344,162.260 L 158.710,169.976 L 157.962,177.595 L 157.041,185.052 L 155.933,192.267 L 154.720,199.329 L 153.320,206.082 L 151.782,212.545 L 150.150,218.808 L 148.331,224.590 L 146.420,230.087 L 144.418,235.297 L 142.266,239.933 L 140.052,244.290 L 137.747,248.214 L 135.351,251.598 L 132.910,254.683 L 130.393,257.176 L 127.834,259.212 L 125.247,260.934 L 122.617,261.906 L 119.978,262.537 L 117.328,262.732 L 114.684,262.262 L 112.049,261.470 L 109.437,260.112 L 106.865,258.234 L 104.318,256.039 L 101.846,253.178 L 99.428,249.944 L 97.061,246.366 L 94.815,242.145 L 92.633,237.650 L 90.546,232.745 L 88.597,227.369 L 86.725,221.748 L 85.004,215.701 L 83.419,209.339 L 81.927,202.771 L 80.642,195.816 L 79.482,188.679 L 78.437,181.371 L 77.632,173.797 L 76.941,166.131 L 76.407,158.342 L 76.095,150.452 L 75.902,142.530 L 75.902,134.578 L 76.095,126.656 L 76.407,118.766 L 76.941,110.977 L 77.632,103.311 L 78.437,95.737 L 79.482,88.429 L 80.642,81.292 L 81.927,74.337 L 83.419,67.769 L 85.004,61.407 L 86.725,55.360 L 88.597,49.739 L 90.546,44.363 L 92.633,39.458 L 94.815,34.963 L 97.061,30.742 L 99.428,27.164 L 101.846,23.930 L 104.318,21.069 L 106.865,18.874 L 109.437,16.996 L 112.049,15.638 L 114.684,14.846 L 117.328,14.376 L 119.978,14.571 L 122.617,15.202 L 125.247,16.174 L 127.834,17.896 L 130.393,19.932 L 132.910,22.425 L 135.351,25.510 L 137.747,28.894 L 140.052,32.818 L 142.266,37.175 L 144.418,41.811 L 146.420,47.021 L 148.331,52.518 L 150.150,58.300 L 151.782,64.563 L 153.320,71.026 L 154.720,77.779 L 155.933,84.841 L 157.041,92.056 L 157.962,99.513 L 158.710,107.132 L 159.344,114.848 L 159.746,122.708 L 159.998,130.613 L 160.133,138.554 Z" fill="#ffff00" stroke="#000000" stroke-width="1.2" stroke-opacity="1" /></g><g id="path393"><path d="M 92.277,129.096 L 92.117,131.135 L 91.934,133.173 L 91.706,135.209 L 91.435,137.236 L 91.142,139.257 L 90.782,141.254 L 90.411,143.241 L 89.976,145.192 L 89.506,147.120 L 89.022,149.012 L 88.465,150.854 L 87.906,152.660 L 87.287,154.396 L 86.631,156.073 L 85.978,157.688 L 85.253,159.192 L 84.517,160.618 L 83.781,161.950 L 82.993,163.129 L 82.202,164.197 L 81.424,165.125 L 80.629,165.872 L 79.840,166.453 L 79.065,166.875 L 78.308,167.093 L 77.569,167.091 L 76.851,166.920 L 76.153,166.585 L 75.489,166.022 L 74.851,165.292 L 74.234,164.429 L 73.660,163.413 L 73.118,162.240 L 72.598,160.974 L 72.131,159.595 L 71.698,158.106 L 71.285,156.554 L 70.946,154.912 L 70.622,153.201 L 70.335,151.447 L 70.114,149.623 L 69.904,147.768 L 69.762,145.868 L 69.643,143.933 L 69.566,141.979 L 69.540,139.989 L 69.533,137.990 L 69.593,135.968 L 69.676,133.941 L 69.803,131.905 L 69.975,129.867 L 70.169,127.827 L 70.430,125.797 L 70.710,123.772 L 71.039,121.764 L 71.411,119.772 L 71.800,117.799 L 72.260,115.863 L 72.724,113.946 L 73.256,112.084 L 73.820,110.258 L 74.395,108.481 L 75.044,106.780 L 75.695,105.134 L 76.384,103.571 L 77.121,102.103 L 77.852,100.726 L 78.615,99.467 L 79.406,98.342 L 80.189,97.344 L 80.974,96.495 L 81.770,95.839 L 82.553,95.335 L 83.318,95.007 L 84.068,94.908 L 84.796,94.995 L 85.503,95.248 L 86.187,95.687 L 86.836,96.347 L 87.463,97.144 L 88.069,98.071 L 88.616,99.181 L 89.148,100.403 L 89.654,101.715 L 90.090,103.160 L 90.514,104.684 L 90.897,106.277 L 91.222,107.960 L 91.534,109.689 L 91.776,111.479 L 91.997,113.322 L 92.182,115.194 L 92.303,117.118 L 92.411,119.060 L 92.452,121.036 L 92.470,123.030 L 92.443,125.039 L 92.371,127.066 L 92.277,129.096 Z" fill="#ffffff" stroke="#000000" stroke-width="1.2" stroke-opacity="1" /></g><g id="path1267"><path d="M 87.136,140.482 L 87.059,141.417 L 86.963,142.351 L 86.848,143.283 L 86.695,144.205 L 86.526,145.120 L 86.338,146.020 L 86.116,146.900 L 85.888,147.767 L 85.628,148.603 L 85.348,149.416 L 85.070,150.206 L 84.753,150.950 L 84.434,151.667 L 84.107,152.347 L 83.756,152.979 L 83.411,153.573 L 83.054,154.118 L 82.687,154.612 L 82.328,155.060 L 81.960,155.444 L 81.591,155.779 L 81.232,156.061 L 80.869,156.263 L 80.511,156.421 L 80.160,156.513 L 79.815,156.530 L 79.475,156.500 L 79.144,156.397 L 78.821,156.225 L 78.505,156.007 L 78.201,155.713 L 77.907,155.360 L 77.618,154.966 L 77.352,154.496 L 77.091,153.980 L 76.844,153.422 L 76.621,152.804 L 76.402,152.150 L 76.209,151.455 L 76.035,150.715 L 75.871,149.949 L 75.743,149.146 L 75.627,148.313 L 75.527,147.463 L 75.470,146.583 L 75.424,145.688 L 75.404,144.781 L 75.415,143.857 L 75.444,142.929 L 75.502,141.995 L 75.589,141.060 L 75.694,140.127 L 75.828,139.200 L 75.990,138.282 L 76.160,137.371 L 76.373,136.483 L 76.602,135.609 L 76.838,134.755 L 77.113,133.933 L 77.391,133.131 L 77.689,132.364 L 78.011,131.632 L 78.328,130.931 L 78.670,130.278 L 79.019,129.664 L 79.365,129.087 L 79.732,128.576 L 80.095,128.103 L 80.457,127.684 L 80.827,127.328 L 81.191,127.019 L 81.552,126.777 L 81.913,126.597 L 82.267,126.466 L 82.615,126.418 L 82.958,126.424 L 83.295,126.479 L 83.620,126.629 L 83.940,126.823 L 84.251,127.072 L 84.549,127.403 L 84.840,127.776 L 85.117,128.206 L 85.381,128.703 L 85.638,129.236 L 85.869,129.825 L 86.092,130.464 L 86.305,131.133 L 86.480,131.856 L 86.651,132.610 L 86.801,133.392 L 86.919,134.213 L 87.027,135.054 L 87.102,135.919 L 87.157,136.808 L 87.195,137.708 L 87.194,138.625 L 87.175,139.551 L 87.136,140.482 Z" fill="#2b0000" stroke="#000000" stroke-width="1.2" stroke-opacity="1" /></g><g id="path397"><path d="M 126.664,127.012 L 126.418,129.011 L 126.160,131.009 L 125.855,133.013 L 125.525,135.013 L 125.162,137.011 L 124.759,138.999 L 124.338,140.981 L 123.861,142.941 L 123.376,144.893 L 122.829,146.808 L 122.255,148.705 L 121.662,150.565 L 121.009,152.378 L 120.349,154.159 L 119.629,155.862 L 118.872,157.507 L 118.116,159.085 L 117.296,160.544 L 116.448,161.908 L 115.605,163.154 L 114.736,164.251 L 113.849,165.170 L 112.971,165.926 L 112.121,166.483 L 111.289,166.831 L 110.493,166.934 L 109.742,166.834 L 109.037,166.536 L 108.378,166.025 L 107.788,165.293 L 107.245,164.414 L 106.744,163.404 L 106.302,162.223 L 105.912,160.929 L 105.555,159.556 L 105.258,158.066 L 105.001,156.504 L 104.772,154.894 L 104.610,153.189 L 104.467,151.456 L 104.375,149.669 L 104.316,147.841 L 104.288,145.989 L 104.308,144.092 L 104.342,142.185 L 104.438,140.240 L 104.547,138.288 L 104.703,136.315 L 104.884,134.333 L 105.100,132.340 L 105.352,130.342 L 105.628,128.340 L 105.951,126.339 L 106.285,124.337 L 106.680,122.347 L 107.090,120.360 L 107.541,118.390 L 108.027,116.435 L 108.534,114.498 L 109.097,112.594 L 109.665,110.706 L 110.304,108.877 L 110.968,107.078 L 111.645,105.331 L 112.389,103.661 L 113.146,102.047 L 113.931,100.523 L 114.768,99.114 L 115.615,97.806 L 116.465,96.621 L 117.350,95.622 L 118.235,94.782 L 119.098,94.124 L 119.941,93.663 L 120.757,93.444 L 121.531,93.443 L 122.259,93.642 L 122.941,94.046 L 123.566,94.673 L 124.131,95.481 L 124.653,96.428 L 125.132,97.515 L 125.540,98.766 L 125.913,100.101 L 126.246,101.522 L 126.517,103.061 L 126.761,104.647 L 126.954,106.306 L 127.107,108.026 L 127.234,109.776 L 127.300,111.595 L 127.350,113.431 L 127.347,115.310 L 127.320,117.212 L 127.254,119.138 L 127.152,121.087 L 127.025,123.047 L 126.850,125.028 L 126.664,127.012 Z" fill="#ffffff" stroke="#000000" stroke-width="1.2" stroke-opacity="1" /></g><g id="path1265"><path d="M 120.518,139.333 L 120.408,140.187 L 120.282,141.041 L 120.137,141.896 L 119.961,142.743 L 119.768,143.585 L 119.557,144.416 L 119.318,145.231 L 119.069,146.034 L 118.795,146.811 L 118.502,147.567 L 118.208,148.305 L 117.882,149.001 L 117.548,149.675 L 117.213,150.316 L 116.854,150.913 L 116.497,151.480 L 116.131,152.002 L 115.756,152.480 L 115.388,152.920 L 115.011,153.303 L 114.635,153.644 L 114.269,153.940 L 113.899,154.168 L 113.537,154.356 L 113.184,154.488 L 112.838,154.556 L 112.501,154.582 L 112.176,154.542 L 111.863,154.446 L 111.560,154.307 L 111.275,154.094 L 111.004,153.836 L 110.742,153.535 L 110.505,153.158 L 110.280,152.746 L 110.070,152.288 L 109.885,151.769 L 109.712,151.220 L 109.561,150.625 L 109.432,149.986 L 109.316,149.322 L 109.230,148.616 L 109.162,147.881 L 109.108,147.128 L 109.092,146.340 L 109.089,145.537 L 109.108,144.720 L 109.157,143.884 L 109.223,143.041 L 109.315,142.190 L 109.433,141.336 L 109.567,140.482 L 109.729,139.630 L 109.914,138.786 L 110.109,137.946 L 110.341,137.126 L 110.587,136.317 L 110.843,135.524 L 111.130,134.760 L 111.425,134.012 L 111.734,133.295 L 112.065,132.610 L 112.396,131.949 L 112.746,131.333 L 113.107,130.749 L 113.461,130.199 L 113.836,129.706 L 114.209,129.246 L 114.579,128.831 L 114.957,128.472 L 115.328,128.154 L 115.697,127.892 L 116.063,127.683 L 116.420,127.520 L 116.770,127.424 L 117.112,127.375 L 117.444,127.375 L 117.762,127.451 L 118.069,127.567 L 118.365,127.741 L 118.642,127.981 L 118.908,128.258 L 119.158,128.600 L 119.389,128.994 L 119.608,129.424 L 119.804,129.918 L 119.983,130.452 L 120.150,131.016 L 120.285,131.642 L 120.408,132.293 L 120.511,132.975 L 120.586,133.700 L 120.647,134.443 L 120.681,135.214 L 120.692,136.011 L 120.687,136.819 L 120.649,137.648 L 120.592,138.487 L 120.518,139.333 Z" fill="#2b0000" stroke="#000000" stroke-width="1.2" stroke-opacity="1" /></g><g id="path1439"><path d="M 95.762,152.404 L 95.132,152.733 L 94.509,153.074 L 93.891,153.425 L 93.278,153.783 L 92.668,154.148 L 92.062,154.518 L 91.459,154.894 L 90.859,155.274 L 90.262,155.659 L 89.668,156.049 L 89.077,156.443 L 88.489,156.842 L 87.904,157.246 L 87.323,157.654 L 86.745,158.068 L 86.171,158.487 L 85.602,158.912 L 85.038,159.344 L 84.480,159.783 L 83.928,160.231 L 83.385,160.689 L 82.852,161.158 L 82.332,161.642 L 81.831,162.146 L 81.354,162.673 L 80.885,163.206 L 80.417,163.740 L 79.954,164.279 L 79.499,164.824 L 79.053,165.378 L 78.621,165.942 L 78.205,166.517 L 77.808,167.107 L 77.435,167.712 L 77.091,168.333 L 76.778,168.971 L 76.503,169.626 L 76.301,170.304 L 76.337,171.011 L 76.442,171.714 L 76.387,172.412 L 75.997,172.995 L 75.539,173.538 L 75.084,174.083 L 74.636,174.634 L 74.197,175.193 L 73.772,175.763 L 73.366,176.346 L 72.989,176.948 L 72.663,177.579 L 72.453,178.252 L 72.563,178.920 L 73.021,179.449 L 73.620,179.822 L 74.286,180.062 L 74.980,180.207 L 75.686,180.288 L 76.395,180.323 L 77.106,180.325 L 77.816,180.304 L 78.525,180.265 L 79.234,180.214 L 79.942,180.157 L 80.650,180.098 L 81.359,180.041 L 82.068,179.996 L 82.778,179.971 L 83.488,179.988 L 84.185,180.105 L 84.699,180.574 L 85.123,181.139 L 85.759,181.421 L 86.459,181.538 L 87.165,181.620 L 87.873,181.683 L 88.582,181.732 L 89.291,181.771 L 90.001,181.799 L 90.711,181.819 L 91.422,181.831 L 92.132,181.833 L 92.843,181.825 L 93.553,181.807 L 94.263,181.775 L 94.972,181.726 L 95.679,181.653 L 96.380,181.540 L 97.058,181.333 L 97.643,180.934 L 98.134,180.422 L 98.580,179.869 L 99.042,179.330 L 99.576,178.863 L 100.180,178.489 L 100.808,178.158 L 101.468,177.895 L 102.147,177.695 L 102.239,177.014 L 102.229,176.304 Z" fill="#2b0000" stroke="#000000" stroke-width="1.2" stroke-opacity="1" fill-opacity="0" /></g><g id="path2136"><path d="M 88.942,193.748 L 89.276,194.042 L 89.612,194.327 L 89.948,194.605 L 90.285,194.873 L 90.624,195.134 L 90.963,195.387 L 91.302,195.632 L 91.642,195.870 L 91.983,196.099 L 92.323,196.322 L 92.665,196.537 L 93.006,196.744 L 93.348,196.945 L 93.690,197.138 L 94.032,197.324 L 94.374,197.503 L 94.716,197.675 L 95.058,197.841 L 95.400,197.999 L 95.743,198.150 L 96.085,198.294 L 96.427,198.432 L 96.769,198.562 L 97.111,198.686 L 97.453,198.802 L 97.795,198.912 L 98.137,199.014 L 98.479,199.110 L 98.821,199.199 L 99.163,199.280 L 99.505,199.355 L 99.847,199.422 L 100.188,199.482 L 100.530,199.534 L 100.872,199.580 L 101.213,199.617 L 101.555,199.648 L 101.897,199.671 L 102.239,199.686 L 102.581,199.693 L 102.922,199.692 L 103.265,199.684 L 103.607,199.667 L 103.949,199.643 L 104.292,199.610 L 104.634,199.568 L 104.977,199.519 L 105.321,199.460 L 105.664,199.393 L 106.008,199.317 L 106.352,199.231 L 106.697,199.137 L 107.042,199.034 L 107.387,198.920 L 107.732,198.798 L 108.078,198.665 L 108.425,198.523 L 108.771,198.371 L 109.119,198.208 L 109.466,198.036 L 109.814,197.853 L 110.161,197.659 L 110.523,197.439 L 110.930,197.175 L 111.346,196.897 L 111.751,196.605 L 112.006,196.153 L 112.140,195.726 L 112.366,195.453 L 112.705,195.421 L 113.048,195.455 L 113.420,195.443 L 113.801,195.360 L 114.155,195.106 L 114.486,194.789 L 114.817,194.469 L 115.149,194.147 L 115.479,193.823 L 115.810,193.496 L 116.139,193.166 L 116.469,192.831 L 116.797,192.492 L 117.125,192.147 L 117.451,191.793 L 117.775,191.428 L 118.094,191.043 L 118.402,190.618 L 118.418,190.148 L 118.075,190.182 L 117.732,190.324 L 117.389,190.500 L 117.665,190.296 L 118.006,190.074 L 118.346,189.849 L 118.686,189.623 L 119.026,189.396 L 119.366,189.167 L 119.706,188.938 L 120.045,188.708 Z" fill="#2b0000" stroke="#000000" stroke-width="1.2" stroke-opacity="1" fill-opacity="0" /></g></svg>