<?xml version='1.0' encoding='utf-8'?>
<svg xmlns="http://www.w3.org/2000/svg" width="210" height="297" viewBox="0 0 210 297"><g id="path2717"><path d="M 211.933,132.215 L 210.970,132.519 L 209.992,132.771 L 209.002,132.974 L 208.004,133.132 L 207.001,133.250 L 205.994,133.332 L 204.985,133.383 L 203.976,133.406 L 202.965,133.410 L 201.955,133.399 L 200.945,133.378 L 199.936,133.352 L 198.926,133.327 L 197.916,133.307 L 196.906,133.299 L 195.895,133.307 L 194.886,133.337 L 193.877,133.395 L 192.871,133.486 L 191.870,133.620 L 190.877,133.802 L 189.894,134.037 L 188.927,134.328 L 187.980,134.679 L 187.061,135.096 L 186.174,135.580 L 185.341,136.150 L 184.877,137.031 L 184.707,138.022 L 184.540,139.018 L 184.082,139.912 L 183.315,140.557 L 182.935,141.474 L 182.942,142.479 L 183.044,143.483 L 183.030,144.493 L 182.810,145.476 L 182.539,146.450 L 182.172,147.390 L 181.806,146.658 L 181.632,145.670 L 180.947,145.338 L 180.446,146.205 L 180.200,147.181 L 180.093,148.186 L 180.039,149.194 L 180.017,150.204 L 180.021,151.214 L 180.047,152.224 L 180.096,153.233 L 180.172,154.240 L 180.293,155.242 L 180.518,156.224 L 180.934,157.142 L 181.488,157.985 L 182.145,158.751 L 182.877,159.447 L 183.662,160.081 L 184.487,160.664 L 185.340,161.205 L 186.215,161.709 L 187.106,162.185 L 188.010,162.636 L 188.924,163.067 L 189.843,163.485 L 190.767,163.895 L 191.690,164.305 L 192.608,164.727 L 193.509,165.183 L 194.377,165.699 L 195.198,166.286 L 195.962,166.945 L 196.664,167.672 L 197.315,168.444 L 197.945,169.234 L 198.596,170.006 L 199.300,170.730 L 200.071,171.381 L 200.905,171.952 L 201.786,172.445 L 202.706,172.861 L 203.658,173.199 L 204.631,173.468 L 205.620,173.674 L 206.618,173.830 L 207.622,173.943 L 208.629,174.017 L 209.639,174.062 L 210.648,174.080 L 211.659,174.078 L 212.669,174.058 L 213.678,174.025 L 214.688,173.983 L 215.696,173.935 L 216.705,173.884 L 217.714,173.835 L 218.724,173.793 L 219.733,173.762 L 220.743,173.749 Z" fill="#ffff00" stroke="#000000" stroke-width="1.2" /></g><g id="path2147"><path d="M 5.455,140.035 L 6.269,140.146 L 7.084,140.247 L 7.900,140.342 L 8.716,140.436 L 9.532,140.531 L 10.348,140.630 L 11.162,140.738 L 11.975,140.858 L 12.785,140.994 L 13.592,141.148 L 14.394,141.325 L 15.194,141.512 L 15.993,141.704 L 16.790,141.902 L 17.586,142.105 L 18.381,142.315 L 19.173,142.532 L 19.963,142.757 L 20.751,142.989 L 21.536,143.230 L 22.319,143.481 L 23.098,143.740 L 23.874,144.011 L 24.646,144.292 L 25.414,144.584 L 26.177,144.888 L 26.935,145.204 L 27.687,145.534 L 28.434,145.877 L 29.174,146.234 L 29.363,146.992 L 29.657,147.686 L 30.458,147.868 L 31.272,147.977 L 32.087,148.079 L 32.897,148.214 L 33.684,148.440 L 34.344,148.877 L 34.565,149.658 L 34.521,150.478 L 34.415,151.293 L 34.276,152.102 L 34.119,152.909 L 33.947,153.712 L 33.765,154.513 L 33.574,155.312 L 33.375,156.109 L 33.170,156.905 L 32.960,157.699 L 32.744,158.492 L 32.523,159.283 L 32.296,160.072 L 32.061,160.859 L 31.786,161.631 L 31.362,162.334 L 30.860,162.984 L 30.324,163.606 L 29.769,164.212 L 29.199,164.804 L 28.620,165.387 L 28.033,165.961 L 27.438,166.528 L 26.836,167.087 L 26.229,167.640 L 25.614,168.185 L 24.993,168.723 L 24.363,169.251 L 23.722,169.764 L 23.054,170.240 L 22.297,170.555 L 21.494,170.728 L 20.682,170.852 L 19.869,170.972 L 19.062,171.124 L 18.283,171.377 L 17.615,171.854 L 17.071,172.469 L 16.561,173.113 L 15.988,173.700 L 15.281,174.114 L 14.484,174.312 L 13.664,174.355 L 12.845,174.298 L 12.030,174.191 L 11.219,174.061 L 10.408,173.932 L 9.593,173.829 L 8.773,173.777 L 7.953,173.812 L 7.150,173.984 L 6.406,174.330 L 5.782,174.864 L 5.304,175.532 L 5.004,176.297 L 4.838,177.101 L 4.738,177.917 L 4.639,178.732 L 4.481,179.538 L 4.196,180.309 Z" fill="#ffff00" stroke="#000000" stroke-width="1.2" /></g><g id="path230"><path d="M 177.287,162.373 L 177.054,166.956 L 176.617,171.523 L 175.921,176.058 L 174.823,180.513 L 173.527,184.915 L 171.933,189.218 L 170.013,193.385 L 167.911,197.463 L 165.488,201.360 L 162.822,205.094 L 159.996,208.709 L 156.846,212.045 L 153.535,215.221 L 150.069,218.228 L 146.341,220.904 L 142.505,223.421 L 138.514,225.685 L 134.363,227.640 L 130.135,229.421 L 125.778,230.860 L 121.343,232.036 L 116.863,233.030 L 112.309,233.591 L 107.736,233.955 L 103.149,234.068 L 98.568,233.796 L 94.003,233.339 L 89.482,232.555 L 85.024,231.470 L 80.614,230.203 L 76.333,228.552 L 72.142,226.684 L 68.044,224.619 L 64.156,222.183 L 60.373,219.586 L 56.762,216.756 L 53.384,213.651 L 50.141,210.405 L 47.162,206.916 L 44.415,203.240 L 41.831,199.449 L 39.607,195.436 L 37.595,191.312 L 35.786,187.095 L 34.393,182.723 L 33.195,178.294 L 32.271,173.800 L 31.730,169.243 L 31.395,164.667 L 31.395,160.079 L 31.730,155.503 L 32.271,150.947 L 33.195,146.452 L 34.393,142.023 L 35.786,137.652 L 37.595,133.435 L 39.607,129.311 L 41.831,125.297 L 44.415,121.506 L 47.162,117.831 L 50.141,114.341 L 53.384,111.095 L 56.762,107.990 L 60.373,105.160 L 64.156,102.563 L 68.044,100.127 L 72.142,98.063 L 76.333,96.194 L 80.614,94.543 L 85.024,93.276 L 89.482,92.191 L 94.003,91.408 L 98.568,90.950 L 103.149,90.679 L 107.736,90.791 L 112.309,91.156 L 116.863,91.717 L 121.343,92.711 L 125.778,93.887 L 130.135,95.326 L 134.363,97.107 L 138.514,99.062 L 142.505,101.326 L 146.341,103.843 L 150.069,106.519 L 153.535,109.525 L 156.846,112.701 L 159.996,116.037 L 162.822,119.652 L 165.488,123.387 L 167.911,127.283 L 170.013,131.362 L 171.933,135.529 L 173.527,139.832 L 174.823,144.233 L 175.921,148.688 L 176.617,153.223 L 177.054,157.791 L 177.287,162.373 Z" fill="#ffff00" stroke="#000000" stroke-width="1.2" /></g><g id="path393"><path d="M 146.920,163.632 L 146.868,164.931 L 146.788,166.229 L 146.631,167.520 L 146.418,168.803 L 146.157,170.077 L 145.810,171.330 L 145.431,172.574 L 144.961,173.787 L 144.444,174.980 L 143.870,176.147 L 143.214,177.269 L 142.519,178.369 L 141.740,179.410 L 140.904,180.406 L 140.025,181.364 L 139.055,182.230 L 138.039,183.042 L 136.981,183.798 L 135.846,184.434 L 134.674,184.996 L 133.466,185.479 L 132.215,185.834 L 130.938,186.080 L 129.647,186.233 L 128.347,186.273 L 127.051,186.169 L 125.766,185.969 L 124.499,185.677 L 123.271,185.248 L 122.081,184.725 L 120.926,184.126 L 119.829,183.428 L 118.792,182.643 L 117.798,181.805 L 116.874,180.890 L 116.016,179.912 L 115.201,178.900 L 114.473,177.822 L 113.797,176.711 L 113.171,175.571 L 112.637,174.385 L 112.138,173.185 L 111.719,171.953 L 111.357,170.704 L 111.043,169.442 L 110.816,168.162 L 110.617,166.877 L 110.513,165.581 L 110.447,164.282 L 110.447,162.981 L 110.513,161.683 L 110.617,160.386 L 110.816,159.101 L 111.043,157.821 L 111.357,156.559 L 111.719,155.310 L 112.138,154.079 L 112.637,152.878 L 113.171,151.692 L 113.797,150.552 L 114.473,149.441 L 115.201,148.364 L 116.016,147.351 L 116.874,146.374 L 117.798,145.459 L 118.792,144.620 L 119.829,143.835 L 120.926,143.137 L 122.081,142.538 L 123.271,142.015 L 124.499,141.586 L 125.766,141.294 L 127.051,141.095 L 128.347,140.990 L 129.647,141.030 L 130.938,141.183 L 132.215,141.429 L 133.466,141.784 L 134.674,142.268 L 135.846,142.829 L 136.981,143.465 L 138.039,144.221 L 139.055,145.033 L 140.025,145.899 L 140.904,146.857 L 141.740,147.853 L 142.519,148.895 L 143.214,149.994 L 143.870,151.117 L 144.444,152.283 L 144.961,153.477 L 145.431,154.689 L 145.810,155.933 L 146.157,157.187 L 146.418,158.461 L 146.631,159.743 L 146.788,161.034 L 146.868,162.332 L 146.920,163.632 Z" fill="#ffffff" stroke="#000000" stroke-width="1.2" /></g><g id="path1267"><path d="M 135.770,152.935 L 135.740,153.532 L 135.685,154.128 L 135.596,154.720 L 135.457,155.302 L 135.292,155.878 L 135.088,156.440 L 134.843,156.986 L 134.576,157.522 L 134.264,158.033 L 133.923,158.525 L 133.562,159.002 L 133.155,159.440 L 132.730,159.861 L 132.281,160.257 L 131.800,160.614 L 131.304,160.949 L 130.786,161.248 L 130.248,161.510 L 129.699,161.748 L 129.131,161.939 L 128.554,162.097 L 127.971,162.230 L 127.377,162.304 L 126.780,162.353 L 126.182,162.368 L 125.585,162.332 L 124.989,162.270 L 124.400,162.166 L 123.820,162.021 L 123.246,161.850 L 122.689,161.632 L 122.145,161.382 L 121.612,161.109 L 121.110,160.784 L 120.621,160.438 L 120.153,160.065 L 119.719,159.653 L 119.303,159.223 L 118.918,158.765 L 118.567,158.280 L 118.237,157.781 L 117.951,157.255 L 117.695,156.714 L 117.462,156.163 L 117.286,155.591 L 117.134,155.012 L 117.016,154.425 L 116.947,153.831 L 116.905,153.234 L 116.905,152.635 L 116.947,152.038 L 117.016,151.444 L 117.134,150.857 L 117.286,150.278 L 117.462,149.706 L 117.695,149.155 L 117.951,148.614 L 118.237,148.088 L 118.567,147.589 L 118.918,147.104 L 119.303,146.646 L 119.719,146.216 L 120.153,145.804 L 120.621,145.431 L 121.110,145.085 L 121.612,144.761 L 122.145,144.488 L 122.689,144.238 L 123.246,144.019 L 123.820,143.849 L 124.400,143.703 L 124.989,143.599 L 125.585,143.537 L 126.182,143.501 L 126.780,143.516 L 127.377,143.565 L 127.971,143.639 L 128.554,143.773 L 129.131,143.931 L 129.699,144.121 L 130.248,144.360 L 130.786,144.621 L 131.304,144.920 L 131.800,145.256 L 132.281,145.612 L 132.730,146.008 L 133.155,146.429 L 133.562,146.868 L 133.923,147.345 L 134.264,147.837 L 134.576,148.347 L 134.843,148.883 L 135.088,149.429 L 135.292,149.992 L 135.457,150.567 L 135.596,151.149 L 135.685,151.741 L 135.740,152.337 L 135.770,152.935 Z" fill="#2b0000" stroke="#000000" stroke-width="1.2" /></g><g id="path397"><path d="M 94.090,166.149 L 94.043,167.454 L 93.981,168.758 L 93.842,170.057 L 93.669,171.351 L 93.436,172.636 L 93.150,173.910 L 92.823,175.175 L 92.420,176.417 L 91.992,177.651 L 91.472,178.849 L 90.916,180.030 L 90.297,181.180 L 89.607,182.289 L 88.877,183.372 L 88.058,184.389 L 87.183,185.359 L 86.259,186.282 L 85.246,187.106 L 84.176,187.855 L 83.056,188.525 L 81.875,189.084 L 80.640,189.507 L 79.371,189.816 L 78.078,190.003 L 76.773,190.049 L 75.473,189.925 L 74.191,189.676 L 72.938,189.309 L 71.724,188.828 L 70.578,188.201 L 69.483,187.489 L 68.439,186.705 L 67.473,185.826 L 66.574,184.879 L 65.722,183.889 L 64.953,182.834 L 64.244,181.737 L 63.575,180.616 L 63.003,179.442 L 62.462,178.253 L 61.991,177.035 L 61.576,175.797 L 61.201,174.546 L 60.905,173.274 L 60.629,171.997 L 60.443,170.705 L 60.279,169.409 L 60.186,168.106 L 60.132,166.802 L 60.132,165.496 L 60.186,164.191 L 60.279,162.888 L 60.443,161.593 L 60.629,160.300 L 60.905,159.023 L 61.201,157.752 L 61.576,156.501 L 61.991,155.262 L 62.462,154.044 L 63.003,152.856 L 63.575,151.682 L 64.244,150.560 L 64.953,149.464 L 65.722,148.408 L 66.574,147.418 L 67.473,146.471 L 68.439,145.592 L 69.483,144.808 L 70.578,144.096 L 71.724,143.469 L 72.938,142.988 L 74.191,142.621 L 75.473,142.372 L 76.773,142.248 L 78.078,142.294 L 79.371,142.481 L 80.640,142.790 L 81.875,143.213 L 83.056,143.772 L 84.176,144.442 L 85.246,145.192 L 86.259,146.016 L 87.183,146.938 L 88.058,147.908 L 88.877,148.925 L 89.607,150.008 L 90.297,151.117 L 90.916,152.267 L 91.472,153.449 L 91.992,154.647 L 92.420,155.880 L 92.823,157.122 L 93.150,158.387 L 93.436,159.661 L 93.669,160.946 L 93.842,162.241 L 93.981,163.539 L 94.043,164.844 L 94.090,166.149 Z" fill="#ffffff" stroke="#000000" stroke-width="1.2" /></g><g id="path1265"><path d="M 85.444,154.822 L 85.416,155.380 L 85.364,155.936 L 85.281,156.489 L 85.151,157.032 L 84.998,157.569 L 84.807,158.094 L 84.579,158.604 L 84.329,159.104 L 84.038,159.580 L 83.720,160.040 L 83.383,160.485 L 83.003,160.894 L 82.606,161.287 L 82.187,161.657 L 81.738,161.989 L 81.276,162.302 L 80.792,162.582 L 80.289,162.826 L 79.777,163.048 L 79.248,163.226 L 78.709,163.374 L 78.164,163.498 L 77.610,163.567 L 77.053,163.613 L 76.495,163.627 L 75.937,163.593 L 75.382,163.536 L 74.832,163.439 L 74.290,163.303 L 73.754,163.144 L 73.234,162.940 L 72.727,162.706 L 72.230,162.451 L 71.761,162.148 L 71.305,161.826 L 70.868,161.477 L 70.463,161.093 L 70.074,160.692 L 69.715,160.264 L 69.387,159.812 L 69.079,159.346 L 68.812,158.855 L 68.573,158.350 L 68.356,157.835 L 68.192,157.302 L 68.050,156.761 L 67.939,156.214 L 67.876,155.659 L 67.836,155.102 L 67.836,154.543 L 67.876,153.986 L 67.939,153.431 L 68.050,152.883 L 68.192,152.343 L 68.356,151.809 L 68.573,151.295 L 68.812,150.790 L 69.079,150.299 L 69.387,149.833 L 69.715,149.381 L 70.074,148.953 L 70.463,148.552 L 70.868,148.167 L 71.305,147.819 L 71.761,147.496 L 72.230,147.193 L 72.727,146.938 L 73.234,146.705 L 73.754,146.501 L 74.290,146.342 L 74.832,146.206 L 75.382,146.109 L 75.937,146.052 L 76.495,146.018 L 77.053,146.032 L 77.610,146.077 L 78.164,146.147 L 78.709,146.271 L 79.248,146.419 L 79.777,146.597 L 80.289,146.819 L 80.792,147.063 L 81.276,147.342 L 81.738,147.655 L 82.187,147.988 L 82.606,148.358 L 83.003,148.750 L 83.383,149.160 L 83.720,149.605 L 84.038,150.064 L 84.329,150.541 L 84.579,151.041 L 84.807,151.551 L 84.998,152.076 L 85.151,152.613 L 85.281,153.156 L 85.364,153.708 L 85.416,154.264 L 85.444,154.822 Z" fill="#2b0000" stroke="#000000" stroke-width="1.2" /></g><g id="path1439"><path d="M 125.133,106.004 L 124.519,106.335 L 123.911,106.677 L 123.309,107.028 L 122.711,107.387 L 122.117,107.752 L 121.527,108.123 L 120.939,108.499 L 120.355,108.880 L 119.774,109.266 L 119.196,109.655 L 118.621,110.050 L 118.049,110.449 L 117.480,110.853 L 116.915,111.261 L 116.354,111.675 L 115.796,112.094 L 115.243,112.519 L 114.695,112.950 L 114.153,113.388 L 113.618,113.836 L 113.091,114.292 L 112.573,114.760 L 112.071,115.243 L 111.585,115.743 L 111.124,116.266 L 110.670,116.795 L 110.218,117.327 L 109.771,117.862 L 109.331,118.403 L 108.901,118.952 L 108.483,119.510 L 108.081,120.080 L 107.698,120.662 L 107.337,121.259 L 107.003,121.871 L 106.699,122.499 L 106.430,123.142 L 106.215,123.805 L 106.217,124.501 L 106.319,125.190 L 106.320,125.887 L 105.988,126.495 L 105.550,127.038 L 105.110,127.578 L 104.675,128.124 L 104.250,128.676 L 103.837,129.238 L 103.440,129.812 L 103.069,130.402 L 102.738,131.016 L 102.485,131.665 L 102.463,132.360 L 102.848,132.936 L 103.407,133.352 L 104.049,133.624 L 104.725,133.792 L 105.416,133.888 L 106.112,133.932 L 106.809,133.941 L 107.506,133.925 L 108.203,133.888 L 108.898,133.840 L 109.593,133.783 L 110.288,133.723 L 110.983,133.666 L 111.679,133.618 L 112.375,133.588 L 113.073,133.597 L 113.764,133.685 L 114.311,134.111 L 114.706,134.685 L 115.317,135.018 L 116.003,135.143 L 116.695,135.228 L 117.390,135.293 L 118.085,135.343 L 118.781,135.383 L 119.478,135.413 L 120.175,135.433 L 120.872,135.445 L 121.570,135.448 L 122.267,135.440 L 122.964,135.422 L 123.661,135.391 L 124.356,135.341 L 125.050,135.267 L 125.738,135.154 L 126.402,134.942 L 126.971,134.540 L 127.446,134.030 L 127.877,133.482 L 128.324,132.946 L 128.843,132.481 L 129.430,132.104 L 130.043,131.772 L 130.688,131.509 L 131.353,131.298 L 131.435,130.613 L 131.425,129.916 Z" fill="#2b0000" stroke="#000000" stroke-width="1.2" /></g><g id="path2136"><path d="M 74.522,98.207 L 75.020,98.429 L 75.518,98.650 L 76.022,98.858 L 76.527,99.064 L 77.037,99.259 L 77.547,99.451 L 78.061,99.633 L 78.576,99.813 L 79.094,99.982 L 79.613,100.150 L 80.135,100.308 L 80.657,100.465 L 81.182,100.610 L 81.708,100.755 L 82.236,100.890 L 82.765,101.023 L 83.296,101.149 L 83.827,101.271 L 84.360,101.386 L 84.894,101.497 L 85.429,101.603 L 85.965,101.703 L 86.502,101.800 L 87.040,101.889 L 87.578,101.977 L 88.117,102.055 L 88.657,102.132 L 89.198,102.201 L 89.739,102.268 L 90.281,102.328 L 90.824,102.384 L 91.366,102.435 L 91.910,102.480 L 92.454,102.522 L 92.998,102.556 L 93.542,102.588 L 94.087,102.612 L 94.632,102.633 L 95.177,102.647 L 95.722,102.657 L 96.267,102.661 L 96.813,102.660 L 97.358,102.654 L 97.903,102.641 L 98.448,102.625 L 98.993,102.600 L 99.537,102.572 L 100.081,102.536 L 100.625,102.496 L 101.168,102.447 L 101.711,102.394 L 102.253,102.334 L 102.794,102.268 L 103.334,102.195 L 103.874,102.115 L 104.412,102.029 L 104.949,101.935 L 105.485,101.835 L 106.020,101.726 L 106.552,101.610 L 107.083,101.485 L 107.613,101.354 L 108.139,101.213 L 108.664,101.065 L 109.186,100.906 L 109.703,100.735 L 110.134,100.421 L 110.466,99.991 L 110.841,99.601 L 111.338,99.427 L 111.879,99.442 L 112.417,99.526 L 112.960,99.571 L 113.486,99.464 L 113.983,99.242 L 114.470,98.996 L 114.956,98.749 L 115.440,98.498 L 115.924,98.247 L 116.406,97.992 L 116.887,97.735 L 117.365,97.472 L 117.841,97.206 L 118.313,96.933 L 118.779,96.651 L 119.237,96.355 L 119.674,96.030 L 119.873,95.566 L 119.389,95.533 L 118.853,95.627 L 118.323,95.754 L 118.724,95.619 L 119.244,95.453 L 119.762,95.285 L 120.281,95.115 L 120.799,94.945 L 121.317,94.775 L 121.834,94.603 L 122.352,94.431 Z" fill="#2b0000" stroke="#000000" stroke-width="1.2" /></g></svg>