<?xml version='1.0' encoding='utf-8'?>
<svg xmlns="http://www.w3.org/2000/svg" width="210" height="297" viewBox="0 0 210 297"><g id="path2717"><path d="M 221.955,123.223 L 220.997,123.526 L 220.024,123.777 L 219.039,123.979 L 218.047,124.137 L 217.049,124.255 L 216.048,124.337 L 215.044,124.389 L 214.039,124.413 L 213.035,124.417 L 212.030,124.407 L 211.025,124.387 L 210.021,124.362 L 209.016,124.337 L 208.011,124.316 L 207.007,124.307 L 206.002,124.314 L 204.997,124.342 L 203.994,124.397 L 202.993,124.484 L 201.996,124.613 L 201.007,124.790 L 200.029,125.018 L 199.065,125.300 L 198.120,125.642 L 197.201,126.049 L 196.315,126.521 L 195.478,127.077 L 194.958,127.920 L 194.748,128.896 L 194.582,129.888 L 194.165,130.795 L 193.439,131.476 L 193.002,132.366 L 192.959,133.361 L 193.049,134.362 L 193.050,135.366 L 192.859,136.350 L 192.596,137.320 L 192.245,138.260 L 191.818,137.631 L 191.616,136.663 L 190.824,136.591 L 190.394,137.491 L 190.188,138.472 L 190.096,139.472 L 190.051,140.476 L 190.036,141.481 L 190.046,142.485 L 190.077,143.490 L 190.132,144.493 L 190.219,145.494 L 190.365,146.487 L 190.635,147.451 L 191.081,148.349 L 191.657,149.171 L 192.328,149.918 L 193.067,150.597 L 193.857,151.218 L 194.684,151.789 L 195.537,152.319 L 196.411,152.815 L 197.300,153.283 L 198.201,153.728 L 199.111,154.155 L 200.026,154.569 L 200.945,154.977 L 201.862,155.387 L 202.773,155.812 L 203.664,156.275 L 204.521,156.799 L 205.330,157.394 L 206.082,158.060 L 206.773,158.789 L 207.418,159.560 L 208.047,160.343 L 208.701,161.106 L 209.410,161.818 L 210.184,162.457 L 211.019,163.017 L 211.899,163.500 L 212.818,163.906 L 213.767,164.236 L 214.737,164.499 L 215.721,164.699 L 216.714,164.851 L 217.713,164.961 L 218.716,165.033 L 219.719,165.076 L 220.724,165.093 L 221.729,165.090 L 222.734,165.070 L 223.738,165.037 L 224.742,164.994 L 225.746,164.946 L 226.749,164.896 L 227.753,164.847 L 228.757,164.805 L 229.761,164.775 L 230.766,164.762 Z" fill="#ffff00" stroke="#000000" stroke-width="1.2" /></g><g id="path393"><path d="M 151.726,133.368 L 151.674,134.668 L 151.594,135.966 L 151.437,137.257 L 151.225,138.539 L 150.963,139.813 L 150.616,141.067 L 150.238,142.311 L 149.768,143.523 L 149.251,144.717 L 148.677,145.883 L 148.020,147.006 L 147.325,148.105 L 146.547,149.147 L 145.710,150.143 L 144.831,151.101 L 143.861,151.967 L 142.846,152.779 L 141.787,153.535 L 140.653,154.171 L 139.480,154.732 L 138.273,155.216 L 137.022,155.571 L 135.745,155.817 L 134.454,155.970 L 133.154,156.010 L 131.858,155.905 L 130.573,155.706 L 129.305,155.414 L 128.078,154.985 L 126.887,154.461 L 125.733,153.863 L 124.636,153.165 L 123.599,152.380 L 122.605,151.541 L 121.681,150.626 L 120.823,149.649 L 120.007,148.636 L 119.279,147.559 L 118.604,146.447 L 117.978,145.308 L 117.444,144.122 L 116.944,142.921 L 116.526,141.690 L 116.163,140.441 L 115.850,139.179 L 115.622,137.899 L 115.424,136.613 L 115.319,135.317 L 115.253,134.019 L 115.253,132.718 L 115.319,131.419 L 115.424,130.123 L 115.622,128.838 L 115.850,127.558 L 116.163,126.296 L 116.526,125.047 L 116.944,123.815 L 117.444,122.615 L 117.978,121.429 L 118.604,120.289 L 119.279,119.178 L 120.007,118.100 L 120.823,117.088 L 121.681,116.110 L 122.605,115.195 L 123.599,114.357 L 124.636,113.572 L 125.733,112.874 L 126.887,112.275 L 128.078,111.752 L 129.305,111.323 L 130.573,111.031 L 131.858,110.831 L 133.154,110.727 L 134.454,110.767 L 135.745,110.920 L 137.022,111.166 L 138.273,111.521 L 139.480,112.004 L 140.653,112.566 L 141.787,113.202 L 142.846,113.958 L 143.861,114.770 L 144.831,115.636 L 145.710,116.594 L 146.547,117.590 L 147.325,118.631 L 148.020,119.731 L 148.677,120.853 L 149.251,122.020 L 149.768,123.213 L 150.238,124.426 L 150.616,125.670 L 150.963,126.923 L 151.225,128.197 L 151.437,129.480 L 151.594,130.771 L 151.674,132.069 L 151.726,133.368 Z" fill="#ffffff" stroke="#000000" stroke-width="1.2" /></g><g id="path230"><path d="M 179.404,134.627 L 179.171,139.209 L 178.734,143.777 L 178.038,148.312 L 176.940,152.767 L 175.644,157.168 L 174.050,161.471 L 172.130,165.638 L 170.028,169.717 L 167.605,173.613 L 164.939,177.348 L 162.113,180.963 L 158.963,184.299 L 155.652,187.475 L 152.186,190.481 L 148.458,193.157 L 144.622,195.674 L 140.631,197.938 L 136.480,199.893 L 132.252,201.674 L 127.895,203.113 L 123.460,204.289 L 118.980,205.283 L 114.427,205.844 L 109.853,206.209 L 105.266,206.321 L 100.685,206.050 L 96.120,205.592 L 91.599,204.809 L 87.141,203.724 L 82.731,202.457 L 78.450,200.806 L 74.259,198.937 L 70.162,196.873 L 66.273,194.437 L 62.490,191.840 L 58.879,189.010 L 55.501,185.905 L 52.258,182.659 L 49.279,179.169 L 46.532,175.494 L 43.948,171.703 L 41.724,167.689 L 39.712,163.565 L 37.903,159.348 L 36.510,154.977 L 35.312,150.548 L 34.388,146.053 L 33.847,141.497 L 33.512,136.921 L 33.512,132.333 L 33.847,127.757 L 34.388,123.200 L 35.312,118.706 L 36.510,114.277 L 37.903,109.905 L 39.712,105.688 L 41.724,101.564 L 43.948,97.551 L 46.532,93.760 L 49.279,90.084 L 52.258,86.595 L 55.501,83.349 L 58.879,80.244 L 62.490,77.414 L 66.273,74.817 L 70.162,72.381 L 74.259,70.316 L 78.450,68.448 L 82.731,66.797 L 87.141,65.530 L 91.599,64.445 L 96.120,63.661 L 100.685,63.204 L 105.266,62.932 L 109.853,63.045 L 114.427,63.409 L 118.980,63.970 L 123.460,64.964 L 127.895,66.140 L 132.252,67.579 L 136.480,69.360 L 140.631,71.315 L 144.622,73.579 L 148.458,76.096 L 152.186,78.772 L 155.652,81.779 L 158.963,84.955 L 162.113,88.291 L 164.939,91.906 L 167.605,95.640 L 170.028,99.537 L 172.130,103.615 L 174.050,107.782 L 175.644,112.085 L 176.940,116.487 L 178.038,120.942 L 178.734,125.477 L 179.171,130.044 L 179.404,134.627 Z" fill="#ffff00" stroke="#000000" stroke-width="1.2" /></g><g id="path1267"><path d="M 138.692,144.065 L 138.662,144.663 L 138.607,145.259 L 138.518,145.851 L 138.378,146.433 L 138.214,147.008 L 138.009,147.571 L 137.765,148.117 L 137.498,148.653 L 137.186,149.163 L 136.845,149.655 L 136.484,150.132 L 136.077,150.571 L 135.651,150.992 L 135.203,151.388 L 134.722,151.744 L 134.226,152.080 L 133.708,152.379 L 133.169,152.640 L 132.620,152.879 L 132.053,153.069 L 131.476,153.227 L 130.892,153.361 L 130.299,153.435 L 129.702,153.484 L 129.104,153.499 L 128.506,153.463 L 127.911,153.401 L 127.322,153.297 L 126.741,153.151 L 126.168,152.981 L 125.610,152.762 L 125.067,152.512 L 124.534,152.239 L 124.031,151.915 L 123.543,151.569 L 123.075,151.196 L 122.641,150.784 L 122.224,150.354 L 121.840,149.896 L 121.489,149.411 L 121.159,148.912 L 120.872,148.386 L 120.617,147.845 L 120.384,147.294 L 120.208,146.722 L 120.056,146.143 L 119.937,145.556 L 119.869,144.962 L 119.827,144.365 L 119.827,143.766 L 119.869,143.169 L 119.937,142.575 L 120.056,141.988 L 120.208,141.409 L 120.384,140.837 L 120.617,140.286 L 120.872,139.745 L 121.159,139.219 L 121.489,138.720 L 121.840,138.235 L 122.224,137.777 L 122.641,137.347 L 123.075,136.935 L 123.543,136.562 L 124.031,136.216 L 124.534,135.891 L 125.067,135.618 L 125.610,135.368 L 126.168,135.150 L 126.741,134.979 L 127.322,134.834 L 127.911,134.730 L 128.506,134.668 L 129.104,134.632 L 129.702,134.647 L 130.299,134.696 L 130.892,134.770 L 131.476,134.903 L 132.053,135.061 L 132.620,135.252 L 133.169,135.490 L 133.708,135.752 L 134.226,136.051 L 134.722,136.386 L 135.203,136.743 L 135.651,137.139 L 136.077,137.560 L 136.484,137.998 L 136.845,138.475 L 137.186,138.967 L 137.498,139.478 L 137.765,140.014 L 138.009,140.560 L 138.214,141.122 L 138.378,141.698 L 138.518,142.280 L 138.607,142.872 L 138.662,143.468 L 138.692,144.065 Z" fill="#2b0000" stroke="#000000" stroke-width="1.2" /></g><g id="path397"><path d="M 93.873,130.851 L 93.827,132.156 L 93.764,133.461 L 93.625,134.759 L 93.452,136.054 L 93.219,137.339 L 92.933,138.613 L 92.606,139.878 L 92.203,141.120 L 91.775,142.353 L 91.255,143.551 L 90.699,144.733 L 90.080,145.883 L 89.390,146.992 L 88.660,148.075 L 87.841,149.092 L 86.966,150.061 L 86.042,150.984 L 85.029,151.808 L 83.959,152.558 L 82.839,153.228 L 81.658,153.787 L 80.423,154.210 L 79.154,154.519 L 77.862,154.706 L 76.556,154.752 L 75.256,154.628 L 73.974,154.379 L 72.721,154.012 L 71.507,153.531 L 70.362,152.904 L 69.266,152.192 L 68.222,151.408 L 67.256,150.529 L 66.357,149.582 L 65.505,148.592 L 64.736,147.536 L 64.027,146.440 L 63.358,145.318 L 62.786,144.144 L 62.246,142.955 L 61.774,141.737 L 61.359,140.499 L 60.984,139.248 L 60.688,137.977 L 60.412,136.700 L 60.226,135.407 L 60.062,134.112 L 59.969,132.809 L 59.915,131.504 L 59.915,130.198 L 59.969,128.894 L 60.062,127.591 L 60.226,126.295 L 60.412,125.003 L 60.688,123.726 L 60.984,122.454 L 61.359,121.203 L 61.774,119.965 L 62.246,118.747 L 62.786,117.558 L 63.358,116.385 L 64.027,115.263 L 64.736,114.166 L 65.505,113.111 L 66.357,112.121 L 67.256,111.174 L 68.222,110.295 L 69.266,109.511 L 70.362,108.799 L 71.507,108.172 L 72.721,107.691 L 73.974,107.324 L 75.256,107.075 L 76.556,106.951 L 77.862,106.997 L 79.154,107.184 L 80.423,107.493 L 81.658,107.916 L 82.839,108.475 L 83.959,109.145 L 85.029,109.894 L 86.042,110.718 L 86.966,111.641 L 87.841,112.611 L 88.660,113.628 L 89.390,114.711 L 90.080,115.820 L 90.699,116.970 L 91.255,118.151 L 91.775,119.349 L 92.203,120.583 L 92.606,121.825 L 92.933,123.090 L 93.219,124.364 L 93.452,125.649 L 93.625,126.943 L 93.764,128.242 L 93.827,129.546 L 93.873,130.851 Z" fill="#ffffff" stroke="#000000" stroke-width="1.2" /></g><g id="path1265"><path d="M 83.443,142.178 L 83.416,142.736 L 83.364,143.292 L 83.281,143.844 L 83.151,144.387 L 82.997,144.924 L 82.806,145.449 L 82.578,145.959 L 82.329,146.459 L 82.038,146.936 L 81.720,147.395 L 81.382,147.840 L 81.003,148.250 L 80.605,148.642 L 80.187,149.012 L 79.738,149.345 L 79.275,149.658 L 78.791,149.937 L 78.289,150.181 L 77.777,150.403 L 77.247,150.581 L 76.708,150.729 L 76.164,150.853 L 75.610,150.923 L 75.053,150.968 L 74.494,150.982 L 73.937,150.948 L 73.381,150.891 L 72.831,150.794 L 72.289,150.658 L 71.754,150.499 L 71.234,150.295 L 70.727,150.062 L 70.229,149.807 L 69.760,149.504 L 69.304,149.181 L 68.868,148.833 L 68.462,148.448 L 68.074,148.047 L 67.715,147.619 L 67.387,147.167 L 67.079,146.701 L 66.812,146.210 L 66.573,145.705 L 66.356,145.191 L 66.191,144.657 L 66.050,144.117 L 65.939,143.569 L 65.876,143.014 L 65.836,142.457 L 65.836,141.898 L 65.876,141.341 L 65.939,140.786 L 66.050,140.239 L 66.191,139.698 L 66.356,139.165 L 66.573,138.650 L 66.812,138.145 L 67.079,137.654 L 67.387,137.188 L 67.715,136.736 L 68.074,136.308 L 68.462,135.907 L 68.868,135.523 L 69.304,135.174 L 69.760,134.852 L 70.229,134.549 L 70.727,134.294 L 71.234,134.060 L 71.754,133.856 L 72.289,133.697 L 72.831,133.561 L 73.381,133.464 L 73.937,133.407 L 74.494,133.373 L 75.053,133.387 L 75.610,133.433 L 76.164,133.502 L 76.708,133.626 L 77.247,133.774 L 77.777,133.952 L 78.289,134.174 L 78.791,134.418 L 79.275,134.698 L 79.738,135.011 L 80.187,135.343 L 80.605,135.713 L 81.003,136.106 L 81.382,136.515 L 81.720,136.960 L 82.038,137.420 L 82.329,137.896 L 82.578,138.396 L 82.806,138.906 L 82.997,139.431 L 83.151,139.968 L 83.281,140.511 L 83.364,141.064 L 83.416,141.620 L 83.443,142.178 Z" fill="#2b0000" stroke="#000000" stroke-width="1.2" /></g><g id="path1439"><path d="M 122.637,152.257 L 122.023,152.587 L 121.416,152.929 L 120.814,153.280 L 120.216,153.639 L 119.622,154.004 L 119.032,154.375 L 118.445,154.751 L 117.861,155.131 L 117.280,155.516 L 116.702,155.906 L 116.127,156.300 L 115.556,156.699 L 114.988,157.103 L 114.423,157.511 L 113.861,157.924 L 113.304,158.343 L 112.751,158.768 L 112.204,159.198 L 111.662,159.637 L 111.127,160.084 L 110.600,160.540 L 110.083,161.007 L 109.580,161.490 L 109.094,161.990 L 108.633,162.513 L 108.179,163.042 L 107.727,163.573 L 107.280,164.107 L 106.841,164.648 L 106.410,165.197 L 105.993,165.754 L 105.591,166.324 L 105.207,166.906 L 104.846,167.502 L 104.512,168.114 L 104.207,168.741 L 103.939,169.384 L 103.723,170.047 L 103.721,170.743 L 103.821,171.433 L 103.824,172.130 L 103.495,172.743 L 103.058,173.285 L 102.617,173.826 L 102.183,174.371 L 101.758,174.923 L 101.345,175.485 L 100.948,176.058 L 100.577,176.648 L 100.245,177.261 L 99.992,177.910 L 99.967,178.607 L 100.351,179.187 L 100.910,179.603 L 101.551,179.876 L 102.228,180.044 L 102.918,180.140 L 103.614,180.185 L 104.311,180.193 L 105.007,180.177 L 105.704,180.141 L 106.399,180.093 L 107.094,180.036 L 107.788,179.976 L 108.483,179.918 L 109.178,179.870 L 109.874,179.841 L 110.571,179.849 L 111.263,179.937 L 111.813,180.363 L 112.209,180.936 L 112.821,181.270 L 113.507,181.395 L 114.199,181.480 L 114.893,181.545 L 115.588,181.596 L 116.284,181.635 L 116.980,181.665 L 117.677,181.685 L 118.374,181.697 L 119.071,181.700 L 119.768,181.693 L 120.465,181.674 L 121.161,181.643 L 121.856,181.594 L 122.549,181.520 L 123.237,181.407 L 123.901,181.196 L 124.472,180.795 L 124.947,180.286 L 125.378,179.738 L 125.825,179.203 L 126.343,178.737 L 126.929,178.360 L 127.542,178.028 L 128.187,177.763 L 128.851,177.553 L 128.940,176.865 L 128.930,176.168 Z" fill="#2b0000" stroke="#000000" stroke-width="1.2" /></g><g id="path2147"><path d="M -1.865,120.733 L -1.052,120.843 L -0.239,120.944 L 0.576,121.040 L 1.390,121.133 L 2.205,121.228 L 3.018,121.327 L 3.831,121.435 L 4.642,121.554 L 5.451,121.689 L 6.256,121.843 L 7.057,122.018 L 7.855,122.205 L 8.652,122.397 L 9.448,122.594 L 10.242,122.797 L 11.035,123.006 L 11.826,123.222 L 12.614,123.446 L 13.401,123.678 L 14.185,123.918 L 14.966,124.168 L 15.744,124.426 L 16.518,124.696 L 17.289,124.976 L 18.055,125.267 L 18.817,125.570 L 19.574,125.885 L 20.325,126.213 L 21.070,126.554 L 21.809,126.909 L 22.041,127.678 L 22.390,128.396 L 23.191,128.573 L 24.003,128.682 L 24.817,128.785 L 25.624,128.926 L 26.406,129.165 L 27.046,129.649 L 27.242,130.441 L 27.192,131.259 L 27.082,132.072 L 26.942,132.880 L 26.784,133.684 L 26.612,134.485 L 26.429,135.285 L 26.237,136.082 L 26.039,136.877 L 25.834,137.671 L 25.623,138.463 L 25.408,139.254 L 25.186,140.044 L 24.960,140.832 L 24.722,141.616 L 24.436,142.383 L 24.006,143.081 L 23.502,143.728 L 22.966,144.348 L 22.411,144.951 L 21.842,145.542 L 21.264,146.123 L 20.677,146.695 L 20.083,147.260 L 19.482,147.818 L 18.876,148.369 L 18.262,148.913 L 17.642,149.449 L 17.013,149.975 L 16.371,150.485 L 15.699,150.954 L 14.941,151.263 L 14.139,151.432 L 13.328,151.557 L 12.517,151.677 L 11.713,151.833 L 10.938,152.095 L 10.275,152.577 L 9.733,153.192 L 9.222,153.832 L 8.645,154.413 L 7.934,154.820 L 7.137,155.012 L 6.319,155.052 L 5.501,154.994 L 4.688,154.886 L 3.879,154.757 L 3.069,154.629 L 2.256,154.527 L 1.437,154.477 L 0.619,154.514 L -0.182,154.689 L -0.923,155.038 L -1.544,155.573 L -2.019,156.241 L -2.317,157.004 L -2.482,157.807 L -2.582,158.621 L -2.681,159.435 L -2.839,160.239 L -3.123,161.008 Z" fill="#ffff00" stroke="#000000" stroke-width="1.2" /></g><g id="path2136"><path d="M 66.722,194.995 L 67.217,195.216 L 67.713,195.435 L 68.215,195.643 L 68.717,195.848 L 69.224,196.042 L 69.732,196.234 L 70.243,196.415 L 70.755,196.594 L 71.271,196.763 L 71.787,196.930 L 72.306,197.087 L 72.826,197.243 L 73.349,197.389 L 73.872,197.533 L 74.397,197.668 L 74.923,197.801 L 75.451,197.926 L 75.980,198.048 L 76.510,198.164 L 77.041,198.274 L 77.574,198.380 L 78.107,198.480 L 78.641,198.577 L 79.176,198.667 L 79.711,198.754 L 80.248,198.833 L 80.785,198.910 L 81.323,198.980 L 81.862,199.047 L 82.401,199.107 L 82.941,199.164 L 83.481,199.215 L 84.022,199.261 L 84.563,199.303 L 85.104,199.338 L 85.646,199.371 L 86.188,199.396 L 86.730,199.417 L 87.272,199.433 L 87.815,199.443 L 88.357,199.449 L 88.900,199.449 L 89.442,199.444 L 89.985,199.432 L 90.527,199.417 L 91.069,199.394 L 91.611,199.368 L 92.153,199.333 L 92.694,199.294 L 93.235,199.248 L 93.775,199.197 L 94.314,199.139 L 94.853,199.075 L 95.391,199.004 L 95.928,198.926 L 96.464,198.843 L 96.999,198.751 L 97.533,198.653 L 98.065,198.547 L 98.595,198.434 L 99.124,198.313 L 99.651,198.184 L 100.176,198.047 L 100.699,197.902 L 101.219,197.747 L 101.736,197.581 L 102.200,197.312 L 102.566,196.917 L 102.927,196.514 L 103.396,196.267 L 103.930,196.226 L 104.468,196.290 L 105.007,196.346 L 105.542,196.283 L 106.047,196.094 L 106.535,195.856 L 107.019,195.610 L 107.501,195.362 L 107.983,195.113 L 108.463,194.860 L 108.942,194.604 L 109.418,194.345 L 109.893,194.081 L 110.364,193.812 L 110.830,193.534 L 111.288,193.244 L 111.730,192.930 L 112.022,192.493 L 111.691,192.327 L 111.156,192.398 L 110.627,192.519 L 110.951,192.400 L 111.468,192.235 L 111.984,192.068 L 112.500,191.899 L 113.015,191.730 L 113.531,191.560 L 114.046,191.389 L 114.561,191.218 Z" fill="#2b0000" stroke="#000000" stroke-width="1.2" /></g></svg>