<?xml version='1.0' encoding='utf-8'?>
<svg xmlns="http://www.w3.org/2000/svg" width="210" height="297" viewBox="0 0 210 297"><g id="path2717"><path d="M 47.502,170.501 L 48.469,170.193 L 49.451,169.939 L 50.445,169.735 L 51.448,169.577 L 52.456,169.461 L 53.467,169.381 L 54.481,169.332 L 55.496,169.308 L 56.510,169.305 L 57.525,169.317 L 58.540,169.339 L 59.554,169.365 L 60.569,169.391 L 61.584,169.410 L 62.598,169.419 L 63.613,169.410 L 64.627,169.379 L 65.640,169.318 L 66.651,169.223 L 67.656,169.085 L 68.654,168.899 L 69.640,168.659 L 70.609,168.360 L 71.557,167.999 L 72.478,167.573 L 73.366,167.082 L 74.191,166.497 L 74.602,165.581 L 74.742,164.577 L 74.912,163.577 L 75.406,162.708 L 76.209,162.089 L 76.528,161.153 L 76.486,160.140 L 76.376,159.131 L 76.404,158.119 L 76.648,157.134 L 76.923,156.157 L 77.300,155.220 L 77.619,156.016 L 77.771,157.019 L 78.344,157.586 L 78.915,156.754 L 79.203,155.786 L 79.324,154.779 L 79.386,153.766 L 79.414,152.751 L 79.416,151.737 L 79.395,150.722 L 79.351,149.708 L 79.282,148.696 L 79.177,147.686 L 78.994,146.689 L 78.608,145.752 L 78.073,144.891 L 77.429,144.107 L 76.705,143.397 L 75.924,142.749 L 75.102,142.154 L 74.249,141.605 L 73.373,141.092 L 72.479,140.611 L 71.573,140.155 L 70.656,139.719 L 69.733,139.298 L 68.806,138.886 L 67.877,138.476 L 66.953,138.057 L 66.043,137.607 L 65.166,137.098 L 64.333,136.518 L 63.558,135.864 L 62.847,135.140 L 62.190,134.366 L 61.559,133.572 L 60.911,132.791 L 60.211,132.057 L 59.443,131.394 L 58.611,130.813 L 57.730,130.311 L 56.809,129.886 L 55.855,129.541 L 54.877,129.268 L 53.885,129.056 L 52.883,128.897 L 51.875,128.782 L 50.863,128.705 L 49.849,128.659 L 48.834,128.639 L 47.820,128.641 L 46.805,128.661 L 45.791,128.693 L 44.777,128.736 L 43.763,128.785 L 42.749,128.836 L 41.736,128.885 L 40.722,128.928 L 39.707,128.959 L 38.693,128.971 Z" fill="#ffff00" stroke="#000000" stroke-width="1.2" stroke-opacity="1" fill-opacity="0.981132" /></g><g id="path2147"><path d="M 86.476,156.556 L 85.659,156.446 L 84.840,156.344 L 84.021,156.248 L 83.201,156.155 L 82.382,156.059 L 81.563,155.959 L 80.746,155.851 L 79.930,155.730 L 79.116,155.593 L 78.306,155.437 L 77.501,155.260 L 76.698,155.071 L 75.896,154.878 L 75.095,154.679 L 74.296,154.474 L 73.499,154.263 L 72.704,154.045 L 71.910,153.819 L 71.119,153.585 L 70.331,153.342 L 69.546,153.090 L 68.764,152.828 L 67.985,152.556 L 67.210,152.273 L 66.440,151.979 L 65.674,151.672 L 64.914,151.353 L 64.159,151.021 L 63.410,150.675 L 62.667,150.315 L 62.573,149.612 L 62.415,148.940 L 61.616,148.743 L 60.798,148.632 L 59.979,148.534 L 59.164,148.410 L 58.364,148.212 L 57.633,147.839 L 57.360,147.094 L 57.392,146.271 L 57.493,145.452 L 57.627,144.638 L 57.783,143.828 L 57.953,143.021 L 58.135,142.217 L 58.326,141.414 L 58.524,140.614 L 58.729,139.815 L 58.939,139.017 L 59.155,138.221 L 59.376,137.426 L 59.603,136.633 L 59.836,135.842 L 60.088,135.057 L 60.503,134.346 L 61.003,133.690 L 61.539,133.063 L 62.095,132.454 L 62.664,131.857 L 63.245,131.271 L 63.834,130.694 L 64.431,130.125 L 65.034,129.562 L 65.644,129.007 L 66.260,128.458 L 66.883,127.918 L 67.514,127.387 L 68.156,126.869 L 68.819,126.379 L 69.572,126.051 L 70.378,125.875 L 71.193,125.749 L 72.009,125.632 L 72.821,125.485 L 73.609,125.245 L 74.283,124.778 L 74.831,124.163 L 75.340,123.513 L 75.906,122.916 L 76.607,122.488 L 77.404,122.282 L 78.227,122.237 L 79.049,122.290 L 79.867,122.397 L 80.681,122.528 L 81.496,122.659 L 82.314,122.765 L 83.137,122.819 L 83.960,122.786 L 84.767,122.620 L 85.514,122.275 L 86.143,121.746 L 86.621,121.077 L 86.924,120.311 L 87.091,119.504 L 87.192,118.686 L 87.290,117.867 L 87.449,117.058 L 87.734,116.285 Z" fill="#ffff00" stroke="#000000" stroke-width="1.2" stroke-opacity="1" fill-opacity="0.98113215" /></g><g id="path230"><path d="M -0.057,140.494 L 0.176,135.909 L 0.613,131.345 L 1.309,126.807 L 2.408,122.352 L 3.703,117.953 L 5.297,113.648 L 7.217,109.483 L 9.318,105.405 L 11.742,101.506 L 14.406,97.775 L 17.233,94.159 L 20.384,90.821 L 23.693,87.647 L 27.161,84.639 L 30.889,81.963 L 34.723,79.447 L 38.716,77.182 L 42.866,75.228 L 47.093,73.446 L 51.453,72.007 L 55.885,70.832 L 60.366,69.837 L 64.922,69.276 L 69.493,68.912 L 74.083,68.799 L 78.663,69.071 L 83.226,69.528 L 87.750,70.312 L 92.205,71.397 L 96.616,72.664 L 100.899,74.316 L 105.087,76.183 L 109.187,78.248 L 113.076,80.685 L 116.856,83.280 L 120.470,86.112 L 123.847,89.216 L 127.088,92.461 L 130.069,95.953 L 132.814,99.626 L 135.399,103.418 L 137.624,107.433 L 139.634,111.554 L 141.444,115.773 L 142.838,120.146 L 144.035,124.572 L 144.960,129.069 L 145.500,133.624 L 145.835,138.198 L 145.835,142.789 L 145.500,147.363 L 144.960,151.918 L 144.035,156.415 L 142.838,160.841 L 141.444,165.214 L 139.634,169.433 L 137.624,173.554 L 135.399,177.569 L 132.814,181.361 L 130.069,185.035 L 127.088,188.526 L 123.847,191.771 L 120.470,194.875 L 116.856,197.707 L 113.076,200.302 L 109.187,202.739 L 105.087,204.804 L 100.899,206.672 L 96.616,208.324 L 92.205,209.591 L 87.750,210.675 L 83.226,211.459 L 78.663,211.916 L 74.083,212.188 L 69.493,212.075 L 64.922,211.711 L 60.366,211.150 L 55.885,210.156 L 51.453,208.980 L 47.093,207.541 L 42.866,205.760 L 38.716,203.806 L 34.723,201.540 L 30.889,199.024 L 27.161,196.348 L 23.693,193.340 L 20.384,190.166 L 17.233,186.828 L 14.406,183.212 L 11.742,179.481 L 9.318,175.582 L 7.217,171.505 L 5.297,167.339 L 3.703,163.034 L 2.408,158.635 L 1.309,154.180 L 0.613,149.642 L 0.176,145.078 L -0.057,140.494 Z" fill="#ffff00" stroke="#000000" stroke-width="1.2" stroke-opacity="1" /></g><g id="path393"><path d="M 95.371,130.728 L 95.429,129.568 L 95.537,128.413 L 95.710,127.265 L 95.980,126.136 L 96.298,125.020 L 96.695,123.929 L 97.169,122.870 L 97.687,121.831 L 98.293,120.840 L 98.953,119.886 L 99.655,118.960 L 100.445,118.109 L 101.269,117.293 L 102.140,116.525 L 103.073,115.834 L 104.034,115.184 L 105.039,114.603 L 106.083,114.096 L 107.148,113.633 L 108.249,113.263 L 109.368,112.957 L 110.500,112.699 L 111.652,112.554 L 112.808,112.459 L 113.970,112.431 L 115.128,112.501 L 116.282,112.620 L 117.426,112.822 L 118.551,113.104 L 119.664,113.435 L 120.745,113.859 L 121.799,114.344 L 122.833,114.873 L 123.808,115.504 L 124.755,116.174 L 125.663,116.898 L 126.506,117.697 L 127.313,118.530 L 128.059,119.420 L 128.740,120.360 L 129.380,121.328 L 129.936,122.348 L 130.431,123.396 L 130.883,124.467 L 131.225,125.577 L 131.519,126.699 L 131.749,127.837 L 131.881,128.990 L 131.964,130.148 L 131.964,131.309 L 131.881,132.466 L 131.749,133.620 L 131.519,134.758 L 131.225,135.880 L 130.883,136.990 L 130.431,138.060 L 129.936,139.109 L 129.380,140.129 L 128.740,141.097 L 128.059,142.037 L 127.313,142.926 L 126.506,143.760 L 125.663,144.558 L 124.755,145.283 L 123.808,145.953 L 122.833,146.583 L 121.799,147.113 L 120.745,147.598 L 119.664,148.022 L 118.551,148.352 L 117.426,148.635 L 116.282,148.836 L 115.128,148.956 L 113.970,149.026 L 112.808,148.997 L 111.652,148.902 L 110.500,148.758 L 109.368,148.499 L 108.249,148.193 L 107.148,147.823 L 106.083,147.361 L 105.039,146.854 L 104.034,146.273 L 103.073,145.623 L 102.140,144.932 L 101.269,144.163 L 100.445,143.348 L 99.655,142.496 L 98.953,141.570 L 98.293,140.617 L 97.687,139.626 L 97.169,138.587 L 96.695,137.528 L 96.298,136.436 L 95.980,135.321 L 95.710,134.192 L 95.537,133.043 L 95.429,131.888 L 95.371,130.728 Z" fill="#ffffff" stroke="#000000" stroke-width="1.2" stroke-opacity="1" /></g><g id="path1267"><path d="M 110.558,140.999 L 110.591,140.456 L 110.665,139.918 L 110.777,139.387 L 110.941,138.868 L 111.151,138.367 L 111.394,137.881 L 111.673,137.414 L 111.995,136.976 L 112.340,136.557 L 112.712,136.160 L 113.117,135.797 L 113.536,135.452 L 113.980,135.137 L 114.441,134.851 L 114.913,134.580 L 115.406,134.351 L 115.907,134.138 L 116.418,133.953 L 116.939,133.798 L 117.464,133.656 L 117.999,133.557 L 118.535,133.471 L 119.077,133.417 L 119.619,133.386 L 120.163,133.375 L 120.706,133.400 L 121.249,133.436 L 121.787,133.513 L 122.323,133.605 L 122.853,133.725 L 123.376,133.873 L 123.895,134.037 L 124.398,134.243 L 124.895,134.462 L 125.378,134.713 L 125.845,134.992 L 126.302,135.287 L 126.729,135.623 L 127.141,135.977 L 127.534,136.353 L 127.890,136.764 L 128.223,137.193 L 128.528,137.644 L 128.785,138.122 L 129.012,138.616 L 129.205,139.124 L 129.338,139.652 L 129.431,140.186 L 129.485,140.727 L 129.485,141.271 L 129.431,141.812 L 129.338,142.346 L 129.205,142.874 L 129.012,143.382 L 128.785,143.876 L 128.528,144.354 L 128.223,144.805 L 127.890,145.234 L 127.534,145.645 L 127.141,146.021 L 126.729,146.375 L 126.302,146.711 L 125.845,147.006 L 125.378,147.285 L 124.895,147.536 L 124.398,147.755 L 123.895,147.961 L 123.376,148.125 L 122.853,148.273 L 122.323,148.393 L 121.787,148.485 L 121.249,148.562 L 120.706,148.598 L 120.163,148.623 L 119.619,148.612 L 119.077,148.581 L 118.535,148.527 L 117.999,148.441 L 117.464,148.342 L 116.939,148.200 L 116.418,148.045 L 115.907,147.860 L 115.406,147.647 L 114.913,147.418 L 114.441,147.147 L 113.980,146.861 L 113.536,146.546 L 113.117,146.201 L 112.712,145.838 L 112.340,145.441 L 111.995,145.022 L 111.673,144.584 L 111.394,144.117 L 111.151,143.631 L 110.941,143.130 L 110.777,142.611 L 110.665,142.080 L 110.591,141.542 L 110.558,140.999 Z" fill="#2b0000" stroke="#000000" stroke-width="1.2" stroke-opacity="1" /></g><g id="path397"><path d="M 96.230,128.823 L 96.280,127.641 L 96.360,126.462 L 96.509,125.289 L 96.718,124.126 L 96.967,122.969 L 97.306,121.837 L 97.677,120.714 L 98.123,119.619 L 98.625,118.549 L 99.168,117.498 L 99.801,116.499 L 100.470,115.526 L 101.199,114.595 L 101.996,113.722 L 102.830,112.885 L 103.731,112.118 L 104.682,111.418 L 105.670,110.769 L 106.713,110.211 L 107.794,109.736 L 108.902,109.326 L 110.044,109.018 L 111.208,108.813 L 112.382,108.684 L 113.564,108.649 L 114.742,108.739 L 115.911,108.906 L 117.069,109.149 L 118.191,109.523 L 119.286,109.965 L 120.353,110.473 L 121.364,111.087 L 122.333,111.762 L 123.268,112.487 L 124.128,113.299 L 124.943,114.154 L 125.717,115.048 L 126.405,116.009 L 127.056,116.996 L 127.646,118.021 L 128.166,119.082 L 128.652,120.160 L 129.048,121.274 L 129.403,122.401 L 129.701,123.546 L 129.926,124.706 L 130.120,125.873 L 130.219,127.052 L 130.284,128.232 L 130.284,129.414 L 130.219,130.594 L 130.120,131.773 L 129.926,132.939 L 129.701,134.100 L 129.403,135.244 L 129.048,136.371 L 128.652,137.486 L 128.166,138.564 L 127.646,139.625 L 127.056,140.650 L 126.405,141.636 L 125.717,142.598 L 124.943,143.492 L 124.128,144.347 L 123.268,145.159 L 122.333,145.884 L 121.364,146.559 L 120.353,147.173 L 119.286,147.680 L 118.191,148.123 L 117.069,148.497 L 115.911,148.740 L 114.742,148.907 L 113.564,148.996 L 112.382,148.961 L 111.208,148.833 L 110.044,148.628 L 108.902,148.319 L 107.794,147.910 L 106.713,147.435 L 105.670,146.877 L 104.682,146.228 L 103.731,145.528 L 102.830,144.761 L 101.996,143.924 L 101.199,143.051 L 100.470,142.120 L 99.801,141.146 L 99.168,140.148 L 98.625,139.096 L 98.123,138.027 L 97.677,136.931 L 97.306,135.809 L 96.967,134.677 L 96.718,133.520 L 96.509,132.357 L 96.360,131.184 L 96.280,130.005 L 96.230,128.823 Z" fill="#ffffff" stroke="#000000" stroke-width="1.2" stroke-opacity="1" /></g><g id="path1265"><path d="M 111.165,139.361 L 111.196,138.845 L 111.260,138.332 L 111.359,137.825 L 111.509,137.330 L 111.696,136.849 L 111.911,136.380 L 112.168,135.931 L 112.459,135.504 L 112.771,135.093 L 113.117,134.708 L 113.488,134.349 L 113.874,134.005 L 114.289,133.697 L 114.718,133.410 L 115.160,133.142 L 115.623,132.912 L 116.093,132.696 L 116.576,132.513 L 117.068,132.355 L 117.566,132.214 L 118.072,132.113 L 118.582,132.025 L 119.096,131.971 L 119.612,131.940 L 120.128,131.929 L 120.645,131.954 L 121.160,131.992 L 121.672,132.068 L 122.179,132.162 L 122.683,132.281 L 123.177,132.432 L 123.666,132.597 L 124.141,132.802 L 124.607,133.025 L 125.062,133.272 L 125.496,133.551 L 125.920,133.847 L 126.319,134.175 L 126.698,134.526 L 127.061,134.895 L 127.386,135.297 L 127.688,135.716 L 127.967,136.151 L 128.198,136.613 L 128.400,137.088 L 128.572,137.575 L 128.693,138.078 L 128.775,138.588 L 128.822,139.102 L 128.822,139.619 L 128.775,140.133 L 128.693,140.643 L 128.572,141.146 L 128.400,141.633 L 128.198,142.108 L 127.967,142.571 L 127.688,143.006 L 127.386,143.425 L 127.061,143.827 L 126.698,144.195 L 126.319,144.546 L 125.920,144.874 L 125.496,145.170 L 125.062,145.450 L 124.607,145.697 L 124.141,145.919 L 123.666,146.124 L 123.177,146.289 L 122.683,146.440 L 122.179,146.560 L 121.672,146.654 L 121.160,146.730 L 120.645,146.768 L 120.128,146.793 L 119.612,146.782 L 119.096,146.750 L 118.582,146.696 L 118.072,146.608 L 117.566,146.507 L 117.068,146.367 L 116.576,146.209 L 116.093,146.025 L 115.623,145.810 L 115.160,145.579 L 114.718,145.312 L 114.289,145.024 L 113.874,144.716 L 113.488,144.373 L 113.117,144.013 L 112.771,143.629 L 112.459,143.217 L 112.168,142.790 L 111.911,142.341 L 111.696,141.872 L 111.509,141.391 L 111.359,140.896 L 111.260,140.389 L 111.196,139.877 L 111.165,139.361 Z" fill="#2b0000" stroke="#000000" stroke-width="1.2" stroke-opacity="1" /></g><g id="path1439"><path d="M 129.893,185.208 L 130.479,185.001 L 131.061,184.785 L 131.642,184.562 L 132.220,184.334 L 132.796,184.102 L 133.370,183.865 L 133.943,183.624 L 134.514,183.379 L 135.084,183.131 L 135.652,182.880 L 136.219,182.625 L 136.784,182.367 L 137.347,182.105 L 137.909,181.839 L 138.469,181.569 L 139.027,181.295 L 139.582,181.017 L 140.135,180.733 L 140.685,180.444 L 141.231,180.147 L 141.773,179.843 L 142.309,179.530 L 142.838,179.204 L 143.357,178.862 L 143.860,178.497 L 144.352,178.118 L 144.843,177.738 L 145.332,177.353 L 145.814,176.962 L 146.289,176.561 L 146.753,176.148 L 147.203,175.720 L 147.635,175.273 L 148.042,174.803 L 148.417,174.308 L 148.751,173.784 L 148.979,173.214 L 148.878,172.603 L 148.836,171.990 L 149.235,171.533 L 149.719,171.143 L 150.201,170.751 L 150.677,170.352 L 151.145,169.943 L 151.601,169.520 L 152.037,169.078 L 152.437,168.603 L 152.742,168.065 L 152.596,167.506 L 152.088,167.153 L 151.507,166.935 L 150.901,166.798 L 150.286,166.713 L 149.667,166.663 L 149.046,166.639 L 148.424,166.633 L 147.803,166.641 L 147.182,166.660 L 146.561,166.686 L 145.941,166.717 L 145.320,166.752 L 144.700,166.787 L 144.079,166.821 L 143.459,166.850 L 142.838,166.868 L 142.216,166.869 L 141.596,166.837 L 141.000,166.687 L 140.543,166.269 L 140.015,165.959 L 139.401,165.867 L 138.782,165.808 L 138.162,165.763 L 137.542,165.727 L 136.921,165.699 L 136.300,165.676 L 135.679,165.658 L 135.058,165.645 L 134.437,165.636 L 133.815,165.632 L 133.194,165.634 L 132.573,165.640 L 131.951,165.652 L 131.330,165.672 L 130.710,165.701 L 130.090,165.742 L 129.471,165.803 L 128.858,165.902 L 128.273,166.107 L 127.746,166.433 L 127.263,166.825 L 126.783,167.220 L 126.261,167.555 L 125.693,167.805 L 125.111,168.023 L 124.516,168.201 L 123.907,168.323 L 123.540,168.689 L 123.555,169.310 Z" fill="#2b0000" stroke="#000000" stroke-width="1.2" stroke-opacity="1" fill-opacity="0" /></g><g id="path2136"><path d="M 156.452,197.563 L 155.953,197.337 L 155.450,197.118 L 154.945,196.906 L 154.436,196.701 L 153.925,196.504 L 153.412,196.312 L 152.896,196.128 L 152.377,195.949 L 151.857,195.777 L 151.335,195.611 L 150.811,195.451 L 150.285,195.296 L 149.757,195.148 L 149.228,195.004 L 148.698,194.867 L 148.166,194.735 L 147.632,194.608 L 147.098,194.487 L 146.562,194.371 L 146.026,194.260 L 145.488,194.154 L 144.949,194.053 L 144.409,193.958 L 143.869,193.868 L 143.327,193.782 L 142.785,193.702 L 142.242,193.627 L 141.699,193.557 L 141.155,193.491 L 140.610,193.431 L 140.065,193.376 L 139.519,193.326 L 138.973,193.281 L 138.426,193.241 L 137.879,193.206 L 137.332,193.177 L 136.784,193.152 L 136.236,193.133 L 135.688,193.119 L 135.140,193.110 L 134.592,193.107 L 134.044,193.109 L 133.496,193.117 L 132.948,193.130 L 132.401,193.150 L 131.853,193.174 L 131.306,193.205 L 130.759,193.242 L 130.213,193.285 L 129.667,193.334 L 129.122,193.389 L 128.577,193.451 L 128.033,193.519 L 127.490,193.594 L 126.948,193.676 L 126.408,193.765 L 125.868,193.861 L 125.330,193.965 L 124.793,194.076 L 124.258,194.195 L 123.725,194.323 L 123.194,194.458 L 122.665,194.602 L 122.139,194.754 L 121.615,194.916 L 121.099,195.097 L 120.714,195.482 L 120.408,195.936 L 119.998,196.289 L 119.459,196.370 L 118.915,196.306 L 118.376,196.212 L 117.829,196.193 L 117.314,196.367 L 116.824,196.614 L 116.335,196.862 L 115.847,197.111 L 115.361,197.363 L 114.875,197.617 L 114.391,197.874 L 113.909,198.135 L 113.429,198.399 L 112.952,198.669 L 112.479,198.946 L 112.012,199.234 L 111.557,199.538 L 111.128,199.879 L 111.111,200.264 L 111.656,200.234 L 112.194,200.129 L 112.727,199.998 L 112.276,200.145 L 111.754,200.312 L 111.233,200.480 L 110.711,200.650 L 110.191,200.821 L 109.670,200.993 L 109.150,201.165 L 108.630,201.338 Z" fill="#2b0000" stroke="#000000" stroke-width="1.2" stroke-opacity="1" fill-opacity="0" /></g></svg>