<?xml version='1.0' encoding='utf-8'?>
<svg xmlns="http://www.w3.org/2000/svg" width="210" height="297" viewBox="0 0 210 297"><g id="path397"><path d="M 122.193,141.213 L 121.686,143.349 L 121.284,145.523 L 120.991,147.714 L 120.809,149.899 L 120.740,152.058 L 120.786,154.167 L 120.945,156.207 L 121.216,158.158 L 121.596,159.999 L 122.082,161.712 L 122.668,163.281 L 123.349,164.690 L 124.119,165.925 L 124.968,166.973 L 125.890,167.825 L 126.875,168.471 L 127.912,168.906 L 128.992,169.125 L 130.104,169.125 L 131.238,168.907 L 132.380,168.473 L 133.521,167.828 L 134.649,166.977 L 135.753,165.929 L 136.822,164.695 L 137.845,163.287 L 138.811,161.719 L 139.713,160.005 L 140.539,158.165 L 141.283,156.215 L 141.937,154.175 L 142.494,152.066 L 142.948,149.908 L 143.296,147.723 L 143.534,145.532 L 143.660,143.357 L 143.671,141.221 L 143.569,139.143 L 143.353,137.146 L 143.027,135.248 L 142.594,133.468 L 142.057,131.825 L 141.423,130.334 L 140.696,129.010 L 139.886,127.867 L 138.999,126.916 L 138.045,126.166 L 137.033,125.625 L 135.973,125.298 L 134.875,125.188 L 133.751,125.297 L 132.612,125.623 L 131.468,126.164 L 130.332,126.913 L 129.215,127.863 L 128.127,129.006 L 127.080,130.328 L 126.084,131.819 L 125.149,133.462 L 124.284,135.241 L 123.498,137.138 L 122.799,139.135 L 122.193,141.213 Z" fill="#ffffff" stroke="#000000" stroke-width="1.2" stroke-opacity="1" /></g><g id="path1265"><path d="M 123.998,153.883 L 123.819,154.675 L 123.693,155.489 L 123.622,156.318 L 123.607,157.154 L 123.646,157.988 L 123.741,158.811 L 123.890,159.617 L 124.092,160.396 L 124.345,161.141 L 124.645,161.845 L 124.991,162.500 L 125.379,163.100 L 125.804,163.640 L 126.264,164.113 L 126.752,164.515 L 127.264,164.842 L 127.796,165.091 L 128.342,165.260 L 128.896,165.346 L 129.453,165.349 L 130.007,165.268 L 130.553,165.105 L 131.086,164.861 L 131.600,164.539 L 132.090,164.142 L 132.551,163.673 L 132.979,163.138 L 133.370,162.541 L 133.718,161.890 L 134.022,161.189 L 134.278,160.446 L 134.483,159.669 L 134.636,158.865 L 134.734,158.042 L 134.778,157.209 L 134.765,156.373 L 134.698,155.543 L 134.576,154.728 L 134.400,153.935 L 134.173,153.172 L 133.896,152.446 L 133.572,151.766 L 133.205,151.137 L 132.798,150.567 L 132.355,150.060 L 131.881,149.622 L 131.380,149.256 L 130.857,148.968 L 130.318,148.759 L 129.767,148.632 L 129.211,148.587 L 128.655,148.626 L 128.103,148.748 L 127.563,148.952 L 127.039,149.235 L 126.537,149.595 L 126.060,150.029 L 125.615,150.531 L 125.206,151.098 L 124.836,151.723 L 124.509,152.400 L 124.229,153.122 L 123.998,153.883 Z" fill="#2b0000" stroke="#000000" stroke-width="1.2" stroke-opacity="1" /></g><g id="path2147"><path d="m 169.89407,144.72457 c 2.93644,0.41949 5.91903,0.59149 8.80932,1.25848 5.17031,1.19315 10.35569,2.66089 15.10169,5.0339 0.37521,0.1876 -0.3752,1.07087 0,1.25847 1.07212,0.53606 4.06785,0.29242 5.0339,1.25848 0.91963,0.91962 -2.07573,11.26108 -2.51695,12.58474 -0.60593,1.8178 -7.04271,7.63158 -8.80932,8.80932 -1.04517,0.69678 -3.98873,0.5617 -5.0339,1.25848 -0.98723,0.65815 -1.45571,1.98633 -2.51695,2.51695 -2.75109,1.37554 -7.84975,-2.06859 -10.06779,1.25847 -0.95942,1.43912 -0.48498,3.48689 -1.25848,5.0339" fill="#ffff00" stroke="#000000" stroke-width="1.2" stroke-opacity="1" fill-opacity="0.981132" /></g><g id="path1439"><path d="m 101.93644,176.18644 c -3.55278,1.84828 -11.195999,6.97937 -13.843222,10.06779 -1.96864,2.29675 -4.077308,4.68109 -5.033896,7.55085 -0.265311,0.79593 0.311589,1.73798 0,2.51695 -0.133694,0.33423 -4.436285,4.97066 -3.775424,6.29237 1.431628,2.86326 8.945353,0.66325 11.32627,1.25848 0.575537,0.14388 0.695669,1.07087 1.258474,1.25847 1.59438,0.53146 9.755308,0.78548 11.326268,0 1.06124,-0.53062 1.52973,-1.85879 2.51695,-2.51695 2.89216,-1.9281 2.51695,-0.10489 2.51695,-2.51694" fill="#ffff00" stroke="#000000" stroke-width="1.2" stroke-opacity="1" fill-opacity="1" /></g><g id="path230"><path d="M 173.669,158.568 L 173.307,165.710 L 172.222,172.781 L 170.427,179.711 L 167.938,186.431 L 164.781,192.874 L 160.986,198.976 L 156.593,204.677 L 151.643,209.919 L 146.187,214.651 L 140.279,218.825 L 133.977,222.401 L 127.345,225.342 L 120.447,227.620 L 113.353,229.211 L 106.133,230.100 L 98.858,230.279 L 91.602,229.744 L 84.436,228.502 L 77.431,226.565 L 70.657,223.953 L 64.182,220.690 L 58.070,216.811 L 52.381,212.352 L 47.171,207.359 L 42.494,201.881 L 38.395,195.972 L 34.915,189.692 L 32.088,183.102 L 29.944,176.268 L 28.502,169.259 L 27.777,162.143 L 27.777,154.992 L 28.502,147.877 L 29.944,140.867 L 32.088,134.034 L 34.915,127.444 L 38.395,121.164 L 42.494,115.255 L 47.171,109.777 L 52.381,104.784 L 58.070,100.325 L 64.182,96.445 L 70.657,93.183 L 77.431,90.570 L 84.436,88.633 L 91.602,87.391 L 98.858,86.857 L 106.133,87.035 L 113.353,87.925 L 120.447,89.516 L 127.345,91.793 L 133.977,94.735 L 140.279,98.310 L 146.187,102.485 L 151.643,107.216 L 156.593,112.459 L 160.986,118.159 L 164.781,124.261 L 167.938,130.704 L 170.427,137.424 L 172.222,144.354 L 173.307,151.425 L 173.669,158.568 Z" fill="#ffff00" stroke="#000000" stroke-width="1.2" stroke-opacity="1" /></g><g id="path2717"><path d="m 28.944914,147.24152 c -8.783163,3.07931 -18.652686,-1.40809 -26.4279649,3.77543 -1.1037552,0.73583 -0.5226377,2.67167 -1.2584746,3.77542 C 0.92939834,155.28599 0.1438844,155.47531 0,156.05085 c -0.30522492,1.22089 0.30522492,2.55452 0,3.77542 -1.8411849,7.36474 -0.46293129,-2.84956 -2.5169491,1.25847 -0.6994698,1.39894 -0.5033297,8.55781 0,10.0678 1.54181808,4.62545 9.2623979,7.14815 12.5847461,8.80932 4.857547,2.42877 4.27088,5.28163 8.809321,7.55085 5.133038,2.56652 13.188953,1.25847 18.877119,1.25847" fill="#ffff00" stroke="#000000" stroke-width="1.2" stroke-opacity="1" fill-opacity="0.981132" /></g><g id="path393"><path d="M 180.895,134.852 L 181.255,137.083 L 181.459,139.327 L 181.504,141.562 L 181.390,143.767 L 181.118,145.918 L 180.690,147.995 L 180.112,149.977 L 179.388,151.844 L 178.526,153.578 L 177.534,155.161 L 176.423,156.578 L 175.203,157.815 L 173.887,158.859 L 172.487,159.700 L 171.017,160.330 L 169.493,160.742 L 167.928,160.932 L 166.340,160.899 L 164.743,160.643 L 163.154,160.165 L 161.587,159.472 L 160.060,158.570 L 158.586,157.467 L 157.181,156.176 L 155.859,154.708 L 154.632,153.078 L 153.514,151.302 L 152.514,149.399 L 151.643,147.387 L 150.910,145.286 L 150.322,143.116 L 149.884,140.900 L 149.602,138.660 L 149.477,136.417 L 149.512,134.195 L 149.705,132.014 L 150.055,129.897 L 150.559,127.865 L 151.211,125.938 L 152.005,124.136 L 152.933,122.475 L 153.986,120.973 L 155.153,119.644 L 156.423,118.503 L 157.783,117.559 L 159.219,116.822 L 160.718,116.301 L 162.264,115.999 L 163.843,115.921 L 165.437,116.066 L 167.032,116.433 L 168.612,117.019 L 170.161,117.818 L 171.663,118.822 L 173.104,120.020 L 174.470,121.402 L 175.746,122.953 L 176.920,124.657 L 177.981,126.499 L 178.917,128.459 L 179.720,130.518 L 180.382,132.656 L 180.895,134.852 Z" fill="#ffffff" stroke="#000000" stroke-width="1.2" stroke-opacity="1" /></g><g id="path1267"><path d="M 177.655,146.583 L 177.798,147.514 L 177.860,148.454 L 177.840,149.395 L 177.740,150.326 L 177.559,151.237 L 177.301,152.122 L 176.966,152.969 L 176.560,153.771 L 176.085,154.521 L 175.546,155.210 L 174.949,155.831 L 174.300,156.379 L 173.605,156.848 L 172.871,157.234 L 172.106,157.532 L 171.316,157.739 L 170.510,157.855 L 169.696,157.876 L 168.882,157.804 L 168.076,157.638 L 167.286,157.381 L 166.520,157.036 L 165.785,156.604 L 165.089,156.092 L 164.439,155.503 L 163.841,154.844 L 163.301,154.122 L 162.824,153.343 L 162.416,152.515 L 162.080,151.646 L 161.819,150.746 L 161.637,149.823 L 161.535,148.886 L 161.514,147.944 L 161.573,147.007 L 161.714,146.085 L 161.934,145.186 L 162.231,144.319 L 162.602,143.493 L 163.043,142.716 L 163.551,141.996 L 164.119,141.340 L 164.743,140.755 L 165.416,140.245 L 166.131,139.818 L 166.882,139.475 L 167.660,139.222 L 168.459,139.061 L 169.270,138.992 L 170.085,139.018 L 170.896,139.137 L 171.695,139.348 L 172.474,139.650 L 173.225,140.039 L 173.942,140.512 L 174.616,141.063 L 175.241,141.687 L 175.810,142.379 L 176.319,143.131 L 176.762,143.935 L 177.135,144.784 L 177.434,145.670 L 177.655,146.583 Z" fill="#2b0000" stroke="#000000" stroke-width="1.2" stroke-opacity="1" /></g><g id="path2136"><path d="m 80.542372,218.97457 c 9.726314,4.5029 24.667918,6.04008 35.237288,2.51695 0.56281,-0.1876 0.69567,-1.07087 1.25847,-1.25847 0.79593,-0.26531 1.76655,0.3752 2.51695,0 15.23785,-7.61892 -2.73828,-1.1847 8.80932,-5.0339" fill="#2b0000" stroke="#000000" stroke-width="1.2" stroke-opacity="1" fill-opacity="0" /></g><g id="path397"><path d="M 122.193,141.213 L 121.686,143.349 L 121.284,145.523 L 120.991,147.714 L 120.809,149.899 L 120.740,152.058 L 120.786,154.167 L 120.945,156.207 L 121.216,158.158 L 121.596,159.999 L 122.082,161.712 L 122.668,163.281 L 123.349,164.690 L 124.119,165.925 L 124.968,166.973 L 125.890,167.825 L 126.875,168.471 L 127.912,168.906 L 128.992,169.125 L 130.104,169.125 L 131.238,168.907 L 132.380,168.473 L 133.521,167.828 L 134.649,166.977 L 135.753,165.929 L 136.822,164.695 L 137.845,163.287 L 138.811,161.719 L 139.713,160.005 L 140.539,158.165 L 141.283,156.215 L 141.937,154.175 L 142.494,152.066 L 142.948,149.908 L 143.296,147.723 L 143.534,145.532 L 143.660,143.357 L 143.671,141.221 L 143.569,139.143 L 143.353,137.146 L 143.027,135.248 L 142.594,133.468 L 142.057,131.825 L 141.423,130.334 L 140.696,129.010 L 139.886,127.867 L 138.999,126.916 L 138.045,126.166 L 137.033,125.625 L 135.973,125.298 L 134.875,125.188 L 133.751,125.297 L 132.612,125.623 L 131.468,126.164 L 130.332,126.913 L 129.215,127.863 L 128.127,129.006 L 127.080,130.328 L 126.084,131.819 L 125.149,133.462 L 124.284,135.241 L 123.498,137.138 L 122.799,139.135 L 122.193,141.213 Z" fill="#ffffff" stroke="#000000" stroke-width="1.2" stroke-opacity="1" /></g><g id="path1265"><path d="M 123.998,153.883 L 123.819,154.675 L 123.693,155.489 L 123.622,156.318 L 123.607,157.154 L 123.646,157.988 L 123.741,158.811 L 123.890,159.617 L 124.092,160.396 L 124.345,161.141 L 124.645,161.845 L 124.991,162.500 L 125.379,163.100 L 125.804,163.640 L 126.264,164.113 L 126.752,164.515 L 127.264,164.842 L 127.796,165.091 L 128.342,165.260 L 128.896,165.346 L 129.453,165.349 L 130.007,165.268 L 130.553,165.105 L 131.086,164.861 L 131.600,164.539 L 132.090,164.142 L 132.551,163.673 L 132.979,163.138 L 133.370,162.541 L 133.718,161.890 L 134.022,161.189 L 134.278,160.446 L 134.483,159.669 L 134.636,158.865 L 134.734,158.042 L 134.778,157.209 L 134.765,156.373 L 134.698,155.543 L 134.576,154.728 L 134.400,153.935 L 134.173,153.172 L 133.896,152.446 L 133.572,151.766 L 133.205,151.137 L 132.798,150.567 L 132.355,150.060 L 131.881,149.622 L 131.380,149.256 L 130.857,148.968 L 130.318,148.759 L 129.767,148.632 L 129.211,148.587 L 128.655,148.626 L 128.103,148.748 L 127.563,148.952 L 127.039,149.235 L 126.537,149.595 L 126.060,150.029 L 125.615,150.531 L 125.206,151.098 L 124.836,151.723 L 124.509,152.400 L 124.229,153.122 L 123.998,153.883 Z" fill="#2b0000" stroke="#000000" stroke-width="1.2" stroke-opacity="1" /></g><g id="path2147"><path d="m 169.89407,144.72457 c 2.93644,0.41949 5.91903,0.59149 8.80932,1.25848 5.17031,1.19315 10.35569,2.66089 15.10169,5.0339 0.37521,0.1876 -0.3752,1.07087 0,1.25847 1.07212,0.53606 4.06785,0.29242 5.0339,1.25848 0.91963,0.91962 -2.07573,11.26108 -2.51695,12.58474 -0.60593,1.8178 -7.04271,7.63158 -8.80932,8.80932 -1.04517,0.69678 -3.98873,0.5617 -5.0339,1.25848 -0.98723,0.65815 -1.45571,1.98633 -2.51695,2.51695 -2.75109,1.37554 -7.84975,-2.06859 -10.06779,1.25847 -0.95942,1.43912 -0.48498,3.48689 -1.25848,5.0339" fill="#ffff00" stroke="#000000" stroke-width="1.2" stroke-opacity="1" fill-opacity="0.981132" /></g><g id="path397"><path d="M 122.193,141.213 L 121.686,143.349 L 121.284,145.523 L 120.991,147.714 L 120.809,149.899 L 120.740,152.058 L 120.786,154.167 L 120.945,156.207 L 121.216,158.158 L 121.596,159.999 L 122.082,161.712 L 122.668,163.281 L 123.349,164.690 L 124.119,165.925 L 124.968,166.973 L 125.890,167.825 L 126.875,168.471 L 127.912,168.906 L 128.992,169.125 L 130.104,169.125 L 131.238,168.907 L 132.380,168.473 L 133.521,167.828 L 134.649,166.977 L 135.753,165.929 L 136.822,164.695 L 137.845,163.287 L 138.811,161.719 L 139.713,160.005 L 140.539,158.165 L 141.283,156.215 L 141.937,154.175 L 142.494,152.066 L 142.948,149.908 L 143.296,147.723 L 143.534,145.532 L 143.660,143.357 L 143.671,141.221 L 143.569,139.143 L 143.353,137.146 L 143.027,135.248 L 142.594,133.468 L 142.057,131.825 L 141.423,130.334 L 140.696,129.010 L 139.886,127.867 L 138.999,126.916 L 138.045,126.166 L 137.033,125.625 L 135.973,125.298 L 134.875,125.188 L 133.751,125.297 L 132.612,125.623 L 131.468,126.164 L 130.332,126.913 L 129.215,127.863 L 128.127,129.006 L 127.080,130.328 L 126.084,131.819 L 125.149,133.462 L 124.284,135.241 L 123.498,137.138 L 122.799,139.135 L 122.193,141.213 Z" fill="#ffffff" stroke="#000000" stroke-width="1.2" stroke-opacity="1" /></g><g id="path1265"><path d="M 123.998,153.883 L 123.819,154.675 L 123.693,155.489 L 123.622,156.318 L 123.607,157.154 L 123.646,157.988 L 123.741,158.811 L 123.890,159.617 L 124.092,160.396 L 124.345,161.141 L 124.645,161.845 L 124.991,162.500 L 125.379,163.100 L 125.804,163.640 L 126.264,164.113 L 126.752,164.515 L 127.264,164.842 L 127.796,165.091 L 128.342,165.260 L 128.896,165.346 L 129.453,165.349 L 130.007,165.268 L 130.553,165.105 L 131.086,164.861 L 131.600,164.539 L 132.090,164.142 L 132.551,163.673 L 132.979,163.138 L 133.370,162.541 L 133.718,161.890 L 134.022,161.189 L 134.278,160.446 L 134.483,159.669 L 134.636,158.865 L 134.734,158.042 L 134.778,157.209 L 134.765,156.373 L 134.698,155.543 L 134.576,154.728 L 134.400,153.935 L 134.173,153.172 L 133.896,152.446 L 133.572,151.766 L 133.205,151.137 L 132.798,150.567 L 132.355,150.060 L 131.881,149.622 L 131.380,149.256 L 130.857,148.968 L 130.318,148.759 L 129.767,148.632 L 129.211,148.587 L 128.655,148.626 L 128.103,148.748 L 127.563,148.952 L 127.039,149.235 L 126.537,149.595 L 126.060,150.029 L 125.615,150.531 L 125.206,151.098 L 124.836,151.723 L 124.509,152.400 L 124.229,153.122 L 123.998,153.883 Z" fill="#2b0000" stroke="#000000" stroke-width="1.2" stroke-opacity="1" /></g><g id="path1439"><path d="m 101.93644,176.18644 c -3.55278,1.84828 -11.195999,6.97937 -13.843222,10.06779 -1.96864,2.29675 -4.077308,4.68109 -5.033896,7.55085 -0.265311,0.79593 0.311589,1.73798 0,2.51695 -0.133694,0.33423 -4.436285,4.97066 -3.775424,6.29237 1.431628,2.86326 8.945353,0.66325 11.32627,1.25848 0.575537,0.14388 0.695669,1.07087 1.258474,1.25847 1.59438,0.53146 9.755308,0.78548 11.326268,0 1.06124,-0.53062 1.52973,-1.85879 2.51695,-2.51695 2.89216,-1.9281 2.51695,-0.10489 2.51695,-2.51694" fill="#ffff00" stroke="#000000" stroke-width="1.2" stroke-opacity="1" fill-opacity="1" /></g><g id="path230"><path d="M 173.669,158.568 L 173.307,165.710 L 172.222,172.781 L 170.427,179.711 L 167.938,186.431 L 164.781,192.874 L 160.986,198.976 L 156.593,204.677 L 151.643,209.919 L 146.187,214.651 L 140.279,218.825 L 133.977,222.401 L 127.345,225.342 L 120.447,227.620 L 113.353,229.211 L 106.133,230.100 L 98.858,230.279 L 91.602,229.744 L 84.436,228.502 L 77.431,226.565 L 70.657,223.953 L 64.182,220.690 L 58.070,216.811 L 52.381,212.352 L 47.171,207.359 L 42.494,201.881 L 38.395,195.972 L 34.915,189.692 L 32.088,183.102 L 29.944,176.268 L 28.502,169.259 L 27.777,162.143 L 27.777,154.992 L 28.502,147.877 L 29.944,140.867 L 32.088,134.034 L 34.915,127.444 L 38.395,121.164 L 42.494,115.255 L 47.171,109.777 L 52.381,104.784 L 58.070,100.325 L 64.182,96.445 L 70.657,93.183 L 77.431,90.570 L 84.436,88.633 L 91.602,87.391 L 98.858,86.857 L 106.133,87.035 L 113.353,87.925 L 120.447,89.516 L 127.345,91.793 L 133.977,94.735 L 140.279,98.310 L 146.187,102.485 L 151.643,107.216 L 156.593,112.459 L 160.986,118.159 L 164.781,124.261 L 167.938,130.704 L 170.427,137.424 L 172.222,144.354 L 173.307,151.425 L 173.669,158.568 Z" fill="#ffff00" stroke="#000000" stroke-width="1.2" stroke-opacity="1" /></g><g id="path2717"><path d="m 28.944914,147.24152 c -8.783163,3.07931 -18.652686,-1.40809 -26.4279649,3.77543 -1.1037552,0.73583 -0.5226377,2.67167 -1.2584746,3.77542 C 0.92939834,155.28599 0.1438844,155.47531 0,156.05085 c -0.30522492,1.22089 0.30522492,2.55452 0,3.77542 -1.8411849,7.36474 -0.46293129,-2.84956 -2.5169491,1.25847 -0.6994698,1.39894 -0.5033297,8.55781 0,10.0678 1.54181808,4.62545 9.2623979,7.14815 12.5847461,8.80932 4.857547,2.42877 4.27088,5.28163 8.809321,7.55085 5.133038,2.56652 13.188953,1.25847 18.877119,1.25847" fill="#ffff00" stroke="#000000" stroke-width="1.2" stroke-opacity="1" fill-opacity="0.981132" /></g><g id="path393"><path d="M 180.895,134.852 L 181.255,137.083 L 181.459,139.327 L 181.504,141.562 L 181.390,143.767 L 181.118,145.918 L 180.690,147.995 L 180.112,149.977 L 179.388,151.844 L 178.526,153.578 L 177.534,155.161 L 176.423,156.578 L 175.203,157.815 L 173.887,158.859 L 172.487,159.700 L 171.017,160.330 L 169.493,160.742 L 167.928,160.932 L 166.340,160.899 L 164.743,160.643 L 163.154,160.165 L 161.587,159.472 L 160.060,158.570 L 158.586,157.467 L 157.181,156.176 L 155.859,154.708 L 154.632,153.078 L 153.514,151.302 L 152.514,149.399 L 151.643,147.387 L 150.910,145.286 L 150.322,143.116 L 149.884,140.900 L 149.602,138.660 L 149.477,136.417 L 149.512,134.195 L 149.705,132.014 L 150.055,129.897 L 150.559,127.865 L 151.211,125.938 L 152.005,124.136 L 152.933,122.475 L 153.986,120.973 L 155.153,119.644 L 156.423,118.503 L 157.783,117.559 L 159.219,116.822 L 160.718,116.301 L 162.264,115.999 L 163.843,115.921 L 165.437,116.066 L 167.032,116.433 L 168.612,117.019 L 170.161,117.818 L 171.663,118.822 L 173.104,120.020 L 174.470,121.402 L 175.746,122.953 L 176.920,124.657 L 177.981,126.499 L 178.917,128.459 L 179.720,130.518 L 180.382,132.656 L 180.895,134.852 Z" fill="#ffffff" stroke="#000000" stroke-width="1.2" stroke-opacity="1" /></g><g id="path1267"><path d="M 177.655,146.583 L 177.798,147.514 L 177.860,148.454 L 177.840,149.395 L 177.740,150.326 L 177.559,151.237 L 177.301,152.122 L 176.966,152.969 L 176.560,153.771 L 176.085,154.521 L 175.546,155.210 L 174.949,155.831 L 174.300,156.379 L 173.605,156.848 L 172.871,157.234 L 172.106,157.532 L 171.316,157.739 L 170.510,157.855 L 169.696,157.876 L 168.882,157.804 L 168.076,157.638 L 167.286,157.381 L 166.520,157.036 L 165.785,156.604 L 165.089,156.092 L 164.439,155.503 L 163.841,154.844 L 163.301,154.122 L 162.824,153.343 L 162.416,152.515 L 162.080,151.646 L 161.819,150.746 L 161.637,149.823 L 161.535,148.886 L 161.514,147.944 L 161.573,147.007 L 161.714,146.085 L 161.934,145.186 L 162.231,144.319 L 162.602,143.493 L 163.043,142.716 L 163.551,141.996 L 164.119,141.340 L 164.743,140.755 L 165.416,140.245 L 166.131,139.818 L 166.882,139.475 L 167.660,139.222 L 168.459,139.061 L 169.270,138.992 L 170.085,139.018 L 170.896,139.137 L 171.695,139.348 L 172.474,139.650 L 173.225,140.039 L 173.942,140.512 L 174.616,141.063 L 175.241,141.687 L 175.810,142.379 L 176.319,143.131 L 176.762,143.935 L 177.135,144.784 L 177.434,145.670 L 177.655,146.583 Z" fill="#2b0000" stroke="#000000" stroke-width="1.2" stroke-opacity="1" /></g><g id="path2136"><path d="m 80.542372,218.97457 c 9.726314,4.5029 24.667918,6.04008 35.237288,2.51695 0.56281,-0.1876 0.69567,-1.07087 1.25847,-1.25847 0.79593,-0.26531 1.76655,0.3752 2.51695,0 15.23785,-7.61892 -2.73828,-1.1847 8.80932,-5.0339" fill="#2b0000" stroke="#000000" stroke-width="1.2" stroke-opacity="1" fill-opacity="0" /></g></svg>