<?xml version='1.0' encoding='utf-8'?>
<svg xmlns="http://www.w3.org/2000/svg" width="210" height="297" viewBox="0 0 210 297"><g id="path2717"><path d="m 28.944914,147.24152 c -8.783163,3.07931 -18.652686,-1.40809 -26.4279649,3.77543 -1.1037552,0.73583 -0.5226377,2.67167 -1.2584746,3.77542 C 0.92939834,155.28599 0.1438844,155.47531 0,156.05085 c -0.30522492,1.22089 0.30522492,2.55452 0,3.77542 -1.8411849,7.36474 -0.46293129,-2.84956 -2.5169491,1.25847 -0.6994698,1.39894 -0.5033297,8.55781 0,10.0678 1.54181808,4.62545 9.2623979,7.14815 12.5847461,8.80932 4.857547,2.42877 4.27088,5.28163 8.809321,7.55085 5.133038,2.56652 13.188953,1.25847 18.877119,1.25847" fill="#ffff00" stroke="#000000" stroke-width="1.2" stroke-opacity="1" fill-opacity="0.981132" /></g><g id="path2147"><path d="m 169.89407,144.72457 c 2.93644,0.41949 5.91903,0.59149 8.80932,1.25848 5.17031,1.19315 10.35569,2.66089 15.10169,5.0339 0.37521,0.1876 -0.3752,1.07087 0,1.25847 1.07212,0.53606 4.06785,0.29242 5.0339,1.25848 0.91963,0.91962 -2.07573,11.26108 -2.51695,12.58474 -0.60593,1.8178 -7.04271,7.63158 -8.80932,8.80932 -1.04517,0.69678 -3.98873,0.5617 -5.0339,1.25848 -0.98723,0.65815 -1.45571,1.98633 -2.51695,2.51695 -2.75109,1.37554 -7.84975,-2.06859 -10.06779,1.25847 -0.95942,1.43912 -0.48498,3.48689 -1.25848,5.0339" fill="#ffff00" stroke="#000000" stroke-width="1.2" stroke-opacity="1" fill-opacity="0.98113215" /></g><g id="path230"><path d="M 173.669,158.568 L 173.307,165.710 L 172.222,172.781 L 170.427,179.711 L 167.938,186.431 L 164.781,192.874 L 160.986,198.976 L 156.593,204.677 L 151.643,209.919 L 146.187,214.651 L 140.279,218.825 L 133.977,222.401 L 127.345,225.342 L 120.447,227.620 L 113.353,229.211 L 106.133,230.100 L 98.858,230.279 L 91.602,229.744 L 84.436,228.502 L 77.431,226.565 L 70.657,223.953 L 64.182,220.690 L 58.070,216.811 L 52.381,212.352 L 47.171,207.359 L 42.494,201.881 L 38.395,195.972 L 34.915,189.692 L 32.088,183.102 L 29.944,176.268 L 28.502,169.259 L 27.777,162.143 L 27.777,154.992 L 28.502,147.877 L 29.944,140.867 L 32.088,134.034 L 34.915,127.444 L 38.395,121.164 L 42.494,115.255 L 47.171,109.777 L 52.381,104.784 L 58.070,100.325 L 64.182,96.445 L 70.657,93.183 L 77.431,90.570 L 84.436,88.633 L 91.602,87.391 L 98.858,86.857 L 106.133,87.035 L 113.353,87.925 L 120.447,89.516 L 127.345,91.793 L 133.977,94.735 L 140.279,98.310 L 146.187,102.485 L 151.643,107.216 L 156.593,112.459 L 160.986,118.159 L 164.781,124.261 L 167.938,130.704 L 170.427,137.424 L 172.222,144.354 L 173.307,151.425 L 173.669,158.568 Z" fill="#ffff00" stroke="#000000" stroke-width="1.2" stroke-opacity="1" /></g><g id="path393"><path d="M 95.644,157.309 L 95.553,159.565 L 95.282,161.798 L 94.833,163.986 L 94.211,166.108 L 93.422,168.143 L 92.473,170.070 L 91.375,171.870 L 90.138,173.526 L 88.774,175.020 L 87.297,176.338 L 85.721,177.467 L 84.063,178.396 L 82.338,179.115 L 80.565,179.618 L 78.760,179.899 L 76.941,179.955 L 75.127,179.786 L 73.336,179.394 L 71.584,178.782 L 69.891,177.957 L 68.272,176.927 L 66.744,175.702 L 65.322,174.294 L 64.020,172.717 L 62.850,170.987 L 61.825,169.121 L 60.955,167.138 L 60.249,165.057 L 59.713,162.899 L 59.352,160.686 L 59.171,158.438 L 59.171,156.180 L 59.352,153.933 L 59.713,151.720 L 60.249,149.562 L 60.955,147.481 L 61.825,145.497 L 62.850,143.632 L 64.020,141.902 L 65.322,140.325 L 66.744,138.917 L 68.272,137.692 L 69.891,136.661 L 71.584,135.836 L 73.336,135.225 L 75.127,134.833 L 76.941,134.664 L 78.760,134.720 L 80.565,135.001 L 82.338,135.503 L 84.063,136.223 L 85.721,137.151 L 87.297,138.281 L 88.774,139.599 L 90.138,141.093 L 91.375,142.749 L 92.473,144.549 L 93.422,146.476 L 94.211,148.510 L 94.833,150.632 L 95.282,152.821 L 95.553,155.054 L 95.644,157.309 Z" fill="#ffffff" stroke="#000000" stroke-width="1.2" stroke-opacity="1" /></g><g id="path1267"><path d="M 89.352,168.006 L 89.305,168.946 L 89.165,169.877 L 88.932,170.788 L 88.611,171.673 L 88.202,172.520 L 87.712,173.323 L 87.143,174.073 L 86.503,174.763 L 85.798,175.386 L 85.034,175.935 L 84.219,176.405 L 83.361,176.792 L 82.469,177.092 L 81.552,177.302 L 80.618,177.419 L 79.678,177.442 L 78.740,177.372 L 77.813,177.208 L 76.907,176.953 L 76.031,176.610 L 75.194,176.180 L 74.403,175.670 L 73.668,175.083 L 72.994,174.426 L 72.389,173.705 L 71.859,172.928 L 71.409,172.102 L 71.044,171.235 L 70.766,170.335 L 70.580,169.413 L 70.486,168.477 L 70.486,167.536 L 70.580,166.600 L 70.766,165.677 L 71.044,164.778 L 71.409,163.911 L 71.859,163.085 L 72.389,162.307 L 72.994,161.587 L 73.668,160.930 L 74.403,160.343 L 75.194,159.832 L 76.031,159.403 L 76.907,159.059 L 77.813,158.804 L 78.740,158.641 L 79.678,158.571 L 80.618,158.594 L 81.552,158.711 L 82.469,158.921 L 83.361,159.220 L 84.219,159.607 L 85.034,160.078 L 85.798,160.627 L 86.503,161.250 L 87.143,161.939 L 87.712,162.689 L 88.202,163.492 L 88.611,164.340 L 88.932,165.224 L 89.165,166.136 L 89.305,167.067 L 89.352,168.006 Z" fill="#2b0000" stroke="#000000" stroke-width="1.2" stroke-opacity="1" /></g><g id="path397"><path d="M 145.983,154.792 L 145.899,157.173 L 145.646,159.530 L 145.228,161.840 L 144.649,164.080 L 143.914,166.228 L 143.031,168.262 L 142.008,170.162 L 140.856,171.909 L 139.586,173.487 L 138.211,174.878 L 136.744,176.070 L 135.201,177.051 L 133.595,177.810 L 131.944,178.340 L 130.263,178.637 L 128.570,178.696 L 126.881,178.518 L 125.213,178.104 L 123.583,177.458 L 122.006,176.587 L 120.499,175.500 L 119.076,174.207 L 117.752,172.720 L 116.540,171.056 L 115.451,169.230 L 114.497,167.260 L 113.687,165.167 L 113.029,162.970 L 112.530,160.693 L 112.194,158.356 L 112.025,155.984 L 112.025,153.601 L 112.194,151.229 L 112.530,148.892 L 113.029,146.614 L 113.687,144.418 L 114.497,142.324 L 115.451,140.355 L 116.540,138.529 L 117.752,136.864 L 119.076,135.378 L 120.499,134.085 L 122.006,132.997 L 123.583,132.126 L 125.213,131.481 L 126.881,131.067 L 128.570,130.889 L 130.263,130.948 L 131.944,131.245 L 133.595,131.775 L 135.201,132.534 L 136.744,133.515 L 138.211,134.706 L 139.586,136.098 L 140.856,137.675 L 142.008,139.423 L 143.031,141.323 L 143.914,143.357 L 144.649,145.504 L 145.228,147.744 L 145.646,150.054 L 145.899,152.412 L 145.983,154.792 Z" fill="#ffffff" stroke="#000000" stroke-width="1.2" stroke-opacity="1" /></g><g id="path1265"><path d="M 138.432,166.119 L 138.388,166.996 L 138.258,167.864 L 138.041,168.715 L 137.740,169.540 L 137.359,170.332 L 136.901,171.081 L 136.371,171.781 L 135.774,172.425 L 135.115,173.006 L 134.402,173.519 L 133.642,173.958 L 132.841,174.319 L 132.009,174.599 L 131.153,174.794 L 130.281,174.903 L 129.403,174.925 L 128.527,174.860 L 127.663,174.707 L 126.817,174.469 L 126.000,174.148 L 125.218,173.748 L 124.480,173.271 L 123.794,172.724 L 123.165,172.111 L 122.601,171.438 L 122.106,170.712 L 121.686,169.941 L 121.345,169.132 L 121.086,168.292 L 120.912,167.432 L 120.825,166.558 L 120.825,165.680 L 120.912,164.806 L 121.086,163.945 L 121.345,163.106 L 121.686,162.296 L 122.106,161.525 L 122.601,160.800 L 123.165,160.127 L 123.794,159.514 L 124.480,158.966 L 125.218,158.490 L 126.000,158.089 L 126.817,157.768 L 127.663,157.530 L 128.527,157.378 L 129.403,157.312 L 130.281,157.334 L 131.153,157.443 L 132.009,157.639 L 132.841,157.918 L 133.642,158.279 L 134.402,158.719 L 135.115,159.231 L 135.774,159.812 L 136.371,160.456 L 136.901,161.156 L 137.359,161.906 L 137.740,162.697 L 138.041,163.522 L 138.258,164.373 L 138.388,165.242 L 138.432,166.119 Z" fill="#2b0000" stroke="#000000" stroke-width="1.2" stroke-opacity="1" /></g><g id="path1439"><path d="m 101.93644,176.18644 c -3.55278,1.84828 -11.195999,6.97937 -13.843222,10.06779 -1.96864,2.29675 -4.077308,4.68109 -5.033896,7.55085 -0.265311,0.79593 0.311589,1.73798 0,2.51695 -0.133694,0.33423 -4.436285,4.97066 -3.775424,6.29237 1.431628,2.86326 8.945353,0.66325 11.32627,1.25848 0.575537,0.14388 0.695669,1.07087 1.258474,1.25847 1.59438,0.53146 9.755308,0.78548 11.326268,0 1.06124,-0.53062 1.52973,-1.85879 2.51695,-2.51695 2.89216,-1.9281 2.51695,-0.10489 2.51695,-2.51694" fill="#2b0000" stroke="#000000" stroke-width="1.2" stroke-opacity="1" fill-opacity="0" /></g><g id="path2136"><path d="m 80.542372,218.97457 c 9.726314,4.5029 24.667918,6.04008 35.237288,2.51695 0.56281,-0.1876 0.69567,-1.07087 1.25847,-1.25847 0.79593,-0.26531 1.76655,0.3752 2.51695,0 15.23785,-7.61892 -2.73828,-1.1847 8.80932,-5.0339" fill="#2b0000" stroke="#000000" stroke-width="1.2" stroke-opacity="1" fill-opacity="0" /></g><g id="path2717"><path d="m 28.944914,147.24152 c -8.783163,3.07931 -18.652686,-1.40809 -26.4279649,3.77543 -1.1037552,0.73583 -0.5226377,2.67167 -1.2584746,3.77542 C 0.92939834,155.28599 0.1438844,155.47531 0,156.05085 c -0.30522492,1.22089 0.30522492,2.55452 0,3.77542 -1.8411849,7.36474 -0.46293129,-2.84956 -2.5169491,1.25847 -0.6994698,1.39894 -0.5033297,8.55781 0,10.0678 1.54181808,4.62545 9.2623979,7.14815 12.5847461,8.80932 4.857547,2.42877 4.27088,5.28163 8.809321,7.55085 5.133038,2.56652 13.188953,1.25847 18.877119,1.25847" fill="#ffff00" stroke="#000000" stroke-width="1.2" stroke-opacity="1" fill-opacity="0.981132" /></g><g id="path2147"><path d="m 169.89407,144.72457 c 2.93644,0.41949 5.91903,0.59149 8.80932,1.25848 5.17031,1.19315 10.35569,2.66089 15.10169,5.0339 0.37521,0.1876 -0.3752,1.07087 0,1.25847 1.07212,0.53606 4.06785,0.29242 5.0339,1.25848 0.91963,0.91962 -2.07573,11.26108 -2.51695,12.58474 -0.60593,1.8178 -7.04271,7.63158 -8.80932,8.80932 -1.04517,0.69678 -3.98873,0.5617 -5.0339,1.25848 -0.98723,0.65815 -1.45571,1.98633 -2.51695,2.51695 -2.75109,1.37554 -7.84975,-2.06859 -10.06779,1.25847 -0.95942,1.43912 -0.48498,3.48689 -1.25848,5.0339" fill="#ffff00" stroke="#000000" stroke-width="1.2" stroke-opacity="1" fill-opacity="0.98113215" /></g><g id="path230"><path d="M 173.669,158.568 L 173.307,165.710 L 172.222,172.781 L 170.427,179.711 L 167.938,186.431 L 164.781,192.874 L 160.986,198.976 L 156.593,204.677 L 151.643,209.919 L 146.187,214.651 L 140.279,218.825 L 133.977,222.401 L 127.345,225.342 L 120.447,227.620 L 113.353,229.211 L 106.133,230.100 L 98.858,230.279 L 91.602,229.744 L 84.436,228.502 L 77.431,226.565 L 70.657,223.953 L 64.182,220.690 L 58.070,216.811 L 52.381,212.352 L 47.171,207.359 L 42.494,201.881 L 38.395,195.972 L 34.915,189.692 L 32.088,183.102 L 29.944,176.268 L 28.502,169.259 L 27.777,162.143 L 27.777,154.992 L 28.502,147.877 L 29.944,140.867 L 32.088,134.034 L 34.915,127.444 L 38.395,121.164 L 42.494,115.255 L 47.171,109.777 L 52.381,104.784 L 58.070,100.325 L 64.182,96.445 L 70.657,93.183 L 77.431,90.570 L 84.436,88.633 L 91.602,87.391 L 98.858,86.857 L 106.133,87.035 L 113.353,87.925 L 120.447,89.516 L 127.345,91.793 L 133.977,94.735 L 140.279,98.310 L 146.187,102.485 L 151.643,107.216 L 156.593,112.459 L 160.986,118.159 L 164.781,124.261 L 167.938,130.704 L 170.427,137.424 L 172.222,144.354 L 173.307,151.425 L 173.669,158.568 Z" fill="#ffff00" stroke="#000000" stroke-width="1.2" stroke-opacity="1" /></g><g id="path393"><path d="M 95.644,157.309 L 95.553,159.565 L 95.282,161.798 L 94.833,163.986 L 94.211,166.108 L 93.422,168.143 L 92.473,170.070 L 91.375,171.870 L 90.138,173.526 L 88.774,175.020 L 87.297,176.338 L 85.721,177.467 L 84.063,178.396 L 82.338,179.115 L 80.565,179.618 L 78.760,179.899 L 76.941,179.955 L 75.127,179.786 L 73.336,179.394 L 71.584,178.782 L 69.891,177.957 L 68.272,176.927 L 66.744,175.702 L 65.322,174.294 L 64.020,172.717 L 62.850,170.987 L 61.825,169.121 L 60.955,167.138 L 60.249,165.057 L 59.713,162.899 L 59.352,160.686 L 59.171,158.438 L 59.171,156.180 L 59.352,153.933 L 59.713,151.720 L 60.249,149.562 L 60.955,147.481 L 61.825,145.497 L 62.850,143.632 L 64.020,141.902 L 65.322,140.325 L 66.744,138.917 L 68.272,137.692 L 69.891,136.661 L 71.584,135.836 L 73.336,135.225 L 75.127,134.833 L 76.941,134.664 L 78.760,134.720 L 80.565,135.001 L 82.338,135.503 L 84.063,136.223 L 85.721,137.151 L 87.297,138.281 L 88.774,139.599 L 90.138,141.093 L 91.375,142.749 L 92.473,144.549 L 93.422,146.476 L 94.211,148.510 L 94.833,150.632 L 95.282,152.821 L 95.553,155.054 L 95.644,157.309 Z" fill="#ffffff" stroke="#000000" stroke-width="1.2" stroke-opacity="1" /></g><g id="path1267"><path d="M 89.352,168.006 L 89.305,168.946 L 89.165,169.877 L 88.932,170.788 L 88.611,171.673 L 88.202,172.520 L 87.712,173.323 L 87.143,174.073 L 86.503,174.763 L 85.798,175.386 L 85.034,175.935 L 84.219,176.405 L 83.361,176.792 L 82.469,177.092 L 81.552,177.302 L 80.618,177.419 L 79.678,177.442 L 78.740,177.372 L 77.813,177.208 L 76.907,176.953 L 76.031,176.610 L 75.194,176.180 L 74.403,175.670 L 73.668,175.083 L 72.994,174.426 L 72.389,173.705 L 71.859,172.928 L 71.409,172.102 L 71.044,171.235 L 70.766,170.335 L 70.580,169.413 L 70.486,168.477 L 70.486,167.536 L 70.580,166.600 L 70.766,165.677 L 71.044,164.778 L 71.409,163.911 L 71.859,163.085 L 72.389,162.307 L 72.994,161.587 L 73.668,160.930 L 74.403,160.343 L 75.194,159.832 L 76.031,159.403 L 76.907,159.059 L 77.813,158.804 L 78.740,158.641 L 79.678,158.571 L 80.618,158.594 L 81.552,158.711 L 82.469,158.921 L 83.361,159.220 L 84.219,159.607 L 85.034,160.078 L 85.798,160.627 L 86.503,161.250 L 87.143,161.939 L 87.712,162.689 L 88.202,163.492 L 88.611,164.340 L 88.932,165.224 L 89.165,166.136 L 89.305,167.067 L 89.352,168.006 Z" fill="#2b0000" stroke="#000000" stroke-width="1.2" stroke-opacity="1" /></g><g id="path397"><path d="M 145.983,154.792 L 145.899,157.173 L 145.646,159.530 L 145.228,161.840 L 144.649,164.080 L 143.914,166.228 L 143.031,168.262 L 142.008,170.162 L 140.856,171.909 L 139.586,173.487 L 138.211,174.878 L 136.744,176.070 L 135.201,177.051 L 133.595,177.810 L 131.944,178.340 L 130.263,178.637 L 128.570,178.696 L 126.881,178.518 L 125.213,178.104 L 123.583,177.458 L 122.006,176.587 L 120.499,175.500 L 119.076,174.207 L 117.752,172.720 L 116.540,171.056 L 115.451,169.230 L 114.497,167.260 L 113.687,165.167 L 113.029,162.970 L 112.530,160.693 L 112.194,158.356 L 112.025,155.984 L 112.025,153.601 L 112.194,151.229 L 112.530,148.892 L 113.029,146.614 L 113.687,144.418 L 114.497,142.324 L 115.451,140.355 L 116.540,138.529 L 117.752,136.864 L 119.076,135.378 L 120.499,134.085 L 122.006,132.997 L 123.583,132.126 L 125.213,131.481 L 126.881,131.067 L 128.570,130.889 L 130.263,130.948 L 131.944,131.245 L 133.595,131.775 L 135.201,132.534 L 136.744,133.515 L 138.211,134.706 L 139.586,136.098 L 140.856,137.675 L 142.008,139.423 L 143.031,141.323 L 143.914,143.357 L 144.649,145.504 L 145.228,147.744 L 145.646,150.054 L 145.899,152.412 L 145.983,154.792 Z" fill="#ffffff" stroke="#000000" stroke-width="1.2" stroke-opacity="1" /></g><g id="path1265"><path d="M 138.432,166.119 L 138.388,166.996 L 138.258,167.864 L 138.041,168.715 L 137.740,169.540 L 137.359,170.332 L 136.901,171.081 L 136.371,171.781 L 135.774,172.425 L 135.115,173.006 L 134.402,173.519 L 133.642,173.958 L 132.841,174.319 L 132.009,174.599 L 131.153,174.794 L 130.281,174.903 L 129.403,174.925 L 128.527,174.860 L 127.663,174.707 L 126.817,174.469 L 126.000,174.148 L 125.218,173.748 L 124.480,173.271 L 123.794,172.724 L 123.165,172.111 L 122.601,171.438 L 122.106,170.712 L 121.686,169.941 L 121.345,169.132 L 121.086,168.292 L 120.912,167.432 L 120.825,166.558 L 120.825,165.680 L 120.912,164.806 L 121.086,163.945 L 121.345,163.106 L 121.686,162.296 L 122.106,161.525 L 122.601,160.800 L 123.165,160.127 L 123.794,159.514 L 124.480,158.966 L 125.218,158.490 L 126.000,158.089 L 126.817,157.768 L 127.663,157.530 L 128.527,157.378 L 129.403,157.312 L 130.281,157.334 L 131.153,157.443 L 132.009,157.639 L 132.841,157.918 L 133.642,158.279 L 134.402,158.719 L 135.115,159.231 L 135.774,159.812 L 136.371,160.456 L 136.901,161.156 L 137.359,161.906 L 137.740,162.697 L 138.041,163.522 L 138.258,164.373 L 138.388,165.242 L 138.432,166.119 Z" fill="#2b0000" stroke="#000000" stroke-width="1.2" stroke-opacity="1" /></g><g id="path1439"><path d="m 101.93644,176.18644 c -3.55278,1.84828 -11.195999,6.97937 -13.843222,10.06779 -1.96864,2.29675 -4.077308,4.68109 -5.033896,7.55085 -0.265311,0.79593 0.311589,1.73798 0,2.51695 -0.133694,0.33423 -4.436285,4.97066 -3.775424,6.29237 1.431628,2.86326 8.945353,0.66325 11.32627,1.25848 0.575537,0.14388 0.695669,1.07087 1.258474,1.25847 1.59438,0.53146 9.755308,0.78548 11.326268,0 1.06124,-0.53062 1.52973,-1.85879 2.51695,-2.51695 2.89216,-1.9281 2.51695,-0.10489 2.51695,-2.51694" fill="#2b0000" stroke="#000000" stroke-width="1.2" stroke-opacity="1" fill-opacity="0" /></g><g id="path2136"><path d="m 80.542372,218.97457 c 9.726314,4.5029 24.667918,6.04008 35.237288,2.51695 0.56281,-0.1876 0.69567,-1.07087 1.25847,-1.25847 0.79593,-0.26531 1.76655,0.3752 2.51695,0 15.23785,-7.61892 -2.73828,-1.1847 8.80932,-5.0339" fill="#2b0000" stroke="#000000" stroke-width="1.2" stroke-opacity="1" fill-opacity="0" /></g></svg>