<?xml version='1.0' encoding='utf-8'?>
<svg xmlns="http://www.w3.org/2000/svg" width="210" height="297" viewBox="0 0 210 297"><g id="path2136"><path d="M 129.426,189.877 L 128.928,190.098 L 128.430,190.319 L 127.926,190.527 L 127.421,190.733 L 126.911,190.928 L 126.401,191.121 L 125.887,191.303 L 125.372,191.482 L 124.854,191.652 L 124.335,191.820 L 123.813,191.977 L 123.291,192.134 L 122.766,192.280 L 122.240,192.424 L 121.712,192.560 L 121.183,192.693 L 120.652,192.818 L 120.121,192.940 L 119.588,193.056 L 119.054,193.167 L 118.519,193.273 L 117.983,193.373 L 117.446,193.469 L 116.909,193.559 L 116.370,193.646 L 115.831,193.725 L 115.291,193.802 L 114.750,193.871 L 114.209,193.937 L 113.667,193.997 L 113.124,194.053 L 112.582,194.104 L 112.038,194.149 L 111.494,194.191 L 110.950,194.225 L 110.406,194.258 L 109.861,194.281 L 109.316,194.302 L 108.771,194.316 L 108.226,194.326 L 107.681,194.330 L 107.136,194.329 L 106.590,194.323 L 106.045,194.310 L 105.500,194.294 L 104.955,194.269 L 104.411,194.242 L 103.867,194.205 L 103.323,194.165 L 102.780,194.117 L 102.237,194.064 L 101.695,194.004 L 101.154,193.938 L 100.614,193.865 L 100.074,193.785 L 99.536,193.699 L 98.999,193.604 L 98.463,193.504 L 97.929,193.395 L 97.396,193.280 L 96.865,193.155 L 96.335,193.024 L 95.809,192.882 L 95.284,192.735 L 94.762,192.576 L 94.245,192.405 L 93.814,192.090 L 93.482,191.660 L 93.107,191.270 L 92.610,191.097 L 92.069,191.112 L 91.531,191.195 L 90.988,191.241 L 90.462,191.133 L 89.965,190.912 L 89.478,190.666 L 88.992,190.418 L 88.508,190.168 L 88.024,189.917 L 87.542,189.662 L 87.061,189.404 L 86.583,189.142 L 86.107,188.875 L 85.635,188.603 L 85.169,188.320 L 84.711,188.024 L 84.274,187.699 L 84.075,187.235 L 84.559,187.202 L 85.095,187.297 L 85.626,187.424 L 85.224,187.288 L 84.704,187.122 L 84.186,186.954 L 83.667,186.785 L 83.149,186.615 L 82.631,186.444 L 82.114,186.272 L 81.596,186.100 Z" fill="#2b0000" stroke="#000000" stroke-width="1.2" stroke-opacity="1" fill-opacity="0" /></g><g id="path1439"><path d="M 99.158,165.876 L 99.742,166.083 L 100.322,166.298 L 100.901,166.520 L 101.477,166.747 L 102.051,166.979 L 102.623,167.215 L 103.194,167.455 L 103.764,167.698 L 104.331,167.946 L 104.898,168.196 L 105.463,168.450 L 106.026,168.707 L 106.587,168.968 L 107.147,169.233 L 107.705,169.501 L 108.261,169.774 L 108.815,170.051 L 109.366,170.334 L 109.914,170.622 L 110.458,170.917 L 110.999,171.219 L 111.534,171.532 L 112.062,171.855 L 112.579,172.195 L 113.082,172.556 L 113.574,172.933 L 114.064,173.312 L 114.550,173.694 L 115.032,174.084 L 115.506,174.482 L 115.970,174.892 L 116.420,175.318 L 116.852,175.761 L 117.260,176.227 L 117.638,176.718 L 117.975,177.236 L 118.219,177.804 L 118.156,178.411 L 118.107,179.028 L 118.466,179.511 L 118.941,179.907 L 119.422,180.297 L 119.897,180.695 L 120.364,181.101 L 120.820,181.521 L 121.256,181.960 L 121.658,182.431 L 121.975,182.962 L 121.866,183.553 L 121.372,183.918 L 120.796,184.141 L 120.193,184.281 L 119.580,184.368 L 118.962,184.419 L 118.344,184.445 L 117.725,184.452 L 117.105,184.444 L 116.486,184.427 L 115.868,184.401 L 115.249,184.370 L 114.631,184.336 L 114.013,184.301 L 113.394,184.267 L 112.776,184.239 L 112.157,184.219 L 111.538,184.217 L 110.919,184.246 L 110.317,184.386 L 109.848,184.781 L 109.320,185.103 L 108.713,185.211 L 108.097,185.273 L 107.480,185.319 L 106.861,185.355 L 106.243,185.384 L 105.624,185.407 L 105.005,185.426 L 104.386,185.439 L 103.767,185.448 L 103.148,185.452 L 102.528,185.452 L 101.909,185.446 L 101.290,185.434 L 100.671,185.416 L 100.052,185.388 L 99.434,185.348 L 98.818,185.290 L 98.206,185.196 L 97.618,185.006 L 97.083,184.697 L 96.596,184.315 L 96.117,183.923 L 95.602,183.580 L 95.042,183.318 L 94.464,183.096 L 93.873,182.912 L 93.268,182.782 L 92.804,182.394 L 92.819,181.775 Z" fill="#2b0000" stroke="#000000" stroke-width="1.2" stroke-opacity="1" fill-opacity="0" /></g><g id="path1265"><path d="M 67.730,150.357 L 67.761,150.873 L 67.826,151.386 L 67.924,151.893 L 68.074,152.387 L 68.261,152.869 L 68.477,153.339 L 68.734,153.787 L 69.024,154.214 L 69.337,154.626 L 69.683,155.010 L 70.054,155.370 L 70.440,155.713 L 70.855,156.021 L 71.284,156.309 L 71.726,156.576 L 72.189,156.806 L 72.659,157.022 L 73.142,157.205 L 73.634,157.363 L 74.131,157.504 L 74.638,157.605 L 75.147,157.692 L 75.661,157.747 L 76.177,157.778 L 76.694,157.789 L 77.210,157.764 L 77.725,157.726 L 78.236,157.650 L 78.744,157.556 L 79.247,157.437 L 79.742,157.286 L 80.231,157.121 L 80.706,156.916 L 81.172,156.693 L 81.626,156.446 L 82.061,156.167 L 82.484,155.871 L 82.884,155.543 L 83.263,155.192 L 83.625,154.823 L 83.951,154.422 L 84.252,154.003 L 84.531,153.568 L 84.763,153.106 L 84.965,152.630 L 85.137,152.143 L 85.258,151.640 L 85.340,151.130 L 85.388,150.615 L 85.388,150.099 L 85.340,149.584 L 85.258,149.074 L 85.137,148.571 L 84.965,148.084 L 84.763,147.608 L 84.531,147.146 L 84.252,146.711 L 83.951,146.292 L 83.625,145.891 L 83.263,145.522 L 82.884,145.171 L 82.484,144.843 L 82.061,144.547 L 81.626,144.268 L 81.172,144.021 L 80.706,143.798 L 80.231,143.593 L 79.742,143.428 L 79.247,143.277 L 78.744,143.158 L 78.236,143.064 L 77.725,142.988 L 77.210,142.950 L 76.694,142.925 L 76.177,142.936 L 75.661,142.967 L 75.147,143.022 L 74.638,143.109 L 74.131,143.210 L 73.634,143.351 L 73.142,143.509 L 72.659,143.692 L 72.189,143.908 L 71.726,144.138 L 71.284,144.405 L 70.855,144.693 L 70.440,145.001 L 70.054,145.344 L 69.683,145.704 L 69.337,146.088 L 69.024,146.500 L 68.734,146.927 L 68.477,147.375 L 68.261,147.845 L 68.074,148.327 L 67.924,148.821 L 67.826,149.328 L 67.761,149.841 L 67.730,150.357 Z" fill="#2b0000" stroke="#000000" stroke-width="1.2" stroke-opacity="1" /></g><g id="path397"><path d="M 60.158,140.796 L 60.208,141.977 L 60.287,143.157 L 60.436,144.330 L 60.646,145.493 L 60.894,146.649 L 61.233,147.781 L 61.604,148.904 L 62.050,149.999 L 62.552,151.069 L 63.094,152.119 L 63.727,153.118 L 64.396,154.092 L 65.125,155.023 L 65.922,155.896 L 66.757,156.733 L 67.657,157.500 L 68.609,158.200 L 69.596,158.850 L 70.639,159.407 L 71.721,159.883 L 72.830,160.293 L 73.971,160.601 L 75.135,160.807 L 76.310,160.935 L 77.492,160.970 L 78.671,160.880 L 79.841,160.713 L 80.998,160.470 L 82.119,160.096 L 83.215,159.653 L 84.283,159.145 L 85.293,158.531 L 86.263,157.856 L 87.197,157.131 L 88.056,156.319 L 88.872,155.464 L 89.645,154.570 L 90.333,153.609 L 90.984,152.622 L 91.574,151.597 L 92.094,150.536 L 92.580,149.458 L 92.976,148.344 L 93.331,147.216 L 93.629,146.072 L 93.853,144.912 L 94.047,143.746 L 94.147,142.568 L 94.212,141.387 L 94.212,140.205 L 94.147,139.025 L 94.047,137.847 L 93.853,136.681 L 93.629,135.520 L 93.331,134.376 L 92.976,133.249 L 92.580,132.135 L 92.094,131.057 L 91.574,129.996 L 90.984,128.971 L 90.333,127.984 L 89.645,127.023 L 88.872,126.129 L 88.056,125.273 L 87.197,124.462 L 86.263,123.737 L 85.293,123.061 L 84.283,122.447 L 83.215,121.940 L 82.119,121.496 L 80.998,121.123 L 79.841,120.879 L 78.671,120.712 L 77.492,120.623 L 76.310,120.658 L 75.135,120.786 L 73.971,120.991 L 72.830,121.300 L 71.721,121.709 L 70.639,122.185 L 69.596,122.743 L 68.609,123.392 L 67.657,124.093 L 66.757,124.860 L 65.922,125.697 L 65.125,126.570 L 64.396,127.501 L 63.727,128.475 L 63.094,129.473 L 62.552,130.524 L 62.050,131.594 L 61.604,132.689 L 61.233,133.811 L 60.894,134.944 L 60.646,136.100 L 60.436,137.263 L 60.287,138.436 L 60.208,139.615 L 60.158,140.796 Z" fill="#ffffff" stroke="#000000" stroke-width="1.2" stroke-opacity="1" /></g><g id="path1267"><path d="M 120.574,151.329 L 120.607,151.872 L 120.681,152.411 L 120.793,152.942 L 120.957,153.461 L 121.168,153.962 L 121.410,154.448 L 121.689,154.915 L 122.011,155.353 L 122.357,155.773 L 122.729,156.169 L 123.134,156.532 L 123.554,156.877 L 123.997,157.192 L 124.459,157.479 L 124.930,157.749 L 125.423,157.978 L 125.924,158.190 L 126.435,158.376 L 126.956,158.531 L 127.481,158.673 L 128.015,158.771 L 128.552,158.857 L 129.093,158.912 L 129.636,158.942 L 130.179,158.953 L 130.722,158.928 L 131.265,158.892 L 131.803,158.816 L 132.339,158.724 L 132.869,158.603 L 133.392,158.455 L 133.910,158.291 L 134.414,158.086 L 134.911,157.866 L 135.393,157.615 L 135.860,157.337 L 136.317,157.042 L 136.744,156.707 L 137.157,156.352 L 137.549,155.976 L 137.905,155.565 L 138.239,155.136 L 138.543,154.686 L 138.801,154.207 L 139.028,153.713 L 139.221,153.205 L 139.354,152.678 L 139.447,152.142 L 139.501,151.601 L 139.501,151.058 L 139.447,150.517 L 139.354,149.981 L 139.221,149.454 L 139.028,148.946 L 138.801,148.452 L 138.543,147.973 L 138.239,147.523 L 137.905,147.094 L 137.549,146.683 L 137.157,146.306 L 136.744,145.952 L 136.317,145.616 L 135.860,145.322 L 135.393,145.043 L 134.911,144.792 L 134.414,144.573 L 133.910,144.367 L 133.392,144.204 L 132.869,144.055 L 132.339,143.935 L 131.803,143.843 L 131.265,143.767 L 130.722,143.730 L 130.179,143.706 L 129.636,143.716 L 129.093,143.747 L 128.552,143.802 L 128.015,143.888 L 127.481,143.986 L 126.956,144.128 L 126.435,144.283 L 125.924,144.468 L 125.423,144.681 L 124.930,144.910 L 124.459,145.180 L 123.997,145.467 L 123.554,145.781 L 123.134,146.127 L 122.729,146.490 L 122.357,146.886 L 122.011,147.306 L 121.689,147.744 L 121.410,148.210 L 121.168,148.697 L 120.957,149.198 L 120.793,149.716 L 120.681,150.248 L 120.607,150.787 L 120.574,151.329 Z" fill="#2b0000" stroke="#000000" stroke-width="1.2" stroke-opacity="1" /></g><g id="path393"><path d="M 114.261,142.684 L 114.318,143.843 L 114.426,144.999 L 114.599,146.147 L 114.869,147.276 L 115.188,148.392 L 115.585,149.483 L 116.058,150.543 L 116.577,151.582 L 117.182,152.572 L 117.843,153.527 L 118.544,154.452 L 119.333,155.303 L 120.159,156.119 L 121.029,156.888 L 121.962,157.579 L 122.923,158.229 L 123.928,158.809 L 124.973,159.317 L 126.037,159.779 L 127.138,160.149 L 128.257,160.455 L 129.389,160.714 L 130.541,160.858 L 131.698,160.953 L 132.858,160.982 L 134.017,160.912 L 135.172,160.792 L 136.315,160.590 L 137.441,160.308 L 138.554,159.978 L 139.634,159.554 L 140.689,159.069 L 141.722,158.539 L 142.697,157.909 L 143.644,157.238 L 144.552,156.514 L 145.395,155.716 L 146.202,154.882 L 146.948,153.993 L 147.629,153.053 L 148.269,152.084 L 148.825,151.065 L 149.321,150.015 L 149.772,148.946 L 150.114,147.836 L 150.408,146.714 L 150.638,145.576 L 150.770,144.422 L 150.853,143.264 L 150.853,142.104 L 150.770,140.946 L 150.638,139.792 L 150.408,138.655 L 150.114,137.532 L 149.772,136.423 L 149.321,135.353 L 148.825,134.303 L 148.269,133.284 L 147.629,132.316 L 146.948,131.375 L 146.202,130.486 L 145.395,129.652 L 144.552,128.854 L 143.644,128.130 L 142.697,127.459 L 141.722,126.829 L 140.689,126.300 L 139.634,125.815 L 138.554,125.391 L 137.441,125.060 L 136.315,124.778 L 135.172,124.576 L 134.017,124.457 L 132.858,124.386 L 131.698,124.415 L 130.541,124.510 L 129.389,124.655 L 128.257,124.913 L 127.138,125.219 L 126.037,125.589 L 124.973,126.051 L 123.928,126.559 L 122.923,127.139 L 121.962,127.790 L 121.029,128.481 L 120.159,129.249 L 119.333,130.065 L 118.544,130.916 L 117.843,131.842 L 117.182,132.796 L 116.577,133.786 L 116.058,134.825 L 115.585,135.885 L 115.188,136.976 L 114.869,138.092 L 114.599,139.221 L 114.426,140.369 L 114.318,141.525 L 114.261,142.684 Z" fill="#ffffff" stroke="#000000" stroke-width="1.2" stroke-opacity="1" /></g><g id="path230"><path d="M 32.519,123.178 L 32.752,127.760 L 33.190,132.328 L 33.886,136.863 L 34.984,141.318 L 36.280,145.719 L 37.874,150.022 L 39.794,154.189 L 41.895,158.268 L 44.318,162.164 L 46.985,165.898 L 49.810,169.514 L 52.960,172.850 L 56.272,176.026 L 59.738,179.032 L 63.465,181.708 L 67.301,184.225 L 71.292,186.489 L 75.443,188.444 L 79.672,190.225 L 84.029,191.664 L 88.464,192.840 L 92.943,193.834 L 97.497,194.395 L 102.071,194.760 L 106.658,194.872 L 111.238,194.601 L 115.804,194.143 L 120.325,193.360 L 124.783,192.275 L 129.193,191.008 L 133.474,189.357 L 137.664,187.488 L 141.762,185.424 L 145.650,182.988 L 149.433,180.391 L 153.045,177.561 L 156.423,174.456 L 159.666,171.210 L 162.645,167.720 L 165.392,164.045 L 167.976,160.253 L 170.200,156.240 L 172.211,152.116 L 174.020,147.899 L 175.414,143.528 L 176.612,139.099 L 177.536,134.604 L 178.076,130.048 L 178.412,125.472 L 178.412,120.884 L 178.076,116.307 L 177.536,111.751 L 176.612,107.257 L 175.414,102.828 L 174.020,98.456 L 172.211,94.239 L 170.200,90.115 L 167.976,86.102 L 165.392,82.311 L 162.645,78.635 L 159.666,75.146 L 156.423,71.900 L 153.045,68.795 L 149.433,65.965 L 145.650,63.368 L 141.762,60.932 L 137.664,58.867 L 133.474,56.999 L 129.193,55.348 L 124.783,54.081 L 120.325,52.996 L 115.804,52.212 L 111.238,51.755 L 106.658,51.483 L 102.071,51.596 L 97.497,51.960 L 92.943,52.521 L 88.464,53.515 L 84.029,54.691 L 79.672,56.130 L 75.443,57.911 L 71.292,59.866 L 67.301,62.130 L 63.465,64.647 L 59.738,67.323 L 56.272,70.329 L 52.960,73.506 L 49.810,76.842 L 46.985,80.457 L 44.318,84.191 L 41.895,88.088 L 39.794,92.166 L 37.874,96.333 L 36.280,100.636 L 34.984,105.038 L 33.886,109.493 L 33.190,114.028 L 32.752,118.595 L 32.519,123.178 Z" fill="#ffff00" stroke="#000000" stroke-width="1.2" stroke-opacity="1" /></g><g id="path2147"><path d="M 40.071,108.075 L 39.257,108.185 L 38.442,108.286 L 37.626,108.382 L 36.810,108.475 L 35.994,108.570 L 35.178,108.670 L 34.364,108.778 L 33.551,108.898 L 32.741,109.033 L 31.934,109.188 L 31.132,109.364 L 30.332,109.551 L 29.533,109.744 L 28.736,109.941 L 27.940,110.145 L 27.146,110.355 L 26.353,110.572 L 25.563,110.796 L 24.775,111.029 L 23.990,111.270 L 23.207,111.520 L 22.428,111.780 L 21.652,112.050 L 20.880,112.331 L 20.112,112.624 L 19.349,112.928 L 18.591,113.244 L 17.839,113.574 L 17.092,113.916 L 16.352,114.273 L 16.164,115.032 L 15.869,115.725 L 15.068,115.908 L 14.254,116.017 L 13.439,116.118 L 12.629,116.254 L 11.842,116.480 L 11.182,116.916 L 10.962,117.698 L 11.005,118.518 L 11.112,119.332 L 11.250,120.142 L 11.408,120.948 L 11.579,121.752 L 11.762,122.553 L 11.953,123.352 L 12.151,124.149 L 12.356,124.944 L 12.566,125.738 L 12.782,126.531 L 13.003,127.322 L 13.230,128.112 L 13.465,128.899 L 13.740,129.671 L 14.164,130.373 L 14.667,131.023 L 15.202,131.646 L 15.758,132.251 L 16.327,132.844 L 16.906,133.427 L 17.493,134.001 L 18.088,134.567 L 18.690,135.127 L 19.298,135.679 L 19.912,136.225 L 20.533,136.762 L 21.163,137.290 L 21.804,137.803 L 22.472,138.279 L 23.229,138.595 L 24.032,138.767 L 24.844,138.892 L 25.657,139.011 L 26.464,139.164 L 27.243,139.417 L 27.911,139.893 L 28.455,140.509 L 28.965,141.152 L 29.538,141.739 L 30.245,142.153 L 31.042,142.351 L 31.862,142.394 L 32.681,142.338 L 33.496,142.230 L 34.307,142.100 L 35.118,141.971 L 35.933,141.868 L 36.753,141.817 L 37.574,141.851 L 38.376,142.024 L 39.121,142.370 L 39.745,142.904 L 40.222,143.572 L 40.522,144.336 L 40.688,145.141 L 40.788,145.956 L 40.887,146.772 L 41.045,147.578 L 41.330,148.349 Z" fill="#ffff00" stroke="#000000" stroke-width="1.2" stroke-opacity="1" fill-opacity="0.98113215" /></g><g id="path2717"><path d="M 169.691,110.591 L 170.654,110.895 L 171.633,111.147 L 172.622,111.350 L 173.620,111.508 L 174.623,111.625 L 175.630,111.707 L 176.639,111.758 L 177.649,111.781 L 178.659,111.785 L 179.669,111.774 L 180.679,111.753 L 181.689,111.728 L 182.699,111.702 L 183.709,111.682 L 184.719,111.674 L 185.729,111.682 L 186.739,111.712 L 187.747,111.770 L 188.753,111.861 L 189.754,111.995 L 190.748,112.178 L 191.730,112.413 L 192.697,112.704 L 193.644,113.054 L 194.564,113.472 L 195.450,113.955 L 196.284,114.525 L 196.748,115.406 L 196.918,116.398 L 197.084,117.394 L 197.542,118.287 L 198.310,118.932 L 198.689,119.850 L 198.682,120.854 L 198.580,121.859 L 198.594,122.868 L 198.814,123.852 L 199.085,124.825 L 199.452,125.766 L 199.818,125.033 L 199.992,124.046 L 200.677,123.713 L 201.178,124.580 L 201.425,125.557 L 201.531,126.561 L 201.585,127.570 L 201.607,128.580 L 201.603,129.590 L 201.577,130.600 L 201.529,131.609 L 201.453,132.616 L 201.331,133.618 L 201.106,134.599 L 200.691,135.518 L 200.136,136.360 L 199.479,137.126 L 198.748,137.822 L 197.962,138.457 L 197.138,139.040 L 196.284,139.580 L 195.409,140.085 L 194.518,140.560 L 193.614,141.011 L 192.701,141.443 L 191.781,141.861 L 190.858,142.271 L 189.934,142.680 L 189.017,143.102 L 188.116,143.558 L 187.248,144.074 L 186.426,144.661 L 185.662,145.321 L 184.960,146.047 L 184.309,146.820 L 183.679,147.609 L 183.028,148.381 L 182.324,149.105 L 181.553,149.757 L 180.720,150.327 L 179.838,150.820 L 178.918,151.236 L 177.967,151.575 L 176.993,151.844 L 176.004,152.049 L 175.006,152.205 L 174.002,152.319 L 172.995,152.392 L 171.986,152.437 L 170.976,152.456 L 169.966,152.453 L 168.956,152.434 L 167.946,152.401 L 166.937,152.359 L 165.928,152.310 L 164.919,152.260 L 163.910,152.211 L 162.901,152.168 L 161.891,152.138 L 160.881,152.125 Z" fill="#ffff00" stroke="#000000" stroke-width="1.2" stroke-opacity="1" fill-opacity="0.981132" /></g><g id="path2136"><path d="M 129.426,189.877 L 128.928,190.098 L 128.430,190.319 L 127.926,190.527 L 127.421,190.733 L 126.911,190.928 L 126.401,191.121 L 125.887,191.303 L 125.372,191.482 L 124.854,191.652 L 124.335,191.820 L 123.813,191.977 L 123.291,192.134 L 122.766,192.280 L 122.240,192.424 L 121.712,192.560 L 121.183,192.693 L 120.652,192.818 L 120.121,192.940 L 119.588,193.056 L 119.054,193.167 L 118.519,193.273 L 117.983,193.373 L 117.446,193.469 L 116.909,193.559 L 116.370,193.646 L 115.831,193.725 L 115.291,193.802 L 114.750,193.871 L 114.209,193.937 L 113.667,193.997 L 113.124,194.053 L 112.582,194.104 L 112.038,194.149 L 111.494,194.191 L 110.950,194.225 L 110.406,194.258 L 109.861,194.281 L 109.316,194.302 L 108.771,194.316 L 108.226,194.326 L 107.681,194.330 L 107.136,194.329 L 106.590,194.323 L 106.045,194.310 L 105.500,194.294 L 104.955,194.269 L 104.411,194.242 L 103.867,194.205 L 103.323,194.165 L 102.780,194.117 L 102.237,194.064 L 101.695,194.004 L 101.154,193.938 L 100.614,193.865 L 100.074,193.785 L 99.536,193.699 L 98.999,193.604 L 98.463,193.504 L 97.929,193.395 L 97.396,193.280 L 96.865,193.155 L 96.335,193.024 L 95.809,192.882 L 95.284,192.735 L 94.762,192.576 L 94.245,192.405 L 93.814,192.090 L 93.482,191.660 L 93.107,191.270 L 92.610,191.097 L 92.069,191.112 L 91.531,191.195 L 90.988,191.241 L 90.462,191.133 L 89.965,190.912 L 89.478,190.666 L 88.992,190.418 L 88.508,190.168 L 88.024,189.917 L 87.542,189.662 L 87.061,189.404 L 86.583,189.142 L 86.107,188.875 L 85.635,188.603 L 85.169,188.320 L 84.711,188.024 L 84.274,187.699 L 84.075,187.235 L 84.559,187.202 L 85.095,187.297 L 85.626,187.424 L 85.224,187.288 L 84.704,187.122 L 84.186,186.954 L 83.667,186.785 L 83.149,186.615 L 82.631,186.444 L 82.114,186.272 L 81.596,186.100 Z" fill="#2b0000" stroke="#000000" stroke-width="1.2" stroke-opacity="1" fill-opacity="0" /></g><g id="path1439"><path d="M 99.158,165.876 L 99.742,166.083 L 100.322,166.298 L 100.901,166.520 L 101.477,166.747 L 102.051,166.979 L 102.623,167.215 L 103.194,167.455 L 103.764,167.698 L 104.331,167.946 L 104.898,168.196 L 105.463,168.450 L 106.026,168.707 L 106.587,168.968 L 107.147,169.233 L 107.705,169.501 L 108.261,169.774 L 108.815,170.051 L 109.366,170.334 L 109.914,170.622 L 110.458,170.917 L 110.999,171.219 L 111.534,171.532 L 112.062,171.855 L 112.579,172.195 L 113.082,172.556 L 113.574,172.933 L 114.064,173.312 L 114.550,173.694 L 115.032,174.084 L 115.506,174.482 L 115.970,174.892 L 116.420,175.318 L 116.852,175.761 L 117.260,176.227 L 117.638,176.718 L 117.975,177.236 L 118.219,177.804 L 118.156,178.411 L 118.107,179.028 L 118.466,179.511 L 118.941,179.907 L 119.422,180.297 L 119.897,180.695 L 120.364,181.101 L 120.820,181.521 L 121.256,181.960 L 121.658,182.431 L 121.975,182.962 L 121.866,183.553 L 121.372,183.918 L 120.796,184.141 L 120.193,184.281 L 119.580,184.368 L 118.962,184.419 L 118.344,184.445 L 117.725,184.452 L 117.105,184.444 L 116.486,184.427 L 115.868,184.401 L 115.249,184.370 L 114.631,184.336 L 114.013,184.301 L 113.394,184.267 L 112.776,184.239 L 112.157,184.219 L 111.538,184.217 L 110.919,184.246 L 110.317,184.386 L 109.848,184.781 L 109.320,185.103 L 108.713,185.211 L 108.097,185.273 L 107.480,185.319 L 106.861,185.355 L 106.243,185.384 L 105.624,185.407 L 105.005,185.426 L 104.386,185.439 L 103.767,185.448 L 103.148,185.452 L 102.528,185.452 L 101.909,185.446 L 101.290,185.434 L 100.671,185.416 L 100.052,185.388 L 99.434,185.348 L 98.818,185.290 L 98.206,185.196 L 97.618,185.006 L 97.083,184.697 L 96.596,184.315 L 96.117,183.923 L 95.602,183.580 L 95.042,183.318 L 94.464,183.096 L 93.873,182.912 L 93.268,182.782 L 92.804,182.394 L 92.819,181.775 Z" fill="#2b0000" stroke="#000000" stroke-width="1.2" stroke-opacity="1" fill-opacity="0" /></g><g id="path1265"><path d="M 67.730,150.357 L 67.761,150.873 L 67.826,151.386 L 67.924,151.893 L 68.074,152.387 L 68.261,152.869 L 68.477,153.339 L 68.734,153.787 L 69.024,154.214 L 69.337,154.626 L 69.683,155.010 L 70.054,155.370 L 70.440,155.713 L 70.855,156.021 L 71.284,156.309 L 71.726,156.576 L 72.189,156.806 L 72.659,157.022 L 73.142,157.205 L 73.634,157.363 L 74.131,157.504 L 74.638,157.605 L 75.147,157.692 L 75.661,157.747 L 76.177,157.778 L 76.694,157.789 L 77.210,157.764 L 77.725,157.726 L 78.236,157.650 L 78.744,157.556 L 79.247,157.437 L 79.742,157.286 L 80.231,157.121 L 80.706,156.916 L 81.172,156.693 L 81.626,156.446 L 82.061,156.167 L 82.484,155.871 L 82.884,155.543 L 83.263,155.192 L 83.625,154.823 L 83.951,154.422 L 84.252,154.003 L 84.531,153.568 L 84.763,153.106 L 84.965,152.630 L 85.137,152.143 L 85.258,151.640 L 85.340,151.130 L 85.388,150.615 L 85.388,150.099 L 85.340,149.584 L 85.258,149.074 L 85.137,148.571 L 84.965,148.084 L 84.763,147.608 L 84.531,147.146 L 84.252,146.711 L 83.951,146.292 L 83.625,145.891 L 83.263,145.522 L 82.884,145.171 L 82.484,144.843 L 82.061,144.547 L 81.626,144.268 L 81.172,144.021 L 80.706,143.798 L 80.231,143.593 L 79.742,143.428 L 79.247,143.277 L 78.744,143.158 L 78.236,143.064 L 77.725,142.988 L 77.210,142.950 L 76.694,142.925 L 76.177,142.936 L 75.661,142.967 L 75.147,143.022 L 74.638,143.109 L 74.131,143.210 L 73.634,143.351 L 73.142,143.509 L 72.659,143.692 L 72.189,143.908 L 71.726,144.138 L 71.284,144.405 L 70.855,144.693 L 70.440,145.001 L 70.054,145.344 L 69.683,145.704 L 69.337,146.088 L 69.024,146.500 L 68.734,146.927 L 68.477,147.375 L 68.261,147.845 L 68.074,148.327 L 67.924,148.821 L 67.826,149.328 L 67.761,149.841 L 67.730,150.357 Z" fill="#2b0000" stroke="#000000" stroke-width="1.2" stroke-opacity="1" /></g><g id="path397"><path d="M 60.158,140.796 L 60.208,141.977 L 60.287,143.157 L 60.436,144.330 L 60.646,145.493 L 60.894,146.649 L 61.233,147.781 L 61.604,148.904 L 62.050,149.999 L 62.552,151.069 L 63.094,152.119 L 63.727,153.118 L 64.396,154.092 L 65.125,155.023 L 65.922,155.896 L 66.757,156.733 L 67.657,157.500 L 68.609,158.200 L 69.596,158.850 L 70.639,159.407 L 71.721,159.883 L 72.830,160.293 L 73.971,160.601 L 75.135,160.807 L 76.310,160.935 L 77.492,160.970 L 78.671,160.880 L 79.841,160.713 L 80.998,160.470 L 82.119,160.096 L 83.215,159.653 L 84.283,159.145 L 85.293,158.531 L 86.263,157.856 L 87.197,157.131 L 88.056,156.319 L 88.872,155.464 L 89.645,154.570 L 90.333,153.609 L 90.984,152.622 L 91.574,151.597 L 92.094,150.536 L 92.580,149.458 L 92.976,148.344 L 93.331,147.216 L 93.629,146.072 L 93.853,144.912 L 94.047,143.746 L 94.147,142.568 L 94.212,141.387 L 94.212,140.205 L 94.147,139.025 L 94.047,137.847 L 93.853,136.681 L 93.629,135.520 L 93.331,134.376 L 92.976,133.249 L 92.580,132.135 L 92.094,131.057 L 91.574,129.996 L 90.984,128.971 L 90.333,127.984 L 89.645,127.023 L 88.872,126.129 L 88.056,125.273 L 87.197,124.462 L 86.263,123.737 L 85.293,123.061 L 84.283,122.447 L 83.215,121.940 L 82.119,121.496 L 80.998,121.123 L 79.841,120.879 L 78.671,120.712 L 77.492,120.623 L 76.310,120.658 L 75.135,120.786 L 73.971,120.991 L 72.830,121.300 L 71.721,121.709 L 70.639,122.185 L 69.596,122.743 L 68.609,123.392 L 67.657,124.093 L 66.757,124.860 L 65.922,125.697 L 65.125,126.570 L 64.396,127.501 L 63.727,128.475 L 63.094,129.473 L 62.552,130.524 L 62.050,131.594 L 61.604,132.689 L 61.233,133.811 L 60.894,134.944 L 60.646,136.100 L 60.436,137.263 L 60.287,138.436 L 60.208,139.615 L 60.158,140.796 Z" fill="#ffffff" stroke="#000000" stroke-width="1.2" stroke-opacity="1" /></g><g id="path1267"><path d="M 120.574,151.329 L 120.607,151.872 L 120.681,152.411 L 120.793,152.942 L 120.957,153.461 L 121.168,153.962 L 121.410,154.448 L 121.689,154.915 L 122.011,155.353 L 122.357,155.773 L 122.729,156.169 L 123.134,156.532 L 123.554,156.877 L 123.997,157.192 L 124.459,157.479 L 124.930,157.749 L 125.423,157.978 L 125.924,158.190 L 126.435,158.376 L 126.956,158.531 L 127.481,158.673 L 128.015,158.771 L 128.552,158.857 L 129.093,158.912 L 129.636,158.942 L 130.179,158.953 L 130.722,158.928 L 131.265,158.892 L 131.803,158.816 L 132.339,158.724 L 132.869,158.603 L 133.392,158.455 L 133.910,158.291 L 134.414,158.086 L 134.911,157.866 L 135.393,157.615 L 135.860,157.337 L 136.317,157.042 L 136.744,156.707 L 137.157,156.352 L 137.549,155.976 L 137.905,155.565 L 138.239,155.136 L 138.543,154.686 L 138.801,154.207 L 139.028,153.713 L 139.221,153.205 L 139.354,152.678 L 139.447,152.142 L 139.501,151.601 L 139.501,151.058 L 139.447,150.517 L 139.354,149.981 L 139.221,149.454 L 139.028,148.946 L 138.801,148.452 L 138.543,147.973 L 138.239,147.523 L 137.905,147.094 L 137.549,146.683 L 137.157,146.306 L 136.744,145.952 L 136.317,145.616 L 135.860,145.322 L 135.393,145.043 L 134.911,144.792 L 134.414,144.573 L 133.910,144.367 L 133.392,144.204 L 132.869,144.055 L 132.339,143.935 L 131.803,143.843 L 131.265,143.767 L 130.722,143.730 L 130.179,143.706 L 129.636,143.716 L 129.093,143.747 L 128.552,143.802 L 128.015,143.888 L 127.481,143.986 L 126.956,144.128 L 126.435,144.283 L 125.924,144.468 L 125.423,144.681 L 124.930,144.910 L 124.459,145.180 L 123.997,145.467 L 123.554,145.781 L 123.134,146.127 L 122.729,146.490 L 122.357,146.886 L 122.011,147.306 L 121.689,147.744 L 121.410,148.210 L 121.168,148.697 L 120.957,149.198 L 120.793,149.716 L 120.681,150.248 L 120.607,150.787 L 120.574,151.329 Z" fill="#2b0000" stroke="#000000" stroke-width="1.2" stroke-opacity="1" /></g><g id="path393"><path d="M 114.261,142.684 L 114.318,143.843 L 114.426,144.999 L 114.599,146.147 L 114.869,147.276 L 115.188,148.392 L 115.585,149.483 L 116.058,150.543 L 116.577,151.582 L 117.182,152.572 L 117.843,153.527 L 118.544,154.452 L 119.333,155.303 L 120.159,156.119 L 121.029,156.888 L 121.962,157.579 L 122.923,158.229 L 123.928,158.809 L 124.973,159.317 L 126.037,159.779 L 127.138,160.149 L 128.257,160.455 L 129.389,160.714 L 130.541,160.858 L 131.698,160.953 L 132.858,160.982 L 134.017,160.912 L 135.172,160.792 L 136.315,160.590 L 137.441,160.308 L 138.554,159.978 L 139.634,159.554 L 140.689,159.069 L 141.722,158.539 L 142.697,157.909 L 143.644,157.238 L 144.552,156.514 L 145.395,155.716 L 146.202,154.882 L 146.948,153.993 L 147.629,153.053 L 148.269,152.084 L 148.825,151.065 L 149.321,150.015 L 149.772,148.946 L 150.114,147.836 L 150.408,146.714 L 150.638,145.576 L 150.770,144.422 L 150.853,143.264 L 150.853,142.104 L 150.770,140.946 L 150.638,139.792 L 150.408,138.655 L 150.114,137.532 L 149.772,136.423 L 149.321,135.353 L 148.825,134.303 L 148.269,133.284 L 147.629,132.316 L 146.948,131.375 L 146.202,130.486 L 145.395,129.652 L 144.552,128.854 L 143.644,128.130 L 142.697,127.459 L 141.722,126.829 L 140.689,126.300 L 139.634,125.815 L 138.554,125.391 L 137.441,125.060 L 136.315,124.778 L 135.172,124.576 L 134.017,124.457 L 132.858,124.386 L 131.698,124.415 L 130.541,124.510 L 129.389,124.655 L 128.257,124.913 L 127.138,125.219 L 126.037,125.589 L 124.973,126.051 L 123.928,126.559 L 122.923,127.139 L 121.962,127.790 L 121.029,128.481 L 120.159,129.249 L 119.333,130.065 L 118.544,130.916 L 117.843,131.842 L 117.182,132.796 L 116.577,133.786 L 116.058,134.825 L 115.585,135.885 L 115.188,136.976 L 114.869,138.092 L 114.599,139.221 L 114.426,140.369 L 114.318,141.525 L 114.261,142.684 Z" fill="#ffffff" stroke="#000000" stroke-width="1.2" stroke-opacity="1" /></g><g id="path230"><path d="M 32.519,123.178 L 32.752,127.760 L 33.190,132.328 L 33.886,136.863 L 34.984,141.318 L 36.280,145.719 L 37.874,150.022 L 39.794,154.189 L 41.895,158.268 L 44.318,162.164 L 46.985,165.898 L 49.810,169.514 L 52.960,172.850 L 56.272,176.026 L 59.738,179.032 L 63.465,181.708 L 67.301,184.225 L 71.292,186.489 L 75.443,188.444 L 79.672,190.225 L 84.029,191.664 L 88.464,192.840 L 92.943,193.834 L 97.497,194.395 L 102.071,194.760 L 106.658,194.872 L 111.238,194.601 L 115.804,194.143 L 120.325,193.360 L 124.783,192.275 L 129.193,191.008 L 133.474,189.357 L 137.664,187.488 L 141.762,185.424 L 145.650,182.988 L 149.433,180.391 L 153.045,177.561 L 156.423,174.456 L 159.666,171.210 L 162.645,167.720 L 165.392,164.045 L 167.976,160.253 L 170.200,156.240 L 172.211,152.116 L 174.020,147.899 L 175.414,143.528 L 176.612,139.099 L 177.536,134.604 L 178.076,130.048 L 178.412,125.472 L 178.412,120.884 L 178.076,116.307 L 177.536,111.751 L 176.612,107.257 L 175.414,102.828 L 174.020,98.456 L 172.211,94.239 L 170.200,90.115 L 167.976,86.102 L 165.392,82.311 L 162.645,78.635 L 159.666,75.146 L 156.423,71.900 L 153.045,68.795 L 149.433,65.965 L 145.650,63.368 L 141.762,60.932 L 137.664,58.867 L 133.474,56.999 L 129.193,55.348 L 124.783,54.081 L 120.325,52.996 L 115.804,52.212 L 111.238,51.755 L 106.658,51.483 L 102.071,51.596 L 97.497,51.960 L 92.943,52.521 L 88.464,53.515 L 84.029,54.691 L 79.672,56.130 L 75.443,57.911 L 71.292,59.866 L 67.301,62.130 L 63.465,64.647 L 59.738,67.323 L 56.272,70.329 L 52.960,73.506 L 49.810,76.842 L 46.985,80.457 L 44.318,84.191 L 41.895,88.088 L 39.794,92.166 L 37.874,96.333 L 36.280,100.636 L 34.984,105.038 L 33.886,109.493 L 33.190,114.028 L 32.752,118.595 L 32.519,123.178 Z" fill="#ffff00" stroke="#000000" stroke-width="1.2" stroke-opacity="1" /></g><g id="path2147"><path d="M 40.071,108.075 L 39.257,108.185 L 38.442,108.286 L 37.626,108.382 L 36.810,108.475 L 35.994,108.570 L 35.178,108.670 L 34.364,108.778 L 33.551,108.898 L 32.741,109.033 L 31.934,109.188 L 31.132,109.364 L 30.332,109.551 L 29.533,109.744 L 28.736,109.941 L 27.940,110.145 L 27.146,110.355 L 26.353,110.572 L 25.563,110.796 L 24.775,111.029 L 23.990,111.270 L 23.207,111.520 L 22.428,111.780 L 21.652,112.050 L 20.880,112.331 L 20.112,112.624 L 19.349,112.928 L 18.591,113.244 L 17.839,113.574 L 17.092,113.916 L 16.352,114.273 L 16.164,115.032 L 15.869,115.725 L 15.068,115.908 L 14.254,116.017 L 13.439,116.118 L 12.629,116.254 L 11.842,116.480 L 11.182,116.916 L 10.962,117.698 L 11.005,118.518 L 11.112,119.332 L 11.250,120.142 L 11.408,120.948 L 11.579,121.752 L 11.762,122.553 L 11.953,123.352 L 12.151,124.149 L 12.356,124.944 L 12.566,125.738 L 12.782,126.531 L 13.003,127.322 L 13.230,128.112 L 13.465,128.899 L 13.740,129.671 L 14.164,130.373 L 14.667,131.023 L 15.202,131.646 L 15.758,132.251 L 16.327,132.844 L 16.906,133.427 L 17.493,134.001 L 18.088,134.567 L 18.690,135.127 L 19.298,135.679 L 19.912,136.225 L 20.533,136.762 L 21.163,137.290 L 21.804,137.803 L 22.472,138.279 L 23.229,138.595 L 24.032,138.767 L 24.844,138.892 L 25.657,139.011 L 26.464,139.164 L 27.243,139.417 L 27.911,139.893 L 28.455,140.509 L 28.965,141.152 L 29.538,141.739 L 30.245,142.153 L 31.042,142.351 L 31.862,142.394 L 32.681,142.338 L 33.496,142.230 L 34.307,142.100 L 35.118,141.971 L 35.933,141.868 L 36.753,141.817 L 37.574,141.851 L 38.376,142.024 L 39.121,142.370 L 39.745,142.904 L 40.222,143.572 L 40.522,144.336 L 40.688,145.141 L 40.788,145.956 L 40.887,146.772 L 41.045,147.578 L 41.330,148.349 Z" fill="#ffff00" stroke="#000000" stroke-width="1.2" stroke-opacity="1" fill-opacity="0.98113215" /></g><g id="path2717"><path d="M 169.691,110.591 L 170.654,110.895 L 171.633,111.147 L 172.622,111.350 L 173.620,111.508 L 174.623,111.625 L 175.630,111.707 L 176.639,111.758 L 177.649,111.781 L 178.659,111.785 L 179.669,111.774 L 180.679,111.753 L 181.689,111.728 L 182.699,111.702 L 183.709,111.682 L 184.719,111.674 L 185.729,111.682 L 186.739,111.712 L 187.747,111.770 L 188.753,111.861 L 189.754,111.995 L 190.748,112.178 L 191.730,112.413 L 192.697,112.704 L 193.644,113.054 L 194.564,113.472 L 195.450,113.955 L 196.284,114.525 L 196.748,115.406 L 196.918,116.398 L 197.084,117.394 L 197.542,118.287 L 198.310,118.932 L 198.689,119.850 L 198.682,120.854 L 198.580,121.859 L 198.594,122.868 L 198.814,123.852 L 199.085,124.825 L 199.452,125.766 L 199.818,125.033 L 199.992,124.046 L 200.677,123.713 L 201.178,124.580 L 201.425,125.557 L 201.531,126.561 L 201.585,127.570 L 201.607,128.580 L 201.603,129.590 L 201.577,130.600 L 201.529,131.609 L 201.453,132.616 L 201.331,133.618 L 201.106,134.599 L 200.691,135.518 L 200.136,136.360 L 199.479,137.126 L 198.748,137.822 L 197.962,138.457 L 197.138,139.040 L 196.284,139.580 L 195.409,140.085 L 194.518,140.560 L 193.614,141.011 L 192.701,141.443 L 191.781,141.861 L 190.858,142.271 L 189.934,142.680 L 189.017,143.102 L 188.116,143.558 L 187.248,144.074 L 186.426,144.661 L 185.662,145.321 L 184.960,146.047 L 184.309,146.820 L 183.679,147.609 L 183.028,148.381 L 182.324,149.105 L 181.553,149.757 L 180.720,150.327 L 179.838,150.820 L 178.918,151.236 L 177.967,151.575 L 176.993,151.844 L 176.004,152.049 L 175.006,152.205 L 174.002,152.319 L 172.995,152.392 L 171.986,152.437 L 170.976,152.456 L 169.966,152.453 L 168.956,152.434 L 167.946,152.401 L 166.937,152.359 L 165.928,152.310 L 164.919,152.260 L 163.910,152.211 L 162.901,152.168 L 161.891,152.138 L 160.881,152.125 Z" fill="#ffff00" stroke="#000000" stroke-width="1.2" stroke-opacity="1" fill-opacity="0.981132" /></g></svg>