<?xml version='1.0' encoding='utf-8'?>
<svg xmlns="http://www.w3.org/2000/svg" width="210" height="297" viewBox="0 0 210 297"><g id="rightEar"><path d="M 28.945,147.242 L 27.977,147.547 L 26.995,147.800 L 26.001,148.003 L 24.999,148.161 L 23.991,148.279 L 22.980,148.360 L 21.966,148.410 L 20.952,148.433 L 19.937,148.436 L 18.922,148.424 L 17.908,148.403 L 16.893,148.377 L 15.879,148.352 L 14.865,148.332 L 13.850,148.324 L 12.835,148.334 L 11.821,148.366 L 10.808,148.426 L 9.798,148.520 L 8.793,148.659 L 7.796,148.847 L 6.810,149.087 L 5.841,149.385 L 4.892,149.744 L 3.971,150.171 L 3.085,150.664 L 2.258,151.245 L 1.845,152.159 L 1.705,153.164 L 1.535,154.163 L 1.043,155.033 L 0.239,155.652 L -0.080,156.588 L -0.039,157.600 L 0.070,158.609 L 0.042,159.621 L -0.201,160.606 L -0.476,161.582 L -0.855,162.519 L -1.172,161.725 L -1.325,160.722 L -1.899,160.160 L -2.468,160.993 L -2.756,161.961 L -2.876,162.968 L -2.939,163.981 L -2.967,164.995 L -2.968,166.010 L -2.947,167.024 L -2.904,168.038 L -2.835,169.050 L -2.730,170.060 L -2.545,171.056 L -2.158,171.993 L -1.624,172.855 L -0.979,173.637 L -0.255,174.348 L 0.526,174.996 L 1.349,175.589 L 2.202,176.138 L 3.078,176.651 L 3.971,177.132 L 4.877,177.589 L 5.794,178.024 L 6.717,178.445 L 7.644,178.857 L 8.572,179.268 L 9.496,179.687 L 10.405,180.138 L 11.283,180.646 L 12.115,181.226 L 12.890,181.881 L 13.601,182.604 L 14.258,183.378 L 14.889,184.172 L 15.537,184.953 L 16.238,185.686 L 17.006,186.349 L 17.838,186.928 L 18.720,187.430 L 19.641,187.854 L 20.595,188.200 L 21.571,188.475 L 22.564,188.685 L 23.566,188.844 L 24.574,188.960 L 25.586,189.036 L 26.599,189.083 L 27.614,189.102 L 28.628,189.100 L 29.643,189.081 L 30.657,189.048 L 31.671,189.006 L 32.685,188.958 L 33.698,188.907 L 34.712,188.858 L 35.725,188.815 L 36.740,188.784 L 37.754,188.771 Z" fill="#ffff00" stroke="#000000" stroke-width="1.2" /></g><g id="leftEar"><path d="M 169.894,144.725 L 170.711,144.835 L 171.530,144.937 L 172.349,145.033 L 173.169,145.127 L 173.988,145.222 L 174.806,145.322 L 175.624,145.431 L 176.440,145.551 L 177.253,145.688 L 178.063,145.844 L 178.869,146.021 L 179.672,146.210 L 180.473,146.403 L 181.274,146.602 L 182.073,146.807 L 182.870,147.018 L 183.666,147.236 L 184.459,147.462 L 185.250,147.696 L 186.038,147.939 L 186.823,148.191 L 187.605,148.452 L 188.384,148.725 L 189.159,149.008 L 189.929,149.302 L 190.695,149.609 L 191.455,149.928 L 192.210,150.261 L 192.959,150.606 L 193.701,150.966 L 193.797,151.668 L 193.954,152.340 L 194.754,152.538 L 195.571,152.649 L 196.390,152.747 L 197.205,152.871 L 198.005,153.070 L 198.736,153.442 L 199.008,154.187 L 198.978,155.011 L 198.877,155.829 L 198.742,156.643 L 198.586,157.453 L 198.417,158.260 L 198.235,159.064 L 198.044,159.867 L 197.846,160.667 L 197.641,161.466 L 197.431,162.264 L 197.215,163.060 L 196.994,163.854 L 196.767,164.647 L 196.534,165.438 L 196.280,166.223 L 195.866,166.934 L 195.366,167.590 L 194.831,168.218 L 194.276,168.827 L 193.705,169.423 L 193.125,170.009 L 192.536,170.587 L 191.939,171.156 L 191.336,171.718 L 190.727,172.274 L 190.110,172.822 L 189.487,173.363 L 188.856,173.894 L 188.214,174.411 L 187.551,174.901 L 186.798,175.229 L 185.993,175.406 L 185.178,175.531 L 184.362,175.649 L 183.550,175.796 L 182.763,176.036 L 182.088,176.502 L 181.540,177.118 L 181.031,177.767 L 180.464,178.364 L 179.762,178.790 L 178.967,178.996 L 178.144,179.044 L 177.321,178.990 L 176.504,178.883 L 175.689,178.753 L 174.875,178.623 L 174.057,178.517 L 173.234,178.463 L 172.411,178.495 L 171.605,178.664 L 170.858,179.007 L 170.230,179.538 L 169.749,180.205 L 169.446,180.970 L 169.279,181.777 L 169.178,182.596 L 169.079,183.414 L 168.921,184.223 L 168.636,184.996 Z" fill="#ffff00" stroke="#000000" stroke-width="1.2" /></g><g id="face"><path d="M 173.669,158.568 L 173.437,163.153 L 172.999,167.717 L 172.303,172.254 L 171.205,176.709 L 169.909,181.108 L 168.315,185.413 L 166.396,189.579 L 164.294,193.656 L 161.870,197.555 L 159.206,201.287 L 156.380,204.903 L 153.228,208.241 L 149.919,211.414 L 146.451,214.422 L 142.723,217.099 L 138.889,219.614 L 134.896,221.880 L 130.746,223.834 L 126.519,225.615 L 122.160,227.054 L 117.727,228.230 L 113.246,229.224 L 108.690,229.785 L 104.119,230.150 L 99.530,230.262 L 94.950,229.991 L 90.386,229.533 L 85.863,228.750 L 81.407,227.665 L 76.996,226.398 L 72.713,224.746 L 68.525,222.879 L 64.426,220.813 L 60.536,218.376 L 56.756,215.781 L 53.143,212.949 L 49.765,209.845 L 46.524,206.600 L 43.543,203.109 L 40.798,199.436 L 38.213,195.644 L 35.988,191.628 L 33.978,187.507 L 32.168,183.288 L 30.774,178.915 L 29.578,174.489 L 28.653,169.993 L 28.113,165.437 L 27.777,160.863 L 27.777,156.272 L 28.113,151.699 L 28.653,147.143 L 29.578,142.646 L 30.774,138.220 L 32.168,133.847 L 33.978,129.628 L 35.988,125.507 L 38.213,121.492 L 40.798,117.700 L 43.543,114.027 L 46.524,110.535 L 49.765,107.290 L 53.143,104.186 L 56.756,101.355 L 60.536,98.759 L 64.426,96.323 L 68.525,94.257 L 72.713,92.390 L 76.996,90.738 L 81.407,89.471 L 85.863,88.386 L 90.386,87.602 L 94.950,87.145 L 99.530,86.873 L 104.119,86.986 L 108.690,87.350 L 113.246,87.911 L 117.727,88.906 L 122.160,90.081 L 126.519,91.521 L 130.746,93.302 L 134.896,95.256 L 138.889,97.521 L 142.723,100.037 L 146.451,102.713 L 149.919,105.721 L 153.228,108.895 L 156.380,112.233 L 159.206,115.849 L 161.870,119.581 L 164.294,123.479 L 166.396,127.557 L 168.315,131.722 L 169.909,136.027 L 171.205,140.426 L 172.303,144.881 L 172.999,149.419 L 173.437,153.983 L 173.669,158.568 Z" fill="#ffff00" stroke="#000000" stroke-width="1.2" /></g><g id="rightEye"><path d="M 95.644,157.309 L 95.563,159.333 L 95.337,161.345 L 94.967,163.335 L 94.451,165.292 L 93.786,167.203 L 92.973,169.056 L 92.007,170.834 L 90.889,172.520 L 89.619,174.094 L 88.198,175.534 L 86.632,176.814 L 84.932,177.909 L 83.113,178.792 L 81.198,179.438 L 79.214,179.828 L 77.194,179.947 L 75.177,179.791 L 73.202,179.347 L 71.304,178.646 L 69.509,177.714 L 67.836,176.577 L 66.299,175.261 L 64.908,173.792 L 63.666,172.195 L 62.577,170.489 L 61.639,168.696 L 60.851,166.831 L 60.212,164.910 L 59.724,162.945 L 59.395,160.946 L 59.211,158.930 L 59.171,156.907 L 59.275,154.885 L 59.524,152.877 L 59.918,150.892 L 60.459,148.942 L 61.149,147.040 L 61.990,145.198 L 62.983,143.435 L 64.131,141.767 L 65.432,140.216 L 66.884,138.805 L 68.480,137.560 L 70.208,136.507 L 72.051,135.674 L 73.984,135.083 L 75.979,134.753 L 78.000,134.697 L 80.010,134.915 L 81.973,135.400 L 83.857,136.137 L 85.635,137.103 L 87.287,138.274 L 88.796,139.624 L 90.159,141.122 L 91.372,142.744 L 92.427,144.473 L 93.328,146.286 L 94.078,148.167 L 94.677,150.100 L 95.129,152.073 L 95.434,154.073 L 95.595,156.091 L 95.236,158.004 L 94.209,159.749 L 93.182,161.495 L 92.155,163.241 L 91.128,164.986 L 90.101,166.732 L 89.324,168.552 L 88.994,170.545 L 88.249,172.424 L 87.119,174.100 L 85.652,175.490 L 83.925,176.538 L 82.015,177.196 L 80.009,177.434 L 77.998,177.241 L 76.073,176.626 L 74.326,175.608 L 72.839,174.241 L 71.675,172.590 L 70.888,170.729 L 70.513,168.744 L 70.568,166.724 L 71.051,164.762 L 71.950,162.951 L 73.212,161.374 L 74.780,160.100 L 76.582,159.187 L 78.537,158.677 L 80.556,158.593 L 82.546,158.946 L 84.413,159.719 L 86.073,160.870 L 87.452,162.347 L 88.486,164.082 L 89.129,165.997 L 89.352,168.006 Z" fill="#ffffff" stroke="#000000" stroke-width="1.2" /></g><g id="leftEye"><path d="M 145.983,154.792 L 145.912,156.794 L 145.726,158.788 L 145.423,160.766 L 145.000,162.723 L 144.454,164.649 L 143.781,166.535 L 142.974,168.367 L 142.025,170.131 L 140.925,171.805 L 139.678,173.372 L 138.282,174.807 L 136.734,176.077 L 135.031,177.130 L 133.201,177.936 L 131.271,178.459 L 129.284,178.671 L 127.289,178.561 L 125.335,178.134 L 123.474,177.398 L 121.742,176.397 L 120.151,175.184 L 118.710,173.796 L 117.421,172.265 L 116.280,170.621 L 115.283,168.884 L 114.425,167.075 L 113.702,165.207 L 113.124,163.290 L 112.671,161.339 L 112.339,159.365 L 112.124,157.375 L 112.025,155.375 L 112.042,153.373 L 112.184,151.375 L 112.458,149.391 L 112.850,147.428 L 113.365,145.493 L 114.004,143.597 L 114.775,141.750 L 115.683,139.966 L 116.734,138.262 L 117.934,136.660 L 119.288,135.185 L 120.796,133.870 L 122.454,132.750 L 124.246,131.864 L 126.147,131.249 L 128.121,130.936 L 130.121,130.943 L 132.090,131.292 L 133.977,131.956 L 135.749,132.883 L 137.384,134.034 L 138.870,135.373 L 140.203,136.864 L 141.386,138.478 L 142.421,140.190 L 143.317,141.981 L 144.077,143.832 L 144.708,145.733 L 145.210,147.672 L 145.572,149.642 L 145.815,151.629 L 145.942,153.627 L 145.519,155.489 L 144.408,157.155 L 143.297,158.822 L 142.186,160.489 L 141.074,162.155 L 139.963,163.822 L 138.852,165.488 L 138.334,167.359 L 137.831,169.292 L 136.911,171.066 L 135.602,172.577 L 133.990,173.757 L 132.157,174.549 L 130.191,174.906 L 128.195,174.801 L 126.274,174.256 L 124.521,173.297 L 123.037,171.958 L 121.893,170.321 L 121.141,168.470 L 120.825,166.497 L 120.973,164.505 L 121.560,162.596 L 122.557,160.864 L 123.926,159.408 L 125.588,158.300 L 127.454,157.589 L 129.433,157.313 L 131.422,157.505 L 133.318,158.134 L 135.028,159.168 L 136.455,160.566 L 137.526,162.252 L 138.197,164.134 L 138.432,166.119 Z" fill="#ffffff" stroke="#000000" stroke-width="1.2" /></g><g id="nose"><path d="M 101.936,176.186 L 101.321,176.517 L 100.713,176.860 L 100.110,177.212 L 99.511,177.571 L 98.916,177.937 L 98.325,178.309 L 97.737,178.685 L 97.152,179.067 L 96.570,179.453 L 95.991,179.843 L 95.415,180.238 L 94.842,180.638 L 94.273,181.042 L 93.707,181.452 L 93.145,181.866 L 92.586,182.286 L 92.033,182.711 L 91.484,183.143 L 90.941,183.583 L 90.406,184.031 L 89.878,184.488 L 89.360,184.957 L 88.857,185.441 L 88.371,185.943 L 87.910,186.467 L 87.456,186.998 L 87.004,187.530 L 86.556,188.066 L 86.116,188.608 L 85.685,189.158 L 85.267,189.717 L 84.866,190.289 L 84.483,190.872 L 84.123,191.471 L 83.789,192.085 L 83.486,192.714 L 83.220,193.359 L 83.007,194.023 L 83.021,194.719 L 83.128,195.409 L 83.124,196.104 L 82.779,196.699 L 82.337,197.240 L 81.896,197.782 L 81.461,198.328 L 81.035,198.882 L 80.622,199.445 L 80.226,200.020 L 79.855,200.611 L 79.526,201.227 L 79.277,201.878 L 79.266,202.564 L 79.663,203.133 L 80.225,203.543 L 80.868,203.812 L 81.546,203.977 L 82.237,204.072 L 82.934,204.115 L 83.632,204.123 L 84.330,204.106 L 85.028,204.069 L 85.724,204.020 L 86.420,203.963 L 87.116,203.903 L 87.812,203.845 L 88.509,203.797 L 89.207,203.769 L 89.905,203.779 L 90.596,203.870 L 91.124,204.301 L 91.517,204.877 L 92.119,205.199 L 92.806,205.324 L 93.499,205.409 L 94.194,205.475 L 94.891,205.525 L 95.588,205.564 L 96.286,205.594 L 96.984,205.615 L 97.682,205.627 L 98.380,205.629 L 99.079,205.622 L 99.777,205.603 L 100.474,205.572 L 101.171,205.522 L 101.865,205.447 L 102.554,205.333 L 103.217,205.120 L 103.784,204.715 L 104.257,204.203 L 104.688,203.653 L 105.136,203.118 L 105.656,202.654 L 106.245,202.278 L 106.859,201.947 L 107.506,201.684 L 108.168,201.476 L 108.239,200.796 L 108.229,200.097 Z" fill="#2b0000" stroke="#000000" stroke-width="1.2" /></g><g id="mouth"><path d="M 80.542,218.975 L 81.043,219.198 L 81.544,219.419 L 82.050,219.628 L 82.558,219.835 L 83.069,220.031 L 83.582,220.224 L 84.099,220.407 L 84.616,220.587 L 85.137,220.757 L 85.658,220.926 L 86.183,221.083 L 86.708,221.241 L 87.236,221.387 L 87.764,221.532 L 88.295,221.667 L 88.826,221.801 L 89.360,221.926 L 89.894,222.049 L 90.429,222.164 L 90.966,222.275 L 91.503,222.381 L 92.042,222.481 L 92.581,222.578 L 93.122,222.666 L 93.663,222.754 L 94.205,222.832 L 94.748,222.910 L 95.291,222.978 L 95.835,223.044 L 96.380,223.103 L 96.925,223.159 L 97.470,223.209 L 98.016,223.254 L 98.563,223.295 L 99.110,223.328 L 99.657,223.361 L 100.204,223.382 L 100.752,223.404 L 101.299,223.416 L 101.847,223.425 L 102.395,223.428 L 102.943,223.426 L 103.491,223.419 L 104.038,223.404 L 104.586,223.388 L 105.133,223.360 L 105.680,223.333 L 106.227,223.293 L 106.773,223.253 L 107.319,223.202 L 107.864,223.148 L 108.408,223.085 L 108.952,223.017 L 109.495,222.942 L 110.036,222.860 L 110.577,222.772 L 111.116,222.675 L 111.655,222.573 L 112.191,222.460 L 112.726,222.343 L 113.258,222.214 L 113.790,222.081 L 114.318,221.935 L 114.845,221.785 L 115.368,221.621 L 115.886,221.445 L 116.273,221.065 L 116.580,220.611 L 116.986,220.253 L 117.523,220.167 L 118.067,220.229 L 118.607,220.324 L 119.153,220.346 L 119.669,220.175 L 120.158,219.928 L 120.647,219.681 L 121.135,219.431 L 121.621,219.179 L 122.108,218.927 L 122.591,218.668 L 123.074,218.409 L 123.553,218.143 L 124.030,217.874 L 124.503,217.598 L 124.969,217.310 L 125.425,217.006 L 125.853,216.665 L 125.892,216.279 L 125.347,216.303 L 124.809,216.406 L 124.277,216.537 L 124.719,216.392 L 125.241,216.226 L 125.763,216.057 L 126.283,215.887 L 126.804,215.716 L 127.324,215.544 L 127.844,215.372 L 128.364,215.199 Z" fill="#2b0000" stroke="#000000" stroke-width="1.2" /></g></svg>