<?xml version='1.0' encoding='utf-8'?>
<svg xmlns="http://www.w3.org/2000/svg" width="210" height="297" viewBox="0 0 210 297"><g id="path2717"><path d="M 77.575,105.724 L 77.016,106.257 L 76.449,106.697 L 75.875,107.051 L 75.297,107.323 L 74.715,107.525 L 74.131,107.664 L 73.545,107.748 L 72.960,107.789 L 72.374,107.795 L 71.788,107.774 L 71.202,107.737 L 70.616,107.691 L 70.031,107.647 L 69.445,107.612 L 68.859,107.597 L 68.273,107.613 L 67.687,107.667 L 67.102,107.772 L 66.519,107.937 L 65.939,108.176 L 65.363,108.498 L 64.794,108.914 L 64.234,109.431 L 63.686,110.057 L 63.155,110.795 L 62.642,111.646 L 62.166,112.659 L 61.928,114.244 L 61.848,115.985 L 61.750,117.716 L 61.465,119.222 L 61.001,120.293 L 60.817,121.915 L 60.841,123.669 L 60.904,125.417 L 60.888,127.169 L 60.747,128.875 L 60.588,130.567 L 60.371,132.191 L 60.187,130.812 L 60.099,129.075 L 59.768,128.093 L 59.439,129.534 L 59.272,131.211 L 59.202,132.955 L 59.166,134.710 L 59.150,136.467 L 59.149,138.224 L 59.161,139.982 L 59.187,141.738 L 59.226,143.491 L 59.287,145.240 L 59.393,146.967 L 59.616,148.590 L 59.925,150.082 L 60.297,151.438 L 60.714,152.670 L 61.165,153.792 L 61.640,154.822 L 62.132,155.774 L 62.638,156.661 L 63.154,157.494 L 63.677,158.284 L 64.207,159.039 L 64.740,159.769 L 65.275,160.482 L 65.811,161.193 L 66.345,161.919 L 66.870,162.697 L 67.377,163.579 L 67.857,164.583 L 68.305,165.717 L 68.715,166.970 L 69.094,168.310 L 69.459,169.687 L 69.833,171.039 L 70.237,172.311 L 70.681,173.458 L 71.161,174.464 L 71.670,175.335 L 72.201,176.071 L 72.752,176.668 L 73.316,177.142 L 73.889,177.508 L 74.468,177.784 L 75.050,177.983 L 75.634,178.117 L 76.220,178.196 L 76.805,178.230 L 77.391,178.227 L 77.977,178.193 L 78.563,178.136 L 79.148,178.063 L 79.733,177.978 L 80.319,177.890 L 80.904,177.805 L 81.489,177.731 L 82.075,177.677 L 82.661,177.655 Z" fill="#ffff00" stroke="#000000" stroke-width="1.2" stroke-opacity="1" fill-opacity="0.981132" /></g><g id="path2147"><path d="M 159.051,118.391 L 159.934,118.498 L 160.818,118.597 L 161.702,118.690 L 162.587,118.781 L 163.472,118.873 L 164.356,118.969 L 165.240,119.073 L 166.122,119.187 L 167.001,119.316 L 167.879,119.462 L 168.752,119.628 L 169.623,119.808 L 170.492,119.994 L 171.360,120.185 L 172.227,120.382 L 173.093,120.584 L 173.957,120.793 L 174.819,121.010 L 175.680,121.233 L 176.538,121.465 L 177.393,121.706 L 178.246,121.955 L 179.096,122.215 L 179.942,122.484 L 180.785,122.765 L 181.624,123.056 L 182.458,123.360 L 183.288,123.676 L 184.112,124.004 L 184.931,124.347 L 185.316,124.922 L 185.742,125.481 L 186.552,125.769 L 187.012,126.162 L 187.881,126.319 L 188.762,126.442 L 189.633,126.605 L 190.459,126.885 L 190.978,127.423 L 191.289,128.041 L 191.532,128.720 L 191.530,129.577 L 191.387,130.454 L 191.204,131.324 L 190.997,132.190 L 190.775,133.051 L 190.541,133.909 L 190.298,134.764 L 190.046,135.616 L 189.787,136.467 L 189.520,137.315 L 189.248,138.161 L 188.967,139.004 L 188.667,139.840 L 188.186,140.584 L 187.607,141.256 L 186.991,141.894 L 186.355,142.512 L 185.705,143.115 L 185.044,143.707 L 184.374,144.289 L 183.697,144.862 L 183.014,145.427 L 182.324,145.985 L 181.628,146.535 L 180.925,147.076 L 180.214,147.606 L 179.491,148.121 L 178.744,148.598 L 177.913,148.897 L 177.040,149.063 L 176.158,149.183 L 175.276,149.297 L 174.398,149.439 L 173.540,149.666 L 172.781,150.114 L 172.148,150.733 L 171.560,151.397 L 170.916,152.005 L 170.141,152.432 L 169.278,152.639 L 168.391,152.691 L 167.502,152.646 L 166.619,152.546 L 165.738,152.422 L 164.858,152.294 L 163.975,152.186 L 163.088,152.120 L 162.199,152.130 L 161.322,152.253 L 160.489,152.533 L 159.746,152.989 L 159.134,153.605 L 158.691,154.353 L 158.422,155.191 L 158.274,156.066 L 158.157,156.948 L 157.975,157.818 L 157.639,158.638 Z" fill="#ffff00" stroke="#000000" stroke-width="1.2" stroke-opacity="1" fill-opacity="0.98113215" /></g><g id="path230"><path d="M 160.214,134.738 L 160.080,142.679 L 159.827,150.584 L 159.425,158.443 L 158.791,166.160 L 158.043,173.779 L 157.123,181.235 L 156.015,188.450 L 154.802,195.513 L 153.402,202.265 L 151.864,208.729 L 150.232,214.992 L 148.412,220.774 L 146.502,226.271 L 144.500,231.481 L 142.347,236.116 L 140.134,240.473 L 137.828,244.397 L 135.433,247.782 L 132.992,250.867 L 130.475,253.360 L 127.916,255.396 L 125.329,257.118 L 122.698,258.090 L 120.059,258.721 L 117.409,258.916 L 114.765,258.446 L 112.130,257.654 L 109.519,256.296 L 106.946,254.417 L 104.400,252.223 L 101.927,249.361 L 99.509,246.127 L 97.142,242.550 L 94.897,238.329 L 92.714,233.834 L 90.628,228.929 L 88.678,223.553 L 86.807,217.932 L 85.086,211.885 L 83.501,205.523 L 82.008,198.955 L 80.724,192.000 L 79.563,184.862 L 78.518,177.555 L 77.714,169.981 L 77.023,162.314 L 76.489,154.526 L 76.177,146.635 L 75.983,138.713 L 75.983,130.762 L 76.177,122.840 L 76.489,114.949 L 77.023,107.161 L 77.714,99.495 L 78.518,91.920 L 79.563,84.613 L 80.724,77.475 L 82.008,70.520 L 83.501,63.953 L 85.086,57.590 L 86.807,51.543 L 88.678,45.923 L 90.628,40.546 L 92.714,35.641 L 94.897,31.146 L 97.142,26.926 L 99.509,23.348 L 101.927,20.114 L 104.400,17.253 L 106.946,15.058 L 109.519,13.179 L 112.130,11.822 L 114.765,11.030 L 117.409,10.559 L 120.059,10.754 L 122.698,11.385 L 125.329,12.357 L 127.916,14.080 L 130.475,16.116 L 132.992,18.609 L 135.433,21.694 L 137.828,25.078 L 140.134,29.002 L 142.347,33.359 L 144.500,37.995 L 146.502,43.204 L 148.412,48.702 L 150.232,54.483 L 151.864,60.746 L 153.402,67.210 L 154.802,73.963 L 156.015,81.025 L 157.123,88.240 L 158.043,95.697 L 158.791,103.316 L 159.425,111.032 L 159.827,118.891 L 160.080,126.796 L 160.214,134.738 Z" fill="#ffff00" stroke="#000000" stroke-width="1.2" stroke-opacity="1" /></g><g id="path393"><path d="M 91.206,132.189 L 91.041,134.166 L 90.842,136.141 L 90.605,138.113 L 90.300,140.071 L 89.975,142.019 L 89.585,143.942 L 89.161,145.843 L 88.698,147.712 L 88.177,149.544 L 87.644,151.335 L 87.059,153.082 L 86.445,154.767 L 85.797,156.393 L 85.118,157.959 L 84.433,159.441 L 83.708,160.839 L 82.972,162.149 L 82.239,163.356 L 81.484,164.450 L 80.726,165.422 L 79.990,166.261 L 79.255,166.961 L 78.526,167.491 L 77.818,167.885 L 77.131,168.098 L 76.461,168.114 L 75.808,167.985 L 75.172,167.697 L 74.559,167.209 L 73.958,166.577 L 73.376,165.803 L 72.822,164.895 L 72.278,163.851 L 71.764,162.688 L 71.282,161.433 L 70.819,160.069 L 70.390,158.622 L 70.006,157.102 L 69.641,155.498 L 69.323,153.841 L 69.044,152.122 L 68.802,150.351 L 68.618,148.538 L 68.450,146.686 L 68.358,144.801 L 68.295,142.883 L 68.271,140.950 L 68.317,138.993 L 68.392,137.028 L 68.520,135.053 L 68.702,133.078 L 68.912,131.103 L 69.191,129.139 L 69.509,127.185 L 69.855,125.246 L 70.277,123.337 L 70.711,121.450 L 71.204,119.598 L 71.728,117.785 L 72.293,116.019 L 72.899,114.300 L 73.519,112.643 L 74.187,111.046 L 74.870,109.525 L 75.575,108.083 L 76.307,106.718 L 77.042,105.469 L 77.786,104.317 L 78.543,103.278 L 79.290,102.376 L 80.025,101.601 L 80.760,100.989 L 81.479,100.525 L 82.174,100.213 L 82.854,100.107 L 83.515,100.164 L 84.161,100.364 L 84.785,100.754 L 85.391,101.323 L 85.984,102.023 L 86.555,102.862 L 87.098,103.846 L 87.629,104.952 L 88.133,106.156 L 88.600,107.467 L 89.046,108.879 L 89.455,110.360 L 89.834,111.921 L 90.172,113.555 L 90.461,115.242 L 90.732,116.989 L 90.944,118.780 L 91.117,120.617 L 91.253,122.485 L 91.324,124.388 L 91.373,126.312 L 91.355,128.258 L 91.297,130.220 L 91.206,132.189 Z" fill="#ffffff" stroke="#000000" stroke-width="1.2" stroke-opacity="1" /></g><g id="path1267"><path d="M 86.017,142.897 L 85.937,143.809 L 85.830,144.718 L 85.702,145.624 L 85.535,146.517 L 85.340,147.398 L 85.130,148.262 L 84.888,149.106 L 84.629,149.926 L 84.350,150.719 L 84.051,151.486 L 83.748,152.219 L 83.422,152.918 L 83.091,153.583 L 82.755,154.208 L 82.407,154.798 L 82.060,155.339 L 81.711,155.840 L 81.356,156.297 L 81.010,156.704 L 80.662,157.063 L 80.314,157.369 L 79.977,157.627 L 79.641,157.820 L 79.309,157.969 L 78.985,158.060 L 78.667,158.082 L 78.353,158.066 L 78.047,157.977 L 77.747,157.832 L 77.451,157.641 L 77.165,157.382 L 76.881,157.074 L 76.606,156.713 L 76.342,156.296 L 76.083,155.828 L 75.834,155.318 L 75.597,154.759 L 75.371,154.150 L 75.162,153.507 L 74.964,152.820 L 74.785,152.097 L 74.632,151.341 L 74.488,150.551 L 74.374,149.735 L 74.290,148.891 L 74.221,148.028 L 74.194,147.147 L 74.191,146.249 L 74.214,145.345 L 74.272,144.435 L 74.366,143.524 L 74.485,142.616 L 74.628,141.715 L 74.813,140.829 L 75.011,139.954 L 75.239,139.100 L 75.496,138.269 L 75.759,137.462 L 76.049,136.681 L 76.352,135.932 L 76.667,135.216 L 76.997,134.530 L 77.328,133.887 L 77.671,133.281 L 78.020,132.714 L 78.365,132.190 L 78.718,131.712 L 79.070,131.283 L 79.416,130.898 L 79.765,130.567 L 80.108,130.285 L 80.444,130.056 L 80.779,129.889 L 81.106,129.763 L 81.427,129.712 L 81.743,129.708 L 82.054,129.753 L 82.356,129.878 L 82.655,130.042 L 82.946,130.266 L 83.230,130.555 L 83.510,130.890 L 83.778,131.276 L 84.043,131.718 L 84.297,132.209 L 84.535,132.742 L 84.770,133.329 L 84.991,133.952 L 85.190,134.618 L 85.380,135.326 L 85.548,136.064 L 85.696,136.838 L 85.824,137.642 L 85.920,138.471 L 86.000,139.326 L 86.051,140.198 L 86.064,141.089 L 86.054,141.989 L 86.017,142.897 Z" fill="#2b0000" stroke="#000000" stroke-width="1.2" stroke-opacity="1" /></g><g id="path397"><path d="M 126.832,130.309 L 126.582,132.253 L 126.314,134.196 L 126.002,136.142 L 125.651,138.084 L 125.277,140.023 L 124.844,141.947 L 124.397,143.863 L 123.894,145.756 L 123.367,147.631 L 122.805,149.478 L 122.187,151.287 L 121.564,153.063 L 120.886,154.791 L 120.186,156.470 L 119.454,158.085 L 118.679,159.631 L 117.904,161.099 L 117.093,162.473 L 116.255,163.742 L 115.428,164.890 L 114.593,165.914 L 113.751,166.777 L 112.923,167.481 L 112.131,168.010 L 111.361,168.355 L 110.625,168.476 L 109.929,168.420 L 109.271,168.187 L 108.658,167.730 L 108.093,167.093 L 107.561,166.317 L 107.075,165.392 L 106.628,164.314 L 106.217,163.131 L 105.854,161.846 L 105.531,160.456 L 105.238,158.993 L 104.997,157.460 L 104.792,155.847 L 104.622,154.191 L 104.504,152.479 L 104.406,150.726 L 104.367,148.938 L 104.356,147.107 L 104.378,145.260 L 104.454,143.376 L 104.547,141.482 L 104.701,139.565 L 104.877,137.639 L 105.095,135.701 L 105.354,133.759 L 105.634,131.812 L 105.975,129.869 L 106.332,127.927 L 106.741,125.996 L 107.185,124.076 L 107.650,122.169 L 108.176,120.288 L 108.712,118.425 L 109.305,116.598 L 109.918,114.800 L 110.571,113.047 L 111.273,111.346 L 111.978,109.697 L 112.731,108.112 L 113.512,106.609 L 114.302,105.185 L 115.126,103.859 L 115.963,102.653 L 116.791,101.560 L 117.632,100.612 L 118.470,99.834 L 119.280,99.216 L 120.062,98.770 L 120.816,98.545 L 121.532,98.512 L 122.209,98.657 L 122.844,99.002 L 123.433,99.553 L 123.981,100.261 L 124.492,101.111 L 124.960,102.110 L 125.385,103.249 L 125.774,104.483 L 126.117,105.816 L 126.425,107.251 L 126.691,108.750 L 126.911,110.324 L 127.107,111.956 L 127.246,113.637 L 127.352,115.377 L 127.426,117.145 L 127.446,118.959 L 127.447,120.795 L 127.389,122.662 L 127.306,124.552 L 127.184,126.456 L 127.017,128.380 L 126.832,130.309 Z" fill="#ffffff" stroke="#000000" stroke-width="1.2" stroke-opacity="1" /></g><g id="path1265"><path d="M 120.646,142.050 L 120.534,142.887 L 120.400,143.722 L 120.247,144.557 L 120.058,145.384 L 119.846,146.201 L 119.621,147.007 L 119.365,147.793 L 119.092,148.562 L 118.806,149.308 L 118.496,150.029 L 118.182,150.725 L 117.851,151.389 L 117.505,152.022 L 117.162,152.623 L 116.805,153.188 L 116.445,153.715 L 116.086,154.205 L 115.718,154.654 L 115.359,155.062 L 114.998,155.427 L 114.636,155.745 L 114.287,156.023 L 113.937,156.244 L 113.594,156.425 L 113.262,156.556 L 112.936,156.630 L 112.618,156.667 L 112.312,156.638 L 112.016,156.564 L 111.728,156.445 L 111.455,156.260 L 111.192,156.036 L 110.940,155.760 L 110.704,155.424 L 110.479,155.050 L 110.269,154.627 L 110.073,154.153 L 109.892,153.640 L 109.730,153.082 L 109.581,152.485 L 109.455,151.851 L 109.350,151.179 L 109.260,150.478 L 109.198,149.748 L 109.162,148.987 L 109.143,148.208 L 109.157,147.410 L 109.197,146.593 L 109.258,145.769 L 109.351,144.935 L 109.474,144.099 L 109.619,143.264 L 109.787,142.431 L 109.989,141.610 L 110.205,140.797 L 110.446,140.000 L 110.716,139.224 L 110.991,138.465 L 111.289,137.731 L 111.605,137.024 L 111.926,136.344 L 112.265,135.694 L 112.608,135.077 L 112.959,134.494 L 113.322,133.947 L 113.676,133.437 L 114.041,132.968 L 114.406,132.542 L 114.765,132.153 L 115.128,131.814 L 115.483,131.516 L 115.833,131.264 L 116.180,131.064 L 116.516,130.905 L 116.846,130.806 L 117.168,130.749 L 117.480,130.741 L 117.781,130.799 L 118.074,130.890 L 118.354,131.045 L 118.621,131.252 L 118.879,131.498 L 119.123,131.807 L 119.355,132.160 L 119.572,132.557 L 119.774,133.010 L 119.964,133.502 L 120.136,134.034 L 120.289,134.617 L 120.428,135.232 L 120.542,135.882 L 120.640,136.573 L 120.718,137.288 L 120.765,138.033 L 120.794,138.804 L 120.799,139.592 L 120.770,140.401 L 120.719,141.222 L 120.646,142.050 Z" fill="#2b0000" stroke="#000000" stroke-width="1.2" stroke-opacity="1" /></g><g id="path1439"><path d="M 97.564,156.910 L 96.943,157.199 L 96.327,157.499 L 95.716,157.807 L 95.108,158.122 L 94.503,158.443 L 93.901,158.769 L 93.302,159.100 L 92.705,159.435 L 92.111,159.775 L 91.519,160.119 L 90.930,160.467 L 90.343,160.820 L 89.759,161.177 L 89.178,161.538 L 88.600,161.905 L 88.026,162.276 L 87.455,162.653 L 86.888,163.036 L 86.326,163.426 L 85.770,163.824 L 85.220,164.232 L 84.680,164.650 L 84.150,165.083 L 83.637,165.534 L 83.145,166.008 L 82.662,166.492 L 82.180,166.977 L 81.703,167.467 L 81.232,167.963 L 80.771,168.467 L 80.322,168.983 L 79.889,169.513 L 79.476,170.058 L 79.086,170.621 L 78.727,171.204 L 78.403,171.808 L 78.140,172.439 L 78.043,173.101 L 78.088,173.782 L 78.024,174.409 L 77.809,175.007 L 77.372,175.522 L 76.902,176.020 L 76.437,176.522 L 75.981,177.033 L 75.538,177.556 L 75.116,178.097 L 74.740,178.669 L 74.535,179.262 L 74.488,179.806 L 74.554,180.336 L 74.871,180.822 L 75.403,181.190 L 76.022,181.443 L 76.682,181.602 L 77.359,181.695 L 78.042,181.742 L 78.728,181.756 L 79.414,181.747 L 80.100,181.721 L 80.785,181.683 L 81.470,181.637 L 82.154,181.587 L 82.839,181.538 L 83.524,181.495 L 84.209,181.465 L 84.895,181.461 L 85.573,181.525 L 86.193,181.751 L 86.708,182.180 L 87.207,182.585 L 87.850,182.779 L 88.529,182.870 L 89.212,182.936 L 89.897,182.986 L 90.582,183.026 L 91.267,183.058 L 91.953,183.081 L 92.640,183.097 L 93.326,183.105 L 94.012,183.106 L 94.699,183.099 L 95.385,183.083 L 96.070,183.055 L 96.755,183.013 L 97.439,182.951 L 98.118,182.855 L 98.781,182.686 L 99.373,182.353 L 99.884,181.902 L 100.348,181.401 L 100.822,180.907 L 101.358,180.483 L 101.956,180.149 L 102.575,179.855 L 103.219,179.620 L 103.881,179.448 L 104.073,178.871 L 104.061,178.185 Z" fill="#2b0000" stroke="#000000" stroke-width="1.2" stroke-opacity="1" fill-opacity="0" /></g><g id="path2136"><path d="M 87.765,192.029 L 88.099,192.323 L 88.435,192.609 L 88.771,192.886 L 89.109,193.154 L 89.447,193.415 L 89.786,193.668 L 90.125,193.913 L 90.465,194.151 L 90.806,194.380 L 91.146,194.603 L 91.488,194.818 L 91.829,195.025 L 92.171,195.226 L 92.513,195.419 L 92.855,195.605 L 93.197,195.785 L 93.539,195.957 L 93.881,196.122 L 94.223,196.280 L 94.566,196.431 L 94.908,196.575 L 95.250,196.713 L 95.592,196.843 L 95.934,196.967 L 96.276,197.083 L 96.619,197.193 L 96.961,197.296 L 97.302,197.391 L 97.644,197.480 L 97.986,197.561 L 98.328,197.636 L 98.670,197.703 L 99.011,197.763 L 99.353,197.815 L 99.695,197.861 L 100.037,197.899 L 100.378,197.929 L 100.720,197.952 L 101.062,197.967 L 101.404,197.974 L 101.746,197.974 L 102.088,197.965 L 102.430,197.949 L 102.772,197.924 L 103.115,197.891 L 103.457,197.850 L 103.800,197.800 L 104.144,197.741 L 104.487,197.674 L 104.831,197.598 L 105.175,197.513 L 105.520,197.418 L 105.865,197.315 L 106.210,197.201 L 106.555,197.079 L 106.901,196.946 L 107.248,196.804 L 107.595,196.652 L 107.942,196.490 L 108.289,196.317 L 108.637,196.134 L 108.984,195.940 L 109.346,195.720 L 109.753,195.456 L 110.169,195.179 L 110.574,194.886 L 110.829,194.434 L 110.963,194.007 L 111.189,193.734 L 111.528,193.702 L 111.871,193.736 L 112.243,193.724 L 112.624,193.641 L 112.978,193.388 L 113.309,193.070 L 113.641,192.750 L 113.972,192.428 L 114.302,192.104 L 114.633,191.777 L 114.962,191.447 L 115.292,191.112 L 115.620,190.773 L 115.948,190.428 L 116.274,190.074 L 116.598,189.709 L 116.917,189.324 L 117.225,188.900 L 117.241,188.429 L 116.898,188.463 L 116.556,188.606 L 116.212,188.781 L 116.488,188.578 L 116.829,188.355 L 117.169,188.130 L 117.509,187.904 L 117.849,187.677 L 118.189,187.449 L 118.529,187.219 L 118.869,186.989 Z" fill="#2b0000" stroke="#000000" stroke-width="1.2" stroke-opacity="1" fill-opacity="0" /></g></svg>