<?xml version='1.0' encoding='utf-8'?>
<svg xmlns="http://www.w3.org/2000/svg" width="210" height="297" viewBox="0 0 210 297"><g id="path2717"><path d="M 84.866,132.350 L 83.899,132.658 L 82.917,132.912 L 81.923,133.116 L 80.920,133.274 L 79.912,133.390 L 78.901,133.470 L 77.887,133.519 L 76.872,133.543 L 75.858,133.546 L 74.843,133.534 L 73.828,133.512 L 72.814,133.486 L 71.799,133.460 L 70.784,133.441 L 69.770,133.432 L 68.755,133.441 L 67.741,133.472 L 66.728,133.533 L 65.717,133.628 L 64.712,133.766 L 63.714,133.952 L 62.728,134.192 L 61.759,134.491 L 60.811,134.852 L 59.890,135.278 L 59.002,135.769 L 58.177,136.354 L 57.766,137.270 L 57.626,138.274 L 57.456,139.274 L 56.962,140.143 L 56.159,140.762 L 55.840,141.698 L 55.882,142.711 L 55.992,143.720 L 55.964,144.732 L 55.720,145.717 L 55.445,146.694 L 55.068,147.631 L 54.749,146.835 L 54.597,145.832 L 54.024,145.265 L 53.453,146.097 L 53.165,147.065 L 53.044,148.072 L 52.982,149.085 L 52.954,150.100 L 52.952,151.114 L 52.973,152.129 L 53.017,153.143 L 53.086,154.155 L 53.191,155.165 L 53.374,156.162 L 53.760,157.099 L 54.295,157.960 L 54.939,158.744 L 55.663,159.454 L 56.444,160.102 L 57.266,160.697 L 58.119,161.246 L 58.995,161.759 L 59.889,162.240 L 60.795,162.696 L 61.712,163.132 L 62.635,163.553 L 63.562,163.965 L 64.491,164.375 L 65.415,164.794 L 66.325,165.244 L 67.202,165.753 L 68.035,166.333 L 68.810,166.987 L 69.521,167.711 L 70.178,168.484 L 70.809,169.279 L 71.457,170.060 L 72.157,170.794 L 72.925,171.457 L 73.757,172.038 L 74.638,172.540 L 75.559,172.965 L 76.513,173.310 L 77.491,173.583 L 78.483,173.795 L 79.485,173.954 L 80.493,174.069 L 81.505,174.146 L 82.519,174.192 L 83.534,174.212 L 84.548,174.210 L 85.563,174.190 L 86.577,174.158 L 87.591,174.115 L 88.605,174.066 L 89.619,174.015 L 90.632,173.966 L 91.646,173.923 L 92.661,173.892 L 93.675,173.880 Z" fill="#ffff00" stroke="#000000" stroke-width="1.2" stroke-opacity="1" fill-opacity="0.981132" /></g><g id="path2147"><path d="M 146.480,141.072 L 148.006,141.130 L 149.533,141.183 L 151.062,141.234 L 152.591,141.283 L 154.119,141.332 L 155.647,141.382 L 157.173,141.436 L 158.697,141.495 L 160.217,141.559 L 161.733,141.632 L 163.242,141.714 L 164.746,141.807 L 166.248,141.906 L 167.749,142.007 L 169.247,142.111 L 170.742,142.218 L 172.235,142.328 L 173.725,142.441 L 175.211,142.558 L 176.693,142.678 L 178.171,142.803 L 179.645,142.933 L 181.113,143.067 L 182.575,143.207 L 184.031,143.351 L 185.481,143.502 L 186.922,143.658 L 188.356,143.821 L 189.780,143.991 L 191.195,144.167 L 191.860,144.351 L 192.597,144.542 L 193.995,144.814 L 194.789,145.363 L 196.291,145.522 L 197.813,145.592 L 199.319,145.644 L 200.745,145.698 L 201.642,145.770 L 202.179,145.888 L 202.600,146.117 L 202.596,146.660 L 202.350,147.242 L 202.033,147.815 L 201.676,148.383 L 201.292,148.946 L 200.888,149.505 L 200.467,150.061 L 200.032,150.615 L 199.584,151.166 L 199.124,151.716 L 198.653,152.263 L 198.167,152.808 L 197.650,153.348 L 196.819,153.814 L 195.818,154.218 L 194.755,154.598 L 193.655,154.963 L 192.531,155.318 L 191.389,155.664 L 190.233,156.004 L 189.063,156.338 L 187.882,156.667 L 186.690,156.990 L 185.488,157.308 L 184.273,157.620 L 183.044,157.924 L 181.796,158.217 L 180.506,158.475 L 179.069,158.614 L 177.561,158.697 L 176.038,158.761 L 174.514,158.823 L 172.997,158.898 L 171.515,159.015 L 170.203,159.250 L 169.109,159.609 L 168.094,160.009 L 166.980,160.371 L 165.642,160.616 L 164.151,160.735 L 162.617,160.772 L 161.083,160.756 L 159.556,160.708 L 158.035,160.643 L 156.514,160.573 L 154.988,160.508 L 153.456,160.458 L 151.921,160.436 L 150.406,160.458 L 148.965,160.544 L 147.682,160.722 L 146.624,161.014 L 145.859,161.425 L 145.395,161.942 L 145.140,162.511 L 144.936,163.090 L 144.623,163.661 L 144.042,164.188 Z" fill="#ffff00" stroke="#000000" stroke-width="1.2" stroke-opacity="1" fill-opacity="0.98113215" /></g><g id="path230"><path d="M 190.756,151.619 L 190.523,156.204 L 190.085,160.768 L 189.389,165.306 L 188.291,169.761 L 186.995,174.160 L 185.401,178.465 L 183.482,182.630 L 181.381,186.708 L 178.956,190.606 L 176.292,194.338 L 173.466,197.954 L 170.314,201.292 L 167.005,204.466 L 163.537,207.474 L 159.809,210.150 L 155.975,212.666 L 151.982,214.931 L 147.832,216.885 L 143.605,218.666 L 139.246,220.106 L 134.813,221.281 L 130.332,222.276 L 125.776,222.837 L 121.205,223.201 L 116.616,223.313 L 112.036,223.042 L 107.472,222.585 L 102.949,221.801 L 98.493,220.716 L 94.082,219.449 L 89.799,217.797 L 85.611,215.930 L 81.512,213.864 L 77.622,211.428 L 73.842,208.832 L 70.229,206.001 L 66.851,202.897 L 63.610,199.651 L 60.629,196.160 L 57.884,192.487 L 55.299,188.695 L 53.074,184.680 L 51.064,180.559 L 49.254,176.340 L 47.860,171.967 L 46.664,167.541 L 45.739,163.044 L 45.199,158.488 L 44.863,153.915 L 44.863,149.324 L 45.199,144.750 L 45.739,140.194 L 46.664,135.698 L 47.860,131.272 L 49.254,126.899 L 51.064,122.680 L 53.074,118.559 L 55.299,114.543 L 57.884,110.751 L 60.629,107.078 L 63.610,103.587 L 66.851,100.342 L 70.229,97.238 L 73.842,94.406 L 77.622,91.811 L 81.512,89.374 L 85.611,87.308 L 89.799,85.441 L 94.082,83.789 L 98.493,82.522 L 102.949,81.437 L 107.472,80.654 L 112.036,80.196 L 116.616,79.925 L 121.205,80.037 L 125.776,80.402 L 130.332,80.963 L 134.813,81.957 L 139.246,83.133 L 143.605,84.572 L 147.832,86.353 L 151.982,88.307 L 155.975,90.573 L 159.809,93.088 L 163.537,95.765 L 167.005,98.772 L 170.314,101.946 L 173.466,105.284 L 176.292,108.900 L 178.956,112.632 L 181.381,116.531 L 183.482,120.608 L 185.401,124.774 L 186.995,129.079 L 188.291,133.478 L 189.389,137.933 L 190.085,142.470 L 190.523,147.034 L 190.756,151.619 Z" fill="#ffff00" stroke="#000000" stroke-width="1.2" stroke-opacity="1" /></g><g id="path393"><path d="M 97.835,134.944 L 97.573,136.101 L 97.257,137.263 L 96.880,138.432 L 96.396,139.612 L 95.880,140.799 L 95.261,141.988 L 94.587,143.196 L 93.852,144.390 L 93.024,145.605 L 92.177,146.818 L 91.248,148.011 L 90.273,149.232 L 89.244,150.419 L 88.165,151.592 L 87.077,152.765 L 85.926,153.874 L 84.756,154.962 L 83.593,156.013 L 82.394,156.960 L 81.190,157.871 L 80.022,158.680 L 78.853,159.350 L 77.696,159.945 L 76.571,160.408 L 75.480,160.698 L 74.416,160.843 L 73.379,160.843 L 72.368,160.729 L 71.394,160.437 L 70.440,159.999 L 69.516,159.494 L 68.636,158.881 L 67.772,158.128 L 66.956,157.359 L 66.190,156.511 L 65.455,155.583 L 64.773,154.650 L 64.164,153.660 L 63.584,152.634 L 63.078,151.608 L 62.635,150.532 L 62.252,149.465 L 61.959,148.377 L 61.693,147.266 L 61.546,146.169 L 61.446,145.041 L 61.408,143.917 L 61.481,142.779 L 61.599,141.637 L 61.803,140.486 L 62.092,139.327 L 62.426,138.162 L 62.869,136.988 L 63.373,135.803 L 63.924,134.621 L 64.594,133.418 L 65.283,132.214 L 66.066,131.016 L 66.898,129.793 L 67.796,128.594 L 68.758,127.385 L 69.744,126.177 L 70.804,125.006 L 71.889,123.828 L 73.009,122.684 L 74.172,121.594 L 75.338,120.515 L 76.520,119.513 L 77.723,118.589 L 78.909,117.721 L 80.076,116.972 L 81.243,116.346 L 82.385,115.813 L 83.490,115.438 L 84.570,115.220 L 85.619,115.147 L 86.645,115.219 L 87.636,115.397 L 88.598,115.777 L 89.540,116.256 L 90.448,116.799 L 91.311,117.494 L 92.153,118.258 L 92.954,119.059 L 93.695,119.959 L 94.404,120.889 L 95.054,121.846 L 95.656,122.870 L 96.193,123.884 L 96.652,124.932 L 97.083,126.013 L 97.419,127.081 L 97.694,128.188 L 97.909,129.289 L 98.023,130.404 L 98.100,131.531 L 98.071,132.658 L 97.980,133.800 L 97.835,134.944 Z" fill="#ffffff" stroke="#000000" stroke-width="1.2" stroke-opacity="1" /></g><g id="path1267"><path d="M 89.451,140.429 L 89.324,140.949 L 89.155,141.473 L 88.951,142.003 L 88.686,142.536 L 88.375,143.078 L 88.042,143.619 L 87.658,144.162 L 87.246,144.715 L 86.803,145.256 L 86.327,145.797 L 85.846,146.341 L 85.329,146.860 L 84.802,147.377 L 84.269,147.882 L 83.716,148.355 L 83.165,148.823 L 82.610,149.256 L 82.045,149.664 L 81.496,150.045 L 80.943,150.373 L 80.390,150.691 L 79.855,150.954 L 79.320,151.166 L 78.793,151.352 L 78.279,151.477 L 77.773,151.555 L 77.275,151.592 L 76.788,151.581 L 76.311,151.508 L 75.841,151.410 L 75.386,151.253 L 74.935,151.043 L 74.498,150.822 L 74.079,150.535 L 73.666,150.221 L 73.272,149.886 L 72.895,149.502 L 72.536,149.111 L 72.204,148.694 L 71.890,148.248 L 71.605,147.801 L 71.361,147.334 L 71.133,146.850 L 70.951,146.372 L 70.818,145.875 L 70.708,145.374 L 70.665,144.877 L 70.661,144.366 L 70.698,143.855 L 70.790,143.338 L 70.939,142.816 L 71.128,142.289 L 71.355,141.760 L 71.649,141.221 L 71.964,140.676 L 72.327,140.139 L 72.734,139.588 L 73.153,139.040 L 73.614,138.503 L 74.095,137.958 L 74.594,137.426 L 75.119,136.909 L 75.645,136.393 L 76.191,135.907 L 76.745,135.434 L 77.292,134.978 L 77.854,134.569 L 78.414,134.168 L 78.963,133.811 L 79.518,133.491 L 80.062,133.200 L 80.597,132.967 L 81.128,132.763 L 81.648,132.605 L 82.159,132.506 L 82.660,132.448 L 83.155,132.425 L 83.635,132.477 L 84.110,132.570 L 84.571,132.682 L 85.024,132.876 L 85.467,133.090 L 85.893,133.340 L 86.314,133.651 L 86.718,133.968 L 87.097,134.326 L 87.470,134.719 L 87.821,135.118 L 88.138,135.554 L 88.439,136.001 L 88.706,136.456 L 88.942,136.936 L 89.145,137.415 L 89.297,137.900 L 89.425,138.402 L 89.506,138.900 L 89.525,139.406 L 89.510,139.917 L 89.451,140.429 Z" fill="#2b0000" stroke="#000000" stroke-width="1.2" stroke-opacity="1" /></g><g id="path397"><path d="M 134.463,133.223 L 134.038,134.376 L 133.580,135.532 L 133.048,136.707 L 132.449,137.890 L 131.812,139.083 L 131.073,140.291 L 130.311,141.507 L 129.454,142.729 L 128.555,143.971 L 127.597,145.198 L 126.542,146.457 L 125.480,147.705 L 124.323,148.949 L 123.131,150.214 L 121.882,151.439 L 120.560,152.673 L 119.239,153.895 L 117.856,155.050 L 116.427,156.194 L 115.017,157.283 L 113.593,158.280 L 112.157,159.188 L 110.746,160.014 L 109.394,160.681 L 108.081,161.204 L 106.827,161.575 L 105.640,161.784 L 104.517,161.831 L 103.472,161.737 L 102.508,161.460 L 101.601,161.065 L 100.772,160.611 L 100.011,160.007 L 99.310,159.316 L 98.690,158.609 L 98.139,157.802 L 97.639,156.942 L 97.229,156.087 L 96.880,155.140 L 96.590,154.192 L 96.387,153.212 L 96.222,152.196 L 96.154,151.184 L 96.135,150.123 L 96.173,149.067 L 96.303,147.977 L 96.462,146.881 L 96.725,145.766 L 97.025,144.640 L 97.396,143.499 L 97.837,142.345 L 98.316,141.182 L 98.897,140.002 L 99.505,138.813 L 100.203,137.613 L 100.960,136.400 L 101.752,135.186 L 102.650,133.950 L 103.565,132.714 L 104.576,131.473 L 105.621,130.211 L 106.734,128.980 L 107.931,127.715 L 109.134,126.467 L 110.417,125.250 L 111.748,124.011 L 113.096,122.819 L 114.502,121.680 L 115.929,120.551 L 117.341,119.497 L 118.775,118.566 L 120.205,117.682 L 121.585,116.934 L 122.918,116.338 L 124.205,115.889 L 125.425,115.599 L 126.580,115.470 L 127.664,115.495 L 128.668,115.685 L 129.603,116.023 L 130.473,116.452 L 131.271,116.969 L 131.996,117.630 L 132.659,118.332 L 133.244,119.075 L 133.769,119.925 L 134.223,120.780 L 134.599,121.682 L 134.932,122.638 L 135.170,123.582 L 135.350,124.594 L 135.476,125.605 L 135.510,126.645 L 135.512,127.706 L 135.414,128.774 L 135.272,129.870 L 135.064,130.970 L 134.780,132.095 L 134.463,133.223 Z" fill="#ffffff" stroke="#000000" stroke-width="1.2" stroke-opacity="1" /></g><g id="path1265"><path d="M 124.625,139.653 L 124.434,140.136 L 124.205,140.624 L 123.942,141.120 L 123.621,141.624 L 123.258,142.137 L 122.873,142.653 L 122.436,143.173 L 121.971,143.703 L 121.481,144.223 L 120.952,144.749 L 120.416,145.279 L 119.849,145.783 L 119.260,146.299 L 118.674,146.797 L 118.063,147.272 L 117.449,147.749 L 116.835,148.192 L 116.206,148.622 L 115.593,149.029 L 114.976,149.394 L 114.358,149.753 L 113.761,150.067 L 113.163,150.344 L 112.578,150.597 L 112.010,150.801 L 111.453,150.972 L 110.911,151.105 L 110.388,151.194 L 109.882,151.241 L 109.391,151.257 L 108.925,151.217 L 108.474,151.138 L 108.044,151.043 L 107.641,150.877 L 107.256,150.692 L 106.897,150.481 L 106.562,150.213 L 106.254,149.939 L 105.978,149.631 L 105.723,149.286 L 105.508,148.941 L 105.329,148.562 L 105.174,148.162 L 105.068,147.764 L 105.007,147.335 L 104.974,146.898 L 104.998,146.457 L 105.066,145.997 L 105.171,145.532 L 105.329,145.057 L 105.539,144.572 L 105.787,144.080 L 106.074,143.580 L 106.420,143.071 L 106.789,142.554 L 107.201,142.041 L 107.661,141.513 L 108.132,140.986 L 108.641,140.468 L 109.181,139.936 L 109.729,139.419 L 110.308,138.911 L 110.893,138.399 L 111.493,137.917 L 112.113,137.436 L 112.718,136.972 L 113.341,136.547 L 113.966,136.122 L 114.578,135.735 L 115.198,135.374 L 115.804,135.038 L 116.402,134.747 L 116.995,134.475 L 117.570,134.248 L 118.133,134.061 L 118.684,133.905 L 119.217,133.793 L 119.730,133.730 L 120.230,133.700 L 120.709,133.707 L 121.166,133.770 L 121.606,133.854 L 122.022,133.987 L 122.419,134.167 L 122.790,134.355 L 123.135,134.601 L 123.460,134.876 L 123.753,135.155 L 124.016,135.491 L 124.252,135.837 L 124.448,136.193 L 124.615,136.589 L 124.747,136.987 L 124.828,137.400 L 124.877,137.834 L 124.887,138.271 L 124.836,138.723 L 124.750,139.186 L 124.625,139.653 Z" fill="#2b0000" stroke="#000000" stroke-width="1.2" stroke-opacity="1" /></g><g id="path1439"><path d="M 101.913,141.793 L 101.035,142.005 L 100.164,142.225 L 99.300,142.450 L 98.441,142.680 L 97.586,142.914 L 96.736,143.151 L 95.889,143.392 L 95.045,143.635 L 94.205,143.881 L 93.369,144.130 L 92.536,144.381 L 91.707,144.635 L 90.882,144.892 L 90.061,145.152 L 89.244,145.415 L 88.432,145.681 L 87.625,145.951 L 86.824,146.225 L 86.030,146.503 L 85.244,146.786 L 84.467,147.074 L 83.703,147.370 L 82.955,147.673 L 82.229,147.988 L 81.535,148.314 L 80.852,148.639 L 80.171,148.966 L 79.496,149.295 L 78.831,149.626 L 78.179,149.961 L 77.545,150.300 L 76.933,150.644 L 76.348,150.992 L 75.798,151.345 L 75.290,151.701 L 74.833,152.060 L 74.461,152.414 L 74.323,152.773 L 74.387,153.156 L 74.296,153.609 L 73.993,154.086 L 73.376,154.445 L 72.711,154.771 L 72.054,155.095 L 71.409,155.418 L 70.783,155.739 L 70.187,156.056 L 69.655,156.356 L 69.366,156.666 L 69.299,157.102 L 69.393,157.644 L 69.842,158.201 L 70.593,158.642 L 71.467,158.952 L 72.400,159.154 L 73.357,159.280 L 74.323,159.354 L 75.292,159.392 L 76.261,159.404 L 77.231,159.396 L 78.199,159.375 L 79.167,159.344 L 80.134,159.305 L 81.102,159.263 L 82.070,159.220 L 83.038,159.178 L 84.007,159.142 L 84.965,159.091 L 85.842,159.015 L 86.569,159.330 L 87.275,159.815 L 88.183,160.033 L 89.144,160.119 L 90.109,160.178 L 91.076,160.223 L 92.044,160.258 L 93.013,160.285 L 93.983,160.306 L 94.952,160.320 L 95.922,160.329 L 96.892,160.331 L 97.862,160.327 L 98.832,160.315 L 99.801,160.295 L 100.769,160.263 L 101.735,160.214 L 102.695,160.137 L 103.632,159.990 L 104.469,159.714 L 105.190,159.384 L 105.847,159.046 L 106.516,158.721 L 107.274,158.438 L 108.119,158.202 L 108.994,157.993 L 109.904,157.829 L 110.839,157.701 L 111.111,157.231 L 111.093,156.848 Z" fill="#2b0000" stroke="#000000" stroke-width="1.2" stroke-opacity="1" fill-opacity="0" /></g><g id="path2136"><path d="M 75.437,164.274 L 76.020,164.438 L 76.604,164.598 L 77.190,164.755 L 77.779,164.909 L 78.368,165.058 L 78.958,165.205 L 79.550,165.347 L 80.143,165.487 L 80.736,165.622 L 81.330,165.754 L 81.925,165.882 L 82.520,166.006 L 83.115,166.126 L 83.711,166.243 L 84.307,166.356 L 84.903,166.464 L 85.500,166.569 L 86.096,166.670 L 86.692,166.767 L 87.289,166.860 L 87.885,166.949 L 88.482,167.033 L 89.078,167.114 L 89.674,167.190 L 90.271,167.262 L 90.867,167.329 L 91.463,167.392 L 92.059,167.450 L 92.655,167.505 L 93.250,167.554 L 93.846,167.598 L 94.441,167.638 L 95.037,167.674 L 95.633,167.704 L 96.228,167.729 L 96.823,167.750 L 97.419,167.765 L 98.015,167.775 L 98.610,167.780 L 99.206,167.779 L 99.802,167.773 L 100.398,167.762 L 100.994,167.745 L 101.591,167.723 L 102.188,167.695 L 102.785,167.661 L 103.383,167.621 L 103.981,167.576 L 104.580,167.525 L 105.179,167.467 L 105.779,167.404 L 106.379,167.335 L 106.980,167.259 L 107.582,167.178 L 108.184,167.090 L 108.787,166.997 L 109.391,166.897 L 109.995,166.791 L 110.600,166.680 L 111.206,166.562 L 111.811,166.439 L 112.418,166.309 L 113.049,166.147 L 113.757,165.922 L 114.483,165.687 L 115.188,165.456 L 115.632,165.261 L 115.866,165.216 L 116.259,165.284 L 116.851,165.354 L 117.449,165.314 L 118.097,165.148 L 118.760,164.974 L 119.377,164.801 L 119.955,164.626 L 120.532,164.451 L 121.109,164.274 L 121.686,164.097 L 122.261,163.918 L 122.836,163.738 L 123.410,163.556 L 123.982,163.373 L 124.553,163.186 L 125.121,162.997 L 125.686,162.802 L 126.243,162.601 L 126.779,162.386 L 126.806,162.159 L 126.209,162.171 L 125.612,162.259 L 125.013,162.363 L 125.495,162.233 L 126.088,162.103 L 126.681,161.971 L 127.274,161.839 L 127.866,161.705 L 128.459,161.572 L 129.051,161.438 L 129.643,161.304 Z" fill="#2b0000" stroke="#000000" stroke-width="1.2" stroke-opacity="1" fill-opacity="0" /></g></svg>