<?xml version='1.0' encoding='utf-8'?>
<svg xmlns="http://www.w3.org/2000/svg" width="210" height="297" viewBox="0 0 210 297"><g id="path2717"><path d="M 182.512,113.960 L 181.547,114.265 L 180.567,114.518 L 179.575,114.721 L 178.575,114.879 L 177.570,114.996 L 176.560,115.078 L 175.549,115.128 L 174.537,115.151 L 173.525,115.155 L 172.512,115.143 L 171.500,115.122 L 170.488,115.097 L 169.476,115.071 L 168.464,115.051 L 167.451,115.043 L 166.439,115.052 L 165.427,115.083 L 164.416,115.142 L 163.408,115.235 L 162.405,115.371 L 161.410,115.557 L 160.426,115.794 L 159.457,116.089 L 158.509,116.443 L 157.589,116.865 L 156.703,117.354 L 155.873,117.929 L 155.434,118.827 L 155.279,119.825 L 155.111,120.823 L 154.636,121.704 L 153.850,122.336 L 153.501,123.263 L 153.525,124.271 L 153.631,125.278 L 153.610,126.289 L 153.378,127.273 L 153.105,128.248 L 152.732,129.186 L 152.390,128.423 L 152.227,127.428 L 151.597,126.981 L 151.062,127.831 L 150.795,128.803 L 150.682,129.809 L 150.623,130.820 L 150.598,131.832 L 150.600,132.844 L 150.623,133.856 L 150.669,134.868 L 150.742,135.877 L 150.855,136.883 L 151.060,137.872 L 151.461,138.800 L 152.006,139.652 L 152.657,140.426 L 153.384,141.129 L 154.167,141.771 L 154.991,142.359 L 155.844,142.904 L 156.720,143.412 L 157.612,143.891 L 158.517,144.344 L 159.432,144.778 L 160.353,145.197 L 161.279,145.608 L 162.204,146.018 L 163.125,146.439 L 164.030,146.892 L 164.903,147.405 L 165.730,147.988 L 166.500,148.645 L 167.206,149.370 L 167.860,150.143 L 168.491,150.935 L 169.140,151.711 L 169.842,152.440 L 170.612,153.097 L 171.445,153.672 L 172.326,154.170 L 173.247,154.590 L 174.200,154.932 L 175.175,155.204 L 176.165,155.411 L 177.165,155.569 L 178.171,155.684 L 179.181,155.759 L 180.192,155.804 L 181.205,155.823 L 182.217,155.821 L 183.229,155.802 L 184.241,155.769 L 185.253,155.727 L 186.264,155.678 L 187.275,155.628 L 188.286,155.579 L 189.298,155.536 L 190.310,155.505 L 191.322,155.492" fill="none" stroke="#000000" stroke-width="1.2" /></g><g id="path2147"><path d="M 23.231,141.301 L 24.047,141.412 L 24.863,141.513 L 25.681,141.609 L 26.499,141.703 L 27.316,141.798 L 28.134,141.897 L 28.950,142.006 L 29.764,142.126 L 30.576,142.262 L 31.384,142.417 L 32.188,142.594 L 32.989,142.782 L 33.790,142.975 L 34.588,143.173 L 35.386,143.378 L 36.182,143.588 L 36.976,143.806 L 37.767,144.031 L 38.557,144.264 L 39.344,144.506 L 40.127,144.757 L 40.908,145.018 L 41.685,145.289 L 42.459,145.571 L 43.228,145.865 L 43.992,146.170 L 44.752,146.488 L 45.505,146.819 L 46.253,147.163 L 46.994,147.521 L 47.136,148.252 L 47.362,148.934 L 48.162,149.124 L 48.978,149.235 L 49.795,149.334 L 50.607,149.464 L 51.401,149.677 L 52.096,150.081 L 52.343,150.844 L 52.306,151.666 L 52.202,152.482 L 52.066,153.294 L 51.909,154.102 L 51.738,154.907 L 51.556,155.710 L 51.365,156.511 L 51.167,157.310 L 50.962,158.107 L 50.752,158.903 L 50.536,159.697 L 50.315,160.490 L 50.088,161.281 L 49.854,162.070 L 49.589,162.848 L 49.170,163.556 L 48.669,164.208 L 48.134,164.833 L 47.578,165.441 L 47.009,166.035 L 46.429,166.619 L 45.841,167.195 L 45.245,167.763 L 44.643,168.324 L 44.034,168.878 L 43.419,169.425 L 42.797,169.964 L 42.166,170.494 L 41.524,171.009 L 40.859,171.492 L 40.104,171.814 L 39.300,171.988 L 38.486,172.113 L 37.672,172.232 L 36.863,172.382 L 36.079,172.628 L 35.408,173.099 L 34.862,173.715 L 34.352,174.361 L 33.783,174.954 L 33.078,175.373 L 32.282,175.575 L 31.461,175.621 L 30.639,175.566 L 29.823,175.459 L 29.011,175.328 L 28.198,175.199 L 27.381,175.094 L 26.560,175.042 L 25.738,175.075 L 24.934,175.246 L 24.188,175.590 L 23.562,176.123 L 23.083,176.790 L 22.782,177.555 L 22.615,178.361 L 22.514,179.178 L 22.416,179.995 L 22.257,180.802 L 21.972,181.574" fill="none" stroke="#000000" stroke-width="1.2" /></g><g id="path230"><path d="M 167.470,146.465 L 167.237,151.048 L 166.799,155.614 L 166.104,160.150 L 165.005,164.605 L 163.710,169.006 L 162.116,173.309 L 160.196,177.476 L 158.094,181.554 L 155.671,185.451 L 153.005,189.184 L 150.179,192.800 L 147.029,196.137 L 143.719,199.312 L 140.251,202.319 L 136.524,204.995 L 132.688,207.511 L 128.697,209.776 L 124.546,211.731 L 120.318,213.512 L 115.960,214.951 L 111.527,216.127 L 107.046,217.121 L 102.491,217.682 L 97.919,218.046 L 93.331,218.159 L 88.750,217.887 L 84.186,217.430 L 79.664,216.647 L 75.207,215.561 L 70.797,214.295 L 66.515,212.643 L 62.325,210.775 L 58.227,208.710 L 54.338,206.274 L 50.556,203.678 L 46.944,200.847 L 43.566,197.742 L 40.324,194.497 L 37.344,191.006 L 34.598,187.332 L 32.013,183.540 L 29.789,179.526 L 27.778,175.404 L 25.969,171.186 L 24.575,166.813 L 23.378,162.386 L 22.453,157.890 L 21.913,153.334 L 21.577,148.759 L 21.577,144.170 L 21.913,139.595 L 22.453,135.039 L 23.378,130.543 L 24.575,126.116 L 25.969,121.743 L 27.778,117.526 L 29.789,113.403 L 32.013,109.389 L 34.598,105.597 L 37.344,101.923 L 40.324,98.432 L 43.566,95.187 L 46.944,92.082 L 50.556,89.251 L 54.338,86.655 L 58.227,84.219 L 62.325,82.154 L 66.515,80.286 L 70.797,78.635 L 75.207,77.368 L 79.664,76.283 L 84.186,75.499 L 88.750,75.042 L 93.331,74.770 L 97.919,74.883 L 102.491,75.247 L 107.046,75.808 L 111.527,76.802 L 115.960,77.978 L 120.318,79.417 L 124.546,81.198 L 128.697,83.153 L 132.688,85.418 L 136.524,87.934 L 140.251,90.610 L 143.719,93.617 L 147.029,96.792 L 150.179,100.129 L 153.005,103.745 L 155.671,107.478 L 158.094,111.375 L 160.196,115.453 L 162.116,119.620 L 163.710,123.924 L 165.005,128.324 L 166.104,132.779 L 166.799,137.315 L 167.237,141.881 L 167.470,146.465" fill="#ffff00" stroke="#000000" stroke-width="1.2" /></g><g id="path393"><path d="M 129.233,142.791 L 129.181,144.090 L 129.101,145.388 L 128.944,146.679 L 128.731,147.962 L 128.470,149.236 L 128.123,150.490 L 127.744,151.734 L 127.274,152.947 L 126.757,154.140 L 126.183,155.307 L 125.527,156.429 L 124.832,157.528 L 124.053,158.570 L 123.217,159.566 L 122.337,160.524 L 121.367,161.390 L 120.352,162.202 L 119.293,162.958 L 118.158,163.594 L 116.986,164.155 L 115.779,164.639 L 114.527,164.993 L 113.251,165.239 L 111.960,165.392 L 110.660,165.432 L 109.364,165.328 L 108.080,165.128 L 106.813,164.836 L 105.585,164.407 L 104.395,163.884 L 103.241,163.286 L 102.143,162.588 L 101.107,161.803 L 100.113,160.965 L 99.188,160.050 L 98.331,159.072 L 97.515,158.060 L 96.787,156.982 L 96.111,155.871 L 95.485,154.731 L 94.951,153.545 L 94.451,152.345 L 94.033,151.113 L 93.671,149.864 L 93.357,148.602 L 93.129,147.321 L 92.931,146.036 L 92.826,144.740 L 92.760,143.441 L 92.760,142.140 L 92.826,140.842 L 92.931,139.545 L 93.129,138.260 L 93.357,136.979 L 93.671,135.717 L 94.033,134.468 L 94.451,133.237 L 94.951,132.036 L 95.485,130.850 L 96.111,129.710 L 96.787,128.599 L 97.515,127.521 L 98.331,126.509 L 99.188,125.532 L 100.113,124.616 L 101.107,123.778 L 102.143,122.994 L 103.241,122.295 L 104.395,121.697 L 105.585,121.174 L 106.813,120.745 L 108.080,120.453 L 109.364,120.254 L 110.660,120.149 L 111.960,120.189 L 113.251,120.342 L 114.527,120.588 L 115.779,120.943 L 116.986,121.426 L 118.158,121.987 L 119.293,122.623 L 120.352,123.379 L 121.367,124.191 L 122.337,125.057 L 123.217,126.015 L 124.053,127.011 L 124.832,128.053 L 125.527,129.152 L 126.183,130.274 L 126.757,131.441 L 127.274,132.634 L 127.744,133.847 L 128.123,135.091 L 128.470,136.345 L 128.731,137.619 L 128.944,138.902 L 129.101,140.193 L 129.181,141.491 L 129.233,142.791" fill="#ffffff" stroke="#000000" stroke-width="1.2" /></g><g id="path1267"><path d="M 126.359,144.713 L 126.329,145.311 L 126.274,145.906 L 126.185,146.498 L 126.045,147.080 L 125.881,147.656 L 125.676,148.218 L 125.432,148.764 L 125.165,149.300 L 124.853,149.811 L 124.512,150.303 L 124.151,150.780 L 123.744,151.219 L 123.318,151.639 L 122.869,152.035 L 122.389,152.392 L 121.893,152.727 L 121.375,153.026 L 120.836,153.288 L 120.287,153.526 L 119.720,153.717 L 119.143,153.875 L 118.559,154.008 L 117.965,154.082 L 117.369,154.131 L 116.771,154.146 L 116.173,154.110 L 115.578,154.048 L 114.989,153.944 L 114.408,153.799 L 113.835,153.629 L 113.277,153.410 L 112.734,153.160 L 112.201,152.887 L 111.698,152.562 L 111.210,152.216 L 110.742,151.843 L 110.308,151.431 L 109.891,151.002 L 109.507,150.543 L 109.156,150.058 L 108.826,149.559 L 108.539,149.033 L 108.284,148.493 L 108.051,147.941 L 107.875,147.369 L 107.723,146.790 L 107.604,146.203 L 107.536,145.609 L 107.494,145.012 L 107.494,144.413 L 107.536,143.817 L 107.604,143.222 L 107.723,142.635 L 107.875,142.057 L 108.051,141.485 L 108.284,140.933 L 108.539,140.392 L 108.826,139.866 L 109.156,139.367 L 109.507,138.883 L 109.891,138.424 L 110.308,137.994 L 110.742,137.583 L 111.210,137.209 L 111.698,136.864 L 112.201,136.539 L 112.734,136.266 L 113.277,136.016 L 113.835,135.797 L 114.408,135.627 L 114.989,135.481 L 115.578,135.377 L 116.173,135.315 L 116.771,135.279 L 117.369,135.294 L 117.965,135.343 L 118.559,135.418 L 119.143,135.551 L 119.720,135.709 L 120.287,135.899 L 120.836,136.138 L 121.375,136.399 L 121.893,136.699 L 122.389,137.034 L 122.869,137.390 L 123.318,137.786 L 123.744,138.207 L 124.151,138.646 L 124.512,139.123 L 124.853,139.615 L 125.165,140.126 L 125.432,140.661 L 125.676,141.207 L 125.881,141.770 L 126.045,142.345 L 126.185,142.927 L 126.274,143.519 L 126.329,144.115 L 126.359,144.713" fill="#2b0000" stroke="#000000" stroke-width="1.2" /></g><g id="path397"><path d="M 89.732,149.976 L 89.686,151.282 L 89.623,152.586 L 89.484,153.885 L 89.311,155.180 L 89.078,156.465 L 88.792,157.739 L 88.465,159.004 L 88.062,160.246 L 87.633,161.480 L 87.113,162.678 L 86.557,163.860 L 85.938,165.010 L 85.248,166.119 L 84.518,167.202 L 83.699,168.219 L 82.824,169.188 L 81.900,170.111 L 80.886,170.935 L 79.817,171.684 L 78.697,172.354 L 77.516,172.912 L 76.281,173.335 L 75.013,173.644 L 73.721,173.831 L 72.416,173.877 L 71.116,173.753 L 69.835,173.504 L 68.582,173.138 L 67.368,172.656 L 66.222,172.029 L 65.127,171.319 L 64.083,170.534 L 63.117,169.656 L 62.218,168.709 L 61.366,167.719 L 60.597,166.663 L 59.887,165.567 L 59.219,164.445 L 58.646,163.271 L 58.106,162.082 L 57.634,160.864 L 57.219,159.626 L 56.844,158.375 L 56.547,157.103 L 56.271,155.826 L 56.086,154.533 L 55.921,153.237 L 55.829,151.934 L 55.774,150.630 L 55.774,149.323 L 55.829,148.018 L 55.921,146.715 L 56.086,145.420 L 56.271,144.127 L 56.547,142.850 L 56.844,141.578 L 57.219,140.327 L 57.634,139.089 L 58.106,137.870 L 58.646,136.682 L 59.219,135.508 L 59.887,134.385 L 60.597,133.289 L 61.366,132.234 L 62.218,131.244 L 63.117,130.297 L 64.083,129.418 L 65.127,128.634 L 66.222,127.923 L 67.368,127.296 L 68.582,126.815 L 69.835,126.448 L 71.116,126.200 L 72.416,126.076 L 73.721,126.122 L 75.013,126.309 L 76.281,126.617 L 77.516,127.040 L 78.697,127.599 L 79.817,128.269 L 80.886,129.018 L 81.900,129.842 L 82.824,130.765 L 83.699,131.734 L 84.518,132.751 L 85.248,133.834 L 85.938,134.943 L 86.557,136.093 L 87.113,137.274 L 87.633,138.473 L 88.062,139.707 L 88.465,140.949 L 88.792,142.213 L 89.078,143.488 L 89.311,144.773 L 89.484,146.067 L 89.623,147.366 L 89.686,148.671 L 89.732,149.976" fill="#ffffff" stroke="#000000" stroke-width="1.2" /></g><g id="path1265"><path d="M 89.256,151.715 L 89.228,152.273 L 89.176,152.829 L 89.093,153.382 L 88.963,153.925 L 88.810,154.462 L 88.618,154.987 L 88.391,155.497 L 88.141,155.997 L 87.850,156.473 L 87.532,156.932 L 87.195,157.378 L 86.815,157.787 L 86.418,158.180 L 85.999,158.550 L 85.550,158.882 L 85.087,159.195 L 84.603,159.475 L 84.101,159.719 L 83.589,159.941 L 83.059,160.119 L 82.521,160.266 L 81.976,160.391 L 81.422,160.460 L 80.865,160.506 L 80.306,160.520 L 79.749,160.486 L 79.194,160.428 L 78.643,160.331 L 78.102,160.196 L 77.566,160.037 L 77.046,159.833 L 76.539,159.599 L 76.042,159.344 L 75.572,159.041 L 75.117,158.719 L 74.680,158.370 L 74.274,157.986 L 73.886,157.585 L 73.527,157.157 L 73.199,156.704 L 72.891,156.239 L 72.624,155.748 L 72.385,155.243 L 72.168,154.728 L 72.003,154.194 L 71.862,153.654 L 71.751,153.107 L 71.688,152.552 L 71.648,151.995 L 71.648,151.436 L 71.688,150.879 L 71.751,150.324 L 71.862,149.776 L 72.003,149.236 L 72.168,148.702 L 72.385,148.187 L 72.624,147.683 L 72.891,147.192 L 73.199,146.726 L 73.527,146.274 L 73.886,145.846 L 74.274,145.445 L 74.680,145.060 L 75.117,144.712 L 75.572,144.389 L 76.042,144.086 L 76.539,143.831 L 77.046,143.598 L 77.566,143.394 L 78.102,143.235 L 78.643,143.099 L 79.194,143.002 L 79.749,142.944 L 80.306,142.911 L 80.865,142.925 L 81.422,142.970 L 81.976,143.040 L 82.521,143.164 L 83.059,143.311 L 83.589,143.489 L 84.101,143.712 L 84.603,143.956 L 85.087,144.235 L 85.550,144.548 L 85.999,144.881 L 86.418,145.250 L 86.815,145.643 L 87.195,146.053 L 87.532,146.498 L 87.850,146.957 L 88.141,147.434 L 88.391,147.934 L 88.618,148.444 L 88.810,148.969 L 88.963,149.506 L 89.093,150.049 L 89.176,150.601 L 89.228,151.157 L 89.256,151.715" fill="#2b0000" stroke="#000000" stroke-width="1.2" /></g><g id="path1439"><path d="M 138.610,131.074 L 137.996,131.405 L 137.388,131.747 L 136.785,132.099 L 136.186,132.458 L 135.592,132.823 L 135.001,133.195 L 134.414,133.571 L 133.829,133.952 L 133.247,134.338 L 132.669,134.728 L 132.093,135.123 L 131.521,135.522 L 130.952,135.926 L 130.386,136.335 L 129.825,136.749 L 129.267,137.168 L 128.713,137.594 L 128.165,138.025 L 127.623,138.464 L 127.087,138.912 L 126.560,139.369 L 126.042,139.837 L 125.539,140.321 L 125.053,140.821 L 124.593,141.345 L 124.138,141.875 L 123.686,142.407 L 123.239,142.942 L 122.799,143.484 L 122.368,144.033 L 121.951,144.592 L 121.549,145.163 L 121.166,145.746 L 120.805,146.344 L 120.472,146.956 L 120.168,147.585 L 119.900,148.229 L 119.687,148.893 L 119.694,149.588 L 119.799,150.278 L 119.797,150.974 L 119.459,151.576 L 119.019,152.117 L 118.578,152.659 L 118.144,153.205 L 117.718,153.758 L 117.305,154.320 L 116.909,154.894 L 116.538,155.485 L 116.207,156.100 L 115.957,156.750 L 115.940,157.441 L 116.331,158.014 L 116.892,158.426 L 117.534,158.696 L 118.211,158.863 L 118.902,158.959 L 119.598,159.002 L 120.296,159.011 L 120.994,158.994 L 121.691,158.957 L 122.387,158.909 L 123.082,158.851 L 123.778,158.792 L 124.473,158.734 L 125.169,158.686 L 125.867,158.657 L 126.564,158.667 L 127.256,158.756 L 127.793,159.185 L 128.187,159.760 L 128.793,160.087 L 129.480,160.212 L 130.173,160.297 L 130.867,160.363 L 131.563,160.413 L 132.260,160.452 L 132.957,160.482 L 133.655,160.503 L 134.353,160.514 L 135.050,160.517 L 135.748,160.510 L 136.446,160.491 L 137.143,160.460 L 137.839,160.410 L 138.533,160.336 L 139.221,160.222 L 139.885,160.009 L 140.453,159.606 L 140.927,159.095 L 141.358,158.546 L 141.806,158.011 L 142.325,157.546 L 142.913,157.170 L 143.527,156.838 L 144.173,156.575 L 144.836,156.366 L 144.913,155.683 L 144.903,154.985" fill="none" stroke="#000000" stroke-width="1.2" /></g><g id="path2136"><path d="M 110.121,154.417 L 110.620,154.640 L 111.120,154.861 L 111.626,155.069 L 112.132,155.276 L 112.642,155.471 L 113.154,155.664 L 113.669,155.846 L 114.185,156.027 L 114.704,156.196 L 115.224,156.365 L 115.748,156.522 L 116.271,156.679 L 116.798,156.825 L 117.325,156.970 L 117.855,157.105 L 118.385,157.239 L 118.917,157.364 L 119.450,157.486 L 119.984,157.601 L 120.519,157.712 L 121.055,157.818 L 121.593,157.918 L 122.131,158.015 L 122.670,158.104 L 123.210,158.192 L 123.751,158.270 L 124.292,158.347 L 124.834,158.416 L 125.376,158.482 L 125.920,158.542 L 126.463,158.598 L 127.008,158.648 L 127.552,158.693 L 128.097,158.735 L 128.643,158.768 L 129.189,158.801 L 129.735,158.823 L 130.281,158.845 L 130.827,158.858 L 131.374,158.867 L 131.920,158.871 L 132.467,158.869 L 133.014,158.863 L 133.560,158.849 L 134.106,158.833 L 134.652,158.806 L 135.198,158.779 L 135.743,158.741 L 136.289,158.700 L 136.833,158.651 L 137.377,158.597 L 137.920,158.536 L 138.462,158.469 L 139.004,158.395 L 139.545,158.314 L 140.084,158.227 L 140.622,158.131 L 141.159,158.030 L 141.695,157.919 L 142.229,157.803 L 142.760,157.676 L 143.291,157.544 L 143.818,157.400 L 144.344,157.251 L 144.866,157.090 L 145.384,156.917 L 145.793,156.569 L 146.112,156.127 L 146.503,155.753 L 147.020,155.623 L 147.563,155.662 L 148.102,155.751 L 148.646,155.785 L 149.168,155.646 L 149.660,155.411 L 150.148,155.165 L 150.635,154.916 L 151.120,154.665 L 151.606,154.413 L 152.088,154.156 L 152.570,153.898 L 153.048,153.634 L 153.525,153.367 L 153.998,153.092 L 154.464,152.807 L 154.921,152.507 L 155.353,152.174 L 155.472,151.749 L 154.958,151.744 L 154.420,151.843 L 153.889,151.972 L 154.311,151.832 L 154.832,151.665 L 155.352,151.497 L 155.872,151.327 L 156.391,151.157 L 156.910,150.986 L 157.429,150.814 L 157.948,150.641" fill="none" stroke="#000000" stroke-width="1.2" /></g></svg>