<?xml version='1.0' encoding='utf-8'?>
<svg xmlns="http://www.w3.org/2000/svg" width="210" height="297" viewBox="0 0 210 297"><g id="path2717"><path d="M 182.464,47.310 L 181.502,47.613 L 180.526,47.865 L 179.538,48.068 L 178.542,48.226 L 177.540,48.343 L 176.535,48.425 L 175.528,48.477 L 174.519,48.500 L 173.511,48.504 L 172.502,48.493 L 171.494,48.473 L 170.486,48.447 L 169.478,48.422 L 168.469,48.402 L 167.461,48.393 L 166.452,48.401 L 165.444,48.431 L 164.437,48.487 L 163.433,48.577 L 162.433,48.710 L 161.441,48.891 L 160.460,49.123 L 159.494,49.412 L 158.547,49.760 L 157.628,50.174 L 156.741,50.654 L 155.907,51.220 L 155.426,52.088 L 155.243,53.075 L 155.077,54.070 L 154.631,54.968 L 153.877,55.624 L 153.479,56.533 L 153.471,57.535 L 153.570,58.538 L 153.560,59.546 L 153.349,60.529 L 153.081,61.502 L 152.719,62.442 L 152.334,61.742 L 152.151,60.760 L 151.433,60.508 L 150.954,61.385 L 150.720,62.363 L 150.618,63.366 L 150.567,64.373 L 150.547,65.382 L 150.553,66.390 L 150.580,67.398 L 150.631,68.406 L 150.710,69.411 L 150.839,70.410 L 151.078,71.386 L 151.503,72.298 L 152.064,73.135 L 152.726,73.895 L 153.460,74.585 L 154.246,75.216 L 155.072,75.795 L 155.925,76.332 L 156.800,76.834 L 157.690,77.307 L 158.593,77.757 L 159.505,78.187 L 160.424,78.603 L 161.346,79.013 L 162.267,79.422 L 163.183,79.845 L 164.081,80.304 L 164.945,80.822 L 165.763,81.411 L 166.523,82.073 L 167.222,82.800 L 167.871,83.572 L 168.501,84.360 L 169.153,85.129 L 169.858,85.849 L 170.630,86.497 L 171.464,87.064 L 172.345,87.554 L 173.265,87.967 L 174.216,88.303 L 175.188,88.570 L 176.176,88.774 L 177.172,88.928 L 178.174,89.041 L 179.180,89.114 L 180.188,89.159 L 181.196,89.177 L 182.205,89.174 L 183.213,89.154 L 184.221,89.121 L 185.229,89.079 L 186.236,89.031 L 187.243,88.980 L 188.250,88.931 L 189.258,88.889 L 190.266,88.858 L 191.275,88.846" fill="none" stroke="#000000" stroke-width="1.2" /></g><g id="path2147"><path d="M 23.250,193.870 L 24.064,193.981 L 24.879,194.082 L 25.694,194.177 L 26.510,194.271 L 27.325,194.365 L 28.140,194.465 L 28.954,194.573 L 29.766,194.693 L 30.576,194.828 L 31.382,194.982 L 32.184,195.158 L 32.984,195.345 L 33.782,195.538 L 34.579,195.735 L 35.374,195.938 L 36.168,196.148 L 36.960,196.365 L 37.749,196.589 L 38.537,196.821 L 39.322,197.062 L 40.104,197.312 L 40.883,197.572 L 41.658,197.842 L 42.430,198.122 L 43.197,198.414 L 43.960,198.718 L 44.717,199.034 L 45.469,199.363 L 46.216,199.706 L 46.955,200.062 L 47.157,200.823 L 47.469,201.525 L 48.269,201.705 L 49.083,201.814 L 49.898,201.916 L 50.707,202.053 L 51.492,202.284 L 52.146,202.735 L 52.359,203.520 L 52.314,204.339 L 52.206,205.153 L 52.067,205.962 L 51.909,206.767 L 51.738,207.570 L 51.555,208.371 L 51.364,209.169 L 51.165,209.966 L 50.960,210.761 L 50.750,211.554 L 50.534,212.346 L 50.313,213.137 L 50.086,213.926 L 49.850,214.712 L 49.572,215.483 L 49.146,216.184 L 48.643,216.833 L 48.107,217.455 L 47.552,218.060 L 46.983,218.652 L 46.404,219.234 L 45.817,219.807 L 45.222,220.373 L 44.621,220.932 L 44.014,221.485 L 43.399,222.029 L 42.778,222.567 L 42.149,223.094 L 41.508,223.606 L 40.839,224.080 L 40.081,224.393 L 39.278,224.565 L 38.467,224.689 L 37.654,224.809 L 36.848,224.962 L 36.070,225.218 L 35.404,225.696 L 34.861,226.312 L 34.350,226.954 L 33.776,227.540 L 33.068,227.951 L 32.271,228.147 L 31.452,228.189 L 30.633,228.133 L 29.819,228.025 L 29.008,227.895 L 28.197,227.767 L 27.383,227.664 L 26.563,227.613 L 25.743,227.648 L 24.941,227.821 L 24.198,228.168 L 23.575,228.702 L 23.099,229.371 L 22.799,230.135 L 22.633,230.939 L 22.533,231.754 L 22.434,232.569 L 22.276,233.374 L 21.992,234.144" fill="none" stroke="#000000" stroke-width="1.2" /></g><g id="path230"><path d="M 167.470,136.637 L 167.237,141.219 L 166.799,145.786 L 166.104,150.322 L 165.005,154.777 L 163.709,159.178 L 162.116,163.481 L 160.196,167.648 L 158.094,171.727 L 155.671,175.623 L 153.005,179.357 L 150.179,182.972 L 147.029,186.309 L 143.718,189.485 L 140.251,192.491 L 136.524,195.167 L 132.688,197.684 L 128.697,199.948 L 124.546,201.903 L 120.317,203.684 L 115.960,205.123 L 111.525,206.299 L 107.046,207.293 L 102.492,207.854 L 97.918,208.218 L 93.331,208.331 L 88.751,208.060 L 84.186,207.602 L 79.665,206.819 L 75.206,205.733 L 70.796,204.467 L 66.515,202.815 L 62.325,200.947 L 58.227,198.883 L 54.339,196.447 L 50.556,193.850 L 46.945,191.019 L 43.566,187.915 L 40.324,184.668 L 37.344,181.179 L 34.598,177.504 L 32.013,173.712 L 29.789,169.699 L 27.778,165.575 L 25.969,161.358 L 24.575,156.987 L 23.378,152.557 L 22.453,148.063 L 21.913,143.507 L 21.577,138.931 L 21.577,134.342 L 21.913,129.766 L 22.453,125.210 L 23.378,120.716 L 24.575,116.286 L 25.969,111.915 L 27.778,107.698 L 29.789,103.574 L 32.013,99.561 L 34.598,95.770 L 37.344,92.094 L 40.324,88.605 L 43.566,85.358 L 46.945,82.254 L 50.556,79.423 L 54.339,76.827 L 58.227,74.391 L 62.325,72.326 L 66.515,70.458 L 70.796,68.807 L 75.206,67.540 L 79.665,66.454 L 84.186,65.671 L 88.751,65.214 L 93.331,64.942 L 97.918,65.055 L 102.492,65.419 L 107.046,65.980 L 111.525,66.974 L 115.960,68.150 L 120.317,69.589 L 124.546,71.370 L 128.697,73.325 L 132.688,75.589 L 136.524,78.106 L 140.251,80.782 L 143.718,83.788 L 147.029,86.964 L 150.179,90.301 L 153.005,93.916 L 155.671,97.650 L 158.094,101.546 L 160.196,105.625 L 162.116,109.792 L 163.709,114.095 L 165.005,118.496 L 166.104,122.951 L 166.799,127.487 L 167.237,132.054 L 167.470,136.637" fill="#ffff00" stroke="#000000" stroke-width="1.2" /></g><g id="path393"><path d="M 129.233,115.223 L 129.181,116.522 L 129.101,117.820 L 128.944,119.111 L 128.731,120.394 L 128.470,121.668 L 128.123,122.921 L 127.745,124.165 L 127.274,125.378 L 126.758,126.571 L 126.183,127.738 L 125.527,128.861 L 124.832,129.960 L 124.054,131.002 L 123.217,131.997 L 122.338,132.955 L 121.368,133.821 L 120.352,134.634 L 119.294,135.389 L 118.160,136.025 L 116.987,136.587 L 115.780,137.071 L 114.529,137.425 L 113.252,137.672 L 111.960,137.824 L 110.661,137.865 L 109.364,137.760 L 108.079,137.560 L 106.812,137.268 L 105.585,136.839 L 104.394,136.316 L 103.239,135.718 L 102.142,135.019 L 101.106,134.235 L 100.112,133.396 L 99.188,132.481 L 98.330,131.504 L 97.514,130.491 L 96.786,129.413 L 96.111,128.302 L 95.485,127.162 L 94.950,125.977 L 94.451,124.776 L 94.033,123.545 L 93.670,122.296 L 93.357,121.034 L 93.129,119.753 L 92.931,118.468 L 92.826,117.172 L 92.760,115.873 L 92.760,114.573 L 92.826,113.274 L 92.931,111.978 L 93.129,110.693 L 93.357,109.412 L 93.670,108.150 L 94.033,106.901 L 94.451,105.670 L 94.950,104.469 L 95.485,103.284 L 96.111,102.144 L 96.786,101.033 L 97.514,99.955 L 98.330,98.942 L 99.188,97.965 L 100.112,97.050 L 101.106,96.211 L 102.142,95.427 L 103.239,94.728 L 104.394,94.130 L 105.585,93.606 L 106.812,93.178 L 108.079,92.886 L 109.364,92.686 L 110.661,92.581 L 111.960,92.622 L 113.252,92.774 L 114.529,93.021 L 115.780,93.375 L 116.987,93.859 L 118.160,94.421 L 119.294,95.056 L 120.352,95.812 L 121.368,96.625 L 122.338,97.491 L 123.217,98.449 L 124.054,99.444 L 124.832,100.486 L 125.527,101.585 L 126.183,102.708 L 126.758,103.875 L 127.274,105.068 L 127.745,106.281 L 128.123,107.525 L 128.470,108.778 L 128.731,110.052 L 128.944,111.335 L 129.101,112.626 L 129.181,113.924 L 129.233,115.223" fill="#ffffff" stroke="#000000" stroke-width="1.2" /></g><g id="path1267"><path d="M 126.359,126.426 L 126.329,127.024 L 126.274,127.620 L 126.185,128.212 L 126.045,128.794 L 125.881,129.369 L 125.676,129.932 L 125.432,130.478 L 125.165,131.014 L 124.853,131.524 L 124.512,132.016 L 124.151,132.493 L 123.744,132.932 L 123.318,133.353 L 122.870,133.749 L 122.389,134.105 L 121.893,134.441 L 121.375,134.740 L 120.836,135.002 L 120.287,135.240 L 119.720,135.431 L 119.143,135.588 L 118.559,135.722 L 117.966,135.796 L 117.369,135.845 L 116.771,135.860 L 116.173,135.824 L 115.578,135.762 L 114.989,135.658 L 114.408,135.513 L 113.835,135.342 L 113.277,135.124 L 112.734,134.874 L 112.201,134.601 L 111.698,134.276 L 111.210,133.930 L 110.742,133.557 L 110.308,133.145 L 109.891,132.715 L 109.507,132.257 L 109.156,131.772 L 108.826,131.273 L 108.539,130.747 L 108.284,130.206 L 108.051,129.655 L 107.875,129.083 L 107.723,128.504 L 107.604,127.917 L 107.536,127.323 L 107.494,126.726 L 107.494,126.127 L 107.536,125.530 L 107.604,124.936 L 107.723,124.349 L 107.875,123.770 L 108.051,123.198 L 108.284,122.647 L 108.539,122.106 L 108.826,121.580 L 109.156,121.081 L 109.507,120.596 L 109.891,120.138 L 110.308,119.708 L 110.742,119.296 L 111.210,118.923 L 111.698,118.577 L 112.201,118.252 L 112.734,117.979 L 113.277,117.729 L 113.835,117.511 L 114.408,117.340 L 114.989,117.195 L 115.578,117.091 L 116.173,117.029 L 116.771,116.993 L 117.369,117.008 L 117.966,117.057 L 118.559,117.131 L 119.143,117.264 L 119.720,117.422 L 120.287,117.613 L 120.836,117.851 L 121.375,118.113 L 121.893,118.412 L 122.389,118.748 L 122.870,119.104 L 123.318,119.500 L 123.744,119.921 L 124.151,120.359 L 124.512,120.837 L 124.853,121.329 L 125.165,121.839 L 125.432,122.375 L 125.676,122.921 L 125.881,123.484 L 126.045,124.059 L 126.185,124.641 L 126.274,125.233 L 126.329,125.829 L 126.359,126.426" fill="#2b0000" stroke="#000000" stroke-width="1.2" /></g><g id="path397"><path d="M 89.732,157.105 L 89.686,158.410 L 89.623,159.714 L 89.484,161.013 L 89.311,162.307 L 89.079,163.593 L 88.793,164.867 L 88.466,166.131 L 88.063,167.373 L 87.634,168.607 L 87.114,169.805 L 86.558,170.987 L 85.939,172.137 L 85.249,173.245 L 84.519,174.328 L 83.701,175.346 L 82.826,176.315 L 81.902,177.238 L 80.888,178.062 L 79.819,178.811 L 78.698,179.482 L 77.518,180.040 L 76.282,180.463 L 75.013,180.773 L 73.721,180.959 L 72.416,181.005 L 71.116,180.882 L 69.834,180.633 L 68.580,180.265 L 67.366,179.784 L 66.221,179.157 L 65.126,178.446 L 64.082,177.661 L 63.115,176.783 L 62.216,175.836 L 61.364,174.846 L 60.596,173.790 L 59.886,172.694 L 59.218,171.572 L 58.645,170.398 L 58.105,169.209 L 57.634,167.991 L 57.218,166.753 L 56.844,165.502 L 56.547,164.230 L 56.271,162.954 L 56.085,161.661 L 55.921,160.365 L 55.829,159.063 L 55.774,157.758 L 55.774,156.452 L 55.829,155.147 L 55.921,153.844 L 56.085,152.549 L 56.271,151.256 L 56.547,149.980 L 56.844,148.708 L 57.218,147.457 L 57.634,146.219 L 58.105,145.001 L 58.645,143.812 L 59.218,142.638 L 59.886,141.516 L 60.596,140.420 L 61.364,139.364 L 62.216,138.374 L 63.115,137.427 L 64.082,136.548 L 65.126,135.764 L 66.221,135.053 L 67.366,134.426 L 68.580,133.944 L 69.834,133.577 L 71.116,133.328 L 72.416,133.205 L 73.721,133.250 L 75.013,133.437 L 76.282,133.746 L 77.518,134.170 L 78.698,134.728 L 79.819,135.399 L 80.888,136.148 L 81.902,136.972 L 82.826,137.895 L 83.701,138.864 L 84.519,139.882 L 85.249,140.965 L 85.939,142.073 L 86.558,143.223 L 87.114,144.405 L 87.634,145.603 L 88.063,146.837 L 88.466,148.079 L 88.793,149.343 L 89.079,150.617 L 89.311,151.902 L 89.484,153.197 L 89.623,154.495 L 89.686,155.800 L 89.732,157.105" fill="#ffffff" stroke="#000000" stroke-width="1.2" /></g><g id="path1265"><path d="M 89.256,167.240 L 89.228,167.798 L 89.176,168.354 L 89.093,168.906 L 88.963,169.449 L 88.810,169.987 L 88.618,170.511 L 88.391,171.021 L 88.141,171.521 L 87.850,171.998 L 87.532,172.457 L 87.195,172.902 L 86.815,173.312 L 86.418,173.705 L 85.999,174.074 L 85.550,174.407 L 85.087,174.720 L 84.604,174.999 L 84.101,175.243 L 83.589,175.466 L 83.059,175.644 L 82.521,175.791 L 81.976,175.915 L 81.422,175.985 L 80.865,176.030 L 80.307,176.044 L 79.749,176.011 L 79.193,175.953 L 78.643,175.856 L 78.102,175.720 L 77.566,175.561 L 77.046,175.357 L 76.539,175.124 L 76.042,174.869 L 75.572,174.566 L 75.116,174.243 L 74.680,173.895 L 74.274,173.510 L 73.886,173.109 L 73.527,172.681 L 73.199,172.229 L 72.891,171.763 L 72.624,171.272 L 72.385,170.767 L 72.168,170.253 L 72.004,169.719 L 71.862,169.179 L 71.751,168.631 L 71.688,168.076 L 71.648,167.519 L 71.648,166.960 L 71.688,166.403 L 71.751,165.848 L 71.862,165.301 L 72.004,164.761 L 72.168,164.227 L 72.385,163.712 L 72.624,163.207 L 72.891,162.717 L 73.199,162.251 L 73.527,161.798 L 73.886,161.370 L 74.274,160.969 L 74.680,160.585 L 75.116,160.237 L 75.572,159.914 L 76.042,159.611 L 76.539,159.356 L 77.046,159.122 L 77.566,158.918 L 78.102,158.759 L 78.643,158.624 L 79.193,158.527 L 79.749,158.469 L 80.307,158.435 L 80.865,158.449 L 81.422,158.495 L 81.976,158.564 L 82.521,158.689 L 83.059,158.836 L 83.589,159.014 L 84.101,159.236 L 84.604,159.480 L 85.087,159.760 L 85.550,160.073 L 85.999,160.405 L 86.418,160.775 L 86.815,161.168 L 87.195,161.577 L 87.532,162.022 L 87.850,162.482 L 88.141,162.958 L 88.391,163.458 L 88.618,163.968 L 88.810,164.493 L 88.963,165.030 L 89.093,165.573 L 89.176,166.126 L 89.228,166.682 L 89.256,167.240" fill="#2b0000" stroke="#000000" stroke-width="1.2" /></g><g id="path1439"><path d="M 138.610,140.491 L 137.996,140.821 L 137.388,141.163 L 136.786,141.514 L 136.188,141.873 L 135.594,142.238 L 135.004,142.609 L 134.417,142.985 L 133.833,143.366 L 133.251,143.751 L 132.673,144.141 L 132.098,144.535 L 131.527,144.934 L 130.958,145.338 L 130.393,145.747 L 129.832,146.160 L 129.274,146.579 L 128.721,147.004 L 128.173,147.435 L 127.631,147.873 L 127.096,148.321 L 126.569,148.777 L 126.052,149.244 L 125.549,149.728 L 125.063,150.227 L 124.602,150.750 L 124.148,151.280 L 123.696,151.811 L 123.249,152.346 L 122.809,152.887 L 122.379,153.435 L 121.961,153.994 L 121.559,154.563 L 121.176,155.146 L 120.815,155.742 L 120.481,156.354 L 120.177,156.982 L 119.908,157.625 L 119.693,158.288 L 119.693,158.984 L 119.795,159.673 L 119.797,160.370 L 119.466,160.980 L 119.028,161.522 L 118.588,162.063 L 118.153,162.608 L 117.728,163.161 L 117.315,163.722 L 116.918,164.296 L 116.547,164.886 L 116.216,165.500 L 115.963,166.149 L 115.940,166.845 L 116.325,167.422 L 116.884,167.837 L 117.525,168.110 L 118.202,168.278 L 118.892,168.374 L 119.588,168.419 L 120.285,168.427 L 120.982,168.411 L 121.678,168.375 L 122.374,168.326 L 123.069,168.269 L 123.764,168.209 L 124.458,168.152 L 125.154,168.104 L 125.851,168.074 L 126.548,168.083 L 127.239,168.171 L 127.787,168.597 L 128.183,169.171 L 128.794,169.504 L 129.480,169.629 L 130.172,169.714 L 130.866,169.779 L 131.562,169.829 L 132.258,169.869 L 132.954,169.899 L 133.651,169.919 L 134.348,169.931 L 135.046,169.934 L 135.743,169.927 L 136.440,169.908 L 137.136,169.877 L 137.832,169.827 L 138.525,169.754 L 139.213,169.640 L 139.877,169.428 L 140.447,169.027 L 140.922,168.517 L 141.353,167.969 L 141.800,167.434 L 142.318,166.968 L 142.905,166.591 L 143.518,166.259 L 144.164,165.996 L 144.828,165.785 L 144.912,165.099 L 144.902,164.402" fill="none" stroke="#000000" stroke-width="1.2" /></g><g id="path2136"><path d="M 110.190,192.048 L 110.688,192.270 L 111.185,192.490 L 111.689,192.698 L 112.193,192.903 L 112.701,193.098 L 113.211,193.290 L 113.724,193.472 L 114.238,193.652 L 114.755,193.821 L 115.273,193.989 L 115.795,194.146 L 116.316,194.303 L 116.841,194.448 L 117.366,194.593 L 117.893,194.728 L 118.421,194.861 L 118.951,194.986 L 119.481,195.108 L 120.013,195.224 L 120.546,195.335 L 121.080,195.441 L 121.616,195.541 L 122.151,195.637 L 122.689,195.727 L 123.226,195.814 L 123.765,195.893 L 124.304,195.970 L 124.844,196.040 L 125.384,196.106 L 125.925,196.166 L 126.467,196.222 L 127.009,196.273 L 127.551,196.318 L 128.094,196.360 L 128.638,196.395 L 129.181,196.428 L 129.725,196.451 L 130.269,196.473 L 130.813,196.487 L 131.358,196.497 L 131.902,196.502 L 132.447,196.501 L 132.991,196.495 L 133.535,196.483 L 134.079,196.467 L 134.623,196.443 L 135.167,196.416 L 135.710,196.380 L 136.253,196.340 L 136.796,196.292 L 137.338,196.240 L 137.879,196.180 L 138.419,196.115 L 138.959,196.043 L 139.498,195.963 L 140.035,195.878 L 140.572,195.785 L 141.107,195.685 L 141.641,195.577 L 142.173,195.462 L 142.703,195.339 L 143.232,195.208 L 143.758,195.068 L 144.282,194.921 L 144.803,194.764 L 145.321,194.594 L 145.761,194.293 L 146.104,193.875 L 146.475,193.480 L 146.963,193.284 L 147.502,193.282 L 148.040,193.359 L 148.582,193.408 L 149.111,193.314 L 149.610,193.103 L 150.097,192.859 L 150.583,192.612 L 151.066,192.363 L 151.550,192.112 L 152.031,191.858 L 152.511,191.601 L 152.989,191.339 L 153.464,191.074 L 153.936,190.802 L 154.402,190.521 L 154.860,190.227 L 155.299,189.905 L 155.526,189.450 L 155.090,189.375 L 154.554,189.463 L 154.024,189.588 L 154.402,189.458 L 154.920,189.292 L 155.438,189.124 L 155.956,188.955 L 156.473,188.785 L 156.990,188.615 L 157.507,188.443 L 158.024,188.272" fill="none" stroke="#000000" stroke-width="1.2" /></g></svg>