<?xml version='1.0' encoding='utf-8'?>
<svg xmlns="http://www.w3.org/2000/svg" width="210" height="297" viewBox="0 0 210 297"><g id="path2717"><path d="M 188.774,203.656 L 187.814,203.960 L 186.839,204.211 L 185.852,204.414 L 184.858,204.571 L 183.858,204.689 L 182.854,204.771 L 181.848,204.823 L 180.842,204.846 L 179.835,204.851 L 178.828,204.840 L 177.821,204.820 L 176.814,204.794 L 175.808,204.769 L 174.801,204.749 L 173.794,204.740 L 172.787,204.747 L 171.781,204.776 L 170.775,204.832 L 169.772,204.921 L 168.774,205.052 L 167.783,205.231 L 166.803,205.462 L 165.838,205.748 L 164.892,206.093 L 163.973,206.504 L 163.086,206.981 L 162.251,207.542 L 161.753,208.400 L 161.559,209.383 L 161.393,210.376 L 160.959,211.278 L 160.217,211.945 L 159.803,212.846 L 159.780,213.845 L 159.875,214.847 L 159.870,215.853 L 159.667,216.837 L 159.401,217.808 L 159.043,218.749 L 158.641,218.078 L 158.450,217.102 L 157.701,216.926 L 157.243,217.813 L 157.020,218.792 L 156.923,219.794 L 156.874,220.800 L 156.856,221.807 L 156.863,222.814 L 156.893,223.820 L 156.945,224.826 L 157.028,225.829 L 157.164,226.826 L 157.416,227.797 L 157.850,228.703 L 158.417,229.533 L 159.083,230.288 L 159.819,230.974 L 160.607,231.600 L 161.433,232.176 L 162.286,232.710 L 163.161,233.210 L 164.051,233.681 L 164.953,234.128 L 165.864,234.557 L 166.781,234.972 L 167.701,235.381 L 168.621,235.791 L 169.535,236.215 L 170.430,236.675 L 171.291,237.196 L 172.105,237.787 L 172.862,238.451 L 173.557,239.179 L 174.204,239.950 L 174.834,240.736 L 175.487,241.503 L 176.194,242.219 L 176.967,242.864 L 177.801,243.427 L 178.682,243.914 L 179.601,244.325 L 180.551,244.658 L 181.522,244.923 L 182.509,245.126 L 183.504,245.279 L 184.505,245.390 L 185.509,245.463 L 186.515,245.507 L 187.522,245.525 L 188.529,245.522 L 189.536,245.502 L 190.542,245.469 L 191.548,245.427 L 192.554,245.378 L 193.560,245.328 L 194.565,245.279 L 195.572,245.237 L 196.578,245.206 L 197.585,245.194" fill="none" stroke="#000000" stroke-width="1.2" /></g><g id="path2147"><path d="M 36.891,57.258 L 37.704,57.368 L 38.519,57.469 L 39.334,57.564 L 40.149,57.658 L 40.964,57.752 L 41.778,57.852 L 42.592,57.960 L 43.403,58.079 L 44.213,58.215 L 45.019,58.369 L 45.820,58.544 L 46.619,58.731 L 47.417,58.924 L 48.213,59.121 L 49.008,59.324 L 49.801,59.534 L 50.593,59.750 L 51.382,59.974 L 52.169,60.206 L 52.954,60.447 L 53.735,60.696 L 54.514,60.956 L 55.288,61.225 L 56.060,61.506 L 56.827,61.797 L 57.589,62.101 L 58.346,62.416 L 59.098,62.745 L 59.844,63.087 L 60.583,63.443 L 60.798,64.207 L 61.125,64.915 L 61.926,65.095 L 62.739,65.203 L 63.553,65.306 L 64.361,65.445 L 65.145,65.679 L 65.793,66.144 L 65.999,66.932 L 65.952,67.751 L 65.843,68.564 L 65.704,69.372 L 65.546,70.177 L 65.374,70.980 L 65.191,71.780 L 65.000,72.578 L 64.801,73.374 L 64.597,74.168 L 64.386,74.961 L 64.170,75.753 L 63.949,76.543 L 63.722,77.332 L 63.486,78.117 L 63.204,78.886 L 62.777,79.586 L 62.273,80.234 L 61.737,80.855 L 61.182,81.459 L 60.613,82.050 L 60.035,82.632 L 59.448,83.205 L 58.853,83.771 L 58.252,84.329 L 57.645,84.881 L 57.031,85.426 L 56.410,85.962 L 55.781,86.489 L 55.140,87.000 L 54.469,87.472 L 53.711,87.783 L 52.909,87.954 L 52.098,88.079 L 51.286,88.199 L 50.481,88.353 L 49.704,88.612 L 49.039,89.091 L 48.497,89.706 L 47.985,90.348 L 47.410,90.932 L 46.701,91.341 L 45.904,91.536 L 45.085,91.577 L 44.267,91.519 L 43.453,91.412 L 42.643,91.282 L 41.833,91.154 L 41.019,91.051 L 40.200,91.001 L 39.380,91.037 L 38.579,91.211 L 37.836,91.558 L 37.214,92.093 L 36.739,92.761 L 36.440,93.525 L 36.274,94.329 L 36.174,95.143 L 36.075,95.958 L 35.917,96.763 L 35.633,97.532" fill="none" stroke="#000000" stroke-width="1.2" /></g><g id="path230"><path d="M 187.089,146.490 L 186.857,151.073 L 186.419,155.640 L 185.723,160.175 L 184.625,164.630 L 183.329,169.032 L 181.735,173.335 L 179.815,177.502 L 177.713,181.580 L 175.291,185.477 L 172.624,189.211 L 169.799,192.826 L 166.649,196.162 L 163.337,199.338 L 159.871,202.345 L 156.144,205.021 L 152.307,207.538 L 148.317,209.802 L 144.166,211.757 L 139.937,213.538 L 135.580,214.977 L 131.145,216.153 L 126.666,217.147 L 122.112,217.708 L 117.538,218.072 L 112.951,218.185 L 108.371,217.913 L 103.805,217.456 L 99.284,216.672 L 94.826,215.587 L 90.416,214.320 L 86.135,212.669 L 81.944,210.801 L 77.847,208.736 L 73.959,206.300 L 70.176,203.703 L 66.564,200.873 L 63.186,197.768 L 59.943,194.522 L 56.964,191.033 L 54.217,187.357 L 51.633,183.566 L 49.409,179.553 L 47.397,175.429 L 45.589,171.212 L 44.195,166.840 L 42.997,162.411 L 42.073,157.917 L 41.533,153.360 L 41.197,148.784 L 41.197,144.196 L 41.533,139.620 L 42.073,135.064 L 42.997,130.569 L 44.195,126.140 L 45.589,121.769 L 47.397,117.552 L 49.409,113.428 L 51.633,109.414 L 54.217,105.623 L 56.964,101.948 L 59.943,98.458 L 63.186,95.212 L 66.564,92.107 L 70.176,89.277 L 73.959,86.680 L 77.847,84.244 L 81.944,82.180 L 86.135,80.311 L 90.416,78.660 L 94.826,77.393 L 99.284,76.308 L 103.805,75.525 L 108.371,75.067 L 112.951,74.796 L 117.538,74.908 L 122.112,75.273 L 126.666,75.834 L 131.145,76.828 L 135.580,78.004 L 139.937,79.443 L 144.166,81.224 L 148.317,83.179 L 152.307,85.443 L 156.144,87.960 L 159.871,90.636 L 163.337,93.642 L 166.649,96.818 L 169.799,100.154 L 172.624,103.769 L 175.291,107.504 L 177.713,111.400 L 179.815,115.479 L 181.735,119.646 L 183.329,123.949 L 184.625,128.350 L 185.723,132.805 L 186.419,137.340 L 186.857,141.908 L 187.089,146.490" fill="#ffff00" stroke="#000000" stroke-width="1.2" /></g><g id="path393"><path d="M 150.633,166.645 L 150.580,167.945 L 150.500,169.243 L 150.344,170.534 L 150.131,171.816 L 149.870,173.090 L 149.522,174.344 L 149.144,175.588 L 148.674,176.800 L 148.157,177.994 L 147.583,179.160 L 146.927,180.283 L 146.232,181.382 L 145.453,182.424 L 144.617,183.420 L 143.737,184.378 L 142.767,185.244 L 141.752,186.056 L 140.694,186.812 L 139.559,187.448 L 138.386,188.009 L 137.179,188.493 L 135.928,188.848 L 134.651,189.094 L 133.360,189.247 L 132.060,189.287 L 130.764,189.182 L 129.479,188.983 L 128.212,188.691 L 126.984,188.262 L 125.793,187.739 L 124.639,187.140 L 123.542,186.442 L 122.505,185.657 L 121.511,184.818 L 120.587,183.903 L 119.729,182.926 L 118.914,181.913 L 118.185,180.836 L 117.510,179.725 L 116.884,178.585 L 116.350,177.399 L 115.850,176.198 L 115.432,174.967 L 115.070,173.718 L 114.756,172.456 L 114.529,171.176 L 114.330,169.891 L 114.226,168.594 L 114.159,167.296 L 114.159,165.995 L 114.226,164.696 L 114.330,163.400 L 114.529,162.115 L 114.756,160.835 L 115.070,159.573 L 115.432,158.324 L 115.850,157.092 L 116.350,155.892 L 116.884,154.706 L 117.510,153.566 L 118.185,152.455 L 118.914,151.377 L 119.729,150.365 L 120.587,149.387 L 121.511,148.472 L 122.505,147.634 L 123.542,146.849 L 124.639,146.151 L 125.793,145.552 L 126.984,145.029 L 128.212,144.600 L 129.479,144.308 L 130.764,144.108 L 132.060,144.004 L 133.360,144.044 L 134.651,144.197 L 135.928,144.443 L 137.179,144.798 L 138.386,145.281 L 139.559,145.843 L 140.694,146.479 L 141.752,147.235 L 142.767,148.047 L 143.737,148.913 L 144.617,149.871 L 145.453,150.867 L 146.232,151.908 L 146.927,153.008 L 147.583,154.130 L 148.157,155.297 L 148.674,156.490 L 149.144,157.703 L 149.522,158.947 L 149.870,160.200 L 150.131,161.474 L 150.344,162.757 L 150.500,164.048 L 150.580,165.346 L 150.633,166.645" fill="#ffffff" stroke="#000000" stroke-width="1.2" /></g><g id="path1267"><path d="M 132.630,166.139 L 132.601,166.737 L 132.545,167.333 L 132.456,167.924 L 132.317,168.506 L 132.153,169.082 L 131.948,169.644 L 131.704,170.191 L 131.436,170.726 L 131.124,171.237 L 130.784,171.729 L 130.422,172.206 L 130.015,172.645 L 129.590,173.065 L 129.141,173.461 L 128.660,173.818 L 128.164,174.153 L 127.646,174.452 L 127.108,174.714 L 126.559,174.952 L 125.992,175.143 L 125.414,175.301 L 124.831,175.434 L 124.237,175.508 L 123.641,175.557 L 123.042,175.572 L 122.445,175.536 L 121.850,175.474 L 121.260,175.371 L 120.680,175.225 L 120.106,175.055 L 119.549,174.836 L 119.005,174.586 L 118.473,174.313 L 117.970,173.988 L 117.481,173.642 L 117.014,173.269 L 116.579,172.857 L 116.163,172.428 L 115.778,171.969 L 115.427,171.484 L 115.097,170.985 L 114.811,170.460 L 114.555,169.919 L 114.323,169.367 L 114.146,168.795 L 113.994,168.216 L 113.876,167.630 L 113.808,167.035 L 113.765,166.438 L 113.765,165.840 L 113.808,165.243 L 113.876,164.648 L 113.994,164.061 L 114.146,163.483 L 114.323,162.911 L 114.555,162.359 L 114.811,161.818 L 115.097,161.293 L 115.427,160.793 L 115.778,160.309 L 116.163,159.850 L 116.579,159.420 L 117.014,159.009 L 117.481,158.635 L 117.970,158.290 L 118.473,157.965 L 119.005,157.692 L 119.549,157.442 L 120.106,157.223 L 120.680,157.053 L 121.260,156.907 L 121.850,156.803 L 122.445,156.742 L 123.042,156.705 L 123.641,156.720 L 124.237,156.769 L 124.831,156.844 L 125.414,156.977 L 125.992,157.135 L 126.559,157.325 L 127.108,157.564 L 127.646,157.825 L 128.164,158.125 L 128.660,158.460 L 129.141,158.816 L 129.590,159.212 L 130.015,159.633 L 130.422,160.072 L 130.784,160.549 L 131.124,161.041 L 131.436,161.552 L 131.704,162.087 L 131.948,162.634 L 132.153,163.196 L 132.317,163.771 L 132.456,164.353 L 132.545,164.945 L 132.601,165.541 L 132.630,166.139" fill="#2b0000" stroke="#000000" stroke-width="1.2" /></g><g id="path397"><path d="M 114.691,122.246 L 114.645,123.552 L 114.582,124.856 L 114.443,126.155 L 114.270,127.449 L 114.038,128.734 L 113.752,130.008 L 113.425,131.273 L 113.021,132.515 L 112.593,133.748 L 112.073,134.946 L 111.517,136.128 L 110.898,137.278 L 110.208,138.387 L 109.478,139.470 L 108.660,140.487 L 107.784,141.457 L 106.861,142.380 L 105.847,143.203 L 104.778,143.953 L 103.657,144.623 L 102.477,145.182 L 101.241,145.605 L 99.972,145.914 L 98.680,146.101 L 97.375,146.147 L 96.075,146.023 L 94.793,145.774 L 93.539,145.407 L 92.325,144.926 L 91.180,144.299 L 90.085,143.587 L 89.040,142.803 L 88.074,141.924 L 87.175,140.977 L 86.323,139.987 L 85.555,138.932 L 84.845,137.835 L 84.177,136.713 L 83.604,135.539 L 83.064,134.351 L 82.593,133.133 L 82.177,131.895 L 81.802,130.643 L 81.506,129.372 L 81.230,128.095 L 81.044,126.803 L 80.880,125.507 L 80.788,124.204 L 80.733,122.899 L 80.733,121.594 L 80.788,120.289 L 80.880,118.986 L 81.044,117.690 L 81.230,116.398 L 81.506,115.121 L 81.802,113.849 L 82.177,112.598 L 82.593,111.360 L 83.064,110.142 L 83.604,108.954 L 84.177,107.780 L 84.845,106.658 L 85.555,105.561 L 86.323,104.506 L 87.175,103.516 L 88.074,102.569 L 89.040,101.690 L 90.085,100.906 L 91.180,100.194 L 92.325,99.567 L 93.539,99.086 L 94.793,98.719 L 96.075,98.470 L 97.375,98.346 L 98.680,98.392 L 99.972,98.579 L 101.241,98.888 L 102.477,99.311 L 103.657,99.870 L 104.778,100.540 L 105.847,101.290 L 106.861,102.113 L 107.784,103.036 L 108.660,104.006 L 109.478,105.023 L 110.208,106.106 L 110.898,107.215 L 111.517,108.365 L 112.073,109.546 L 112.593,110.744 L 113.021,111.978 L 113.425,113.220 L 113.752,114.485 L 114.038,115.759 L 114.270,117.044 L 114.443,118.338 L 114.582,119.637 L 114.645,120.941 L 114.691,122.246" fill="#ffffff" stroke="#000000" stroke-width="1.2" /></g><g id="path1265"><path d="M 98.197,123.438 L 98.169,123.996 L 98.117,124.552 L 98.034,125.104 L 97.904,125.648 L 97.751,126.185 L 97.560,126.710 L 97.332,127.220 L 97.082,127.719 L 96.791,128.196 L 96.473,128.655 L 96.136,129.100 L 95.756,129.510 L 95.359,129.903 L 94.940,130.272 L 94.491,130.605 L 94.028,130.918 L 93.545,131.197 L 93.042,131.441 L 92.530,131.664 L 92.000,131.842 L 91.462,131.989 L 90.917,132.113 L 90.363,132.183 L 89.806,132.229 L 89.248,132.242 L 88.690,132.209 L 88.135,132.151 L 87.585,132.054 L 87.043,131.918 L 86.507,131.759 L 85.987,131.555 L 85.480,131.322 L 84.983,131.067 L 84.513,130.764 L 84.058,130.441 L 83.621,130.093 L 83.216,129.709 L 82.827,129.307 L 82.468,128.879 L 82.140,128.427 L 81.832,127.961 L 81.565,127.471 L 81.326,126.966 L 81.109,126.451 L 80.945,125.917 L 80.803,125.377 L 80.692,124.829 L 80.629,124.274 L 80.589,123.717 L 80.589,123.159 L 80.629,122.601 L 80.692,122.046 L 80.803,121.499 L 80.945,120.959 L 81.109,120.425 L 81.326,119.910 L 81.565,119.405 L 81.832,118.915 L 82.140,118.449 L 82.468,117.996 L 82.827,117.568 L 83.216,117.167 L 83.621,116.783 L 84.058,116.435 L 84.513,116.112 L 84.983,115.809 L 85.480,115.554 L 85.987,115.321 L 86.507,115.117 L 87.043,114.958 L 87.585,114.822 L 88.135,114.725 L 88.690,114.667 L 89.248,114.633 L 89.806,114.647 L 90.363,114.693 L 90.917,114.762 L 91.462,114.887 L 92.000,115.034 L 92.530,115.212 L 93.042,115.434 L 93.545,115.679 L 94.028,115.958 L 94.491,116.271 L 94.940,116.603 L 95.359,116.973 L 95.756,117.366 L 96.136,117.775 L 96.473,118.221 L 96.791,118.680 L 97.082,119.157 L 97.332,119.656 L 97.560,120.166 L 97.751,120.691 L 97.904,121.228 L 98.034,121.771 L 98.117,122.324 L 98.169,122.880 L 98.197,123.438" fill="#2b0000" stroke="#000000" stroke-width="1.2" /></g><g id="path1439"><path d="M 105.906,140.895 L 105.292,141.225 L 104.685,141.567 L 104.083,141.919 L 103.485,142.278 L 102.891,142.643 L 102.301,143.014 L 101.713,143.390 L 101.129,143.770 L 100.548,144.155 L 99.970,144.545 L 99.395,144.939 L 98.824,145.338 L 98.255,145.742 L 97.690,146.151 L 97.129,146.564 L 96.572,146.983 L 96.019,147.407 L 95.471,147.838 L 94.929,148.277 L 94.394,148.724 L 93.867,149.181 L 93.350,149.648 L 92.847,150.131 L 92.361,150.631 L 91.900,151.154 L 91.446,151.683 L 90.994,152.214 L 90.547,152.749 L 90.107,153.290 L 89.677,153.838 L 89.259,154.396 L 88.857,154.966 L 88.474,155.548 L 88.113,156.145 L 87.779,156.756 L 87.474,157.383 L 87.206,158.027 L 86.990,158.690 L 86.990,159.386 L 87.091,160.075 L 87.093,160.772 L 86.763,161.383 L 86.325,161.926 L 85.885,162.466 L 85.451,163.012 L 85.025,163.564 L 84.612,164.126 L 84.216,164.699 L 83.844,165.289 L 83.513,165.902 L 83.260,166.552 L 83.236,167.248 L 83.620,167.826 L 84.179,168.242 L 84.821,168.514 L 85.497,168.682 L 86.188,168.779 L 86.884,168.823 L 87.581,168.832 L 88.278,168.816 L 88.974,168.779 L 89.669,168.731 L 90.364,168.674 L 91.059,168.614 L 91.753,168.557 L 92.449,168.509 L 93.145,168.479 L 93.843,168.488 L 94.534,168.575 L 95.083,169.002 L 95.479,169.575 L 96.090,169.909 L 96.776,170.034 L 97.468,170.119 L 98.162,170.184 L 98.857,170.234 L 99.553,170.274 L 100.250,170.303 L 100.947,170.324 L 101.644,170.336 L 102.341,170.338 L 103.038,170.331 L 103.735,170.313 L 104.431,170.282 L 105.127,170.232 L 105.820,170.158 L 106.508,170.045 L 107.172,169.834 L 107.742,169.433 L 108.217,168.923 L 108.648,168.375 L 109.095,167.840 L 109.614,167.374 L 110.200,166.997 L 110.813,166.665 L 111.458,166.401 L 112.123,166.191 L 112.208,165.504 L 112.199,164.807" fill="none" stroke="#000000" stroke-width="1.2" /></g><g id="path2136"><path d="M 41.762,149.559 L 42.259,149.780 L 42.756,150.000 L 43.258,150.208 L 43.762,150.414 L 44.269,150.608 L 44.778,150.800 L 45.290,150.981 L 45.804,151.161 L 46.320,151.330 L 46.838,151.498 L 47.358,151.655 L 47.879,151.811 L 48.403,151.957 L 48.927,152.101 L 49.453,152.236 L 49.980,152.369 L 50.510,152.495 L 51.039,152.616 L 51.571,152.732 L 52.103,152.843 L 52.636,152.949 L 53.171,153.049 L 53.706,153.146 L 54.242,153.235 L 54.778,153.323 L 55.316,153.402 L 55.854,153.479 L 56.394,153.548 L 56.933,153.615 L 57.474,153.675 L 58.014,153.731 L 58.556,153.782 L 59.097,153.828 L 59.639,153.870 L 60.182,153.905 L 60.725,153.937 L 61.268,153.962 L 61.811,153.983 L 62.355,153.998 L 62.898,154.008 L 63.442,154.013 L 63.985,154.012 L 64.529,154.007 L 65.073,153.995 L 65.616,153.980 L 66.159,153.956 L 66.702,153.929 L 67.245,153.894 L 67.787,153.854 L 68.329,153.807 L 68.870,153.755 L 69.410,153.696 L 69.950,153.631 L 70.489,153.560 L 71.027,153.481 L 71.564,153.397 L 72.100,153.304 L 72.634,153.205 L 73.167,153.098 L 73.699,152.984 L 74.228,152.861 L 74.756,152.732 L 75.282,152.593 L 75.806,152.447 L 76.326,152.290 L 76.843,152.122 L 77.294,151.835 L 77.646,151.426 L 78.014,151.028 L 78.494,150.811 L 79.030,150.792 L 79.568,150.863 L 80.109,150.915 L 80.640,150.835 L 81.143,150.633 L 81.630,150.392 L 82.114,150.145 L 82.598,149.896 L 83.080,149.646 L 83.561,149.392 L 84.041,149.136 L 84.518,148.875 L 84.993,148.610 L 85.464,148.340 L 85.930,148.060 L 86.389,147.768 L 86.829,147.449 L 87.083,147.001 L 86.692,146.888 L 86.156,146.969 L 85.626,147.092 L 85.981,146.967 L 86.499,146.801 L 87.016,146.634 L 87.533,146.465 L 88.050,146.295 L 88.566,146.125 L 89.082,145.954 L 89.598,145.783" fill="none" stroke="#000000" stroke-width="1.2" /></g></svg>