<?xml version='1.0' encoding='utf-8'?>
<svg xmlns="http://www.w3.org/2000/svg" width="210" height="297" viewBox="0 0 210 297"><g id="path2717"><path d="M 32.511,123.300 L 31.544,123.606 L 30.561,123.859 L 29.567,124.062 L 28.565,124.220 L 27.557,124.338 L 26.546,124.419 L 25.533,124.469 L 24.518,124.492 L 23.503,124.495 L 22.489,124.483 L 21.474,124.462 L 20.460,124.436 L 19.446,124.411 L 18.431,124.391 L 17.416,124.383 L 16.402,124.393 L 15.387,124.425 L 14.375,124.485 L 13.364,124.579 L 12.359,124.718 L 11.362,124.906 L 10.377,125.146 L 9.407,125.444 L 8.458,125.803 L 7.538,126.230 L 6.651,126.723 L 5.824,127.303 L 5.412,128.218 L 5.272,129.223 L 5.101,130.222 L 4.609,131.092 L 3.806,131.711 L 3.486,132.646 L 3.527,133.659 L 3.637,134.668 L 3.609,135.680 L 3.366,136.665 L 3.090,137.641 L 2.712,138.578 L 2.394,137.784 L 2.242,136.781 L 1.667,136.219 L 1.098,137.052 L 0.811,138.020 L 0.690,139.027 L 0.627,140.040 L 0.599,141.054 L 0.598,142.069 L 0.619,143.083 L 0.663,144.097 L 0.731,145.109 L 0.837,146.119 L 1.021,147.115 L 1.408,148.052 L 1.943,148.913 L 2.588,149.696 L 3.311,150.407 L 4.092,151.055 L 4.915,151.648 L 5.768,152.197 L 6.644,152.709 L 7.537,153.191 L 8.444,153.647 L 9.360,154.083 L 10.283,154.504 L 11.211,154.916 L 12.139,155.327 L 13.063,155.746 L 13.972,156.197 L 14.849,156.705 L 15.681,157.285 L 16.457,157.939 L 17.168,158.663 L 17.824,159.437 L 18.456,160.231 L 19.104,161.012 L 19.804,161.745 L 20.572,162.408 L 21.405,162.987 L 22.286,163.489 L 23.207,163.913 L 24.161,164.259 L 25.138,164.534 L 26.130,164.743 L 27.132,164.903 L 28.140,165.019 L 29.152,165.095 L 30.166,165.141 L 31.180,165.161 L 32.195,165.159 L 33.209,165.140 L 34.224,165.107 L 35.237,165.065 L 36.251,165.016 L 37.264,164.966 L 38.278,164.916 L 39.292,164.874 L 40.306,164.843 L 41.321,164.830" fill="none" stroke="#000000" stroke-width="1.2" /></g><g id="path2147"><path d="M 173.460,120.784 L 174.278,120.894 L 175.096,120.996 L 175.915,121.092 L 176.735,121.186 L 177.554,121.281 L 178.373,121.381 L 179.190,121.490 L 180.006,121.610 L 180.820,121.747 L 181.630,121.903 L 182.435,122.081 L 183.238,122.269 L 184.040,122.463 L 184.840,122.661 L 185.639,122.866 L 186.436,123.077 L 187.232,123.295 L 188.025,123.521 L 188.816,123.755 L 189.604,123.998 L 190.390,124.250 L 191.172,124.511 L 191.950,124.784 L 192.725,125.067 L 193.495,125.362 L 194.261,125.668 L 195.022,125.987 L 195.776,126.320 L 196.525,126.665 L 197.267,127.025 L 197.364,127.727 L 197.521,128.399 L 198.320,128.597 L 199.137,128.708 L 199.956,128.806 L 200.771,128.930 L 201.571,129.129 L 202.302,129.501 L 202.574,130.246 L 202.544,131.070 L 202.444,131.888 L 202.308,132.702 L 202.153,133.512 L 201.983,134.319 L 201.801,135.123 L 201.611,135.926 L 201.412,136.726 L 201.208,137.525 L 200.997,138.323 L 200.781,139.119 L 200.560,139.913 L 200.333,140.706 L 200.100,141.498 L 199.846,142.282 L 199.432,142.993 L 198.933,143.649 L 198.398,144.277 L 197.842,144.886 L 197.272,145.482 L 196.691,146.068 L 196.103,146.646 L 195.506,147.215 L 194.902,147.777 L 194.293,148.333 L 193.677,148.881 L 193.054,149.422 L 192.423,149.953 L 191.780,150.470 L 191.117,150.961 L 190.365,151.288 L 189.559,151.465 L 188.744,151.590 L 187.928,151.708 L 187.117,151.855 L 186.329,152.095 L 185.654,152.561 L 185.106,153.177 L 184.597,153.826 L 184.030,154.423 L 183.329,154.849 L 182.533,155.055 L 181.710,155.104 L 180.888,155.049 L 180.070,154.943 L 179.256,154.812 L 178.441,154.682 L 177.623,154.576 L 176.801,154.523 L 175.977,154.554 L 175.171,154.723 L 174.424,155.066 L 173.797,155.597 L 173.316,156.264 L 173.013,157.029 L 172.845,157.836 L 172.744,158.655 L 172.646,159.474 L 172.487,160.282 L 172.202,161.055" fill="none" stroke="#000000" stroke-width="1.2" /></g><g id="path230"><path d="M 177.236,134.627 L 177.003,139.212 L 176.565,143.776 L 175.869,148.313 L 174.771,152.768 L 173.476,157.167 L 171.881,161.472 L 169.962,165.638 L 167.861,169.715 L 165.437,173.614 L 162.772,177.346 L 159.946,180.962 L 156.794,184.300 L 153.486,187.473 L 150.017,190.481 L 146.289,193.158 L 142.455,195.673 L 138.463,197.939 L 134.313,199.893 L 130.085,201.674 L 125.726,203.113 L 121.294,204.289 L 116.812,205.283 L 112.256,205.844 L 107.685,206.209 L 103.096,206.321 L 98.516,206.050 L 93.952,205.592 L 89.429,204.809 L 84.973,203.724 L 80.563,202.457 L 76.280,200.805 L 72.092,198.938 L 67.992,196.872 L 64.103,194.435 L 60.322,191.840 L 56.709,189.008 L 53.332,185.904 L 50.090,182.659 L 47.109,179.168 L 44.364,175.495 L 41.779,171.703 L 39.554,167.687 L 37.544,163.566 L 35.735,159.347 L 34.341,154.974 L 33.144,150.548 L 32.219,146.052 L 31.679,141.496 L 31.344,136.922 L 31.344,132.331 L 31.679,127.758 L 32.219,123.202 L 33.144,118.705 L 34.341,114.279 L 35.735,109.906 L 37.544,105.687 L 39.554,101.566 L 41.779,97.551 L 44.364,93.759 L 47.109,90.086 L 50.090,86.594 L 53.332,83.349 L 56.709,80.245 L 60.322,77.414 L 64.103,74.818 L 67.992,72.382 L 72.092,70.316 L 76.280,68.449 L 80.563,66.797 L 84.973,65.530 L 89.429,64.445 L 93.952,63.661 L 98.516,63.204 L 103.096,62.932 L 107.685,63.045 L 112.256,63.409 L 116.812,63.970 L 121.294,64.965 L 125.726,66.140 L 130.085,67.580 L 134.313,69.361 L 138.463,71.315 L 142.455,73.580 L 146.289,76.096 L 150.017,78.772 L 153.486,81.780 L 156.794,84.954 L 159.946,88.292 L 162.772,91.908 L 165.437,95.640 L 167.861,99.538 L 169.962,103.616 L 171.881,107.781 L 173.476,112.086 L 174.771,116.485 L 175.869,120.940 L 176.565,125.478 L 177.003,130.042 L 177.236,134.627" fill="#ffff00" stroke="#000000" stroke-width="1.2" /></g><g id="path393"><path d="M 99.210,133.368 L 99.158,134.668 L 99.078,135.966 L 98.921,137.258 L 98.708,138.540 L 98.447,139.815 L 98.100,141.068 L 97.721,142.313 L 97.251,143.526 L 96.734,144.718 L 96.159,145.886 L 95.503,147.008 L 94.808,148.107 L 94.029,149.149 L 93.193,150.144 L 92.313,151.103 L 91.342,151.969 L 90.328,152.781 L 89.269,153.537 L 88.134,154.172 L 86.962,154.733 L 85.755,155.217 L 84.503,155.571 L 83.228,155.817 L 81.938,155.970 L 80.637,156.010 L 79.341,155.905 L 78.058,155.706 L 76.791,155.414 L 75.562,154.985 L 74.373,154.462 L 73.219,153.864 L 72.121,153.166 L 71.085,152.382 L 70.091,151.544 L 69.166,150.628 L 68.309,149.651 L 67.493,148.639 L 66.764,147.561 L 66.089,146.450 L 65.463,145.310 L 64.928,144.124 L 64.429,142.923 L 64.011,141.691 L 63.648,140.443 L 63.334,139.180 L 63.107,137.900 L 62.908,136.614 L 62.803,135.317 L 62.737,134.019 L 62.737,132.718 L 62.803,131.419 L 62.908,130.122 L 63.107,128.837 L 63.334,127.556 L 63.648,126.294 L 64.011,125.045 L 64.429,123.813 L 64.928,122.613 L 65.463,121.427 L 66.089,120.287 L 66.764,119.176 L 67.493,118.098 L 68.309,117.085 L 69.166,116.108 L 70.091,115.193 L 71.085,114.355 L 72.121,113.571 L 73.219,112.872 L 74.373,112.274 L 75.562,111.752 L 76.791,111.323 L 78.058,111.031 L 79.341,110.831 L 80.637,110.727 L 81.938,110.767 L 83.228,110.919 L 84.503,111.165 L 85.755,111.520 L 86.962,112.003 L 88.134,112.564 L 89.269,113.200 L 90.328,113.956 L 91.342,114.768 L 92.313,115.634 L 93.193,116.592 L 94.029,117.587 L 94.808,118.629 L 95.503,119.728 L 96.159,120.851 L 96.734,122.018 L 97.251,123.211 L 97.721,124.424 L 98.100,125.668 L 98.447,126.922 L 98.708,128.196 L 98.921,129.479 L 99.078,130.770 L 99.158,132.068 L 99.210,133.368" fill="#ffffff" stroke="#000000" stroke-width="1.2" /></g><g id="path1267"><path d="M 92.918,144.065 L 92.888,144.663 L 92.833,145.259 L 92.744,145.851 L 92.604,146.433 L 92.440,147.008 L 92.235,147.571 L 91.991,148.117 L 91.724,148.652 L 91.412,149.163 L 91.071,149.655 L 90.710,150.132 L 90.303,150.571 L 89.877,150.992 L 89.429,151.388 L 88.948,151.744 L 88.452,152.080 L 87.934,152.379 L 87.396,152.640 L 86.847,152.879 L 86.279,153.069 L 85.702,153.227 L 85.119,153.361 L 84.524,153.435 L 83.928,153.484 L 83.330,153.499 L 82.732,153.463 L 82.137,153.401 L 81.548,153.297 L 80.968,153.151 L 80.394,152.981 L 79.836,152.762 L 79.293,152.513 L 78.760,152.239 L 78.257,151.915 L 77.769,151.569 L 77.301,151.196 L 76.867,150.784 L 76.451,150.354 L 76.066,149.895 L 75.715,149.411 L 75.385,148.912 L 75.098,148.386 L 74.843,147.845 L 74.610,147.294 L 74.434,146.721 L 74.282,146.143 L 74.163,145.556 L 74.095,144.961 L 74.053,144.365 L 74.053,143.766 L 74.095,143.169 L 74.163,142.575 L 74.282,141.988 L 74.434,141.409 L 74.610,140.837 L 74.843,140.285 L 75.098,139.745 L 75.385,139.219 L 75.715,138.720 L 76.066,138.235 L 76.451,137.777 L 76.867,137.347 L 77.301,136.935 L 77.769,136.562 L 78.257,136.216 L 78.760,135.891 L 79.293,135.618 L 79.836,135.368 L 80.394,135.150 L 80.968,134.979 L 81.548,134.834 L 82.137,134.730 L 82.732,134.668 L 83.330,134.632 L 83.928,134.647 L 84.524,134.696 L 85.119,134.770 L 85.702,134.903 L 86.279,135.061 L 86.847,135.252 L 87.396,135.490 L 87.934,135.752 L 88.452,136.051 L 88.948,136.386 L 89.429,136.743 L 89.877,137.139 L 90.303,137.559 L 90.710,137.998 L 91.071,138.476 L 91.412,138.967 L 91.724,139.478 L 91.991,140.014 L 92.235,140.560 L 92.440,141.123 L 92.604,141.698 L 92.744,142.280 L 92.833,142.872 L 92.888,143.467 L 92.918,144.065" fill="#2b0000" stroke="#000000" stroke-width="1.2" /></g><g id="path397"><path d="M 149.549,130.851 L 149.503,132.157 L 149.440,133.462 L 149.301,134.761 L 149.128,136.056 L 148.896,137.341 L 148.609,138.615 L 148.282,139.880 L 147.879,141.123 L 147.450,142.357 L 146.930,143.555 L 146.374,144.737 L 145.754,145.887 L 145.064,146.995 L 144.334,148.078 L 143.515,149.096 L 142.640,150.065 L 141.716,150.988 L 140.702,151.812 L 139.633,152.560 L 138.513,153.230 L 137.332,153.788 L 136.097,154.211 L 134.830,154.519 L 133.539,154.706 L 132.233,154.752 L 130.933,154.628 L 129.653,154.380 L 128.402,154.013 L 127.187,153.532 L 126.041,152.905 L 124.947,152.195 L 123.903,151.411 L 122.936,150.532 L 122.037,149.586 L 121.185,148.596 L 120.416,147.540 L 119.706,146.444 L 119.037,145.322 L 118.464,144.148 L 117.924,142.959 L 117.452,141.740 L 117.036,140.503 L 116.662,139.251 L 116.365,137.979 L 116.089,136.702 L 115.903,135.409 L 115.739,134.113 L 115.646,132.809 L 115.592,131.505 L 115.592,130.198 L 115.646,128.893 L 115.739,127.590 L 115.903,126.294 L 116.089,125.001 L 116.365,123.724 L 116.662,122.452 L 117.036,121.200 L 117.452,119.962 L 117.924,118.744 L 118.464,117.555 L 119.037,116.381 L 119.706,115.258 L 120.416,114.163 L 121.185,113.107 L 122.037,112.117 L 122.936,111.171 L 123.903,110.292 L 124.947,109.508 L 126.041,108.798 L 127.187,108.171 L 128.402,107.690 L 129.653,107.323 L 130.933,107.075 L 132.233,106.951 L 133.539,106.997 L 134.830,107.184 L 136.097,107.492 L 137.332,107.915 L 138.513,108.473 L 139.633,109.143 L 140.702,109.891 L 141.716,110.715 L 142.640,111.638 L 143.515,112.607 L 144.334,113.624 L 145.064,114.707 L 145.754,115.816 L 146.374,116.966 L 146.930,118.147 L 147.450,119.346 L 147.879,120.580 L 148.282,121.822 L 148.609,123.087 L 148.896,124.361 L 149.128,125.647 L 149.301,126.942 L 149.440,128.241 L 149.503,129.546 L 149.549,130.851" fill="#ffffff" stroke="#000000" stroke-width="1.2" /></g><g id="path1265"><path d="M 141.999,142.178 L 141.971,142.736 L 141.919,143.292 L 141.836,143.844 L 141.706,144.387 L 141.553,144.924 L 141.361,145.449 L 141.134,145.959 L 140.884,146.459 L 140.593,146.936 L 140.275,147.395 L 139.938,147.840 L 139.557,148.250 L 139.161,148.642 L 138.742,149.012 L 138.293,149.345 L 137.830,149.658 L 137.346,149.937 L 136.844,150.181 L 136.332,150.403 L 135.802,150.581 L 135.264,150.729 L 134.719,150.853 L 134.164,150.923 L 133.608,150.968 L 133.049,150.982 L 132.492,150.948 L 131.937,150.891 L 131.386,150.794 L 130.845,150.658 L 130.309,150.499 L 129.789,150.295 L 129.282,150.062 L 128.785,149.807 L 128.315,149.504 L 127.860,149.181 L 127.423,148.833 L 127.017,148.448 L 126.629,148.047 L 126.270,147.619 L 125.942,147.167 L 125.634,146.701 L 125.367,146.210 L 125.128,145.706 L 124.911,145.191 L 124.746,144.657 L 124.605,144.117 L 124.494,143.569 L 124.431,143.014 L 124.391,142.457 L 124.391,141.898 L 124.431,141.341 L 124.494,140.786 L 124.605,140.239 L 124.746,139.699 L 124.911,139.165 L 125.128,138.650 L 125.367,138.145 L 125.634,137.654 L 125.942,137.188 L 126.270,136.736 L 126.629,136.308 L 127.017,135.907 L 127.423,135.523 L 127.860,135.174 L 128.315,134.852 L 128.785,134.549 L 129.282,134.294 L 129.789,134.060 L 130.309,133.856 L 130.845,133.697 L 131.386,133.561 L 131.937,133.464 L 132.492,133.407 L 133.049,133.373 L 133.608,133.387 L 134.164,133.433 L 134.719,133.502 L 135.264,133.627 L 135.802,133.774 L 136.332,133.952 L 136.844,134.174 L 137.346,134.418 L 137.830,134.698 L 138.293,135.011 L 138.742,135.343 L 139.161,135.713 L 139.557,136.105 L 139.938,136.515 L 140.275,136.961 L 140.593,137.420 L 140.884,137.896 L 141.134,138.396 L 141.361,138.906 L 141.553,139.431 L 141.706,139.968 L 141.836,140.511 L 141.919,141.064 L 141.971,141.619 L 141.999,142.178" fill="#2b0000" stroke="#000000" stroke-width="1.2" /></g><g id="path1439"><path d="M 105.503,152.245 L 104.888,152.576 L 104.279,152.919 L 103.676,153.271 L 103.077,153.630 L 102.482,153.996 L 101.891,154.368 L 101.303,154.744 L 100.718,155.126 L 100.136,155.512 L 99.557,155.902 L 98.981,156.297 L 98.408,156.697 L 97.839,157.101 L 97.273,157.511 L 96.711,157.925 L 96.153,158.345 L 95.599,158.770 L 95.050,159.202 L 94.508,159.642 L 93.972,160.090 L 93.445,160.547 L 92.927,161.016 L 92.424,161.500 L 91.937,162.001 L 91.477,162.526 L 91.022,163.057 L 90.570,163.589 L 90.122,164.125 L 89.682,164.667 L 89.252,165.217 L 88.834,165.776 L 88.432,166.348 L 88.049,166.931 L 87.689,167.530 L 87.356,168.144 L 87.053,168.773 L 86.786,169.418 L 86.574,170.082 L 86.588,170.778 L 86.694,171.468 L 86.690,172.163 L 86.345,172.758 L 85.903,173.299 L 85.462,173.841 L 85.028,174.387 L 84.602,174.941 L 84.189,175.504 L 83.792,176.079 L 83.422,176.670 L 83.092,177.286 L 82.844,177.937 L 82.833,178.623 L 83.229,179.192 L 83.791,179.602 L 84.434,179.871 L 85.112,180.036 L 85.804,180.131 L 86.500,180.174 L 87.199,180.182 L 87.897,180.165 L 88.594,180.128 L 89.291,180.079 L 89.987,180.022 L 90.683,179.962 L 91.379,179.904 L 92.075,179.856 L 92.773,179.828 L 93.471,179.838 L 94.163,179.929 L 94.690,180.360 L 95.083,180.936 L 95.685,181.258 L 96.372,181.383 L 97.065,181.468 L 97.760,181.534 L 98.457,181.584 L 99.154,181.623 L 99.852,181.653 L 100.550,181.674 L 101.248,181.686 L 101.947,181.688 L 102.645,181.681 L 103.343,181.662 L 104.041,181.631 L 104.737,181.581 L 105.432,181.506 L 106.120,181.392 L 106.783,181.179 L 107.350,180.774 L 107.823,180.262 L 108.255,179.712 L 108.702,179.177 L 109.222,178.713 L 109.811,178.337 L 110.426,178.006 L 111.072,177.743 L 111.734,177.535 L 111.805,176.855 L 111.795,176.156" fill="none" stroke="#000000" stroke-width="1.2" /></g><g id="path2136"><path d="M 84.109,195.034 L 84.609,195.257 L 85.110,195.478 L 85.617,195.687 L 86.124,195.894 L 86.636,196.090 L 87.148,196.283 L 87.665,196.466 L 88.182,196.646 L 88.703,196.816 L 89.224,196.985 L 89.749,197.142 L 90.274,197.300 L 90.802,197.446 L 91.330,197.591 L 91.861,197.726 L 92.393,197.860 L 92.926,197.985 L 93.460,198.108 L 93.996,198.223 L 94.532,198.334 L 95.070,198.440 L 95.608,198.540 L 96.148,198.637 L 96.688,198.725 L 97.229,198.813 L 97.772,198.891 L 98.314,198.969 L 98.858,199.037 L 99.401,199.103 L 99.946,199.162 L 100.491,199.218 L 101.037,199.268 L 101.583,199.312 L 102.129,199.354 L 102.676,199.387 L 103.223,199.420 L 103.770,199.441 L 104.318,199.463 L 104.866,199.475 L 105.413,199.484 L 105.961,199.487 L 106.509,199.485 L 107.057,199.478 L 107.605,199.463 L 108.152,199.447 L 108.700,199.419 L 109.247,199.392 L 109.793,199.352 L 110.340,199.312 L 110.885,199.261 L 111.430,199.207 L 111.975,199.144 L 112.518,199.076 L 113.061,199.001 L 113.603,198.919 L 114.143,198.831 L 114.683,198.734 L 115.221,198.632 L 115.757,198.519 L 116.292,198.402 L 116.825,198.273 L 117.356,198.140 L 117.884,197.994 L 118.411,197.844 L 118.934,197.680 L 119.452,197.504 L 119.840,197.124 L 120.146,196.670 L 120.552,196.312 L 121.090,196.226 L 121.634,196.288 L 122.173,196.383 L 122.719,196.405 L 123.236,196.234 L 123.725,195.987 L 124.214,195.740 L 124.701,195.490 L 125.188,195.238 L 125.674,194.986 L 126.157,194.727 L 126.640,194.468 L 127.119,194.202 L 127.596,193.933 L 128.069,193.657 L 128.535,193.369 L 128.991,193.065 L 129.419,192.724 L 129.458,192.338 L 128.913,192.362 L 128.375,192.465 L 127.843,192.596 L 128.286,192.451 L 128.808,192.284 L 129.329,192.116 L 129.850,191.946 L 130.370,191.775 L 130.891,191.603 L 131.411,191.431 L 131.931,191.258" fill="none" stroke="#000000" stroke-width="1.2" /></g></svg>