<?xml version='1.0' encoding='utf-8'?>
<svg xmlns="http://www.w3.org/2000/svg" width="210" height="297" viewBox="0 0 210 297"><g id="path2717"><path d="M 117.719,174.847 L 116.755,175.151 L 115.777,175.403 L 114.788,175.606 L 113.790,175.764 L 112.787,175.881 L 111.780,175.963 L 110.771,176.014 L 109.761,176.037 L 108.751,176.041 L 107.741,176.030 L 106.731,176.009 L 105.721,175.984 L 104.711,175.958 L 103.701,175.938 L 102.691,175.930 L 101.681,175.938 L 100.671,175.968 L 99.663,176.026 L 98.657,176.117 L 97.656,176.251 L 96.662,176.434 L 95.680,176.669 L 94.713,176.960 L 93.766,177.311 L 92.846,177.728 L 91.959,178.211 L 91.126,178.782 L 90.662,179.662 L 90.492,180.654 L 90.326,181.650 L 89.867,182.543 L 89.100,183.188 L 88.720,184.106 L 88.727,185.110 L 88.830,186.115 L 88.816,187.124 L 88.595,188.108 L 88.325,189.081 L 87.958,190.022 L 87.591,189.289 L 87.418,188.302 L 86.733,187.969 L 86.232,188.836 L 85.985,189.813 L 85.879,190.817 L 85.824,191.826 L 85.803,192.836 L 85.807,193.846 L 85.832,194.856 L 85.881,195.865 L 85.957,196.872 L 86.079,197.874 L 86.304,198.855 L 86.719,199.774 L 87.273,200.616 L 87.931,201.382 L 88.662,202.078 L 89.448,202.713 L 90.272,203.296 L 91.126,203.836 L 92.001,204.341 L 92.892,204.816 L 93.796,205.267 L 94.709,205.699 L 95.629,206.117 L 96.552,206.527 L 97.475,206.936 L 98.393,207.358 L 99.294,207.814 L 100.162,208.330 L 100.984,208.917 L 101.748,209.577 L 102.450,210.303 L 103.100,211.076 L 103.731,211.865 L 104.382,212.637 L 105.086,213.361 L 105.857,214.013 L 106.690,214.583 L 107.571,215.077 L 108.492,215.492 L 109.443,215.831 L 110.417,216.100 L 111.406,216.305 L 112.404,216.461 L 113.407,216.575 L 114.415,216.648 L 115.424,216.693 L 116.434,216.712 L 117.444,216.709 L 118.454,216.690 L 119.464,216.657 L 120.473,216.615 L 121.482,216.566 L 122.491,216.516 L 123.500,216.467 L 124.509,216.425 L 125.519,216.394 L 126.529,216.381" fill="none" stroke="#000000" stroke-width="1.2" /></g><g id="path2147"><path d="M 79.830,93.206 L 80.644,93.316 L 81.459,93.417 L 82.275,93.513 L 83.091,93.606 L 83.907,93.701 L 84.722,93.801 L 85.537,93.909 L 86.350,94.029 L 87.160,94.164 L 87.967,94.319 L 88.769,94.495 L 89.569,94.682 L 90.368,94.875 L 91.165,95.072 L 91.961,95.276 L 92.755,95.486 L 93.548,95.703 L 94.338,95.927 L 95.126,96.160 L 95.911,96.401 L 96.693,96.651 L 97.473,96.911 L 98.249,97.181 L 99.021,97.462 L 99.788,97.755 L 100.551,98.059 L 101.310,98.375 L 102.062,98.705 L 102.809,99.048 L 103.549,99.404 L 103.737,100.163 L 104.032,100.856 L 104.832,101.039 L 105.647,101.148 L 106.462,101.249 L 107.272,101.385 L 108.058,101.611 L 108.718,102.047 L 108.939,102.829 L 108.896,103.649 L 108.789,104.463 L 108.651,105.273 L 108.493,106.079 L 108.322,106.883 L 108.139,107.684 L 107.948,108.483 L 107.750,109.280 L 107.545,110.075 L 107.334,110.869 L 107.119,111.662 L 106.897,112.453 L 106.671,113.243 L 106.436,114.030 L 106.161,114.802 L 105.737,115.505 L 105.234,116.154 L 104.698,116.777 L 104.143,117.383 L 103.574,117.975 L 102.995,118.558 L 102.408,119.132 L 101.812,119.698 L 101.211,120.258 L 100.603,120.811 L 99.989,121.356 L 99.368,121.893 L 98.738,122.421 L 98.096,122.934 L 97.429,123.410 L 96.672,123.726 L 95.868,123.898 L 95.056,124.023 L 94.244,124.142 L 93.437,124.295 L 92.658,124.548 L 91.990,125.024 L 91.446,125.640 L 90.936,126.283 L 90.363,126.870 L 89.656,127.284 L 88.859,127.482 L 88.039,127.525 L 87.219,127.469 L 86.405,127.361 L 85.594,127.231 L 84.782,127.102 L 83.968,126.999 L 83.148,126.948 L 82.327,126.982 L 81.524,127.155 L 80.780,127.501 L 80.156,128.035 L 79.679,128.703 L 79.379,129.467 L 79.213,130.272 L 79.112,131.087 L 79.014,131.903 L 78.855,132.709 L 78.571,133.480" fill="none" stroke="#000000" stroke-width="1.2" /></g><g id="path230"><path d="M 163.388,155.449 L 163.156,160.032 L 162.718,164.599 L 162.022,169.135 L 160.924,173.590 L 159.628,177.991 L 158.034,182.294 L 156.114,186.461 L 154.012,190.540 L 151.589,194.436 L 148.923,198.170 L 146.097,201.785 L 142.947,205.122 L 139.636,208.298 L 136.170,211.304 L 132.443,213.980 L 128.606,216.497 L 124.615,218.761 L 120.464,220.716 L 116.236,222.497 L 111.879,223.936 L 107.444,225.112 L 102.965,226.106 L 98.411,226.667 L 93.837,227.031 L 89.250,227.144 L 84.669,226.872 L 80.104,226.415 L 75.583,225.632 L 71.125,224.546 L 66.715,223.279 L 62.434,221.628 L 58.243,219.760 L 54.146,217.695 L 50.257,215.259 L 46.475,212.663 L 42.863,209.832 L 39.485,206.728 L 36.242,203.481 L 33.263,199.992 L 30.516,196.316 L 27.932,192.525 L 25.708,188.512 L 23.696,184.388 L 21.887,180.171 L 20.494,175.800 L 19.296,171.370 L 18.372,166.876 L 17.831,162.320 L 17.496,157.744 L 17.496,153.155 L 17.831,148.579 L 18.372,144.023 L 19.296,139.529 L 20.494,135.099 L 21.887,130.728 L 23.696,126.511 L 25.708,122.387 L 27.932,118.374 L 30.516,114.582 L 33.263,110.907 L 36.242,107.418 L 39.485,104.171 L 42.863,101.067 L 46.475,98.236 L 50.257,95.639 L 54.146,93.203 L 58.243,91.139 L 62.434,89.271 L 66.715,87.619 L 71.125,86.353 L 75.583,85.267 L 80.104,84.484 L 84.669,84.026 L 89.250,83.755 L 93.837,83.868 L 98.411,84.232 L 102.965,84.793 L 107.444,85.787 L 111.879,86.963 L 116.236,88.402 L 120.464,90.183 L 124.615,92.138 L 128.606,94.402 L 132.443,96.919 L 136.170,99.595 L 139.636,102.601 L 142.947,105.777 L 146.097,109.114 L 148.923,112.729 L 151.589,116.463 L 154.012,120.359 L 156.114,124.438 L 158.034,128.605 L 159.628,132.908 L 160.924,137.309 L 162.022,141.764 L 162.718,146.300 L 163.156,150.867 L 163.388,155.449" fill="#ffff00" stroke="#000000" stroke-width="1.2" /></g><g id="path393"><path d="M 107.933,167.993 L 107.881,169.293 L 107.801,170.591 L 107.644,171.882 L 107.432,173.164 L 107.170,174.438 L 106.823,175.692 L 106.445,176.936 L 105.975,178.148 L 105.458,179.341 L 104.884,180.508 L 104.227,181.631 L 103.532,182.730 L 102.754,183.772 L 101.917,184.767 L 101.038,185.725 L 100.068,186.592 L 99.053,187.404 L 97.994,188.160 L 96.860,188.796 L 95.687,189.357 L 94.480,189.841 L 93.229,190.196 L 91.952,190.442 L 90.661,190.594 L 89.361,190.635 L 88.065,190.530 L 86.780,190.331 L 85.512,190.039 L 84.285,189.610 L 83.094,189.086 L 81.940,188.488 L 80.843,187.790 L 79.806,187.005 L 78.812,186.166 L 77.888,185.251 L 77.030,184.274 L 76.214,183.261 L 75.486,182.184 L 74.811,181.072 L 74.185,179.932 L 73.651,178.747 L 73.151,177.546 L 72.733,176.315 L 72.370,175.066 L 72.057,173.804 L 71.829,172.524 L 71.631,171.238 L 71.526,169.942 L 71.460,168.643 L 71.460,167.343 L 71.526,166.044 L 71.631,164.748 L 71.829,163.463 L 72.057,162.182 L 72.370,160.920 L 72.733,159.672 L 73.151,158.440 L 73.651,157.240 L 74.185,156.054 L 74.811,154.914 L 75.486,153.803 L 76.214,152.725 L 77.030,151.712 L 77.888,150.735 L 78.812,149.820 L 79.806,148.982 L 80.843,148.197 L 81.940,147.498 L 83.094,146.900 L 84.285,146.377 L 85.512,145.948 L 86.780,145.656 L 88.065,145.456 L 89.361,145.352 L 90.661,145.392 L 91.952,145.544 L 93.229,145.791 L 94.480,146.146 L 95.687,146.629 L 96.860,147.191 L 97.994,147.827 L 99.053,148.582 L 100.068,149.395 L 101.038,150.261 L 101.917,151.219 L 102.754,152.215 L 103.532,153.256 L 104.227,154.355 L 104.884,155.478 L 105.458,156.645 L 105.975,157.838 L 106.445,159.051 L 106.823,160.295 L 107.170,161.548 L 107.432,162.822 L 107.644,164.105 L 107.801,165.396 L 107.881,166.694 L 107.933,167.993" fill="#ffffff" stroke="#000000" stroke-width="1.2" /></g><g id="path1267"><path d="M 109.910,161.430 L 109.880,162.028 L 109.824,162.624 L 109.735,163.216 L 109.596,163.798 L 109.432,164.373 L 109.227,164.936 L 108.983,165.482 L 108.715,166.018 L 108.403,166.528 L 108.063,167.020 L 107.701,167.497 L 107.294,167.936 L 106.869,168.357 L 106.420,168.753 L 105.939,169.109 L 105.444,169.445 L 104.925,169.744 L 104.387,170.005 L 103.838,170.244 L 103.271,170.434 L 102.693,170.592 L 102.110,170.726 L 101.516,170.800 L 100.920,170.849 L 100.321,170.864 L 99.724,170.828 L 99.129,170.766 L 98.539,170.662 L 97.959,170.516 L 97.385,170.346 L 96.828,170.127 L 96.284,169.877 L 95.752,169.604 L 95.249,169.280 L 94.761,168.934 L 94.293,168.561 L 93.858,168.149 L 93.442,167.719 L 93.057,167.261 L 92.706,166.776 L 92.376,166.277 L 92.090,165.751 L 91.834,165.210 L 91.602,164.659 L 91.425,164.087 L 91.273,163.508 L 91.155,162.921 L 91.087,162.327 L 91.044,161.730 L 91.044,161.131 L 91.087,160.534 L 91.155,159.940 L 91.273,159.353 L 91.425,158.774 L 91.602,158.202 L 91.834,157.651 L 92.090,157.110 L 92.376,156.584 L 92.706,156.085 L 93.057,155.600 L 93.442,155.142 L 93.858,154.712 L 94.293,154.300 L 94.761,153.927 L 95.249,153.581 L 95.752,153.256 L 96.284,152.983 L 96.828,152.733 L 97.385,152.515 L 97.959,152.344 L 98.539,152.199 L 99.129,152.095 L 99.724,152.033 L 100.321,151.997 L 100.920,152.012 L 101.516,152.061 L 102.110,152.135 L 102.693,152.268 L 103.271,152.426 L 103.838,152.617 L 104.387,152.855 L 104.925,153.117 L 105.444,153.416 L 105.939,153.751 L 106.420,154.108 L 106.869,154.504 L 107.294,154.925 L 107.701,155.363 L 108.063,155.840 L 108.403,156.332 L 108.715,156.843 L 108.983,157.379 L 109.227,157.925 L 109.432,158.487 L 109.596,159.063 L 109.735,159.645 L 109.824,160.237 L 109.880,160.833 L 109.910,161.430" fill="#2b0000" stroke="#000000" stroke-width="1.2" /></g><g id="path397"><path d="M 104.171,143.459 L 104.125,144.765 L 104.062,146.069 L 103.923,147.367 L 103.750,148.662 L 103.518,149.947 L 103.232,151.221 L 102.905,152.486 L 102.501,153.728 L 102.073,154.961 L 101.553,156.159 L 100.997,157.341 L 100.378,158.491 L 99.688,159.600 L 98.958,160.683 L 98.140,161.700 L 97.264,162.670 L 96.340,163.592 L 95.327,164.416 L 94.258,165.166 L 93.137,165.836 L 91.957,166.395 L 90.721,166.818 L 89.452,167.127 L 88.160,167.314 L 86.855,167.360 L 85.554,167.236 L 84.272,166.987 L 83.019,166.620 L 81.805,166.139 L 80.660,165.512 L 79.565,164.800 L 78.520,164.016 L 77.554,163.137 L 76.655,162.190 L 75.803,161.200 L 75.035,160.144 L 74.325,159.048 L 73.656,157.926 L 73.084,156.752 L 72.544,155.564 L 72.073,154.346 L 71.657,153.107 L 71.282,151.856 L 70.986,150.585 L 70.710,149.308 L 70.524,148.015 L 70.360,146.720 L 70.268,145.417 L 70.213,144.112 L 70.213,142.806 L 70.268,141.502 L 70.360,140.199 L 70.524,138.903 L 70.710,137.611 L 70.986,136.334 L 71.282,135.062 L 71.657,133.811 L 72.073,132.573 L 72.544,131.355 L 73.084,130.166 L 73.656,128.993 L 74.325,127.871 L 75.035,126.774 L 75.803,125.719 L 76.655,124.729 L 77.554,123.782 L 78.520,122.903 L 79.565,122.119 L 80.660,121.407 L 81.805,120.780 L 83.019,120.299 L 84.272,119.932 L 85.554,119.683 L 86.855,119.559 L 88.160,119.605 L 89.452,119.792 L 90.721,120.101 L 91.957,120.524 L 93.137,121.083 L 94.258,121.753 L 95.327,122.502 L 96.340,123.326 L 97.264,124.249 L 98.140,125.219 L 98.958,126.236 L 99.688,127.319 L 100.378,128.428 L 100.997,129.578 L 101.553,130.759 L 102.073,131.957 L 102.501,133.191 L 102.905,134.433 L 103.232,135.698 L 103.518,136.972 L 103.750,138.257 L 103.923,139.551 L 104.062,140.850 L 104.125,142.154 L 104.171,143.459" fill="#ffffff" stroke="#000000" stroke-width="1.2" /></g><g id="path1265"><path d="M 107.399,137.523 L 107.371,138.080 L 107.319,138.637 L 107.236,139.189 L 107.106,139.732 L 106.953,140.269 L 106.762,140.794 L 106.534,141.304 L 106.284,141.804 L 105.993,142.281 L 105.675,142.740 L 105.338,143.185 L 104.958,143.595 L 104.561,143.987 L 104.142,144.357 L 103.693,144.689 L 103.231,145.002 L 102.747,145.282 L 102.244,145.526 L 101.732,145.748 L 101.203,145.926 L 100.664,146.074 L 100.119,146.198 L 99.565,146.267 L 99.008,146.313 L 98.450,146.327 L 97.892,146.293 L 97.337,146.236 L 96.787,146.139 L 96.245,146.003 L 95.709,145.844 L 95.189,145.640 L 94.682,145.406 L 94.185,145.152 L 93.716,144.849 L 93.260,144.526 L 92.823,144.177 L 92.418,143.793 L 92.029,143.392 L 91.670,142.964 L 91.342,142.512 L 91.034,142.046 L 90.767,141.555 L 90.528,141.050 L 90.311,140.535 L 90.147,140.002 L 90.005,139.461 L 89.894,138.914 L 89.831,138.359 L 89.791,137.802 L 89.791,137.243 L 89.831,136.686 L 89.894,136.131 L 90.005,135.584 L 90.147,135.043 L 90.311,134.510 L 90.528,133.995 L 90.767,133.490 L 91.034,132.999 L 91.342,132.533 L 91.670,132.081 L 92.029,131.653 L 92.418,131.252 L 92.823,130.868 L 93.260,130.519 L 93.716,130.196 L 94.185,129.893 L 94.682,129.639 L 95.189,129.405 L 95.709,129.201 L 96.245,129.042 L 96.787,128.906 L 97.337,128.809 L 97.892,128.752 L 98.450,128.718 L 99.008,128.732 L 99.565,128.778 L 100.119,128.847 L 100.664,128.971 L 101.203,129.119 L 101.732,129.297 L 102.244,129.519 L 102.747,129.763 L 103.231,130.043 L 103.693,130.356 L 104.142,130.688 L 104.561,131.058 L 104.958,131.451 L 105.338,131.860 L 105.675,132.305 L 105.993,132.765 L 106.284,133.241 L 106.534,133.741 L 106.762,134.251 L 106.953,134.776 L 107.106,135.313 L 107.236,135.856 L 107.319,136.408 L 107.371,136.965 L 107.399,137.523" fill="#2b0000" stroke="#000000" stroke-width="1.2" /></g><g id="path1439"><path d="M 138.443,122.475 L 137.828,122.805 L 137.221,123.147 L 136.619,123.499 L 136.020,123.857 L 135.427,124.223 L 134.836,124.594 L 134.249,124.970 L 133.665,125.350 L 133.083,125.736 L 132.505,126.125 L 131.930,126.520 L 131.358,126.919 L 130.790,127.323 L 130.225,127.731 L 129.663,128.145 L 129.106,128.564 L 128.553,128.989 L 128.005,129.420 L 127.463,129.859 L 126.928,130.306 L 126.401,130.762 L 125.883,131.230 L 125.380,131.713 L 124.894,132.213 L 124.433,132.736 L 123.979,133.266 L 123.528,133.797 L 123.080,134.332 L 122.640,134.873 L 122.210,135.422 L 121.792,135.980 L 121.390,136.550 L 121.007,137.132 L 120.646,137.729 L 120.312,138.341 L 120.008,138.969 L 119.740,139.612 L 119.525,140.275 L 119.526,140.971 L 119.628,141.660 L 119.630,142.357 L 119.298,142.966 L 118.860,143.508 L 118.419,144.048 L 117.985,144.594 L 117.559,145.146 L 117.146,145.708 L 116.750,146.282 L 116.379,146.872 L 116.047,147.486 L 115.795,148.135 L 115.772,148.831 L 116.158,149.407 L 116.717,149.822 L 117.358,150.094 L 118.035,150.262 L 118.726,150.358 L 119.421,150.403 L 120.119,150.411 L 120.816,150.395 L 121.512,150.359 L 122.208,150.310 L 122.903,150.253 L 123.598,150.193 L 124.293,150.136 L 124.988,150.088 L 125.685,150.058 L 126.382,150.067 L 127.074,150.155 L 127.620,150.582 L 128.016,151.155 L 128.627,151.488 L 129.313,151.613 L 130.005,151.698 L 130.699,151.763 L 131.395,151.813 L 132.091,151.853 L 132.788,151.883 L 133.485,151.903 L 134.182,151.915 L 134.879,151.918 L 135.577,151.911 L 136.274,151.892 L 136.970,151.861 L 137.666,151.811 L 138.359,151.737 L 139.047,151.624 L 139.712,151.412 L 140.281,151.010 L 140.756,150.500 L 141.187,149.952 L 141.634,149.417 L 142.152,148.951 L 142.739,148.574 L 143.353,148.242 L 143.998,147.979 L 144.663,147.769 L 144.745,147.083 L 144.735,146.386" fill="none" stroke="#000000" stroke-width="1.2" /></g><g id="path2136"><path d="M 127.762,119.990 L 128.260,120.212 L 128.759,120.433 L 129.263,120.641 L 129.767,120.847 L 130.277,121.042 L 130.787,121.235 L 131.301,121.416 L 131.816,121.596 L 132.334,121.766 L 132.853,121.934 L 133.375,122.091 L 133.897,122.248 L 134.423,122.393 L 134.948,122.538 L 135.476,122.673 L 136.005,122.807 L 136.536,122.932 L 137.067,123.054 L 137.600,123.169 L 138.134,123.280 L 138.669,123.386 L 139.205,123.486 L 139.742,123.583 L 140.280,123.672 L 140.818,123.760 L 141.357,123.838 L 141.897,123.916 L 142.438,123.985 L 142.979,124.051 L 143.521,124.111 L 144.064,124.167 L 144.607,124.218 L 145.150,124.263 L 145.694,124.305 L 146.238,124.339 L 146.782,124.372 L 147.327,124.395 L 147.872,124.416 L 148.417,124.430 L 148.962,124.440 L 149.507,124.444 L 150.053,124.443 L 150.598,124.437 L 151.143,124.424 L 151.688,124.408 L 152.233,124.383 L 152.777,124.356 L 153.321,124.319 L 153.865,124.279 L 154.408,124.231 L 154.951,124.178 L 155.493,124.118 L 156.034,124.051 L 156.575,123.979 L 157.114,123.899 L 157.652,123.813 L 158.189,123.718 L 158.725,123.618 L 159.260,123.509 L 159.793,123.394 L 160.323,123.269 L 160.853,123.138 L 161.379,122.996 L 161.904,122.848 L 162.426,122.690 L 162.943,122.518 L 163.374,122.204 L 163.706,121.774 L 164.081,121.384 L 164.578,121.210 L 165.119,121.225 L 165.658,121.309 L 166.200,121.354 L 166.727,121.247 L 167.223,121.025 L 167.710,120.779 L 168.196,120.532 L 168.680,120.282 L 169.164,120.031 L 169.646,119.775 L 170.127,119.518 L 170.605,119.256 L 171.081,118.989 L 171.553,118.717 L 172.019,118.434 L 172.477,118.138 L 172.914,117.813 L 173.113,117.349 L 172.629,117.316 L 172.093,117.411 L 171.563,117.538 L 171.964,117.402 L 172.484,117.236 L 173.003,117.068 L 173.521,116.899 L 174.039,116.729 L 174.557,116.558 L 175.074,116.386 L 175.592,116.214" fill="none" stroke="#000000" stroke-width="1.2" /></g></svg>