<?xml version='1.0' encoding='utf-8'?>
<svg xmlns="http://www.w3.org/2000/svg" width="210" height="297" viewBox="0 0 210 297"><g id="path2717"><path d="M 32.513,123.298 L 31.550,123.603 L 30.572,123.854 L 29.582,124.057 L 28.585,124.215 L 27.581,124.333 L 26.574,124.415 L 25.566,124.466 L 24.556,124.489 L 23.546,124.493 L 22.535,124.482 L 21.525,124.461 L 20.516,124.435 L 19.506,124.410 L 18.496,124.390 L 17.486,124.382 L 16.476,124.390 L 15.466,124.420 L 14.457,124.478 L 13.451,124.569 L 12.450,124.703 L 11.457,124.886 L 10.474,125.120 L 9.507,125.411 L 8.560,125.762 L 7.641,126.179 L 6.754,126.663 L 5.921,127.233 L 5.457,128.114 L 5.287,129.105 L 5.120,130.102 L 4.662,130.995 L 3.895,131.640 L 3.515,132.557 L 3.522,133.562 L 3.625,134.567 L 3.610,135.576 L 3.390,136.559 L 3.119,137.533 L 2.752,138.473 L 2.386,137.741 L 2.213,136.753 L 1.527,136.421 L 1.026,137.288 L 0.780,138.265 L 0.673,139.269 L 0.619,140.277 L 0.597,141.287 L 0.601,142.297 L 0.627,143.307 L 0.676,144.316 L 0.752,145.323 L 0.873,146.326 L 1.099,147.307 L 1.514,148.225 L 2.068,149.068 L 2.726,149.834 L 3.457,150.530 L 4.242,151.165 L 5.067,151.748 L 5.920,152.288 L 6.795,152.793 L 7.687,153.268 L 8.590,153.719 L 9.504,154.150 L 10.423,154.568 L 11.347,154.978 L 12.270,155.388 L 13.188,155.810 L 14.089,156.266 L 14.957,156.782 L 15.778,157.369 L 16.543,158.028 L 17.244,158.755 L 17.895,159.527 L 18.525,160.317 L 19.176,161.089 L 19.880,161.813 L 20.651,162.464 L 21.485,163.035 L 22.366,163.528 L 23.286,163.944 L 24.238,164.282 L 25.211,164.552 L 26.200,164.757 L 27.198,164.913 L 28.202,165.026 L 29.210,165.100 L 30.219,165.145 L 31.229,165.163 L 32.239,165.161 L 33.249,165.141 L 34.258,165.108 L 35.268,165.066 L 36.277,165.018 L 37.286,164.967 L 38.295,164.918 L 39.304,164.876 L 40.313,164.845 L 41.324,164.833" fill="none" stroke="#000000" stroke-width="1.2" /></g><g id="path2147"><path d="M 173.460,120.782 L 174.274,120.893 L 175.089,120.994 L 175.905,121.090 L 176.721,121.183 L 177.537,121.278 L 178.352,121.377 L 179.167,121.485 L 179.980,121.605 L 180.790,121.741 L 181.597,121.895 L 182.399,122.072 L 183.199,122.259 L 183.998,122.451 L 184.795,122.649 L 185.591,122.853 L 186.385,123.063 L 187.178,123.279 L 187.968,123.504 L 188.756,123.736 L 189.541,123.977 L 190.323,124.228 L 191.103,124.487 L 191.879,124.758 L 192.651,125.039 L 193.418,125.331 L 194.181,125.635 L 194.940,125.952 L 195.692,126.281 L 196.439,126.624 L 197.179,126.981 L 197.367,127.739 L 197.662,128.433 L 198.462,128.615 L 199.277,128.724 L 200.092,128.826 L 200.902,128.961 L 201.688,129.188 L 202.348,129.624 L 202.569,130.405 L 202.526,131.225 L 202.419,132.040 L 202.281,132.849 L 202.123,133.656 L 201.952,134.459 L 201.769,135.260 L 201.578,136.059 L 201.380,136.856 L 201.175,137.652 L 200.964,138.446 L 200.749,139.239 L 200.527,140.030 L 200.301,140.819 L 200.066,141.606 L 199.791,142.378 L 199.367,143.081 L 198.864,143.731 L 198.328,144.353 L 197.773,144.959 L 197.204,145.551 L 196.625,146.134 L 196.038,146.708 L 195.442,147.275 L 194.841,147.834 L 194.233,148.387 L 193.619,148.932 L 192.998,149.470 L 192.368,149.998 L 191.726,150.511 L 191.059,150.987 L 190.302,151.303 L 189.498,151.475 L 188.686,151.600 L 187.874,151.719 L 187.067,151.871 L 186.288,152.124 L 185.620,152.601 L 185.076,153.216 L 184.566,153.860 L 183.993,154.447 L 183.286,154.861 L 182.489,155.059 L 181.669,155.102 L 180.849,155.045 L 180.035,154.938 L 179.224,154.808 L 178.412,154.679 L 177.598,154.576 L 176.778,154.524 L 175.957,154.559 L 175.154,154.731 L 174.410,155.078 L 173.786,155.611 L 173.309,156.279 L 173.009,157.044 L 172.843,157.848 L 172.742,158.664 L 172.644,159.479 L 172.485,160.285 L 172.201,161.056" fill="none" stroke="#000000" stroke-width="1.2" /></g><g id="path230"><path d="M 177.236,134.627 L 177.003,139.209 L 176.565,143.777 L 175.870,148.312 L 174.771,152.767 L 173.475,157.168 L 171.882,161.471 L 169.962,165.638 L 167.860,169.717 L 165.437,173.613 L 162.771,177.348 L 159.945,180.963 L 156.795,184.299 L 153.484,187.475 L 150.017,190.481 L 146.290,193.157 L 142.454,195.674 L 138.463,197.938 L 134.312,199.893 L 130.084,201.674 L 125.727,203.113 L 121.292,204.289 L 116.812,205.283 L 112.258,205.844 L 107.684,206.209 L 103.097,206.321 L 98.517,206.050 L 93.952,205.592 L 89.431,204.809 L 84.973,203.724 L 80.563,202.457 L 76.282,200.806 L 72.091,198.937 L 67.993,196.873 L 64.105,194.437 L 60.322,191.840 L 56.711,189.010 L 53.332,185.905 L 50.090,182.659 L 47.110,179.169 L 44.364,175.494 L 41.779,171.703 L 39.555,167.689 L 37.544,163.565 L 35.735,159.348 L 34.341,154.977 L 33.144,150.548 L 32.219,146.053 L 31.679,141.497 L 31.344,136.921 L 31.344,132.333 L 31.679,127.757 L 32.219,123.200 L 33.144,118.706 L 34.341,114.277 L 35.735,109.905 L 37.544,105.688 L 39.555,101.564 L 41.779,97.551 L 44.364,93.760 L 47.110,90.084 L 50.090,86.595 L 53.332,83.349 L 56.711,80.244 L 60.322,77.414 L 64.105,74.817 L 67.993,72.381 L 72.091,70.316 L 76.282,68.448 L 80.563,66.797 L 84.973,65.530 L 89.431,64.445 L 93.952,63.661 L 98.517,63.204 L 103.097,62.932 L 107.684,63.045 L 112.258,63.409 L 116.812,63.970 L 121.292,64.964 L 125.727,66.140 L 130.084,67.579 L 134.312,69.360 L 138.463,71.315 L 142.454,73.579 L 146.290,76.096 L 150.017,78.772 L 153.484,81.779 L 156.795,84.955 L 159.945,88.291 L 162.771,91.906 L 165.437,95.640 L 167.860,99.537 L 169.962,103.615 L 171.882,107.782 L 173.475,112.085 L 174.771,116.487 L 175.870,120.942 L 176.565,125.477 L 177.003,130.044 L 177.236,134.627" fill="#ffff00" stroke="#000000" stroke-width="1.2" /></g><g id="path393"><path d="M 99.211,133.368 L 99.158,134.668 L 99.078,135.966 L 98.922,137.257 L 98.709,138.539 L 98.447,139.813 L 98.100,141.067 L 97.722,142.311 L 97.252,143.523 L 96.735,144.717 L 96.161,145.883 L 95.504,147.006 L 94.809,148.105 L 94.031,149.147 L 93.195,150.143 L 92.315,151.101 L 91.345,151.967 L 90.330,152.779 L 89.271,153.535 L 88.137,154.171 L 86.964,154.732 L 85.757,155.216 L 84.506,155.571 L 83.229,155.817 L 81.938,155.970 L 80.638,156.010 L 79.342,155.905 L 78.057,155.706 L 76.789,155.414 L 75.562,154.985 L 74.371,154.462 L 73.217,153.863 L 72.120,153.165 L 71.083,152.380 L 70.089,151.541 L 69.165,150.626 L 68.307,149.649 L 67.491,148.636 L 66.763,147.559 L 66.088,146.448 L 65.462,145.308 L 64.928,144.122 L 64.428,142.921 L 64.010,141.690 L 63.647,140.441 L 63.334,139.179 L 63.106,137.899 L 62.908,136.614 L 62.803,135.317 L 62.737,134.019 L 62.737,132.718 L 62.803,131.419 L 62.908,130.123 L 63.106,128.838 L 63.334,127.558 L 63.647,126.296 L 64.010,125.047 L 64.428,123.815 L 64.928,122.615 L 65.462,121.429 L 66.088,120.289 L 66.763,119.178 L 67.491,118.100 L 68.307,117.088 L 69.165,116.110 L 70.089,115.195 L 71.083,114.357 L 72.120,113.572 L 73.217,112.874 L 74.371,112.275 L 75.562,111.752 L 76.789,111.323 L 78.057,111.031 L 79.342,110.831 L 80.638,110.727 L 81.938,110.767 L 83.229,110.920 L 84.506,111.166 L 85.757,111.521 L 86.964,112.004 L 88.137,112.566 L 89.271,113.202 L 90.330,113.958 L 91.345,114.770 L 92.315,115.636 L 93.195,116.594 L 94.031,117.590 L 94.809,118.631 L 95.504,119.731 L 96.161,120.853 L 96.735,122.020 L 97.252,123.213 L 97.722,124.426 L 98.100,125.670 L 98.447,126.923 L 98.709,128.197 L 98.922,129.480 L 99.078,130.771 L 99.158,132.069 L 99.211,133.368" fill="#ffffff" stroke="#000000" stroke-width="1.2" /></g><g id="path1267"><path d="M 92.918,144.065 L 92.888,144.663 L 92.833,145.259 L 92.744,145.851 L 92.604,146.433 L 92.440,147.008 L 92.236,147.571 L 91.991,148.117 L 91.724,148.653 L 91.412,149.163 L 91.071,149.655 L 90.710,150.132 L 90.303,150.571 L 89.877,150.992 L 89.429,151.388 L 88.948,151.744 L 88.452,152.080 L 87.934,152.379 L 87.396,152.640 L 86.847,152.879 L 86.279,153.069 L 85.702,153.227 L 85.119,153.361 L 84.525,153.435 L 83.928,153.484 L 83.330,153.499 L 82.733,153.463 L 82.137,153.401 L 81.548,153.297 L 80.967,153.151 L 80.394,152.981 L 79.837,152.762 L 79.293,152.512 L 78.760,152.239 L 78.258,151.915 L 77.769,151.569 L 77.301,151.196 L 76.867,150.784 L 76.451,150.354 L 76.066,149.896 L 75.715,149.411 L 75.385,148.912 L 75.098,148.386 L 74.843,147.845 L 74.610,147.294 L 74.434,146.722 L 74.282,146.143 L 74.163,145.556 L 74.095,144.962 L 74.053,144.365 L 74.053,143.766 L 74.095,143.169 L 74.163,142.575 L 74.282,141.988 L 74.434,141.409 L 74.610,140.837 L 74.843,140.286 L 75.098,139.745 L 75.385,139.219 L 75.715,138.720 L 76.066,138.235 L 76.451,137.777 L 76.867,137.347 L 77.301,136.935 L 77.769,136.562 L 78.258,136.216 L 78.760,135.891 L 79.293,135.618 L 79.837,135.368 L 80.394,135.150 L 80.967,134.979 L 81.548,134.834 L 82.137,134.730 L 82.733,134.668 L 83.330,134.632 L 83.928,134.647 L 84.525,134.696 L 85.119,134.770 L 85.702,134.903 L 86.279,135.061 L 86.847,135.252 L 87.396,135.490 L 87.934,135.752 L 88.452,136.051 L 88.948,136.386 L 89.429,136.743 L 89.877,137.139 L 90.303,137.560 L 90.710,137.998 L 91.071,138.475 L 91.412,138.967 L 91.724,139.478 L 91.991,140.014 L 92.236,140.560 L 92.440,141.122 L 92.604,141.698 L 92.744,142.280 L 92.833,142.872 L 92.888,143.468 L 92.918,144.065" fill="#2b0000" stroke="#000000" stroke-width="1.2" /></g><g id="path397"><path d="M 149.550,130.851 L 149.503,132.156 L 149.441,133.461 L 149.302,134.759 L 149.129,136.054 L 148.896,137.339 L 148.610,138.613 L 148.283,139.878 L 147.880,141.120 L 147.451,142.353 L 146.932,143.551 L 146.375,144.733 L 145.757,145.883 L 145.067,146.992 L 144.337,148.075 L 143.518,149.092 L 142.643,150.062 L 141.719,150.984 L 140.706,151.808 L 139.636,152.558 L 138.515,153.228 L 137.335,153.787 L 136.100,154.210 L 134.831,154.519 L 133.538,154.706 L 132.233,154.752 L 130.933,154.628 L 129.651,154.379 L 128.398,154.012 L 127.184,153.531 L 126.038,152.904 L 124.943,152.192 L 123.899,151.408 L 122.933,150.529 L 122.034,149.582 L 121.182,148.592 L 120.413,147.536 L 119.703,146.440 L 119.035,145.318 L 118.463,144.144 L 117.922,142.956 L 117.451,141.738 L 117.035,140.499 L 116.661,139.248 L 116.364,137.977 L 116.088,136.700 L 115.903,135.407 L 115.739,134.112 L 115.646,132.809 L 115.592,131.504 L 115.592,130.198 L 115.646,128.894 L 115.739,127.591 L 115.903,126.295 L 116.088,125.003 L 116.364,123.726 L 116.661,122.454 L 117.035,121.203 L 117.451,119.965 L 117.922,118.747 L 118.463,117.558 L 119.035,116.384 L 119.703,115.263 L 120.413,114.166 L 121.182,113.111 L 122.034,112.121 L 122.933,111.174 L 123.899,110.295 L 124.943,109.511 L 126.038,108.799 L 127.184,108.172 L 128.398,107.691 L 129.651,107.324 L 130.933,107.075 L 132.233,106.951 L 133.538,106.997 L 134.831,107.184 L 136.100,107.493 L 137.335,107.916 L 138.515,108.475 L 139.636,109.145 L 140.706,109.894 L 141.719,110.718 L 142.643,111.641 L 143.518,112.611 L 144.337,113.628 L 145.067,114.711 L 145.757,115.820 L 146.375,116.970 L 146.932,118.151 L 147.451,119.349 L 147.880,120.583 L 148.283,121.825 L 148.610,123.090 L 148.896,124.364 L 149.129,125.649 L 149.302,126.943 L 149.441,128.242 L 149.503,129.546 L 149.550,130.851" fill="#ffffff" stroke="#000000" stroke-width="1.2" /></g><g id="path1265"><path d="M 141.999,142.178 L 141.971,142.736 L 141.919,143.292 L 141.836,143.844 L 141.706,144.387 L 141.553,144.924 L 141.362,145.449 L 141.134,145.959 L 140.884,146.459 L 140.593,146.936 L 140.275,147.395 L 139.938,147.840 L 139.558,148.250 L 139.161,148.642 L 138.742,149.012 L 138.293,149.345 L 137.830,149.658 L 137.347,149.937 L 136.844,150.181 L 136.332,150.403 L 135.802,150.581 L 135.264,150.729 L 134.719,150.853 L 134.165,150.923 L 133.608,150.968 L 133.050,150.982 L 132.492,150.948 L 131.936,150.891 L 131.386,150.794 L 130.845,150.658 L 130.309,150.499 L 129.789,150.295 L 129.282,150.062 L 128.785,149.807 L 128.315,149.504 L 127.860,149.181 L 127.423,148.833 L 127.017,148.448 L 126.629,148.047 L 126.270,147.619 L 125.942,147.167 L 125.634,146.701 L 125.367,146.210 L 125.128,145.705 L 124.911,145.191 L 124.747,144.657 L 124.605,144.117 L 124.494,143.569 L 124.431,143.014 L 124.391,142.457 L 124.391,141.898 L 124.431,141.341 L 124.494,140.786 L 124.605,140.239 L 124.747,139.698 L 124.911,139.165 L 125.128,138.650 L 125.367,138.145 L 125.634,137.654 L 125.942,137.188 L 126.270,136.736 L 126.629,136.308 L 127.017,135.907 L 127.423,135.523 L 127.860,135.174 L 128.315,134.852 L 128.785,134.549 L 129.282,134.294 L 129.789,134.060 L 130.309,133.856 L 130.845,133.697 L 131.386,133.561 L 131.936,133.464 L 132.492,133.407 L 133.050,133.373 L 133.608,133.387 L 134.165,133.433 L 134.719,133.502 L 135.264,133.626 L 135.802,133.774 L 136.332,133.952 L 136.844,134.174 L 137.347,134.418 L 137.830,134.698 L 138.293,135.011 L 138.742,135.343 L 139.161,135.713 L 139.558,136.106 L 139.938,136.515 L 140.275,136.960 L 140.593,137.420 L 140.884,137.896 L 141.134,138.396 L 141.362,138.906 L 141.553,139.431 L 141.706,139.968 L 141.836,140.511 L 141.919,141.064 L 141.971,141.620 L 141.999,142.178" fill="#2b0000" stroke="#000000" stroke-width="1.2" /></g><g id="path1439"><path d="M 105.503,152.245 L 104.889,152.575 L 104.281,152.917 L 103.679,153.269 L 103.081,153.628 L 102.487,153.993 L 101.897,154.364 L 101.309,154.740 L 100.725,155.121 L 100.144,155.506 L 99.566,155.896 L 98.991,156.290 L 98.419,156.690 L 97.850,157.093 L 97.285,157.502 L 96.724,157.915 L 96.166,158.334 L 95.613,158.759 L 95.065,159.190 L 94.523,159.629 L 93.988,160.076 L 93.461,160.533 L 92.944,161.000 L 92.441,161.484 L 91.955,161.984 L 91.494,162.507 L 91.040,163.036 L 90.588,163.567 L 90.141,164.102 L 89.701,164.643 L 89.271,165.192 L 88.853,165.751 L 88.451,166.320 L 88.068,166.903 L 87.707,167.500 L 87.373,168.112 L 87.069,168.739 L 86.800,169.383 L 86.585,170.046 L 86.587,170.741 L 86.689,171.431 L 86.690,172.128 L 86.358,172.736 L 85.920,173.278 L 85.480,173.819 L 85.045,174.364 L 84.620,174.917 L 84.207,175.479 L 83.810,176.052 L 83.439,176.643 L 83.108,177.256 L 82.855,177.906 L 82.833,178.601 L 83.218,179.177 L 83.777,179.592 L 84.419,179.865 L 85.095,180.032 L 85.786,180.129 L 86.482,180.173 L 87.179,180.182 L 87.876,180.165 L 88.573,180.129 L 89.268,180.081 L 89.963,180.024 L 90.658,179.964 L 91.353,179.906 L 92.049,179.858 L 92.745,179.829 L 93.443,179.838 L 94.134,179.926 L 94.681,180.352 L 95.076,180.926 L 95.687,181.259 L 96.373,181.384 L 97.065,181.469 L 97.760,181.534 L 98.455,181.584 L 99.151,181.623 L 99.848,181.653 L 100.545,181.674 L 101.242,181.686 L 101.940,181.688 L 102.637,181.681 L 103.334,181.663 L 104.031,181.631 L 104.726,181.582 L 105.420,181.508 L 106.108,181.394 L 106.772,181.183 L 107.341,180.781 L 107.816,180.270 L 108.247,179.722 L 108.694,179.187 L 109.213,178.721 L 109.800,178.345 L 110.413,178.013 L 111.058,177.749 L 111.723,177.539 L 111.805,176.854 L 111.796,176.157" fill="none" stroke="#000000" stroke-width="1.2" /></g><g id="path2136"><path d="M 84.104,195.033 L 84.603,195.255 L 85.101,195.476 L 85.605,195.684 L 86.110,195.890 L 86.619,196.085 L 87.129,196.277 L 87.644,196.459 L 88.158,196.639 L 88.677,196.809 L 89.195,196.977 L 89.717,197.134 L 90.240,197.291 L 90.765,197.436 L 91.291,197.581 L 91.819,197.716 L 92.348,197.850 L 92.879,197.975 L 93.410,198.097 L 93.943,198.212 L 94.477,198.323 L 95.012,198.429 L 95.548,198.529 L 96.084,198.626 L 96.622,198.715 L 97.160,198.803 L 97.700,198.881 L 98.240,198.959 L 98.781,199.028 L 99.322,199.094 L 99.864,199.154 L 100.406,199.210 L 100.949,199.261 L 101.493,199.306 L 102.036,199.348 L 102.580,199.382 L 103.125,199.414 L 103.670,199.438 L 104.214,199.459 L 104.760,199.473 L 105.305,199.483 L 105.850,199.487 L 106.395,199.486 L 106.941,199.480 L 107.486,199.467 L 108.031,199.451 L 108.575,199.426 L 109.120,199.399 L 109.664,199.362 L 110.208,199.322 L 110.751,199.274 L 111.294,199.221 L 111.836,199.160 L 112.377,199.094 L 112.917,199.021 L 113.457,198.942 L 113.995,198.855 L 114.532,198.761 L 115.068,198.661 L 115.602,198.552 L 116.135,198.437 L 116.666,198.312 L 117.195,198.181 L 117.722,198.039 L 118.247,197.891 L 118.768,197.732 L 119.286,197.561 L 119.716,197.247 L 120.048,196.817 L 120.424,196.427 L 120.921,196.253 L 121.462,196.268 L 122.000,196.352 L 122.543,196.397 L 123.069,196.290 L 123.566,196.068 L 124.053,195.822 L 124.539,195.575 L 125.023,195.325 L 125.507,195.073 L 125.989,194.818 L 126.470,194.561 L 126.948,194.299 L 127.423,194.032 L 127.896,193.760 L 128.362,193.477 L 128.820,193.181 L 129.257,192.856 L 129.456,192.392 L 128.972,192.359 L 128.435,192.454 L 127.905,192.581 L 128.307,192.445 L 128.826,192.279 L 129.345,192.111 L 129.864,191.942 L 130.382,191.772 L 130.900,191.601 L 131.417,191.429 L 131.934,191.257" fill="none" stroke="#000000" stroke-width="1.2" /></g></svg>