<?xml version='1.0' encoding='utf-8'?>
<svg xmlns="http://www.w3.org/2000/svg" width="210" height="297" viewBox="0 0 210 297"><g id="path2717"><path d="M 32.455,123.264 L 31.492,123.568 L 30.514,123.820 L 29.524,124.023 L 28.527,124.181 L 27.523,124.299 L 26.517,124.380 L 25.508,124.431 L 24.498,124.455 L 23.488,124.458 L 22.478,124.447 L 21.468,124.427 L 20.458,124.401 L 19.448,124.376 L 18.438,124.356 L 17.428,124.347 L 16.418,124.355 L 15.408,124.386 L 14.400,124.443 L 13.394,124.534 L 12.393,124.669 L 11.399,124.851 L 10.417,125.086 L 9.450,125.377 L 8.502,125.728 L 7.583,126.145 L 6.696,126.629 L 5.863,127.199 L 5.399,128.079 L 5.229,129.071 L 5.063,130.067 L 4.604,130.960 L 3.837,131.605 L 3.457,132.523 L 3.464,133.527 L 3.567,134.532 L 3.553,135.541 L 3.332,136.525 L 3.061,137.498 L 2.695,138.439 L 2.328,137.706 L 2.155,136.719 L 1.470,136.387 L 0.969,137.253 L 0.722,138.230 L 0.616,139.234 L 0.561,140.243 L 0.540,141.253 L 0.543,142.263 L 0.569,143.273 L 0.618,144.282 L 0.694,145.289 L 0.815,146.291 L 1.041,147.272 L 1.456,148.191 L 2.010,149.034 L 2.668,149.799 L 3.399,150.495 L 4.184,151.130 L 5.009,151.713 L 5.863,152.253 L 6.737,152.758 L 7.629,153.233 L 8.533,153.684 L 9.446,154.116 L 10.366,154.534 L 11.289,154.944 L 12.212,155.353 L 13.130,155.775 L 14.031,156.232 L 14.899,156.747 L 15.721,157.334 L 16.485,157.994 L 17.186,158.721 L 17.837,159.493 L 18.468,160.282 L 19.118,161.055 L 19.823,161.778 L 20.594,162.430 L 21.427,163.000 L 22.308,163.494 L 23.229,163.910 L 24.180,164.248 L 25.154,164.517 L 26.143,164.723 L 27.141,164.878 L 28.144,164.992 L 29.152,165.066 L 30.161,165.111 L 31.171,165.129 L 32.181,165.127 L 33.191,165.107 L 34.201,165.074 L 35.210,165.032 L 36.219,164.983 L 37.228,164.933 L 38.237,164.884 L 39.246,164.842 L 40.256,164.811 L 41.266,164.798" fill="none" stroke="#000000" stroke-width="1.2" /></g><g id="path2147"><path d="M 173.488,120.751 L 174.302,120.861 L 175.118,120.963 L 175.934,121.058 L 176.750,121.151 L 177.566,121.246 L 178.381,121.346 L 179.196,121.454 L 180.008,121.574 L 180.819,121.709 L 181.625,121.864 L 182.428,122.040 L 183.228,122.227 L 184.026,122.420 L 184.824,122.617 L 185.620,122.821 L 186.414,123.031 L 187.206,123.248 L 187.997,123.472 L 188.785,123.705 L 189.570,123.946 L 190.352,124.196 L 191.132,124.456 L 191.907,124.726 L 192.679,125.007 L 193.447,125.300 L 194.210,125.604 L 194.968,125.920 L 195.721,126.250 L 196.467,126.593 L 197.207,126.949 L 197.396,127.708 L 197.691,128.401 L 198.491,128.584 L 199.305,128.693 L 200.121,128.795 L 200.930,128.930 L 201.717,129.156 L 202.377,129.592 L 202.598,130.374 L 202.555,131.194 L 202.448,132.008 L 202.310,132.818 L 202.152,133.624 L 201.981,134.428 L 201.798,135.229 L 201.607,136.028 L 201.409,136.825 L 201.204,137.620 L 200.993,138.414 L 200.777,139.207 L 200.556,139.998 L 200.330,140.788 L 200.094,141.575 L 199.820,142.347 L 199.395,143.050 L 198.893,143.699 L 198.357,144.322 L 197.802,144.928 L 197.233,145.520 L 196.654,146.103 L 196.066,146.677 L 195.471,147.243 L 194.870,147.803 L 194.262,148.356 L 193.648,148.901 L 193.026,149.438 L 192.397,149.966 L 191.755,150.479 L 191.088,150.955 L 190.330,151.271 L 189.527,151.443 L 188.715,151.568 L 187.902,151.687 L 187.096,151.840 L 186.316,152.093 L 185.649,152.569 L 185.105,153.185 L 184.594,153.828 L 184.022,154.415 L 183.314,154.829 L 182.518,155.027 L 181.698,155.070 L 180.878,155.014 L 180.064,154.906 L 179.253,154.776 L 178.441,154.648 L 177.626,154.544 L 176.807,154.493 L 175.986,154.527 L 175.183,154.700 L 174.439,155.046 L 173.815,155.580 L 173.338,156.248 L 173.038,157.012 L 172.872,157.817 L 172.771,158.632 L 172.673,159.448 L 172.514,160.254 L 172.230,161.025" fill="none" stroke="#000000" stroke-width="1.2" /></g><g id="path230"><path d="M 177.236,134.627 L 177.003,139.209 L 176.565,143.777 L 175.870,148.312 L 174.771,152.767 L 173.475,157.168 L 171.882,161.471 L 169.962,165.638 L 167.860,169.717 L 165.437,173.613 L 162.771,177.348 L 159.945,180.963 L 156.795,184.299 L 153.484,187.475 L 150.017,190.481 L 146.290,193.157 L 142.454,195.674 L 138.463,197.938 L 134.312,199.893 L 130.083,201.674 L 125.726,203.113 L 121.291,204.289 L 116.812,205.283 L 112.258,205.844 L 107.684,206.209 L 103.097,206.321 L 98.517,206.050 L 93.952,205.592 L 89.431,204.809 L 84.972,203.724 L 80.562,202.457 L 76.282,200.806 L 72.091,198.937 L 67.993,196.873 L 64.105,194.437 L 60.322,191.840 L 56.711,189.010 L 53.332,185.905 L 50.090,182.659 L 47.110,179.169 L 44.364,175.494 L 41.779,171.703 L 39.555,167.689 L 37.544,163.565 L 35.735,159.348 L 34.341,154.977 L 33.144,150.548 L 32.219,146.053 L 31.679,141.497 L 31.343,136.921 L 31.343,132.333 L 31.679,127.757 L 32.219,123.200 L 33.144,118.706 L 34.341,114.277 L 35.735,109.905 L 37.544,105.688 L 39.555,101.564 L 41.779,97.551 L 44.364,93.760 L 47.110,90.084 L 50.090,86.595 L 53.332,83.349 L 56.711,80.244 L 60.322,77.414 L 64.105,74.817 L 67.993,72.381 L 72.091,70.316 L 76.282,68.448 L 80.562,66.797 L 84.972,65.530 L 89.431,64.445 L 93.952,63.661 L 98.517,63.204 L 103.097,62.932 L 107.684,63.045 L 112.258,63.409 L 116.812,63.970 L 121.291,64.964 L 125.726,66.140 L 130.083,67.579 L 134.312,69.360 L 138.463,71.315 L 142.454,73.579 L 146.290,76.096 L 150.017,78.772 L 153.484,81.779 L 156.795,84.955 L 159.945,88.291 L 162.771,91.906 L 165.437,95.640 L 167.860,99.537 L 169.962,103.615 L 171.882,107.782 L 173.475,112.085 L 174.771,116.487 L 175.870,120.942 L 176.565,125.477 L 177.003,130.044 L 177.236,134.627" fill="#ffff00" stroke="#000000" stroke-width="1.2" /></g><g id="path393"><path d="M 99.210,133.368 L 99.158,134.668 L 99.078,135.966 L 98.921,137.257 L 98.708,138.540 L 98.447,139.813 L 98.100,141.067 L 97.722,142.311 L 97.251,143.523 L 96.735,144.717 L 96.160,145.883 L 95.504,147.006 L 94.809,148.105 L 94.031,149.147 L 93.194,150.143 L 92.315,151.101 L 91.345,151.967 L 90.330,152.779 L 89.271,153.535 L 88.137,154.171 L 86.964,154.732 L 85.757,155.216 L 84.506,155.571 L 83.229,155.817 L 81.937,155.970 L 80.638,156.010 L 79.341,155.905 L 78.056,155.706 L 76.789,155.414 L 75.562,154.985 L 74.371,154.462 L 73.217,153.863 L 72.120,153.165 L 71.083,152.380 L 70.089,151.541 L 69.165,150.626 L 68.307,149.649 L 67.491,148.636 L 66.763,147.559 L 66.088,146.448 L 65.462,145.308 L 64.927,144.122 L 64.428,142.921 L 64.010,141.690 L 63.647,140.441 L 63.334,139.179 L 63.106,137.899 L 62.908,136.614 L 62.803,135.317 L 62.737,134.019 L 62.737,132.718 L 62.803,131.419 L 62.908,130.123 L 63.106,128.838 L 63.334,127.558 L 63.647,126.296 L 64.010,125.047 L 64.428,123.815 L 64.927,122.615 L 65.462,121.429 L 66.088,120.289 L 66.763,119.178 L 67.491,118.100 L 68.307,117.088 L 69.165,116.110 L 70.089,115.195 L 71.083,114.357 L 72.120,113.572 L 73.217,112.874 L 74.371,112.275 L 75.562,111.752 L 76.789,111.323 L 78.056,111.031 L 79.341,110.831 L 80.638,110.727 L 81.937,110.767 L 83.229,110.920 L 84.506,111.166 L 85.757,111.521 L 86.964,112.004 L 88.137,112.566 L 89.271,113.202 L 90.330,113.958 L 91.345,114.770 L 92.315,115.636 L 93.194,116.594 L 94.031,117.590 L 94.809,118.631 L 95.504,119.731 L 96.160,120.853 L 96.735,122.020 L 97.251,123.213 L 97.722,124.426 L 98.100,125.670 L 98.447,126.923 L 98.708,128.197 L 98.921,129.480 L 99.078,130.771 L 99.158,132.069 L 99.210,133.368" fill="#ffffff" stroke="#000000" stroke-width="1.2" /></g><g id="path1267"><path d="M 92.918,144.065 L 92.888,144.663 L 92.833,145.259 L 92.744,145.851 L 92.604,146.433 L 92.440,147.008 L 92.236,147.571 L 91.991,148.117 L 91.724,148.653 L 91.412,149.163 L 91.071,149.655 L 90.710,150.132 L 90.303,150.571 L 89.877,150.992 L 89.429,151.388 L 88.948,151.744 L 88.452,152.080 L 87.934,152.379 L 87.396,152.640 L 86.847,152.879 L 86.279,153.069 L 85.702,153.227 L 85.119,153.361 L 84.525,153.435 L 83.928,153.484 L 83.330,153.499 L 82.733,153.463 L 82.137,153.401 L 81.548,153.297 L 80.967,153.151 L 80.394,152.981 L 79.837,152.762 L 79.293,152.512 L 78.760,152.239 L 78.258,151.915 L 77.769,151.569 L 77.301,151.196 L 76.867,150.784 L 76.451,150.354 L 76.066,149.896 L 75.715,149.411 L 75.385,148.912 L 75.098,148.386 L 74.843,147.845 L 74.610,147.294 L 74.434,146.722 L 74.282,146.143 L 74.163,145.556 L 74.095,144.962 L 74.053,144.365 L 74.053,143.766 L 74.095,143.169 L 74.163,142.575 L 74.282,141.988 L 74.434,141.409 L 74.610,140.837 L 74.843,140.286 L 75.098,139.745 L 75.385,139.219 L 75.715,138.720 L 76.066,138.235 L 76.451,137.777 L 76.867,137.347 L 77.301,136.935 L 77.769,136.562 L 78.258,136.216 L 78.760,135.891 L 79.293,135.618 L 79.837,135.368 L 80.394,135.150 L 80.967,134.979 L 81.548,134.834 L 82.137,134.730 L 82.733,134.668 L 83.330,134.632 L 83.928,134.647 L 84.525,134.696 L 85.119,134.770 L 85.702,134.903 L 86.279,135.061 L 86.847,135.252 L 87.396,135.490 L 87.934,135.752 L 88.452,136.051 L 88.948,136.386 L 89.429,136.743 L 89.877,137.139 L 90.303,137.560 L 90.710,137.998 L 91.071,138.475 L 91.412,138.968 L 91.724,139.478 L 91.991,140.014 L 92.236,140.560 L 92.440,141.122 L 92.604,141.698 L 92.744,142.280 L 92.833,142.872 L 92.888,143.468 L 92.918,144.065" fill="#2b0000" stroke="#000000" stroke-width="1.2" /></g><g id="path397"><path d="M 149.550,130.851 L 149.503,132.156 L 149.441,133.461 L 149.302,134.759 L 149.129,136.054 L 148.896,137.339 L 148.610,138.613 L 148.283,139.878 L 147.880,141.120 L 147.451,142.353 L 146.932,143.551 L 146.375,144.733 L 145.757,145.883 L 145.067,146.992 L 144.337,148.075 L 143.518,149.092 L 142.643,150.062 L 141.719,150.984 L 140.706,151.808 L 139.636,152.558 L 138.515,153.228 L 137.335,153.787 L 136.100,154.210 L 134.831,154.519 L 133.538,154.706 L 132.233,154.752 L 130.933,154.628 L 129.651,154.379 L 128.398,154.012 L 127.184,153.531 L 126.038,152.904 L 124.943,152.192 L 123.899,151.408 L 122.933,150.529 L 122.034,149.582 L 121.182,148.592 L 120.413,147.536 L 119.703,146.440 L 119.035,145.318 L 118.463,144.144 L 117.922,142.956 L 117.451,141.738 L 117.035,140.499 L 116.661,139.248 L 116.364,137.977 L 116.088,136.700 L 115.903,135.407 L 115.739,134.112 L 115.646,132.809 L 115.592,131.504 L 115.592,130.198 L 115.646,128.894 L 115.739,127.591 L 115.903,126.295 L 116.088,125.003 L 116.364,123.726 L 116.661,122.454 L 117.035,121.203 L 117.451,119.965 L 117.922,118.747 L 118.463,117.558 L 119.035,116.384 L 119.703,115.263 L 120.413,114.166 L 121.182,113.111 L 122.034,112.121 L 122.933,111.174 L 123.899,110.295 L 124.943,109.511 L 126.038,108.799 L 127.184,108.172 L 128.398,107.691 L 129.651,107.324 L 130.933,107.075 L 132.233,106.951 L 133.538,106.997 L 134.831,107.184 L 136.100,107.493 L 137.335,107.916 L 138.515,108.475 L 139.636,109.145 L 140.706,109.894 L 141.719,110.718 L 142.643,111.641 L 143.518,112.611 L 144.337,113.628 L 145.067,114.711 L 145.757,115.820 L 146.375,116.970 L 146.932,118.151 L 147.451,119.349 L 147.880,120.583 L 148.283,121.825 L 148.610,123.090 L 148.896,124.364 L 149.129,125.649 L 149.302,126.943 L 149.441,128.242 L 149.503,129.546 L 149.550,130.851" fill="#ffffff" stroke="#000000" stroke-width="1.2" /></g><g id="path1265"><path d="M 141.999,142.178 L 141.971,142.736 L 141.919,143.292 L 141.836,143.844 L 141.706,144.387 L 141.553,144.924 L 141.361,145.449 L 141.134,145.959 L 140.884,146.459 L 140.593,146.936 L 140.275,147.395 L 139.938,147.840 L 139.558,148.250 L 139.161,148.642 L 138.742,149.012 L 138.293,149.345 L 137.830,149.658 L 137.347,149.937 L 136.844,150.181 L 136.332,150.403 L 135.802,150.581 L 135.264,150.729 L 134.719,150.853 L 134.165,150.923 L 133.608,150.968 L 133.050,150.982 L 132.492,150.948 L 131.936,150.891 L 131.386,150.794 L 130.845,150.658 L 130.309,150.499 L 129.789,150.295 L 129.282,150.062 L 128.785,149.807 L 128.315,149.504 L 127.860,149.181 L 127.423,148.833 L 127.017,148.448 L 126.629,148.047 L 126.270,147.619 L 125.942,147.167 L 125.634,146.701 L 125.367,146.210 L 125.128,145.705 L 124.911,145.191 L 124.747,144.657 L 124.605,144.117 L 124.494,143.569 L 124.431,143.014 L 124.391,142.457 L 124.391,141.898 L 124.431,141.341 L 124.494,140.786 L 124.605,140.239 L 124.747,139.698 L 124.911,139.165 L 125.128,138.650 L 125.367,138.145 L 125.634,137.654 L 125.942,137.188 L 126.270,136.736 L 126.629,136.308 L 127.017,135.907 L 127.423,135.523 L 127.860,135.174 L 128.315,134.852 L 128.785,134.549 L 129.282,134.294 L 129.789,134.060 L 130.309,133.856 L 130.845,133.697 L 131.386,133.561 L 131.936,133.464 L 132.492,133.407 L 133.050,133.373 L 133.608,133.387 L 134.165,133.433 L 134.719,133.502 L 135.264,133.626 L 135.802,133.774 L 136.332,133.952 L 136.844,134.174 L 137.347,134.418 L 137.830,134.698 L 138.293,135.011 L 138.742,135.343 L 139.161,135.713 L 139.558,136.106 L 139.938,136.515 L 140.275,136.960 L 140.593,137.420 L 140.884,137.896 L 141.134,138.396 L 141.361,138.906 L 141.553,139.431 L 141.706,139.968 L 141.836,140.511 L 141.919,141.064 L 141.971,141.620 L 141.999,142.178" fill="#2b0000" stroke="#000000" stroke-width="1.2" /></g><g id="path1439"><path d="M 105.502,152.254 L 104.888,152.585 L 104.280,152.927 L 103.678,153.278 L 103.080,153.637 L 102.486,154.002 L 101.896,154.373 L 101.309,154.749 L 100.724,155.130 L 100.143,155.515 L 99.565,155.905 L 98.990,156.300 L 98.418,156.699 L 97.849,157.103 L 97.284,157.511 L 96.723,157.925 L 96.165,158.344 L 95.612,158.769 L 95.064,159.200 L 94.522,159.638 L 93.987,160.086 L 93.460,160.542 L 92.943,161.010 L 92.440,161.493 L 91.954,161.993 L 91.493,162.516 L 91.039,163.045 L 90.587,163.577 L 90.140,164.112 L 89.700,164.653 L 89.270,165.202 L 88.852,165.760 L 88.450,166.330 L 88.067,166.912 L 87.706,167.509 L 87.372,168.121 L 87.068,168.748 L 86.799,169.392 L 86.584,170.055 L 86.586,170.751 L 86.688,171.440 L 86.689,172.137 L 86.357,172.745 L 85.919,173.287 L 85.479,173.828 L 85.045,174.374 L 84.619,174.926 L 84.206,175.488 L 83.809,176.062 L 83.438,176.652 L 83.107,177.265 L 82.855,177.915 L 82.832,178.610 L 83.217,179.186 L 83.776,179.602 L 84.418,179.874 L 85.095,180.042 L 85.785,180.138 L 86.481,180.182 L 87.178,180.191 L 87.875,180.175 L 88.572,180.138 L 89.267,180.090 L 89.963,180.033 L 90.657,179.973 L 91.352,179.916 L 92.048,179.867 L 92.745,179.838 L 93.442,179.847 L 94.133,179.935 L 94.680,180.361 L 95.075,180.935 L 95.686,181.268 L 96.372,181.393 L 97.065,181.478 L 97.759,181.543 L 98.454,181.593 L 99.151,181.633 L 99.847,181.662 L 100.544,181.683 L 101.242,181.695 L 101.939,181.697 L 102.636,181.690 L 103.333,181.672 L 104.030,181.641 L 104.726,181.591 L 105.419,181.517 L 106.107,181.404 L 106.771,181.192 L 107.341,180.790 L 107.815,180.280 L 108.246,179.732 L 108.693,179.196 L 109.212,178.731 L 109.799,178.354 L 110.412,178.022 L 111.058,177.759 L 111.723,177.548 L 111.805,176.863 L 111.795,176.166" fill="none" stroke="#000000" stroke-width="1.2" /></g><g id="path2136"><path d="M 84.195,195.014 L 84.693,195.236 L 85.192,195.456 L 85.696,195.664 L 86.201,195.871 L 86.710,196.065 L 87.220,196.258 L 87.734,196.440 L 88.249,196.620 L 88.767,196.789 L 89.286,196.957 L 89.808,197.115 L 90.330,197.271 L 90.856,197.417 L 91.382,197.562 L 91.910,197.697 L 92.439,197.830 L 92.969,197.955 L 93.501,198.077 L 94.034,198.193 L 94.568,198.304 L 95.102,198.410 L 95.638,198.510 L 96.175,198.607 L 96.713,198.696 L 97.251,198.783 L 97.791,198.862 L 98.331,198.939 L 98.872,199.008 L 99.413,199.075 L 99.955,199.135 L 100.497,199.190 L 101.040,199.241 L 101.583,199.286 L 102.127,199.328 L 102.671,199.362 L 103.216,199.395 L 103.760,199.418 L 104.305,199.440 L 104.850,199.453 L 105.396,199.463 L 105.941,199.468 L 106.486,199.466 L 107.031,199.460 L 107.576,199.447 L 108.121,199.431 L 108.666,199.406 L 109.211,199.379 L 109.755,199.342 L 110.299,199.302 L 110.842,199.254 L 111.384,199.201 L 111.926,199.141 L 112.468,199.075 L 113.008,199.002 L 113.547,198.922 L 114.086,198.836 L 114.623,198.742 L 115.159,198.642 L 115.693,198.532 L 116.226,198.417 L 116.757,198.292 L 117.286,198.161 L 117.813,198.020 L 118.337,197.872 L 118.859,197.713 L 119.377,197.542 L 119.807,197.227 L 120.139,196.798 L 120.514,196.407 L 121.012,196.234 L 121.552,196.249 L 122.091,196.332 L 122.633,196.378 L 123.160,196.270 L 123.657,196.049 L 124.143,195.803 L 124.629,195.555 L 125.114,195.305 L 125.598,195.054 L 126.080,194.799 L 126.560,194.541 L 127.038,194.279 L 127.514,194.013 L 127.986,193.740 L 128.453,193.458 L 128.911,193.161 L 129.348,192.836 L 129.547,192.373 L 129.063,192.339 L 128.526,192.434 L 127.996,192.561 L 128.398,192.425 L 128.917,192.259 L 129.436,192.091 L 129.954,191.922 L 130.472,191.752 L 130.990,191.581 L 131.508,191.410 L 132.025,191.238" fill="none" stroke="#000000" stroke-width="1.2" /></g></svg>