<?xml version='1.0' encoding='utf-8'?>
<svg xmlns="http://www.w3.org/2000/svg" width="210" height="297" viewBox="0 0 210 297"><g id="path2717"><path d="M 126.670,174.847 L 125.707,175.151 L 124.728,175.403 L 123.739,175.606 L 122.741,175.764 L 121.738,175.881 L 120.731,175.963 L 119.722,176.014 L 118.712,176.037 L 117.702,176.041 L 116.692,176.030 L 115.682,176.009 L 114.672,175.984 L 113.662,175.958 L 112.653,175.938 L 111.642,175.930 L 110.632,175.938 L 109.623,175.968 L 108.614,176.026 L 107.608,176.117 L 106.607,176.251 L 105.614,176.434 L 104.631,176.669 L 103.664,176.960 L 102.717,177.311 L 101.797,177.728 L 100.911,178.211 L 100.077,178.782 L 99.613,179.662 L 99.443,180.654 L 99.277,181.650 L 98.819,182.543 L 98.052,183.188 L 97.672,184.106 L 97.679,185.110 L 97.781,186.115 L 97.767,187.124 L 97.547,188.108 L 97.276,189.081 L 96.909,190.022 L 96.543,189.289 L 96.369,188.302 L 95.684,187.969 L 95.183,188.836 L 94.936,189.813 L 94.830,190.817 L 94.776,191.826 L 94.754,192.836 L 94.758,193.846 L 94.784,194.856 L 94.832,195.865 L 94.909,196.872 L 95.030,197.874 L 95.255,198.855 L 95.671,199.774 L 96.225,200.616 L 96.882,201.382 L 97.614,202.078 L 98.399,202.713 L 99.224,203.296 L 100.077,203.836 L 100.952,204.341 L 101.843,204.816 L 102.747,205.267 L 103.660,205.699 L 104.580,206.117 L 105.503,206.527 L 106.427,206.936 L 107.344,207.358 L 108.245,207.814 L 109.114,208.330 L 109.935,208.917 L 110.699,209.577 L 111.401,210.303 L 112.052,211.076 L 112.682,211.865 L 113.333,212.637 L 114.037,213.361 L 114.808,214.013 L 115.641,214.583 L 116.523,215.077 L 117.443,215.492 L 118.395,215.831 L 119.368,216.100 L 120.357,216.305 L 121.355,216.461 L 122.359,216.575 L 123.366,216.648 L 124.375,216.693 L 125.385,216.712 L 126.395,216.709 L 127.405,216.690 L 128.415,216.657 L 129.424,216.615 L 130.433,216.566 L 131.442,216.516 L 132.451,216.467 L 133.460,216.425 L 134.470,216.394 L 135.480,216.381" fill="none" stroke="#000000" stroke-width="1.2" /></g><g id="path2147"><path d="M 99.114,93.206 L 99.928,93.316 L 100.743,93.417 L 101.559,93.513 L 102.375,93.606 L 103.191,93.701 L 104.007,93.801 L 104.821,93.909 L 105.634,94.029 L 106.444,94.164 L 107.251,94.319 L 108.053,94.495 L 108.853,94.682 L 109.652,94.875 L 110.449,95.072 L 111.245,95.276 L 112.039,95.486 L 112.832,95.703 L 113.622,95.927 L 114.410,96.160 L 115.195,96.401 L 115.978,96.651 L 116.757,96.911 L 117.533,97.181 L 118.305,97.462 L 119.073,97.755 L 119.836,98.059 L 120.594,98.375 L 121.346,98.705 L 122.093,99.048 L 122.833,99.404 L 123.022,100.163 L 123.316,100.856 L 124.117,101.039 L 124.931,101.148 L 125.746,101.249 L 126.556,101.385 L 127.343,101.611 L 128.003,102.047 L 128.223,102.829 L 128.180,103.649 L 128.073,104.463 L 127.935,105.273 L 127.778,106.079 L 127.606,106.883 L 127.424,107.684 L 127.233,108.483 L 127.034,109.280 L 126.829,110.075 L 126.619,110.869 L 126.403,111.662 L 126.182,112.453 L 125.955,113.243 L 125.720,114.030 L 125.445,114.802 L 125.021,115.505 L 124.518,116.154 L 123.983,116.777 L 123.427,117.383 L 122.858,117.975 L 122.279,118.558 L 121.692,119.132 L 121.097,119.698 L 120.495,120.258 L 119.887,120.811 L 119.273,121.356 L 118.652,121.893 L 118.022,122.421 L 117.381,122.934 L 116.713,123.410 L 115.956,123.726 L 115.153,123.898 L 114.341,124.023 L 113.528,124.142 L 112.721,124.295 L 111.942,124.548 L 111.274,125.024 L 110.730,125.640 L 110.220,126.283 L 109.647,126.870 L 108.940,127.284 L 108.143,127.482 L 107.323,127.525 L 106.504,127.469 L 105.689,127.361 L 104.878,127.231 L 104.067,127.102 L 103.252,126.999 L 102.432,126.948 L 101.612,126.982 L 100.809,127.155 L 100.064,127.501 L 99.441,128.035 L 98.963,128.703 L 98.663,129.467 L 98.497,130.272 L 98.397,131.087 L 98.298,131.903 L 98.140,132.709 L 97.855,133.480" fill="none" stroke="#000000" stroke-width="1.2" /></g><g id="path230"><path d="M 191.135,155.449 L 190.902,160.032 L 190.464,164.599 L 189.768,169.135 L 188.670,173.590 L 187.374,177.991 L 185.781,182.294 L 183.861,186.461 L 181.759,190.540 L 179.336,194.436 L 176.669,198.170 L 173.844,201.785 L 170.694,205.122 L 167.383,208.298 L 163.916,211.304 L 160.189,213.980 L 156.353,216.497 L 152.362,218.761 L 148.211,220.716 L 143.982,222.497 L 139.625,223.936 L 135.190,225.112 L 130.711,226.106 L 126.157,226.667 L 121.583,227.031 L 116.996,227.144 L 112.416,226.872 L 107.850,226.415 L 103.329,225.632 L 98.871,224.546 L 94.461,223.279 L 90.180,221.628 L 85.990,219.760 L 81.892,217.695 L 78.004,215.259 L 74.221,212.663 L 70.610,209.832 L 67.231,206.728 L 63.988,203.481 L 61.009,199.992 L 58.262,196.316 L 55.678,192.525 L 53.454,188.512 L 51.443,184.388 L 49.634,180.171 L 48.240,175.800 L 47.043,171.370 L 46.118,166.876 L 45.578,162.320 L 45.242,157.744 L 45.242,153.155 L 45.578,148.579 L 46.118,144.023 L 47.043,139.529 L 48.240,135.099 L 49.634,130.728 L 51.443,126.511 L 53.454,122.387 L 55.678,118.374 L 58.262,114.582 L 61.009,110.907 L 63.988,107.418 L 67.231,104.171 L 70.610,101.067 L 74.221,98.236 L 78.004,95.639 L 81.892,93.203 L 85.990,91.139 L 90.180,89.271 L 94.461,87.619 L 98.871,86.353 L 103.329,85.267 L 107.850,84.484 L 112.416,84.026 L 116.996,83.755 L 121.583,83.868 L 126.157,84.232 L 130.711,84.793 L 135.190,85.787 L 139.625,86.963 L 143.982,88.402 L 148.211,90.183 L 152.362,92.138 L 156.353,94.402 L 160.189,96.919 L 163.916,99.595 L 167.383,102.601 L 170.694,105.777 L 173.844,109.114 L 176.669,112.729 L 179.336,116.463 L 181.759,120.359 L 183.861,124.438 L 185.781,128.605 L 187.374,132.908 L 188.670,137.309 L 189.768,141.764 L 190.464,146.300 L 190.902,150.867 L 191.135,155.449" fill="#ffff00" stroke="#000000" stroke-width="1.2" /></g><g id="path393"><path d="M 138.197,167.993 L 138.145,169.293 L 138.065,170.591 L 137.908,171.882 L 137.695,173.164 L 137.434,174.438 L 137.087,175.692 L 136.708,176.936 L 136.238,178.148 L 135.721,179.341 L 135.147,180.508 L 134.491,181.631 L 133.796,182.730 L 133.017,183.772 L 132.181,184.767 L 131.301,185.725 L 130.331,186.592 L 129.316,187.404 L 128.258,188.160 L 127.123,188.796 L 125.950,189.357 L 124.743,189.841 L 123.492,190.196 L 122.215,190.442 L 120.924,190.594 L 119.624,190.635 L 118.328,190.530 L 117.043,190.331 L 115.776,190.039 L 114.548,189.610 L 113.358,189.086 L 112.203,188.488 L 111.106,187.790 L 110.069,187.005 L 109.075,186.166 L 108.151,185.251 L 107.293,184.274 L 106.478,183.261 L 105.749,182.184 L 105.074,181.072 L 104.448,179.932 L 103.914,178.747 L 103.414,177.546 L 102.996,176.315 L 102.634,175.066 L 102.320,173.804 L 102.093,172.524 L 101.894,171.238 L 101.790,169.942 L 101.724,168.643 L 101.724,167.343 L 101.790,166.044 L 101.894,164.748 L 102.093,163.463 L 102.320,162.182 L 102.634,160.920 L 102.996,159.672 L 103.414,158.440 L 103.914,157.240 L 104.448,156.054 L 105.074,154.914 L 105.749,153.803 L 106.478,152.725 L 107.293,151.712 L 108.151,150.735 L 109.075,149.820 L 110.069,148.982 L 111.106,148.197 L 112.203,147.498 L 113.358,146.900 L 114.548,146.377 L 115.776,145.948 L 117.043,145.656 L 118.328,145.456 L 119.624,145.352 L 120.924,145.392 L 122.215,145.544 L 123.492,145.791 L 124.743,146.146 L 125.950,146.629 L 127.123,147.191 L 128.258,147.827 L 129.316,148.582 L 130.331,149.395 L 131.301,150.261 L 132.181,151.219 L 133.017,152.215 L 133.796,153.256 L 134.491,154.355 L 135.147,155.478 L 135.721,156.645 L 136.238,157.838 L 136.708,159.051 L 137.087,160.295 L 137.434,161.548 L 137.695,162.822 L 137.908,164.105 L 138.065,165.396 L 138.145,166.694 L 138.197,167.993" fill="#ffffff" stroke="#000000" stroke-width="1.2" /></g><g id="path1267"><path d="M 118.779,161.430 L 118.749,162.028 L 118.694,162.624 L 118.604,163.216 L 118.465,163.798 L 118.301,164.373 L 118.096,164.936 L 117.852,165.482 L 117.585,166.018 L 117.273,166.528 L 116.932,167.020 L 116.571,167.497 L 116.164,167.936 L 115.738,168.357 L 115.289,168.753 L 114.809,169.109 L 114.313,169.445 L 113.795,169.744 L 113.256,170.005 L 112.707,170.244 L 112.140,170.434 L 111.563,170.592 L 110.979,170.726 L 110.385,170.800 L 109.789,170.849 L 109.191,170.864 L 108.593,170.828 L 107.998,170.766 L 107.409,170.662 L 106.828,170.516 L 106.254,170.346 L 105.697,170.127 L 105.154,169.877 L 104.621,169.604 L 104.118,169.280 L 103.630,168.934 L 103.162,168.561 L 102.728,168.149 L 102.311,167.719 L 101.927,167.261 L 101.575,166.776 L 101.245,166.277 L 100.959,165.751 L 100.703,165.210 L 100.471,164.659 L 100.295,164.087 L 100.143,163.508 L 100.024,162.921 L 99.956,162.327 L 99.913,161.730 L 99.913,161.131 L 99.956,160.534 L 100.024,159.940 L 100.143,159.353 L 100.295,158.774 L 100.471,158.202 L 100.703,157.651 L 100.959,157.110 L 101.245,156.584 L 101.575,156.085 L 101.927,155.600 L 102.311,155.142 L 102.728,154.712 L 103.162,154.300 L 103.630,153.927 L 104.118,153.581 L 104.621,153.256 L 105.154,152.983 L 105.697,152.733 L 106.254,152.515 L 106.828,152.344 L 107.409,152.199 L 107.998,152.095 L 108.593,152.033 L 109.191,151.997 L 109.789,152.012 L 110.385,152.061 L 110.979,152.135 L 111.563,152.268 L 112.140,152.426 L 112.707,152.617 L 113.256,152.855 L 113.795,153.117 L 114.313,153.416 L 114.809,153.751 L 115.289,154.108 L 115.738,154.504 L 116.164,154.925 L 116.571,155.363 L 116.932,155.840 L 117.273,156.332 L 117.585,156.843 L 117.852,157.379 L 118.096,157.925 L 118.301,158.487 L 118.465,159.063 L 118.604,159.645 L 118.694,160.237 L 118.749,160.833 L 118.779,161.430" fill="#2b0000" stroke="#000000" stroke-width="1.2" /></g><g id="path397"><path d="M 139.468,143.459 L 139.422,144.765 L 139.359,146.069 L 139.220,147.367 L 139.047,148.662 L 138.815,149.947 L 138.529,151.221 L 138.202,152.486 L 137.799,153.728 L 137.370,154.961 L 136.850,156.159 L 136.294,157.341 L 135.675,158.491 L 134.985,159.600 L 134.255,160.683 L 133.437,161.700 L 132.562,162.670 L 131.638,163.592 L 130.624,164.416 L 129.555,165.166 L 128.434,165.836 L 127.254,166.395 L 126.018,166.818 L 124.749,167.127 L 123.457,167.314 L 122.152,167.360 L 120.852,167.236 L 119.570,166.987 L 118.317,166.620 L 117.102,166.139 L 115.957,165.512 L 114.862,164.800 L 113.818,164.016 L 112.852,163.137 L 111.952,162.190 L 111.101,161.200 L 110.332,160.144 L 109.622,159.048 L 108.954,157.926 L 108.381,156.752 L 107.841,155.564 L 107.370,154.346 L 106.954,153.107 L 106.580,151.856 L 106.283,150.585 L 106.007,149.308 L 105.822,148.015 L 105.657,146.720 L 105.565,145.417 L 105.510,144.112 L 105.510,142.806 L 105.565,141.502 L 105.657,140.199 L 105.822,138.903 L 106.007,137.611 L 106.283,136.334 L 106.580,135.062 L 106.954,133.811 L 107.370,132.573 L 107.841,131.355 L 108.381,130.166 L 108.954,128.993 L 109.622,127.871 L 110.332,126.774 L 111.101,125.719 L 111.952,124.729 L 112.852,123.782 L 113.818,122.903 L 114.862,122.119 L 115.957,121.407 L 117.102,120.780 L 118.317,120.299 L 119.570,119.932 L 120.852,119.683 L 122.152,119.559 L 123.457,119.605 L 124.749,119.792 L 126.018,120.101 L 127.254,120.524 L 128.434,121.083 L 129.555,121.753 L 130.624,122.502 L 131.638,123.326 L 132.562,124.249 L 133.437,125.219 L 134.255,126.236 L 134.985,127.319 L 135.675,128.428 L 136.294,129.578 L 136.850,130.759 L 137.370,131.957 L 137.799,133.191 L 138.202,134.433 L 138.529,135.698 L 138.815,136.972 L 139.047,138.257 L 139.220,139.551 L 139.359,140.850 L 139.422,142.154 L 139.468,143.459" fill="#ffffff" stroke="#000000" stroke-width="1.2" /></g><g id="path1265"><path d="M 120.044,137.523 L 120.016,138.080 L 119.964,138.637 L 119.881,139.189 L 119.751,139.732 L 119.598,140.269 L 119.407,140.794 L 119.179,141.304 L 118.929,141.804 L 118.638,142.281 L 118.320,142.740 L 117.983,143.185 L 117.603,143.595 L 117.206,143.987 L 116.787,144.357 L 116.338,144.689 L 115.875,145.002 L 115.392,145.282 L 114.889,145.526 L 114.377,145.748 L 113.847,145.926 L 113.309,146.074 L 112.764,146.198 L 112.210,146.267 L 111.653,146.313 L 111.095,146.327 L 110.537,146.293 L 109.981,146.236 L 109.431,146.139 L 108.890,146.003 L 108.354,145.844 L 107.834,145.640 L 107.327,145.406 L 106.830,145.152 L 106.360,144.849 L 105.905,144.526 L 105.468,144.177 L 105.062,143.793 L 104.674,143.392 L 104.315,142.964 L 103.987,142.512 L 103.679,142.046 L 103.412,141.555 L 103.173,141.050 L 102.956,140.535 L 102.792,140.002 L 102.650,139.461 L 102.539,138.914 L 102.476,138.359 L 102.436,137.802 L 102.436,137.243 L 102.476,136.686 L 102.539,136.131 L 102.650,135.584 L 102.792,135.043 L 102.956,134.510 L 103.173,133.995 L 103.412,133.490 L 103.679,132.999 L 103.987,132.533 L 104.315,132.081 L 104.674,131.653 L 105.062,131.252 L 105.468,130.868 L 105.905,130.519 L 106.360,130.196 L 106.830,129.893 L 107.327,129.639 L 107.834,129.405 L 108.354,129.201 L 108.890,129.042 L 109.431,128.906 L 109.981,128.809 L 110.537,128.752 L 111.095,128.718 L 111.653,128.732 L 112.210,128.778 L 112.764,128.847 L 113.309,128.971 L 113.847,129.119 L 114.377,129.297 L 114.889,129.519 L 115.392,129.763 L 115.875,130.043 L 116.338,130.356 L 116.787,130.688 L 117.206,131.058 L 117.603,131.451 L 117.983,131.860 L 118.320,132.305 L 118.638,132.765 L 118.929,133.241 L 119.179,133.741 L 119.407,134.251 L 119.598,134.776 L 119.751,135.313 L 119.881,135.856 L 119.964,136.408 L 120.016,136.965 L 120.044,137.523" fill="#2b0000" stroke="#000000" stroke-width="1.2" /></g><g id="path1439"><path d="M 92.193,122.475 L 91.579,122.805 L 90.971,123.147 L 90.369,123.499 L 89.771,123.857 L 89.177,124.223 L 88.586,124.594 L 87.999,124.970 L 87.415,125.350 L 86.833,125.736 L 86.255,126.125 L 85.680,126.520 L 85.108,126.919 L 84.540,127.323 L 83.975,127.731 L 83.413,128.145 L 82.856,128.564 L 82.303,128.989 L 81.755,129.420 L 81.213,129.859 L 80.678,130.306 L 80.151,130.762 L 79.633,131.230 L 79.130,131.713 L 78.644,132.213 L 78.183,132.736 L 77.729,133.266 L 77.278,133.797 L 76.830,134.332 L 76.391,134.873 L 75.960,135.422 L 75.542,135.980 L 75.141,136.550 L 74.757,137.132 L 74.397,137.729 L 74.062,138.341 L 73.758,138.969 L 73.490,139.612 L 73.275,140.275 L 73.276,140.971 L 73.378,141.660 L 73.380,142.357 L 73.048,142.966 L 72.610,143.508 L 72.169,144.048 L 71.735,144.594 L 71.310,145.146 L 70.896,145.708 L 70.500,146.282 L 70.129,146.872 L 69.797,147.486 L 69.545,148.135 L 69.522,148.831 L 69.908,149.407 L 70.467,149.822 L 71.108,150.094 L 71.785,150.262 L 72.476,150.358 L 73.171,150.403 L 73.869,150.411 L 74.566,150.395 L 75.262,150.359 L 75.958,150.310 L 76.653,150.253 L 77.348,150.193 L 78.043,150.136 L 78.738,150.088 L 79.435,150.058 L 80.132,150.067 L 80.824,150.155 L 81.370,150.582 L 81.766,151.155 L 82.377,151.488 L 83.063,151.613 L 83.755,151.698 L 84.449,151.763 L 85.145,151.813 L 85.841,151.853 L 86.538,151.883 L 87.235,151.903 L 87.932,151.915 L 88.629,151.918 L 89.327,151.911 L 90.024,151.892 L 90.720,151.861 L 91.416,151.811 L 92.109,151.737 L 92.797,151.624 L 93.462,151.412 L 94.031,151.010 L 94.506,150.500 L 94.937,149.952 L 95.384,149.417 L 95.903,148.951 L 96.489,148.574 L 97.103,148.242 L 97.748,147.979 L 98.413,147.769 L 98.495,147.083 L 98.485,146.386" fill="none" stroke="#000000" stroke-width="1.2" /></g><g id="path2136"><path d="M 30.955,119.990 L 31.453,120.212 L 31.952,120.433 L 32.456,120.641 L 32.961,120.847 L 33.470,121.042 L 33.980,121.235 L 34.494,121.416 L 35.009,121.596 L 35.527,121.766 L 36.046,121.934 L 36.568,122.091 L 37.090,122.248 L 37.616,122.393 L 38.141,122.538 L 38.670,122.673 L 39.198,122.807 L 39.729,122.932 L 40.261,123.054 L 40.794,123.169 L 41.327,123.280 L 41.862,123.386 L 42.398,123.486 L 42.935,123.583 L 43.473,123.672 L 44.011,123.760 L 44.551,123.838 L 45.090,123.916 L 45.631,123.985 L 46.173,124.051 L 46.715,124.111 L 47.257,124.167 L 47.800,124.218 L 48.343,124.263 L 48.887,124.305 L 49.431,124.339 L 49.975,124.372 L 50.520,124.395 L 51.065,124.416 L 51.610,124.430 L 52.155,124.440 L 52.701,124.444 L 53.246,124.443 L 53.791,124.437 L 54.336,124.424 L 54.881,124.408 L 55.426,124.383 L 55.971,124.356 L 56.515,124.319 L 57.058,124.279 L 57.602,124.231 L 58.144,124.178 L 58.686,124.118 L 59.227,124.051 L 59.768,123.979 L 60.307,123.899 L 60.846,123.813 L 61.383,123.718 L 61.919,123.618 L 62.453,123.509 L 62.986,123.394 L 63.517,123.269 L 64.046,123.138 L 64.573,122.996 L 65.097,122.848 L 65.619,122.690 L 66.137,122.518 L 66.567,122.204 L 66.899,121.774 L 67.274,121.384 L 67.772,121.210 L 68.312,121.225 L 68.851,121.309 L 69.393,121.354 L 69.920,121.247 L 70.417,121.025 L 70.903,120.779 L 71.389,120.532 L 71.874,120.282 L 72.358,120.031 L 72.840,119.775 L 73.320,119.518 L 73.798,119.256 L 74.274,118.989 L 74.746,118.717 L 75.213,118.434 L 75.670,118.138 L 76.108,117.813 L 76.307,117.349 L 75.823,117.316 L 75.286,117.411 L 74.756,117.538 L 75.158,117.402 L 75.677,117.236 L 76.196,117.068 L 76.714,116.899 L 77.232,116.729 L 77.750,116.558 L 78.268,116.386 L 78.785,116.214" fill="none" stroke="#000000" stroke-width="1.2" /></g></svg>