<?xml version='1.0' encoding='utf-8'?>
<svg xmlns="http://www.w3.org/2000/svg" width="210" height="297" viewBox="0 0 210 297"><g id="path2717"><path d="M 188.814,137.061 L 187.851,137.366 L 186.873,137.618 L 185.883,137.821 L 184.885,137.979 L 183.882,138.096 L 182.875,138.178 L 181.866,138.229 L 180.856,138.252 L 179.846,138.256 L 178.836,138.245 L 177.826,138.224 L 176.816,138.198 L 175.807,138.173 L 174.797,138.153 L 173.786,138.145 L 172.776,138.153 L 171.767,138.183 L 170.758,138.241 L 169.752,138.332 L 168.751,138.466 L 167.758,138.649 L 166.775,138.883 L 165.808,139.174 L 164.861,139.525 L 163.941,139.943 L 163.055,140.426 L 162.222,140.996 L 161.758,141.877 L 161.587,142.868 L 161.421,143.865 L 160.963,144.758 L 160.196,145.403 L 159.816,146.320 L 159.823,147.325 L 159.925,148.330 L 159.911,149.339 L 159.691,150.323 L 159.420,151.296 L 159.053,152.236 L 158.687,151.504 L 158.513,150.516 L 157.828,150.184 L 157.327,151.051 L 157.080,152.028 L 156.974,153.032 L 156.920,154.040 L 156.898,155.050 L 156.902,156.060 L 156.928,157.070 L 156.976,158.079 L 157.053,159.086 L 157.174,160.089 L 157.399,161.070 L 157.815,161.988 L 158.369,162.831 L 159.026,163.597 L 159.758,164.293 L 160.543,164.928 L 161.368,165.511 L 162.221,166.051 L 163.096,166.556 L 163.987,167.031 L 164.891,167.482 L 165.804,167.913 L 166.724,168.331 L 167.647,168.741 L 168.571,169.151 L 169.488,169.573 L 170.389,170.029 L 171.258,170.545 L 172.079,171.132 L 172.843,171.792 L 173.545,172.518 L 174.196,173.290 L 174.826,174.080 L 175.477,174.852 L 176.181,175.576 L 176.952,176.228 L 177.786,176.798 L 178.667,177.291 L 179.587,177.707 L 180.539,178.045 L 181.512,178.315 L 182.501,178.520 L 183.499,178.676 L 184.503,178.789 L 185.510,178.863 L 186.519,178.908 L 187.529,178.926 L 188.540,178.924 L 189.549,178.905 L 190.559,178.871 L 191.568,178.829 L 192.577,178.781 L 193.586,178.730 L 194.595,178.681 L 195.605,178.639 L 196.614,178.608 L 197.624,178.596" fill="none" stroke="#000000" stroke-width="1.2" /></g><g id="path2147"><path d="M 36.881,109.859 L 37.695,109.969 L 38.510,110.071 L 39.326,110.166 L 40.142,110.260 L 40.958,110.354 L 41.774,110.454 L 42.588,110.562 L 43.401,110.682 L 44.211,110.818 L 45.018,110.972 L 45.820,111.148 L 46.620,111.335 L 47.419,111.528 L 48.216,111.726 L 49.012,111.929 L 49.806,112.139 L 50.599,112.356 L 51.389,112.581 L 52.177,112.813 L 52.962,113.054 L 53.745,113.304 L 54.524,113.564 L 55.300,113.835 L 56.072,114.115 L 56.840,114.408 L 57.603,114.712 L 58.361,115.028 L 59.113,115.358 L 59.860,115.701 L 60.600,116.057 L 60.789,116.816 L 61.083,117.510 L 61.884,117.692 L 62.698,117.801 L 63.513,117.903 L 64.323,118.038 L 65.110,118.264 L 65.770,118.701 L 65.990,119.482 L 65.947,120.302 L 65.840,121.116 L 65.702,121.926 L 65.545,122.732 L 65.373,123.536 L 65.191,124.337 L 65.000,125.136 L 64.801,125.933 L 64.596,126.728 L 64.386,127.523 L 64.170,128.315 L 63.949,129.106 L 63.722,129.896 L 63.487,130.683 L 63.212,131.455 L 62.788,132.158 L 62.285,132.807 L 61.750,133.430 L 61.195,134.036 L 60.625,134.628 L 60.046,135.211 L 59.459,135.785 L 58.864,136.351 L 58.262,136.911 L 57.655,137.464 L 57.040,138.009 L 56.419,138.547 L 55.789,139.074 L 55.148,139.587 L 54.480,140.063 L 53.723,140.379 L 52.920,140.552 L 52.108,140.676 L 51.295,140.796 L 50.488,140.948 L 49.709,141.201 L 49.041,141.677 L 48.497,142.293 L 47.987,142.936 L 47.414,143.523 L 46.707,143.938 L 45.910,144.135 L 45.090,144.178 L 44.271,144.122 L 43.456,144.014 L 42.645,143.884 L 41.834,143.756 L 41.019,143.652 L 40.199,143.601 L 39.379,143.635 L 38.576,143.808 L 37.831,144.154 L 37.208,144.688 L 36.730,145.356 L 36.430,146.120 L 36.264,146.925 L 36.164,147.740 L 36.065,148.556 L 35.907,149.362 L 35.622,150.133" fill="none" stroke="#000000" stroke-width="1.2" /></g><g id="path230"><path d="M 187.089,136.662 L 186.857,141.245 L 186.419,145.812 L 185.723,150.347 L 184.625,154.802 L 183.329,159.204 L 181.735,163.507 L 179.815,167.674 L 177.713,171.752 L 175.291,175.649 L 172.624,179.383 L 169.799,182.998 L 166.649,186.334 L 163.337,189.510 L 159.871,192.517 L 156.144,195.193 L 152.307,197.710 L 148.317,199.974 L 144.166,201.929 L 139.937,203.710 L 135.580,205.149 L 131.145,206.325 L 126.666,207.319 L 122.112,207.880 L 117.538,208.244 L 112.951,208.357 L 108.371,208.085 L 103.805,207.628 L 99.284,206.844 L 94.826,205.759 L 90.416,204.492 L 86.135,202.841 L 81.944,200.973 L 77.847,198.908 L 73.959,196.472 L 70.176,193.875 L 66.564,191.045 L 63.186,187.940 L 59.943,184.694 L 56.964,181.205 L 54.217,177.529 L 51.633,173.738 L 49.409,169.725 L 47.397,165.601 L 45.589,161.384 L 44.195,157.012 L 42.997,152.583 L 42.073,148.089 L 41.533,143.532 L 41.197,138.956 L 41.197,134.368 L 41.533,129.792 L 42.073,125.236 L 42.997,120.741 L 44.195,116.312 L 45.589,111.941 L 47.397,107.724 L 49.409,103.600 L 51.633,99.586 L 54.217,95.795 L 56.964,92.120 L 59.943,88.630 L 63.186,85.384 L 66.564,82.279 L 70.176,79.449 L 73.959,76.852 L 77.847,74.416 L 81.944,72.352 L 86.135,70.483 L 90.416,68.832 L 94.826,67.565 L 99.284,66.480 L 103.805,65.697 L 108.371,65.239 L 112.951,64.968 L 117.538,65.080 L 122.112,65.445 L 126.666,66.006 L 131.145,67.000 L 135.580,68.176 L 139.937,69.615 L 144.166,71.396 L 148.317,73.351 L 152.307,75.615 L 156.144,78.132 L 159.871,80.808 L 163.337,83.814 L 166.649,86.990 L 169.799,90.326 L 172.624,93.941 L 175.291,97.676 L 177.713,101.572 L 179.815,105.651 L 181.735,109.818 L 183.329,114.121 L 184.625,118.522 L 185.723,122.977 L 186.419,127.512 L 186.857,132.080 L 187.089,136.662" fill="#ffff00" stroke="#000000" stroke-width="1.2" /></g><g id="path393"><path d="M 150.633,139.078 L 150.580,140.377 L 150.500,141.675 L 150.344,142.966 L 150.131,144.249 L 149.870,145.523 L 149.522,146.776 L 149.144,148.020 L 148.674,149.233 L 148.157,150.426 L 147.583,151.593 L 146.927,152.716 L 146.232,153.815 L 145.453,154.856 L 144.617,155.852 L 143.737,156.810 L 142.767,157.676 L 141.752,158.489 L 140.694,159.244 L 139.559,159.880 L 138.386,160.442 L 137.179,160.925 L 135.928,161.280 L 134.651,161.527 L 133.360,161.679 L 132.060,161.719 L 130.764,161.615 L 129.479,161.415 L 128.212,161.123 L 126.984,160.694 L 125.793,160.171 L 124.639,159.573 L 123.542,158.874 L 122.505,158.089 L 121.511,157.251 L 120.587,156.336 L 119.729,155.359 L 118.914,154.346 L 118.185,153.268 L 117.510,152.157 L 116.884,151.017 L 116.350,149.831 L 115.850,148.631 L 115.432,147.399 L 115.070,146.151 L 114.756,144.889 L 114.529,143.608 L 114.330,142.323 L 114.226,141.027 L 114.159,139.728 L 114.159,138.428 L 114.226,137.129 L 114.330,135.833 L 114.529,134.547 L 114.756,133.267 L 115.070,132.005 L 115.432,130.756 L 115.850,129.525 L 116.350,128.324 L 116.884,127.138 L 117.510,125.999 L 118.185,124.887 L 118.914,123.810 L 119.729,122.797 L 120.587,121.820 L 121.511,120.905 L 122.505,120.066 L 123.542,119.281 L 124.639,118.583 L 125.793,117.985 L 126.984,117.461 L 128.212,117.032 L 129.479,116.740 L 130.764,116.541 L 132.060,116.436 L 133.360,116.476 L 134.651,116.629 L 135.928,116.875 L 137.179,117.230 L 138.386,117.714 L 139.559,118.275 L 140.694,118.911 L 141.752,119.667 L 142.767,120.479 L 143.737,121.346 L 144.617,122.304 L 145.453,123.299 L 146.232,124.341 L 146.927,125.440 L 147.583,126.563 L 148.157,127.730 L 148.674,128.923 L 149.144,130.135 L 149.522,131.379 L 149.870,132.633 L 150.131,133.907 L 150.344,135.189 L 150.500,136.480 L 150.580,137.778 L 150.633,139.078" fill="#ffffff" stroke="#000000" stroke-width="1.2" /></g><g id="path1267"><path d="M 132.630,147.853 L 132.601,148.450 L 132.545,149.046 L 132.456,149.638 L 132.317,150.220 L 132.153,150.796 L 131.948,151.358 L 131.704,151.904 L 131.436,152.440 L 131.124,152.950 L 130.784,153.443 L 130.422,153.920 L 130.015,154.358 L 129.590,154.779 L 129.141,155.175 L 128.660,155.531 L 128.164,155.867 L 127.646,156.166 L 127.108,156.428 L 126.559,156.666 L 125.992,156.857 L 125.414,157.015 L 124.831,157.148 L 124.237,157.222 L 123.641,157.271 L 123.042,157.286 L 122.445,157.250 L 121.850,157.188 L 121.260,157.084 L 120.680,156.939 L 120.106,156.768 L 119.549,156.550 L 119.005,156.300 L 118.473,156.027 L 117.970,155.702 L 117.481,155.356 L 117.014,154.983 L 116.579,154.571 L 116.163,154.141 L 115.778,153.683 L 115.427,153.198 L 115.097,152.699 L 114.811,152.173 L 114.555,151.632 L 114.323,151.081 L 114.146,150.509 L 113.994,149.930 L 113.876,149.343 L 113.808,148.749 L 113.765,148.152 L 113.765,147.553 L 113.808,146.956 L 113.876,146.362 L 113.994,145.775 L 114.146,145.196 L 114.323,144.624 L 114.555,144.073 L 114.811,143.532 L 115.097,143.006 L 115.427,142.507 L 115.778,142.022 L 116.163,141.564 L 116.579,141.134 L 117.014,140.722 L 117.481,140.349 L 117.970,140.003 L 118.473,139.679 L 119.005,139.406 L 119.549,139.155 L 120.106,138.937 L 120.680,138.767 L 121.260,138.621 L 121.850,138.517 L 122.445,138.455 L 123.042,138.419 L 123.641,138.434 L 124.237,138.483 L 124.831,138.557 L 125.414,138.691 L 125.992,138.849 L 126.559,139.039 L 127.108,139.278 L 127.646,139.539 L 128.164,139.838 L 128.660,140.174 L 129.141,140.530 L 129.590,140.926 L 130.015,141.347 L 130.422,141.786 L 130.784,142.263 L 131.124,142.755 L 131.436,143.265 L 131.704,143.801 L 131.948,144.347 L 132.153,144.910 L 132.317,145.485 L 132.456,146.067 L 132.545,146.659 L 132.601,147.255 L 132.630,147.853" fill="#2b0000" stroke="#000000" stroke-width="1.2" /></g><g id="path397"><path d="M 114.691,129.375 L 114.645,130.680 L 114.582,131.985 L 114.443,133.283 L 114.270,134.578 L 114.038,135.863 L 113.752,137.137 L 113.425,138.401 L 113.021,139.643 L 112.593,140.877 L 112.073,142.075 L 111.517,143.257 L 110.898,144.407 L 110.208,145.515 L 109.478,146.598 L 108.660,147.616 L 107.784,148.585 L 106.860,149.508 L 105.847,150.332 L 104.778,151.081 L 103.657,151.752 L 102.477,152.310 L 101.241,152.734 L 99.972,153.043 L 98.680,153.230 L 97.375,153.275 L 96.075,153.152 L 94.793,152.903 L 93.539,152.535 L 92.325,152.054 L 91.180,151.427 L 90.085,150.716 L 89.040,149.931 L 88.074,149.053 L 87.175,148.106 L 86.323,147.116 L 85.555,146.060 L 84.845,144.964 L 84.177,143.842 L 83.604,142.668 L 83.064,141.479 L 82.593,140.261 L 82.177,139.023 L 81.802,137.772 L 81.506,136.500 L 81.230,135.224 L 81.044,133.931 L 80.880,132.635 L 80.788,131.333 L 80.733,130.028 L 80.733,128.722 L 80.788,127.417 L 80.880,126.115 L 81.044,124.819 L 81.230,123.526 L 81.506,122.250 L 81.802,120.978 L 82.177,119.727 L 82.593,118.489 L 83.064,117.271 L 83.604,116.082 L 84.177,114.908 L 84.845,113.786 L 85.555,112.690 L 86.323,111.634 L 87.175,110.644 L 88.074,109.697 L 89.040,108.819 L 90.085,108.034 L 91.180,107.323 L 92.325,106.696 L 93.539,106.215 L 94.793,105.847 L 96.075,105.598 L 97.375,105.475 L 98.680,105.520 L 99.972,105.707 L 101.241,106.016 L 102.477,106.440 L 103.657,106.998 L 104.778,107.669 L 105.847,108.418 L 106.860,109.242 L 107.784,110.165 L 108.660,111.134 L 109.478,112.152 L 110.208,113.235 L 110.898,114.343 L 111.517,115.493 L 112.073,116.675 L 112.593,117.873 L 113.021,119.107 L 113.425,120.349 L 113.752,121.613 L 114.038,122.887 L 114.270,124.172 L 114.443,125.467 L 114.582,126.765 L 114.645,128.070 L 114.691,129.375" fill="#ffffff" stroke="#000000" stroke-width="1.2" /></g><g id="path1265"><path d="M 98.197,138.962 L 98.169,139.520 L 98.117,140.076 L 98.034,140.629 L 97.904,141.172 L 97.751,141.709 L 97.560,142.234 L 97.332,142.744 L 97.082,143.244 L 96.791,143.720 L 96.473,144.180 L 96.136,144.625 L 95.756,145.034 L 95.359,145.427 L 94.940,145.797 L 94.491,146.129 L 94.028,146.442 L 93.545,146.722 L 93.042,146.966 L 92.530,147.188 L 92.000,147.366 L 91.462,147.514 L 90.917,147.638 L 90.363,147.707 L 89.806,147.753 L 89.248,147.767 L 88.690,147.733 L 88.135,147.676 L 87.585,147.579 L 87.043,147.443 L 86.507,147.284 L 85.987,147.080 L 85.480,146.846 L 84.983,146.591 L 84.513,146.288 L 84.058,145.966 L 83.621,145.617 L 83.216,145.233 L 82.827,144.832 L 82.468,144.404 L 82.140,143.952 L 81.832,143.486 L 81.565,142.995 L 81.326,142.490 L 81.109,141.975 L 80.945,141.442 L 80.803,140.901 L 80.692,140.354 L 80.629,139.799 L 80.589,139.242 L 80.589,138.683 L 80.629,138.126 L 80.692,137.571 L 80.803,137.023 L 80.945,136.483 L 81.109,135.949 L 81.326,135.435 L 81.565,134.930 L 81.832,134.439 L 82.140,133.973 L 82.468,133.521 L 82.827,133.093 L 83.216,132.692 L 83.621,132.307 L 84.058,131.959 L 84.513,131.636 L 84.983,131.333 L 85.480,131.078 L 85.987,130.845 L 86.507,130.641 L 87.043,130.482 L 87.585,130.346 L 88.135,130.249 L 88.690,130.192 L 89.248,130.158 L 89.806,130.172 L 90.363,130.217 L 90.917,130.287 L 91.462,130.411 L 92.000,130.559 L 92.530,130.737 L 93.042,130.959 L 93.545,131.203 L 94.028,131.482 L 94.491,131.795 L 94.940,132.128 L 95.359,132.498 L 95.756,132.890 L 96.136,133.300 L 96.473,133.745 L 96.791,134.204 L 97.082,134.681 L 97.332,135.181 L 97.560,135.691 L 97.751,136.216 L 97.904,136.753 L 98.034,137.296 L 98.117,137.848 L 98.169,138.405 L 98.197,138.962" fill="#2b0000" stroke="#000000" stroke-width="1.2" /></g><g id="path1439"><path d="M 105.906,150.305 L 105.292,150.636 L 104.684,150.978 L 104.082,151.329 L 103.484,151.688 L 102.890,152.053 L 102.300,152.424 L 101.713,152.800 L 101.128,153.181 L 100.547,153.566 L 99.969,153.956 L 99.394,154.351 L 98.822,154.750 L 98.253,155.153 L 97.688,155.562 L 97.127,155.976 L 96.569,156.395 L 96.016,156.819 L 95.468,157.250 L 94.926,157.689 L 94.391,158.136 L 93.864,158.593 L 93.347,159.061 L 92.844,159.544 L 92.358,160.044 L 91.897,160.567 L 91.443,161.096 L 90.991,161.627 L 90.544,162.163 L 90.104,162.704 L 89.674,163.252 L 89.256,163.811 L 88.854,164.381 L 88.471,164.963 L 88.110,165.560 L 87.776,166.172 L 87.472,166.799 L 87.204,167.443 L 86.988,168.106 L 86.990,168.801 L 87.092,169.491 L 87.093,170.188 L 86.761,170.796 L 86.323,171.338 L 85.883,171.879 L 85.449,172.425 L 85.023,172.977 L 84.610,173.539 L 84.213,174.112 L 83.842,174.703 L 83.511,175.316 L 83.259,175.966 L 83.236,176.661 L 83.621,177.237 L 84.181,177.652 L 84.822,177.925 L 85.499,178.092 L 86.189,178.189 L 86.885,178.233 L 87.582,178.242 L 88.280,178.225 L 88.976,178.189 L 89.672,178.141 L 90.367,178.084 L 91.061,178.024 L 91.756,177.967 L 92.452,177.918 L 93.149,177.889 L 93.846,177.898 L 94.538,177.986 L 95.084,178.412 L 95.480,178.986 L 96.090,179.319 L 96.777,179.444 L 97.469,179.529 L 98.163,179.594 L 98.858,179.644 L 99.555,179.684 L 100.251,179.713 L 100.948,179.734 L 101.646,179.746 L 102.343,179.748 L 103.040,179.741 L 103.737,179.723 L 104.434,179.691 L 105.130,179.642 L 105.823,179.568 L 106.511,179.455 L 107.175,179.243 L 107.745,178.841 L 108.219,178.330 L 108.651,177.782 L 109.097,177.247 L 109.616,176.781 L 110.203,176.405 L 110.816,176.073 L 111.462,175.809 L 112.127,175.599 L 112.209,174.914 L 112.199,174.217" fill="none" stroke="#000000" stroke-width="1.2" /></g><g id="path2136"><path d="M 41.712,187.217 L 42.210,187.439 L 42.709,187.660 L 43.213,187.868 L 43.718,188.074 L 44.227,188.268 L 44.737,188.461 L 45.251,188.643 L 45.766,188.823 L 46.284,188.992 L 46.803,189.160 L 47.325,189.318 L 47.847,189.474 L 48.373,189.620 L 48.898,189.765 L 49.427,189.900 L 49.955,190.033 L 50.486,190.159 L 51.018,190.281 L 51.550,190.396 L 52.084,190.507 L 52.619,190.613 L 53.155,190.713 L 53.692,190.810 L 54.230,190.899 L 54.768,190.987 L 55.308,191.065 L 55.847,191.142 L 56.388,191.211 L 56.929,191.278 L 57.471,191.338 L 58.014,191.393 L 58.557,191.445 L 59.100,191.489 L 59.644,191.531 L 60.188,191.566 L 60.732,191.598 L 61.277,191.622 L 61.822,191.643 L 62.367,191.657 L 62.912,191.667 L 63.458,191.671 L 64.003,191.669 L 64.548,191.664 L 65.093,191.651 L 65.638,191.635 L 66.183,191.610 L 66.727,191.582 L 67.272,191.546 L 67.815,191.505 L 68.358,191.457 L 68.901,191.404 L 69.443,191.344 L 69.984,191.278 L 70.525,191.205 L 71.064,191.125 L 71.603,191.039 L 72.140,190.945 L 72.676,190.845 L 73.210,190.735 L 73.743,190.620 L 74.274,190.495 L 74.803,190.364 L 75.329,190.223 L 75.854,190.075 L 76.376,189.916 L 76.894,189.745 L 77.324,189.430 L 77.656,189.001 L 78.031,188.611 L 78.528,188.437 L 79.069,188.452 L 79.608,188.536 L 80.150,188.581 L 80.677,188.474 L 81.174,188.252 L 81.660,188.006 L 82.146,187.758 L 82.631,187.508 L 83.115,187.257 L 83.596,187.002 L 84.077,186.744 L 84.555,186.482 L 85.031,186.216 L 85.503,185.943 L 85.970,185.661 L 86.427,185.365 L 86.864,185.039 L 87.063,184.576 L 86.579,184.543 L 86.043,184.637 L 85.513,184.764 L 85.915,184.629 L 86.434,184.462 L 86.953,184.295 L 87.471,184.125 L 87.989,183.955 L 88.507,183.785 L 89.025,183.613 L 89.542,183.441" fill="none" stroke="#000000" stroke-width="1.2" /></g></svg>