<?xml version='1.0' encoding='utf-8'?>
<svg xmlns="http://www.w3.org/2000/svg" width="210" height="297" viewBox="0 0 210 297"><g id="path2717"><path d="m 28.944914,147.24152 c -8.783163,3.07931 -18.652686,-1.40809 -26.4279649,3.77543 -1.1037552,0.73583 -0.5226377,2.67167 -1.2584746,3.77542 C 0.92939834,155.28599 0.1438844,155.47531 0,156.05085 c -0.30522492,1.22089 0.30522492,2.55452 0,3.77542 -1.8411849,7.36474 -0.46293129,-2.84956 -2.5169491,1.25847 -0.6994698,1.39894 -0.5033297,8.55781 0,10.0678 1.54181808,4.62545 9.2623979,7.14815 12.5847461,8.80932 4.857547,2.42877 4.27088,5.28163 8.809321,7.55085 5.133038,2.56652 13.188953,1.25847 18.877119,1.25847" fill="#ffff00" stroke="#000000" stroke-width="1.2" stroke-opacity="1" fill-opacity="0.981132" /></g><g id="path2147"><path d="m 169.89407,144.72457 c 2.93644,0.41949 5.91903,0.59149 8.80932,1.25848 5.17031,1.19315 10.35569,2.66089 15.10169,5.0339 0.37521,0.1876 -0.3752,1.07087 0,1.25847 1.07212,0.53606 4.06785,0.29242 5.0339,1.25848 0.91963,0.91962 -2.07573,11.26108 -2.51695,12.58474 -0.60593,1.8178 -7.04271,7.63158 -8.80932,8.80932 -1.04517,0.69678 -3.98873,0.5617 -5.0339,1.25848 -0.98723,0.65815 -1.45571,1.98633 -2.51695,2.51695 -2.75109,1.37554 -7.84975,-2.06859 -10.06779,1.25847 -0.95942,1.43912 -0.48498,3.48689 -1.25848,5.0339" fill="#ffff00" stroke="#000000" stroke-width="1.2" stroke-opacity="1" fill-opacity="0.981132" /></g><g id="path230"><path d="M 173.669,158.568 L 173.307,165.710 L 172.222,172.781 L 170.427,179.711 L 167.938,186.431 L 164.781,192.874 L 160.986,198.976 L 156.593,204.677 L 151.643,209.919 L 146.187,214.651 L 140.279,218.825 L 133.977,222.401 L 127.345,225.342 L 120.447,227.620 L 113.353,229.211 L 106.133,230.100 L 98.858,230.279 L 91.602,229.744 L 84.436,228.502 L 77.431,226.565 L 70.657,223.953 L 64.182,220.690 L 58.070,216.811 L 52.381,212.352 L 47.171,207.359 L 42.494,201.881 L 38.395,195.972 L 34.915,189.692 L 32.088,183.102 L 29.944,176.268 L 28.502,169.259 L 27.777,162.143 L 27.777,154.992 L 28.502,147.877 L 29.944,140.867 L 32.088,134.034 L 34.915,127.444 L 38.395,121.164 L 42.494,115.255 L 47.171,109.777 L 52.381,104.784 L 58.070,100.325 L 64.182,96.445 L 70.657,93.183 L 77.431,90.570 L 84.436,88.633 L 91.602,87.391 L 98.858,86.857 L 106.133,87.035 L 113.353,87.925 L 120.447,89.516 L 127.345,91.793 L 133.977,94.735 L 140.279,98.310 L 146.187,102.485 L 151.643,107.216 L 156.593,112.459 L 160.986,118.159 L 164.781,124.261 L 167.938,130.704 L 170.427,137.424 L 172.222,144.354 L 173.307,151.425 L 173.669,158.568 Z" fill="#ffff00" stroke="#000000" stroke-width="1.2" stroke-opacity="1" /></g><g id="path393"><path d="M 91.928,178.074 L 91.837,179.897 L 91.565,181.702 L 91.115,183.470 L 90.491,185.185 L 89.699,186.830 L 88.747,188.387 L 87.645,189.842 L 86.404,191.180 L 85.035,192.388 L 83.553,193.453 L 81.973,194.366 L 80.309,195.116 L 78.579,195.698 L 76.800,196.104 L 74.989,196.331 L 73.164,196.376 L 71.344,196.240 L 69.547,195.923 L 67.790,195.428 L 66.091,194.762 L 64.467,193.929 L 62.934,192.939 L 61.507,191.801 L 60.200,190.526 L 59.027,189.128 L 57.999,187.620 L 57.126,186.018 L 56.417,184.336 L 55.879,182.592 L 55.518,180.803 L 55.336,178.987 L 55.336,177.162 L 55.518,175.346 L 55.879,173.557 L 56.417,171.813 L 57.126,170.131 L 57.999,168.528 L 59.027,167.020 L 60.200,165.622 L 61.507,164.347 L 62.934,163.210 L 64.467,162.219 L 66.091,161.387 L 67.790,160.720 L 69.547,160.226 L 71.344,159.909 L 73.164,159.772 L 74.989,159.818 L 76.800,160.045 L 78.579,160.451 L 80.309,161.032 L 81.973,161.783 L 83.553,162.695 L 85.035,163.761 L 86.404,164.968 L 87.645,166.306 L 88.747,167.761 L 89.699,169.318 L 90.491,170.963 L 91.115,172.678 L 91.565,174.447 L 91.837,176.251 L 91.928,178.074 Z" fill="#ffffff" stroke="#000000" stroke-width="1.2" stroke-opacity="1" /></g><g id="path1267"><path d="M 85.615,186.719 L 85.568,187.479 L 85.428,188.231 L 85.195,188.968 L 84.872,189.682 L 84.462,190.368 L 83.970,191.017 L 83.400,191.623 L 82.758,192.180 L 82.050,192.683 L 81.284,193.127 L 80.466,193.508 L 79.606,193.820 L 78.711,194.062 L 77.790,194.232 L 76.854,194.326 L 75.910,194.345 L 74.968,194.288 L 74.039,194.156 L 73.130,193.950 L 72.251,193.673 L 71.411,193.326 L 70.618,192.913 L 69.880,192.439 L 69.204,191.908 L 68.598,191.325 L 68.066,190.697 L 67.614,190.029 L 67.248,189.328 L 66.969,188.602 L 66.782,187.856 L 66.688,187.100 L 66.688,186.339 L 66.782,185.582 L 66.969,184.837 L 67.248,184.110 L 67.614,183.410 L 68.066,182.742 L 68.598,182.113 L 69.204,181.531 L 69.880,181.000 L 70.618,180.526 L 71.411,180.113 L 72.251,179.766 L 73.130,179.488 L 74.039,179.282 L 74.968,179.150 L 75.910,179.094 L 76.854,179.113 L 77.790,179.207 L 78.711,179.376 L 79.606,179.619 L 80.466,179.931 L 81.284,180.312 L 82.050,180.755 L 82.758,181.259 L 83.400,181.816 L 83.970,182.422 L 84.462,183.071 L 84.872,183.756 L 85.195,184.471 L 85.428,185.208 L 85.568,185.960 L 85.615,186.719 Z" fill="#2b0000" stroke="#000000" stroke-width="1.2" stroke-opacity="1" /></g><g id="path397"><path d="M 146.031,176.186 L 145.946,178.196 L 145.693,180.186 L 145.274,182.136 L 144.693,184.026 L 143.956,185.839 L 143.071,187.556 L 142.045,189.160 L 140.890,190.635 L 139.616,191.967 L 138.237,193.141 L 136.766,194.147 L 135.218,194.975 L 133.608,195.616 L 131.952,196.063 L 130.267,196.314 L 128.569,196.364 L 126.875,196.213 L 125.202,195.864 L 123.567,195.319 L 121.986,194.584 L 120.475,193.666 L 119.048,192.574 L 117.720,191.320 L 116.504,189.915 L 115.413,188.373 L 114.456,186.711 L 113.643,184.944 L 112.984,183.090 L 112.483,181.167 L 112.147,179.195 L 111.977,177.193 L 111.977,175.180 L 112.147,173.178 L 112.483,171.206 L 112.984,169.283 L 113.643,167.429 L 114.456,165.662 L 115.413,164.000 L 116.504,162.458 L 117.720,161.053 L 119.048,159.799 L 120.475,158.707 L 121.986,157.789 L 123.567,157.054 L 125.202,156.509 L 126.875,156.160 L 128.569,156.009 L 130.267,156.059 L 131.952,156.310 L 133.608,156.757 L 135.218,157.398 L 136.766,158.226 L 138.237,159.232 L 139.616,160.406 L 140.890,161.738 L 142.045,163.213 L 143.071,164.817 L 143.956,166.534 L 144.693,168.346 L 145.274,170.237 L 145.693,172.187 L 145.946,174.177 L 146.031,176.186 Z" fill="#ffffff" stroke="#000000" stroke-width="1.2" stroke-opacity="1" /></g><g id="path1265"><path d="M 138.459,185.747 L 138.415,186.487 L 138.284,187.220 L 138.066,187.939 L 137.765,188.635 L 137.383,189.303 L 136.924,189.936 L 136.392,190.527 L 135.793,191.070 L 135.133,191.561 L 134.418,191.994 L 133.655,192.364 L 132.852,192.669 L 132.017,192.905 L 131.159,193.070 L 130.285,193.162 L 129.404,193.181 L 128.526,193.125 L 127.659,192.997 L 126.811,192.796 L 125.991,192.525 L 125.208,192.187 L 124.468,191.785 L 123.779,191.322 L 123.149,190.805 L 122.583,190.237 L 122.087,189.624 L 121.665,188.973 L 121.323,188.290 L 121.064,187.582 L 120.889,186.855 L 120.801,186.118 L 120.801,185.376 L 120.889,184.639 L 121.064,183.912 L 121.323,183.204 L 121.665,182.521 L 122.087,181.870 L 122.583,181.257 L 123.149,180.689 L 123.779,180.172 L 124.468,179.709 L 125.208,179.307 L 125.991,178.969 L 126.811,178.698 L 127.659,178.497 L 128.526,178.369 L 129.404,178.313 L 130.285,178.332 L 131.159,178.424 L 132.017,178.589 L 132.852,178.825 L 133.655,179.130 L 134.418,179.501 L 135.133,179.933 L 135.793,180.424 L 136.392,180.967 L 136.924,181.558 L 137.383,182.191 L 137.765,182.859 L 138.066,183.555 L 138.284,184.274 L 138.415,185.007 L 138.459,185.747 Z" fill="#2b0000" stroke="#000000" stroke-width="1.2" stroke-opacity="1" /></g><g id="path1439"><path d="m 101.93644,176.18644 c -3.55278,1.84828 -11.195999,6.97937 -13.843222,10.06779 -1.96864,2.29675 -4.077308,4.68109 -5.033896,7.55085 -0.265311,0.79593 0.311589,1.73798 0,2.51695 -0.133694,0.33423 -4.436285,4.97066 -3.775424,6.29237 1.431628,2.86326 8.945353,0.66325 11.32627,1.25848 0.575537,0.14388 0.695669,1.07087 1.258474,1.25847 1.59438,0.53146 9.755308,0.78548 11.326268,0 1.06124,-0.53062 1.52973,-1.85879 2.51695,-2.51695 2.89216,-1.9281 2.51695,-0.10489 2.51695,-2.51694" fill="#2b0000" stroke="#000000" stroke-width="1.2" stroke-opacity="1" fill-opacity="0" /></g><g id="path2136"><path d="m 80.542372,218.97457 c 9.726314,4.5029 24.667918,6.04008 35.237288,2.51695 0.56281,-0.1876 0.69567,-1.07087 1.25847,-1.25847 0.79593,-0.26531 1.76655,0.3752 2.51695,0 15.23785,-7.61892 -2.73828,-1.1847 8.80932,-5.0339" fill="#2b0000" stroke="#000000" stroke-width="1.2" stroke-opacity="1" fill-opacity="0" /></g><g id="path2717"><path d="m 28.944914,147.24152 c -8.783163,3.07931 -18.652686,-1.40809 -26.4279649,3.77543 -1.1037552,0.73583 -0.5226377,2.67167 -1.2584746,3.77542 C 0.92939834,155.28599 0.1438844,155.47531 0,156.05085 c -0.30522492,1.22089 0.30522492,2.55452 0,3.77542 -1.8411849,7.36474 -0.46293129,-2.84956 -2.5169491,1.25847 -0.6994698,1.39894 -0.5033297,8.55781 0,10.0678 1.54181808,4.62545 9.2623979,7.14815 12.5847461,8.80932 4.857547,2.42877 4.27088,5.28163 8.809321,7.55085 5.133038,2.56652 13.188953,1.25847 18.877119,1.25847" fill="#ffff00" stroke="#000000" stroke-width="1.2" stroke-opacity="1" fill-opacity="0.981132" /></g><g id="path2147"><path d="m 169.89407,144.72457 c 2.93644,0.41949 5.91903,0.59149 8.80932,1.25848 5.17031,1.19315 10.35569,2.66089 15.10169,5.0339 0.37521,0.1876 -0.3752,1.07087 0,1.25847 1.07212,0.53606 4.06785,0.29242 5.0339,1.25848 0.91963,0.91962 -2.07573,11.26108 -2.51695,12.58474 -0.60593,1.8178 -7.04271,7.63158 -8.80932,8.80932 -1.04517,0.69678 -3.98873,0.5617 -5.0339,1.25848 -0.98723,0.65815 -1.45571,1.98633 -2.51695,2.51695 -2.75109,1.37554 -7.84975,-2.06859 -10.06779,1.25847 -0.95942,1.43912 -0.48498,3.48689 -1.25848,5.0339" fill="#ffff00" stroke="#000000" stroke-width="1.2" stroke-opacity="1" fill-opacity="0.981132" /></g><g id="path230"><path d="M 173.669,158.568 L 173.307,165.710 L 172.222,172.781 L 170.427,179.711 L 167.938,186.431 L 164.781,192.874 L 160.986,198.976 L 156.593,204.677 L 151.643,209.919 L 146.187,214.651 L 140.279,218.825 L 133.977,222.401 L 127.345,225.342 L 120.447,227.620 L 113.353,229.211 L 106.133,230.100 L 98.858,230.279 L 91.602,229.744 L 84.436,228.502 L 77.431,226.565 L 70.657,223.953 L 64.182,220.690 L 58.070,216.811 L 52.381,212.352 L 47.171,207.359 L 42.494,201.881 L 38.395,195.972 L 34.915,189.692 L 32.088,183.102 L 29.944,176.268 L 28.502,169.259 L 27.777,162.143 L 27.777,154.992 L 28.502,147.877 L 29.944,140.867 L 32.088,134.034 L 34.915,127.444 L 38.395,121.164 L 42.494,115.255 L 47.171,109.777 L 52.381,104.784 L 58.070,100.325 L 64.182,96.445 L 70.657,93.183 L 77.431,90.570 L 84.436,88.633 L 91.602,87.391 L 98.858,86.857 L 106.133,87.035 L 113.353,87.925 L 120.447,89.516 L 127.345,91.793 L 133.977,94.735 L 140.279,98.310 L 146.187,102.485 L 151.643,107.216 L 156.593,112.459 L 160.986,118.159 L 164.781,124.261 L 167.938,130.704 L 170.427,137.424 L 172.222,144.354 L 173.307,151.425 L 173.669,158.568 Z" fill="#ffff00" stroke="#000000" stroke-width="1.2" stroke-opacity="1" /></g><g id="path393"><path d="M 91.928,178.074 L 91.837,179.897 L 91.565,181.702 L 91.115,183.470 L 90.491,185.185 L 89.699,186.830 L 88.747,188.387 L 87.645,189.842 L 86.404,191.180 L 85.035,192.388 L 83.553,193.453 L 81.973,194.366 L 80.309,195.116 L 78.579,195.698 L 76.800,196.104 L 74.989,196.331 L 73.164,196.376 L 71.344,196.240 L 69.547,195.923 L 67.790,195.428 L 66.091,194.762 L 64.467,193.929 L 62.934,192.939 L 61.507,191.801 L 60.200,190.526 L 59.027,189.128 L 57.999,187.620 L 57.126,186.018 L 56.417,184.336 L 55.879,182.592 L 55.518,180.803 L 55.336,178.987 L 55.336,177.162 L 55.518,175.346 L 55.879,173.557 L 56.417,171.813 L 57.126,170.131 L 57.999,168.528 L 59.027,167.020 L 60.200,165.622 L 61.507,164.347 L 62.934,163.210 L 64.467,162.219 L 66.091,161.387 L 67.790,160.720 L 69.547,160.226 L 71.344,159.909 L 73.164,159.772 L 74.989,159.818 L 76.800,160.045 L 78.579,160.451 L 80.309,161.032 L 81.973,161.783 L 83.553,162.695 L 85.035,163.761 L 86.404,164.968 L 87.645,166.306 L 88.747,167.761 L 89.699,169.318 L 90.491,170.963 L 91.115,172.678 L 91.565,174.447 L 91.837,176.251 L 91.928,178.074 Z" fill="#ffffff" stroke="#000000" stroke-width="1.2" stroke-opacity="1" /></g><g id="path1267"><path d="M 85.615,186.719 L 85.568,187.479 L 85.428,188.231 L 85.195,188.968 L 84.872,189.682 L 84.462,190.368 L 83.970,191.017 L 83.400,191.623 L 82.758,192.180 L 82.050,192.683 L 81.284,193.127 L 80.466,193.508 L 79.606,193.820 L 78.711,194.062 L 77.790,194.232 L 76.854,194.326 L 75.910,194.345 L 74.968,194.288 L 74.039,194.156 L 73.130,193.950 L 72.251,193.673 L 71.411,193.326 L 70.618,192.913 L 69.880,192.439 L 69.204,191.908 L 68.598,191.325 L 68.066,190.697 L 67.614,190.029 L 67.248,189.328 L 66.969,188.602 L 66.782,187.856 L 66.688,187.100 L 66.688,186.339 L 66.782,185.582 L 66.969,184.837 L 67.248,184.110 L 67.614,183.410 L 68.066,182.742 L 68.598,182.113 L 69.204,181.531 L 69.880,181.000 L 70.618,180.526 L 71.411,180.113 L 72.251,179.766 L 73.130,179.488 L 74.039,179.282 L 74.968,179.150 L 75.910,179.094 L 76.854,179.113 L 77.790,179.207 L 78.711,179.376 L 79.606,179.619 L 80.466,179.931 L 81.284,180.312 L 82.050,180.755 L 82.758,181.259 L 83.400,181.816 L 83.970,182.422 L 84.462,183.071 L 84.872,183.756 L 85.195,184.471 L 85.428,185.208 L 85.568,185.960 L 85.615,186.719 Z" fill="#2b0000" stroke="#000000" stroke-width="1.2" stroke-opacity="1" /></g><g id="path397"><path d="M 146.031,176.186 L 145.946,178.196 L 145.693,180.186 L 145.274,182.136 L 144.693,184.026 L 143.956,185.839 L 143.071,187.556 L 142.045,189.160 L 140.890,190.635 L 139.616,191.967 L 138.237,193.141 L 136.766,194.147 L 135.218,194.975 L 133.608,195.616 L 131.952,196.063 L 130.267,196.314 L 128.569,196.364 L 126.875,196.213 L 125.202,195.864 L 123.567,195.319 L 121.986,194.584 L 120.475,193.666 L 119.048,192.574 L 117.720,191.320 L 116.504,189.915 L 115.413,188.373 L 114.456,186.711 L 113.643,184.944 L 112.984,183.090 L 112.483,181.167 L 112.147,179.195 L 111.977,177.193 L 111.977,175.180 L 112.147,173.178 L 112.483,171.206 L 112.984,169.283 L 113.643,167.429 L 114.456,165.662 L 115.413,164.000 L 116.504,162.458 L 117.720,161.053 L 119.048,159.799 L 120.475,158.707 L 121.986,157.789 L 123.567,157.054 L 125.202,156.509 L 126.875,156.160 L 128.569,156.009 L 130.267,156.059 L 131.952,156.310 L 133.608,156.757 L 135.218,157.398 L 136.766,158.226 L 138.237,159.232 L 139.616,160.406 L 140.890,161.738 L 142.045,163.213 L 143.071,164.817 L 143.956,166.534 L 144.693,168.346 L 145.274,170.237 L 145.693,172.187 L 145.946,174.177 L 146.031,176.186 Z" fill="#ffffff" stroke="#000000" stroke-width="1.2" stroke-opacity="1" /></g><g id="path1265"><path d="M 138.459,185.747 L 138.415,186.487 L 138.284,187.220 L 138.066,187.939 L 137.765,188.635 L 137.383,189.303 L 136.924,189.936 L 136.392,190.527 L 135.793,191.070 L 135.133,191.561 L 134.418,191.994 L 133.655,192.364 L 132.852,192.669 L 132.017,192.905 L 131.159,193.070 L 130.285,193.162 L 129.404,193.181 L 128.526,193.125 L 127.659,192.997 L 126.811,192.796 L 125.991,192.525 L 125.208,192.187 L 124.468,191.785 L 123.779,191.322 L 123.149,190.805 L 122.583,190.237 L 122.087,189.624 L 121.665,188.973 L 121.323,188.290 L 121.064,187.582 L 120.889,186.855 L 120.801,186.118 L 120.801,185.376 L 120.889,184.639 L 121.064,183.912 L 121.323,183.204 L 121.665,182.521 L 122.087,181.870 L 122.583,181.257 L 123.149,180.689 L 123.779,180.172 L 124.468,179.709 L 125.208,179.307 L 125.991,178.969 L 126.811,178.698 L 127.659,178.497 L 128.526,178.369 L 129.404,178.313 L 130.285,178.332 L 131.159,178.424 L 132.017,178.589 L 132.852,178.825 L 133.655,179.130 L 134.418,179.501 L 135.133,179.933 L 135.793,180.424 L 136.392,180.967 L 136.924,181.558 L 137.383,182.191 L 137.765,182.859 L 138.066,183.555 L 138.284,184.274 L 138.415,185.007 L 138.459,185.747 Z" fill="#2b0000" stroke="#000000" stroke-width="1.2" stroke-opacity="1" /></g><g id="path1439"><path d="m 101.93644,176.18644 c -3.55278,1.84828 -11.195999,6.97937 -13.843222,10.06779 -1.96864,2.29675 -4.077308,4.68109 -5.033896,7.55085 -0.265311,0.79593 0.311589,1.73798 0,2.51695 -0.133694,0.33423 -4.436285,4.97066 -3.775424,6.29237 1.431628,2.86326 8.945353,0.66325 11.32627,1.25848 0.575537,0.14388 0.695669,1.07087 1.258474,1.25847 1.59438,0.53146 9.755308,0.78548 11.326268,0 1.06124,-0.53062 1.52973,-1.85879 2.51695,-2.51695 2.89216,-1.9281 2.51695,-0.10489 2.51695,-2.51694" fill="#2b0000" stroke="#000000" stroke-width="1.2" stroke-opacity="1" fill-opacity="0" /></g><g id="path2136"><path d="m 80.542372,218.97457 c 9.726314,4.5029 24.667918,6.04008 35.237288,2.51695 0.56281,-0.1876 0.69567,-1.07087 1.25847,-1.25847 0.79593,-0.26531 1.76655,0.3752 2.51695,0 15.23785,-7.61892 -2.73828,-1.1847 8.80932,-5.0339" fill="#2b0000" stroke="#000000" stroke-width="1.2" stroke-opacity="1" fill-opacity="0" /></g></svg>