<?xml version="1.0" encoding="UTF-8" standalone="no"?>
<!-- Generator: Adobe Illustrator 27.5.0, SVG Export Plug-In . SVG Version: 6.00 Build 0)  -->

<svg
   version="1.1"
   id="Layer_2"
   x="0px"
   y="0px"
   viewBox="0 0 345.956 400"
   style="enable-background:new 0 0 345.956 400;"
   xml:space="preserve"
   sodipodi:docname="head_front.svg"
   inkscape:version="1.2.2 (732a01da63, 2022-12-09)"
   xmlns:inkscape="http://www.inkscape.org/namespaces/inkscape"
   xmlns:sodipodi="http://sodipodi.sourceforge.net/DTD/sodipodi-0.dtd"
   xmlns="http://www.w3.org/2000/svg"
   xmlns:svg="http://www.w3.org/2000/svg"><defs
   id="defs329">
			
			
		
			
			
		</defs><sodipodi:namedview
   id="namedview327"
   pagecolor="#ffffff"
   bordercolor="#000000"
   borderopacity="0.25"
   inkscape:showpageshadow="2"
   inkscape:pageopacity="0.0"
   inkscape:pagecheckerboard="0"
   inkscape:deskcolor="#d1d1d1"
   showgrid="false"
   inkscape:zoom="3.06"
   inkscape:cx="95.751634"
   inkscape:cy="159.47712"
   inkscape:window-width="2560"
   inkscape:window-height="1494"
   inkscape:window-x="-11"
   inkscape:window-y="-11"
   inkscape:window-maximized="1"
   inkscape:current-layer="layer8" />

<g
   inkscape:groupmode="layer"
   id="layer9"
   inkscape:label="face"
   style="enable-background:new 0 0 345.956 400;display:inline"><g
     id="g324"
     style="enable-background:new 0 0 345.956 400;display:inline">
	
	<g
   id="g322"
   style="display:inline">
		<path
   style="display:inline;fill:#f6b687"
   d="m 248.57,97.911 c 0.693,10.257 -0.602,20.899 -1.176,30.862 -0.997,17.306 -2.545,34.578 -4.91,51.75 -2.217,16.102 -4.958,32.611 -10.931,47.779 -7.487,19.013 -27.466,30.809 -45.459,38.287 -3.666,1.524 -7.329,3.501 -11.325,3.982 -4.304,0.518 -8.199,-1.311 -12.113,-2.843 -8.281,-3.24 -16.329,-7.201 -23.765,-12.091 -10.269,-6.754 -19.926,-15.675 -24.518,-27.335 -12.221,-31.035 -13.941,-67.135 -15.874,-100.085 -0.9,-15.345 -3.589,-32.138 2.984,-46.555 3.875,-8.499 10.095,-15.728 17.712,-21.101 15.841,-11.174 36.153,-14.179 55.109,-14.179 25.265,0 55.216,6.023 68.505,30.072 3.687,6.671 5.254,13.961 5.761,21.457 z"
   id="path222" />
		<path
   style="display:inline;fill:#f6b687"
   d="m 110.035,132.474 c 9.587,-7.789 23.068,-10.785 33.254,-28.461 10.186,-17.676 38.347,-26.963 48.833,-16.477 10.486,10.486 35.269,40.403 51.338,-8.709 0.082,-0.252 0.159,-0.502 0.237,-0.753 -0.269,-0.543 -0.547,-1.085 -0.843,-1.62 -13.289,-24.049 -43.241,-30.072 -68.505,-30.072 -18.956,0 -39.268,3.005 -55.109,14.179 -7.618,5.373 -13.838,12.603 -17.712,21.102 -6.573,14.417 -3.884,31.21 -2.984,46.555 0.824,14.05 1.613,28.673 3.19,43.232 -0.11,-7.118 0.095,-32.308 8.301,-38.976 z"
   id="path224" />
		
		
		
		
		
		
		
		
	</g>
</g></g><g
   inkscape:groupmode="layer"
   id="layer2"
   inkscape:label="LeftEar"
   style="enable-background:new 0 0 345.956 400"><g
     id="g230"
     style="enable-background:new 0 0 345.956 400;display:inline">
				<path
   style="fill:#f6b687"
   d="m 105.324,172.702 c -2.064,-5.637 -4.459,-11.182 -8.482,-15.727 -7.38,-8.338 -20.977,-4.416 -24.858,5.431 -3.065,7.778 0.239,16.74 4.106,23.623 3.56,6.335 8.238,12.792 15.256,15.664 5.848,2.393 16.536,3.212 18.863,-4.467 1.924,-6.352 -1.42,-14.723 -3.513,-20.675 -0.451,-1.28 -0.903,-2.567 -1.372,-3.849 z"
   id="path226" />
				<path
   style="fill:#f6b687"
   d="m 96.184,174.008 c 0,0 -5.132,-2.717 -5.434,3.522 -0.302,6.238 5.232,9.76 5.232,9.76 0,0 -15.294,2.616 -16.804,-13.382 -1.508,-15.999 13.988,-14.59 17.006,0.1 z"
   id="path228" />
			</g></g><g
   inkscape:groupmode="layer"
   id="layer3"
   inkscape:label="RightEar"><g
     id="g236"
     style="enable-background:new 0 0 345.956 400;display:inline">
				<path
   style="fill:#f6b687"
   d="m 240.632,172.702 c 2.064,-5.637 4.459,-11.182 8.482,-15.727 7.38,-8.338 20.977,-4.416 24.858,5.431 3.065,7.778 -0.239,16.74 -4.107,23.623 -3.56,6.335 -8.238,12.792 -15.256,15.664 -5.848,2.393 -16.536,3.212 -18.863,-4.467 -1.924,-6.352 1.42,-14.723 3.513,-20.675 0.451,-1.28 0.904,-2.567 1.373,-3.849 z"
   id="path232" />
				<path
   style="fill:#f6b687"
   d="m 249.771,174.008 c 0,0 5.132,-2.717 5.433,3.522 0.302,6.238 -5.232,9.76 -5.232,9.76 0,0 15.294,2.616 16.803,-13.382 1.51,-15.999 -13.985,-14.59 -17.004,0.1 z"
   id="path234" />
			</g></g><g
   inkscape:groupmode="layer"
   id="layer4"
   inkscape:label="RightEye"><g
     id="g278"
     style="enable-background:new 0 0 345.956 400;display:inline">
				<path
   style="fill:#754c29"
   d="m 188.406,145.66 c 7.161,0.149 12.382,-2.238 27.3,-4.774 14.918,-2.536 24.167,7.011 24.167,7.011 0,0 -4.792,-10.849 -20.96,-13.881 -16.168,-3.032 -28.715,1.516 -29.389,4.295 -0.674,2.779 -0.168,4.463 -0.758,5.558 0,0 0,-5.389 -1.6,-6.989 0,0 1.095,3.284 0.505,5.979 -0.59,2.694 0.735,2.801 0.735,2.801 z"
   id="path260" />
				<g
   id="g276">
					<g
   id="g274">
						<path
   style="fill:#ffffff"
   d="m 227.244,161.421 -1.555,7.316 c 0,0 -4.898,7.161 -17.058,8.568 -12.16,1.406 -18.928,-4.721 -18.928,-4.721 0,0 0.315,-20.179 19.755,-20.427 19.441,-0.249 17.786,9.264 17.786,9.264 z"
   id="path262" />
						<g
   id="g270">
							
								<circle
   transform="matrix(0.6086,-0.7935,0.7935,0.6086,-48.0707,227.7862)"
   style="fill:#2a709b"
   cx="206.858"
   cy="162.62"
   id="ellipse264"
   r="11.11" />
							<circle
   style="fill:#241f20"
   cx="206.858"
   cy="162.62"
   r="8.0419998"
   id="circle266" />
							<path
   style="fill:#ffffff"
   d="m 204.453,160.353 c 0,1.846 -1.496,3.342 -3.342,3.342 -1.846,0 -3.342,-1.496 -3.342,-3.342 0,-1.846 1.496,-3.342 3.342,-3.342 1.846,0 3.342,1.496 3.342,3.342 z"
   id="path268" />
						</g>
						<path
   style="fill:#754c29"
   d="m 189.704,172.583 c 0,0 -0.372,-18.986 13.898,-21.964 14.27,-2.978 26.183,6.701 26.183,6.701 0,0 0.745,7.073 -4.095,11.416 0,0 0.496,-9.555 -0.496,-10.672 -0.993,-1.117 -11.87,-7.787 -23.701,-3.226 -10.3,3.971 -11.789,17.745 -11.789,17.745 z"
   id="path272" />
					</g>
				</g>
			</g></g><g
   inkscape:groupmode="layer"
   id="layer5"
   inkscape:label="LeftEye"><g
     id="g258"
     style="enable-background:new 0 0 345.956 400;display:inline">
				<path
   style="fill:#754c29"
   d="m 156.243,145.66 c -7.161,0.149 -12.382,-2.238 -27.3,-4.774 -14.918,-2.536 -24.167,7.011 -24.167,7.011 0,0 4.792,-10.849 20.96,-13.881 16.168,-3.032 28.715,1.516 29.389,4.295 0.674,2.779 0.168,4.463 0.758,5.558 0,0 0,-5.389 1.6,-6.989 0,0 -1.095,3.284 -0.505,5.979 0.59,2.694 -0.735,2.801 -0.735,2.801 z"
   id="path240" />
				<g
   id="g256">
					<g
   id="g254">
						<path
   style="fill:#ffffff"
   d="m 117.404,161.421 1.555,7.316 c 0,0 4.898,7.161 17.058,8.568 12.16,1.406 18.928,-4.721 18.928,-4.721 0,0 -0.315,-20.179 -19.755,-20.427 -19.44,-0.249 -17.786,9.264 -17.786,9.264 z"
   id="path242" />
						<g
   id="g250">
							
								<circle
   transform="matrix(0.9854,-0.1704,0.1704,0.9854,-25.6931,25.8553)"
   style="fill:#2a709b"
   cx="137.791"
   cy="162.62"
   id="ellipse244"
   r="11.11" />
							<circle
   style="fill:#241f20"
   cx="137.791"
   cy="162.62"
   r="8.0419998"
   id="circle246" />
							<path
   style="fill:#ffffff"
   d="m 140.195,160.353 c 0,1.846 1.496,3.342 3.342,3.342 1.846,0 3.342,-1.496 3.342,-3.342 0,-1.846 -1.496,-3.342 -3.342,-3.342 -1.846,0 -3.342,1.496 -3.342,3.342 z"
   id="path248" />
						</g>
						<path
   style="fill:#754c29"
   d="m 154.945,172.583 c 0,0 0.372,-18.986 -13.898,-21.964 -14.27,-2.978 -26.183,6.701 -26.183,6.701 0,0 -0.744,7.073 4.095,11.416 0,0 -0.496,-9.555 0.496,-10.672 0.993,-1.117 11.87,-7.787 23.701,-3.226 10.3,3.971 11.789,17.745 11.789,17.745 z"
   id="path252" />
					</g>
				</g>
			</g></g><g
   inkscape:groupmode="layer"
   id="layer6"
   inkscape:label="Nose"><g
     id="g292"
     style="enable-background:new 0 0 345.956 400;display:inline">
			<path
   style="opacity:0.6;fill:#fed09e"
   d="m 191.521,200.243 c 0,0 -3.813,10.58 -11.983,7.094 0,0 -1.547,5.205 -6.509,5.205 h -0.104 c -4.962,0 -6.509,-5.205 -6.509,-5.205 -8.17,3.487 -11.983,-7.094 -11.983,-7.094 0,0 14.467,-26.463 18.771,-26.463 4.305,0 18.317,26.463 18.317,26.463 z"
   id="path282" />
			<g
   id="g288"
   style="display:inline">
				<path
   style="fill:#754c29"
   d="m 161.306,203.615 c -1.046,0.539 1.041,2.705 2.882,4.357 0.704,-0.097 1.446,-0.3 2.229,-0.635 0,0 -3.366,-4.621 -5.111,-3.722 z"
   id="path284" />
				<path
   style="fill:#754c29"
   d="m 184.674,203.615 c 1.046,0.539 -1.041,2.705 -2.882,4.357 -0.704,-0.097 -1.446,-0.3 -2.229,-0.635 0,0 3.366,-4.621 5.111,-3.722 z"
   id="path286" />
			</g>
			<path
   style="fill:#fed09e"
   d="m 188.417,199.98 c -1.861,-0.363 -3.728,-0.687 -5.6,-0.961 -3.735,-0.547 -7.49,-0.897 -11.252,-0.968 -3.354,-0.063 -6.733,0.057 -10.065,0.552 -2.341,0.347 -4.725,0.907 -6.928,1.988 0.743,1.787 4.56,9.855 11.845,6.746 0,0 1.547,5.205 6.509,5.205 h 0.104 c 4.962,0 6.509,-5.205 6.509,-5.205 7.101,3.03 10.908,-4.562 11.784,-6.602 -0.962,-0.299 -1.929,-0.564 -2.906,-0.755 z"
   id="path290" />
		</g></g><g
   inkscape:groupmode="layer"
   id="layer7"
   inkscape:label="Mouth"><path
     style="enable-background:new 0 0 345.956 400;display:inline;fill:#231f20"
     d="m 203.97,222.393 c -5.033,3.499 -11.08,5.043 -17.019,6.141 -0.69,0.102 -2.325,0.336 -2.984,0.434 -0.613,0.062 -2.357,0.24 -2.998,0.303 -2.308,0.211 -5.668,0.292 -8.019,0.307 v -0.624 h 0.089 v 0.624 l -4.012,-0.054 c -2.279,-0.104 -4.733,-0.282 -7.007,-0.539 -0.666,-0.094 -2.308,-0.333 -2.986,-0.429 -4.618,-0.812 -9.256,-1.989 -13.494,-4.045 -1.228,-0.594 -2.399,-1.223 -3.554,-2.078 l 0.715,-0.874 c 4.275,3.048 9.446,4.631 14.532,5.767 0,0 1.946,0.397 1.946,0.397 0.679,0.11 2.295,0.366 2.944,0.471 2.253,0.29 4.674,0.504 6.934,0.643 0,0 3.983,0.117 3.983,0.117 v 0.624 h -0.089 v -0.624 c 3.104,-0.054 6.872,-0.225 9.931,-0.629 1.12,-0.105 2.813,-0.411 3.934,-0.579 4.526,-0.864 9.057,-2.077 13.182,-4.15 1.166,-0.579 2.338,-1.246 3.324,-1.997 z"
     id="path294" /></g><g
   inkscape:groupmode="layer"
   id="layer8"
   inkscape:label="hair"><g
     id="g320"
     style="enable-background:new 0 0 345.956 400;display:inline">
			<path
   style="display:inline;fill:#d64f25"
   d="m 243.781,71.475 c 0,0 -13.214,-48.368 -68.313,-47.121 0,0 20.693,0.249 30.915,13.214 0,0 -30.417,-19.945 -75.793,5.485 0.001,0 71.555,-28.422 113.191,28.422 z"
   id="path314" />
			<path
   style="display:inline;fill:#d64f25"
   d="M 210.387,94.67 C 203.949,89.169 199.978,81.586 192.992,76.585 186.478,71.922 178.26,70.3 170.381,71.459 c -11.907,1.753 -21.852,8.678 -30.089,17.128 -4.222,4.331 -8.046,9.026 -11.806,13.757 -3.839,4.83 -7.299,10.318 -12.139,14.249 -4.911,3.987 -10.791,5.353 -16.985,4.477 -1.782,-0.252 -9.82,-1.517 -10.676,-3.595 3.397,8.25 7.475,7.921 7.475,7.921 29.899,-1.437 27.886,-24.149 63.535,-44.273 35.649,-20.124 42.261,23.862 59.51,23.286 17.249,-0.575 21.562,-16.099 21.562,-16.099 0,0 -0.424,1.755 -0.9,4.611 2.123,-7.57 3.595,-14.093 3.595,-14.093 -4.032,11.258 -21.572,25.673 -33.076,15.842 z"
   id="path316" />
			<path
   style="display:inline;fill:#d64f25"
   d="m 145.445,52.366 c -36.902,3.14 -59.409,24.078 -66.914,37.336 -4.289,11.138 -4.6,19.465 -3.495,25.401 11.876,-55.298 70.409,-62.737 70.409,-62.737 z"
   id="path318" />
		</g><g
     id="g310"
     style="enable-background:new 0 0 345.956 400;display:inline">
			<path
   style="fill:#d64f25"
   d="m 239.109,107.212 c 0,0 8.153,32.236 3.722,66.121 0,0 19.319,-32.419 17.192,-59.894 -2.127,-27.475 -20.914,-6.227 -20.914,-6.227 z"
   id="path304" />
			<path
   style="fill:#d64f25"
   d="m 239.109,107.212 c 0,0 8.153,32.236 3.722,66.121 0,0 19.319,-32.419 17.192,-59.894 -2.127,-27.475 -20.914,-6.227 -20.914,-6.227 z"
   id="path306" />
			<path
   style="fill:#d64f25"
   d="m 239.109,107.212 c 0,0 8.153,32.236 3.722,66.121 0,0 19.319,-32.419 17.192,-59.894 -2.127,-27.475 -20.914,-6.227 -20.914,-6.227 z"
   id="path308" />
		</g><g
     id="g302"
     style="enable-background:new 0 0 345.956 400;display:inline">
			<path
   style="fill:#d64f25"
   d="m 105.081,116.606 c 0,0 -7.228,27.656 -3.3,56.727 0,0 -17.128,-27.813 -15.242,-51.384 1.885,-23.571 18.542,-5.343 18.542,-5.343 z"
   id="path296" />
			<path
   style="fill:#d64f25"
   d="m 105.081,116.606 c 0,0 -7.228,27.656 -3.3,56.727 0,0 -17.128,-27.813 -15.242,-51.384 1.885,-23.571 18.542,-5.343 18.542,-5.343 z"
   id="path298" />
			<path
   style="fill:#d64f25"
   d="m 105.081,116.606 c 0,0 -7.228,27.656 -3.3,56.727 0,0 -17.128,-27.813 -15.242,-51.384 1.885,-23.571 18.542,-5.343 18.542,-5.343 z"
   id="path300" />
		</g><path
     style="enable-background:new 0 0 345.956 400;display:inline;fill:#d64f25"
     d="m 247.813,66.668 c -3.246,-51.944 -65.239,-56.273 -65.239,-56.273 17.933,4.483 25.508,11.44 25.508,11.44 -51.48,-24.581 -95.386,-3.247 -95.386,-3.247 12.368,-4.174 24.581,-1.855 24.581,-1.855 C 77.912,20.907 66.627,67.44 66.627,67.44 76.521,49.353 92.29,47.652 92.29,47.652 c 0,0 -18.86,6.493 -23.498,26.127 -4.638,19.634 3.71,36.175 3.71,36.175 -0.773,-12.368 6.029,-20.252 6.029,-20.252 -10.358,26.9 2.473,37.412 2.473,37.412 -0.927,-3.092 0.206,-7.469 0.206,-7.469 2.875,15.812 -5.462,23.574 -5.462,23.574 18.112,-2.012 20.412,-17.824 20.412,-17.824 29.899,-1.437 27.886,-24.149 63.535,-44.273 35.648,-20.124 42.261,23.862 59.51,23.286 17.249,-0.575 21.562,-16.099 21.562,-16.099 0,0 -8.113,33.557 6.695,46.442 0,0 -0.769,-10.001 8.27,-16.347 0,0 -3.462,4.423 -2.885,7.308 0,0 2.693,-6.154 11.539,-10.962 8.847,-4.808 15.193,-36.348 -4.616,-44.426 0,0 13.655,0.962 15.578,20.001 0,0 4.231,-22.309 -19.039,-25.963 0,0 0.306,-14.33 -8.579,-20.693 -10e-4,0.001 6.117,12.578 0.083,22.999"
     id="path312" /></g></svg>
