<?xml version='1.0' encoding='utf-8'?>
<svg xmlns="http://www.w3.org/2000/svg" width="210" height="297" viewBox="0 0 210 297"><g id="path2717"><path d="m 28.944914,147.24152 c -8.783163,3.07931 -18.652686,-1.40809 -26.4279649,3.77543 -1.1037552,0.73583 -0.5226377,2.67167 -1.2584746,3.77542 C 0.92939834,155.28599 0.1438844,155.47531 0,156.05085 c -0.30522492,1.22089 0.30522492,2.55452 0,3.77542 -1.8411849,7.36474 -0.46293129,-2.84956 -2.5169491,1.25847 -0.6994698,1.39894 -0.5033297,8.55781 0,10.0678 1.54181808,4.62545 9.2623979,7.14815 12.5847461,8.80932 4.857547,2.42877 4.27088,5.28163 8.809321,7.55085 5.133038,2.56652 13.188953,1.25847 18.877119,1.25847" fill="#ffff00" stroke="#000000" stroke-width="1.2" stroke-opacity="1" fill-opacity="0.981132" /></g><g id="path2147"><path d="m 169.89407,144.72457 c 2.93644,0.41949 5.91903,0.59149 8.80932,1.25848 5.17031,1.19315 10.35569,2.66089 15.10169,5.0339 0.37521,0.1876 -0.3752,1.07087 0,1.25847 1.07212,0.53606 4.06785,0.29242 5.0339,1.25848 0.91963,0.91962 -2.07573,11.26108 -2.51695,12.58474 -0.60593,1.8178 -7.04271,7.63158 -8.80932,8.80932 -1.04517,0.69678 -3.98873,0.5617 -5.0339,1.25848 -0.98723,0.65815 -1.45571,1.98633 -2.51695,2.51695 -2.75109,1.37554 -7.84975,-2.06859 -10.06779,1.25847 -0.95942,1.43912 -0.48498,3.48689 -1.25848,5.0339" fill="#ffff00" stroke="#000000" stroke-width="1.2" stroke-opacity="1" fill-opacity="0.98113215" /></g><g id="path230"><path d="M 185.027,167.764 L 183.419,173.176 L 181.663,178.499 L 179.720,183.710 L 177.499,188.695 L 175.148,193.553 L 172.600,198.204 L 169.850,202.588 L 166.991,206.809 L 163.945,210.715 L 160.769,214.346 L 157.507,217.789 L 154.087,220.797 L 150.599,223.560 L 147.043,226.074 L 143.394,228.111 L 139.716,229.922 L 135.996,231.385 L 132.255,232.426 L 128.510,233.235 L 124.772,233.595 L 121.061,233.616 L 117.370,233.406 L 113.757,232.653 L 110.196,231.661 L 106.699,230.361 L 103.328,228.606 L 100.029,226.633 L 96.862,224.282 L 93.839,221.592 L 90.908,218.698 L 88.193,215.384 L 85.618,211.842 L 83.171,208.090 L 80.998,203.959 L 78.957,199.674 L 77.116,195.157 L 75.539,190.389 L 74.107,185.494 L 72.950,180.386 L 72.027,175.134 L 71.262,169.791 L 70.838,164.292 L 70.609,158.735 L 70.562,153.122 L 70.877,147.456 L 71.357,141.787 L 72.065,136.119 L 73.081,130.501 L 74.257,124.925 L 75.691,119.433 L 77.373,114.067 L 79.204,108.786 L 81.307,103.696 L 83.593,98.775 L 86.011,93.979 L 88.694,89.498 L 91.498,85.196 L 94.431,81.088 L 97.566,77.360 L 100.784,73.824 L 104.124,70.579 L 107.583,67.710 L 111.100,65.052 L 114.711,62.793 L 118.374,60.870 L 122.069,59.170 L 125.807,57.980 L 129.549,57.055 L 133.297,56.418 L 137.019,56.280 L 140.720,56.375 L 144.377,56.850 L 147.962,57.729 L 151.502,58.836 L 154.929,60.404 L 158.263,62.268 L 161.524,64.363 L 164.594,66.953 L 167.570,69.744 L 170.409,72.828 L 173.041,76.279 L 175.561,79.914 L 177.865,83.871 L 179.971,88.078 L 181.947,92.445 L 183.624,97.126 L 185.128,101.957 L 186.462,106.935 L 187.465,112.143 L 188.308,117.440 L 188.919,122.861 L 189.230,128.395 L 189.376,133.978 L 189.234,139.626 L 188.836,145.293 L 188.273,150.965 L 187.380,156.611 L 186.284,162.207 L 185.027,167.764 Z" fill="#ffff00" stroke="#000000" stroke-width="1.2" stroke-opacity="1" /></g><g id="path393"><path d="M 99.557,127.429 L 99.110,128.866 L 98.634,130.286 L 98.106,131.682 L 97.524,133.037 L 96.913,134.369 L 96.239,135.655 L 95.541,136.903 L 94.791,138.109 L 94.003,139.260 L 93.193,140.363 L 92.331,141.416 L 91.456,142.399 L 90.539,143.320 L 89.595,144.179 L 88.648,144.963 L 87.655,145.661 L 86.657,146.281 L 85.659,146.817 L 84.632,147.246 L 83.613,147.574 L 82.605,147.805 L 81.591,147.916 L 80.603,147.896 L 79.632,147.775 L 78.684,147.527 L 77.775,147.129 L 76.894,146.629 L 76.053,146.021 L 75.264,145.273 L 74.512,144.427 L 73.815,143.492 L 73.174,142.463 L 72.578,141.345 L 72.049,140.165 L 71.578,138.919 L 71.163,137.611 L 70.807,136.268 L 70.522,134.874 L 70.289,133.447 L 70.117,132.001 L 70.013,130.520 L 69.962,129.034 L 69.984,127.532 L 70.046,126.020 L 70.181,124.518 L 70.374,123.008 L 70.605,121.509 L 70.918,120.023 L 71.265,118.549 L 71.670,117.094 L 72.131,115.666 L 72.623,114.253 L 73.188,112.882 L 73.782,111.537 L 74.424,110.222 L 75.116,108.962 L 75.833,107.733 L 76.606,106.553 L 77.399,105.425 L 78.242,104.350 L 79.113,103.331 L 80.001,102.375 L 80.939,101.484 L 81.883,100.667 L 82.853,99.924 L 83.853,99.257 L 84.847,98.687 L 85.860,98.202 L 86.886,97.820 L 87.898,97.544 L 88.908,97.366 L 89.911,97.326 L 90.891,97.395 L 91.853,97.572 L 92.780,97.903 L 93.675,98.352 L 94.542,98.903 L 95.354,99.580 L 96.123,100.384 L 96.851,101.274 L 97.523,102.250 L 98.135,103.332 L 98.698,104.483 L 99.205,105.689 L 99.644,106.973 L 100.027,108.301 L 100.351,109.667 L 100.613,111.082 L 100.812,112.516 L 100.944,113.981 L 101.027,115.467 L 101.044,116.958 L 100.996,118.468 L 100.903,119.974 L 100.733,121.482 L 100.524,122.988 L 100.250,124.479 L 99.919,125.959 L 99.557,127.429 Z" fill="#ffffff" stroke="#000000" stroke-width="1.2" stroke-opacity="1" /></g><g id="path1267"><path d="M 86.391,134.481 L 86.178,135.141 L 85.941,135.787 L 85.679,136.418 L 85.379,137.023 L 85.059,137.604 L 84.717,138.162 L 84.348,138.692 L 83.967,139.191 L 83.562,139.661 L 83.142,140.102 L 82.718,140.510 L 82.269,140.882 L 81.818,141.222 L 81.362,141.528 L 80.891,141.798 L 80.424,142.029 L 79.952,142.225 L 79.476,142.382 L 79.007,142.502 L 78.533,142.581 L 78.067,142.617 L 77.607,142.622 L 77.151,142.571 L 76.704,142.489 L 76.265,142.367 L 75.839,142.193 L 75.420,141.991 L 75.018,141.740 L 74.628,141.448 L 74.252,141.125 L 73.896,140.755 L 73.552,140.351 L 73.230,139.918 L 72.930,139.440 L 72.649,138.934 L 72.391,138.402 L 72.158,137.835 L 71.953,137.246 L 71.774,136.634 L 71.624,135.997 L 71.503,135.347 L 71.419,134.678 L 71.362,133.996 L 71.338,133.311 L 71.359,132.613 L 71.404,131.914 L 71.491,131.221 L 71.615,130.530 L 71.766,129.846 L 71.955,129.175 L 72.180,128.522 L 72.428,127.883 L 72.709,127.263 L 73.021,126.672 L 73.347,126.101 L 73.707,125.557 L 74.084,125.044 L 74.474,124.558 L 74.889,124.102 L 75.311,123.679 L 75.748,123.289 L 76.200,122.930 L 76.650,122.608 L 77.116,122.322 L 77.585,122.071 L 78.051,121.853 L 78.530,121.679 L 79.001,121.543 L 79.471,121.441 L 79.942,121.386 L 80.405,121.365 L 80.865,121.386 L 81.315,121.455 L 81.760,121.552 L 82.191,121.705 L 82.614,121.893 L 83.026,122.112 L 83.420,122.391 L 83.806,122.696 L 84.170,123.041 L 84.520,123.432 L 84.853,123.851 L 85.163,124.306 L 85.457,124.798 L 85.726,125.316 L 85.969,125.866 L 86.189,126.446 L 86.385,127.043 L 86.546,127.670 L 86.681,128.315 L 86.786,128.973 L 86.856,129.650 L 86.895,130.334 L 86.895,131.025 L 86.864,131.724 L 86.801,132.420 L 86.693,133.114 L 86.555,133.801 L 86.391,134.481 Z" fill="#2b0000" stroke="#000000" stroke-width="1.2" stroke-opacity="1" /></g><g id="path397"><path d="M 143.192,142.096 L 142.893,143.304 L 142.577,144.504 L 142.193,145.683 L 141.777,146.841 L 141.310,147.983 L 140.796,149.090 L 140.245,150.181 L 139.638,151.234 L 139.001,152.261 L 138.306,153.254 L 137.572,154.200 L 136.799,155.113 L 135.971,155.976 L 135.119,156.791 L 134.205,157.551 L 133.258,158.247 L 132.279,158.886 L 131.246,159.446 L 130.186,159.924 L 129.096,160.324 L 127.975,160.635 L 126.830,160.831 L 125.673,160.922 L 124.506,160.915 L 123.338,160.791 L 122.188,160.525 L 121.055,160.149 L 119.943,159.659 L 118.883,159.045 L 117.882,158.300 L 116.937,157.462 L 116.070,156.540 L 115.284,155.536 L 114.568,154.472 L 113.931,153.367 L 113.372,152.213 L 112.880,151.026 L 112.456,149.824 L 112.110,148.589 L 111.817,147.346 L 111.594,146.093 L 111.426,144.827 L 111.316,143.566 L 111.271,142.297 L 111.262,141.034 L 111.331,139.774 L 111.427,138.518 L 111.596,137.277 L 111.800,136.042 L 112.057,134.821 L 112.364,133.618 L 112.707,132.423 L 113.114,131.260 L 113.546,130.106 L 114.046,128.985 L 114.573,127.884 L 115.155,126.808 L 115.779,125.773 L 116.443,124.761 L 117.160,123.793 L 117.905,122.859 L 118.713,121.969 L 119.553,121.135 L 120.433,120.344 L 121.367,119.614 L 122.328,118.950 L 123.334,118.347 L 124.382,117.825 L 125.457,117.390 L 126.560,117.027 L 127.698,116.774 L 128.849,116.634 L 130.011,116.592 L 131.181,116.651 L 132.340,116.851 L 133.482,117.172 L 134.606,117.604 L 135.694,118.156 L 136.726,118.838 L 137.699,119.631 L 138.607,120.513 L 139.436,121.473 L 140.182,122.513 L 140.860,123.599 L 141.462,124.725 L 141.982,125.901 L 142.440,127.096 L 142.825,128.314 L 143.147,129.556 L 143.408,130.800 L 143.595,132.063 L 143.740,133.326 L 143.812,134.591 L 143.842,135.860 L 143.810,137.118 L 143.724,138.377 L 143.601,139.626 L 143.405,140.864 L 143.192,142.096 Z" fill="#ffffff" stroke="#000000" stroke-width="1.2" stroke-opacity="1" /></g><g id="path1265"><path d="M 130.731,150.258 L 130.591,150.773 L 130.430,151.277 L 130.239,151.770 L 130.010,152.241 L 129.758,152.696 L 129.479,153.134 L 129.171,153.548 L 128.844,153.942 L 128.491,154.313 L 128.117,154.659 L 127.732,154.984 L 127.317,155.280 L 126.894,155.550 L 126.456,155.797 L 126.001,156.014 L 125.539,156.205 L 125.064,156.370 L 124.580,156.502 L 124.091,156.612 L 123.593,156.689 L 123.093,156.734 L 122.588,156.760 L 122.083,156.743 L 121.576,156.701 L 121.069,156.633 L 120.569,156.524 L 120.069,156.393 L 119.578,156.224 L 119.095,156.022 L 118.620,155.794 L 118.162,155.526 L 117.715,155.228 L 117.288,154.902 L 116.885,154.538 L 116.502,154.152 L 116.145,153.740 L 115.817,153.298 L 115.517,152.839 L 115.249,152.360 L 115.011,151.861 L 114.807,151.353 L 114.640,150.829 L 114.503,150.296 L 114.402,149.760 L 114.343,149.216 L 114.313,148.671 L 114.319,148.130 L 114.369,147.592 L 114.444,147.060 L 114.557,146.537 L 114.708,146.028 L 114.882,145.529 L 115.094,145.045 L 115.334,144.583 L 115.596,144.135 L 115.893,143.708 L 116.212,143.307 L 116.549,142.923 L 116.915,142.563 L 117.295,142.230 L 117.695,141.919 L 118.114,141.636 L 118.543,141.376 L 118.992,141.145 L 119.450,140.942 L 119.917,140.760 L 120.399,140.613 L 120.885,140.495 L 121.378,140.398 L 121.877,140.339 L 122.380,140.304 L 122.887,140.298 L 123.391,140.329 L 123.899,140.381 L 124.402,140.472 L 124.902,140.592 L 125.400,140.738 L 125.885,140.928 L 126.366,141.142 L 126.832,141.388 L 127.284,141.674 L 127.721,141.986 L 128.136,142.331 L 128.531,142.705 L 128.902,143.103 L 129.242,143.533 L 129.558,143.983 L 129.844,144.450 L 130.094,144.941 L 130.315,145.446 L 130.503,145.961 L 130.653,146.490 L 130.772,147.026 L 130.853,147.565 L 130.896,148.110 L 130.911,148.653 L 130.880,149.193 L 130.818,149.728 L 130.731,150.258 Z" fill="#2b0000" stroke="#000000" stroke-width="1.2" stroke-opacity="1" /></g><g id="path1439"><path d="m 101.93644,176.18644 c -3.55278,1.84828 -11.195999,6.97937 -13.843222,10.06779 -1.96864,2.29675 -4.077308,4.68109 -5.033896,7.55085 -0.265311,0.79593 0.311589,1.73798 0,2.51695 -0.133694,0.33423 -4.436285,4.97066 -3.775424,6.29237 1.431628,2.86326 8.945353,0.66325 11.32627,1.25848 0.575537,0.14388 0.695669,1.07087 1.258474,1.25847 1.59438,0.53146 9.755308,0.78548 11.326268,0 1.06124,-0.53062 1.52973,-1.85879 2.51695,-2.51695 2.89216,-1.9281 2.51695,-0.10489 2.51695,-2.51694" fill="#2b0000" stroke="#000000" stroke-width="1.2" stroke-opacity="1" fill-opacity="0" /></g><g id="path2136"><path d="m 80.542372,218.97457 c 9.726314,4.5029 24.667918,6.04008 35.237288,2.51695 0.56281,-0.1876 0.69567,-1.07087 1.25847,-1.25847 0.79593,-0.26531 1.76655,0.3752 2.51695,0 15.23785,-7.61892 -2.73828,-1.1847 8.80932,-5.0339" fill="#2b0000" stroke="#000000" stroke-width="1.2" stroke-opacity="1" fill-opacity="0" /></g></svg>